<svg xmlns="http://www.w3.org/2000/svg"><symbol fill="none" id="sprite-calc-wh" viewBox="0 0 18 24"><title>calc-wh</title><path d="M17.526 23.953a.474.474 0 00.474-.474V1.311a.474.474 0 00-.474-.474H.474A.474.474 0 000 1.31v22.168c0 .262.212.474.474.474h17.052zM.947 1.784h16.106v21.221H.947V1.785z" fill="#fff"/><path d="M14.967 3.395H3.03a.474.474 0 00-.473.473v4.263c0 .262.212.474.473.474h11.937a.474.474 0 00.474-.474V3.868a.474.474 0 00-.474-.473zm-.474 4.263H3.504V4.342h10.99v3.316zm-9.327 5.21a.9.9 0 100-1.8.9.9 0 000 1.8zm7.675 0a.9.9 0 100-1.8.9.9 0 000 1.8zm-3.843 0a.9.9 0 100-1.8.9.9 0 000 1.8zm-3.832 2.037a.9.9 0 10.001 1.802.9.9 0 00-.001-1.802zm7.675 0a.9.9 0 10.002 1.802.9.9 0 00-.002-1.802zm-3.843 0a.9.9 0 10.001 1.802.9.9 0 00-.001-1.802zm-3.832 3.837a.9.9 0 10.001 1.802.9.9 0 00-.001-1.802zm7.675 0a.9.9 0 10.002 1.802.9.9 0 00-.002-1.802zm-3.843 0a.9.9 0 10.001 1.802.9.9 0 00-.001-1.802z" fill="#fff"/></symbol><symbol fill="none" id="sprite-calc" viewBox="0 0 18 24"><title>calc</title><path d="M17.526 23.953a.474.474 0 00.474-.474V1.311a.474.474 0 00-.474-.474H.474A.474.474 0 000 1.31v22.168c0 .262.212.474.474.474h17.052zM.947 1.784h16.106v21.221H.947V1.785z" fill="#D4AF81"/><path d="M14.967 3.395H3.03a.474.474 0 00-.473.473v4.263c0 .262.212.474.473.474h11.937a.474.474 0 00.474-.474V3.868a.474.474 0 00-.474-.473zm-.474 4.263H3.504V4.342h10.99v3.316zm-9.327 5.21a.9.9 0 100-1.8.9.9 0 000 1.8zm7.675 0a.9.9 0 100-1.8.9.9 0 000 1.8zm-3.843 0a.9.9 0 100-1.8.9.9 0 000 1.8zm-3.832 2.037a.9.9 0 10.001 1.802.9.9 0 00-.001-1.802zm7.675 0a.9.9 0 10.002 1.802.9.9 0 00-.002-1.802zm-3.843 0a.9.9 0 10.001 1.802.9.9 0 00-.001-1.802zm-3.832 3.837a.9.9 0 10.001 1.802.9.9 0 00-.001-1.802zm7.675 0a.9.9 0 10.002 1.802.9.9 0 00-.002-1.802zm-3.843 0a.9.9 0 10.001 1.802.9.9 0 00-.001-1.802z" fill="#D4AF81"/></symbol><symbol fill="none" id="sprite-next-wh" viewBox="0 0 30 29"><title>next-wh</title><g clip-path="url(#clip0)"><path d="M20.214 24.388a1.085 1.085 0 01-1.512 0 1.007 1.007 0 010-1.447l7.666-7.41H1.073c-.59 0-1.073-.453-1.073-1.023 0-.57.484-1.037 1.073-1.037h25.295l-7.666-7.396a1.024 1.024 0 010-1.462 1.085 1.085 0 011.512 0l9.48 9.164a1.007 1.007 0 010 1.447l-9.48 9.164z" fill="#fff"/></g><defs><clipPath id="clip0"><path transform="rotate(180 30 29)" fill="#fff" d="M30 29h30v29H30z"/></clipPath></defs></symbol><symbol fill="none" id="sprite-next" viewBox="0 0 30 29"><title>next</title><g clip-path="url(#clip0)"><path d="M20.214 24.388a1.085 1.085 0 01-1.512 0 1.007 1.007 0 010-1.447l7.666-7.41H1.073c-.59 0-1.073-.453-1.073-1.023 0-.57.484-1.037 1.073-1.037h25.295l-7.666-7.396a1.024 1.024 0 010-1.462 1.085 1.085 0 011.512 0l9.48 9.164a1.007 1.007 0 010 1.447l-9.48 9.164z" fill="#543018"/></g><defs><clipPath id="clip0"><path transform="rotate(180 30 29)" fill="#fff" d="M30 29h30v29H30z"/></clipPath></defs></symbol><symbol fill="none" id="sprite-plus" viewBox="0 0 15 15"><title>plus</title><path fill-rule="evenodd" clip-rule="evenodd" d="M8.25 6.75H15v1.5H8.25V15h-1.5V8.25H0v-1.5h6.75V0h1.5v6.75z" fill="#1D1D1D"/></symbol><symbol fill="none" id="sprite-prev-wh" viewBox="0 0 30 29"><title>prev-wh</title><g clip-path="url(#clip0)"><path d="M9.786 4.612a1.085 1.085 0 011.512 0 1.007 1.007 0 010 1.447l-7.666 7.41h25.295c.59 0 1.073.453 1.073 1.023 0 .57-.484 1.037-1.073 1.037H3.632l7.666 7.396a1.024 1.024 0 010 1.462 1.085 1.085 0 01-1.512 0l-9.48-9.164a1.007 1.007 0 010-1.447l9.48-9.164z" fill="#fff"/></g><defs><clipPath id="clip0"><path fill="#fff" d="M0 0h30v29H0z"/></clipPath></defs></symbol><symbol fill="none" id="sprite-prev" viewBox="0 0 30 29"><title>prev</title><g clip-path="url(#clip0)"><path d="M9.786 4.612a1.085 1.085 0 011.512 0 1.007 1.007 0 010 1.447l-7.666 7.41h25.295c.59 0 1.073.453 1.073 1.023 0 .57-.484 1.037-1.073 1.037H3.632l7.666 7.396a1.024 1.024 0 010 1.462 1.085 1.085 0 01-1.512 0l-9.48-9.164a1.007 1.007 0 010-1.447l9.48-9.164z" fill="#543018"/></g><defs><clipPath id="clip0"><path fill="#fff" d="M0 0h30v29H0z"/></clipPath></defs></symbol></svg>