<svg width="153" height="124" viewBox="0 0 153 124" fill="none" xmlns="http://www.w3.org/2000/svg">
<path d="M117.726 4.84176C114.785 5.50205 111.974 6.64446 109.035 7.21533C105.652 7.88595 102.181 8.26497 98.7453 8.70275C95.3097 9.14052 91.9432 9.98524 88.5128 10.6442C81.5551 11.5878 74.7777 13.5665 68.4051 16.5147C66.1567 17.6866 63.8918 18.8843 61.5277 19.8376C56.9778 21.9792 52.7938 24.8244 49.1293 28.2687C42.9429 33.482 39.1414 40.6057 34.682 47.0767C32.6303 50.3705 31.1504 53.988 30.3052 57.776C28.6227 63.8289 27.6865 70.0651 27.5174 76.3456C27.1746 86.3029 27.9212 96.2679 29.7439 106.063C29.9185 106.692 29.939 107.353 29.8036 107.991C29.6683 108.629 29.3812 109.225 28.9666 109.729C26.759 112.436 24.3593 114.982 21.7859 117.344C21.4198 117.693 20.8252 117.916 21.1543 118.887C21.8132 118.703 22.3893 118.299 22.7865 117.742C24.5651 115.764 26.7845 114.265 28.4784 112.306C30.5665 109.925 32.9006 110.224 35.423 110.569C36.3359 110.676 37.2212 111.055 38.1272 111.23C41.3644 111.954 44.6686 112.338 47.9856 112.374C49.7597 112.299 51.5369 112.368 53.2998 112.582C54.6752 112.815 56.0761 112.86 57.4635 112.714C63.4735 112.296 69.4551 111.539 75.38 110.449C77.1404 110.23 78.8859 109.905 80.6068 109.475C87.7802 106.915 94.3319 102.868 99.833 97.599C105.475 91.8334 110.495 85.4895 114.809 78.6723C117.45 74.9667 119.402 70.8153 120.57 66.417C121.92 60.8443 123.719 55.3931 125.03 49.8511C126.355 43.0058 127.13 36.0656 127.35 29.0965C127.737 24.2216 128.179 19.3568 128.674 14.5021C129.021 11.0162 130.15 7.65392 131.978 4.66619C132.202 4.39353 132.333 4.05699 132.354 3.70483C132.375 3.35266 132.284 3.00295 132.093 2.7058C131.898 2.46307 131.634 2.2844 131.336 2.19276C131.039 2.10113 130.72 2.10072 130.422 2.1916C126.188 3.03106 121.934 3.78586 117.726 4.84176ZM119.616 5.44022C120.904 8.30542 121.6 11.4017 121.66 14.5425C121.671 14.8539 121.615 15.1641 121.495 15.4518C121.376 15.7395 121.196 15.9981 120.967 16.21C119.799 17.3877 118.564 18.4965 117.268 19.5309C117.581 17.3435 117.65 15.128 117.474 12.9253C116.999 10.8084 115.36 8.95288 115.587 6.30044C116.9 5.89 118.247 5.59508 119.612 5.41905L119.616 5.44022ZM114.301 6.61138C114.556 9.33341 116.318 11.3393 116.587 13.9248C116.898 15.3583 116.752 16.8533 116.169 18.199C115.934 18.6254 115.834 19.1129 115.882 19.5973C116.27 22.512 113.793 23.5573 112.249 25.1935C112.124 25.3147 111.962 25.3907 111.789 25.4094C111.617 25.428 111.442 25.3884 111.294 25.2967C109.784 19.8547 109.961 14.0116 107.958 8.25765C110.138 8.00615 112.273 7.45207 114.301 6.61138ZM106.987 8.38674C108.291 13.6578 109.318 18.9936 110.064 24.3721C110.319 25.3493 110.28 26.3797 109.953 27.3349C109.626 28.2901 109.025 29.1278 108.225 29.7434C106.99 30.7767 105.951 31.9883 104.587 33.3395C102.958 29.0935 102.183 24.5672 102.309 20.0209C102.315 17.5692 102.028 15.1254 101.452 12.7421C101.226 11.6315 101.121 10.4994 101.139 9.36605L106.987 8.38674ZM99.3089 9.33221C100.226 11.0274 100.768 12.9003 100.897 14.8234C101.324 17.4195 101.513 20.049 101.461 22.6793C101.23 24.6122 101.472 26.5724 102.165 28.3912C104.52 33.5326 102.458 37.2195 98.2269 40.5486C96.4139 30.394 93.9009 20.6855 91.7943 10.708L99.3089 9.33221ZM90.6401 11.0116C91.1072 13.5251 91.7382 16.0053 92.5292 18.4364C93.8193 25.1731 95.7019 31.7767 97.0344 38.5039C97.5096 40.6207 97.4027 42.2234 95.5075 43.5827C94.6314 44.3514 93.8493 45.2211 93.1776 46.1737C92.7225 46.7205 92.3097 47.2579 91.5285 47.1442C88.6704 35.6011 87.9778 23.7051 85.3709 11.9944C86.7242 11.2903 88.5764 11.7194 90.6401 11.0116ZM74.6821 14.9722C75.4495 16.1312 75.9098 17.4663 76.0199 18.852C77.4361 25.0248 79.2315 31.1045 81.3959 37.0563C82.8742 42.0263 83.7212 47.1626 83.9167 52.344C83.8787 52.7407 83.9857 53.1378 84.2178 53.4618C84.4498 53.7858 84.7914 54.0147 85.1791 54.1062C84.5457 50.9749 84.0948 47.8095 83.8287 44.6259C83.225 40.3483 82.127 36.1551 80.5567 32.1306C79.2214 28.5102 78.247 24.7667 77.6477 20.9547C77.3483 19.6211 77.0441 18.2663 76.74 16.9115C76.4126 16.0799 76.3322 15.1715 76.5082 14.2954C78.8048 13.4389 81.1817 12.8158 83.6031 12.4357C85.5283 16.4973 86.6022 20.9099 86.7585 25.4019C87.2535 30.4527 88.1752 35.4526 89.5138 40.3479C90.1316 43.0998 89.5122 45.8848 90.1675 48.606C90.1808 48.7601 90.161 48.9153 90.1094 49.0611C90.0578 49.2069 89.9756 49.34 89.8684 49.4514C88.59 51.1628 87.0642 52.6743 85.341 53.9364C83.1248 56.5661 80.7013 59.0136 78.0939 61.2556C74.7673 46.4379 71.8199 31.8241 68.9083 17.4691C70.5255 16.0548 72.5442 15.1818 74.6821 14.9722ZM67.178 17.8798C67.5638 18.1406 67.8753 18.4972 68.082 18.9146C68.2886 19.332 68.3835 19.796 68.3571 20.261C68.75 24.232 69.5914 28.1457 70.8651 31.9273C71.9525 35.9627 72.7556 40.0695 73.2686 44.2173C73.6696 47.0428 74.2957 49.8318 75.141 52.5576C76.0357 55.4493 76.6011 58.4327 76.8265 61.4512C76.95 62.0016 77.0689 62.5308 76.5477 62.9813L70.3243 69.5148C68.9312 60.9335 68.1039 52.8923 66.5757 44.8972C65.0475 36.9021 62.7205 29.3087 61.5563 21.0541C63.3854 19.5984 65.4776 19.0175 67.178 17.8798ZM51.5967 27.1811C52.3694 28.4363 52.8933 29.8285 53.1396 31.2818C53.7975 35.3172 54.6583 39.3168 55.7188 43.2655C57.6902 51.3652 59.0347 59.6047 59.7404 67.9108C59.9114 70.7674 60.3758 73.5988 61.1261 76.3603C61.2829 77.0589 61.4255 77.6939 62.2585 77.8404C60.5164 71.9613 60.9281 65.7764 59.7879 59.8066C58.3431 52.2819 57.35 44.7893 55.2303 37.3273C54.6281 35.239 54.5898 32.8906 54.1004 30.7103C54.0239 30.1725 53.9047 29.6416 53.7439 29.1227C52.6416 26.3907 52.6157 26.3743 54.9712 24.6892C56.3864 23.3763 58.0637 22.3784 59.8925 21.7611C60.5541 22.035 60.4708 22.6541 60.5637 23.1669C62.0802 31.209 64.3797 39.0754 65.9433 47.1293C67.0939 53.5415 67.5251 60.1152 68.9793 66.5927C69.3735 67.8468 69.3788 69.191 68.9945 70.4481C68.6102 71.7052 67.8544 72.8164 66.8265 73.6353C65.5205 75.2288 64.0053 76.6385 62.322 77.8262C60.5876 80.5947 57.8185 82.4171 55.7541 84.9039C54.9143 85.9152 53.9518 86.7761 52.8862 87.7713C52.0863 85.9186 51.806 83.883 52.0755 81.8831C52.0565 75.2862 51.6457 68.6961 50.8453 62.1477C50.3392 57.8143 49.3253 53.5949 49.0731 49.2045C48.8702 45.8259 47.1085 42.7305 46.8538 39.319C46.8714 37.0545 46.6399 34.795 46.1635 32.5811C47.8833 30.6915 49.6967 28.8893 51.5967 27.1811ZM45.1173 33.861C46.0091 43.3775 48.5954 52.2246 49.7592 61.3687C50.923 70.5129 50.8661 79.6643 51.2786 89.4218L45.3734 95.1946C44.5496 93.2216 44.2428 91.0711 44.4819 88.9465C44.7165 82.3937 44.3813 75.8327 43.4803 69.3377C42.7059 63.9083 42.6699 58.4021 42.1801 52.9533C41.9989 49.8743 41.6227 46.8099 41.0538 43.7785C40.1081 39.566 42.419 36.8904 45.1173 33.861ZM39.5444 42.005C40.1397 44.1406 40.4911 46.3368 40.5918 48.5516C41.175 54.7132 41.4101 60.9084 42.226 67.0178C43.0419 73.1272 43.3768 79.767 43.6171 86.1834C43.4026 89.1822 43.5421 92.1958 44.0326 95.1621C44.0951 95.4716 44.0698 95.7925 43.9595 96.0884C43.8491 96.3844 43.6582 96.6434 43.4083 96.8364L38.3128 101.76C37.4041 100.386 38.1303 99.0664 37.9604 97.8149C37.5244 94.6868 37.3137 91.5314 37.3299 88.3731C37.4055 80.1959 36.9495 72.0268 37.1383 63.9576C37.2496 61.2383 36.9242 58.5188 36.1745 55.9025C35.2779 53.5149 35.1198 50.9128 35.7207 48.4344C36.3217 45.956 37.654 43.7158 39.5444 42.005ZM29.0022 95.3345C28.9954 91.2448 28.6357 87.1676 28.4759 83.09C28.3959 76.1225 29.0233 69.165 30.3484 62.3245C30.8835 58.4258 32.1862 54.672 34.1811 51.2804C35.9275 57.7803 36.5412 64.5325 35.9951 71.2405C35.9504 73.3238 36.025 75.408 36.2185 77.4829C36.5228 84.0851 35.8114 90.9153 36.918 97.6265C37.0843 98.3674 36.9285 99.1583 36.9489 99.843C37.0506 100.808 36.8852 101.783 36.4707 102.66C36.0561 103.537 35.4085 104.284 34.5985 104.818C33.4805 105.58 32.4783 106.561 30.9688 107.856C30.092 103.72 29.4355 99.5403 29.0022 95.3345ZM75.5829 109.669C69.6794 110.995 63.6321 111.085 57.6854 112.02C57.2988 112.068 56.9071 112.059 56.5233 111.991C51.4643 111.237 46.3377 111.766 41.2903 110.964C41.0153 111.026 40.6763 110.902 40.3727 110.837C37.5229 109.921 34.5792 109.329 31.5972 109.071C31.3834 108.119 32.1049 107.868 32.5346 107.505C33.3221 107.002 34.0465 106.406 34.6923 105.731C35.4524 104.716 36.5078 103.962 37.7136 103.572C38.9193 103.182 40.2163 103.175 41.4265 103.552C43.8039 103.826 46.1974 103.935 48.5897 103.878C57.5905 104.37 66.5199 104.544 75.5492 105.163C79.6671 105.391 83.7969 105.275 87.8953 104.815C84.2229 107.366 80.0078 109.028 75.5829 109.669ZM119.777 66.1504C119.525 67.2075 119.107 68.2131 118.876 69.2654C118.607 70.7168 117.852 72.0334 116.736 72.9991C115.62 73.9648 114.209 74.5222 112.735 74.5798C105.577 75.7642 98.3851 76.2004 91.1908 76.726C83.9965 77.2516 76.2141 77.7314 68.7642 78.6034C68.6291 78.6162 68.5004 78.6671 68.3931 78.7502C68.2859 78.8333 68.2044 78.9453 68.1584 79.073L68.116 79.0825C69.7355 79.1846 71.3614 79.0665 72.9491 78.7312C79.1665 77.9135 85.4376 77.9287 91.6602 77.3321C98.5837 76.6894 105.508 76.4468 112.417 75.5405C113.538 75.2888 114.555 74.5713 115.866 74.7662C115.698 76.4938 114.398 77.6307 113.737 79.0463C113.515 79.5409 113.043 79.9137 112.842 80.4036C110.83 85.3022 106.541 85.7983 102.161 85.6921C94.2001 85.6151 86.2419 85.9986 78.3258 86.8406C77.9596 86.8895 77.5985 86.9706 77.2466 87.0829C80.626 87.3864 84.0306 87.2353 87.3696 86.6335C90.5282 86.315 93.7084 86.2706 96.8747 86.5008C99.8173 86.6377 102.766 86.5261 105.69 86.1671C106.488 86.0577 107.298 86.0631 108.094 86.1833C103.782 93.1683 97.9053 99.0547 90.9287 103.378C82.0966 104.356 73.1901 104.471 64.3352 103.723C55.9887 103.373 47.6004 103.233 39.2741 102.478C39.2313 102.288 39.1838 102.076 39.1363 101.865L45.8425 95.6007C46.2902 95.3014 46.8332 95.1795 47.3659 95.2587C56.1528 94.798 64.9484 95.0691 73.7617 94.8248C78.8422 94.6848 83.9659 94.9354 89.0585 94.9483C92.4593 95.0513 95.8619 94.8236 99.2186 94.2683C100.172 94.0767 101.085 93.7213 101.917 93.2179C100.905 92.9671 99.843 93.0052 98.8519 93.3278C94.6876 94.2131 90.418 94.4977 86.1729 94.1731C82.5338 94.1006 78.8831 94.0753 75.2562 94.1558C68.6327 94.3531 62.122 94.4585 55.5374 94.1357C53.6023 94.1398 51.669 94.2546 49.747 94.4795C49.0491 94.5595 48.3434 94.423 47.7255 94.0884C49.3904 92.1137 51.206 90.2713 53.1561 88.5779C53.5128 88.1865 54.0237 88.3831 54.4965 88.4103C60.5789 88.1788 66.6729 87.9002 72.7638 87.311C74.2618 87.1526 75.8109 87.7165 77.2795 87.031C75.1842 86.5683 73.0148 86.5552 70.9142 86.9925C66.5493 87.3499 62.1701 87.6437 57.7197 87.62C56.7136 87.6767 55.7057 87.5488 54.7456 87.2427C57.2201 84.1079 60.0371 81.6077 62.6512 78.7973C64.4186 79.4415 66.3515 79.4698 68.1367 78.8777C66.8485 78.1886 65.2223 78.8649 63.8649 77.7689L70.4488 70.4652C71.0542 69.7956 71.9036 69.9162 72.5362 69.8631C82.0464 68.8621 91.5392 67.4869 101.104 66.8293C106.027 66.4802 110.961 66.084 115.871 65.382C117.1 65.2171 118.141 64.4054 119.307 64.4548C120.135 65.0696 119.999 65.6558 119.777 66.1504ZM120.224 64.1822C119.779 63.8985 119.264 63.7444 118.736 63.7372C118.209 63.73 117.689 63.87 117.237 64.1414C115.16 64.7979 113.011 65.1983 110.837 65.3336L104.598 65.9561C94.3962 67.0456 84.1757 68.0505 73.9646 69.0978C73.6389 69.1908 73.2951 69.2011 72.9643 69.1279C72.6336 69.0546 72.3262 68.9 72.0701 68.6781L77.8125 62.6751C79.1572 63.2907 80.6844 63.3766 82.0894 62.9157C89.1136 61.1741 96.2239 59.8005 103.391 58.8004C109.907 58.3478 116.366 57.2922 122.687 55.6471C121.807 58.7574 121.06 61.3709 120.224 64.1822ZM125.171 38.3017C125.915 38.6461 125.637 39.2867 125.528 39.8894C125.087 44.9393 124.178 49.9372 122.812 54.8185C108.261 57.8184 93.4371 59.0117 79.0756 62.6584C79.0756 62.6584 78.8541 62.4635 78.4723 62.149C80.4515 59.4812 83.2514 57.6964 85.0527 55.4242C92.7166 54.0847 100.286 52.2517 107.713 49.9366C107.468 49.7829 107.191 49.6883 106.903 49.6604C106.615 49.6324 106.325 49.6717 106.055 49.7754C101.045 51.1224 96.0473 52.4223 91.0283 53.7269C89.7528 54.203 88.3601 54.2668 87.0463 53.9094C89.3025 51.9798 90.399 49.0432 93.5863 47.9941C102.74 44.8293 112.112 42.3387 121.629 40.5422C122.347 40.5196 123.048 40.3189 123.669 39.9582C124.291 39.5975 124.812 39.0882 125.188 38.4758C123.969 37.9936 123.282 39.1928 122.281 39.4843C118.571 40.5839 114.731 41.0013 110.982 42.021C106.334 43.3978 101.536 44.2973 96.9691 46.034C96.0306 46.5439 94.9434 46.7093 93.8958 46.5016C95.5542 44.5662 97.3234 42.7287 99.1947 40.9984C99.3412 40.8261 99.5429 40.7101 99.7655 40.6701C103.025 40.5386 105.5 38.4933 108.313 37.2615C111.359 35.948 114.527 34.9388 117.771 34.2486C120.623 33.5707 123.378 32.5339 125.969 31.1631C125.66 33.7451 126.702 36.1125 125.171 38.3017ZM126.038 30.2805C122.572 31.7709 118.999 32.9968 115.348 33.9477C111.077 35.0409 106.962 36.6745 103.104 38.8089C102.831 38.9995 102.508 39.1033 102.175 39.1065C101.843 39.1097 101.517 39.0122 101.241 38.8269C102.844 36.3374 105.102 34.338 107.767 33.0482C113.243 30.9072 118.629 28.564 124.1 26.6019C124.756 26.4546 125.329 26.037 126.117 25.6823C126.54 27.1899 126.513 28.7886 126.038 30.2805ZM126.671 24.4905C120.571 27.0163 114.124 29.2864 107.889 31.909C111.774 27.2347 110.974 25.2574 126.798 20.9935C126.774 22.1772 126.718 23.2127 126.671 24.4905ZM124.438 20.8784C121.448 21.8165 118.489 22.7921 115.161 24.0062C117.906 18.8095 123.087 18.6246 127.102 16.4114C127.399 19.4133 127.052 20.047 124.438 20.8784ZM127.784 13.9015C127.654 14.9089 126.674 15.3957 125.986 15.7948C124.462 16.663 122.794 17.2484 121.062 17.5228L128.891 7.64931C128.667 9.75653 128.297 11.8456 127.784 13.9015ZM122.973 13.5586C122.103 10.7743 122.146 7.89632 120.656 5.31805C123.843 4.29037 127.151 3.68231 130.496 3.50919C128.646 7.34863 125.465 10.1084 122.973 13.5586Z" fill="#543018"/>
<path d="M80.7575 109.752C87.9729 107.196 94.5613 103.132 100.085 97.831C105.739 92.0691 110.766 85.723 115.082 78.8995C117.758 75.1467 119.728 70.9371 120.895 66.4771C121.521 63.8238 122.275 61.142 123.006 58.5544C123.736 55.9668 124.648 52.8047 125.324 49.8737C126.509 44.0712 127.209 38.1798 127.415 32.2609C127.488 31.1995 127.54 30.1428 127.613 29.0814C127.946 24.4263 128.379 19.5262 128.947 14.5293C129.313 11.1149 130.435 7.82509 132.23 4.89822C132.494 4.58862 132.647 4.19927 132.665 3.79233C132.682 3.38539 132.563 2.98432 132.326 2.65314C132.111 2.34947 131.808 2.11965 131.458 1.99524C131.107 1.87083 130.727 1.85795 130.369 1.95834L128.254 2.43337C124.776 3.08066 121.193 3.7517 117.641 4.66034C116.456 4.92636 115.25 5.19713 114.129 5.64891C112.443 6.16069 110.69 6.66556 108.971 7.02916C106.072 7.67995 103.045 7.95922 100.127 8.32532L98.7043 8.42241C96.435 8.70951 94.1874 9.19187 91.9773 9.64357L88.4648 10.4321C85.81 10.7836 83.6306 11.2728 81.3877 11.7764C76.832 12.6917 72.4195 14.2133 68.2678 16.3005C66.0569 17.4417 63.7709 18.6442 61.4279 19.5926C56.852 21.7477 52.6416 24.6061 48.9496 28.064C44.3686 32.3114 40.4516 37.2233 37.3296 42.6351C36.406 44.0654 35.4497 45.5475 34.4838 46.9873C32.3986 50.2975 30.9012 53.9436 30.0577 57.7644C28.3804 63.8418 27.4421 70.0996 27.2631 76.4022C26.9203 86.3811 27.6717 96.3678 29.5038 106.183C29.6681 106.773 29.6865 107.394 29.5576 107.992C29.4286 108.591 29.1561 109.149 28.7636 109.618C26.8267 111.99 24.7193 114.217 22.4582 116.281L21.4936 117.231L21.2893 117.411C21.0163 117.579 20.815 117.842 20.7241 118.15C20.6332 118.458 20.6591 118.788 20.7968 119.078L20.849 119.311L21.2511 119.22C21.8984 119.018 22.4622 118.611 22.8574 118.059L22.9843 118.031C23.8635 117.075 24.8061 116.18 25.8057 115.352C26.8173 114.462 27.7683 113.506 28.6524 112.489C29.3709 111.625 30.3486 111.016 31.4406 110.751C32.7377 110.551 34.0598 110.578 35.3478 110.83C35.8497 110.911 36.3446 111.031 36.8282 111.187C37.2095 111.302 37.6167 111.433 38.0145 111.521C41.3028 112.248 44.6583 112.628 48.0258 112.653C49.786 112.583 51.5491 112.656 53.2976 112.871C54.7041 113.094 56.133 113.139 57.5507 113.005C59.4931 112.747 61.5015 112.585 63.437 112.395C67.4893 112.137 71.5173 111.582 75.4884 110.735L75.6154 110.706C76.2713 110.559 76.9484 110.407 77.6329 110.387C78.3173 110.367 78.9944 110.215 79.6715 110.063C80.0423 109.993 80.4059 109.889 80.7575 109.752ZM75.3532 110.232C71.4155 111.057 67.4259 111.611 63.4123 111.89C61.451 112.063 59.4473 112.246 57.479 112.488C56.1141 112.622 54.7376 112.58 53.3835 112.362C51.6116 112.134 49.824 112.052 48.0387 112.117C44.7397 112.095 41.4524 111.723 38.2321 111.006L37.067 110.667C36.5559 110.488 36.0285 110.361 35.4924 110.286C34.1461 110.017 32.7626 109.989 31.4064 110.203C30.1957 110.483 29.1118 111.156 28.3246 112.118C27.4446 113.078 26.5038 113.979 25.5081 114.818C24.5287 115.663 23.6037 116.569 22.7386 117.53L22.6116 117.559C22.3006 117.976 21.8817 118.301 21.4 118.498C21.3049 118.074 21.5351 117.911 21.8145 117.671L22.0351 117.466L23.0045 116.536C25.2287 114.458 27.2962 112.218 29.1898 109.834C29.6284 109.301 29.9334 108.67 30.0796 107.996C30.2257 107.321 30.2088 106.621 30.0302 105.954C28.2083 96.1801 27.4664 86.2356 27.818 76.2999C27.9888 70.0719 28.922 63.8885 30.5967 57.888C31.4051 54.1305 32.8547 50.5406 34.882 47.2759C35.8479 45.8361 36.8042 44.354 37.7278 42.9238C40.8242 37.5579 44.7044 32.6848 49.2398 28.4657C52.8883 25.0417 57.0544 22.2154 61.5842 20.0912C63.9437 19.1168 66.2297 17.9143 68.4829 16.7636C72.5868 14.6947 76.952 13.1911 81.4594 12.2939C83.7023 11.7904 85.8817 11.3011 88.5012 10.8909L92.0348 10.0976C94.1507 9.62257 96.4571 9.10479 98.7194 8.88594L100.17 8.71585C103.15 8.42491 106.158 8.06098 109.16 7.47586C110.916 7.08159 112.715 6.67781 114.381 6.08135C115.545 5.82009 116.692 5.38472 117.851 5.10229C121.361 4.20315 124.939 3.51094 128.464 2.87532L130.58 2.40029C130.829 2.32068 131.096 2.31801 131.347 2.39262C131.598 2.46723 131.82 2.61567 131.985 2.81857C132.327 3.25319 132.208 3.81347 131.866 4.46835C130.001 7.52541 128.858 10.9685 128.526 14.5349C127.958 19.5318 127.504 24.4366 127.197 29.1082L126.978 32.2924C126.765 38.1812 126.066 44.0423 124.889 49.8157C124.208 52.7256 123.396 55.6428 122.591 58.4918C121.786 61.3407 121.107 63.7611 120.459 66.4192C119.307 70.7959 117.364 74.9247 114.726 78.6014C114.11 79.5181 113.498 80.4559 112.839 81.382C112.98 81.1359 113.101 80.8782 113.2 80.6118C113.317 80.3841 113.454 80.1673 113.61 79.9639C113.808 79.755 113.972 79.5155 114.095 79.2546C114.334 78.7613 114.615 78.2891 114.934 77.8433C115.615 76.987 116.061 75.9671 116.226 74.8851L116.173 74.6522L115.941 74.7045C115.149 74.6367 114.353 74.7694 113.627 75.0905C113.231 75.2338 112.819 75.3264 112.4 75.366C108.097 75.9986 103.564 76.3045 99.3381 76.5863C96.8404 76.7468 94.2793 76.9215 91.7535 77.155C89.2277 77.3886 86.5301 77.5495 83.9805 77.6771C80.3985 77.8587 76.6684 78.0736 73.0635 78.5494L72.0478 78.7774C70.9603 78.9802 69.854 79.0646 68.7482 79.029C68.8124 78.9923 68.8861 78.9757 68.9598 78.9815C75.629 78.1957 82.4329 77.7133 89.0204 77.2572L93.3901 76.921C99.8248 76.477 106.518 75.9972 112.951 74.9531L113.777 74.7678C115.135 74.5688 116.396 73.9449 117.378 72.9855C118.36 72.0261 119.014 70.7804 119.245 69.4266C119.376 68.8717 119.535 68.324 119.721 67.7855C119.88 67.3051 120.034 66.8036 120.146 66.3116L120.122 66.2057C120.26 65.9072 120.283 65.5687 120.188 65.2542C120.093 64.9396 119.886 64.6708 119.606 64.4984C118.912 64.5098 118.228 64.6634 117.596 64.9497C117.126 65.1666 116.631 65.3227 116.122 65.414C111.038 66.1329 105.836 66.5226 101.372 66.8354C95.0949 67.2885 88.7479 68.0241 82.6362 68.8181C79.4122 69.2084 76.1411 69.587 72.797 69.9375L72.395 70.0277C72.1084 70.0691 71.8254 70.1326 71.5486 70.2178C71.1457 70.2969 70.7791 70.504 70.5032 70.8082L65.4314 75.838L63.5052 78.0492L63.722 78.2229C64.4764 78.7645 65.3907 79.0369 66.3183 78.9964C66.6865 79.0128 67.0531 79.0568 67.4147 79.1282C65.8587 79.4456 64.2459 79.3393 62.7449 78.8203L62.5967 78.8535L62.4698 78.882C61.557 79.8652 60.677 80.7965 59.6653 81.7351C57.8443 83.4935 56.1337 85.3627 54.543 87.3321L54.2991 87.6315L54.6592 87.7507C55.6134 88.0509 56.6131 88.1802 57.6122 88.1328L57.718 88.1091C61.9214 88.1215 66.1054 87.8492 70.0424 87.5657C65.2025 87.9853 60.2891 88.1767 55.5238 88.3348L54.4654 88.3724L54.1269 88.4484C53.9262 88.3941 53.7154 88.3895 53.5127 88.435C53.3099 88.4806 53.1213 88.5748 52.9631 88.7096C52.353 89.358 51.6746 89.9995 51.008 90.5938C49.7486 91.6827 48.6066 92.9004 47.6007 94.2271L47.4155 94.491L47.691 94.6293C48.3502 94.9927 49.1061 95.1416 49.8537 95.0554L51.0296 94.9471C52.5542 94.7723 54.0884 94.6952 55.6229 94.7163C62.3414 94.9423 68.9839 94.8297 75.3417 94.7364C78.9168 94.6231 82.5512 94.6744 86.2537 94.7325L87.6839 94.7672C91.4854 95.0225 95.3037 94.7196 99.0173 93.8682C99.7172 93.639 100.458 93.5636 101.19 93.6472C100.654 93.9143 100.087 94.1162 99.5027 94.2484L99.2911 94.2959C95.948 94.8448 92.5597 95.0694 89.1733 94.9665C87.2633 94.9728 85.3179 94.9204 83.4408 94.8749C80.3169 94.8202 77.0565 94.7517 73.8459 94.8054C70.2025 94.9119 66.4931 94.9219 62.9179 95.0353C57.856 95.0599 52.6248 95.1226 47.4316 95.3546C46.8719 95.3311 46.3213 95.5018 45.8731 95.8379L38.9899 101.808L38.8629 101.836L39.0768 102.789L39.2884 102.742C45.3254 103.298 51.5076 103.511 57.4898 103.725L64.3495 103.986L67.65 104.134C75.4059 104.731 83.2011 104.574 90.9266 103.667C97.937 99.3405 103.849 93.4467 108.198 86.4486L108.411 86.1116L108.013 86.023C107.188 85.9015 106.35 85.9025 105.525 86.0259C102.601 86.3865 99.6519 86.4981 96.7093 86.3595C93.5276 86.1264 90.3318 86.167 87.1571 86.4806L85.3417 86.7103C83.1649 87.0432 80.9619 87.1731 78.7611 87.0981C86.4844 86.3023 94.2464 85.9405 102.01 86.0144C103.666 86.0925 105.326 85.9737 106.954 85.6605C108.584 85.3434 110.078 84.5347 111.235 83.3432C107.782 88.3733 103.875 93.076 99.5639 97.3921C94.0864 102.628 87.5685 106.652 80.434 109.202C79.4557 109.52 78.4498 109.746 77.4294 109.877C76.7735 110.024 76.0467 110.054 75.285 110.225L75.3532 110.232ZM39.4822 102.12L46.0757 95.948C46.4478 95.7153 46.8882 95.6165 47.3241 95.6678L47.4299 95.644C52.5665 95.358 57.786 95.3424 62.9115 95.3035C66.5104 95.296 70.241 95.2812 73.8606 95.069C77.0406 94.9776 80.3009 95.0461 83.4343 95.1431C85.3279 95.1627 87.2733 95.2152 89.1621 95.2136C92.5855 95.328 96.0117 95.1025 99.3905 94.5405L99.6232 94.4882C100.514 94.279 101.366 93.9302 102.147 93.4546L102.563 93.2279C99.234 97.1705 95.2841 100.543 90.8691 103.213C83.1792 104.172 75.413 104.367 67.6845 103.793L64.3628 103.649C62.1138 103.532 59.8743 103.456 57.5031 103.388C51.6103 103.177 45.5176 102.966 39.5064 102.426L39.4822 102.12ZM98.8039 93.1157C95.1454 93.9517 91.3833 94.2419 87.6398 93.9766L86.2143 93.9631C82.4859 93.8886 78.8563 93.8585 75.2764 93.9506C68.9799 94.119 62.2528 94.2507 55.5788 93.9258C53.9965 93.9266 52.416 94.0289 50.8468 94.2321L49.81 94.4649C49.2688 94.5107 48.7244 94.4271 48.2217 94.2211C49.1679 93.0299 50.223 91.9296 51.3733 90.9343C52.0353 90.3187 52.7184 89.6984 53.3449 89.0241C53.5068 88.8544 53.7681 88.9291 54.0431 88.8674L54.4737 88.9041L55.5321 88.8666C61.1981 88.6619 67.0525 88.5038 72.7833 87.7953C73.3266 87.7567 73.8722 87.7681 74.4134 87.8296C75.3863 87.9717 76.3792 87.871 77.3037 87.5365C80.062 87.8389 82.8488 87.7595 85.5853 87.3004L87.4219 87.066C90.5597 86.7532 93.7187 86.7136 96.8635 86.9475C99.8062 87.0795 102.755 86.9679 105.679 86.6138C106.318 86.5372 106.964 86.5264 107.605 86.5816C106.092 88.8862 104.435 91.0926 102.643 93.1877L102.036 93.0572C101.152 92.837 100.229 92.8309 99.3424 93.0393L98.8039 93.1157ZM79.5003 86.3318L78.6962 86.5123L78.2307 86.6169C77.9409 86.6387 77.6557 86.7027 77.3844 86.8069L77.1939 86.8496C75.5419 86.4056 73.8102 86.3456 72.1315 86.6743L70.8075 86.8159C66.6166 87.1564 62.0682 87.4882 57.6367 87.5492L57.5098 87.5777C56.7041 87.5955 55.8995 87.507 55.1169 87.3144C56.6363 85.5086 58.2531 83.7873 59.9603 82.1581C60.8498 81.2691 61.7768 80.3495 62.659 79.3287C64.116 79.8094 65.6683 79.9265 67.1807 79.6699C67.4673 79.6284 67.7503 79.5649 68.0271 79.4799C69.3188 79.6062 70.6221 79.5384 71.8937 79.2789L72.9094 79.0509C76.5354 78.5704 80.2491 78.3814 83.8264 78.1787C86.376 78.051 89.036 77.9208 91.6253 77.673C94.2145 77.4252 96.7122 77.2647 99.184 77.0878C103.563 76.794 107.942 76.5001 112.377 75.8602C112.837 75.8019 113.291 75.7001 113.731 75.5562C114.285 75.3098 114.882 75.1757 115.488 75.1619C115.289 76.064 114.895 76.9115 114.334 77.6445C113.992 78.1124 113.695 78.6109 113.445 79.1336C113.332 79.3459 113.198 79.5471 113.047 79.7344C112.844 79.9599 112.676 80.2149 112.55 80.4908C112.114 81.7052 111.368 82.7843 110.386 83.621C109.404 84.4577 108.221 85.0229 106.953 85.2605C105.389 85.5179 103.799 85.5836 102.218 85.4562C94.5877 85.3906 86.9593 85.7521 79.369 86.5392L79.5003 86.3318ZM76.0302 87.1109L76.1783 87.0776C75.5872 87.1408 74.991 87.1405 74.4 87.0766C73.902 87.0286 73.4014 87.0147 72.9015 87.035C73.9736 86.9413 75.0535 86.9904 76.1126 87.1813L76.0302 87.1109ZM67.9735 78.647C67.4212 78.4591 66.8435 78.3563 66.2604 78.3423C65.5401 78.3648 64.8269 78.1949 64.194 77.8501L65.7661 76.1408L70.5831 70.768C70.7947 70.5565 71.0633 70.4112 71.356 70.3499C71.6049 70.2722 71.8596 70.215 72.1178 70.1789L72.541 70.0839C75.8427 69.7429 79.1773 69.35 82.4013 68.9598C88.5061 68.2341 94.8531 67.4984 101.095 66.9866C105.474 66.6927 110.782 66.2793 115.887 65.5557C116.438 65.4557 116.976 65.2902 117.488 65.0629C118.038 64.8306 118.626 64.6987 119.223 64.6734C119.621 64.962 119.556 65.2657 119.465 65.753L119.489 65.8588C119.372 66.3297 119.214 66.81 119.055 67.2904C118.896 67.7708 118.702 68.3924 118.567 68.9786C118.328 70.3818 117.608 71.6581 116.532 72.5893C115.456 73.5204 114.09 74.0484 112.667 74.083C106.234 75.1271 99.5194 75.6117 93.1106 76.0721L88.7362 76.3872C82.1698 76.8385 75.3236 77.3304 68.6544 78.1161L68.5063 78.1494C68.3938 78.2048 68.2951 78.2845 68.2172 78.3827C68.1393 78.4809 68.0842 78.5953 68.056 78.7174L67.9735 78.647ZM87.9704 104.953L88.7312 104.382L87.7717 104.464C83.7264 104.928 79.6489 105.047 75.5833 104.821C70.2993 104.451 64.9428 104.253 59.845 104.019C56.1706 103.888 52.3596 103.743 48.6238 103.536C47.7675 103.484 46.8995 103.479 46.0574 103.49C44.5472 103.541 43.0356 103.441 41.5452 103.191C40.2809 102.796 38.925 102.807 37.6671 103.221C36.4091 103.635 35.312 104.432 34.529 105.5C34.1775 105.928 33.756 106.293 33.2824 106.58C32.9851 106.777 32.6989 106.989 32.4253 107.217L32.1787 107.406C31.8846 107.553 31.6489 107.794 31.5098 108.092C31.3708 108.39 31.3368 108.726 31.4132 109.045L31.4608 109.257L31.6724 109.21C34.6323 109.461 37.5538 110.051 40.3796 110.968C40.5909 111.021 40.8068 111.055 41.0243 111.068L41.3205 111.001C43.8639 111.33 46.4255 111.498 48.9899 111.503C51.513 111.514 54.0326 111.691 56.5324 112.033C56.9454 112.096 57.3653 112.1 57.7791 112.043C60.2927 111.656 62.8561 111.392 65.3512 111.121C68.8235 110.827 72.2785 110.356 75.7025 109.709L77.3741 109.333C81.2045 108.69 84.8486 107.219 88.0529 105.024L87.9704 104.953ZM32.434 107.949L32.7181 107.73C32.9599 107.52 33.2488 107.321 33.5165 107.128C34.0484 106.811 34.5211 106.404 34.9134 105.925C35.6333 104.939 36.6474 104.207 37.8098 103.834C38.9722 103.461 40.2229 103.467 41.382 103.85C42.9307 104.086 44.4983 104.173 46.0635 104.111C46.8892 104.126 47.7524 104.11 48.5876 104.167C52.3234 104.373 56.1343 104.518 59.8088 104.65C64.9913 104.865 70.3477 105.063 75.5471 105.452C79.3047 105.656 83.0726 105.554 86.8135 105.146C83.864 107.066 80.5664 108.388 77.1076 109.037L75.4572 109.408C72.0471 110.051 68.6062 110.519 65.1482 110.811C62.6531 111.082 60.0686 111.351 57.5338 111.742C57.1792 111.788 56.82 111.787 56.4659 111.737C53.9441 111.403 51.4036 111.231 48.8599 111.221C46.3161 111.215 43.7754 111.042 41.254 110.705L40.9081 110.649C40.7229 110.638 40.5389 110.612 40.3575 110.573C37.6082 109.688 34.7718 109.103 31.8973 108.826C31.7975 108.381 32.1075 108.178 32.434 107.949ZM31.1381 108.018C31.6428 107.593 32.11 107.199 32.5138 106.819C33.3143 106.128 34.0233 105.524 34.7513 105.005C35.5969 104.451 36.2737 103.675 36.7077 102.762C37.1417 101.849 37.3161 100.834 37.2118 99.828C37.1915 99.5458 37.1948 99.2624 37.2217 98.9808C37.2435 98.4738 37.2187 97.9658 37.1477 97.4632C36.5816 93.2516 36.3706 88.9999 36.5168 84.753C36.5537 82.3433 36.5668 79.8278 36.4366 77.3667C36.3083 76.7952 36.3656 76.1597 36.3172 75.548C36.1742 74.078 36.1394 72.5994 36.2131 71.1243C36.7809 64.4364 36.2081 57.7003 34.5192 51.204L34.3814 50.5901L34.0533 51.1085C32.0164 54.5669 30.6851 58.3951 30.1364 62.3716C28.8365 69.194 28.2342 76.1311 28.339 83.0758C28.3923 84.7981 28.4926 86.5322 28.5835 88.2239C28.7016 90.532 28.8435 92.946 28.8442 95.325C28.9451 97.8105 29.291 100.28 29.877 102.698C30.2429 104.328 30.6231 106.021 30.806 107.825L30.9153 108.312L31.1381 108.018ZM35.698 71.1066C35.6292 72.5817 35.664 74.0599 35.802 75.5302C35.9304 76.1018 35.8894 76.7113 35.9167 77.3278C36.021 79.7725 36.0031 82.2668 35.9921 84.6929C35.8468 88.9685 36.0642 93.2488 36.642 97.4878C36.7099 97.9552 36.7267 98.4286 36.6922 98.8996C36.754 99.1748 36.6888 99.4784 36.7083 99.7631C36.8271 100.7 36.6763 101.652 36.2737 102.506C35.8711 103.361 35.2334 104.082 34.4352 104.587C33.686 105.111 32.9817 105.736 32.16 106.432L31.1553 107.302C30.9469 105.681 30.6212 104.131 30.3097 102.645C29.7298 100.255 29.3901 97.814 29.2959 95.3571C29.274 92.9828 29.1533 90.564 29.0304 88.2347C28.9184 86.5478 28.8392 84.809 28.7907 83.1078C28.6714 76.1677 29.2595 69.2337 30.5457 62.4131C31.058 58.7189 32.246 55.1508 34.0503 51.8874C35.6634 58.1579 36.2202 64.6533 35.698 71.1066ZM38.5291 101.934L43.6506 97.0261C43.9319 96.7974 44.1456 96.4964 44.2687 96.1554C44.3919 95.8143 44.4198 95.4462 44.3495 95.0904C43.9 93.1331 43.755 91.1182 43.9197 89.1167C43.9481 88.1542 43.967 87.1494 43.9483 86.1753C43.7115 80.2694 43.4496 73.6577 42.5054 66.9768C41.9911 63.2011 41.7001 59.3308 41.4376 55.5876C41.2513 53.2725 41.093 50.8844 40.8548 48.5365L40.7075 47.8803C40.604 45.8628 40.2599 43.8649 39.6826 41.929L39.5875 41.5057L39.2801 41.8193C37.3571 43.5574 35.997 45.8306 35.374 48.3474C34.7511 50.8642 34.8937 53.5098 35.7837 55.9453C36.5173 58.5356 36.8362 61.2257 36.7285 63.9157C36.6421 68.3821 36.7324 72.9422 36.8079 77.2389C36.8727 80.8931 36.9611 84.6532 36.92 88.3312C36.9147 91.5099 37.1372 94.6849 37.586 97.8317C37.6337 98.2577 37.618 98.6883 37.5395 99.1096C37.3418 100.056 37.4998 101.041 37.9833 101.878L38.1556 102.151L38.5291 101.934ZM40.2912 47.907L40.4385 48.5632C40.6719 50.89 40.8514 53.2733 41.0166 55.5932C41.3002 59.3317 41.5748 63.2279 42.0939 67.0247C42.9932 73.6045 43.2434 80.2633 43.4755 86.148C43.5153 87.1174 43.4917 88.1011 43.4632 89.0636C43.2989 91.1235 43.4495 93.1966 43.9099 95.2113C43.9479 95.4716 43.9167 95.7373 43.8194 95.9817C43.7221 96.226 43.5621 96.4404 43.3556 96.6032L38.4125 101.315C38.1201 100.627 38.0501 99.8657 38.2123 99.1364C38.2822 98.677 38.2969 98.2109 38.2562 97.748C37.8068 94.624 37.5819 91.4718 37.5833 88.3157C37.6197 84.6166 37.5476 80.8305 37.4712 77.2234C37.3672 72.7997 37.3054 68.3666 37.3917 63.9002C37.5107 61.1588 37.1803 58.4163 36.4137 55.7816C35.5952 53.5222 35.4464 51.0745 35.9853 48.7327C36.5241 46.391 37.7276 44.2549 39.4512 42.5813C39.9085 44.324 40.1899 46.1082 40.2912 47.907ZM45.557 95.4197L51.4833 89.6422L51.4358 89.4305C51.3263 86.7647 51.2427 84.1152 51.1781 81.5504C50.9671 74.5715 50.7569 67.9926 49.9116 61.3563C49.3943 57.27 48.5829 53.1608 47.7789 49.1833C46.6826 44.125 45.8466 39.0137 45.2744 33.8697L45.1366 33.2558L44.7307 33.7249C42.3568 36.6148 39.7851 39.4157 40.7926 43.9033C41.2838 46.3188 41.603 48.766 41.7477 51.2266C41.8807 51.8193 41.8657 52.4453 41.9141 53.057C42.1354 55.2308 42.2509 57.4284 42.3755 59.4683C42.5546 62.7411 42.7432 66.0562 43.2354 69.4366C44.1413 75.9312 44.4765 82.4926 44.2371 89.0455L44.3036 89.3418C44.0684 91.4083 44.3772 93.5005 45.1994 95.411L45.2802 95.7709L45.557 95.4197ZM47.4192 49.2641C48.3031 53.2013 49.0251 57.3084 49.5424 61.3947C50.383 68.0099 50.5741 74.5041 50.7946 81.5254C50.8708 84.043 50.9497 86.6713 51.0709 89.2901L45.525 94.782C44.876 93.0365 44.6383 91.1648 44.8305 89.3125L44.7639 89.0161C45.0028 82.448 44.6715 75.8713 43.7739 69.3602C43.3007 66.0645 43.0979 62.6858 42.9023 59.4389C42.7657 57.2461 42.629 55.0533 42.4573 53.0017C42.3243 52.409 42.3393 51.7831 42.2909 51.1713C42.1424 48.6893 41.8185 46.2209 41.3216 43.7846C40.4281 39.805 42.4407 37.2853 44.9066 34.5082C45.4214 39.5734 46.3499 44.5012 47.4192 49.2641ZM53.0956 88.0128L54.0555 87.0413C54.7272 86.4286 55.3597 85.7742 55.9493 85.082C56.81 84.0859 57.725 83.1381 58.6903 82.2431C60.0898 81.0724 61.3503 79.7449 62.4473 78.2867L62.807 78.206L62.769 78.0366C63.8254 77.3301 64.7394 76.4309 65.4633 75.3861C65.9412 74.8256 66.453 74.2949 66.9957 73.7969C68.0661 72.9511 68.8528 71.7986 69.2509 70.4935C69.6489 69.1883 69.6393 67.7926 69.2233 66.4929C68.3964 62.8096 67.9033 59.0292 67.4292 55.3334C67.0631 52.614 66.6945 49.784 66.1873 47.0295C65.4061 42.7579 64.4133 38.5337 63.3739 34.4979C62.5327 30.7512 61.5573 26.9012 60.8077 23.0671C60.8077 23.0671 60.7696 22.8978 60.7459 22.7919C60.7673 22.5187 60.7033 22.2456 60.5629 22.0103C60.4225 21.775 60.2125 21.589 59.962 21.4782L59.8562 21.5019C58.3921 21.9324 57.0423 22.6836 55.9047 23.7009C55.5618 23.9558 55.2238 24.2318 54.8761 24.4655C52.4667 26.2071 52.4153 26.3743 53.5414 29.2121L53.5271 29.1486C53.6301 29.4582 53.7017 29.7773 53.741 30.1012C53.7744 30.3011 53.8188 30.4989 53.8741 30.6939C54.0832 31.6253 54.1912 32.6016 54.3157 33.552C54.4491 34.828 54.6808 36.0917 55.0087 37.3321C56.512 42.6423 57.4466 48.1913 58.4231 53.5309C58.7926 55.6714 59.1382 57.7062 59.5357 59.7737C59.9533 62.3024 60.2362 64.8515 60.3833 67.4102C60.5453 70.8159 61.0366 74.198 61.8504 77.5091C61.5493 77.2057 61.3588 76.81 61.3092 76.3854C60.5709 73.6434 60.1114 70.8338 59.9377 67.9994C59.3965 60.7605 58.2743 53.5768 56.5819 46.5177C56.3396 45.4381 56.1067 44.4009 55.8548 43.279C55.5364 41.8607 55.2133 40.4213 54.9044 39.0453C54.238 36.5317 53.7457 33.9751 53.4311 31.3937C53.1943 29.8808 52.6645 28.4288 51.8713 27.119L51.8 26.8015L51.5418 27.0373C49.6391 28.7864 47.828 30.6328 46.1159 32.569L46.0101 32.5928L46.0434 32.741C46.4705 34.3273 46.6738 35.9657 46.6472 37.6083C46.6744 38.2248 46.6758 38.8248 46.7195 39.4154C46.9092 41.1019 47.2821 42.7629 47.8315 44.3687C48.4002 45.9615 48.7721 47.6179 48.9388 49.3009C49.1338 51.8586 49.4678 54.4038 49.9392 56.9253C50.2089 58.6213 50.4975 60.402 50.6873 62.1382C51.5037 68.7195 51.9295 75.3432 51.9623 81.9747C52.0241 82.2499 51.9637 82.5748 51.9408 82.869C51.7457 84.6227 52.0438 86.3962 52.8015 87.9899L52.8776 88.3286L53.0956 88.0128ZM51.4538 27.6352C52.1426 28.7914 52.5963 30.0724 52.7889 31.4045C53.1385 34.0318 53.6702 36.6316 54.3802 39.1853C54.6938 40.5824 55.0122 42.0006 55.3306 43.4189C55.573 44.4985 55.8058 45.5357 56.053 46.6365C57.7521 53.6942 58.8744 60.8785 59.4087 68.1182C59.5929 71.017 60.0667 73.8902 60.823 76.6947C60.8641 77.0111 60.9745 77.3146 61.1462 77.5835C61.318 77.8524 61.547 78.0801 61.8168 78.2504C60.7693 79.6722 59.5719 80.9772 58.2455 82.1428C57.2535 83.0359 56.3169 83.9887 55.441 84.9959C54.8818 85.669 54.2831 86.3083 53.6482 86.9104L52.9418 87.6249C52.3724 86.1883 52.1536 84.6367 52.3036 83.0988C52.237 82.8024 52.3234 82.494 52.3203 82.1834C52.3029 75.5361 51.881 68.896 51.0569 62.2998C50.8624 60.5424 50.5738 58.7617 50.2782 57.0493C49.8293 54.5453 49.5072 52.0202 49.3132 49.4837C49.1369 47.7581 48.7556 46.0598 48.1774 44.4245C47.6471 42.8509 47.2823 41.2262 47.0891 39.5769C46.9656 39.0266 47.0277 38.4123 47.0052 37.817C47.0255 36.1742 46.8368 34.5354 46.4437 32.9401C47.8254 31.2736 49.3695 29.6373 51.4538 27.6352ZM60.2592 22.9012C60.2742 23.0162 60.2997 23.1295 60.3353 23.2399C61.0637 27.0787 62.0603 30.9239 62.9015 34.6707C63.8234 38.7773 64.8797 42.9872 65.7101 47.1811C66.2173 49.9356 66.5812 52.7444 66.9473 55.4639C67.4214 59.1596 67.9404 62.9565 68.7509 66.6657C69.1464 67.8698 69.1611 69.1667 68.793 70.3794C68.4249 71.5921 67.6919 72.6616 66.6939 73.4422C66.1331 73.9591 65.6034 74.5086 65.1075 75.088C64.3937 76.0124 63.5276 76.8084 62.5465 77.4418C61.7152 74.1277 61.2151 70.7393 61.0535 67.3265C60.8861 64.7858 60.5852 62.2557 60.1519 59.7466C59.6767 57.6298 59.3708 55.4749 59.0182 53.5085C58.1598 48.0317 57.0224 42.6023 55.6107 37.2414C55.3107 36.0227 55.1065 34.7823 55.0001 33.5318C54.791 32.6004 54.7417 31.5886 54.549 30.6313C54.4969 30.4505 54.4556 30.2667 54.4254 30.081C54.3765 29.7147 54.2954 29.3534 54.1831 29.0014C53.1801 26.5139 53.1801 26.5139 55.343 24.961L56.2373 24.0932C57.3 23.1365 58.5575 22.4218 59.9232 21.9983C60.2389 22.2165 60.2959 22.4705 60.3439 22.8822L60.2592 22.9012ZM120.485 64.2566C121.321 61.4452 122.068 58.8317 123.011 55.7072L123.144 55.2104L122.657 55.3196C121.411 55.7105 120.172 56.0331 118.861 56.3276C115.131 57.0986 111.36 57.6556 107.567 57.996L103.494 58.4656C102.518 58.5736 101.504 58.7122 100.495 58.8719L104.255 58.2946C110.402 57.3594 116.739 56.3814 122.962 55.0954L123.132 55.0574L123.098 54.9093C123.343 53.7204 123.639 52.5644 123.921 51.3449C124.922 47.6139 125.554 43.793 125.805 39.9378C125.781 39.8319 125.757 39.7261 125.734 39.6203C125.816 39.3888 125.831 39.1387 125.777 38.899C125.723 38.6592 125.603 38.4396 125.43 38.2655C126.154 36.9136 126.421 35.3639 126.193 33.8471C126.128 32.939 126.146 32.0268 126.248 31.1221L126.33 30.5925L125.85 30.8335C123.262 32.2095 120.504 33.2397 117.648 33.8978C114.384 34.6032 111.197 35.624 108.131 36.9461C107.305 37.3139 106.5 37.7248 105.718 38.1771C104.299 39.0303 102.772 39.6873 101.178 40.1303C100.686 40.2333 100.186 40.2933 99.6843 40.3099C99.3964 40.3742 99.1355 40.526 98.9373 40.7444C98.36 41.3409 97.7567 41.921 97.1112 42.5107C95.8021 43.6628 94.5989 44.9301 93.5161 46.2973L93.2769 46.6178L93.6535 46.7111C94.2294 46.8669 94.8351 46.8761 95.4154 46.738C95.8231 46.6325 96.2248 46.5052 96.6189 46.3567L96.9151 46.2902C99.8471 45.229 102.839 44.342 105.876 43.6337C107.547 43.2584 109.238 42.7678 110.907 42.2819C111.753 42.0919 112.663 41.8877 113.721 41.6501L116.493 41.0278L119.286 40.4008C120.386 40.1538 121.402 39.9258 122.206 39.7453C122.586 39.6173 122.941 39.4247 123.256 39.176C123.615 38.8811 124.053 38.6978 124.515 38.6486L124.642 38.6201C124.32 39.0571 123.91 39.4223 123.439 39.6926C122.968 39.9629 122.446 40.1325 121.906 40.1906L121.419 40.2999L114.923 41.7582C107.623 43.3196 100.433 45.3571 93.3997 47.8576C91.5771 48.6619 90.0204 49.9675 88.9107 51.6226C88.2852 52.4602 87.5812 53.2362 86.8084 53.94L86.4539 54.242L86.9129 54.4057C87.9565 54.7324 89.0719 54.7521 90.1262 54.4626L91.0572 54.2536L106.063 50.3067C106.247 50.2421 106.439 50.199 106.634 50.1785L103.747 50.9822C99.9225 52.0632 95.9757 53.1938 91.9766 54.0916C89.4798 54.6522 87.1946 55.1652 84.9581 55.4005L85.0216 55.3862C84.0678 56.4505 83.0344 57.4407 81.9304 58.3482C80.6153 59.4692 79.4055 60.7083 78.3164 62.0501L78.1639 62.2622L78.3548 62.4195L78.6636 62.7059C78.418 62.6358 78.1805 62.5401 77.9549 62.4203L77.7783 62.3265L71.7804 68.676L71.976 68.8544C72.2321 69.0843 72.5392 69.2499 72.872 69.3376C73.2047 69.4253 73.5535 69.4325 73.8895 69.3587L74.1434 69.3017L82.5766 68.4535C89.8598 67.73 97.4017 66.9707 104.802 66.1765L109.322 65.7176L111.016 65.5376C112.52 65.4169 114.016 65.2 115.493 64.8882C116.159 64.7471 116.816 64.5626 117.458 64.3358C117.785 64.2432 118.117 64.1686 118.452 64.1126C118.748 64.0304 119.058 64.0167 119.359 64.0723C119.66 64.1279 119.945 64.2515 120.191 64.4337L120.507 64.6519L120.485 64.2566ZM117.113 63.7906C116.507 64.0107 115.885 64.1873 115.254 64.3193C113.832 64.6138 112.393 64.818 110.946 64.9306L109.253 65.1106L104.712 65.5742C97.3109 66.3685 89.7902 67.1231 82.507 67.8465L74.0294 68.7937L73.8389 68.8364C73.6267 68.8915 73.4057 68.9036 73.1887 68.8721C72.9717 68.8407 72.7632 68.7662 72.5754 68.6531L77.9727 62.9944C79.2704 63.5449 80.7187 63.6284 82.0708 63.2306L82.2613 63.1879L87.2972 62.0573C92.6834 60.8 98.1296 59.8149 103.615 59.1054L107.667 58.6405C111.482 58.2962 115.274 57.7344 119.024 56.9579C120.188 56.6966 121.288 56.4496 122.386 56.092L120.122 63.8267C119.557 63.5136 118.894 63.4314 118.27 63.5976C117.875 63.6196 117.536 63.6956 117.113 63.7906ZM79.2651 62.4152L79.0954 62.2532C80.1229 61.0229 81.2483 59.8779 82.4608 58.8295C83.5388 57.9411 84.5471 56.9714 85.4768 55.9288C87.6308 55.6232 89.9561 55.1901 92.4318 54.6343C96.4309 53.7365 100.399 52.6011 104.224 51.5201L107.883 50.2982L108.454 50.17L107.957 49.8369C107.708 49.6894 107.431 49.5936 107.144 49.555C106.856 49.5164 106.564 49.5358 106.284 49.6121L106.073 49.6596L91.0675 53.6064L90.9617 53.6302C89.9147 54.0045 88.7893 54.104 87.6928 53.9194C88.3302 53.2831 88.9198 52.6008 89.457 51.8779C90.5193 50.2339 92.0491 48.9456 93.8497 48.1791C100.855 45.684 108.016 43.6529 115.288 42.0987L121.763 40.6451L122.271 40.5311C122.89 40.4628 123.486 40.2622 124.02 39.9427C124.555 39.6233 125.014 39.1926 125.367 38.6798C125.541 38.863 125.462 39.1031 125.543 39.463L125.497 39.8514C125.212 43.7144 124.521 47.5366 123.434 51.2542C123.175 52.3795 122.914 53.5943 122.642 54.6561C116.503 55.9231 110.208 56.8915 104.125 57.8125C97.1176 58.8742 89.8564 59.993 82.7469 61.5891C81.6043 61.8456 80.3559 62.1259 79.2651 62.4152ZM82.18 62.628L81.9896 62.6707C81.2367 62.8677 80.4561 62.9377 79.6802 62.8779C80.7804 62.6309 81.7961 62.4029 83.0657 62.1179C88.2285 60.9588 93.5119 60.0395 98.7508 59.2191C95.3226 59.7886 91.5959 60.5141 87.2159 61.4974L82.18 62.628ZM97.74 42.8364L99.566 41.0702C99.6654 40.9458 99.7994 40.8537 99.9512 40.8058C100.482 40.7836 101.01 40.7172 101.529 40.6072C103.176 40.1582 104.752 39.4825 106.213 38.5997C106.985 38.1815 107.775 37.7375 108.583 37.3782C111.62 36.0826 114.773 35.077 117.999 34.3748C120.739 33.7496 123.389 32.7811 125.887 31.4923C125.836 32.2333 125.832 32.9768 125.876 33.7183C126.112 35.132 125.876 36.5842 125.203 37.8495C124.933 37.779 124.65 37.7739 124.377 37.8347C123.96 37.9632 123.569 38.1639 123.221 38.4278C122.957 38.6311 122.664 38.7943 122.352 38.912C121.463 39.1115 120.553 39.3157 119.453 39.5627L116.512 40.223L113.719 40.8501C112.661 41.0876 111.73 41.2966 110.862 41.4914C109.215 41.9725 107.51 42.3996 105.853 42.8384C102.796 43.5528 99.7824 44.4446 96.8287 45.5091L96.5324 45.5756C95.8722 45.8922 95.1487 46.0546 94.4165 46.0507C95.4061 44.9237 96.4667 43.8613 97.5919 42.8697L97.74 42.8364ZM72.0662 68.1671L76.8323 63.1615C77.0112 62.9328 77.1368 62.6671 77.2001 62.3836C77.2633 62.1001 77.2626 61.8061 77.1979 61.523L77.1741 61.4171C76.949 58.3988 76.3908 55.4145 75.5098 52.5188C74.6762 49.8048 74.0534 47.0306 73.6469 44.2208L73.3285 42.8026C72.8579 39.1097 72.1265 35.4547 71.1397 31.8651C69.8389 28.091 68.9968 24.1741 68.6318 20.1989C68.6521 19.6934 68.5421 19.1912 68.3125 18.7404C68.0829 18.2897 67.7412 17.9055 67.3205 17.6249L67.2919 17.4979L66.9983 17.675C66.2772 18.126 65.5159 18.497 64.6959 18.9034C63.5043 19.4244 62.3763 20.0805 61.3343 20.8588L61.2073 20.8873L61.2406 21.0355C61.9385 25.9262 63.0479 30.7689 64.1405 35.4376C64.8343 38.5282 65.5662 41.7881 66.2648 44.8998C67.1457 49.6159 67.8009 54.3161 68.4871 59.2539C68.9698 62.592 69.4292 66.0242 69.9875 69.501L70.1063 70.0302L72.0662 68.1671ZM65.1062 19.345C65.7981 19.009 66.471 18.6353 67.1219 18.2254C67.4209 18.4672 67.6582 18.7766 67.8144 19.1281C67.9706 19.4796 68.0412 19.8631 68.0203 20.2472C68.417 24.248 69.2865 28.1878 70.6107 31.9839C71.587 35.5388 72.3105 39.1584 72.7757 42.8155L73.0894 44.2126C73.5042 47.0797 74.1398 49.9105 74.9903 52.6798C75.8629 55.5405 76.4132 58.4896 76.6309 61.4724C76.7544 62.0228 76.7035 62.39 76.4172 62.6988L71.5855 67.8081L70.5061 68.9398C69.9905 65.6536 69.5459 62.4849 69.0822 59.2315C68.3912 54.2725 67.7408 49.5935 66.8551 44.8562C66.248 41.6572 65.4294 38.5057 64.7213 35.3517C63.6853 30.737 62.616 25.9742 61.8689 21.1612C62.8346 20.4623 63.8698 19.8648 64.9581 19.3782L65.1062 19.345ZM78.2753 61.5702L80.6108 59.4004C82.3674 57.8896 83.9788 56.2177 85.424 54.4065L85.7889 54.5469L85.6986 54.1447C86.9142 53.3464 87.9903 52.3536 88.8839 51.2061C89.2851 50.7158 89.7073 50.2208 90.1391 49.7681C90.2762 49.6223 90.379 49.4476 90.44 49.257C90.501 49.0663 90.5187 48.8645 90.4918 48.6661C90.2504 47.3536 90.152 46.0189 90.1982 44.6852C90.2275 43.5975 90.1763 42.509 90.045 41.4288C90.4822 43.3763 90.9147 45.3026 91.3471 47.2289L91.3709 47.3347L91.519 47.3015C91.7101 47.3256 91.9037 47.3197 92.0929 47.2838C92.6202 47.101 93.0724 46.7494 93.3797 46.2834L93.9496 45.5551C94.4632 44.8619 95.0733 44.2457 95.7614 43.7253C96.5725 43.1229 97.1692 42.2763 97.4642 41.3098C97.7592 40.3432 97.7369 39.3075 97.4005 38.3545C96.7598 34.8073 95.8038 31.2419 95.0244 27.7704C94.3258 24.6586 93.5987 21.4199 92.8906 18.2658C92.6742 17.2666 92.3939 16.2824 92.0513 15.3191C91.5289 13.8864 91.1934 12.3923 91.0533 10.8738L90.9773 10.5351L90.6387 10.6111C89.7174 10.9463 88.7549 11.1549 87.7775 11.2313C86.8762 11.2802 85.9894 11.4793 85.1537 11.8203L84.9421 11.8678L84.9896 12.0795C86.2157 17.5409 87.0281 23.1396 87.8237 28.5642C88.4019 32.5257 88.9732 36.5554 89.7232 40.5894L89.6757 40.3777C88.3315 35.4837 87.4097 30.4834 86.9204 25.4318C86.7622 20.8887 85.677 16.4259 83.7317 12.3174L83.6985 12.1692L83.5408 12.1601C81.94 12.3314 80.3639 12.6852 78.8435 13.2147C78.0606 13.3905 77.2686 13.7239 76.4693 13.9256L76.3212 13.9588L76.3545 14.107C76.1441 14.869 76.1855 15.6786 76.4726 16.4152C76.5059 16.5634 76.5391 16.7115 76.5724 16.8597C76.6817 17.3466 76.791 17.8335 76.9003 18.3203C77.0904 19.167 77.29 20.0561 77.4801 20.9028C78.062 24.7259 79.0385 28.4783 80.3939 32.1C81.9508 36.1366 83.043 40.3374 83.6495 44.6212C83.8586 45.5526 83.882 46.5479 83.9641 47.5078C84.1534 49.5965 84.4636 51.6724 84.8932 53.7252C84.6576 53.586 84.4662 53.383 84.3408 53.1398C84.2154 52.8965 84.1612 52.6228 84.1844 52.3501L84.0422 50.8256C83.8351 46.1265 83.0294 41.4729 81.6446 36.9777C79.5019 31.034 77.71 24.9696 76.2781 18.8158C76.2163 18.5406 76.1498 18.2442 76.0832 17.9479C75.9877 16.8046 75.5728 15.7112 74.8859 14.7925L74.8574 14.6655L74.7092 14.6987L73.2704 15.0217C71.5721 15.4701 70.0024 16.3098 68.6868 17.4738L68.5386 17.5071L68.5767 17.6764C71.3725 31.8129 74.3294 46.469 77.6871 61.5243L77.7917 61.99L78.2753 61.5702ZM73.3115 15.5017C73.65 15.4257 74.0097 15.3449 74.5599 15.2214C75.1253 16.0381 75.4687 16.9878 75.5564 17.9772C75.6229 18.2736 75.6895 18.5699 75.756 18.8663C77.1925 25.0412 78.9892 31.1268 81.1367 37.0917C82.5064 41.5378 83.3079 46.1394 83.5223 50.7866L83.6481 52.3371C83.611 52.7419 83.6997 53.1483 83.9022 53.5008C84.1047 53.8534 84.411 54.1348 84.7792 54.3066C83.3733 56.0299 81.821 57.6282 80.1397 59.0837L78.1327 60.9351C74.8061 46.1174 71.9369 31.7529 69.1204 17.8212C70.3172 16.7313 71.7525 15.9369 73.3115 15.5017ZM78.9718 13.7863C80.3891 13.291 81.8588 12.9611 83.3518 12.8029C85.177 16.7851 86.2102 21.0844 86.3936 25.4611C86.8702 30.551 87.7931 35.5892 89.1515 40.5177C89.4458 41.8859 89.5659 43.2859 89.509 44.6843C89.4513 46.0549 89.5506 47.4277 89.8052 48.7758C89.8128 48.9932 89.7424 49.2062 89.6066 49.3762C89.1484 49.8411 88.7168 50.3314 88.3139 50.8449C87.5056 51.9379 86.539 52.9043 85.4459 53.7123C85.0084 51.6683 84.6997 49.5988 84.5216 47.5161C84.4136 46.5398 84.3314 45.5799 84.2022 44.6083C83.5838 40.2961 82.4709 36.0694 80.8853 32.0119C79.5642 28.4097 78.6017 24.6859 78.0117 20.8947C77.8168 20.0268 77.6172 19.1377 77.4224 18.2698C77.3131 17.783 77.2085 17.3172 77.0992 16.8304C77.066 16.6822 77.0279 16.5129 76.9947 16.3647C76.766 15.7683 76.7051 15.1205 76.8187 14.492C77.4816 14.2765 78.2243 14.0208 78.9718 13.7863ZM88.3622 28.4878C87.5809 23.1267 86.7616 17.5962 85.5661 12.1724C86.3163 11.9134 87.1027 11.7743 87.8963 11.7605C88.7738 11.7134 89.6444 11.5776 90.4946 11.355C90.6517 12.7974 90.9706 14.2175 91.445 15.5887C91.7794 16.5241 92.0534 17.4801 92.2654 18.4507C92.9782 21.6259 93.691 24.8011 94.4039 27.9764C95.1785 31.4268 95.9816 35.0042 96.78 38.5605C97.2553 40.6773 97.0563 42.1672 95.3395 43.3309C94.6483 43.8745 94.0438 44.52 93.5467 45.2454L92.9932 45.9477C92.865 46.1637 92.693 46.3504 92.4884 46.496C92.2837 46.6415 92.0509 46.7425 91.8048 46.7926C90.178 40.932 89.2178 34.4771 88.3622 28.4878ZM98.3633 40.762C103.381 36.8784 104.647 33.0143 102.473 28.2772C101.818 26.5151 101.591 24.6227 101.811 22.7558C101.843 20.3173 101.661 17.8806 101.265 15.4741L101.127 14.8602C101.011 12.8787 100.47 10.9452 99.5434 9.19013L99.5054 9.02079L98.8494 9.16804L91.7369 10.4535L91.4618 10.5153L91.5188 10.7693C92.3457 14.4526 93.1821 18.1782 93.99 21.7768C95.3634 27.8944 96.7843 34.2237 97.9466 40.5888L98.0464 41.0333L98.3633 40.762ZM98.8789 9.69508L99.1751 9.62858C100.014 11.2542 100.512 13.034 100.638 14.8589L100.776 15.4727C101.174 17.8418 101.356 20.2421 101.319 22.6439C101.083 24.6207 101.327 26.6253 102.031 28.4876C104.031 32.8414 102.945 36.4204 98.4488 40.0536C97.2891 33.799 95.9014 27.6179 94.5565 21.6273C93.7724 18.1346 92.9598 14.5148 92.1519 10.9162L98.8789 9.69508ZM103.064 39.1286L103.233 39.0906L105.825 37.8639C108.837 36.2324 112.055 35.0162 115.393 34.2484L116.197 34.0679C118.399 33.511 120.554 32.7819 122.642 31.8873C123.784 31.4308 124.943 30.9483 126.12 30.5505L126.268 30.5173L126.24 30.3903C126.76 28.851 126.806 27.1905 126.37 25.6249L126.304 25.3286L126.007 25.3951L125.305 25.7307C124.892 25.9451 124.467 26.1369 124.033 26.3051C120.473 27.5715 116.929 29.0119 113.486 30.4074C111.446 31.2211 109.575 31.9969 107.611 32.7492C105.13 33.912 103.01 35.7248 101.476 37.9954L100.782 38.8627L101.062 39.0222C101.467 39.2911 101.96 39.3953 102.439 39.3135C102.654 39.2788 102.864 39.2166 103.064 39.1286ZM101.943 38.2909C103.404 36.0836 105.447 34.3242 107.847 33.2076C109.896 32.4362 111.767 31.6605 113.722 30.8658C117.165 29.4703 120.709 28.0298 124.249 26.7683C124.712 26.6416 125.167 26.4874 125.612 26.3066L126.011 26.1057C126.313 27.4386 126.249 28.8284 125.825 30.1276C124.69 30.5159 123.548 30.9724 122.448 31.4194C120.149 32.4306 117.755 33.2067 115.3 33.7357C111.92 34.5099 108.659 35.7355 105.605 37.3797L103.018 38.6275L102.828 38.6702C102.665 38.8026 102.466 38.8836 102.256 38.9028C102.047 38.9221 101.837 38.8789 101.652 38.7786L101.943 38.2909ZM104.778 33.4964L106.008 32.2419C106.757 31.4175 107.554 30.6372 108.395 29.905C109.229 29.2594 109.857 28.3841 110.202 27.3865C110.546 26.3889 110.592 25.3123 110.334 24.2888C110.021 22.8917 109.855 21.4614 109.617 20.0029C109.051 16.025 108.248 12.0844 107.212 8.20233L100.86 9.11679L100.913 9.34964C100.915 10.4956 101.038 11.6381 101.278 12.7586C101.84 15.1454 102.12 17.59 102.113 20.0421C101.99 24.6244 102.765 29.1867 104.394 33.4713L104.485 33.8735L104.778 33.4964ZM106.766 8.59152C107.76 12.3723 108.533 16.2082 109.078 20.0793C109.392 21.4764 109.536 22.9115 109.796 24.3652C110.034 25.2991 109.994 26.2822 109.682 27.1938C109.369 28.1053 108.797 28.9056 108.036 29.4963C107.183 30.2386 106.374 31.0291 105.612 31.8639L104.71 32.8C103.164 28.6936 102.44 24.3232 102.579 19.9376C102.592 17.4412 102.309 14.9521 101.736 12.5223C101.535 11.5296 101.42 10.5212 101.393 9.50866L106.766 8.59152ZM108.03 32.1436C111.283 30.7909 114.618 29.5085 117.847 28.2499C121.076 26.9914 123.863 25.9431 126.813 24.7251L126.982 24.6871L127.166 20.7547L126.806 20.8354C113.268 24.3862 111.75 26.439 109.229 29.7621C108.788 30.3725 108.31 31.0135 107.714 31.7254L107.015 32.5716L108.03 32.1436ZM126.449 24.2953C123.538 25.4826 120.553 26.6418 117.669 27.7562C114.786 28.8705 111.754 30.0181 108.805 31.2361L109.679 30.0836C112.088 26.8524 113.561 24.8986 126.565 21.4454L126.449 24.2953ZM112.491 25.3832C112.877 24.9806 113.29 24.6055 113.728 24.2606C115.088 23.0882 116.506 21.8805 116.204 19.5468C116.16 19.1409 116.247 18.7317 116.453 18.3792C117.057 17.0591 117.223 15.5805 116.928 14.159L116.881 13.9473C116.689 12.6924 116.31 11.4733 115.758 10.3306C115.157 9.14434 114.757 7.86647 114.575 6.54922L114.509 6.25287L114.234 6.31462C113.493 6.48088 112.816 6.63289 112.151 6.93783C110.803 7.48914 109.373 7.81029 107.919 7.88789L107.559 7.96864L107.64 8.3285C108.636 11.4819 109.305 14.7292 109.638 18.0192C109.913 20.5041 110.355 22.9678 110.96 25.3935L110.989 25.5205C111.238 25.6398 111.519 25.6779 111.791 25.6294C112.031 25.6288 112.264 25.5452 112.449 25.3927L112.491 25.3832ZM110.263 17.8344C109.927 14.6404 109.285 11.486 108.348 8.41409C108.974 8.39014 109.595 8.31009 110.206 8.17491C110.968 8.0039 111.687 7.84239 112.289 7.5517C112.89 7.26102 113.424 7.16343 114.012 7.00925C114.234 8.23705 114.621 9.42913 115.163 10.553C115.71 11.6434 116.077 12.8145 116.253 14.0216L116.3 14.2333C116.594 15.5252 116.486 16.8759 115.992 18.1048C115.727 18.5644 115.613 19.0954 115.666 19.6232C115.95 21.7828 114.696 22.7314 113.365 23.8307C112.94 24.2151 112.49 24.5832 112.095 25.0052C112.025 25.0697 111.94 25.1146 111.847 25.1355C111.754 25.1563 111.657 25.1523 111.566 25.124C110.96 22.7292 110.51 20.2973 110.221 17.8439L110.263 17.8344ZM115.245 24.1868C118.388 23.0367 121.225 22.1107 124.501 21.0638C127.343 20.159 127.589 19.3702 127.346 16.3116L127.256 15.9094L126.904 16.1219C125.705 16.7367 124.465 17.2676 123.193 17.7109C120.072 18.8564 116.833 20.0726 114.849 23.8088L114.524 24.4377L115.245 24.1868ZM124.319 20.5488C121.292 21.5175 118.64 22.3796 115.764 23.4257C117.633 20.8196 120.366 18.9613 123.476 18.181C124.618 17.8058 125.735 17.3619 126.823 16.8516C127.029 19.4513 126.682 19.885 124.333 20.6123L124.319 20.5488ZM117.453 19.6666C118.69 18.7469 119.861 17.7411 120.956 16.6567L121.188 16.4044C121.433 16.1645 121.621 15.8724 121.737 15.5499C121.853 15.2273 121.895 14.8827 121.859 14.5417C121.787 11.3803 121.088 8.26472 119.802 5.3759L119.768 5.22772L119.62 5.26097C119.112 5.28269 118.606 5.35149 118.111 5.46648L116.989 5.71825C116.502 5.82751 116.016 5.93676 115.529 6.04602L115.339 6.08877L115.381 6.27929C115.312 7.82346 115.657 9.35812 116.379 10.7246C116.74 11.4526 117.023 12.2162 117.224 13.003C117.461 14.3489 117.462 15.7256 117.226 17.0716C117.106 17.9104 117.044 18.7565 117.039 19.6039L117.031 20.1616L117.453 19.6666ZM117.141 6.19562C117.885 5.92718 118.66 5.75323 119.447 5.67783C120.673 8.46411 121.346 11.462 121.429 14.505C121.435 14.7784 121.382 15.0499 121.274 15.3008C121.165 15.5518 121.003 15.776 120.799 15.9582L120.548 16.3258C119.605 17.279 118.614 18.1842 117.579 19.038C117.61 18.3862 117.689 17.7459 117.772 17.1269C118.017 15.7363 118.021 14.3139 117.784 12.9218C117.571 12.0774 117.268 11.2584 116.88 10.4788C116.231 9.26161 115.881 7.90712 115.859 6.52772L117.141 6.19562ZM126.021 16.0532L126.191 16.0152C126.959 15.5759 127.908 15.0515 127.96 13.9949C128.072 13.2092 128.232 12.431 128.437 11.6643C128.83 10.3909 129.049 9.07017 129.089 7.73792L129.035 6.90502L120.399 17.938L121.902 17.6007C123.351 17.2923 124.747 16.7691 126.043 16.0484L126.021 16.0532ZM128.498 8.47097C128.394 9.46496 128.213 10.4495 127.959 11.4158C127.76 12.2281 127.603 13.0499 127.489 13.8782C127.401 14.6761 126.607 15.0989 125.919 15.498L125.729 15.5408C124.459 16.2823 123.076 16.8106 121.635 17.1047L128.498 8.47097ZM123.179 13.6895C124.082 12.464 125.072 11.3301 126.02 10.2057C127.877 8.23126 129.466 6.02054 130.745 3.63063L130.951 3.16193L130.464 3.27118L128.054 3.52328C126.454 3.64966 124.864 3.87301 123.292 4.19207C122.356 4.40163 121.439 4.68927 120.551 5.05196L120.255 5.11846L120.322 5.41482C121.135 6.98628 121.667 8.68778 121.895 10.4425C122.057 11.5092 122.293 12.5631 122.603 13.5966L122.717 14.1046L123.179 13.6895ZM123.394 4.74719C124.946 4.43731 126.512 4.21174 128.088 4.07148L130.019 3.86039C128.788 6.03612 127.302 8.05682 125.591 9.87948C124.747 10.8695 123.822 11.8998 123.06 12.9603C122.865 12.0924 122.675 11.2457 122.485 10.3989C122.238 8.68878 121.737 7.02506 120.999 5.46282C121.785 5.1593 122.59 4.91151 123.411 4.72127L123.394 4.74719Z" fill="#543018"/>
<path d="M123.817 46.7214C123.333 46.4576 122.785 46.3316 122.235 46.3573C121.684 46.3829 121.151 46.5591 120.693 46.8667C119.534 47.4949 118.223 47.7893 116.906 47.717C114.228 47.9673 111.577 48.4435 108.98 49.1407C108.599 49.2262 107.832 49.176 107.892 49.9407C110.661 49.8973 113.253 48.8706 116.016 48.606C122.966 47.9797 122.956 47.9374 123.817 46.7214Z" fill="#543018"/>
<path d="M124.038 46.916L124.261 46.6214L123.922 46.4974C123.213 46.1453 122.407 46.037 121.63 46.1892C121.224 46.2798 120.839 46.4493 120.498 46.688C120.057 46.9746 119.567 47.1752 119.052 47.2793C118.335 47.4092 117.608 47.4831 116.879 47.5003C115.284 47.59 113.7 47.8264 112.148 48.2067L108.403 49.0475C108.286 49.0614 108.174 49.0983 108.071 49.1561C107.969 49.2139 107.879 49.2913 107.807 49.384C107.735 49.4767 107.682 49.5828 107.651 49.6962C107.62 49.8096 107.612 49.9279 107.627 50.0445L107.672 50.3456L107.926 50.2886C110.737 50.2357 113.329 49.209 116.071 48.9492C118.103 48.8161 120.127 48.577 122.134 48.233C122.531 48.1738 122.909 48.0244 123.239 47.796C123.569 47.5677 123.843 47.2666 124.038 46.916ZM108.813 49.489L109.025 49.4415C109.723 49.2848 110.422 49.128 111.141 48.9665L112.305 48.7052C113.826 48.3228 115.38 48.0855 116.946 47.9967C117.713 47.9919 118.477 47.9171 119.23 47.7731C119.809 47.6506 120.361 47.4212 120.856 47.0967C121.229 46.8469 121.658 46.6923 122.105 46.6462C122.552 46.6002 123.003 46.6641 123.419 46.8326C123.07 47.2764 122.561 47.5662 122.001 47.6403C120.019 48.0213 118.019 48.2995 116.009 48.474C113.356 48.736 110.846 49.6331 108.243 49.8173C108.296 49.5607 108.555 49.5249 108.813 49.489Z" fill="#543018"/>
<path d="M108.205 50.5381L107.208 49.9613L107.777 49.7225L108.156 49.7264L108.205 50.5381Z" fill="#543018"/>
</svg>
