<svg width="153" height="124" fill="none" xmlns="http://www.w3.org/2000/svg"><path d="M117.726 4.842c-2.941.66-5.752 1.802-8.691 2.373-3.383.671-6.854 1.05-10.29 1.488-3.435.438-6.802 1.282-10.232 1.941a70.432 70.432 0 00-20.108 5.87c-2.248 1.173-4.513 2.37-6.877 3.324a47.87 47.87 0 00-12.399 8.43c-6.186 5.214-9.988 12.338-14.447 18.809a34.41 34.41 0 00-4.377 10.699 77.086 77.086 0 00-2.788 18.57 136.727 136.727 0 002.227 29.717 4.057 4.057 0 01-.777 3.666 72.718 72.718 0 01-7.181 7.615c-.366.349-.96.572-.632 1.543a2.993 2.993 0 001.633-1.145c1.778-1.978 3.998-3.477 5.691-5.436 2.088-2.381 4.423-2.082 6.945-1.737.913.107 1.798.486 2.704.661a47.533 47.533 0 009.859 1.144 32.653 32.653 0 015.314.208c1.375.233 2.776.278 4.164.132a160.617 160.617 0 0017.916-2.265 43.935 43.935 0 005.227-.974 54.068 54.068 0 0019.226-11.876 114.942 114.942 0 0014.976-18.927 37.858 37.858 0 005.761-12.255c1.35-5.573 3.149-11.024 4.46-16.566a130.955 130.955 0 002.32-20.755c.387-4.874.829-9.74 1.324-14.594a23.26 23.26 0 013.304-9.836 1.67 1.67 0 00.115-1.96 1.559 1.559 0 00-1.671-.514c-4.234.84-8.488 1.594-12.696 2.65zm1.89.598a23.286 23.286 0 012.044 9.102 2.163 2.163 0 01-.693 1.668 42.905 42.905 0 01-3.699 3.32 29.85 29.85 0 00.206-6.605c-.475-2.117-2.114-3.972-1.887-6.625 1.313-.41 2.66-.705 4.025-.88l.004.02zm-5.315 1.171c.255 2.722 2.017 4.728 2.286 7.314a7.012 7.012 0 01-.418 4.274 2.405 2.405 0 00-.287 1.398c.388 2.915-2.089 3.96-3.633 5.596a.782.782 0 01-.955.104c-1.51-5.442-1.333-11.285-3.336-17.04a23.64 23.64 0 006.343-1.646zm-7.314 1.776a155.555 155.555 0 013.077 15.985 5.14 5.14 0 01-1.839 5.371c-1.235 1.034-2.274 2.245-3.638 3.597a34.514 34.514 0 01-2.278-13.32 30.664 30.664 0 00-.857-7.278 15.683 15.683 0 01-.313-3.376l5.848-.98zm-7.678.945a13.43 13.43 0 011.588 5.491c.427 2.596.616 5.226.564 7.856a12.033 12.033 0 00.704 5.712c2.355 5.142.293 8.828-3.938 12.158-1.813-10.155-4.326-19.863-6.433-29.841l7.515-1.376zm-8.669 1.68a58.604 58.604 0 001.89 7.424c1.29 6.737 3.172 13.34 4.504 20.068.476 2.117.369 3.72-1.527 5.079a14.771 14.771 0 00-2.33 2.59c-.455.547-.867 1.085-1.649.971-2.858-11.543-3.55-23.439-6.157-35.15 1.353-.704 3.205-.275 5.27-.982zm-15.958 3.96a8.205 8.205 0 011.338 3.88 154.089 154.089 0 005.376 18.204 61.795 61.795 0 012.52 15.288 1.65 1.65 0 001.263 1.762 82.458 82.458 0 01-1.35-9.48 55.845 55.845 0 00-3.272-12.495 58.594 58.594 0 01-2.91-11.176l-.907-4.043a4.644 4.644 0 01-.232-2.617 36.504 36.504 0 017.095-1.86c1.925 4.062 3 8.475 3.156 12.967a89.914 89.914 0 002.755 14.946c.618 2.752-.002 5.537.654 8.258a1.085 1.085 0 01-.3.845 21.53 21.53 0 01-4.527 4.485 64.31 64.31 0 01-7.247 7.32c-3.327-14.818-6.274-29.432-9.186-43.787a10.297 10.297 0 015.774-2.497zm-7.504 2.908a2.69 2.69 0 011.18 2.381 52.852 52.852 0 002.507 11.666 89.421 89.421 0 012.404 12.29 53.573 53.573 0 001.872 8.34 40.222 40.222 0 011.685 8.894c.124.55.243 1.08-.278 1.53l-6.224 6.534c-1.393-8.581-2.22-16.623-3.748-24.618-1.528-7.995-3.855-15.588-5.02-23.843 1.83-1.456 3.922-2.037 5.622-3.174zm-15.581 9.3a11.482 11.482 0 011.543 4.1 121.698 121.698 0 002.579 11.985A162.32 162.32 0 0159.74 67.91a41.738 41.738 0 001.386 8.45c.157.698.3 1.333 1.133 1.48-1.743-5.88-1.33-12.065-2.471-18.034-1.445-7.525-2.438-15.018-4.558-22.48-.602-2.088-.64-4.436-1.13-6.617a10.231 10.231 0 00-.356-1.587c-1.102-2.732-1.128-2.749 1.227-4.434a13.659 13.659 0 014.922-2.928c.661.274.578.893.67 1.406 1.517 8.042 3.817 15.908 5.38 23.962 1.15 6.413 1.582 12.986 3.036 19.464a6.51 6.51 0 01-2.153 7.042 22.876 22.876 0 01-4.504 4.191c-1.734 2.769-4.504 4.591-6.568 7.078-.84 1.011-1.802 1.872-2.868 2.867a11.111 11.111 0 01-.81-5.888 166.62 166.62 0 00-1.23-19.735c-.507-4.334-1.52-8.553-1.773-12.944-.203-3.378-1.965-6.474-2.22-9.885a30.887 30.887 0 00-.69-6.738 76.546 76.546 0 015.434-5.4zm-6.48 6.68c.892 9.517 3.478 18.364 4.642 27.508 1.164 9.144 1.107 18.295 1.52 28.053l-5.906 5.773a12.568 12.568 0 01-.891-6.248c.235-6.553-.1-13.114-1.002-19.61-.774-5.429-.81-10.935-1.3-16.384a72.99 72.99 0 00-1.126-9.175c-.946-4.212 1.365-6.888 4.063-9.917zm-5.573 8.144a29.345 29.345 0 011.048 6.547c.583 6.161.818 12.356 1.634 18.466.816 6.11 1.15 12.749 1.391 19.165a38.29 38.29 0 00.416 8.98 1.693 1.693 0 01-.625 1.673l-5.095 4.924c-.909-1.374-.183-2.694-.353-3.945a65.945 65.945 0 01-.63-9.442c.076-8.177-.38-16.346-.192-24.415a25.462 25.462 0 00-.963-8.055 12.719 12.719 0 013.37-13.898zm-10.542 53.33c-.007-4.09-.366-8.167-.526-12.245-.08-6.968.547-13.925 1.872-20.766a29.767 29.767 0 013.833-11.044 58.6 58.6 0 011.814 19.96c-.045 2.084.03 4.168.224 6.243.304 6.602-.408 13.432.699 20.143.166.741.01 1.532.03 2.217a5.295 5.295 0 01-2.35 4.975c-1.117.762-2.12 1.743-3.63 3.038a119.364 119.364 0 01-1.966-12.521zm46.58 14.334c-5.903 1.326-11.95 1.416-17.897 2.351a3.904 3.904 0 01-1.162-.029c-5.059-.754-10.185-.225-15.233-1.027-.275.062-.614-.062-.917-.127a39.922 39.922 0 00-8.776-1.766c-.214-.952.508-1.203.938-1.566a11.713 11.713 0 002.157-1.774 6.132 6.132 0 016.734-2.179 51.79 51.79 0 007.164.326c9 .492 17.93.666 26.96 1.285 4.117.228 8.247.112 12.345-.348a28.826 28.826 0 01-12.312 4.854zm44.195-43.519c-.252 1.057-.67 2.063-.901 3.115a6.506 6.506 0 01-6.141 5.315c-7.158 1.184-14.35 1.62-21.544 2.146-7.195.526-14.977 1.005-22.427 1.877a.716.716 0 00-.606.47l-.042.01a17.93 17.93 0 004.833-.352c6.218-.817 12.489-.802 18.711-1.399 6.924-.643 13.848-.885 20.757-1.791 1.121-.252 2.138-.97 3.449-.775-.168 1.728-1.468 2.865-2.129 4.28-.222.495-.694.868-.895 1.358-2.012 4.898-6.301 5.394-10.681 5.288a206.47 206.47 0 00-23.835 1.149 6.36 6.36 0 00-1.08.242c3.38.303 6.785.152 10.124-.45a54.994 54.994 0 019.505-.132c2.942.137 5.891.025 8.815-.334a8.433 8.433 0 012.404.016 52.951 52.951 0 01-17.165 17.195 136.915 136.915 0 01-26.594.345c-8.346-.35-16.735-.49-25.06-1.245l-.139-.613 6.706-6.264c.448-.3.991-.421 1.524-.342 8.787-.461 17.582-.19 26.396-.434 5.08-.14 10.204.11 15.296.123a52.51 52.51 0 0010.16-.68 8.416 8.416 0 002.699-1.05 5.572 5.572 0 00-3.065.11 44.615 44.615 0 01-12.68.845c-3.638-.072-7.289-.098-10.916-.017-6.623.197-13.134.302-19.719-.02a50.748 50.748 0 00-5.79.344 3.426 3.426 0 01-2.022-.392 49.883 49.883 0 015.431-5.51c.357-.392.868-.195 1.34-.168 6.083-.231 12.177-.51 18.268-1.099 1.498-.158 3.047.405 4.516-.28a15.175 15.175 0 00-6.366-.038c-4.365.357-8.744.65-13.194.627a8.26 8.26 0 01-2.974-.377c2.474-3.135 5.291-5.635 7.905-8.446 1.768.645 3.7.673 5.486.08-1.288-.688-2.915-.012-4.272-1.108l6.584-7.304c.605-.67 1.455-.549 2.087-.602 9.51-1 19.003-2.376 28.568-3.034 4.923-.349 9.857-.745 14.767-1.447 1.229-.165 2.27-.977 3.436-.927.828.615.692 1.2.47 1.695zm.447-1.968a2.84 2.84 0 00-2.987-.04 26.747 26.747 0 01-6.4 1.192l-6.239.622c-10.202 1.09-20.422 2.094-30.633 3.142a2.039 2.039 0 01-1.895-.42l5.743-6.003a5.875 5.875 0 004.276.24 207.914 207.914 0 0121.302-4.115 105.682 105.682 0 0019.296-3.153c-.88 3.11-1.627 5.724-2.463 8.535zm4.947-25.88c.744.344.466.985.357 1.587a81.806 81.806 0 01-2.716 14.93c-14.551 3-29.375 4.193-43.736 7.84 0 0-.222-.195-.604-.51 1.98-2.668 4.78-4.453 6.58-6.725a180.676 180.676 0 0022.661-5.487 1.861 1.861 0 00-1.658-.162 1858.709 1858.709 0 01-15.027 3.952 6.504 6.504 0 01-3.982.182c2.256-1.93 3.353-4.866 6.54-5.915a198.5 198.5 0 0128.043-7.452 4.333 4.333 0 003.559-2.066c-1.219-.482-1.906.717-2.907 1.008-3.71 1.1-7.55 1.517-11.299 2.537-4.648 1.377-9.446 2.276-14.013 4.013a4.574 4.574 0 01-3.073.468 65.864 65.864 0 015.299-5.504.976.976 0 01.57-.328c3.26-.131 5.735-2.177 8.548-3.409a50.343 50.343 0 019.458-3.012 34.68 34.68 0 008.198-3.086c-.309 2.582.733 4.95-.798 7.139zm.867-8.021a74.755 74.755 0 01-10.69 3.667 51.855 51.855 0 00-12.244 4.86 1.649 1.649 0 01-1.863.019 16.108 16.108 0 016.526-5.779c5.476-2.14 10.862-4.484 16.333-6.446.656-.147 1.229-.565 2.017-.92a8.018 8.018 0 01-.079 4.599zm.633-5.79c-6.1 2.525-12.547 4.795-18.782 7.418 3.885-4.674 3.085-6.652 18.909-10.915-.024 1.183-.08 2.219-.127 3.497zm-2.233-3.613c-2.99.939-5.949 1.914-9.277 3.128 2.745-5.197 7.926-5.381 11.941-7.595.297 3.002-.05 3.636-2.664 4.467zm3.346-6.976c-.13 1.007-1.11 1.494-1.798 1.893a14.545 14.545 0 01-4.924 1.728l7.829-9.874a45.839 45.839 0 01-1.107 6.253zm-4.811-.343c-.87-2.785-.827-5.663-2.317-8.24a38.557 38.557 0 019.84-1.81c-1.85 3.84-5.031 6.6-7.523 10.05z" fill="#543018"/><path d="M80.757 109.752a53.913 53.913 0 0019.328-11.921A114.16 114.16 0 00115.082 78.9a37.938 37.938 0 005.813-12.423c.626-2.653 1.38-5.335 2.111-7.923.73-2.587 1.642-5.75 2.318-8.68a106.546 106.546 0 002.091-17.613c.073-1.062.125-2.118.198-3.18a350.88 350.88 0 011.334-14.552 23.14 23.14 0 013.283-9.63 1.829 1.829 0 00.096-2.246 1.804 1.804 0 00-1.957-.695l-2.115.475c-3.478.648-7.061 1.319-10.613 2.227-1.185.266-2.391.537-3.512.989-1.686.512-3.439 1.017-5.158 1.38-2.899.65-5.926.93-8.844 1.296l-1.423.097c-2.269.288-4.517.77-6.727 1.222l-3.512.788c-2.655.352-4.834.84-7.077 1.344a52.024 52.024 0 00-13.12 4.524c-2.211 1.142-4.497 2.344-6.84 3.293a48.458 48.458 0 00-12.478 8.471 62.375 62.375 0 00-11.62 14.571c-.924 1.43-1.88 2.913-2.846 4.352a33.952 33.952 0 00-4.426 10.777 78.424 78.424 0 00-2.795 18.638 136.722 136.722 0 002.24 29.781 3.777 3.777 0 01-.74 3.435 62.813 62.813 0 01-6.305 6.663l-.964.95-.205.18a1.3 1.3 0 00-.492 1.667l.052.233.402-.091a3.116 3.116 0 001.606-1.161l.127-.028a28.747 28.747 0 012.822-2.679 30.227 30.227 0 002.846-2.863 5.23 5.23 0 012.789-1.738c1.297-.2 2.619-.173 3.907.079.502.081.997.201 1.48.357.381.115.789.246 1.186.334a48.028 48.028 0 0010.012 1.132c1.76-.07 3.523.003 5.272.218 1.406.223 2.835.268 4.253.134 1.942-.258 3.95-.42 5.886-.61a83.08 83.08 0 0012.051-1.66l.127-.029c.656-.147 1.333-.299 2.018-.319.684-.02 1.361-.172 2.038-.324.371-.07.735-.174 1.086-.311zm-5.404.48a87.985 87.985 0 01-11.94 1.658c-1.962.173-3.966.356-5.934.598a15.957 15.957 0 01-4.096-.126 32.589 32.589 0 00-5.344-.245 46.55 46.55 0 01-9.807-1.111l-1.165-.339a8.199 8.199 0 00-1.575-.381 11.615 11.615 0 00-4.086-.083 5.617 5.617 0 00-3.081 1.915 30.34 30.34 0 01-2.817 2.7 30.785 30.785 0 00-2.77 2.712l-.126.029c-.311.417-.73.742-1.212.939-.095-.424.135-.587.415-.827l.22-.205.97-.93a61.63 61.63 0 006.185-6.702 4.343 4.343 0 00.84-3.88A135.647 135.647 0 0127.818 76.3a76.27 76.27 0 012.779-18.412 33.454 33.454 0 014.285-10.612c.966-1.44 1.922-2.922 2.846-4.352A62.22 62.22 0 0149.24 28.466a47.526 47.526 0 0112.344-8.375c2.36-.974 4.646-2.177 6.899-3.327a50.9 50.9 0 0112.976-4.47c2.243-.504 4.423-.993 7.042-1.403l3.534-.793c2.116-.475 4.422-.993 6.684-1.212l1.451-.17c2.98-.291 5.988-.655 8.99-1.24 1.756-.394 3.555-.798 5.221-1.395 1.164-.26 2.311-.696 3.47-.979 3.51-.899 7.088-1.591 10.613-2.227l2.116-.475a1.3 1.3 0 011.405.419c.342.434.223.994-.119 1.65a23.515 23.515 0 00-3.34 10.066 309.793 309.793 0 00-1.329 14.573l-.219 3.184a107.105 107.105 0 01-2.089 17.524c-.681 2.91-1.493 5.827-2.298 8.676-.805 2.849-1.484 5.27-2.132 7.927a37.093 37.093 0 01-5.733 12.182c-.616.917-1.228 1.855-1.887 2.781a5.18 5.18 0 00.361-.77 4.24 4.24 0 01.41-.648c.198-.209.362-.448.485-.71.239-.493.52-.965.839-1.41a6.273 6.273 0 001.292-2.959l-.053-.233-.232.052a4.725 4.725 0 00-2.314.387 4.983 4.983 0 01-1.227.275c-4.303.633-8.836.939-13.062 1.22-2.498.16-5.059.335-7.584.569-2.526.234-5.224.394-7.773.522-3.582.182-7.313.397-10.917.872l-1.016.228a15.311 15.311 0 01-3.3.252.368.368 0 01.212-.047c6.669-.786 13.473-1.269 20.06-1.725l4.37-.336c6.435-.444 13.128-.924 19.561-1.968l.826-.185a6.503 6.503 0 005.468-5.341c.131-.555.29-1.103.476-1.642.159-.48.313-.981.425-1.473l-.024-.106a1.342 1.342 0 00-.516-1.708 5.073 5.073 0 00-2.01.452 6.06 6.06 0 01-1.474.464c-5.084.719-10.286 1.109-14.75 1.421-6.277.454-12.624 1.19-18.736 1.983-3.224.39-6.495.769-9.839 1.12l-.402.09c-.287.041-.57.105-.846.19a1.91 1.91 0 00-1.046.59l-5.072 5.03-1.926 2.211.217.174a4.142 4.142 0 002.596.773c.368.017.735.06 1.097.132a8.867 8.867 0 01-4.67-.308l-.148.034-.127.028c-.913.983-1.793 1.914-2.805 2.853a61.491 61.491 0 00-5.122 5.597l-.244.3.36.119c.954.3 1.954.43 2.953.382l.106-.024c4.203.013 8.387-.26 12.324-.543-4.84.42-9.753.61-14.518.769l-1.059.037-.338.076a1.28 1.28 0 00-1.164.262c-.61.648-1.288 1.29-1.955 1.884a23.859 23.859 0 00-3.407 3.633l-.185.264.275.138a3.62 3.62 0 002.163.426l1.176-.108a35.982 35.982 0 014.593-.23c6.718.225 13.36.113 19.719.02 3.575-.114 7.21-.063 10.912-.004l1.43.034c3.801.255 7.62-.047 11.333-.899a5.113 5.113 0 012.173-.22 7.49 7.49 0 01-1.687.6l-.212.048a52.59 52.59 0 01-10.118.67c-1.91.007-3.855-.046-5.732-.091-3.124-.055-6.385-.123-9.595-.07-3.644.107-7.353.117-10.928.23-5.062.025-10.293.088-15.486.32a2.428 2.428 0 00-1.559.483l-6.883 5.97-.127.028.214.953.211-.047c6.037.556 12.22.769 18.202.983l6.86.261 3.3.148c7.756.597 15.551.44 23.277-.467a53.281 53.281 0 0017.271-17.218l.213-.337-.398-.089a8.471 8.471 0 00-2.488.003c-2.924.36-5.873.472-8.816.334a55.74 55.74 0 00-9.552.12l-1.815.23c-2.177.333-4.38.463-6.58.388a207.555 207.555 0 0123.248-1.084c1.656.079 3.316-.04 4.944-.353a8.132 8.132 0 004.281-2.318 99.82 99.82 0 01-11.671 14.05 53.976 53.976 0 01-19.13 11.809c-.978.318-1.984.544-3.005.675-.656.147-1.382.177-2.144.348l.068.007zm-35.87-8.112l6.593-6.172a1.93 1.93 0 011.248-.28l.106-.024c5.136-.286 10.356-.302 15.481-.34 3.6-.008 7.33-.023 10.95-.235 3.18-.091 6.44-.023 9.573.074 1.894.02 3.84.072 5.728.07 3.423.115 6.85-.11 10.228-.672l.233-.053a8.659 8.659 0 002.524-1.033l.416-.227a47.425 47.425 0 01-11.694 9.985 117.202 117.202 0 01-23.184.58l-3.322-.144a292.958 292.958 0 00-6.86-.261c-5.893-.211-11.985-.422-17.997-.962l-.024-.306zm59.32-9.004a38.043 38.043 0 01-11.163.86l-1.426-.013c-3.728-.074-7.358-.104-10.938-.012-6.296.168-13.023.3-19.697-.025-1.583 0-3.163.103-4.732.306l-1.037.233a3.427 3.427 0 01-1.588-.244 24.485 24.485 0 013.151-3.287c.662-.615 1.345-1.236 1.972-1.91.162-.17.423-.095.698-.157l.43.037 1.06-.037c5.665-.205 11.52-.363 17.25-1.072a8.87 8.87 0 011.63.035 5.962 5.962 0 002.89-.293c2.759.302 5.546.222 8.282-.237l1.837-.234a54.46 54.46 0 019.442-.118c2.942.132 5.891.02 8.815-.334a9.408 9.408 0 011.926-.032 65.282 65.282 0 01-4.962 6.606l-.607-.13a5.723 5.723 0 00-2.694-.019l-.538.077zM79.5 86.332l-.804.18-.465.105c-.29.022-.575.086-.847.19l-.19.043a11.207 11.207 0 00-5.063-.176l-1.323.142c-4.191.34-8.74.672-13.171.733l-.127.029a9.166 9.166 0 01-2.393-.264 64.76 64.76 0 014.843-5.156c.89-.889 1.817-1.808 2.699-2.83a9.402 9.402 0 004.522.342c.286-.042.57-.105.846-.19 1.292.126 2.595.058 3.867-.201l1.015-.228c3.626-.48 7.34-.67 10.917-.872 2.55-.128 5.21-.258 7.8-.506 2.588-.248 5.086-.408 7.558-.585 4.379-.294 8.758-.588 13.193-1.228.46-.058.914-.16 1.354-.304a4.58 4.58 0 011.757-.394 6.328 6.328 0 01-1.154 2.482 9.383 9.383 0 00-.889 1.49 3.815 3.815 0 01-.398.6c-.203.226-.371.48-.497.757a7.395 7.395 0 01-5.597 4.77 19.508 19.508 0 01-4.735.195c-7.63-.065-15.259.296-22.849 1.083l.131-.207zm-3.47.779l.148-.033a8.317 8.317 0 01-1.778-.001 10.976 10.976 0 00-1.499-.042 12.143 12.143 0 013.212.146l-.083-.07zm-8.056-8.464a5.747 5.747 0 00-1.714-.305 4.055 4.055 0 01-2.066-.492l1.572-1.71 4.817-5.372a1.54 1.54 0 01.773-.418c.249-.078.504-.135.762-.171l.423-.095a569.12 569.12 0 009.86-1.124c6.105-.726 12.452-1.462 18.694-1.973 4.379-.294 9.687-.708 14.792-1.431a7.05 7.05 0 001.601-.493 5.005 5.005 0 011.735-.39c.398.289.333.593.242 1.08l.024.106c-.117.47-.275.951-.434 1.431-.159.48-.353 1.102-.488 1.689a6.14 6.14 0 01-5.9 5.104c-6.433 1.044-13.148 1.529-19.556 1.99l-4.375.314c-6.566.451-13.412.943-20.082 1.73l-.148.032a.846.846 0 00-.45.568l-.082-.07zm19.996 26.306l.761-.571-.96.082a71.927 71.927 0 01-12.188.357c-5.284-.37-10.64-.568-15.738-.802-3.674-.131-7.485-.276-11.221-.483a35.018 35.018 0 00-2.567-.046 22.654 22.654 0 01-4.512-.299 6.349 6.349 0 00-7.016 2.309 4.897 4.897 0 01-1.247 1.08 9.75 9.75 0 00-.857.637l-.246.189a1.455 1.455 0 00-.766 1.639l.048.212.211-.047a38.85 38.85 0 018.708 1.758c.21.053.427.087.644.1l.297-.067a60.7 60.7 0 007.669.502c2.523.011 5.043.188 7.542.53a4.34 4.34 0 001.247.01c2.514-.387 5.077-.651 7.572-.922 3.472-.294 6.927-.765 10.352-1.412l1.671-.376a26.726 26.726 0 0010.679-4.309l-.083-.071zm-55.536 2.996l.284-.219c.242-.21.53-.409.798-.602a5.337 5.337 0 001.397-1.203 5.768 5.768 0 016.469-2.075 24.61 24.61 0 004.681.261c.826.015 1.69-.001 2.525.056 3.735.206 7.546.351 11.22.483 5.183.215 10.54.413 15.74.802 3.757.204 7.525.102 11.266-.306a26.876 26.876 0 01-9.706 3.891l-1.65.371c-3.41.643-6.852 1.111-10.31 1.403-2.495.271-5.08.54-7.614.931a3.978 3.978 0 01-1.068-.005 59.716 59.716 0 00-7.606-.516 58.454 58.454 0 01-7.606-.516l-.346-.056a3.65 3.65 0 01-.55-.076 40.19 40.19 0 00-8.46-1.747c-.1-.445.21-.648.536-.877zm-1.296.069c.505-.425.972-.819 1.376-1.199.8-.691 1.51-1.295 2.237-1.814a5.509 5.509 0 002.46-5.177 5.078 5.078 0 01.01-.847 8.3 8.3 0 00-.073-1.518 75.827 75.827 0 01-.631-12.71c.037-2.41.05-4.925-.08-7.386-.129-.572-.071-1.207-.12-1.819a30.15 30.15 0 01-.104-4.424 59.25 59.25 0 00-1.694-19.92l-.138-.614-.328.518a30.375 30.375 0 00-3.917 11.264 102.366 102.366 0 00-1.797 20.704c.053 1.722.154 3.456.245 5.148.118 2.308.26 4.722.26 7.101a37.818 37.818 0 001.033 7.373c.366 1.63.746 3.323.929 5.127l.11.487.222-.294zm4.56-36.911a31.589 31.589 0 00.104 4.423c.128.572.087 1.181.115 1.798.104 2.444.086 4.939.075 7.365a75.7 75.7 0 00.65 12.795c.068.467.085.94.05 1.412.062.275-.003.578.016.863a4.968 4.968 0 01-2.273 4.824c-.749.524-1.453 1.149-2.275 1.845l-1.005.87c-.208-1.621-.534-3.171-.845-4.657a36.88 36.88 0 01-1.014-7.288c-.022-2.374-.143-4.793-.266-7.122a137.002 137.002 0 01-.24-5.127 102.24 102.24 0 011.756-20.695 30.377 30.377 0 013.504-10.526 58.276 58.276 0 011.648 19.22zm2.831 30.827l5.122-4.908a1.995 1.995 0 00.698-1.936 19.532 19.532 0 01-.43-5.973c.03-.963.048-1.968.03-2.942-.237-5.906-.5-12.517-1.444-19.198-.514-3.776-.805-7.646-1.067-11.39-.187-2.315-.345-4.703-.583-7.05l-.147-.657a25.375 25.375 0 00-1.025-5.951l-.096-.423-.307.313a13.014 13.014 0 00-3.496 14.126 25.51 25.51 0 01.944 7.97c-.086 4.467.004 9.027.08 13.324.065 3.654.153 7.414.112 11.092a66.502 66.502 0 00.666 9.5 4.34 4.34 0 01-.047 1.279 3.927 3.927 0 00.444 2.768l.173.273.373-.217zm1.762-54.027l.148.656c.233 2.327.412 4.71.578 7.03.283 3.739.558 7.635 1.077 11.432.9 6.58 1.15 13.238 1.381 19.123.04.97.017 1.953-.012 2.916a20.338 20.338 0 00.447 6.147 1.498 1.498 0 01-.554 1.392l-4.944 4.712a3.58 3.58 0 01-.2-2.179c.07-.459.085-.925.044-1.388a66.038 66.038 0 01-.673-9.432c.037-3.7-.035-7.486-.112-11.093-.104-4.423-.166-8.856-.08-13.323a25.155 25.155 0 00-.977-8.118 12.48 12.48 0 013.037-13.2c.457 1.742.739 3.526.84 5.325zm5.266 47.513l5.926-5.778-.047-.212a496.81 496.81 0 01-.258-7.88c-.21-6.978-.421-13.557-1.266-20.194-.518-4.086-1.33-8.195-2.133-12.173a151.23 151.23 0 01-2.505-15.313l-.137-.614-.406.469c-2.374 2.89-4.946 5.69-3.938 10.178.49 2.416.81 4.863.955 7.324.133.592.118 1.218.166 1.83.221 2.174.337 4.371.462 6.411.179 3.273.367 6.588.86 9.969a112.271 112.271 0 011.001 19.609l.067.296a11.938 11.938 0 00.895 6.069l.081.36.277-.351zm1.862-46.156a130.76 130.76 0 012.123 12.13c.841 6.616 1.032 13.11 1.253 20.131.076 2.518.155 5.146.276 7.765l-5.546 5.492a12.108 12.108 0 01-.694-5.47l-.067-.296a113.675 113.675 0 00-.99-19.656c-.473-3.296-.676-6.674-.872-9.921a310.033 310.033 0 00-.445-6.437c-.133-.593-.118-1.219-.166-1.83a52.717 52.717 0 00-.97-7.387c-.893-3.98 1.12-6.5 3.586-9.277.514 5.065 1.443 9.993 2.512 14.756zm5.677 38.749l.96-.972a21.68 21.68 0 001.893-1.959 35.71 35.71 0 012.741-2.839c1.4-1.17 2.66-2.498 3.757-3.956l.36-.081-.038-.17a10.127 10.127 0 002.694-2.65c.478-.56.99-1.091 1.533-1.59a6.702 6.702 0 002.227-7.303c-.827-3.683-1.32-7.464-1.794-11.16-.366-2.719-.734-5.549-1.242-8.303-.78-4.272-1.774-8.496-2.813-12.532-.841-3.747-1.817-7.597-2.566-11.43l-.062-.276a1.324 1.324 0 00-.784-1.314l-.106.024a10.277 10.277 0 00-3.951 2.199c-.343.255-.681.53-1.029.764-2.41 1.742-2.46 1.91-1.335 4.747l-.014-.063c.103.31.175.628.214.952.033.2.078.398.133.593.21.931.317 1.908.442 2.858.133 1.276.365 2.54.693 3.78 1.503 5.31 2.438 10.86 3.414 16.199.37 2.14.715 4.175 1.113 6.243.417 2.528.7 5.078.847 7.636a52.829 52.829 0 001.467 10.1 1.91 1.91 0 01-.54-1.125A42.177 42.177 0 0159.937 68a135.458 135.458 0 00-3.356-21.481l-.727-3.239-.95-4.234a56.558 56.558 0 01-1.474-7.651 11.764 11.764 0 00-1.56-4.275l-.071-.317-.258.235a74.982 74.982 0 00-5.426 5.532l-.106.024.033.148c.428 1.586.63 3.225.604 4.867.027.617.029 1.217.072 1.807.19 1.687.563 3.348 1.112 4.954.57 1.593.941 3.249 1.108 4.932a70.76 70.76 0 001 7.624c.27 1.696.559 3.477.748 5.213a167.88 167.88 0 011.275 19.837c.062.275.002.6-.021.894a9.484 9.484 0 00.86 5.12l.077.34.218-.316zm-1.642-60.378a10.223 10.223 0 011.335 3.77c.35 2.627.881 5.227 1.591 7.78l.95 4.234.723 3.218a133.88 133.88 0 013.356 21.481 43.546 43.546 0 001.414 8.577 2.171 2.171 0 00.994 1.555 24.632 24.632 0 01-3.572 3.893 32.805 32.805 0 00-2.804 2.853 22.114 22.114 0 01-1.793 1.914l-.706.715a9.722 9.722 0 01-.638-4.526c-.067-.297.02-.605.016-.916A163.847 163.847 0 0051.057 62.3c-.195-1.758-.483-3.538-.779-5.25a75.506 75.506 0 01-.965-7.566 21.834 21.834 0 00-1.136-5.06 23.88 23.88 0 01-1.088-4.847c-.123-.55-.061-1.165-.084-1.76a19.383 19.383 0 00-.561-4.877c1.381-1.666 2.925-3.303 5.01-5.305zm8.805-4.734c.015.115.04.229.076.339.729 3.839 1.725 7.684 2.566 11.43.922 4.107 1.979 8.317 2.81 12.511.506 2.755.87 5.563 1.236 8.283.474 3.696.993 7.492 1.804 11.202a6.164 6.164 0 01-2.057 6.776c-.56.517-1.09 1.067-1.587 1.646a10.28 10.28 0 01-2.56 2.354 51.608 51.608 0 01-1.493-10.115 72.585 72.585 0 00-.902-7.58c-.475-2.117-.781-4.272-1.134-6.239a162.984 162.984 0 00-3.407-16.267 24.05 24.05 0 01-.61-3.71c-.21-.93-.26-1.942-.452-2.9a4.73 4.73 0 01-.124-.55 6.291 6.291 0 00-.242-1.08c-1.003-2.487-1.003-2.487 1.16-4.04l.894-.868a9.885 9.885 0 013.686-2.095c.316.218.373.473.42.884l-.084.02zm60.226 41.356c.836-2.812 1.583-5.425 2.526-8.55l.133-.497-.487.11c-1.246.39-2.485.713-3.796 1.008a99.915 99.915 0 01-11.294 1.668l-4.073.47c-.976.108-1.99.246-2.999.406l3.76-.577c6.147-.936 12.484-1.914 18.707-3.2l.17-.038-.034-.148c.245-1.189.541-2.345.823-3.564a58.754 58.754 0 001.884-11.407l-.071-.318a1.303 1.303 0 00-.304-1.354 7.117 7.117 0 00.763-4.419c-.065-.908-.047-1.82.055-2.725l.082-.53-.48.242a33.492 33.492 0 01-8.202 3.064 51.516 51.516 0 00-9.517 3.048c-.826.368-1.631.779-2.413 1.231a18.341 18.341 0 01-4.54 1.953 8.694 8.694 0 01-1.494.18 1.43 1.43 0 00-.747.434 41.138 41.138 0 01-1.826 1.767 29.165 29.165 0 00-3.595 3.786l-.24.32.377.094a3.576 3.576 0 001.762.027c.408-.105.81-.233 1.204-.381l.296-.067a79.154 79.154 0 018.961-2.656c1.671-.376 3.362-.866 5.031-1.352l2.814-.632 2.772-.622 2.793-.627 2.92-.656c.38-.128.735-.32 1.05-.569a2.381 2.381 0 011.259-.527l.127-.029a3.914 3.914 0 01-2.736 1.57l-.487.11-6.496 1.458a171.062 171.062 0 00-21.523 6.1 10.516 10.516 0 00-4.49 3.765 16.436 16.436 0 01-2.102 2.317l-.354.302.459.164a5.702 5.702 0 003.213.057l.931-.21 15.006-3.946a2.52 2.52 0 01.571-.129l-2.887.804c-3.825 1.081-7.771 2.212-11.77 3.11-2.497.56-4.782 1.073-7.019 1.309l.064-.015a28.179 28.179 0 01-3.092 2.962 28.296 28.296 0 00-3.614 3.702l-.152.212.19.157.31.287a3.643 3.643 0 01-.71-.286l-.176-.093-5.998 6.349.196.178a2.168 2.168 0 001.913.505l.254-.057 8.434-.849c7.283-.723 14.825-1.482 22.225-2.276l4.52-.46 1.694-.18c1.504-.12 3-.337 4.477-.649a15.622 15.622 0 001.965-.552c.327-.093.659-.167.994-.223a2.018 2.018 0 011.739.32l.316.219-.022-.395zm-3.372-.466c-.606.22-1.228.396-1.859.528a34.406 34.406 0 01-4.308.612l-1.693.18-4.541.463c-7.401.794-14.922 1.55-22.205 2.273l-8.478.947-.19.042a1.646 1.646 0 01-1.264-.183l5.398-5.659a6.091 6.091 0 004.098.237l.19-.043 5.036-1.13a164.753 164.753 0 0116.318-2.953l4.052-.464c3.815-.345 7.607-.907 11.357-1.683 1.164-.261 2.264-.508 3.362-.866l-2.264 7.735a2.494 2.494 0 00-1.852-.23c-.395.023-.734.099-1.157.194zm-37.848-1.376l-.17-.162a29.66 29.66 0 013.366-3.423 27.322 27.322 0 003.016-2.901 89.063 89.063 0 006.955-1.295c3.999-.898 7.967-2.033 11.792-3.114l3.659-1.222.571-.128-.497-.333a2.162 2.162 0 00-1.673-.225l-.211.048-15.005 3.946-.106.024a6.503 6.503 0 01-3.27.29 18.348 18.348 0 001.765-2.042 9.8 9.8 0 014.393-3.699 169.436 169.436 0 0121.438-6.08l6.475-1.454.508-.114a4.33 4.33 0 003.096-1.851c.174.183.095.423.176.783l-.046.388a55.068 55.068 0 01-2.063 11.403c-.259 1.126-.52 2.34-.792 3.402-6.139 1.267-12.434 2.236-18.517 3.157-7.007 1.061-14.269 2.18-21.378 3.776a97.293 97.293 0 00-3.482.826zm2.915.213l-.19.043a7 7 0 01-2.31.207l3.386-.76c5.162-1.16 10.446-2.079 15.685-2.899-3.428.57-7.155 1.295-11.535 2.278l-5.036 1.131zm15.56-19.792l1.826-1.766a.802.802 0 01.385-.264 9.532 9.532 0 001.578-.199 18.43 18.43 0 004.684-2.007c.772-.419 1.562-.863 2.37-1.222a52.4 52.4 0 019.416-3.003 33.416 33.416 0 007.888-2.883 17.404 17.404 0 00-.011 2.226 6.513 6.513 0 01-.673 4.131 1.757 1.757 0 00-.826-.014 3.718 3.718 0 00-1.156.593 3.38 3.38 0 01-.869.484l-2.899.65-2.941.661-2.793.627-2.857.641c-1.647.481-3.352.909-5.009 1.347a80.95 80.95 0 00-9.024 2.671l-.297.067a4.834 4.834 0 01-2.115.475c.99-1.127 2.05-2.19 3.175-3.181l.148-.034zM72.066 68.167l4.766-5.006a1.953 1.953 0 00.366-1.638l-.024-.106a41.064 41.064 0 00-1.664-8.898 55.162 55.162 0 01-1.863-8.298l-.319-1.418a78.88 78.88 0 00-2.188-10.938A49.767 49.767 0 0168.632 20.2a2.953 2.953 0 00-1.312-2.574l-.028-.127-.294.177c-.72.451-1.482.822-2.302 1.228a16.994 16.994 0 00-3.362 1.956l-.127.028.034.148c.697 4.891 1.807 9.734 2.9 14.403l2.124 9.462c.88 4.716 1.536 9.416 2.222 14.354.483 3.338.942 6.77 1.5 10.247l.12.53 1.96-1.864zm-6.96-48.822c.692-.336 1.365-.71 2.016-1.12a2.43 2.43 0 01.898 2.022 50.963 50.963 0 002.59 11.737 78.127 78.127 0 012.166 10.831l.313 1.398a56.299 56.299 0 001.901 8.467 40.155 40.155 0 011.64 8.792c.124.55.074.918-.213 1.227l-4.832 5.11-1.079 1.13c-.516-3.285-.96-6.454-1.424-9.707-.69-4.96-1.341-9.639-2.227-14.376-.607-3.199-1.426-6.35-2.134-9.504-1.036-4.615-2.105-9.378-2.852-14.19.966-.7 2-1.297 3.09-1.784l.147-.033zm13.17 42.225l2.335-2.17a37.142 37.142 0 004.813-4.993l.365.14-.09-.402a13.27 13.27 0 003.185-2.939c.401-.49.823-.985 1.255-1.438a1.344 1.344 0 00.353-1.102 18.472 18.472 0 01-.294-3.98 22.064 22.064 0 00-.153-3.257l1.302 5.8.024.106.148-.034c.191.025.385.019.574-.017.527-.183.98-.535 1.287-1l.57-.729a9.046 9.046 0 011.811-1.83 4.728 4.728 0 001.64-5.37c-.641-3.548-1.597-7.113-2.377-10.585l-2.133-9.504c-.217-1-.497-1.984-.84-2.947a17.732 17.732 0 01-.998-4.445l-.076-.339-.338.076c-.922.335-1.884.544-2.861.62a8.108 8.108 0 00-2.624.59l-.212.047.048.211c1.226 5.462 2.038 11.06 2.834 16.485.578 3.962 1.15 7.991 1.9 12.025l-.048-.211a88.729 88.729 0 01-2.756-14.946 33.359 33.359 0 00-3.188-13.115l-.034-.148-.157-.009a21.06 21.06 0 00-4.697 1.055c-.783.175-1.575.509-2.375.71l-.148.034.034.148a3.668 3.668 0 00.118 2.308l.1.445.327 1.46.58 2.583A55.978 55.978 0 0080.394 32.1a56.999 56.999 0 013.255 12.521c.21.932.233 1.927.315 2.887.19 2.088.5 4.164.93 6.217a1.454 1.454 0 01-.71-1.375l-.142-1.524a55.308 55.308 0 00-2.397-13.848 161.433 161.433 0 01-5.367-18.162l-.195-.868a6.12 6.12 0 00-1.197-3.155l-.029-.127-.148.033-1.439.323a11.252 11.252 0 00-4.583 2.452l-.148.033.038.17c2.796 14.136 5.752 28.792 9.11 43.847l.105.466.483-.42zM73.31 15.502l1.249-.28a5.73 5.73 0 01.996 2.755l.2.89a162.505 162.505 0 005.38 18.225 55.149 55.149 0 012.386 13.695l.126 1.55a1.974 1.974 0 001.131 1.97 38.553 38.553 0 01-4.64 4.777l-2.006 1.851c-3.327-14.818-6.196-29.182-9.013-43.114a10.363 10.363 0 014.191-2.32zm5.66-1.716a19.507 19.507 0 014.38-.983 33.774 33.774 0 013.043 12.658 87.292 87.292 0 002.757 15.057c.295 1.368.415 2.768.358 4.166-.058 1.37.042 2.744.296 4.092a.911.911 0 01-.198.6c-.459.465-.89.955-1.293 1.469a13.683 13.683 0 01-2.868 2.867 49.93 49.93 0 01-.924-6.196c-.108-.976-.19-1.936-.32-2.908a56.735 56.735 0 00-3.317-12.596 58.343 58.343 0 01-2.873-11.117l-.59-2.625-.323-1.44-.104-.465a3.495 3.495 0 01-.176-1.873c.663-.216 1.405-.471 2.153-.706zm9.391 14.702c-.781-5.361-1.6-10.892-2.796-16.316a7.542 7.542 0 012.33-.412 13.012 13.012 0 002.599-.405 19.36 19.36 0 00.95 4.234c.334.935.608 1.891.82 2.862l2.139 9.525L96.78 38.56c.475 2.117.276 3.607-1.44 4.77a8.673 8.673 0 00-1.793 1.915l-.554.703a1.802 1.802 0 01-1.188.845c-1.627-5.861-2.587-12.316-3.443-18.305zm10.001 12.274c5.018-3.884 6.284-7.748 4.11-12.485a11.862 11.862 0 01-.662-5.521 41.492 41.492 0 00-.546-7.282l-.138-.614a13.884 13.884 0 00-1.584-5.67l-.038-.17-.656.148-7.112 1.286-.275.061.057.254 2.471 11.008c1.373 6.117 2.794 12.447 3.957 18.812l.1.444.316-.271zm.516-31.067l.296-.066a13.421 13.421 0 011.463 5.23l.138.614c.398 2.369.58 4.77.543 7.17a12.377 12.377 0 00.712 5.845c2 4.353.914 7.932-3.582 11.566-1.16-6.255-2.548-12.436-3.892-18.427l-2.405-10.71 6.727-1.222zm4.185 29.434l.169-.038 2.592-1.227a37.948 37.948 0 019.568-3.616l.804-.18a43.361 43.361 0 006.445-2.18c1.142-.457 2.301-.94 3.478-1.338l.148-.033-.028-.127a8.1 8.1 0 00.13-4.765l-.066-.296-.297.066-.702.336c-.413.214-.838.406-1.272.574-3.56 1.267-7.104 2.707-10.547 4.102-2.04.814-3.911 1.59-5.875 2.342a15.177 15.177 0 00-6.135 5.246l-.694.868.28.16a1.91 1.91 0 001.377.29c.215-.034.425-.096.625-.184zm-1.121-.838a14.328 14.328 0 015.904-5.083c2.049-.772 3.92-1.547 5.875-2.342 3.443-1.396 6.987-2.836 10.527-4.098.463-.126.918-.28 1.363-.461l.399-.201a7.571 7.571 0 01-.186 4.022c-1.135.388-2.277.844-3.377 1.291a37.229 37.229 0 01-7.148 2.317c-3.38.774-6.641 2-9.695 3.644l-2.587 1.247-.19.043a1.06 1.06 0 01-1.176.109l.291-.488zm2.835-4.795l1.23-1.254a28.583 28.583 0 012.387-2.337 5.429 5.429 0 001.939-5.616c-.313-1.397-.479-2.828-.717-4.286a100.88 100.88 0 00-2.405-11.8l-6.352.914.053.233c.002 1.146.125 2.288.365 3.409a31.38 31.38 0 01.835 7.283 35.136 35.136 0 002.281 13.43l.091.401.293-.377zm1.988-24.904a99.983 99.983 0 012.312 11.487c.314 1.397.458 2.832.718 4.286a4.95 4.95 0 01-1.76 5.131 29.519 29.519 0 00-2.424 2.368l-.902.936a33.495 33.495 0 01-2.131-12.862 31.59 31.59 0 00-.843-7.416 17.543 17.543 0 01-.343-3.013l5.373-.917zm1.264 23.552c3.253-1.353 6.588-2.635 9.817-3.894 3.229-1.259 6.016-2.307 8.966-3.525l.169-.038.184-3.932-.36.08c-13.538 3.551-15.056 5.604-17.577 8.927-.441.61-.919 1.252-1.515 1.963l-.699.847 1.015-.428zm18.419-7.849a512.586 512.586 0 01-8.78 3.461c-2.883 1.114-5.915 2.262-8.864 3.48l.874-1.152c2.409-3.232 3.882-5.185 16.886-8.639l-.116 2.85zm-13.958 1.088a11.99 11.99 0 011.237-1.122c1.36-1.173 2.778-2.38 2.476-4.714a1.906 1.906 0 01.249-1.168c.604-1.32.77-2.799.475-4.22l-.047-.212a12.749 12.749 0 00-1.123-3.616 12.002 12.002 0 01-1.183-3.782l-.066-.296-.275.062c-.741.166-1.418.318-2.083.623a13.01 13.01 0 01-4.232.95l-.36.08.081.36a48.336 48.336 0 011.998 9.691 55.867 55.867 0 001.322 7.375l.029.127c.249.119.53.157.802.108.24 0 .473-.084.658-.236l.042-.01zm-2.228-7.549a50.342 50.342 0 00-1.915-9.42 10.444 10.444 0 001.858-.24c.762-.17 1.481-.332 2.083-.622.601-.291 1.135-.389 1.723-.543.222 1.228.609 2.42 1.151 3.544.547 1.09.914 2.261 1.09 3.469l.047.211a6.508 6.508 0 01-.308 3.872c-.265.46-.379.99-.326 1.518.284 2.16-.97 3.108-2.301 4.208-.425.384-.875.752-1.27 1.174a.54.54 0 01-.529.119 56.733 56.733 0 01-1.345-7.28l.042-.01zm4.982 6.353c3.143-1.15 5.98-2.076 9.256-3.123 2.842-.905 3.088-1.694 2.845-4.752l-.09-.403-.352.213a29.179 29.179 0 01-3.711 1.589c-3.121 1.145-6.36 2.362-8.344 6.098l-.325.629.721-.251zm9.074-3.638c-3.027.968-5.679 1.83-8.555 2.877a13.547 13.547 0 017.712-5.245 29.742 29.742 0 003.347-1.33c.206 2.6-.141 3.034-2.49 3.761l-.014-.063zm-6.866-.882a32.737 32.737 0 003.503-3.01l.232-.253a2.274 2.274 0 00.671-1.862 23.874 23.874 0 00-2.057-9.166l-.034-.148-.148.033a8.227 8.227 0 00-1.509.205l-1.122.252-1.46.328-.19.043.042.19a8.686 8.686 0 00.998 4.446c.361.728.644 1.491.845 2.278.237 1.346.238 2.723.002 4.069-.12.838-.182 1.684-.187 2.532l-.008.558.422-.495zm-.312-13.471a9.452 9.452 0 012.306-.518 23.509 23.509 0 011.982 8.827 1.891 1.891 0 01-.63 1.453l-.251.368a39.824 39.824 0 01-2.969 2.712c.031-.652.11-1.292.193-1.911a12.32 12.32 0 00.012-4.205 12.155 12.155 0 00-.904-2.443 8.693 8.693 0 01-1.021-3.951l1.282-.332zm8.88 9.857l.17-.038c.768-.44 1.717-.963 1.769-2.02a19.84 19.84 0 01.477-2.33c.393-1.274.612-2.595.652-3.927l-.054-.833-8.636 11.033 1.503-.337a14.906 14.906 0 004.141-1.553l-.022.005zm2.477-7.582a19.614 19.614 0 01-.539 2.945 24.235 24.235 0 00-.47 2.462c-.088.798-.882 1.22-1.57 1.62l-.19.043a13.457 13.457 0 01-4.094 1.564l6.863-8.634zm-5.319 5.219c.903-1.226 1.893-2.36 2.841-3.484a30.832 30.832 0 004.725-6.575l.206-.47-.487.11-2.41.252c-1.6.127-3.19.35-4.762.67a17.08 17.08 0 00-2.741.859l-.296.066.067.297a15.205 15.205 0 011.573 5.028c.162 1.066.398 2.12.708 3.154l.114.508.462-.415zm.215-8.943a43.794 43.794 0 014.694-.676l1.931-.21a31.347 31.347 0 01-4.428 6.018c-.844.99-1.769 2.02-2.531 3.081l-.575-2.561a17.37 17.37 0 00-1.486-4.936 17.924 17.924 0 012.412-.742l-.017.026z" fill="#543018"/><path d="M123.817 46.721a3.014 3.014 0 00-3.124.146 7.127 7.127 0 01-3.787.85 47.67 47.67 0 00-7.926 1.424c-.381.085-1.148.035-1.088.8 2.769-.044 5.361-1.07 8.124-1.335 6.95-.626 6.94-.669 7.801-1.885z" fill="#543018"/><path d="M124.038 46.916l.223-.295-.339-.124a3.599 3.599 0 00-2.292-.308c-.406.09-.791.26-1.132.499a4.168 4.168 0 01-1.446.591c-.717.13-1.444.204-2.173.221-1.595.09-3.179.326-4.731.707l-3.745.84a.891.891 0 00-.752.65.89.89 0 00-.024.347l.045.302.254-.057c2.811-.053 5.403-1.08 8.145-1.34a58.541 58.541 0 006.063-.716 2.62 2.62 0 001.904-1.317zm-15.225 2.573l.212-.047 2.116-.475 1.164-.262a24.79 24.79 0 014.641-.708c.767-.005 1.531-.08 2.284-.224a4.767 4.767 0 001.626-.676 2.752 2.752 0 012.563-.264 2.165 2.165 0 01-1.418.807c-1.982.381-3.982.66-5.992.834-2.653.262-5.163 1.16-7.766 1.343.053-.256.312-.292.57-.328z" fill="#543018"/><path d="M108.205 50.538l-.997-.577.569-.239.379.004.049.812z" fill="#543018"/></svg>