<svg width="64" height="64" fill="none" xmlns="http://www.w3.org/2000/svg"><g clip-path="url(#clip0)"><path fill-rule="evenodd" clip-rule="evenodd" d="M44.17 51.633a19.72 19.72 0 01-12.173-4.182 19.816 19.816 0 110-31.261A19.817 19.817 0 1144.17 51.633zm-9.487-32.887c3.057 3.502 4.926 9.827 4.926 13.07 0 3.244-.162 2.92-.47 4.304a9.084 9.084 0 00-3.631-17.407h-.81l-.015.033zm-6.244 8a9.092 9.092 0 11-3.632.76 19.866 19.866 0 004.44 17.365 9.075 9.075 0 008.234-8.21 9.084 9.084 0 01-11.057-8.865c0-.283 0-.558.041-.808a9.277 9.277 0 011.974-.219v-.024z" fill="#001AA5"/></g><defs><clipPath id="clip0"><path fill="#fff" d="M0 0h64v64H0z"/></clipPath></defs></svg>