<svg width="192" height="140" fill="none" xmlns="http://www.w3.org/2000/svg"><g clip-path="url(#clip0)" fill="#F7F3EF"><path d="M31.234 87.393a.727.727 0 00-.979.891c.261 1.43 1.634 5.157 3.594 3.573a1.86 1.86 0 00.397-2.312c-.545-1.292-1.774-1.725-3.012-2.152zm-.387 1.917a5.098 5.098 0 002.46 2.346c-.997.513-1.869-1.105-2.46-2.346zm15.833 4.465a1.521 1.521 0 01-1.339-.143 1.272 1.272 0 01-.635-1.102c.007-.356-.52-.314-.534.032a1.805 1.805 0 00.913 1.582 1.641 1.641 0 001.777.078.242.242 0 00-.183-.447zm-7.216 9.438c-.541.149-.546.968-.106 1.316a.904.904 0 001.369-.238.555.555 0 00-.028-.548.842.842 0 00-.487-.569.842.842 0 00-.748.039zm14.134-1.759a.577.577 0 00-.066-.113.523.523 0 00-.828.566c.126.216.243.789.463 1.301a1.47 1.47 0 00-.032.923.503.503 0 00.691.283.498.498 0 00.206-.186c.11.019.224.002.323-.049.405-.234.316-.822.16-1.159-.157-.336-.24-.414-.359-.621a2.616 2.616 0 00-.558-.945zM43.175 86.662c.005.574.22 1.491.81 1.728a.413.413 0 00.436-.026c.426-.371.044-.728-.122-1.059a1.566 1.566 0 01-.169-.706c-.032-.621-.967-.546-.955.063zm-4.377 5.463c-.224-.26-.696-.401-.948-.055-.108.165-.2.34-.275.523a.662.662 0 00-.238-.064.153.153 0 10-.258-.164.75.75 0 00-.117.23l-.085.05a.772.772 0 00-.224.807c.072.179.169.347.288.499.108.188.41.428.447.645a.576.576 0 00.551.498.62.62 0 00.98-.717 1.869 1.869 0 00-.12-2.252zm-19.375-7.276c-.356-.096-.574.331-.406.623l.283.49c.048.13.118.25.206.357a.391.391 0 00.718-.126 1.086 1.086 0 00-.801-1.344zm9.146 16.232a.855.855 0 00-.434-.339 1.488 1.488 0 01-.356-1.05c.019-.337-.493-.594-.63-.2-.18.471-.178.994.005 1.465l-.15.087a1.081 1.081 0 00.003.998 1.085 1.085 0 00.816.574c.11.007.218-.002.325-.024a.764.764 0 001.102-.636.924.924 0 00-.681-.875zm19.259 12.64a3.128 3.128 0 00-2.4.67.517.517 0 00-.21.322.5.5 0 00.4.585.5.5 0 00.376-.079 6.351 6.351 0 011.899-.581.45.45 0 00.304-.364.478.478 0 00-.37-.553zM31.266 64.317a2.033 2.033 0 00-1.393 1.935.706.706 0 01-.742-.438c-.272-.47-1.048-.249-.831.279a1.945 1.945 0 002.132 1.28c.15-.028.294-.078.43-.148l.043.075a1.467 1.467 0 002.329-1.03 1.63 1.63 0 00-1.968-1.953zm16.683-.757a.489.489 0 00-.501-.389.945.945 0 00-.89.828.598.598 0 01-.439-.086c-.404-.243-.838.484-.463.72a1.49 1.49 0 001.349.162.967.967 0 001.264-.441.565.565 0 00-.32-.794zm7.396-6.58l-.076.107a7.003 7.003 0 00-.563-.04c-.19-.003-.58.147-.533.446.047.3.256.443.574.472.28.084.566.136.857.158a.804.804 0 00.592-.517.882.882 0 00-.215-.83.348.348 0 00-.636.204zm-14.143-.758a.609.609 0 00.15.716c.09.083.192.15.304.201a.543.543 0 00.199.149c.184.083.385.125.587.125.442.023.882-.086 1.262-.314a.457.457 0 00.212-.436 1.468 1.468 0 00-2.714-.441zm-3.869 14.647a.664.664 0 00-.252-.044.61.61 0 00-.235.136c-.138.03-.28.04-.422.03-.214-.001-.242.341-.026.367.14 0 .279.021.412.063.038.066.128.09.226.108.093.018.188.01.276-.021a.32.32 0 00.02-.64zm1.121-4.602a.956.956 0 00-.955.15.445.445 0 00-.133.14.39.39 0 00-.295.032.358.358 0 00-.084.463.902.902 0 001.644-.522.304.304 0 00-.177-.263zm-18.001 6.628a1.196 1.196 0 00-1 .44l-.12-.032c-.6-.018-.664.697-.36 1.049l-.196-.013c-.403-.068-.531.558-.113.63a2.664 2.664 0 002.61-1.067.337.337 0 00.063-.325 1.086 1.086 0 00-.884-.682zm-.522 1.268c.057-.08.11-.165.155-.253.11-.201.371-.465.555-.32-.203.24-.455.432-.74.565l.03.008zm32.089-5.311a.794.794 0 00-.926.373 1.011 1.011 0 00.06.93.499.499 0 00.324.366 1 1 0 001.211.054.467.467 0 00.06-.7 1.087 1.087 0 00-.728-1.023zm15.074-15.48a2.489 2.489 0 00-3.245.468.511.511 0 00.294.834 2.663 2.663 0 002.952-.713.424.424 0 00-.001-.589zm-1.651.64a.228.228 0 00-.005-.16c.177-.04.36-.047.539-.023a1.676 1.676 0 01-.538.198l.004-.015zm23.535 17.2c-4.169-.33-8.367-.253-12.527-.524-4.16-.272-8.357-.736-12.508-1.339-.408-.053-.536.573-.123.636 3.662.56 7.43 1.107 11.285 1.48-.07.204-.071.442-.217.602a.489.489 0 00.151.741l-.204.256c-.14.081.087.301.2.173.111-.116.205-.246.28-.387l.188-.109c.301-.174.224-.568.046-.767-.177-.199-.113-.349-.172-.516 4.515.472 9.063.535 13.588.188.245.01.296-.422.013-.434zM71.172 82.283a1.76 1.76 0 00-1.15 1.291c-.355-.158-.706.408-.401.697.118.117.257.212.41.277a1.151 1.151 0 00.815.91.37.37 0 00.366-.562l-.169-.292c.171-.055.328-.146.461-.266a1.413 1.413 0 00.16-1.9.435.435 0 00-.492-.155zm15.983-3.969l-.987-.057a.74.74 0 00-.343-.029c-6.695-.465-13.407-.656-20.115-1.013a4.792 4.792 0 00-.383-1.837c-.2-.349-.737-.604-1.03-.197a4.39 4.39 0 00-.571 1.184 2.575 2.575 0 00-.279.713c-1.48-.086-2.967-.182-4.454-.302-.313-.02-.401.457-.098.483l4.493.368a2.173 2.173 0 001.13 1.958.609.609 0 00.782-.276c.206-.472.34-.972.398-1.484 6.484.511 13.005.938 19.467.847-.066.081-.12.172-.16.268a.564.564 0 00-.33-.01.543.543 0 00-.327.653 1.314 1.314 0 001.746.85 1.27 1.27 0 00.515-1.804l.51-.006c.202.022.227-.281.036-.309zm-.227-13.763a36.11 36.11 0 00-4.812-.9l-.014-.154c-.266-1.265-2.306-1.342-3.248-.887-.066.038-.025.153.06.104a2.173 2.173 0 011.785.287.836.836 0 01.416.526c-3.89-.39-7.921-.372-11.682-.473-.483-.01-.424.722.05.737 3.136.085 6.266.223 9.396.45l1.3.077a1.088 1.088 0 001.684.157c1.688.195 3.387.284 5.086.265.116.07.111-.177-.021-.189zm8.622 23.262a114.96 114.96 0 00-3.358-.295 1.022 1.022 0 00-1.334-.334 2.202 2.202 0 01-.04-.241c-.02-.252-.416-.287-.454-.026a2.46 2.46 0 00.004.462 275.94 275.94 0 00-7.625-.38.818.818 0 00-.127-.09.924.924 0 00-1.046.014c-2.64-.094-5.28-.19-7.908-.304-7.198-.338-14.997.111-21.86-2.19-.154-.049-.273.158-.108.226 6.354 2.18 13.365 1.998 19.976 2.273 3.213.153 6.473.342 9.656.55a2.38 2.38 0 00.026.525.967.967 0 00.741.827.24.24 0 00.282-.25c-.07-.123-.041-.29-.074-.434.143.05.295.068.446.056a.478.478 0 00.415-.478l-.055-.094a248 248 0 007.177.3 1.271 1.271 0 00.643 1.548.391.391 0 00.532-.47c.68.222.968-.496.862-1.05 1.053.02 2.106.04 3.147.016.193.051.206-.144.083-.161zM80.243 97.994c-.22-.074-.499.137-.383.36l-.113.064a.577.577 0 00.064.83.77.77 0 00.723.121.652.652 0 00.36-.81.923.923 0 00-.651-.565z"/><path d="M80.429 45.36c-7.136.053-14.297.497-21.444.62-3.688.062-7.369.12-11.044.175-2.85.064-6.06-.342-8.81.894a15.805 15.805 0 00-4.55 3.682c-1.368 1.241-2.655 2.6-3.929 3.762l-8.376 7.71c-3.157 2.902-6.434 5.748-9.58 8.732l-7.018 6.173c-.171-.102-.365.085-.314.281-.43.45-.49 1.325.195 1.47l.658.16c1.564 2.861 3.477 5.61 5.23 8.363.79 1.239 1.6 2.466 2.409 3.693l2.874 4.98a3417.535 3417.535 0 0010.606 18.239c1.24 2.146 2.533 4.236 4.755 5.149 2.527 1.051 5.56.782 8.246.913 6.543.289 13.087.514 19.632.764l5.56.217c1.608.168 3.224.245 4.84.231a.894.894 0 00.632.318.889.889 0 00.663-.25.469.469 0 00.113-.392 12.144 12.144 0 002.71-.849 16.213 16.213 0 002.986-2.979 247.04 247.04 0 016.871-7.469c4.778-4.942 9.728-9.695 14.868-14.119 1.264-1.094 2.525-2.148 3.809-3.228a6.776 6.776 0 002.085-2.346 4.087 4.087 0 00-.054-3.094 13.036 13.036 0 00-1.66-4.527 389.828 389.828 0 00-6.942-12.46 336.95 336.95 0 00-7.147-11.813c-2.315-3.684-4.642-8.039-7.67-11.11a1.414 1.414 0 00-1.204-1.89zm-.824 8.834c-1.136-.097-2.282-.126-3.422-.145l1.65-1.945 1.772 2.09zm5.72 6.952c-4.633-.764-9.393-1.053-14.065-1.406l1.686-1.927a62.06 62.06 0 004.335.007 21.64 21.64 0 005.166-.246 265.96 265.96 0 012.879 3.572zm-3.422-4.212a39.847 39.847 0 00-4.297.146c-1.365.048-2.728.057-4.095.08l2.064-2.446c1.571.134 3.153.288 4.721.286l1.607 1.934zM9.059 75.984c4.738-3.576 9.164-7.8 13.685-11.666l7.91-6.952c2.562-2.258 5.235-5.281 8.155-6.854 2.92-1.573 6.646-.75 9.596-.771 3.216-.037 6.425-.045 9.631-.1 5.736-.087 11.475-.212 17.22-.328-4.799 6.385-9.817 12.583-15.107 18.486a124.479 124.479 0 01-8.67 9.136 19.703 19.703 0 01-2.39 1.882.978.978 0 00-1.091-.563 141.883 141.883 0 01-23.834.958c-5.396-.65-10.805-1.105-16.204-1.652l-.487-.083 1.586-1.493zm43.724 16.69c1.684 3.132 2.932 6.578 4.784 9.589 3.301 5.348 7.196 10.291 10.906 15.303a69.634 69.634 0 00-8.095-.108c-3.581-.028-7.157-.048-10.71-.092l-10.377-.235c-3.52-.076-5.97-.971-8.134-4.089-4.121-5.942-8.16-11.958-12.276-17.915-.976-1.407-1.937-2.81-2.922-4.212l-2.628-4.357c-.913-1.581-1.901-3.12-2.887-4.609-.52-.791-.998-1.62-1.582-2.35a115.36 115.36 0 0026.155 2.585l5.189.77c2.077.294 4.68 1.238 6.936.752 1.6 3.142 3.958 5.835 5.641 8.968zM93.14 72.613a127.508 127.508 0 017.357 14.918 29.029 29.029 0 01-5.938 7.846c-2.791 2.578-5.716 4.969-8.48 7.594-2.764 2.626-5.622 5.48-8.29 8.402a112.152 112.152 0 00-3.92 4.472l-1.073 1.272c-2.154-2.948-4.299-5.902-6.442-8.832-.218-.376-.525-.714-.78-1.068a19.336 19.336 0 008.497.805.17.17 0 00.153-.182.166.166 0 00-.06-.114.166.166 0 00-.122-.039 30.612 30.612 0 01-8.886-1.02c-1.032-1.375-2.079-2.753-3.075-4.174 3.899.774 7.81 1.591 11.745 2.081a.1.1 0 10.037-.197c-4.04-1.082-8.185-1.827-12.293-2.618a46.344 46.344 0 01-1.6-2.553c3.388.63 6.786 1.102 10.244 1.504-.076.282-.12.596.126.805a.478.478 0 00.72-.101.36.36 0 00.035-.222c.046.021.09.046.131.075l.169.292a.483.483 0 00.332.197.484.484 0 00.37-.112.47.47 0 00.104-.55.458.458 0 00-.123-.155l-.054-.094a59.44 59.44 0 0010.866.428c.218-.013.246-.355.021-.376-4.203-.497-8.473-.48-12.687-.909a158.473 158.473 0 01-10.575-1.425c-.685-1.186-1.296-2.44-1.936-3.702 9.915 1.957 20.482 3.237 30.591 2.42.17-.01.136-.242-.02-.252-10.387-.404-20.567-.84-30.826-2.673-.752-1.499-1.51-3.007-2.324-4.482 2.794.295 5.65.59 8.517.881l.193.14c.426.28 1.005.675 1.485.397a.76.76 0 00.356-.318c9.2.99 18.444 1.488 27.697 1.493.2-.002.223-.33.028-.342-6.46-.538-12.94-.675-19.447-1.073-2.708-.169-5.351-.4-8.066-.602.024-.206.026-.413.007-.619-.083-1.208-.87-2.548-2.302-2.248-.26.05-.495.186-.669.386-.006-.272-.377-.284-.487-.083a1.892 1.892 0 00.571 2.294 860.284 860.284 0 01-8.181-.737 26.238 26.238 0 00-5.322-7.043 33.375 33.375 0 003.256-2.947 85.402 85.402 0 006.628-6.89 348.04 348.04 0 005.693-6.01c4.344.655 8.7 1.114 13.052 1.477 4.125.456 8.276.63 12.425.52a140.95 140.95 0 012.572 4.063zM63.306 89.247a1.859 1.859 0 01-.277-.48.685.685 0 011.16-.557c.218.188.395.42.518.68.13.323.205.666.221 1.014.013.219.079.42-.034.484l-.328-.024a3.458 3.458 0 01-1.072-.9l-.081-.14a.12.12 0 00-.044-.076l-.063-.001zm26.874-21.39c-4.015-.43-8.161-.308-12.232-.62-4.07-.31-8.266-.687-12.376-1.175a352.2 352.2 0 005.105-5.659c4.989.534 9.998 1.144 15.035 1.172 1.436 1.857 2.83 3.75 4.177 5.735.065.2.178.374.29.547z"/><path d="M86.8 82.285c-5.716-.29-11.43-.468-17.152-.64-5.723-.174-11.595.33-16.998-1.182-.203-.046-.262.264-.064.325 5.164 1.487 10.958 1.067 16.267 1.24 5.978.201 11.94.398 17.92.473.186.018.165-.17.026-.216zm-1.314-7.84c-7.662-.596-15.215-.917-22.79-2.104-.32-.054-.422.444-.093.493a114.636 114.636 0 0022.901 1.84c.07-.054.103-.236-.018-.229z"/></g><g clip-path="url(#clip1)" fill="#F7F3EF"><path d="M137.429 28.812a.537.537 0 00-.13-.284.47.47 0 00-.259-.146.513.513 0 00-.305.037.625.625 0 00-.254.21c-.799.88-2.605 3.613-.832 4.078.304.066.631.013.925-.15a1.67 1.67 0 00.689-.748c.599-.992.386-1.993.166-2.997zm-1.361.707a4.664 4.664 0 00-.507 2.74c-.717-.381-.041-1.744.507-2.74zm3.442 12.347a1.037 1.037 0 01-.324-.396 1.226 1.226 0 01-.114-.53 1.18 1.18 0 01.443-.956c.227-.172-.008-.49-.231-.325a1.64 1.64 0 00-.481.61 1.648 1.648 0 00-.155.761c-.014.255.041.502.157.71.116.21.288.37.496.466a.158.158 0 00.133.019.209.209 0 00.117-.092.224.224 0 00.032-.148.173.173 0 00-.073-.119zm-8.799.086c-.308-.272-.826.133-.872.587a.767.767 0 00.022.314.63.63 0 00.143.26.581.581 0 00.526.183.445.445 0 00.199-.1.526.526 0 00.136-.19.812.812 0 00.145-.284.75.75 0 00.021-.311.65.65 0 00-.107-.276.548.548 0 00-.213-.183zm6.694 8.162a.508.508 0 00.045-.098.43.43 0 00-.046-.257.346.346 0 00-.183-.159.355.355 0 00-.245.004.445.445 0 00-.209.164c-.088.188-.402.548-.638.944a1.25 1.25 0 00-.594.439.47.47 0 00-.079.215.425.425 0 00.035.217.337.337 0 00.139.151.323.323 0 00.198.039c.032.08.087.144.159.182.307.143.643-.207.793-.475.15-.267.167-.359.25-.538a2.46 2.46 0 00.375-.828zm5.204-14.031c-.36.29-.853.884-.77 1.379.004.062.023.12.057.166a.265.265 0 00.132.1c.402.087.477-.335.62-.605.094-.18.223-.338.378-.46.378-.33-.039-.89-.417-.58zm-5.173-.078c.074-.273-.022-.645-.34-.634a2.169 2.169 0 00-.439.085.515.515 0 00-.053-.184.121.121 0 00.08-.044.122.122 0 00.025-.043.134.134 0 00.009-.048.12.12 0 00-.032-.084.101.101 0 00-.081-.028.545.545 0 00-.192.04l-.064-.03a.542.542 0 00-.325.037.662.662 0 00-.272.222c-.085.135-.152.28-.201.432-.076.163-.108.476-.23.608a.547.547 0 00-.147.292.474.474 0 00.051.308.52.52 0 00.051.325.409.409 0 00.541.174.546.546 0 00.247-.23c.303-.022.6-.15.848-.367.248-.216.431-.508.524-.83zm-3.071-16.013c-.081-.275-.436-.202-.553.051l-.197.425a1.15 1.15 0 00-.144.31.356.356 0 00-.028.187.293.293 0 00.072.16.25.25 0 00.148.08.279.279 0 00.171-.03.913.913 0 00.284-.198 1.013 1.013 0 00.289-.643.93.93 0 00-.042-.342zm-6.616 13.931a.773.773 0 00.042-.446c.085-.304.272-.573.522-.75.219-.156.179-.611-.123-.503a1.76 1.76 0 00-.922.733l-.114-.053a.858.858 0 00-.362.172 1.009 1.009 0 00-.375.736.89.89 0 00.07.4.824.824 0 00.144.195c.009.1.04.194.093.273a.494.494 0 00.475.22.589.589 0 00.268-.106.863.863 0 00.27-.398.81.81 0 00.012-.473zm-.356 18.61a2.151 2.151 0 00-.555-.77 1.987 1.987 0 00-.815-.43.327.327 0 00-.142-.019.38.38 0 00-.144.044.452.452 0 00-.205.238.437.437 0 00-.006.31.338.338 0 00.199.2c.42.237.797.55 1.116.925.048.038.106.06.168.062a.33.33 0 00.182-.049.443.443 0 00.077-.053.453.453 0 00.131-.214.405.405 0 00-.006-.244zm24.592-35.191a1.308 1.308 0 00-.867-.277 1.562 1.562 0 00-.903.349.542.542 0 01-.118-.331.658.658 0 01.1-.362c.19-.408-.257-.793-.503-.392-.211.31-.323.679-.316 1.044.006.365.131.704.352.956a.98.98 0 00.262.201l-.03.066c-.014.21.022.413.106.592a.989.989 0 00.372.423.944.944 0 00.536.14 1.1 1.1 0 00.556-.18c.195-.094.37-.24.507-.421.138-.182.234-.395.279-.618.045-.224.039-.45-.02-.659a1.163 1.163 0 00-.313-.531zm7.07 10.29a.455.455 0 00.109-.257.388.388 0 00-.062-.257.61.61 0 00-.394-.255.686.686 0 00-.48.098.457.457 0 01-.119-.323c-.006-.38-.636-.295-.636.062-.006.191.03.376.105.54.075.164.186.303.325.404a.702.702 0 00.264.477.63.63 0 00.514.111.447.447 0 00.171-.076.514.514 0 00.206-.33.487.487 0 00-.003-.194zm7.069 1.453l-.097.005a4.746 4.746 0 00-.198-.38c-.073-.123-.322-.297-.491-.118-.17.179-.178.383-.071.602.058.22.138.43.239.626.071.072.16.121.258.142a.557.557 0 00.302-.021.748.748 0 00.279-.22.832.832 0 00.159-.33.311.311 0 00.015-.179.248.248 0 00-.085-.141.225.225 0 00-.152-.05.27.27 0 00-.158.064zm-5.111-9.421a.506.506 0 00-.259.162.566.566 0 00-.133.29 1.006 1.006 0 00-.007.295.492.492 0 00-.015.201 1.1 1.1 0 00.153.438c.16.295.403.521.697.65.057.024.121.03.185.015a.372.372 0 00.174-.096 1.38 1.38 0 00.319-.652 1.235 1.235 0 00-.062-.697.957.957 0 00-1.052-.606zm-10.76 4.819a.496.496 0 00-.072-.182.382.382 0 00-.178-.083 1.046 1.046 0 01-.186-.255c-.084-.137-.311.015-.242.166.056.09.097.189.124.295-.027.058-.007.126.021.198a.368.368 0 00.122.166.208.208 0 00.145.104.238.238 0 00.181-.047.3.3 0 00.11-.17.265.265 0 00-.025-.192zm3.343-1.573a.703.703 0 00-.162-.346.614.614 0 00-.31-.191.293.293 0 00-.14-.016.267.267 0 00-.137-.172.254.254 0 00-.187.025.33.33 0 00-.138.151.8.8 0 00-.036.458.64.64 0 00.219.364.578.578 0 00.389.128.696.696 0 00.407-.159.285.285 0 00.078-.11c.017-.043.023-.089.017-.133zm-11.29-8.211a.766.766 0 00-.673-.421l-.026-.092c-.226-.393-.702-.078-.804.292l-.07-.132c-.116-.292-.561-.062-.441.242.141.356.375.651.676.852.302.201.657.3 1.027.285a.246.246 0 00.127-.03.293.293 0 00.103-.092c.087-.137.141-.293.155-.452a.891.891 0 00-.074-.452zm-1.006.297c.074-.003.148-.012.221-.027.17-.03.44.006.422.196a1.392 1.392 0 01-.649-.192l.006.023zm16.028 17.875a.554.554 0 00-.223-.327.516.516 0 00-.378-.08.823.823 0 00-.331.182.948.948 0 00-.232.32.477.477 0 00-.096.186.44.44 0 00-.006.203.82.82 0 00.09.497c.08.145.205.252.355.305a.308.308 0 00.144.01.358.358 0 00.142-.057.424.424 0 00.179-.263 1.01 1.01 0 00.356-.976zm15.713 1.93a1.918 1.918 0 00-.439-1.28 1.594 1.594 0 00-1.138-.561.37.37 0 00-.195.045.457.457 0 00-.237.349.432.432 0 00.022.209c.076.421.272.794.561 1.068.289.274.657.436 1.055.465a.32.32 0 00.233-.071.398.398 0 00.138-.224zm-1.056-.737a.198.198 0 00.099-.083c.095.094.172.207.228.334a1.08 1.08 0 01-.338-.246l.011-.005zm-1.539 23.615c-1.44-2.83-3.147-5.476-4.62-8.272a117.979 117.979 0 01-4.1-8.664c-.127-.288-.572-.058-.449.238 1.095 2.62 2.238 5.302 3.527 7.953-.157.056-.307.175-.465.16a.354.354 0 00-.159.035.452.452 0 00-.248.431l-.242-.002c-.107-.05-.156.205-.03.214.116.013.235.008.354-.015l.143.067c.228.106.447-.14.502-.353.055-.212.175-.246.257-.367a53.598 53.598 0 005.251 8.783c.09.16.383-.02.279-.208zm-14.015-5.874a1.122 1.122 0 00-.606-.23 1.274 1.274 0 00-.662.138c-.04-.306-.536-.248-.597.09a1.13 1.13 0 00-.012.401c-.12.13-.207.29-.252.462a1.01 1.01 0 000 .512.241.241 0 00.247.15.284.284 0 00.148-.06.34.34 0 00.104-.136l.117-.253a.8.8 0 00.35.162 1.03 1.03 0 00.756-.171 1.3 1.3 0 00.504-.673.385.385 0 00.012-.22.304.304 0 00-.109-.172zm8.818 8.245l-.354-.66a.537.537 0 00-.118-.233c-2.352-4.513-4.884-8.9-7.31-13.367a4.382 4.382 0 001.007-1.16c.14-.302.089-.772-.283-.756a3.166 3.166 0 00-.972.223c-.191.03-.379.089-.56.177a148.68 148.68 0 01-1.569-2.999c-.111-.21-.447-.029-.343.178l1.543 3.056a1.997 1.997 0 00-.602.753 1.99 1.99 0 00-.185.945.44.44 0 00.165.293c.09.067.203.092.317.07a4.046 4.046 0 001.093-.485c2.24 4.4 4.548 8.784 7.159 12.87a.77.77 0 00-.232.032.402.402 0 00-.125-.217.354.354 0 00-.28-.053.451.451 0 00-.26.17 1.23 1.23 0 00-.199.402 1.174 1.174 0 00-.04.44c.014.144.057.28.124.401a.9.9 0 00.269.296.816.816 0 00.367.1c.13.005.263-.02.389-.074a1.09 1.09 0 00.344-.236c.1-.103.182-.225.24-.359l.206.324c.066.14.267.005.209-.131zm8.584-6.999a27.368 27.368 0 00-1.334-3.525l.092-.086c.692-.8-.066-2.143-.725-2.518-.05-.023-.106.06-.042.09.171.15.307.343.397.565.091.222.134.467.127.72a.788.788 0 01-.166.528c-1.292-2.683-2.896-5.251-4.319-7.706-.184-.314-.622.088-.445.398a149.677 149.677 0 013.43 6.232l.465.87c-.05.125-.074.258-.072.388.003.13.032.256.087.367a.697.697 0 00.552.401 29.064 29.064 0 001.843 3.383c.001.11.155-.017.11-.107zM162.58 70.148a82.892 82.892 0 00-1.141-2.294.899.899 0 00.03-.597.697.697 0 00-.347-.423c.043-.051.089-.1.137-.145.151-.138.016-.41-.163-.304-.103.068-.2.146-.29.233a204.037 204.037 0 00-2.774-5.065c.006-.042.008-.084.006-.126a.734.734 0 00-.109-.413.605.605 0 00-.313-.249 723.113 723.113 0 01-2.933-5.208c-2.632-4.771-5.996-9.535-7.259-15.069-.03-.123-.207-.096-.185.043 1.137 5.15 4.023 9.542 6.462 13.906a403.436 403.436 0 013.469 6.448c-.115.08-.222.174-.32.278a.909.909 0 00-.24.418.835.835 0 00.011.468c.01.026.026.05.046.067s.044.03.07.035a.165.165 0 00.08-.004.203.203 0 00.074-.042c.049-.106.166-.171.243-.264a.815.815 0 00.142.313.305.305 0 00.218.11.365.365 0 00.247-.083l.037-.081a180.37 180.37 0 002.647 4.738 1.106 1.106 0 00-.552.465 1.176 1.176 0 00-.17.718.294.294 0 00.069.153c.036.041.084.07.137.08.053.011.11.005.163-.017a.335.335 0 00.138-.11c.129.546.696.372 1.002.028.404.683.808 1.367 1.234 2.02.044.15.172.06.134-.027zm-12.466-4.718c-.039-.178-.283-.251-.377-.067l-.086-.04a.405.405 0 00-.171.026.475.475 0 00-.156.095.533.533 0 00-.17.333.631.631 0 00.041.298.528.528 0 00.168.226.43.43 0 00.345.05.552.552 0 00.308-.224.863.863 0 00.128-.344.777.777 0 00-.03-.354z"/><path d="M183.36 39.338c-2.854-4.536-5.964-8.894-8.865-13.403a4357.662 4357.662 0 01-4.475-6.975c-1.166-1.79-2.179-4.045-4.045-5.188a10.16 10.16 0 00-4.119-1.077c-1.322-.256-2.687-.402-3.923-.638l-8.169-1.517c-3.076-.574-6.165-1.252-9.289-1.778l-6.663-1.414c-.004-.16-.198-.19-.302-.06-.454-.052-1.029.346-.848.856l.158.5c-1.185 2.425-2.161 5.018-3.204 7.51-.468 1.121-.922 2.25-1.376 3.378l-2.002 4.318a3235.774 3235.774 0 00-7.304 15.864c-.863 1.861-1.668 3.73-1.366 5.605.336 2.14 1.704 3.944 2.683 5.727 2.404 4.328 4.848 8.625 7.277 12.935l2.06 3.663a30.765 30.765 0 001.767 3.21.813.813 0 00-.03.293.684.684 0 00.08.27.562.562 0 00.419.299.332.332 0 00.155-.027.39.39 0 00.136-.096c.48.509 1.019.949 1.607 1.31a10.6 10.6 0 003.057.426c2.522.178 4.968.39 7.423.675 5.003.594 9.954 1.392 14.773 2.476 1.189.264 2.352.545 3.54.828a4.5 4.5 0 002.302.165c.783-.249 1.476-.814 1.929-1.575a12.192 12.192 0 002.197-3.315 367.464 367.464 0 005.109-10.644 318.23 318.23 0 004.621-10.453c1.407-3.314 3.232-6.97 3.971-10.436.158-.054.306-.146.432-.269a1.319 1.319 0 00.399-.953 1.146 1.146 0 00-.115-.49zm-5.894 3.873a35.552 35.552 0 00-1.261-2.26l1.879.086-.618 2.174zm-2.12 7.12c-1.35-3.344-3.049-6.532-4.673-9.695l1.881.119a44.202 44.202 0 001.708 2.775 15.1 15.1 0 002.198 3.181 261.66 261.66 0 01-1.114 3.62zm1.301-4.287a27.932 27.932 0 00-1.789-2.674c-.57-.85-1.114-1.717-1.669-2.58l2.357.102c.536 1.072 1.065 2.16 1.686 3.162l-.585 1.99zM135.856 8.95c4.126 1.25 8.538 1.976 12.76 2.942l7.507 1.597c2.436.514 5.397.717 7.543 1.8 2.145 1.085 3.098 3.877 4.277 5.753 1.295 2.039 2.568 4.087 3.87 6.109 2.321 3.625 4.668 7.232 7.011 10.848-5.92.111-11.81-.012-17.621-.455a81.885 81.885 0 01-9.183-.995 12.638 12.638 0 01-2.131-.591.901.901 0 00.122-.521.735.735 0 00-.198-.457 99.058 99.058 0 01-10.023-14.763c-1.722-3.774-3.573-7.46-5.361-11.185l-.141-.352 1.568.27zm6.76 36.27c-1.309 2.637-2.987 5.151-4.153 7.834-2.066 4.774-3.642 9.727-5.335 14.595a49.424 49.424 0 00-3.131-5.23c-1.397-2.305-2.798-4.6-4.174-6.895l-3.953-6.752c-1.343-2.29-1.747-4.301-.637-7.238 2.117-5.594 4.312-11.172 6.439-16.77.502-1.325 1.006-2.638 1.501-3.966l1.707-3.85a85.155 85.155 0 001.764-4.141c.293-.727.626-1.445.855-2.182 2.226 6.417 5.148 12.46 8.707 18.011l1.566 3.702c.635 1.475 1.069 3.61 2.266 4.81-1.347 2.588-2.113 5.436-3.422 8.073zm28.59 15.816a120.267 120.267 0 01-6.494 12.134c-2.449.49-4.915.527-7.291.11-2.728-.501-5.391-1.18-8.138-1.641-2.747-.46-5.675-.866-8.571-1.118a74.367 74.367 0 00-4.367-.28l-1.226-.052c1.007-2.846 2.021-5.688 3.02-8.518.152-.326.243-.69.366-1.03.515 2.197 1.489 4.19 2.85 5.834.02.026.05.042.083.043a.129.129 0 00.092-.036.156.156 0 00.048-.095.131.131 0 00-.024-.097 22.647 22.647 0 01-2.868-6.19c.458-1.345.913-2.7 1.415-4.045 1.053 2.878 2.083 5.786 3.33 8.546.007.02.021.034.04.04a.07.07 0 00.057-.005.093.093 0 00.041-.047.088.088 0 00.001-.063c-.914-3.12-2.083-6.142-3.208-9.163a42.93 42.93 0 01.977-2.295c.942 2.48 1.987 4.889 3.1 7.3-.208.092-.423.22-.458.481a.428.428 0 00.008.164c.014.053.038.1.071.139a.31.31 0 00.27.107.295.295 0 00.153-.088c.005.04.007.08.005.121l-.118.253a.418.418 0 00.007.311.332.332 0 00.089.117.302.302 0 00.128.063.32.32 0 00.147-.007.376.376 0 00.138-.074.434.434 0 00.152-.282l.038-.081a42.72 42.72 0 004.024 7.162c.094.133.321-.02.245-.174-1.347-2.936-3.045-5.657-4.44-8.565a117.678 117.678 0 01-3.281-7.472c.477-1.029 1.026-2.044 1.568-3.082 2.685 7.315 6.054 14.71 10.563 20.767.074.104.207-.033.151-.138-3.85-6.844-7.598-13.57-10.496-21.043a122.441 122.441 0 001.906-3.718 1651.29 1651.29 0 002.81 5.885l-.011.193c-.009.412-.029.979.336 1.148.1.063.22.087.341.069a188.203 188.203 0 0010.004 18.454c.08.126.296-.022.227-.153-2.214-4.399-4.689-8.61-7.008-12.97-.964-1.815-1.863-3.62-2.809-5.457.139-.087.271-.189.393-.304.728-.654 1.263-1.824.507-2.591a.757.757 0 00-.507-.235c.169-.14.03-.383-.141-.353a1.58 1.58 0 00-.832.546 1.777 1.777 0 00-.387.961 632.568 632.568 0 01-2.77-5.598 24.652 24.652 0 002.337-6.91 21.57 21.57 0 003.144.614c2.291.413 4.615.683 6.961.808 2.004.245 4.017.454 6.037.647 1.304 3.104 2.736 6.119 4.228 9.082a65.42 65.42 0 004.582 8.204 133.256 133.256 0 01-1.545 3.667zm-22.272-10.793a1.77 1.77 0 01.193-.416.55.55 0 01.287-.146.446.446 0 01.494.283c.04.1.05.214.028.327a1.916 1.916 0 01-.224.67 2.822 2.822 0 01-.551.647c-.133.117-.233.259-.319.219l-.114-.222a3.142 3.142 0 01.143-1.133l.057-.123a.108.108 0 00.03-.065l-.024-.041zm24.1 6.533c-1.315-2.781-3.03-5.372-4.443-8.13a220.232 220.232 0 01-4.15-8.5c1.855.176 3.717.316 5.584.447 1.635 3.456 3.23 6.963 5.203 10.198a107.79 107.79 0 01-1.964 5.527c-.1.141-.165.3-.23.458z"/><path d="M162.606 61.8c-2.076-3.8-4.221-7.542-6.374-11.287-2.152-3.745-4.79-7.25-5.973-11.458-.051-.152-.27-.036-.23.122 1.103 4.042 3.658 7.538 5.647 11.019 2.235 3.922 4.467 7.833 6.783 11.694.063.128.173.02.147-.09zm4.422-4.744c-2.652-5.197-5.434-10.186-7.68-15.621-.093-.232-.447-.049-.347.186a83.727 83.727 0 007.89 15.56c.061.019.189-.051.137-.125z"/></g><defs><clipPath id="clip0"><path transform="rotate(-30 0 69.642)" fill="#fff" d="M0 69.642h83.284v81.197H0z"/></clipPath><clipPath id="clip1"><path transform="rotate(24.877 136.273 0)" fill="#fff" d="M136.273 0h60.345v67.212h-60.345z"/></clipPath></defs></svg>