<svg width="192" height="140" viewBox="0 0 192 140" fill="none" xmlns="http://www.w3.org/2000/svg">
<g clip-path="url(#clip0)">
<path d="M31.234 87.3928C31.1057 87.3382 30.9645 87.3216 30.827 87.345C30.6895 87.3683 30.5617 87.4306 30.4586 87.5245C30.3555 87.6184 30.2815 87.7399 30.2455 87.8746C30.2094 88.0092 30.2128 88.1515 30.2551 88.2843C30.5163 89.7149 31.8892 93.4408 33.8493 91.8573C34.1712 91.5762 34.3865 91.1927 34.4588 90.7715C34.531 90.3503 34.4559 89.917 34.2461 89.5446C33.7011 88.2528 32.4723 87.8201 31.234 87.3928ZM30.8475 89.3103C31.3747 90.3505 32.2426 91.1784 33.3064 91.6561C32.3096 92.1688 31.4382 90.5508 30.8475 89.3103Z" fill="#F7F3EF"/>
<path d="M46.6795 93.7753C46.4604 93.8556 46.2258 93.8843 45.9937 93.8594C45.7617 93.8345 45.5385 93.7566 45.3414 93.6316C45.1481 93.52 44.9876 93.3594 44.876 93.1661C44.7643 92.9728 44.7056 92.7535 44.7056 92.5302C44.7134 92.1743 44.1851 92.2157 44.1718 92.5623C44.1696 92.8833 44.253 93.199 44.4135 93.477C44.574 93.755 44.8058 93.9852 45.0849 94.1437C45.3422 94.3262 45.6468 94.4307 45.962 94.4446C46.2772 94.4585 46.5897 94.3813 46.8622 94.2221C46.9214 94.1979 46.9686 94.1511 46.9934 94.0921C47.0182 94.0331 47.0185 93.9666 46.9943 93.9074C46.97 93.8481 46.9233 93.8009 46.8643 93.7762C46.8052 93.7514 46.7388 93.7511 46.6795 93.7753Z" fill="#F7F3EF"/>
<path d="M39.4639 103.213C38.9226 103.362 38.9181 104.181 39.3578 104.529C39.4587 104.615 39.5774 104.678 39.7054 104.713C39.8333 104.748 39.9674 104.755 40.0981 104.732C40.2289 104.709 40.3529 104.658 40.4616 104.582C40.5702 104.505 40.6607 104.406 40.7266 104.291C40.77 104.205 40.7902 104.109 40.7853 104.013C40.7804 103.917 40.7505 103.824 40.6985 103.743C40.6663 103.617 40.6056 103.5 40.5212 103.402C40.4368 103.303 40.3308 103.225 40.2115 103.174C40.0923 103.123 39.9628 103.1 39.8332 103.106C39.7036 103.113 39.5772 103.149 39.4639 103.213Z" fill="#F7F3EF"/>
<path d="M53.5977 101.454C53.5803 101.414 53.5584 101.376 53.5325 101.341C53.4452 101.269 53.3369 101.227 53.2238 101.221C53.1106 101.216 52.9989 101.248 52.9054 101.312C52.8119 101.376 52.7417 101.468 52.7055 101.576C52.6692 101.683 52.6689 101.799 52.7045 101.907C52.8295 102.123 52.9466 102.696 53.1673 103.208C53.0576 103.504 53.0463 103.828 53.135 104.131C53.1663 104.22 53.2222 104.298 53.2961 104.357C53.3701 104.415 53.4591 104.452 53.5529 104.462C53.6468 104.472 53.7415 104.456 53.8263 104.414C53.9111 104.373 53.9824 104.308 54.032 104.228C54.1423 104.247 54.2556 104.23 54.3554 104.179C54.7602 103.945 54.6713 103.357 54.5147 103.02C54.3582 102.684 54.2756 102.606 54.156 102.399C54.0388 102.048 53.8485 101.726 53.5977 101.454Z" fill="#F7F3EF"/>
<path d="M43.1748 86.6615C43.1801 87.2358 43.3958 88.153 43.9847 88.3903C44.0527 88.4273 44.1296 88.4444 44.2068 88.4398C44.284 88.4352 44.3584 88.4089 44.4214 88.3641C44.8472 87.9928 44.4654 87.6359 44.2994 87.305C44.1886 87.0862 44.1307 86.8445 44.1304 86.5992C44.098 85.9778 43.1627 86.0535 43.1748 86.6615Z" fill="#F7F3EF"/>
<path d="M38.7985 92.1251C38.5736 91.8659 38.1024 91.7237 37.8505 92.07C37.7416 92.2347 37.6493 92.4099 37.5751 92.593C37.5005 92.5571 37.42 92.5355 37.3375 92.5293C37.3483 92.5124 37.3557 92.4934 37.3592 92.4736C37.3627 92.4538 37.3622 92.4335 37.3579 92.4139C37.3536 92.3943 37.3454 92.3757 37.3339 92.3592C37.3223 92.3427 37.3077 92.3287 37.2907 92.3179C37.2738 92.307 37.2548 92.2997 37.235 92.2962C37.2152 92.2927 37.1949 92.2931 37.1753 92.2974C37.1557 92.3018 37.1371 92.31 37.1206 92.3215C37.1041 92.333 37.0901 92.3477 37.0792 92.3646C37.0269 92.4342 36.9871 92.5124 36.9616 92.5957L36.8769 92.6446C36.7658 92.7433 36.6855 92.872 36.6457 93.0152C36.6059 93.1584 36.6083 93.31 36.6526 93.4519C36.7246 93.6309 36.8216 93.7989 36.9407 93.9508C37.0494 94.139 37.3511 94.379 37.3885 94.5959C37.4069 94.7305 37.4723 94.8543 37.5731 94.9454C37.6739 95.0365 37.8037 95.089 37.9394 95.0937C38.0451 95.1894 38.1806 95.2457 38.3229 95.2532C38.4653 95.2606 38.6059 95.2188 38.721 95.1346C38.8361 95.0505 38.9187 94.9292 38.9548 94.7913C38.9908 94.6533 38.9783 94.5072 38.9191 94.3774C39.147 94.0401 39.2585 93.6376 39.2367 93.231C39.215 92.8245 39.0611 92.4362 38.7985 92.1251Z" fill="#F7F3EF"/>
<path d="M19.423 84.8487C19.0666 84.7532 18.8488 85.1802 19.0173 85.4721L19.2999 85.9616C19.348 86.0916 19.4179 86.2125 19.5064 86.3193C19.5473 86.3866 19.6075 86.44 19.6792 86.4725C19.751 86.505 19.8308 86.5151 19.9084 86.5015C19.986 86.4879 20.0576 86.4513 20.114 86.3963C20.1704 86.3413 20.2089 86.2706 20.2244 86.1934C20.2629 86.0524 20.2726 85.9051 20.2528 85.7603C20.2331 85.6155 20.1843 85.4762 20.1095 85.3507C20.0347 85.2252 19.9354 85.116 19.8174 85.0298C19.6994 84.9435 19.5653 84.8819 19.423 84.8487Z" fill="#F7F3EF"/>
<path d="M28.5688 101.081C28.4652 100.923 28.3126 100.804 28.1345 100.742C27.8853 100.451 27.7581 100.075 27.7793 99.6919C27.798 99.3548 27.2858 99.0982 27.1487 99.4912C26.9692 99.9635 26.971 100.486 27.1539 100.957L27.0033 101.044C26.9241 101.198 26.8831 101.369 26.8838 101.543C26.8844 101.717 26.9267 101.888 27.007 102.042C27.0872 102.196 27.2033 102.328 27.3453 102.428C27.4873 102.528 27.6512 102.593 27.8233 102.616C27.9322 102.623 28.0414 102.614 28.1481 102.592C28.2608 102.648 28.3858 102.676 28.5118 102.672C28.6379 102.669 28.7611 102.634 28.8703 102.571C28.9795 102.508 29.0714 102.419 29.1375 102.311C29.2037 102.204 29.2422 102.082 29.2495 101.956C29.2459 101.756 29.1776 101.563 29.0548 101.405C28.9321 101.247 28.7616 101.134 28.5688 101.081Z" fill="#F7F3EF"/>
<path d="M47.828 113.721C47.4035 113.662 46.9713 113.691 46.5584 113.806C46.1456 113.922 45.7609 114.121 45.4284 114.391C45.3741 114.429 45.3275 114.476 45.2915 114.531C45.2555 114.586 45.2307 114.648 45.2186 114.713C45.194 114.843 45.2223 114.979 45.2974 115.088C45.3724 115.198 45.488 115.274 45.6187 115.298C45.7494 115.323 45.8845 115.294 45.9943 115.219C46.5927 114.927 47.2333 114.731 47.8928 114.638C47.9726 114.612 48.0436 114.564 48.0975 114.5C48.1513 114.435 48.1859 114.357 48.1972 114.274C48.2042 114.235 48.2068 114.196 48.2048 114.157C48.1977 114.053 48.1571 113.954 48.0892 113.876C48.0212 113.797 47.9295 113.743 47.828 113.721Z" fill="#F7F3EF"/>
<path d="M31.2662 64.3175C30.8598 64.4521 30.5063 64.7116 30.2561 65.0589C30.0058 65.4062 29.8716 65.8236 29.8726 66.2517C29.718 66.2708 29.5614 66.2383 29.4271 66.1591C29.2929 66.08 29.1886 65.9587 29.1305 65.8141C28.8587 65.3435 28.0831 65.5653 28.2999 66.0929C28.4501 66.5214 28.7454 66.8839 29.1348 67.1175C29.5241 67.3512 29.9829 67.4413 30.4317 67.3723C30.5814 67.3446 30.7261 67.2949 30.8612 67.2248C30.8612 67.2248 30.8612 67.2248 30.9046 67.3001C31.1129 67.4533 31.3579 67.5488 31.6149 67.5768C31.8719 67.6049 32.1318 67.5646 32.3682 67.4599C32.6046 67.3553 32.8091 67.1901 32.9611 66.9809C33.1132 66.7718 33.2072 66.5263 33.2338 66.2691C33.2961 65.9987 33.2883 65.7168 33.2111 65.4502C33.134 65.1837 32.9901 64.9412 32.7931 64.7457C32.5961 64.5503 32.3524 64.4084 32.0852 64.3335C31.818 64.2586 31.5361 64.2531 31.2662 64.3175Z" fill="#F7F3EF"/>
<path d="M47.9485 63.5597C47.9248 63.4461 47.8615 63.3445 47.7697 63.2733C47.678 63.2021 47.564 63.1658 47.448 63.171C47.226 63.1823 47.0151 63.2715 46.8523 63.4229C46.6895 63.5743 46.5852 63.7781 46.5578 63.9987C46.406 64.0279 46.2488 63.9972 46.1192 63.913C45.715 63.6695 45.2814 64.3967 45.6559 64.6324C45.8518 64.7645 46.0762 64.8482 46.3108 64.8764C46.5453 64.9047 46.7833 64.8767 47.0049 64.7949C47.2318 64.8985 47.49 64.9105 47.7255 64.8283C47.9611 64.7461 48.1557 64.5761 48.2689 64.3538C48.3061 64.2815 48.3274 64.2021 48.3311 64.1209C48.3349 64.0398 48.3211 63.9587 48.2907 63.8834C48.2603 63.808 48.2139 63.7401 48.1549 63.6842C48.0959 63.6284 48.0255 63.5859 47.9485 63.5597Z" fill="#F7F3EF"/>
<path d="M55.3453 56.9797L55.2689 57.0866C55.0827 57.0685 54.8966 57.0505 54.7065 57.0473C54.5164 57.0441 54.1261 57.1941 54.1732 57.4932C54.2204 57.7923 54.4287 57.9357 54.747 57.9653C55.0261 58.0486 55.3134 58.1015 55.6038 58.1232C55.7386 58.0949 55.8638 58.0324 55.9676 57.9417C56.0713 57.8511 56.1499 57.7354 56.1961 57.6056C56.2338 57.4604 56.2338 57.308 56.1962 57.1628C56.1585 57.0176 56.0843 56.8845 55.9807 56.776C55.9385 56.7139 55.8773 56.6671 55.8063 56.6426C55.7353 56.6182 55.6583 56.6173 55.5868 56.6402C55.5153 56.6632 55.4531 56.7086 55.4096 56.7698C55.366 56.831 55.3435 56.9047 55.3453 56.9797Z" fill="#F7F3EF"/>
<path d="M41.2016 56.2216C41.1455 56.3412 41.1298 56.4757 41.1569 56.605C41.1839 56.7343 41.2523 56.8512 41.3517 56.9382C41.4417 57.021 41.5444 57.0889 41.656 57.1391C41.7099 57.2034 41.7779 57.2543 41.8548 57.2879C42.0395 57.3706 42.2395 57.4134 42.4419 57.4133C42.8844 57.4363 43.3237 57.3269 43.7038 57.099C43.7766 57.0536 43.8352 56.9885 43.8728 56.9113C43.9103 56.8341 43.9254 56.7479 43.9162 56.6625C43.858 56.369 43.7115 56.1002 43.4963 55.8923C43.281 55.6844 43.0074 55.5473 42.712 55.4993C42.4166 55.4513 42.1136 55.4948 41.8437 55.6239C41.5737 55.753 41.3496 55.9616 41.2016 56.2216Z" fill="#F7F3EF"/>
<path d="M37.3325 70.8686C37.2524 70.8381 37.1672 70.8233 37.0815 70.8252C36.9939 70.8522 36.9134 70.8987 36.8462 70.9611C36.7077 70.9906 36.5657 71.0008 36.4243 70.9913C36.21 70.9896 36.1818 71.3321 36.3977 71.3581C36.5377 71.3579 36.6769 71.3791 36.8105 71.421C36.8485 71.4869 36.9376 71.5108 37.0361 71.5292C37.1285 71.5466 37.2238 71.5392 37.3124 71.5078C37.3972 71.5104 37.4795 71.4793 37.5413 71.4213C37.6032 71.3632 37.6394 71.283 37.642 71.1982C37.6447 71.1135 37.6136 71.0311 37.5555 70.9693C37.4975 70.9075 37.4173 70.8713 37.3325 70.8686Z" fill="#F7F3EF"/>
<path d="M38.4542 66.2674C38.296 66.2053 38.1241 66.1864 37.9562 66.2128C37.7883 66.2391 37.6305 66.3097 37.4989 66.4173C37.445 66.4535 37.3997 66.5011 37.3661 66.5568C37.2673 66.5283 37.1613 66.54 37.071 66.5891C37.0035 66.6431 36.9579 66.7197 36.9424 66.8048C36.9269 66.8898 36.9427 66.9776 36.9867 67.0519C37.0966 67.2106 37.2545 67.3299 37.4372 67.3922C37.6199 67.4545 37.8177 67.4566 38.0017 67.3981C38.1856 67.3397 38.346 67.2238 38.4592 67.0674C38.5724 66.9111 38.6325 66.7226 38.6306 66.5296C38.628 66.4739 38.6102 66.42 38.5791 66.3738C38.548 66.3276 38.5048 66.2908 38.4542 66.2674Z" fill="#F7F3EF"/>
<path d="M20.4535 72.8947C20.2637 72.8831 20.0738 72.917 19.8997 72.9935C19.7256 73.07 19.5723 73.1869 19.4524 73.3346L19.3336 73.3028C18.7336 73.2852 18.6693 74.0001 18.9729 74.3519L18.7774 74.3393C18.3739 74.271 18.2459 74.8972 18.6642 74.9695C19.1555 75.0536 19.6605 74.9981 20.1218 74.8095C20.5831 74.6208 20.9822 74.3064 21.2737 73.9022C21.3114 73.858 21.337 73.8049 21.3481 73.7479C21.3591 73.6909 21.3553 73.632 21.337 73.577C21.2652 73.394 21.1451 73.2339 20.9895 73.1138C20.834 72.9936 20.6487 72.9179 20.4535 72.8947ZM19.9307 74.163C19.9883 74.0825 20.0402 73.998 20.0859 73.9102C20.1956 73.7088 20.4573 73.4447 20.6413 73.5895C20.4383 73.8293 20.1857 74.0222 19.901 74.155L19.9307 74.163Z" fill="#F7F3EF"/>
<path d="M52.0209 68.8523C51.8471 68.7987 51.6601 68.8064 51.4913 68.8741C51.3225 68.9419 51.1821 69.0656 51.0936 69.2245C51.0281 69.3732 50.9995 69.5355 51.01 69.6976C51.0206 69.8598 51.0701 70.0169 51.1544 70.1559C51.1726 70.2394 51.212 70.3168 51.2687 70.3807C51.3254 70.4447 51.3975 70.493 51.4782 70.5212C51.6463 70.6615 51.8558 70.7428 52.0746 70.7525C52.2933 70.7623 52.5093 70.6999 52.6892 70.5751C52.7427 70.5357 52.7873 70.4853 52.8198 70.4273C52.8523 70.3693 52.8721 70.305 52.8778 70.2387C52.8835 70.1725 52.875 70.1058 52.8529 70.043C52.8307 69.9803 52.7955 69.9231 52.7494 69.8751C52.7487 69.6502 52.6783 69.431 52.5478 69.2479C52.4173 69.0647 52.2332 68.9265 52.0209 68.8523Z" fill="#F7F3EF"/>
<path d="M67.0939 53.3721C66.5882 53.0439 65.9806 52.9104 65.3839 52.9964C64.7871 53.0824 64.2419 53.382 63.8494 53.8396C63.7911 53.9077 63.7517 53.9899 63.7352 54.078C63.7186 54.1661 63.7256 54.257 63.7554 54.3416C63.7851 54.4262 63.8366 54.5015 63.9046 54.5598C63.9727 54.6182 64.0549 54.6576 64.143 54.6742C64.6491 54.8704 65.2031 54.9072 65.7307 54.7798C66.2583 54.6524 66.7344 54.3668 67.0952 53.9613C67.1714 53.8821 67.2139 53.7764 67.2136 53.6665C67.2134 53.5565 67.1705 53.451 67.0939 53.3721ZM65.4425 54.0118C65.4603 53.9595 65.4587 53.9025 65.4377 53.8514C65.6147 53.8123 65.7972 53.8046 65.9769 53.8288C65.8101 53.9252 65.628 53.9922 65.4385 54.0267L65.4425 54.0118Z" fill="#F7F3EF"/>
<path d="M88.9783 71.2116C84.8094 70.8824 80.6114 70.959 76.4509 70.6877C72.2903 70.4163 68.0939 69.9524 63.9427 69.3493C63.5353 69.2958 63.4073 69.922 63.8201 69.9849C67.4817 70.5443 71.2498 71.0924 75.1047 71.4649C75.0342 71.6688 75.0339 71.9074 74.8877 72.0672C74.8421 72.1233 74.8095 72.1889 74.7923 72.2591C74.7752 72.3294 74.7738 72.4026 74.7883 72.4734C74.8028 72.5443 74.8328 72.611 74.8762 72.6689C74.9196 72.7268 74.9753 72.7743 75.0393 72.808L74.8355 73.0637C74.6943 73.1453 74.9217 73.3654 75.0358 73.2368C75.1461 73.1213 75.2399 72.9911 75.3145 72.8499L75.5028 72.7412C75.804 72.5673 75.7267 72.1726 75.5492 71.9739C75.3717 71.7751 75.4358 71.6252 75.377 71.4583C79.8916 71.93 84.4396 71.9928 88.9654 71.6458C89.2095 71.6555 89.2615 71.2239 88.9783 71.2116Z" fill="#F7F3EF"/>
<path d="M71.1717 82.2831C70.8852 82.3813 70.6289 82.5517 70.4275 82.7779C70.2261 83.0041 70.0865 83.2785 70.0221 83.5744C69.6668 83.4156 69.316 83.982 69.6207 84.2705C69.7387 84.3884 69.8783 84.4825 70.0318 84.5478C70.0685 84.7606 70.1644 84.9589 70.3084 85.1198C70.4524 85.2808 70.6387 85.3981 70.8461 85.4583C70.9159 85.4683 70.9872 85.4582 71.0514 85.4291C71.1157 85.3999 71.1702 85.353 71.2087 85.2939C71.2471 85.2347 71.2678 85.1658 71.2684 85.0953C71.2689 85.0247 71.2492 84.9555 71.2117 84.8958L71.0432 84.604C71.2142 84.5491 71.3714 84.4583 71.5045 84.3377C71.7631 84.098 71.9228 83.7703 71.9521 83.4189C71.9815 83.0676 71.8784 82.7179 71.6632 82.4386C71.6086 82.3637 71.5314 82.3082 71.443 82.2802C71.3546 82.2522 71.2595 82.2532 71.1717 82.2831Z" fill="#F7F3EF"/>
<path d="M87.1549 78.3142L86.1677 78.2565C86.0573 78.2204 85.94 78.2107 85.8251 78.2284C79.1304 77.7634 72.418 77.5722 65.7103 77.2151C65.705 76.5834 65.5748 75.959 65.3273 75.3778C65.1262 75.0295 64.5899 74.7744 64.2978 75.1815C64.0483 75.5448 63.8555 75.9439 63.726 76.3651C63.5981 76.5876 63.5042 76.828 63.4474 77.0782C61.9666 76.9918 60.4804 76.8959 58.9928 76.7758C58.6799 76.7557 58.5917 77.2333 58.8952 77.2589L63.3878 77.6272C63.3785 78.0259 63.4791 78.4194 63.6785 78.7647C63.8778 79.1101 64.1684 79.3939 64.5182 79.5852C64.6593 79.6466 64.8184 79.6523 64.9635 79.6011C65.1086 79.5499 65.229 79.4457 65.3003 79.3094C65.5063 78.8371 65.6404 78.3366 65.6982 77.8246C72.1815 78.3363 78.7034 78.763 85.1651 78.6722C85.0995 78.7533 85.0458 78.8435 85.0059 78.9399C84.8987 78.9036 84.7832 78.9004 84.6742 78.9306C84.5485 78.9795 84.4456 79.0734 84.3854 79.194C84.3251 79.3147 84.3118 79.4534 84.3481 79.5832C84.3999 79.7584 84.4876 79.9208 84.6057 80.0602C84.7237 80.1996 84.8695 80.3128 85.0337 80.3928C85.1979 80.4727 85.377 80.5175 85.5595 80.5245C85.7421 80.5314 85.924 80.5002 86.0938 80.4329C86.2516 80.3541 86.3913 80.2433 86.504 80.1075C86.6166 79.9718 86.6998 79.8141 86.7483 79.6445C86.7967 79.4749 86.8093 79.297 86.7853 79.1223C86.7613 78.9475 86.7013 78.7797 86.6089 78.6294L87.1199 78.6231C87.3208 78.6451 87.3464 78.3416 87.1549 78.3142Z" fill="#F7F3EF"/>
<path d="M86.9278 64.551C85.346 64.1427 83.7384 63.8422 82.116 63.6516L82.1018 63.4966C81.836 62.2318 79.7957 62.1546 78.854 62.6104C78.7881 62.6485 78.8291 62.7629 78.9138 62.714C79.2145 62.631 79.5296 62.6137 79.8376 62.6633C80.1456 62.7128 80.4393 62.8281 80.6988 63.0013C80.8006 63.0554 80.8902 63.1301 80.9618 63.2205C81.0334 63.3109 81.0856 63.4151 81.115 63.5266C77.225 63.1367 73.1938 63.1547 69.4332 63.0542C68.9504 63.0442 69.009 63.776 69.4823 63.7914C72.6186 63.8759 75.7485 64.0143 78.8788 64.2403L80.1788 64.3181C80.2686 64.4533 80.3874 64.5667 80.5267 64.65C80.6659 64.7332 80.8221 64.7843 80.9836 64.7993C81.1452 64.8144 81.3081 64.7931 81.4603 64.737C81.6126 64.6809 81.7503 64.5914 81.8635 64.4751C83.5514 64.6701 85.2499 64.7585 86.9489 64.7397C87.0651 64.8106 87.06 64.5625 86.9278 64.551Z" fill="#F7F3EF"/>
<path d="M95.5509 87.8129C94.4286 87.6952 93.3078 87.6018 92.1925 87.5178C92.0515 87.3059 91.8365 87.1542 91.5896 87.0925C91.3427 87.0307 91.0817 87.0634 90.8576 87.184C90.8396 87.1045 90.8267 87.0239 90.8188 86.9428C90.7988 86.6908 90.4022 86.6561 90.3643 86.9165C90.3506 87.0704 90.3518 87.2253 90.3677 87.3789C87.8349 87.2096 85.2863 87.0996 82.7431 86.999C82.7036 86.9651 82.6611 86.935 82.6159 86.9092C82.4606 86.8055 82.2774 86.7514 82.0907 86.7539C81.9039 86.7564 81.7223 86.8155 81.5698 86.9233C78.9295 86.8286 76.2892 86.7338 73.6623 86.6188C66.464 86.2814 58.6651 86.73 51.8017 84.4295C51.6478 84.3803 51.5287 84.5871 51.6935 84.6551C58.048 86.8353 65.0594 86.653 71.6697 86.9283C74.8832 87.0812 78.1427 87.2702 81.3255 87.4785C81.315 87.6537 81.3239 87.8296 81.3521 88.0029C81.3757 88.2002 81.4595 88.3854 81.5922 88.5334C81.7248 88.6814 81.8997 88.785 82.0933 88.8301C82.1291 88.8367 82.1659 88.835 82.2009 88.8253C82.236 88.8155 82.2683 88.7978 82.2955 88.7736C82.3227 88.7495 82.3441 88.7194 82.3579 88.6857C82.3717 88.6521 82.3776 88.6157 82.3753 88.5794C82.3046 88.457 82.3336 88.2897 82.3006 88.1456C82.4439 88.1952 82.596 88.2143 82.7471 88.2016C82.8625 88.1861 82.9683 88.129 83.0446 88.041C83.1209 87.953 83.1625 87.8403 83.1615 87.7238C83.1615 87.7238 83.1235 87.6579 83.1072 87.6297C85.4915 87.7593 87.8891 87.8686 90.2839 87.9294C90.1849 88.2217 90.1956 88.54 90.314 88.8249C90.4323 89.1099 90.6502 89.3421 90.9271 89.4783C90.9955 89.5082 91.0709 89.518 91.1446 89.5064C91.2183 89.4948 91.2872 89.4624 91.3431 89.413C91.399 89.3636 91.4396 89.2992 91.4601 89.2275C91.4806 89.1557 91.4802 89.0796 91.4589 89.0081C92.1394 89.2303 92.4274 88.5117 92.3212 87.9581C93.3742 87.9777 94.4273 87.9972 95.468 87.9737C95.661 88.0254 95.6737 87.8299 95.5509 87.8129Z" fill="#F7F3EF"/>
<path d="M80.2425 97.9941C80.0238 97.9196 79.7443 98.1312 79.8599 98.3531L79.7469 98.4184C79.6952 98.4763 79.6558 98.5441 79.6309 98.6177C79.6061 98.6912 79.5964 98.7691 79.6024 98.8465C79.6084 98.9239 79.63 98.9993 79.6659 99.0682C79.7018 99.1371 79.7513 99.198 79.8113 99.2472C79.9122 99.326 80.0312 99.3784 80.1574 99.3997C80.2837 99.421 80.4133 99.4106 80.5345 99.3694C80.6857 99.3047 80.8069 99.1852 80.8737 99.0348C80.9406 98.8845 80.9481 98.7145 80.8949 98.5589C80.8403 98.4187 80.7524 98.2941 80.6387 98.1957C80.525 98.0973 80.389 98.0281 80.2425 97.9941Z" fill="#F7F3EF"/>
<path d="M80.4287 45.3595C73.2927 45.4129 66.1315 45.8573 58.9851 45.9795C55.2975 46.0417 51.6162 46.1004 47.9411 46.1554C45.0912 46.2193 41.8819 45.8129 39.1317 47.0494C37.3985 47.9826 35.8548 49.2314 34.5802 50.7315C33.2132 51.9725 31.9263 53.3305 30.652 54.493L22.2761 62.2031C19.1193 65.1051 15.8423 67.951 12.6953 70.9352L5.67822 77.1076C5.50654 77.0059 5.31323 77.1928 5.36399 77.3895C4.9332 77.839 4.87373 78.7143 5.55928 78.8582L6.21658 79.0184C7.78115 81.8805 9.6944 84.6291 11.4472 87.3825C12.2374 88.6207 13.0464 89.848 13.8555 91.0753L16.7305 96.0551C20.2487 102.149 23.7838 108.228 27.336 114.294C28.5752 116.44 29.8694 118.53 32.0913 119.443C34.6185 120.494 37.6508 120.225 40.3371 120.356C46.88 120.645 53.4241 120.87 59.9695 121.12L65.5293 121.337C67.1369 121.505 68.7528 121.582 70.3691 121.568C70.4467 121.661 70.543 121.738 70.6518 121.793C70.7607 121.848 70.8797 121.88 71.0014 121.886C71.1231 121.892 71.2448 121.873 71.3588 121.83C71.4728 121.787 71.5766 121.721 71.6637 121.636C71.7109 121.583 71.7455 121.521 71.765 121.453C71.7846 121.385 71.7885 121.314 71.7766 121.244C72.7101 121.068 73.6197 120.783 74.4868 120.395C75.6079 119.536 76.6119 118.535 77.4734 117.416C79.7539 114.844 82.0066 112.376 84.3444 109.947C89.1221 105.005 94.0719 100.252 99.2119 95.828C100.476 94.7344 101.737 93.6798 103.021 92.5996C103.89 91.9917 104.604 91.1882 105.106 90.2538C105.494 89.2552 105.475 88.1442 105.052 87.1598C104.785 85.5609 104.222 84.0257 103.392 82.6331C101.15 78.4303 98.8355 74.2772 96.4498 70.1739C94.1454 66.1826 91.763 62.2447 89.3027 58.3601C86.9876 54.6763 84.6614 50.321 81.633 47.2498C81.707 47.0462 81.7332 46.8283 81.7096 46.6129C81.6859 46.3976 81.6131 46.1906 81.4967 46.0079C81.3803 45.8252 81.2234 45.6717 81.0383 45.5592C80.8531 45.4468 80.6445 45.3785 80.4287 45.3595ZM79.6052 54.1941C78.4695 54.0967 77.3234 54.0681 76.1827 54.0489L77.8337 52.1042L79.6052 54.1941ZM85.3257 61.1458C80.6925 60.3817 75.9319 60.0928 71.26 59.7402L72.9462 57.8128C74.3958 57.867 75.8519 57.8673 77.2808 57.8204C79.0067 57.9449 80.7413 57.8621 82.4475 57.5736C83.4357 58.7853 84.3874 59.9554 85.3257 61.1458ZM81.9027 56.9343C80.469 56.9056 79.0349 56.9543 77.6065 57.0802C76.2409 57.128 74.8779 57.1368 73.5109 57.1604L75.5749 54.7136C77.1462 54.8482 78.7284 55.0016 80.2964 55L81.9027 56.9343ZM9.05864 75.9843C13.7966 72.4079 18.2229 68.1831 22.7439 64.3178L30.654 57.3661C33.2164 55.1085 35.8887 52.0846 38.8087 50.5117C41.7287 48.9388 45.4548 49.7622 48.4047 49.741C51.6214 49.7037 54.8302 49.6962 58.036 49.6401C63.7724 49.5539 69.5113 49.4286 75.2556 49.3127C70.4574 55.6977 65.4385 61.8963 60.1487 67.7995C57.4146 70.9889 54.5208 74.0379 51.4784 76.9347C50.7314 77.6227 49.9323 78.2519 49.0883 78.8167C48.998 78.6125 48.8406 78.4454 48.6422 78.3431C48.4439 78.2407 48.2164 78.2092 47.9977 78.2539C40.0941 79.2417 32.1213 79.5623 24.1638 79.2121C18.768 78.5621 13.3595 78.1075 7.9601 77.5599L7.47302 77.4771L9.05864 75.9843ZM52.7835 92.6736C54.4665 95.8061 55.7155 99.2521 57.5666 102.263C60.868 107.611 64.7634 112.554 68.4732 117.566C65.7792 117.373 63.0761 117.337 60.3779 117.458C56.7969 117.43 53.2212 117.41 49.6684 117.366L39.2914 117.131C35.7708 117.055 33.3211 116.16 31.1568 113.042C27.0357 107.1 22.9979 101.084 18.8808 95.1273C17.9052 93.7201 16.9444 92.3168 15.9593 90.915L13.3311 86.5584C12.418 84.9769 11.4297 83.4389 10.4442 81.9495C9.92432 81.1577 9.44606 80.3293 8.86172 79.5998C17.4532 81.4548 26.2285 82.3217 35.0169 82.1839L40.2056 82.9535C42.2832 83.2476 44.8868 84.1919 47.1416 83.706C48.7425 86.8483 51.1004 89.541 52.7835 92.6736ZM93.1386 72.6128C95.9131 77.42 98.3709 82.4032 100.496 87.5306C98.9778 90.4648 96.9698 93.1183 94.5585 95.3769C91.767 97.955 88.8425 100.346 86.0782 102.971C83.3139 105.597 80.4562 108.451 77.7875 111.373C76.4431 112.827 75.1365 114.318 73.8679 115.845L72.795 117.117C70.6409 114.169 68.4961 111.215 66.3529 108.285C66.1355 107.909 65.8279 107.571 65.5729 107.217C68.3101 108.115 71.2133 108.39 74.0704 108.022C74.1147 108.018 74.1556 107.996 74.1842 107.962C74.2127 107.928 74.2265 107.884 74.2226 107.84C74.2186 107.795 74.1972 107.754 74.1631 107.726C74.129 107.697 74.0849 107.683 74.0406 107.687C71.0448 107.784 68.0511 107.44 65.1552 106.667C64.1231 105.292 63.0761 103.914 62.0801 102.493C65.9786 103.267 69.8895 104.084 73.8245 104.574C73.8506 104.579 73.8776 104.573 73.8995 104.558C73.9214 104.543 73.9365 104.52 73.9414 104.494C73.9463 104.468 73.9406 104.441 73.9256 104.419C73.9106 104.397 73.8875 104.382 73.8613 104.377C69.8226 103.295 65.6775 102.55 61.5686 101.759C61.0121 100.926 60.469 100.072 59.969 99.2062C63.3572 99.8355 66.7555 100.308 70.2129 100.71C70.1373 100.992 70.0928 101.306 70.3391 101.515C70.3909 101.561 70.452 101.595 70.5181 101.615C70.5843 101.635 70.6539 101.64 70.7223 101.63C70.7906 101.62 70.8561 101.596 70.9142 101.559C70.9722 101.521 71.0215 101.472 71.0586 101.414C71.0938 101.346 71.1062 101.268 71.0941 101.192C71.14 101.213 71.1839 101.238 71.2252 101.267C71.2795 101.362 71.3339 101.456 71.3937 101.559C71.4323 101.613 71.4818 101.659 71.5389 101.693C71.5961 101.727 71.6597 101.748 71.7257 101.756C71.7917 101.764 71.8587 101.758 71.9223 101.739C71.9859 101.72 72.0447 101.687 72.0951 101.644C72.1444 101.599 72.1835 101.543 72.2096 101.482C72.2358 101.42 72.2484 101.354 72.2467 101.287C72.245 101.22 72.229 101.155 72.1997 101.094C72.1705 101.034 72.1287 100.981 72.0771 100.939L72.0228 100.845C75.6241 101.319 79.2613 101.463 82.8888 101.273C83.1072 101.26 83.1353 100.918 82.91 100.897C78.7067 100.4 74.4369 100.417 70.2231 99.9883C66.6694 99.6302 63.1443 99.1552 59.648 98.5631C58.9632 97.377 58.3522 96.1232 57.7116 94.8614C67.6271 96.818 78.1936 98.0977 88.3031 97.2815C88.4729 97.2713 88.4395 97.0395 88.2831 97.0294C77.8958 96.6254 67.716 96.1894 57.4572 94.3556C56.705 92.857 55.9473 91.349 55.1331 89.8736C57.9266 90.1686 60.7835 90.4646 63.6498 90.7552L63.8432 90.8946C64.2692 91.1758 64.848 91.5696 65.3281 91.2924C65.4778 91.2272 65.6025 91.1156 65.6839 90.974C74.8831 91.9638 84.1284 92.4622 93.3807 92.4672C93.5802 92.465 93.6044 92.1372 93.4088 92.1246C86.9484 91.5871 80.4681 91.4502 73.9625 91.0517C71.2544 90.8831 68.6109 90.6522 65.896 90.4499C65.9197 90.2444 65.9219 90.037 65.9026 89.8311C65.8204 88.6234 65.0338 87.2827 63.6006 87.583C63.341 87.6335 63.1058 87.7693 62.9323 87.9689C62.9257 87.6966 62.5549 87.6847 62.4452 87.8861C62.2658 88.2764 62.2246 88.7162 62.3284 89.1331C62.4322 89.5499 62.6748 89.919 63.0163 90.1796C60.2882 89.9473 57.561 89.7019 54.8346 89.4435C53.4712 86.8119 51.6718 84.4303 49.5127 82.3998C50.6617 81.49 51.7495 80.5056 52.7691 79.4528C55.1054 77.282 57.3183 74.9819 59.3974 72.5635C61.3192 70.5879 63.21 68.58 65.0898 66.5533C69.4341 67.2081 73.7909 67.6673 78.1419 68.0295C82.2669 68.4859 86.4182 68.6598 90.5669 68.5499C91.4506 69.8847 92.302 71.2508 93.1386 72.6128ZM63.306 89.2467C63.1902 89.1014 63.0967 88.9396 63.0289 88.7666C63.0153 88.6269 63.0449 88.4864 63.1138 88.3641C63.1827 88.2418 63.2876 88.1436 63.4141 88.0829C63.5407 88.0222 63.6828 88.0018 63.8214 88.0245C63.9599 88.0473 64.0881 88.112 64.1886 88.21C64.407 88.3978 64.5835 88.6295 64.7066 88.8899C64.837 89.2131 64.9119 89.556 64.9282 89.9042C64.9413 90.1225 65.0069 90.3231 64.8939 90.3883L64.5662 90.3642C64.1513 90.1404 63.7866 89.8342 63.4944 89.4643L63.4129 89.3231C63.4084 89.2934 63.3928 89.2665 63.3694 89.2478L63.306 89.2467ZM90.1796 67.8573C86.1653 67.4262 82.0187 67.5485 77.9483 67.2376C73.8779 66.9268 69.6819 66.5504 65.5717 66.0618C67.2958 64.2003 68.9889 62.3065 70.6765 60.4034C75.666 60.9367 80.6747 61.5467 85.7119 61.5755C87.1479 63.4324 88.5423 65.3258 89.8886 67.3098C89.9542 67.5104 90.0669 67.6838 90.1796 67.8573Z" fill="#F7F3EF"/>
<path d="M86.7991 82.285C81.084 81.9949 75.3707 81.8168 69.648 81.6441C63.9253 81.4713 58.0533 81.9748 52.6496 80.4632C52.4472 80.4169 52.3879 80.7273 52.5863 80.7884C57.75 82.2754 63.5442 81.8546 68.8529 82.0278C74.8306 82.229 80.7933 82.4263 86.7731 82.5008C86.9592 82.5188 86.9382 82.3302 86.7991 82.285Z" fill="#F7F3EF"/>
<path d="M85.4859 74.4454C77.8239 73.8486 70.271 73.5276 62.6954 72.3412C62.3756 72.2874 62.274 72.7853 62.6032 72.8337C70.1561 74.2122 77.8284 74.8285 85.5044 74.6732C85.5743 74.6203 85.6072 74.4382 85.4859 74.4454Z" fill="#F7F3EF"/>
</g>
<g clip-path="url(#clip1)">
<path d="M137.429 28.8117C137.413 28.7025 137.368 28.6039 137.299 28.5276C137.229 28.4514 137.14 28.4006 137.04 28.3815C136.94 28.3623 136.834 28.3755 136.735 28.4195C136.636 28.4635 136.547 28.5364 136.481 28.6297C135.682 29.5091 133.876 32.2423 135.649 32.7071C135.953 32.773 136.28 32.7197 136.574 32.5562C136.868 32.3927 137.112 32.1289 137.263 31.8093C137.862 30.8175 137.649 29.8163 137.429 28.8117ZM136.068 29.5194C135.621 30.3745 135.442 31.3417 135.561 32.2598C134.844 31.8778 135.52 30.5148 136.068 29.5194Z" fill="#F7F3EF"/>
<path d="M139.51 41.8663C139.373 41.7662 139.262 41.6305 139.186 41.4697C139.11 41.3089 139.071 41.1274 139.072 40.9391C139.066 40.7599 139.104 40.5773 139.181 40.4097C139.259 40.242 139.374 40.0952 139.515 39.9841C139.742 39.8119 139.507 39.4947 139.284 39.6587C139.08 39.8171 138.914 40.0277 138.803 40.2688C138.691 40.5098 138.637 40.7726 138.648 41.0301C138.634 41.2855 138.689 41.5323 138.805 41.7408C138.921 41.9493 139.093 42.1106 139.301 42.2056C139.339 42.2314 139.388 42.2383 139.434 42.2248C139.481 42.2112 139.523 42.1783 139.551 42.1333C139.579 42.0884 139.59 42.0349 139.583 41.9849C139.575 41.9348 139.549 41.8922 139.51 41.8663Z" fill="#F7F3EF"/>
<path d="M130.711 41.9519C130.403 41.6801 129.885 42.0848 129.839 42.5395C129.825 42.6469 129.832 42.7541 129.861 42.8534C129.889 42.9526 129.938 43.0416 130.004 43.1138C130.07 43.1861 130.152 43.2399 130.243 43.2715C130.333 43.303 130.432 43.3115 130.53 43.2963C130.602 43.2812 130.67 43.2464 130.729 43.1954C130.787 43.1443 130.834 43.0788 130.865 43.0051C130.931 42.9219 130.981 42.825 131.01 42.722C131.039 42.6189 131.046 42.5123 131.031 42.4106C131.016 42.3088 130.979 42.2145 130.924 42.135C130.869 42.0555 130.796 41.9928 130.711 41.9519Z" fill="#F7F3EF"/>
<path d="M137.405 50.1138C137.423 50.0828 137.439 50.0499 137.45 50.0158C137.461 49.9241 137.445 49.834 137.404 49.759C137.362 49.6841 137.298 49.6285 137.221 49.6005C137.144 49.5725 137.057 49.5738 136.976 49.604C136.894 49.6343 136.82 49.6919 136.767 49.7682C136.679 49.9559 136.365 50.3159 136.129 50.7123C135.899 50.7896 135.691 50.9434 135.535 51.1509C135.491 51.2153 135.464 51.29 135.456 51.3665C135.449 51.443 135.461 51.5181 135.491 51.5831C135.522 51.6482 135.57 51.7005 135.63 51.7341C135.689 51.7677 135.758 51.7811 135.828 51.7729C135.86 51.8528 135.915 51.9168 135.987 51.9555C136.294 52.0979 136.63 51.7479 136.78 51.4803C136.93 51.2127 136.947 51.1211 137.03 50.9415C137.205 50.6918 137.333 50.4097 137.405 50.1138Z" fill="#F7F3EF"/>
<path d="M142.609 36.0829C142.249 36.3723 141.756 36.9669 141.839 37.4617C141.843 37.5236 141.862 37.5813 141.896 37.6284C141.929 37.6754 141.975 37.7099 142.028 37.7279C142.43 37.8152 142.505 37.3934 142.648 37.1225C142.742 36.9427 142.871 36.7853 143.026 36.663C143.404 36.3328 142.987 35.7724 142.609 36.0829Z" fill="#F7F3EF"/>
<path d="M137.436 36.0051C137.51 35.7322 137.414 35.3601 137.096 35.3715C136.949 35.3839 136.802 35.4121 136.657 35.4558C136.651 35.3903 136.632 35.328 136.604 35.2722C136.619 35.2706 136.633 35.2659 136.647 35.2583C136.661 35.2507 136.674 35.2403 136.684 35.2277C136.695 35.2152 136.704 35.2007 136.709 35.1851C136.715 35.1696 136.718 35.1532 136.718 35.137C136.719 35.1207 136.716 35.105 136.71 35.0906C136.704 35.0761 136.696 35.0634 136.686 35.053C136.675 35.0426 136.663 35.0348 136.649 35.03C136.635 35.0252 136.62 35.0235 136.605 35.025C136.541 35.0262 136.476 35.0397 136.413 35.0649L136.349 35.0351C136.243 35.0131 136.13 35.0259 136.024 35.0717C135.918 35.1176 135.823 35.1947 135.752 35.2936C135.667 35.4288 135.6 35.5745 135.551 35.7263C135.475 35.8895 135.443 36.202 135.321 36.3339C135.244 36.4127 135.192 36.5161 135.174 36.6259C135.156 36.7357 135.175 36.8449 135.225 36.934C135.207 37.0492 135.225 37.1639 135.276 37.2587C135.328 37.3534 135.41 37.4225 135.508 37.4542C135.607 37.4859 135.716 37.4783 135.817 37.4327C135.918 37.3871 136.006 37.3062 136.064 37.2038C136.367 37.1815 136.664 37.0524 136.912 36.8361C137.16 36.6197 137.343 36.328 137.436 36.0051Z" fill="#F7F3EF"/>
<path d="M134.365 19.9921C134.284 19.7167 133.929 19.79 133.812 20.043L133.615 20.4675C133.552 20.5631 133.503 20.6679 133.471 20.7777C133.445 20.8374 133.435 20.9025 133.443 20.9645C133.451 21.0266 133.476 21.0827 133.515 21.1255C133.554 21.1684 133.606 21.1959 133.663 21.2046C133.72 21.2133 133.779 21.2027 133.834 21.1742C133.938 21.1286 134.035 21.0614 134.118 20.9767C134.202 20.892 134.27 20.7914 134.32 20.6811C134.369 20.5707 134.399 20.4528 134.407 20.3345C134.414 20.2161 134.4 20.0996 134.365 19.9921Z" fill="#F7F3EF"/>
<path d="M127.749 33.9235C127.807 33.7787 127.822 33.6218 127.791 33.4769C127.876 33.1725 128.063 32.9039 128.313 32.7269C128.532 32.571 128.492 32.1157 128.19 32.2237C127.821 32.3441 127.493 32.6053 127.268 32.9568L127.154 32.9038C127.025 32.9301 126.901 32.9892 126.792 33.0761C126.683 33.1629 126.592 33.2751 126.526 33.4031C126.461 33.5311 126.423 33.6713 126.417 33.8119C126.41 33.9525 126.434 34.0893 126.487 34.2111C126.526 34.284 126.574 34.3498 126.631 34.4067C126.64 34.5069 126.671 34.6007 126.724 34.6795C126.776 34.7583 126.846 34.8197 126.929 34.8581C127.012 34.8965 127.105 34.9108 127.199 34.8997C127.292 34.8886 127.385 34.8523 127.467 34.7943C127.591 34.6925 127.686 34.5526 127.737 34.3956C127.788 34.2386 127.792 34.0729 127.749 33.9235Z" fill="#F7F3EF"/>
<path d="M127.393 52.5331C127.263 52.2321 127.074 51.9702 126.838 51.7636C126.602 51.557 126.325 51.4102 126.023 51.3323C125.978 51.316 125.93 51.3099 125.881 51.3144C125.832 51.3188 125.783 51.3336 125.737 51.3581C125.645 51.4075 125.571 51.4929 125.532 51.5955C125.492 51.6982 125.49 51.8097 125.526 51.9055C125.563 52.0013 125.634 52.0736 125.725 52.1064C126.145 52.3435 126.522 52.6554 126.841 53.0309C126.889 53.0691 126.947 53.0906 127.009 53.093C127.071 53.0953 127.134 53.0785 127.191 53.0443C127.218 53.0295 127.244 53.0115 127.268 52.9907C127.33 52.9346 127.376 52.8596 127.399 52.777C127.422 52.6945 127.42 52.6088 127.393 52.5331Z" fill="#F7F3EF"/>
<path d="M151.985 17.3418C151.739 17.149 151.436 17.0521 151.118 17.0651C150.8 17.078 150.484 17.2001 150.215 17.4138C150.142 17.3245 150.1 17.2081 150.097 17.0829C150.094 16.9576 150.129 16.8306 150.197 16.7214C150.387 16.3133 149.94 15.9278 149.694 16.3291C149.483 16.6385 149.371 17.0079 149.378 17.3732C149.384 17.7385 149.509 18.0768 149.73 18.3294C149.806 18.4112 149.895 18.479 149.992 18.5305C149.992 18.5305 149.992 18.5305 149.962 18.5958C149.948 18.8053 149.984 19.0095 150.068 19.1878C150.152 19.3661 150.28 19.5122 150.44 19.6113C150.599 19.7103 150.784 19.7589 150.976 19.7519C151.168 19.745 151.36 19.6829 151.532 19.5718C151.727 19.477 151.902 19.3316 152.039 19.1496C152.177 18.9675 152.273 18.7548 152.318 18.5315C152.363 18.3081 152.357 18.0817 152.298 17.8735C152.24 17.6653 152.132 17.4823 151.985 17.3418Z" fill="#F7F3EF"/>
<path d="M159.055 27.6319C159.117 27.5602 159.156 27.4691 159.164 27.375C159.173 27.2809 159.151 27.1899 159.102 27.1183C159.007 26.9819 158.867 26.8915 158.708 26.8628C158.548 26.834 158.378 26.8689 158.228 26.9612C158.15 26.8787 158.107 26.7629 158.109 26.6381C158.103 26.2583 157.473 26.3432 157.473 26.7C157.467 26.8911 157.503 27.0763 157.578 27.2403C157.653 27.4044 157.764 27.5426 157.903 27.6436C157.928 27.8403 158.022 28.0113 158.167 28.121C158.312 28.2307 158.496 28.2705 158.681 28.2322C158.741 28.22 158.799 28.194 158.852 28.156C158.905 28.118 158.95 28.0688 158.986 28.0118C159.021 27.9549 159.046 27.8914 159.058 27.8259C159.07 27.7603 159.069 27.6942 159.055 27.6319Z" fill="#F7F3EF"/>
<path d="M166.124 29.0853L166.027 29.0897C165.965 28.9617 165.903 28.8337 165.829 28.7105C165.756 28.5873 165.507 28.4125 165.338 28.5916C165.168 28.7707 165.16 28.9752 165.267 29.1935C165.325 29.4134 165.405 29.6235 165.506 29.8201C165.577 29.8921 165.666 29.9411 165.764 29.9623C165.862 29.9834 165.966 29.9761 166.066 29.941C166.173 29.8929 166.269 29.817 166.345 29.7206C166.422 29.6242 166.476 29.5105 166.504 29.3902C166.526 29.3323 166.532 29.2699 166.519 29.2123C166.506 29.1547 166.477 29.105 166.434 29.0707C166.391 29.0364 166.338 29.0193 166.282 29.0219C166.226 29.0245 166.171 29.0468 166.124 29.0853Z" fill="#F7F3EF"/>
<path d="M161.013 19.6636C160.916 19.6873 160.825 19.7442 160.754 19.8259C160.683 19.9076 160.636 20.0096 160.621 20.1164C160.604 20.2152 160.602 20.3147 160.614 20.411C160.595 20.4775 160.59 20.5464 160.599 20.6123C160.62 20.7715 160.672 20.9207 160.752 21.0501C160.912 21.3446 161.155 21.571 161.449 21.7005C161.506 21.7245 161.57 21.7296 161.634 21.7151C161.697 21.7007 161.758 21.6674 161.808 21.619C161.97 21.4357 162.081 21.2081 162.127 20.967C162.173 20.7258 162.152 20.4825 162.065 20.2698C161.979 20.057 161.832 19.8849 161.643 19.7765C161.455 19.6682 161.235 19.6288 161.013 19.6636Z" fill="#F7F3EF"/>
<path d="M150.253 24.483C150.241 24.4166 150.216 24.3548 150.181 24.301C150.13 24.2583 150.069 24.23 150.003 24.2181C149.929 24.1442 149.867 24.0585 149.817 23.9634C149.733 23.8255 149.506 23.9781 149.575 24.129C149.631 24.2184 149.672 24.318 149.699 24.4243C149.672 24.4815 149.692 24.5503 149.72 24.6225C149.745 24.6902 149.788 24.7475 149.842 24.7885C149.874 24.844 149.926 24.8812 149.987 24.8918C150.048 24.9024 150.113 24.8856 150.168 24.8451C150.222 24.8046 150.262 24.7437 150.278 24.6758C150.294 24.6079 150.285 24.5386 150.253 24.483Z" fill="#F7F3EF"/>
<path d="M153.596 22.9091C153.573 22.7771 153.517 22.6578 153.434 22.5635C153.351 22.4693 153.244 22.4035 153.124 22.3729C153.08 22.3565 153.032 22.3512 152.984 22.3574C152.963 22.2801 152.914 22.2181 152.847 22.1848C152.786 22.1686 152.72 22.1775 152.66 22.21C152.601 22.2424 152.552 22.2962 152.522 22.3614C152.465 22.5107 152.453 22.6711 152.486 22.8189C152.519 22.9667 152.595 23.0943 152.705 23.1828C152.814 23.2714 152.951 23.3162 153.094 23.3107C153.237 23.3053 153.38 23.2498 153.501 23.1525C153.535 23.1231 153.562 23.0849 153.579 23.042C153.596 22.9991 153.602 22.9531 153.596 22.9091Z" fill="#F7F3EF"/>
<path d="M142.306 14.6988C142.239 14.5716 142.142 14.4671 142.025 14.3938C141.908 14.3206 141.774 14.2808 141.633 14.2777L141.607 14.1858C141.381 13.7934 140.905 14.1083 140.803 14.4776L140.733 14.3463C140.617 14.0543 140.172 14.2843 140.292 14.5877C140.433 14.9438 140.667 15.2391 140.968 15.4401C141.27 15.6411 141.625 15.7398 141.995 15.7249C142.038 15.727 142.082 15.7169 142.122 15.6956C142.162 15.6744 142.198 15.6426 142.225 15.6034C142.312 15.4664 142.366 15.3099 142.38 15.1506C142.394 14.9913 142.369 14.8351 142.306 14.6988ZM141.3 14.996C141.374 14.9928 141.448 14.9839 141.521 14.9694C141.691 14.9392 141.961 14.9751 141.943 15.1649C141.711 15.1544 141.49 15.089 141.294 14.973L141.3 14.996Z" fill="#F7F3EF"/>
<path d="M157.328 32.8715C157.293 32.7337 157.215 32.6179 157.105 32.5437C156.996 32.4695 156.862 32.4413 156.727 32.4639C156.608 32.4961 156.494 32.5586 156.396 32.6461C156.298 32.7336 156.219 32.8435 156.164 32.9665C156.119 33.0198 156.086 33.0835 156.068 33.1516C156.05 33.2197 156.048 33.2899 156.062 33.3555C156.04 33.5329 156.072 33.7073 156.152 33.8521C156.232 33.9968 156.357 34.1038 156.507 34.1567C156.553 34.1713 156.602 34.1747 156.651 34.1666C156.701 34.1585 156.749 34.1392 156.793 34.1098C156.837 34.0805 156.876 34.0418 156.907 33.9965C156.937 33.9511 156.96 33.9 156.972 33.8467C157.113 33.7342 157.223 33.5801 157.287 33.4054C157.351 33.2307 157.365 33.0442 157.328 32.8715Z" fill="#F7F3EF"/>
<path d="M173.041 34.8015C173.048 34.3147 172.892 33.8597 172.602 33.5209C172.312 33.1822 171.908 32.9827 171.464 32.9596C171.398 32.9562 171.331 32.9719 171.269 33.0053C171.207 33.0386 171.152 33.0883 171.11 33.1495C171.069 33.2106 171.042 33.281 171.032 33.3536C171.022 33.4261 171.03 33.4984 171.054 33.5629C171.13 33.9843 171.326 34.3568 171.615 34.6308C171.904 34.9047 172.272 35.0669 172.67 35.0957C172.75 35.105 172.833 35.0795 172.903 35.0246C172.972 34.9698 173.021 34.8898 173.041 34.8015ZM171.985 34.064C172.025 34.0494 172.06 34.02 172.084 33.9811C172.179 34.0748 172.256 34.1877 172.312 34.3146C172.185 34.256 172.071 34.1729 171.974 34.0689L171.985 34.064Z" fill="#F7F3EF"/>
<path d="M170.446 57.6789C169.006 54.8491 167.299 52.2029 165.826 49.4073C164.353 46.6117 162.987 43.6973 161.726 40.7425C161.599 40.4554 161.154 40.6853 161.277 40.9806C162.372 43.6006 163.515 46.283 164.804 48.9335C164.647 48.9899 164.497 49.1086 164.339 49.0946C164.285 49.0934 164.231 49.1053 164.18 49.1293C164.129 49.1533 164.082 49.1888 164.043 49.2334C164.004 49.2779 163.974 49.3304 163.955 49.3869C163.935 49.4435 163.927 49.5028 163.932 49.5605L163.69 49.5575C163.583 49.5078 163.534 49.7629 163.66 49.7717C163.776 49.7848 163.895 49.7799 164.014 49.7573L164.157 49.8236C164.385 49.9296 164.604 49.6837 164.659 49.4712C164.714 49.2587 164.834 49.225 164.916 49.1044C166.402 52.2261 168.16 55.1656 170.167 57.8869C170.257 58.0478 170.55 57.8661 170.446 57.6789Z" fill="#F7F3EF"/>
<path d="M156.431 51.8054C156.256 51.6711 156.048 51.5921 155.825 51.5759C155.603 51.5598 155.375 51.6071 155.163 51.7133C155.123 51.407 154.627 51.4648 154.566 51.8033C154.538 51.9374 154.534 52.0735 154.554 52.2042C154.434 52.3337 154.347 52.4937 154.302 52.6659C154.258 52.8381 154.258 53.0157 154.302 53.1783C154.323 53.228 154.357 53.2685 154.401 53.295C154.445 53.3216 154.496 53.3331 154.549 53.3283C154.601 53.3234 154.653 53.3023 154.697 53.2675C154.742 53.2328 154.778 53.1857 154.801 53.132L154.918 52.8789C155.02 52.9609 155.139 53.0162 155.268 53.0413C155.521 53.0873 155.791 53.0262 156.024 52.87C156.257 52.7138 156.437 52.4738 156.528 52.1971C156.553 52.1249 156.558 52.0479 156.54 51.9774C156.523 51.907 156.485 51.8467 156.431 51.8054Z" fill="#F7F3EF"/>
<path d="M165.249 60.0495L164.895 59.3895C164.874 59.3009 164.834 59.2211 164.777 59.1565C162.425 54.644 159.893 50.2565 157.467 45.7895C157.863 45.4715 158.205 45.0773 158.474 44.6297C158.614 44.3277 158.563 43.8576 158.191 43.8736C157.863 43.8949 157.536 43.9704 157.219 44.0973C157.028 44.1264 156.84 44.186 156.659 44.2743C156.129 43.2844 155.602 42.2863 155.09 41.2752C154.979 41.0651 154.643 41.2465 154.747 41.4533L156.29 44.5095C156.035 44.7021 155.827 44.9624 155.688 45.2618C155.549 45.5613 155.485 45.8884 155.503 46.2074C155.52 46.3282 155.579 46.4327 155.668 46.5C155.758 46.5674 155.871 46.5924 155.985 46.5702C156.364 46.4667 156.733 46.3032 157.078 46.0852C159.318 50.4858 161.626 54.8687 164.237 58.9554C164.16 58.9538 164.082 58.9644 164.005 58.9869C163.986 58.9003 163.942 58.8248 163.88 58.7701C163.8 58.7142 163.7 58.6951 163.6 58.7166C163.5 58.7382 163.407 58.7988 163.34 58.8866C163.25 59.007 163.182 59.1439 163.141 59.2888C163.1 59.4337 163.086 59.5833 163.101 59.7281C163.115 59.873 163.158 60.0098 163.225 60.13C163.293 60.2501 163.385 60.3509 163.494 60.426C163.606 60.4877 163.731 60.5218 163.861 60.5263C163.991 60.5307 164.124 60.5054 164.25 60.4519C164.376 60.3984 164.493 60.318 164.594 60.2156C164.694 60.1132 164.776 59.9912 164.834 59.8573L165.04 60.1809C165.106 60.3204 165.307 60.1857 165.249 60.0495Z" fill="#F7F3EF"/>
<path d="M173.833 53.051C173.466 51.8362 173.02 50.6586 172.499 49.5262L172.591 49.44C173.283 48.6401 172.525 47.2971 171.866 46.9219C171.816 46.8987 171.76 46.9818 171.824 47.0117C171.995 47.1626 172.131 47.3555 172.221 47.5771C172.312 47.7988 172.355 48.044 172.348 48.2962C172.355 48.3882 172.343 48.4827 172.314 48.5735C172.286 48.6643 172.24 48.7495 172.182 48.8239C170.89 46.1423 169.286 43.5735 167.863 41.1187C167.679 40.805 167.241 41.2069 167.418 41.5172C168.604 43.5648 169.754 45.6351 170.848 47.7493L171.313 48.6194C171.263 48.7441 171.239 48.8766 171.241 49.0071C171.244 49.1376 171.273 49.2628 171.328 49.3736C171.382 49.4844 171.46 49.578 171.555 49.6474C171.651 49.7168 171.762 49.7604 171.88 49.7748C172.424 50.9512 173.039 52.0813 173.723 53.1584C173.724 53.2681 173.878 53.1413 173.833 53.051Z" fill="#F7F3EF"/>
<path d="M162.58 70.1482C162.211 69.372 161.827 68.6088 161.439 67.8537C161.517 67.6581 161.528 67.4451 161.469 67.2565C161.41 67.0678 161.287 66.9171 161.122 66.8339C161.165 66.7828 161.211 66.7344 161.259 66.689C161.41 66.5507 161.275 66.2799 161.096 66.3853C160.993 66.4532 160.896 66.531 160.806 66.6177C159.911 64.9138 158.974 63.2293 158.032 61.553C158.038 61.5109 158.04 61.4687 158.038 61.427C158.042 61.276 158.004 61.1319 157.929 61.0137C157.853 60.8956 157.744 60.8088 157.616 60.765C156.632 59.0295 155.649 57.294 154.683 55.5569C152.051 50.7859 148.687 46.0223 147.424 40.488C147.394 40.3651 147.217 40.3919 147.239 40.5312C148.376 45.6802 151.262 50.0729 153.701 54.4369C154.874 56.5679 156.043 58.7463 157.17 60.8853C157.055 60.9658 156.948 61.0591 156.85 61.1634C156.735 61.2767 156.651 61.4226 156.61 61.5811C156.569 61.7396 156.573 61.903 156.621 62.0492C156.631 62.0754 156.647 62.0981 156.667 62.1157C156.687 62.1332 156.711 62.1451 156.737 62.1505C156.763 62.1558 156.79 62.1545 156.817 62.1466C156.843 62.1386 156.869 62.1243 156.891 62.1048C156.94 61.9986 157.057 61.9338 157.134 61.841C157.16 61.9573 157.208 62.064 157.276 62.1544C157.331 62.2204 157.409 62.2596 157.494 62.2646C157.58 62.2696 157.667 62.2401 157.741 62.1815C157.741 62.1815 157.767 62.1243 157.778 62.0999C158.639 63.689 159.517 65.2766 160.425 66.8382C160.202 66.9205 160.006 67.0858 159.873 67.3034C159.74 67.521 159.68 67.776 159.703 68.0209C159.712 68.0795 159.735 68.1326 159.772 68.1739C159.808 68.2153 159.856 68.2432 159.909 68.2543C159.962 68.2654 160.019 68.2593 160.072 68.2367C160.126 68.2142 160.173 68.176 160.21 68.1268C160.339 68.6725 160.906 68.4989 161.212 68.1553C161.616 68.8384 162.02 69.5215 162.446 70.1753C162.49 70.3245 162.618 70.2352 162.58 70.1482Z" fill="#F7F3EF"/>
<path d="M150.114 65.4291C150.075 65.2521 149.831 65.1787 149.737 65.3631L149.651 65.3234C149.594 65.3192 149.536 65.3277 149.48 65.3485C149.423 65.3692 149.371 65.4018 149.324 65.4442C149.278 65.4866 149.239 65.5379 149.21 65.5952C149.18 65.6524 149.161 65.7144 149.154 65.7773C149.144 65.8811 149.158 65.9832 149.195 66.0746C149.231 66.1659 149.289 66.2436 149.363 66.3006C149.463 66.365 149.587 66.383 149.708 66.3509C149.829 66.3188 149.939 66.239 150.016 66.1274C150.083 66.0228 150.127 65.9044 150.144 65.7827C150.161 65.661 150.151 65.5396 150.114 65.4291Z" fill="#F7F3EF"/>
<path d="M183.36 39.3383C180.506 34.8017 177.396 30.4438 174.495 25.9348C172.999 23.6078 171.507 21.283 170.02 18.9603C168.854 17.1698 167.841 14.9153 165.975 13.7723C164.702 13.1287 163.305 12.7635 161.856 12.6954C160.534 12.4393 159.169 12.2926 157.933 12.0566L149.764 10.5398C146.688 9.96625 143.599 9.28787 140.475 8.76151L133.812 7.34804C133.808 7.18762 133.614 7.15708 133.51 7.28744C133.056 7.23583 132.481 7.63364 132.662 8.14367L132.82 8.64376C131.635 11.0694 130.659 13.6615 129.616 16.1534C129.148 17.2753 128.694 18.4038 128.24 19.5322L126.238 23.8503C123.788 29.1344 121.353 34.4223 118.934 39.7142C118.071 41.5753 117.266 43.4433 117.568 45.319C117.904 47.4585 119.272 49.2632 120.251 51.0462C122.655 55.374 125.099 59.6709 127.528 63.9809L129.588 67.6439C130.117 68.7558 130.707 69.8274 131.355 70.8536C131.327 70.95 131.317 71.0498 131.325 71.1467C131.333 71.2436 131.361 71.3354 131.405 71.4165C131.449 71.4975 131.509 71.5659 131.581 71.6174C131.653 71.6688 131.736 71.7022 131.824 71.7155C131.876 71.7195 131.929 71.7105 131.979 71.6893C132.03 71.668 132.076 71.635 132.115 71.5927C132.595 72.1019 133.134 72.5416 133.722 72.9028C134.706 73.1921 135.734 73.3353 136.779 73.329C139.301 73.5066 141.747 73.7183 144.202 74.0036C149.205 74.5976 154.156 75.396 158.975 76.4801C160.164 76.7437 161.327 77.0251 162.515 77.3083C163.242 77.5613 164.03 77.6178 164.817 77.4733C165.6 77.2242 166.293 76.6585 166.746 75.898C167.648 74.931 168.393 73.8066 168.943 72.5826C170.706 69.0559 172.409 65.5082 174.052 61.9393C175.657 58.4783 177.197 54.994 178.673 51.4864C180.08 48.1716 181.905 44.5154 182.644 41.0496C182.802 40.9955 182.95 40.9038 183.076 40.7814C183.202 40.6591 183.304 40.5094 183.373 40.344C183.442 40.1786 183.477 40.0019 183.475 39.8275C183.472 39.6531 183.433 39.4857 183.36 39.3383ZM177.466 43.2109C177.079 42.4362 176.644 41.689 176.205 40.9501L178.084 41.0374L177.466 43.2109ZM175.346 50.3304C173.996 46.9873 172.297 43.7993 170.673 40.6362L172.554 40.7547C173.093 41.7086 173.668 42.6399 174.262 43.5303C174.866 44.6959 175.604 45.7638 176.46 46.7112C176.087 47.9465 175.725 49.1377 175.346 50.3304ZM176.647 46.0445C176.099 45.1134 175.501 44.2206 174.858 43.3699C174.288 42.5205 173.744 41.6533 173.189 40.7909L175.546 40.8924C176.082 41.9642 176.611 43.0523 177.232 44.0541L176.647 46.0445ZM135.856 8.9503C139.982 10.1991 144.394 10.9258 148.616 11.892L156.123 13.4885C158.559 14.0029 161.52 14.2059 163.666 15.2899C165.811 16.3738 166.764 19.1665 167.943 21.0422C169.238 23.0806 170.511 25.1287 171.813 27.1508C174.134 30.776 176.481 34.3833 178.824 37.9988C172.904 38.11 167.014 37.9873 161.203 37.5442C158.113 37.3841 155.048 37.0519 152.02 36.5489C151.291 36.4138 150.579 36.2161 149.889 35.9577C149.982 35.7983 150.025 35.6144 150.011 35.4366C149.997 35.2588 149.927 35.0977 149.813 34.9801C146.067 30.418 142.714 25.4794 139.79 20.2166C138.068 16.4425 136.217 12.7578 134.429 9.03241L134.288 8.67973L135.856 8.9503ZM142.616 45.2206C141.307 47.8567 139.629 50.3713 138.463 53.054C136.397 57.8284 134.821 62.7807 133.128 67.6488C132.185 65.8297 131.14 64.0832 129.997 62.4184C128.6 60.1143 127.199 57.8183 125.823 55.5242L121.87 48.7719C120.527 46.4828 120.123 44.4706 121.233 41.5339C123.35 35.9398 125.545 30.3624 127.672 24.7634C128.174 23.4388 128.678 22.1256 129.173 20.7977L130.88 16.9477C131.516 15.5764 132.094 14.1785 132.644 12.8067C132.937 12.08 133.27 11.3616 133.499 10.6247C135.725 17.0422 138.647 23.0853 142.206 28.6364L143.772 32.3376C144.407 33.8126 144.841 35.9477 146.038 37.1475C144.691 39.7359 143.925 42.5845 142.616 45.2206ZM171.206 61.0364C169.273 65.2044 167.104 69.2574 164.712 73.1697C162.263 73.6598 159.797 73.6971 157.421 73.2798C154.693 72.7786 152.03 72.0993 149.283 71.6388C146.536 71.1784 143.608 70.7726 140.712 70.5208C139.264 70.3851 137.809 70.292 136.345 70.2413L135.119 70.1887C136.126 67.343 137.14 64.5007 138.139 61.6714C138.291 61.3449 138.382 60.9804 138.505 60.6406C139.02 62.838 139.994 64.8314 141.355 66.4751C141.375 66.5015 141.405 66.517 141.438 66.5182C141.47 66.5195 141.504 66.5064 141.53 66.4818C141.556 66.4572 141.574 66.4231 141.578 66.3871C141.583 66.351 141.574 66.316 141.554 66.2896C140.309 64.4222 139.343 62.3367 138.686 60.0998C139.144 58.7553 139.599 57.3994 140.101 56.0551C141.154 58.9334 142.184 61.8411 143.431 64.6011C143.438 64.6202 143.452 64.6346 143.471 64.6412C143.489 64.6477 143.509 64.6458 143.528 64.636C143.546 64.6261 143.561 64.609 143.569 64.5885C143.577 64.568 143.577 64.5457 143.57 64.5265C142.656 61.4051 141.487 58.3837 140.362 55.3626C140.667 54.5917 140.99 53.8193 141.339 53.0683C142.281 55.5483 143.326 57.9569 144.439 60.3675C144.231 60.4596 144.016 60.5877 143.981 60.8494C143.973 60.9052 143.976 60.9612 143.989 61.0133C144.003 61.0655 144.027 61.1126 144.06 61.1515C144.093 61.1905 144.135 61.2202 144.181 61.2387C144.228 61.2572 144.278 61.2641 144.33 61.2589C144.386 61.2474 144.44 61.2168 144.483 61.1713C144.488 61.2111 144.49 61.2517 144.488 61.2925C144.45 61.3741 144.412 61.4557 144.37 61.5455C144.351 61.5972 144.342 61.6515 144.344 61.7049C144.345 61.7584 144.356 61.8098 144.377 61.856C144.398 61.9022 144.429 61.942 144.466 61.973C144.503 62.0041 144.547 62.0256 144.594 62.0362C144.642 62.0452 144.692 62.0427 144.741 62.0288C144.791 62.0149 144.837 61.9899 144.879 61.9555C144.92 61.9212 144.955 61.8782 144.982 61.8296C145.008 61.7809 145.025 61.7277 145.031 61.6736L145.069 61.592C146.193 64.1312 147.54 66.5285 149.093 68.7538C149.187 68.8869 149.414 68.7343 149.338 68.58C147.991 65.6444 146.293 62.9229 144.898 60.0148C143.719 57.5641 142.625 55.0734 141.617 52.5428C142.094 51.5143 142.643 50.4993 143.185 49.4613C145.87 56.7762 149.239 64.1701 153.748 70.2282C153.822 70.3317 153.955 70.1949 153.899 70.0899C150.049 63.2465 146.301 56.5199 143.403 49.0468C144.05 47.8196 144.701 46.5842 145.309 45.3289C146.227 47.2621 147.17 49.2363 148.119 51.2139L148.108 51.4069C148.099 51.8193 148.079 52.3856 148.444 52.5545C148.544 52.6178 148.664 52.642 148.785 52.6235C151.797 58.9988 155.136 65.1589 158.789 71.0778C158.869 71.2042 159.085 71.0565 159.016 70.9252C156.802 66.5264 154.327 62.3144 152.008 57.9559C151.044 56.1403 150.145 54.3349 149.199 52.4982C149.338 52.411 149.47 52.3091 149.592 52.1943C150.32 51.5403 150.855 50.3697 150.099 49.6028C149.965 49.4619 149.786 49.3791 149.592 49.3676C149.761 49.2278 149.622 48.9847 149.451 49.0149C149.134 49.0945 148.841 49.2872 148.619 49.5611C148.398 49.8351 148.261 50.174 148.232 50.5221C147.3 48.662 146.377 46.7959 145.462 44.9238C146.582 42.7415 147.372 40.405 147.799 38.0133C148.826 38.295 149.876 38.5004 150.943 38.6281C153.234 39.0411 155.558 39.3108 157.904 39.436C159.908 39.6812 161.921 39.8904 163.941 40.0833C165.245 43.1873 166.677 46.2019 168.169 49.1646C169.511 52.0295 171.042 54.7707 172.751 57.3688C172.259 58.5986 171.734 59.8232 171.206 61.0364ZM148.934 50.2429C148.98 50.0964 149.045 49.9561 149.127 49.8266C149.21 49.7483 149.31 49.6973 149.414 49.6805C149.519 49.6636 149.622 49.6818 149.71 49.7325C149.799 49.7831 149.868 49.8639 149.908 49.9638C149.948 50.0637 149.958 50.1779 149.936 50.291C149.904 50.5242 149.828 50.7524 149.712 50.9608C149.56 51.2051 149.374 51.4238 149.161 51.6075C149.028 51.7247 148.928 51.8665 148.842 51.8267L148.728 51.6051C148.705 51.2284 148.754 50.8427 148.871 50.4717L148.928 50.3492C148.945 50.3316 148.956 50.3082 148.958 50.2839L148.934 50.2429ZM173.034 56.7763C171.719 53.9947 170.004 51.404 168.591 48.6464C167.179 45.8888 165.758 43.0183 164.441 40.1466C166.296 40.3222 168.158 40.4619 170.025 40.5933C171.66 44.0494 173.255 47.556 175.228 50.7914C174.625 52.6343 173.982 54.4688 173.264 56.3176C173.164 56.4594 173.099 56.6179 173.034 56.7763Z" fill="#F7F3EF"/>
<path d="M162.606 61.7992C160.53 58.0003 158.385 54.2582 156.232 50.5128C154.08 46.7675 151.442 43.2633 150.259 39.0552C150.208 38.9027 149.989 39.0193 150.029 39.1766C151.132 43.219 153.687 46.7146 155.676 50.1955C157.911 54.1181 160.143 58.0292 162.459 61.8901C162.522 62.0181 162.632 61.9107 162.606 61.7992Z" fill="#F7F3EF"/>
<path d="M167.028 57.0559C164.376 51.8593 161.594 46.8697 159.348 41.4347C159.255 41.2034 158.901 41.3864 159.001 41.621C161.117 47.1371 163.76 52.35 166.891 57.1812C166.952 57.1996 167.08 57.1299 167.028 57.0559Z" fill="#F7F3EF"/>
</g>
<defs>
<clipPath id="clip0">
<rect y="69.6421" width="83.2839" height="81.1969" transform="rotate(-30 0 69.6421)" fill="white"/>
</clipPath>
<clipPath id="clip1">
<rect x="136.273" width="60.3453" height="67.2122" transform="rotate(24.8767 136.273 0)" fill="white"/>
</clipPath>
</defs>
</svg>
