<svg width="134" height="28" fill="none" xmlns="http://www.w3.org/2000/svg"><path d="M.77 14.016c0 2.87 1.988 5.152 4.984 5.152 1.736 0 2.94-.714 3.766-1.526l-.56-.686a4.602 4.602 0 01-3.178 1.302c-2.436 0-4.004-1.918-4.004-4.256 0-2.31 1.568-4.102 3.962-4.102 1.064 0 2.24.406 3.01 1.078l.518-.714C8.33 9.368 6.958 8.99 5.712 8.99 2.828 8.99.77 11.16.77 14.016zm11.323 4.172c1.05-1.582 1.148-3.948 1.148-4.998v-.42h2.464v5.418h-3.612zm-1.89 0v2.492h.91V19h5.628v1.68h.91v-2.492h-.994v-6.23h-4.354v1.148c0 .952-.042 3.528-1.232 5.082h-.868zm8.434-2.702c0 2.17 1.596 3.682 3.695 3.682.924 0 1.947-.378 2.604-.98l-.433-.728c-.575.518-1.372.84-2.143.84-1.456 0-2.688-.994-2.73-2.786h5.405c.014-.154.027-.322.027-.476 0-1.75-.994-3.248-2.94-3.248-1.904 0-3.485 1.386-3.485 3.696zm1.035-.728c.224-1.414 1.247-2.184 2.422-2.184 1.05 0 1.947.714 2.002 2.184h-4.424zm6.325 4.298c1.806-.14 2.604-1.638 2.604-4.97v-1.302h2.436V19h.952v-7.042h-4.312v2.128c0 2.604-.504 3.934-1.68 4.116v.854zm7.662-1.946c0 1.358 1.19 2.058 2.38 2.058 1.134 0 2.016-.728 2.38-1.582h.028s-.042.238-.042.588V19h.91v-4.508c0-1.764-.938-2.702-2.632-2.702-.938 0-1.932.322-2.492.798l.434.728a3.44 3.44 0 012.002-.672c.994 0 1.736.462 1.736 1.82v.196h-.42c-1.344 0-4.284.14-4.284 2.45zm.966-.084c0-1.568 2.24-1.61 3.332-1.61h.406v.322c0 1.232-.798 2.632-2.156 2.632-1.05 0-1.582-.686-1.582-1.344zM41.507 19h.952v-3.192h4.116V19h.952v-7.042h-.952v3.01h-4.116v-3.01h-.952V19zm7.81-3.556c0 2.128 1.651 3.724 3.71 3.724 2.057 0 3.723-1.596 3.723-3.724 0-2.086-1.666-3.654-3.724-3.654-2.058 0-3.71 1.568-3.71 3.654zm.98 0c0-1.596 1.217-2.8 2.73-2.8 1.511 0 2.743 1.204 2.743 2.8 0 1.652-1.232 2.856-2.744 2.856-1.512 0-2.73-1.204-2.73-2.856zM62.028 19h2.687c1.583 0 2.549-.756 2.549-1.974 0-.826-.519-1.512-1.428-1.694v-.028c.685-.252 1.063-.826 1.063-1.554 0-1.162-.896-1.792-2.324-1.792H62.03V19zm.951-3.99v-2.324h1.443c.993 0 1.498.364 1.498 1.12 0 .756-.49 1.204-1.443 1.204H62.98zm0 3.248v-2.52h1.596c1.093 0 1.709.448 1.709 1.274 0 .756-.532 1.246-1.694 1.246h-1.61zm9.155-4.256c0 2.898 2.002 5.166 5.069 5.166 1.75 0 2.982-.728 3.822-1.568l-.742-.994c-.799.798-1.933 1.288-3.038 1.288-2.296 0-3.682-1.806-3.682-3.906 0-2.086 1.358-3.78 3.654-3.78 1.022 0 2.127.434 2.855 1.078l.7-1.036c-.951-.91-2.337-1.302-3.611-1.302-2.94 0-5.027 2.184-5.027 5.054zm10.386 3.052c0 1.792 1.12 2.016 1.904 2.016.196 0 .35-.028.448-.042v-1.204c-.084.014-.182.014-.238.014-.42 0-.77-.168-.77-1.008V9.116H82.52v7.938zm3.27-1.61c0 2.156 1.708 3.724 3.822 3.724 2.1 0 3.808-1.568 3.808-3.724 0-2.142-1.708-3.696-3.822-3.696-2.1 0-3.808 1.554-3.808 3.696zm1.386 0c0-1.47 1.092-2.52 2.436-2.52 1.33 0 2.436 1.05 2.436 2.52 0 1.484-1.106 2.548-2.436 2.548-1.344 0-2.436-1.064-2.436-2.548zm7.797 1.008c0 1.876.826 2.716 2.422 2.716 1.386 0 2.324-.966 2.632-1.666h.028s-.056.238-.056.518V19h1.316v-7.084h-1.344v3.318c0 1.4-.854 2.674-2.31 2.674-1.12 0-1.33-.784-1.33-1.764v-4.228h-1.358v4.536zm8.003-.994c0 2.198 1.218 3.71 3.122 3.71 1.12 0 1.946-.588 2.352-1.358h.028s-.042.196-.042.476V19h1.288V9.116h-1.344v3.318c0 .266.028.476.028.476h-.028c-.448-.756-1.302-1.162-2.198-1.162-1.876 0-3.206 1.456-3.206 3.71zm1.386 0c0-1.61.924-2.52 2.03-2.52 1.358 0 2.016 1.232 2.016 2.506 0 1.792-.994 2.548-2.044 2.548-1.176 0-2.002-.994-2.002-2.534zM111.625 19h1.386l.476-6.23c.056-.602.028-1.484.028-1.484h.028s.308.952.532 1.484l1.96 4.452h1.232l1.974-4.452c.224-.546.532-1.456.532-1.456h.028s-.028.854.028 1.456l.476 6.23h1.372l-.798-9.884h-1.442l-2.282 5.348c-.224.546-.49 1.33-.49 1.33h-.028s-.252-.784-.476-1.33l-2.282-5.348h-1.442L111.625 19zm11.938-8.512h1.4V9.116h-1.4v1.372zm.028 8.512h1.358v-7.084h-1.358V19zm3.445-1.946c0 1.792 1.12 2.016 1.904 2.016.196 0 .35-.028.448-.042v-1.204c-.084.014-.182.014-.238.014-.42 0-.77-.168-.77-1.008V9.116h-1.344v7.938zm3.733 0c0 1.792 1.12 2.016 1.904 2.016.196 0 .35-.028.448-.042v-1.204c-.084.014-.182.014-.238.014-.42 0-.77-.168-.77-1.008V9.116h-1.344v7.938z" fill="#1D1D1D"/></svg>