<svg width="56" height="56" viewBox="0 0 56 56" fill="none" xmlns="http://www.w3.org/2000/svg">
<circle cx="28" cy="28" r="28" fill="#F7F3EF"/>
<g clip-path="url(#clip0)">
<path d="M18.2407 33.4555C18.2407 33.7558 18.2741 34.0228 18.3075 34.3231C18.3075 34.49 18.6077 34.49 18.5744 34.3231C18.541 34.0228 18.541 33.7558 18.5076 33.4555C18.5076 33.2886 18.2407 33.2886 18.2407 33.4555Z" fill="#D4AF81"/>
<path d="M30.5189 16.3692C30.986 16.4359 31.4865 16.536 31.9202 16.8364C32.3873 17.1701 32.6209 17.8042 32.1538 18.2714C32.0203 18.3715 32.2205 18.5717 32.3206 18.4382C32.721 18.0378 32.721 17.4371 32.3873 16.9699C31.9536 16.4026 31.2196 16.2357 30.5522 16.1356C30.4188 16.1022 30.3521 16.3358 30.5189 16.3692Z" fill="#D4AF81"/>
<path d="M17.2068 19.0055C17.3736 19.0389 17.4404 18.8053 17.2736 18.7719C16.9065 18.7052 16.5395 18.5717 16.2059 18.3714C15.9056 18.2046 15.1382 17.6706 15.4718 17.2368C15.5719 17.1033 15.4051 16.9365 15.305 17.0699C14.5376 18.0044 16.5062 18.872 17.2068 19.0055Z" fill="#D4AF81"/>
<path d="M45.5996 34.2231C43.9981 31.9872 39.6606 31.8537 37.225 31.7202C35.8904 31.6535 34.4557 31.6201 33.0543 31.7202C33.0877 30.4521 33.0877 29.184 33.0543 27.8825C33.0877 27.2151 32.6873 26.581 32.0868 26.0804C32.0868 25.3462 32.1201 24.6121 32.1201 23.8779C33.1544 23.4107 33.9886 22.7766 34.4557 21.8756C34.4557 21.8756 34.4557 21.8756 34.4557 21.8422V21.8088C34.4557 21.7755 34.489 21.7421 34.489 21.7087C34.489 21.6754 34.489 21.6754 34.489 21.642C34.5224 20.4072 34.5224 19.1725 34.489 17.9377C34.5891 17.5039 34.5224 17.0033 34.122 16.4694C32.5205 14.2335 28.183 14.1 25.7474 13.9665C22.4776 13.8998 18.7741 13.9999 15.6711 15.2346C14.837 15.5683 13.7026 16.1023 13.469 17.0701C13.469 17.1368 13.4357 17.2035 13.4357 17.2703C13.4357 18.1046 13.4357 18.9389 13.469 19.7732C12.5348 20.1403 11.3003 20.6742 11.0667 21.7087C11.0334 21.7421 11 21.8088 11 21.8756C11 23.4441 11.0667 24.9792 11 26.5476C11 26.6144 11 26.6811 11.0334 26.7479C11.0334 26.7479 11.0334 26.7812 11.0667 26.7812L11.1001 26.8146C11.1335 26.848 11.1335 26.848 11.1668 26.8813C11.4004 27.1149 11.7007 27.3485 12.001 27.5488C12.001 29.0505 12.0677 30.5522 12.001 32.0539C12.001 32.1207 12.001 32.1874 12.0343 32.2542C12.0343 32.2542 12.0343 32.2542 12.0343 32.2875C12.0343 32.3209 12.0677 32.3209 12.0677 32.3543C12.101 32.3877 12.101 32.3877 12.1344 32.421C15.4709 35.4912 20.5758 35.7916 24.9133 35.3244C24.9133 36.7594 24.98 38.1943 24.9133 39.6293C24.9133 39.6961 24.9132 39.7628 24.9466 39.8296C24.9466 39.8296 24.9466 39.8629 24.98 39.8629L25.0133 39.8963C25.0467 39.9297 25.0467 39.9297 25.0801 39.963C28.183 42.8664 33.021 43.2668 37.0581 42.9331C39.5939 42.7329 44.5987 42.2991 45.9333 39.6293C45.9333 39.6293 45.9333 39.6293 45.9333 39.5959V39.5626C45.9333 39.5292 45.9666 39.4958 45.9666 39.4625C45.9666 39.4291 45.9666 39.4291 45.9666 39.3957C46 38.161 46 36.9262 45.9666 35.6915C46.0667 35.2576 46 34.7571 45.5996 34.2231ZM41.0953 32.955C42.3298 33.222 44.1983 33.5223 44.9657 34.6569C45.0991 34.8572 45.1659 35.0574 45.1992 35.2243C45.1992 35.291 45.1992 35.3911 45.1992 35.4579C45.0324 36.726 42.2631 37.4268 41.3289 37.6938C36.9914 38.795 32.6873 39.0954 28.45 37.4935C27.7493 37.1932 26.8151 36.8261 26.3479 36.2254C25.9476 35.6915 26.0477 34.4901 26.5148 34.0229C26.6816 33.856 27.0153 33.7559 27.2488 33.6558C28.5834 33.0885 30.0515 32.8215 31.4862 32.6546C34.6559 32.2876 37.9924 32.3209 41.0953 32.955ZM44.1649 37.4268C44.2984 37.36 44.4318 37.2933 44.5653 37.1932C44.5653 38.1276 44.5653 39.062 44.5653 40.0298C44.4318 40.1299 44.2984 40.23 44.1649 40.2968C44.1649 39.3623 44.1649 38.3946 44.1649 37.4268ZM43.898 40.4636C43.5643 40.6638 43.1973 40.7973 42.8303 40.9308C42.9304 39.963 42.9971 38.9619 43.0972 37.9941C43.0972 37.9607 43.0972 37.9274 43.0639 37.894C43.3308 37.7939 43.5977 37.6938 43.8646 37.5603C43.8646 38.4947 43.8646 39.4625 43.8646 40.3969C43.898 40.4302 43.898 40.4636 43.898 40.4636ZM31.2526 31.8871C31.2526 31.253 31.2526 30.6523 31.2526 30.0183C31.3861 29.9515 31.5195 29.8514 31.653 29.7847C31.653 30.4855 31.653 31.1529 31.653 31.8537C31.5195 31.8537 31.3861 31.8871 31.2526 31.8871ZM30.9857 31.9205C30.6854 31.9872 30.3518 32.0206 30.0515 32.0873C30.0848 31.5534 30.1516 31.0194 30.1849 30.4855C30.4519 30.3854 30.7188 30.2852 30.9857 30.1518C30.9857 30.7525 30.9857 31.3531 30.9857 31.9205ZM29.7846 32.1541C28.9838 32.3209 28.2164 32.5212 27.449 32.8215C27.449 32.2876 27.449 31.7536 27.449 31.1863C28.2498 31.0528 29.0839 30.8526 29.8847 30.619C29.8513 31.1195 29.8179 31.6201 29.7846 32.1541ZM27.1821 32.9216C27.1821 32.9216 27.1487 32.9216 27.1821 32.9216C26.3813 33.222 25.3804 33.7225 25.0467 34.5235C24.4128 34.5902 23.7788 34.6569 23.1115 34.6903C23.1783 33.7559 23.2116 32.7881 23.2784 31.8537C23.2784 31.8203 23.2784 31.787 23.245 31.787C24.0791 31.7202 24.8799 31.6201 25.714 31.4866C26.1478 31.4199 26.6482 31.3531 27.1821 31.253C27.1821 31.787 27.1821 32.3543 27.1821 32.9216ZM25.6806 36.6592C25.8808 36.8595 26.1144 37.0597 26.3813 37.2266C26.3813 38.161 26.3813 39.0954 26.3813 40.0632C26.1478 39.8963 25.9142 39.6961 25.6806 39.4958C25.6806 38.5281 25.6806 37.5936 25.6806 36.6592ZM26.6482 37.3934C26.8484 37.4935 27.0153 37.627 27.2154 37.6938V37.7271C27.2822 38.6949 27.3155 39.6627 27.3823 40.6638C27.1487 40.5304 26.9152 40.3969 26.6816 40.23C26.6482 39.2956 26.6482 38.3278 26.6482 37.3934ZM27.4824 37.8606C27.7159 37.9941 27.9495 38.0942 28.1497 38.161H28.183C28.2164 38.161 28.2164 38.1943 28.2498 38.1943C28.5167 38.2945 28.7502 38.3612 29.0172 38.4613C29.0172 39.4291 29.0505 40.4302 29.0505 41.398C28.55 41.2312 28.0829 41.0309 27.6492 40.7973C27.5825 39.8296 27.5491 38.8284 27.4824 37.8606ZM31.9199 31.8203C31.9199 31.0862 31.9199 30.3186 31.9199 29.5844C32.0534 29.4843 32.1868 29.3842 32.2869 29.2507C32.2869 30.085 32.2869 30.9193 32.2536 31.787C32.1868 31.787 32.0534 31.8203 31.9199 31.8203ZM23.8456 30.9861C21.9104 31.1863 19.9418 31.1863 18.04 30.7525C16.7054 30.4521 13.7693 29.7179 12.9685 28.1828C15.9714 29.8848 19.8084 30.085 23.1115 29.818C25.5472 29.6178 30.2517 29.2174 31.7865 26.8146C34.4223 29.3175 25.2135 30.8526 23.8456 30.9861ZM11.7674 23.5775C11.9676 23.7778 12.2011 23.978 12.4681 24.1449C12.4681 25.0793 12.4681 26.0137 12.4681 26.9481C12.2345 26.7812 12.001 26.581 11.7674 26.3808C11.7674 25.4797 11.7674 24.5119 11.7674 23.5775ZM17.5729 26.5142C17.5729 26.3474 17.5729 26.1805 17.5729 26.0137C19.041 26.2806 20.5424 26.3474 22.0439 26.2473V26.2806C21.9771 27.2151 21.9438 28.1828 21.877 29.1172C20.4423 29.1506 18.9743 29.1172 17.5062 28.8836C17.5729 28.8836 17.6063 28.8169 17.6063 28.7502C17.5729 28.4498 17.5729 28.1828 17.5396 27.8825C17.5396 27.7156 17.2393 27.7156 17.2726 27.8825C17.306 28.1828 17.306 28.4498 17.3394 28.7502C17.3394 28.8169 17.3727 28.8503 17.4061 28.8503C16.7388 28.7502 16.0715 28.5833 15.4376 28.3831C15.4376 27.4153 15.4042 26.4141 15.4042 25.4464C16.0381 25.6466 16.6721 25.8134 17.306 25.9469C17.306 25.9469 17.306 25.9469 17.306 25.9803C17.306 26.1472 17.306 26.314 17.306 26.4809C17.2726 26.7145 17.5729 26.7145 17.5729 26.5142ZM19.9752 23.3106C19.9752 23.1437 19.6749 23.1437 19.7083 23.3106C19.7417 23.6109 19.7417 23.8779 19.775 24.1782C19.775 24.245 19.8084 24.2783 19.8418 24.2783C19.1745 24.1782 18.5071 24.0114 17.8732 23.8111C17.8732 22.81 17.8398 21.8422 17.8398 20.8411C18.4738 21.0413 19.1411 21.2082 19.775 21.3083C19.775 21.3416 19.7417 21.3416 19.7417 21.375C19.7417 21.5419 19.7417 21.7087 19.7417 21.8756C19.7417 22.0424 20.0086 22.0424 20.0086 21.8756C20.0086 21.7087 20.0086 21.5419 20.0086 21.375C20.0086 21.375 20.0086 21.375 20.0086 21.3416C21.51 21.6086 23.0114 21.642 24.5129 21.5752C24.4795 21.6086 24.4795 21.642 24.4795 21.6754C24.4128 22.6098 24.3794 23.5775 24.3127 24.5119C22.878 24.5453 21.4099 24.5119 19.9418 24.2783C20.0086 24.2783 20.0419 24.2116 20.0419 24.1449C20.0086 23.8779 19.9752 23.6109 19.9752 23.3106ZM14.2031 18.9722C14.4032 19.1725 14.6368 19.3727 14.9037 19.5396C14.9037 20.474 14.9037 21.4084 14.9037 22.3762C14.6702 22.2093 14.4366 22.0091 14.2031 21.8088C14.2031 20.8411 14.2031 19.9067 14.2031 18.9722ZM15.1706 19.7064C15.3708 19.8065 15.5377 19.94 15.7378 20.0068V20.0401C15.8046 21.0079 15.8379 21.9757 15.9047 22.9769C15.6711 22.8434 15.4376 22.7099 15.204 22.543C15.1706 21.6086 15.1706 20.6742 15.1706 19.7064ZM16.1716 23.1437C16.1049 22.1426 16.0715 21.1748 16.0048 20.1736C16.2383 20.3071 16.4719 20.4072 16.6721 20.474H16.7054C16.7388 20.474 16.7388 20.5073 16.7722 20.5073C17.0391 20.6075 17.2726 20.6742 17.5396 20.7743C17.5396 21.7421 17.5729 22.7432 17.5729 23.711C17.0725 23.5775 16.6053 23.3773 16.1716 23.1437ZM32.4538 22.81C32.1201 23.0102 31.7531 23.1437 31.3861 23.2772C31.4862 22.3094 31.5529 21.3083 31.653 20.3405C31.653 20.3071 31.653 20.2737 31.6196 20.2404C31.8866 20.1403 32.1535 20.0401 32.4204 19.9067C32.4204 20.8411 32.4204 21.8088 32.4204 22.7432C32.4204 22.7766 32.4204 22.7766 32.4538 22.81ZM32.7207 19.7398C32.8541 19.6731 32.9876 19.6063 33.1211 19.5062C33.1211 20.4406 33.1211 21.375 33.1211 22.3428C32.9876 22.4429 32.8541 22.543 32.7207 22.6098C32.7207 21.6754 32.7207 20.7076 32.7207 19.7398C32.7207 19.7732 32.7207 19.7732 32.7207 19.7398ZM31.3527 20.3405C31.2526 21.3416 31.1525 22.3762 31.0858 23.3773C30.919 23.4441 30.7855 23.4774 30.6187 23.5442C30.0515 23.7444 29.4509 23.8779 28.8503 24.0114C28.8503 23.0102 28.8837 22.0091 28.8837 21.0079C29.2841 20.9078 29.6511 20.8411 30.0515 20.7409C30.4185 20.6408 30.8856 20.5073 31.3527 20.3405ZM30.2517 27.2484C30.2517 26.3474 30.2517 25.4464 30.2517 24.5453C30.3851 24.5119 30.5186 24.4786 30.6521 24.4452C30.6521 25.2795 30.6521 26.1472 30.6521 26.9815C30.5186 27.0816 30.4185 27.1483 30.2517 27.2484ZM28.9171 24.9458C28.817 25.9469 28.7169 26.9481 28.6501 27.9826C28.4833 28.0493 28.3499 28.0827 28.183 28.1495C27.6158 28.3497 27.0153 28.4832 26.4147 28.6167C26.4147 27.6155 26.448 26.6144 26.448 25.6466C27.3155 25.4464 28.1163 25.2128 28.9171 24.9458ZM29.2174 24.9458C29.2174 24.9124 29.2174 24.879 29.184 24.8457C29.2174 24.8123 29.2174 24.8123 29.2174 24.7789C29.4843 24.7456 29.7178 24.6788 29.9847 24.6121C29.9847 25.5131 29.9847 26.4475 29.9847 27.3485C29.9847 27.3819 29.9847 27.3819 29.9847 27.4153C29.6511 27.6155 29.2841 27.749 28.9171 27.8825C29.0172 26.8813 29.1173 25.9136 29.2174 24.9458ZM28.5834 24.0781C27.449 24.3117 26.3146 24.4452 25.1468 24.5119C24.9466 24.5119 24.7464 24.5453 24.5462 24.5453C24.613 23.6109 24.6463 22.6431 24.7131 21.7087C24.7131 21.642 24.6797 21.6086 24.6463 21.6086C25.9476 21.5085 27.2822 21.3416 28.6168 21.0413C28.6168 22.0424 28.6168 23.0436 28.5834 24.0781ZM26.1811 25.68C26.1811 26.6811 26.1478 27.6823 26.1478 28.65C25.0133 28.8836 23.8789 29.0171 22.7112 29.0839C22.511 29.0839 22.3108 29.1172 22.1106 29.1172C22.1773 28.1828 22.2107 27.2151 22.2774 26.2806C22.2774 26.2473 22.2774 26.2473 22.2774 26.2139C23.5786 26.1805 24.9133 25.9803 26.1811 25.68ZM15.1039 25.413C15.1039 26.3808 15.1373 27.3819 15.1373 28.3497C14.6368 28.1828 14.1697 27.9826 13.7359 27.749C13.6692 26.7479 13.6358 25.7801 13.5691 24.7789C13.836 24.9124 14.103 25.0125 14.3365 25.1126C14.5701 25.2461 14.837 25.3129 15.1039 25.413ZM13.4357 27.6155C13.2021 27.482 12.9685 27.3485 12.735 27.1817C12.735 26.2473 12.735 25.2795 12.735 24.3451C12.9352 24.4452 13.102 24.5787 13.3022 24.6454C13.3022 24.6454 13.3022 24.6454 13.3022 24.6788C13.3356 25.6466 13.3689 26.6144 13.4357 27.6155ZM12.7684 29.1172C12.9685 29.3508 13.2021 29.5177 13.469 29.7179C13.469 30.6523 13.469 31.5867 13.469 32.5212C13.2355 32.3543 13.0019 32.1541 12.7684 31.9538C12.7684 30.9861 12.7684 30.0516 12.7684 29.1172ZM13.7359 29.8848C13.9028 29.9849 14.103 30.085 14.3031 30.1851C14.3699 31.1529 14.4032 32.1207 14.47 33.0885C14.2364 32.955 14.0029 32.8215 13.7693 32.6546C13.7359 31.7536 13.7359 30.8192 13.7359 29.8848ZM14.5701 30.352C15.0705 30.5856 15.6044 30.7858 16.1049 30.9527C16.1049 31.9205 16.1382 32.9216 16.1382 33.8894C15.6378 33.7225 15.1706 33.5223 14.7369 33.2887C14.6702 32.3209 14.6034 31.3198 14.5701 30.352ZM31.3194 26.1805C31.2193 26.3808 31.0858 26.581 30.919 26.7479C30.919 25.9469 30.919 25.1794 30.919 24.3785C31.0524 24.3451 31.2193 24.2783 31.3527 24.245C31.3527 24.879 31.3527 25.5131 31.3194 26.1805ZM33.388 22.1092C33.388 21.2082 33.388 20.2737 33.388 19.3727C33.5214 19.2726 33.6549 19.1725 33.755 19.0724C33.755 19.94 33.755 20.7743 33.7216 21.642C33.6215 21.8088 33.5214 21.9757 33.388 22.1092ZM15.0705 16.3693C15.2374 16.2024 15.571 16.1023 15.8046 16.0022C17.1392 15.4348 18.6072 15.1679 20.0419 15.001C23.2116 14.6006 26.5148 14.6339 29.6511 15.268C30.8856 15.535 32.7541 15.8353 33.5214 16.9699C33.6549 17.1702 33.7216 17.3704 33.755 17.5373C33.755 17.604 33.755 17.7041 33.755 17.7709C33.5882 19.039 30.8189 19.7398 29.8847 20.0068C25.5472 21.108 21.2431 21.4084 17.0057 19.8065C16.3051 19.5062 15.3708 19.1391 14.9037 18.5384C14.47 18.0378 14.5701 16.8365 15.0705 16.3693ZM13.469 20.5741C13.469 21.0079 13.469 21.4751 13.4357 21.909C13.4357 21.9757 13.4357 22.0424 13.469 22.1092C13.469 22.1092 13.469 22.1426 13.5024 22.1426L13.5357 22.1759C13.5691 22.2093 13.5691 22.2093 13.6025 22.2427C16.3718 24.8457 20.5091 25.413 24.2459 25.3129C22.5777 25.5798 20.9094 25.68 19.2745 25.5465C17.5729 25.413 15.8046 25.0125 14.2364 24.3117C13.6358 24.0447 12.8684 23.6777 12.4347 23.1771C11.3337 21.909 12.4347 21.0413 13.469 20.5741ZM16.4051 33.9895C16.4051 33.0217 16.3718 32.0206 16.3718 31.0528C16.4385 31.0862 16.5052 31.0862 16.572 31.1195C17.1392 31.3198 17.7064 31.4533 18.307 31.5534C18.307 31.7202 18.307 31.8871 18.307 32.0539C18.307 32.2208 18.5739 32.2208 18.5739 32.0539C18.5739 31.8871 18.5739 31.7202 18.5739 31.5867C20.0419 31.8537 21.5434 31.8871 23.0448 31.787C23.0448 31.8203 23.0114 31.8203 23.0114 31.8537C22.9447 32.7881 22.9113 33.7559 22.8446 34.6903C20.6759 34.7904 18.4404 34.6236 16.4051 33.9895ZM31.3861 41.9987C31.4528 41.9987 31.4862 41.932 31.4862 41.8652C31.4862 41.5649 31.4528 41.2979 31.4194 40.9976C31.4194 40.8307 31.1192 40.8307 31.1525 40.9976C31.1859 41.2979 31.1859 41.5649 31.2193 41.8652C31.2193 41.932 31.2526 41.9653 31.286 41.9653C30.6187 41.8652 29.9514 41.6984 29.3174 41.4981C29.3174 40.497 29.2841 39.5292 29.2841 38.5281C29.918 38.7283 30.5853 38.8951 31.2193 38.9953C31.2193 39.0286 31.1859 39.0286 31.1859 39.062C31.1859 39.2289 31.1859 39.3957 31.1859 39.5626C31.1859 39.7294 31.4528 39.7294 31.4528 39.5626C31.4528 39.3957 31.4528 39.2289 31.4528 39.062C31.4528 39.062 31.4528 39.062 31.4528 39.0286C32.9542 39.2956 34.4557 39.329 35.9571 39.2622C35.9237 39.2956 35.9237 39.329 35.9237 39.3623C35.857 40.2968 35.8236 41.2645 35.7569 42.1989C34.3222 42.2657 32.8208 42.2323 31.3861 41.9987ZM36.6578 42.1989C36.4576 42.1989 36.2574 42.2323 36.0572 42.2323C36.1239 41.2979 36.1573 40.3301 36.224 39.3957C36.224 39.329 36.1907 39.2956 36.1573 39.2956C37.4585 39.1955 38.7931 39.0286 40.1277 38.7283C40.1277 39.7294 40.0944 40.7306 40.0944 41.7317C38.96 41.9653 37.7922 42.1322 36.6578 42.1989ZM40.3613 41.665C40.3613 40.6638 40.3947 39.6627 40.3947 38.6615C40.795 38.5614 41.1621 38.4947 41.5624 38.3946C41.8961 38.2945 42.3632 38.1943 42.8637 37.9941C42.7636 38.9953 42.6635 40.0298 42.5968 41.0309C42.4299 41.0977 42.2965 41.131 42.1296 41.1978C41.5291 41.398 40.9285 41.5315 40.3613 41.665ZM44.8322 39.7962C44.8322 38.8951 44.8322 37.9607 44.8322 37.0597C44.9657 36.9596 45.0991 36.8595 45.1992 36.7594C45.1992 37.627 45.1992 38.4613 45.1659 39.329C45.0991 39.4958 44.999 39.6293 44.8322 39.7962Z" fill="#D4AF81"/>
<path d="M41.9974 34.0229C42.4645 34.0896 42.965 34.1897 43.3987 34.4901C43.8658 34.8238 44.0994 35.4578 43.6323 35.9251C43.4988 36.0252 43.699 36.2254 43.7991 36.0919C44.1995 35.6915 44.1995 35.0908 43.8658 34.6236C43.4321 34.0562 42.6981 33.8894 42.0308 33.7893C41.8973 33.7559 41.8306 33.9895 41.9974 34.0229Z" fill="#D4AF81"/>
<path d="M28.7507 36.4589C28.3503 36.3922 28.0167 36.2587 27.683 36.0585C27.3827 35.8916 26.6153 35.3577 26.949 34.9238C27.0491 34.7903 26.8822 34.6235 26.7822 34.757C25.9814 35.6914 27.9833 36.559 28.684 36.6925C28.8508 36.7259 28.9175 36.4923 28.7507 36.4589Z" fill="#D4AF81"/>
</g>
<defs>
<clipPath id="clip0">
<rect x="11" y="14" width="35" height="29" fill="white"/>
</clipPath>
</defs>
</svg>
