<svg width="56" height="56" fill="none" xmlns="http://www.w3.org/2000/svg"><circle cx="28" cy="28" r="28" fill="#F7F3EF"/><g clip-path="url(#clip0)" fill="#D4AF81"><path d="M18.24 33.456c0 .3.034.567.068.867 0 .167.3.167.266 0-.033-.3-.033-.567-.066-.867 0-.167-.267-.167-.267 0zM30.519 16.37c.467.066.968.166 1.401.466.467.334.7.968.234 1.435-.134.1.066.3.167.167.4-.4.4-1 .066-1.468-.433-.567-1.167-.734-1.835-.834-.133-.034-.2.2-.033.233zm-13.312 2.636c.167.033.233-.2.067-.234a3.193 3.193 0 01-1.068-.4c-.3-.167-1.068-.701-.734-1.135.1-.134-.067-.3-.167-.167-.767.934 1.201 1.802 1.902 1.936z"/><path d="M45.6 34.223c-1.602-2.236-5.94-2.37-8.375-2.503-1.335-.066-2.77-.1-4.17 0a73.502 73.502 0 000-3.837c.033-.668-.368-1.302-.968-1.803 0-.734.033-1.468.033-2.202 1.034-.467 1.869-1.101 2.336-2.002v-.067c0-.034.033-.067.033-.1v-.067c.033-1.235.033-2.47 0-3.704.1-.434.033-.935-.367-1.469-1.602-2.236-5.939-2.369-8.375-2.503-3.27-.066-6.973.034-10.076 1.269-.834.333-1.968.867-2.202 1.835 0 .067-.033.133-.033.2 0 .835 0 1.669.033 2.503-.934.367-2.169.901-2.402 1.936a.255.255 0 00-.067.167c0 1.568.067 3.103 0 4.672 0 .066 0 .133.033.2 0 0 0 .033.034.033l.033.034.067.066c.233.234.534.468.834.668 0 1.502.067 3.003 0 4.505 0 .067 0 .133.033.2v.034c0 .033.034.033.034.066l.066.067c3.337 3.07 8.442 3.37 12.78 2.903 0 1.435.066 2.87 0 4.305 0 .067 0 .134.033.2 0 0 0 .034.033.034l.033.033.067.067c3.103 2.903 7.941 3.304 11.978 2.97 2.536-.2 7.54-.634 8.875-3.304v-.066c0-.034.034-.067.034-.1v-.067a69.34 69.34 0 000-3.705c.1-.433.033-.934-.367-1.468zm-4.505-1.268c1.235.267 3.103.567 3.87 1.702.134.2.2.4.234.567v.234c-.167 1.268-2.936 1.969-3.87 2.236-4.338 1.101-8.642 1.401-12.879-.2-.7-.3-1.635-.668-2.102-1.269-.4-.534-.3-1.735.167-2.202.167-.167.5-.267.734-.367 1.334-.567 2.803-.834 4.237-1.001 3.17-.367 6.506-.334 9.61.3zm3.07 4.472c.133-.067.267-.134.4-.234v2.837c-.133.1-.267.2-.4.267v-2.87zm-.267 3.037c-.334.2-.7.333-1.068.467.1-.968.167-1.97.267-2.937 0-.033 0-.067-.033-.1.267-.1.534-.2.8-.334v2.837c.034.033.034.067.034.067zm-12.645-8.577v-1.869c.133-.067.267-.167.4-.233v2.069c-.133 0-.267.033-.4.033zm-.267.034c-.3.066-.634.1-.934.166.033-.534.1-1.068.133-1.602.267-.1.534-.2.8-.333v1.768zm-1.201.233c-.801.167-1.569.367-2.336.667v-1.635c.8-.133 1.635-.333 2.436-.567-.034.5-.067 1.001-.1 1.535zm-2.603.768s-.033 0 0 0c-.8.3-1.802.8-2.135 1.602-.634.066-1.268.133-1.936.166.067-.934.1-1.902.167-2.836 0-.034 0-.067-.033-.067a31.156 31.156 0 002.469-.3c.434-.067.934-.134 1.468-.234v1.669zm-1.501 3.737c.2.2.433.4.7.568v2.836a10.466 10.466 0 01-.7-.567v-2.837zm.967.734c.2.1.367.234.567.3v.034c.067.968.1 1.936.167 2.937a7.951 7.951 0 01-.7-.434c-.034-.934-.034-1.902-.034-2.837zm.834.468c.234.133.468.233.668.3h.033c.033 0 .033.033.067.033.267.1.5.167.767.267 0 .968.034 1.97.034 2.937a8.847 8.847 0 01-1.402-.6c-.067-.968-.1-1.97-.167-2.937zm4.438-6.04v-2.237c.133-.1.267-.2.367-.333 0 .834 0 1.668-.033 2.536-.067 0-.2.033-.334.033zm-8.074-.835c-1.936.2-3.904.2-5.806-.233-1.335-.3-4.27-1.035-5.071-2.57 3.002 1.702 6.84 1.902 10.143 1.635 2.435-.2 7.14-.6 8.675-3.003 2.635 2.502-6.573 4.038-7.941 4.171zm-12.079-7.409c.2.2.434.401.701.568v2.803a10.55 10.55 0 01-.7-.567v-2.803zm5.806 2.937v-.5c1.468.267 2.97.333 4.47.233v.034c-.066.934-.1 1.902-.166 2.836-1.435.034-2.903 0-4.37-.233.066 0 .1-.067.1-.134-.034-.3-.034-.567-.067-.867 0-.167-.3-.167-.267 0 .033.3.033.567.066.867 0 .067.034.1.067.1a13 13 0 01-1.968-.467c0-.968-.034-1.969-.034-2.937.634.2 1.268.367 1.902.5v.534c-.033.235.267.235.267.034zm2.402-3.203c0-.167-.3-.167-.267 0 .034.3.034.567.067.867 0 .067.033.1.067.1a12.99 12.99 0 01-1.969-.467c0-1.001-.033-1.969-.033-2.97.634.2 1.301.367 1.935.467 0 .034-.033.034-.033.067v.5c0 .167.267.167.267 0v-.533c1.501.267 3.002.3 4.504.233-.034.034-.034.067-.034.1-.066.935-.1 1.902-.166 2.837-1.435.033-2.903 0-4.371-.234.067 0 .1-.066.1-.133-.033-.267-.067-.534-.067-.834zm-5.772-4.339c.2.2.434.4.7.568v2.836a10.44 10.44 0 01-.7-.567v-2.837zm.968.734c.2.1.367.234.567.3v.034c.067.968.1 1.936.167 2.937a7.977 7.977 0 01-.701-.434c-.033-.934-.033-1.869-.033-2.837zm1 3.438c-.066-1.001-.1-1.97-.166-2.97.233.133.467.233.667.3h.033c.034 0 .034.033.067.033.267.1.5.167.768.267 0 .968.033 1.97.033 2.937a6.487 6.487 0 01-1.401-.567zm16.283-.334c-.334.2-.7.334-1.068.467.1-.968.167-1.969.267-2.937 0-.033 0-.066-.033-.1.267-.1.534-.2.8-.333v2.836c0 .034 0 .034.034.067zm.267-3.07a2.49 2.49 0 00.4-.234v2.837c-.133.1-.267.2-.4.267v-2.87c0 .033 0 .033 0 0zm-1.368.6c-.1 1.002-.2 2.036-.267 3.037-.167.067-.3.1-.467.167-.567.2-1.168.334-1.769.467 0-1 .034-2.002.034-3.003.4-.1.767-.167 1.168-.267.367-.1.834-.234 1.3-.4zm-1.101 6.908v-2.703l.4-.1v2.537c-.133.1-.233.166-.4.266zm-1.335-2.302a85.82 85.82 0 00-.267 3.037c-.167.066-.3.1-.467.166-.567.2-1.168.334-1.768.468 0-1.002.033-2.003.033-2.97.867-.2 1.668-.434 2.47-.701zm.3 0c0-.034 0-.067-.033-.1.033-.034.033-.034.033-.067.267-.033.5-.1.768-.167v2.803c-.334.2-.7.334-1.068.468.1-1.002.2-1.97.3-2.937zm-.634-.868a23.59 23.59 0 01-3.436.434c-.2 0-.4.033-.6.033.066-.934.1-1.902.166-2.836 0-.067-.033-.1-.067-.1 1.302-.1 2.636-.267 3.97-.568 0 1.001 0 2.003-.033 3.037zm-2.402 1.602c0 1.001-.033 2.002-.033 2.97a23.607 23.607 0 01-3.437.434c-.2 0-.4.033-.6.033.066-.934.1-1.902.166-2.836v-.067c1.302-.034 2.636-.234 3.904-.534zm-11.077-.267c0 .968.033 1.969.033 2.937a8.862 8.862 0 01-1.401-.601c-.067-1.001-.1-1.969-.167-2.97.267.133.534.233.767.334.234.133.501.2.768.3zm-1.668 2.203c-.234-.134-.467-.267-.701-.434v-2.837c.2.1.367.234.567.3v.034c.034.968.067 1.935.134 2.937zm-.668 1.501c.2.234.434.4.701.6v2.804a10.44 10.44 0 01-.7-.567v-2.837zm.968.768c.167.1.367.2.567.3.067.968.1 1.936.167 2.904a7.977 7.977 0 01-.7-.434c-.034-.901-.034-1.836-.034-2.77zm.834.467c.5.234 1.034.434 1.535.6 0 .968.033 1.97.033 2.937a8.86 8.86 0 01-1.401-.6 86.493 86.493 0 01-.167-2.937zm16.75-4.172c-.1.2-.234.401-.401.568v-2.37c.133-.033.3-.1.434-.133 0 .634 0 1.268-.034 1.935zm2.068-4.07v-2.737c.133-.1.267-.2.367-.3 0 .867 0 1.701-.033 2.569-.1.167-.2.334-.334.467zm-18.317-5.74c.166-.168.5-.268.734-.368 1.334-.567 2.802-.834 4.237-1.001 3.17-.4 6.473-.367 9.61.267 1.234.267 3.102.567 3.87 1.702.133.2.2.4.233.567v.234c-.167 1.268-2.936 1.969-3.87 2.236-4.338 1.101-8.642 1.401-12.88-.2-.7-.3-1.634-.668-2.101-1.269-.434-.5-.334-1.701.166-2.169zm-1.602 4.204c0 .434 0 .901-.033 1.335 0 .067 0 .133.033.2 0 0 0 .034.033.034l.034.033.066.067c2.77 2.603 6.907 3.17 10.644 3.07-1.668.267-3.337.367-4.971.234-1.702-.134-3.47-.535-5.039-1.235-.6-.267-1.368-.634-1.801-1.135-1.101-1.268 0-2.136 1.034-2.603zm2.936 13.415c0-.967-.033-1.968-.033-2.936.067.033.133.033.2.066.567.2 1.134.334 1.735.434v.5c0 .168.267.168.267 0v-.466c1.468.267 2.97.3 4.47.2 0 .033-.033.033-.033.067-.066.934-.1 1.902-.166 2.836-2.17.1-4.405-.066-6.44-.7zM31.386 42c.067 0 .1-.067.1-.134 0-.3-.033-.567-.067-.867 0-.167-.3-.167-.267 0 .034.3.034.567.067.867 0 .067.034.1.067.1a13.03 13.03 0 01-1.969-.467c0-1.001-.033-1.969-.033-2.97.634.2 1.301.367 1.935.467 0 .034-.033.034-.033.067v.5c0 .167.267.167.267 0v-.533c1.501.267 3.003.3 4.504.233-.033.034-.033.067-.033.1-.067.935-.1 1.902-.167 2.837-1.435.067-2.936.033-4.37-.2zm5.272.2c-.2 0-.4.033-.6.033.066-.934.1-1.902.166-2.836 0-.067-.033-.1-.067-.1 1.302-.1 2.636-.267 3.97-.568 0 1.001-.033 2.003-.033 3.004-1.134.233-2.302.4-3.436.467zm3.703-.534c0-1.001.034-2.002.034-3.004.4-.1.767-.166 1.167-.266.334-.1.801-.2 1.302-.4-.1 1-.2 2.035-.267 3.036-.167.067-.3.1-.467.167-.6.2-1.202.334-1.769.467zm4.471-1.869V37.06c.134-.1.267-.2.367-.3 0 .867 0 1.701-.033 2.569-.067.167-.167.3-.334.467z"/><path d="M41.997 34.023c.468.067.968.167 1.402.467.467.334.7.968.233 1.435-.133.1.067.3.167.167.4-.4.4-1.001.067-1.468-.434-.568-1.168-.735-1.835-.835-.134-.033-.2.2-.034.234zM28.75 36.459c-.4-.067-.733-.2-1.067-.4-.3-.167-1.068-.701-.734-1.135.1-.134-.067-.3-.167-.167-.8.934 1.201 1.802 1.902 1.936.167.033.233-.2.067-.234z"/></g><defs><clipPath id="clip0"><path fill="#fff" d="M11 14h35v29H11z"/></clipPath></defs></svg>