<svg width="381" height="313" fill="none" xmlns="http://www.w3.org/2000/svg"><g clip-path="url(#clip0)"><path d="M28.07 209.677l.613.087a.513.513 0 00.44.043c6.653.642 12.426-2.761 18.245-5.653a56.992 56.992 0 0122.293-5.38c7.934-.501 15.916-.48 23.85-.715 7.578-.168 15.397.062 22.905-1.412 7.077-1.341 12.898-4.893 18.773-8.898a83.563 83.563 0 018.964-5.504 49.012 49.012 0 0110.469-3.52 34.075 34.075 0 009.632-3.588c2.589-1.595 4.895-3.617 7.343-5.426 2.447-1.808 5.549-3.779 8.896-3.855 3.347-.076 6.677 1.766 10.062 2.494 3.731.815 7.574.683 11.322 1.38a26.37 26.37 0 019.329 4.054l.593.382 1.297 1.022c1.625 1.278 3.254 2.58 5 3.695a20.159 20.159 0 003.513 1.871c-.619.351-1.214.744-1.781 1.175a33.64 33.64 0 01-3.625 1.955 28.682 28.682 0 01-7.85 2.414c-2.744.444-5.437.092-8.191.284-.39.03-.776.103-1.151.218l-.786-.269a5.235 5.235 0 00-1.953.002 11.92 11.92 0 01-2.396.277 25.114 25.114 0 01-2.616-.418 18.156 18.156 0 00-4.906.081c-.783.148-1.579.299-2.401.315-2.47-.115-4.95-.152-7.437-.023a47.327 47.327 0 00-16.135 4.073c-8.805 3.736-17.364 9.506-21.795 18.248a29.065 29.065 0 00-3.063 14.622c.367 2.773.533 5.569.495 8.366-.23 2.669-1.006 5.264-1.411 7.878-.826 5.547.967 10.724 3.489 15.599a124.845 124.845 0 016.519 13.376 21.511 21.511 0 002.257 6.358c1.292 2.596 2.907 5.03 4.405 7.511 1.289 2.115 2.475 4.427 3.702 6.617.237.779.483 1.544.764 2.29.126.331.593.116.559-.195-.312-2.984-.837-5.954-1.161-8.937-.325-2.983-.475-6.252-.526-9.464a93.403 93.403 0 011.567-17.966 117.795 117.795 0 012.341-7.724 75.765 75.765 0 017.144-15.509c6.424-10.54 15.643-18.985 24.536-27.406 5.305-5.001 10.731-9.834 17.761-12.156a.192.192 0 00.089-.058.194.194 0 00.047-.095c5.275-1.685 10.83-2.687 16.118-4.032 3.629-.929 7.366-2.093 11.142-2.112 3.257.076 6.459.854 9.387 2.28 6.87 3.188 12.255 8.712 18.909 12.296 6.174 3.332 15.761 5.13 16.848 13.473a.66.66 0 001.072.367 14.556 14.556 0 005.194-10.941.517.517 0 00.308-.34.518.518 0 00-.078-.452c-2.321-3.682-6.081-5.785-10.017-7.411-4.137-1.753-8.438-3.094-12.475-5.119a25.921 25.921 0 01-5.851-4.104 21.559 21.559 0 00-6.592-4.128c-2.655-1.095-5.504-1.671-8.248-2.496a74.182 74.182 0 01-8.17-2.954 17.767 17.767 0 01-7.548-5.291 13.1 13.1 0 01-2.298-4.562c-.149-.784-.403-1.522-.622-2.28-.086-1.87.022-3.743.322-5.591.379-2.298.92-4.566 1.618-6.788.519-1.747.958-4.316 2.402-5.529a6.163 6.163 0 013.193-1.024c1.028-.194 2.045-.387 3.057-.668a43.123 43.123 0 005.676-1.837 45.496 45.496 0 0010.434-5.846 51.395 51.395 0 008.729-8.555 21.613 21.613 0 014.46-4.371 22.086 22.086 0 016.454-2.492 51.25 51.25 0 0020.432-11.179 56.064 56.064 0 0013.38-19.215c3.343-7.457 6.033-15.413 11.26-21.832a37.447 37.447 0 0120.408-12.582c1.955-.46 3.941-.684 5.934-.948.808-.153.771-1.414-.071-1.445a41.655 41.655 0 01-9.325-.68 48.104 48.104 0 01-5.642-1.658l-.277-.125c-3.354-1.635-6.386-4.18-10.115-4.92-4.36-.847-7.926 2.087-11.829 3.511a31.045 31.045 0 01-6.555 1.484 33.645 33.645 0 01-5.155-.43c-5.086-.8-10.301-1.549-15.45-1.88a25.123 25.123 0 00-11.553 1.417 29.094 29.094 0 006.186-7.515c3.277-5.53 5.341-11.502 7.979-17.329a42.092 42.092 0 015.047-8.567c2.034-2.656 5.168-5.66 8.488-6.682a.463.463 0 00.258-.784.462.462 0 00-.305-.133.276.276 0 00-.243-.144l-.086.016a2.33 2.33 0 00-1.519-.118l-.478.09c-7.455 1.553-14.708 3.841-22.292 4.784-4.955.622-9.98.877-15.069 1.398-3.281-.71-7.068-.081-10.191.574a49.335 49.335 0 00-12.425 4.512 78.124 78.124 0 00-10.964 6.86l-1.927 1.481c-3.729 2.407-7.355 4.958-10.861 7.475-4.355 3.121-8.713 6.294-12.962 9.572l-2.646 1.897a61.369 61.369 0 00-11.058 9.313 37.495 37.495 0 00-9.264 23.864c-.026 1.134-.04 2.266-.069 3.387-.338 2.766-.571 5.55-.753 8.337a12.425 12.425 0 00-.593 3.562.462.462 0 00.034.184l-.115.795a24.722 24.722 0 00-.002 5.074l.122 1.246a36.332 36.332 0 00.749 8.838c.204 1.077.563 2.1.909 3.125a19.236 19.236 0 00-.764-.819 61.152 61.152 0 00-3.454-3.303 63.716 63.716 0 00-6.897-5.339c-1.9-1.39-3.808-2.753-5.636-4.17-.746-.657-1.522-1.335-2.178-2.124a63.95 63.95 0 00-5.979-6.248c-4.326-5.09-7.656-11.08-12.609-15.596-5.96-5.415-14.591-7.52-22.401-8.438l-1.836-.184c-16.813-2.648-34.947 1.791-51.238 5.31-6.91 1.488-14.1 2.496-20.52 5.5-5.22 2.436-10.152 6.263-12.044 11.873-.1.273.296.49.45.232l.196-.304.11-.02a26.357 26.357 0 017.699-2.145 25.714 25.714 0 018.202.982c5.192 1.362 9.934 3.964 14.898 5.928s10.338 2.48 15.725 3.196a43.621 43.621 0 0114.662 5.149c4.225 2.217 8.385 4.625 13 5.881 5.201 1.412 10.538.996 15.791.203 6.054-.919 12.103-1.926 18.153-2.933 4.992-.832 10.39-2.464 15.441-1.379 1.054.472 2.24.843 3.233 1.264a35.564 35.564 0 014.47 2.501 57.096 57.096 0 013.969 2.875c1.811 1.522 3.537 3.135 5.164 4.691a54.371 54.371 0 012.141 2.131 85.09 85.09 0 013.962 4.64 160.325 160.325 0 013.116 4.127c.514.702 1.003 1.409 1.504 2.113 2.218 6.213 4.318 12.474 7.041 18.477a14.959 14.959 0 005.605 6.282 28.693 28.693 0 013.423 2.534c.351.307.674.645.965 1.01a.252.252 0 00.144.226l.014.074.017.085.108.17c-2.341 2.841-8.068.261-10.591-1.138a20.293 20.293 0 01-7.595-7.211c-1.589-2.565-2.826-5.476-4.975-7.644a9.203 9.203 0 00-3.002-2.056c-1.882-.76-3.892-.455-5.786-.413-6.009.15-10.416-4.494-14.844-7.917a24.994 24.994 0 00-7.415-4.251 21.025 21.025 0 00-11.12-.049c-2.846.641-5.641 1.488-8.45 2.262-3.208.608-6.397 1.314-9.596 1.971-3.561.484-7.132.781-10.722 1.182a.559.559 0 00-.507.401c-3.623.09-7.232-.545-10.835-.75a24.512 24.512 0 00-10.827 1.495 41.277 41.277 0 00-9.776 6.241c-2.774 2.162-5.519 4.344-8.194 6.627a65.816 65.816 0 00-13.404 14.869 40.635 40.635 0 00-4.494 10.416c-1.179 4.219-2.01 8.536-3.35 12.71a55.157 55.157 0 01-12.591 21.095.71.71 0 00-.174.287l-.172.032c-.492-.122-.583.669-.073.75zm116.509 55.452c-2.26-7.106-7.785-13.301-8.326-20.974-.361-5.183 2.008-10.084 1.68-15.298a65.962 65.962 0 01-.471-8.168c.155-2.59.678-5.146 1.555-7.588 3.433-9.529 12.051-15.856 21.046-19.793a46.28 46.28 0 0116.326-4.135c4.854-.222 9.695.293 14.542.503a31.998 31.998 0 00-8.764 5.289 54.571 54.571 0 00-2.74 2.473c-2.071-1.091-4.779-.857-7.03-.621a57.63 57.63 0 00-7.735 1.619c-2.715.666-5.46 1.174-8.169 1.802a67.017 67.017 0 00-8.063 2.429c-.147.027-.062.278.048.257 2.717-.591 5.445-1.121 8.159-1.724 2.533-.557 5.09-1.117 7.665-1.453 2.574-.336 4.934-.733 7.416-1.025a27.855 27.855 0 013.851-.223c.892.021 1.788.13 2.672.178-2.328 2.306-4.542 4.743-6.858 7.046a45.94 45.94 0 01-2.854 2.609 38.251 38.251 0 00-14.026.946 33.647 33.647 0 00-6.5 1.777c-.976.433-1.899.978-2.749 1.625a32.464 32.464 0 00-2.572 2.555.121.121 0 00-.028.081c0 .029.011.058.03.08.02.022.046.037.076.041a.131.131 0 00.084-.017 21.538 21.538 0 016.064-3.471 45.584 45.584 0 016.369-1.397 46.973 46.973 0 0111.839-.976 88.618 88.618 0 01-8.504 5.722 35.25 35.25 0 00-7.529 5.714c-3.868 1.342-7.786 3.759-9.699 7.318-.047.085.035.183.124.116a53.4 53.4 0 015.464-4.296 21.206 21.206 0 012.631-1.374 17.426 17.426 0 00-1.491 2.439 26.454 26.454 0 00-2.455 12.477 28.394 28.394 0 00-5.612 11.477.113.113 0 00-.021.049.119.119 0 00.032.098.12.12 0 00.099.031.123.123 0 00.048-.022.11.11 0 00.033-.041.104.104 0 00.011-.052 54.154 54.154 0 015.468-9.496c.284 6.047 1.322 12.192.426 18.108-.461 2.383-1.27 4.807-1.562 7.285zm31.305-140.649a61.441 61.441 0 00-7.343-8.159 44.422 44.422 0 00-8.36-6.165 39.049 39.049 0 00-1.529-.839l-.376-.246a20.92 20.92 0 00-6.602-2.845 22.81 22.81 0 00-8.143.135c-6.317.935-12.625 1.894-18.924 2.877-5.902.916-11.987 2.272-17.985 1.544-5.317-.615-10.087-3.161-14.718-5.645-4.63-2.483-8.943-4.824-13.94-5.893-5.646-1.213-11.39-1.14-16.91-2.96-5.86-1.933-11.258-5.12-17.26-6.608-4.31-1.06-10.452-1.609-14.455.964a27.542 27.542 0 0110.056-8.045c5.67-2.673 11.953-3.852 18.078-5 12.366-2.344 24.79-5.054 37.361-5.915a84.846 84.846 0 014.683-.19c.982.097 1.97.122 2.956.074a75.12 75.12 0 014.131.181l1.702.147a51.098 51.098 0 0118.759 5.614 42.592 42.592 0 0112.317 10.248c3.624 4.26 6.755 8.867 10.93 12.629a48.722 48.722 0 003.984 3.151 43.892 43.892 0 006.237 4.665 101.198 101.198 0 018.143 5.953c1.348 1.089 2.646 2.251 3.942 3.4.347.29.825.871 1.336 1.294.83 2.037 1.766 4.029 2.64 6.032.242.538.471 1.078.7 1.618-.48-.658-.92-1.31-1.41-2.016zM40.532 192.246c2.831-6.878 3.483-14.612 6.482-21.408 2.785-6.388 7.458-11.713 12.593-16.34 2.612-2.346 5.388-4.496 8.181-6.624 2.793-2.127 5.752-4.451 8.82-6.403a22.115 22.115 0 0111.33-3.86c3.848-.107 7.725.604 11.496.827a50.88 50.88 0 0011.959-.744c4.016-.762 8.005-1.733 12.019-2.57a93.313 93.313 0 0110.59-1.678 27.712 27.712 0 0110.695.814c.823.27 1.627.596 2.405.977a50.384 50.384 0 012.008 1.561c3.769 3.09 7.704 6.784 12.574 7.649l.411.163c1.878.672 3.781.945 5.717 1.453a13.739 13.739 0 014.919 2.53 15.17 15.17 0 012.694 2.635 30.996 30.996 0 003.175 4.84 21.923 21.923 0 009.608 6.525c2.231.731 5.545 1.485 7.849.389a16.46 16.46 0 001.859-.428.516.516 0 00.388-.429l-.016-.086a.287.287 0 00.119-.175c.568-2.022-2.638-4.345-4.023-5.363l-1.681-1.242a22.857 22.857 0 01-3.195-3.872c-1.231-2.011-1.598-4.618-2.662-6.75-2.015-5.745-4.51-11.347-6.878-16.948-2.984-7.045-6.36-14.015-6.335-21.846a165.69 165.69 0 011.219-18.864 66.684 66.684 0 014.109-17.267 41.246 41.246 0 0111.05-15.312c5.233-4.644 11.025-8.748 16.654-12.91 2.004-1.47 4.011-2.93 6.047-4.368a20.394 20.394 0 004.042-2.63l1.864-1.407c2.03-1.336 4.092-2.64 6.177-3.885 6.11-3.695 12.588-7.193 19.458-9.092 7.978-2.21 16.31-2.216 24.463-3.368a100.318 100.318 0 0018.981-4.587l1.912-.553.122-.023c-3.686 1.967-6.515 5.776-8.549 9.23-2.969 5.218-4.742 10.92-7.029 16.452-2.287 5.532-5.337 11.26-10.753 14.405-3.049 1.846-6.605 2.355-9.778 3.883a19.15 19.15 0 00-6.065 4.675c-3.528 4.005-5.641 8.985-7.964 13.725a41.37 41.37 0 01-11.578 14.599c-5.709 4.545-12.036 8.37-18.116 12.427-5.756 3.83-11.817 7.453-17.141 11.886-5.139 4.272-9.252 9.808-9.37 16.744a31.315 31.315 0 008.014 20.398.583.583 0 00.484.213 16.475 16.475 0 002.102 1.453c3.024 2.103 6.527 3.722 9.46 5.741 3.366 2.305 5.656 5.486 8.519 8.342a14.55 14.55 0 005.948 3.946c1.03.497 2.103.897 3.207 1.193.15.031.306.023.452-.022.743.303 1.153-.612.784-1.151a8.565 8.565 0 01-1.376-4.584 20.85 20.85 0 01.638-3.66 19.886 19.886 0 00.904-7.68 14.11 14.11 0 00-5.941-9.591 14.627 14.627 0 01-3.965-4.322c-1.441-2.784-1.074-6.469-1.194-9.515-.14-3.348-.265-6.685-.425-10.067-.126-3.007-.396-6.038-.309-9.061a18.212 18.212 0 016.387-13.146c3.369-2.3 6.804-4.65 10.068-7.109a42.116 42.116 0 0012.066-13.36c2.515-4.535 4.56-9.4 7.449-13.702a21.03 21.03 0 015.279-5.605c2.799-1.964 6.159-2.639 9.3-3.868a18.39 18.39 0 001.706-.768c-.021.36.271.76.664.623a41.122 41.122 0 0114.137-1.767c5.028.227 9.978 1.318 15.001 1.584a41.19 41.19 0 0014.459-1.473c2.734-.899 5.29-2.537 8.236-2.652 2.034-.04 4.06.254 5.999.867a53.628 53.628 0 006.99 3.419 26.285 26.285 0 006.586 1.288 40.307 40.307 0 00-14.097 7.264c-6.5 5.19-10.47 12.284-13.781 19.773-3.417 7.738-6.504 15.54-12.1 22.017a48.946 48.946 0 01-20.38 13.934c-3.979 1.427-8.522 1.882-11.807 4.623-3.286 2.741-5.47 6.478-8.52 9.39a44.861 44.861 0 01-22.81 11.553 5.481 5.481 0 00-3.957 2.475 24.766 24.766 0 00-2.093 5.623 28.17 28.17 0 00-1.431 12.524l.151.795c.231 1.7.604 3.377 1.115 5.015a11.415 11.415 0 004.386 5.942 42.916 42.916 0 0015.996 6.633l1.31.22a37.814 37.814 0 015.892 1.776 23.323 23.323 0 014.105 2.38c1.064 1.066 2.043 2.149 3.117 3.062a23.79 23.79 0 005.876 3.566 28.133 28.133 0 006.343 2.882c2.154.657 4.328 1.222 6.457 1.947a27.77 27.77 0 016.806 4.253 13.877 13.877 0 01-4.041 9.531c-1.479-6.062-7.741-8.921-12.887-11.51-6.471-3.225-12.067-7.72-18.2-11.504-5.633-3.486-11.915-5.847-18.585-4.9-3.892.69-7.743 1.593-11.536 2.707-3.857.998-7.738 1.936-11.543 3.076a41.902 41.902 0 00-9.87 4.205 59.937 59.937 0 00-8.209 6.211l-1.346 1.193a21.176 21.176 0 01-2.922 1.582c-1.905.792-3.871 1.393-5.816 2.041-3.401 1.126-7.782 2.502-9.722 5.787a.226.226 0 10.337.304 25.54 25.54 0 015.278-3.537 50.842 50.842 0 015.809-2.141c1.479-.496 2.943-1.002 4.374-1.616-3.379 3.051-6.693 6.178-9.859 9.479-3.684 2.246-7.537 4.067-11.438 5.974a64.931 64.931 0 00-6.439 3.503 16.452 16.452 0 00-5.225 4.555c-.106.172.063.33.257.217 2.085-1.448 3.928-3.167 6.112-4.494a79.27 79.27 0 016.684-3.614 78.921 78.921 0 008.242-4.365l-.569.615a79.43 79.43 0 00-8.035 10.136c-2.637 1.882-5.8 2.862-8.512 4.746a20.717 20.717 0 00-4.116 4.18 16.201 16.201 0 00-3.229 5.317c-.073.217.243.411.379.195 2.147-3.667 4.939-7.405 8.584-9.656 1.997-1.241 4.252-2.189 6.141-3.6a82.189 82.189 0 00-7.143 14.038c-.406.545-.84 1.068-1.302 1.566-1.102 1.211-2.282 2.348-3.384 3.559-1.859 2.039-3.699 4.506-3.939 7.393-.027.259.385.358.451.104a19.25 19.25 0 015.147-8.382c.738-.787 1.592-1.571 2.381-2.494-.754 2.046-1.447 4.08-2.028 6.232a79.829 79.829 0 00-3.047 21.062c-.071 4.245.211 8.49.845 12.688-1.232-2.151-2.712-4.204-3.901-6.262a24.175 24.175 0 01-2.915-7.146 18.24 18.24 0 01.215-8.235 39.247 39.247 0 001.167-8.161c.017-2.75-.11-5.499-.381-8.236-.453-5.33-.969-10.864.472-16.109a17.949 17.949 0 014.82-8.029l.135-.026a.531.531 0 00.425-.499 32.547 32.547 0 013.856-3.014c4.163-2.793 8.479-5.184 12.185-8.651 7.196-6.603 13.328-15.337 22.901-18.636a28.073 28.073 0 013.117-.883c5.099-.051 10.188-.46 15.23-1.225 4.824-.711 9.76-2.04 13.505-5.236a14.31 14.31 0 012.958-1.322c.615.099 1.232.211 1.847.373a.287.287 0 00.259-.505 2.69 2.69 0 00-.495-.338.433.433 0 00.037-.194.417.417 0 00-.192-.334.418.418 0 00-.186-.067 4.993 4.993 0 00-1.044.046 9.662 9.662 0 00-1.315-.245c-5.128-1.426-9.325-4.765-13.71-7.688-.481-.328-.983-.638-1.457-.993a4.414 4.414 0 01-.373-.297 5.741 5.741 0 00-2.48-1.508.335.335 0 00-.221.042 23.403 23.403 0 00-2.64-1.149 37.097 37.097 0 00-9.694-1.625 38.658 38.658 0 01-5.213-.737c-1.739-.406-3.399-1.068-5.092-1.571a13.623 13.623 0 00-8.621-.18c-6.122 2.099-10.207 7.718-16.197 10.109a92.072 92.072 0 01-10.768 2.879 36.914 36.914 0 00-9.21 3.94c-5.94 3.459-11.16 8.039-17.548 10.809-7.345 3.206-15.566 3.395-23.412 3.626-7.845.232-16.001.497-23.973.663-8.352.239-16.88.752-24.746 3.816-6.733 2.62-13.439 8.128-20.923 8.189a56.4 56.4 0 0010.436-16.742zm172.025-48.944a45.826 45.826 0 004.045 3.673 18.694 18.694 0 011.81 2.46 11.787 11.787 0 011.741 6.976c-.246 3.851-1.644 7.921-.565 11.674a57.167 57.167 0 01-7.229-6.823 41.415 41.415 0 00-10.055-7.544 36.652 36.652 0 01-10.853-7.874 31.52 31.52 0 01-3.826-5.528c-.881-1.57-1.386-3.301-2.196-4.898a24.27 24.27 0 01-.394-5.354c.236-6.387 3.663-11.323 8.367-15.348 5.066-4.321 10.894-7.836 16.382-11.603l1.785-1.226a16.972 16.972 0 00-2.396 4.893 26.789 26.789 0 00-.781 8.659c.151 3.409.339 6.81.54 10.21.2 3.399.286 6.997.601 10.464a11.723 11.723 0 003.024 7.189z" fill="#F8EDE7"/><path d="M181.68 115.504c1.32-4.207 2.45-8.417 3.961-12.559a90.98 90.98 0 012.385-5.817c3.132-.277 6.149.52 9.305.71a38.126 38.126 0 009.979-.89c.171-.033.113-.275-.049-.257a48.318 48.318 0 01-10.974-.013c-2.446-.26-5.078-1.092-7.614-1.093a79.652 79.652 0 012.585-5.031 57.21 57.21 0 013.265-5.122c1.09-.207 2.192-.416 3.31-.539a29.42 29.42 0 014.502.06c2.615.305 5.21.766 7.77 1.381 5.154 1.09 10.369 1.84 15.452.014.073-.014-.026-.135-.024-.122-5.693 1.814-11.691.148-17.304-1.16a58.369 58.369 0 00-7.348-1.36 19.438 19.438 0 00-5.227.066 81.984 81.984 0 0111.297-13.075c1.135.102 2.281-.344 3.465-.188 1.443.277 2.864.66 4.251 1.148a42.06 42.06 0 0022.483.507.2.2 0 00-.072-.38 47.103 47.103 0 01-16.704-.13c-2.811-.508-5.447-1.505-8.214-2.249a12.59 12.59 0 00-3.268-.51 106.87 106.87 0 0117.164-11.966 7.148 7.148 0 002-.151c.935-.064 1.873.001 2.79.194 1.817.353 3.523 1.12 5.294 1.634 3.295.987 6.054.49 9.268-.488-1.962.413-3.972.55-5.972.41a21.861 21.861 0 01-5.29-1.61 17.199 17.199 0 00-5.603-1.387l3.173-1.73c4.959-2.678 10.042-5.303 14.921-8.27 3.172-.601 6.286 1.244 9.492 1.296a14.95 14.95 0 008.288-2.18l-.018-.098a21.973 21.973 0 01-9.621 1.037c-1.95-.252-4.04-1.238-6.047-1.39a75.359 75.359 0 007.329-5.296 61.809 61.809 0 004.218-3.844 29.45 29.45 0 0012.673-2.402c.061-.012-.019-.098-.021-.11-2.131.404-4.261.808-6.405 1.138-1.8.277-3.597.364-5.393.527 2.129-2.154 4.102-4.392 6.141-6.618 3.553-3.87 7.378-7.448 12.371-9.346l-.017-.086M53.849 82.493a16.14 16.14 0 013.158.872c.479.184.944.4 1.392.65a33.63 33.63 0 00-3.474.747.212.212 0 10.08.416c1.514-.173 3.02-.394 4.527-.604l.139.062a.213.213 0 00.294-.119c1.236-.17 2.475-.33 3.661-.427-.984.364-1.937.823-2.867 1.266a23.31 23.31 0 00-4.354 2.461c-.073.014.028.147.087.124 1.52-.618 2.986-1.442 4.494-2.12 1.508-.68 2.925-1.1 4.296-1.83.318-.06.653-.035.97-.031a96.9 96.9 0 0110.35.397l.647.068c-1.844.577-3.668 1.329-5.441 1.944-2.81.964-5.552 2.093-8.28 3.155l.016.086c2.829-.866 5.701-1.639 8.526-2.53 2.488-.788 5.183-1.362 7.603-2.38a84.343 84.343 0 0113.733 3.194c-.943.382-1.883.84-2.803 1.204a59.973 59.973 0 01-5.89 1.915 58.395 58.395 0 01-11.363 1.951s0 0 0 0a45.91 45.91 0 0016.94-2.704 49.357 49.357 0 004.873-1.862 98.63 98.63 0 012.713.932c3.371 1.187 6.703 2.37 10.077 3.379l-.402.152c-1.693.638-3.359 1.347-5.05 1.998a28.95 28.95 0 01-11.365 2.407s0 0 0 0a24.84 24.84 0 0010.372-1.09c1.618-.497 3.2-1.05 4.765-1.627.959-.359 1.916-.73 2.899-1.031l.882-.167a64.198 64.198 0 008.217 1.727c2.411.343 4.808.674 7.187 1.048a24.34 24.34 0 00-3.079 1.624c-1.917 1.06-3.772 2.25-5.743 3.156a27.702 27.702 0 01-14.251 2.371c-.086.017-.102.134.025.135 4.541.81 9.212.465 13.585-1.002a39.79 39.79 0 006.376-3.099 34.79 34.79 0 013.139-1.571 6.233 6.233 0 002.525-1.202 87.445 87.445 0 0110.946 2.542l1.442.45a40.406 40.406 0 00-5.982 2.567 28.883 28.883 0 01-9.908 2.867l.012.062a19.985 19.985 0 004.395-.301 33.913 33.913 0 004.324-1.276c3.204-1.165 6.143-2.788 9.563-3.081a80.416 80.416 0 0117.222 8.151" stroke="#F8EDE7"/><path d="M39.062 200.68a18.888 18.888 0 006.235-2.374 72.947 72.947 0 005.96-3.349 78.92 78.92 0 007.656-5.447c-.009.624.073 1.255.057 1.841-.055 1.381-.108 2.773-.188 4.158.023.123.17.158.224.047a11.646 11.646 0 001.151-4.1 6.617 6.617 0 00-.068-2.904 87.658 87.658 0 002.05-1.759c3.367-2.984 6.403-6.376 9.797-9.277-1.289 2.033-1.458 5.02-1.661 7.228-.277 3.223-.336 7.128-2.292 9.858-.081.105.049.257.17.158 2.18-2.417 2.788-5.031 3.162-8.209.193-1.66.31-3.319.607-4.961a40.027 40.027 0 011.604-4.921.31.31 0 00-.07-.367 32.685 32.685 0 0111.713-5.327c3.5-.867 7.063-1.479 10.623-2.103a21.97 21.97 0 00-1.243 2.075 30.206 30.206 0 00-2.404 6.721 52.831 52.831 0 01-2.369 7.578 60.9 60.9 0 01-3.982 7.096.102.102 0 00.026.123.1.1 0 00.062.022.096.096 0 00.063-.021c3.623-3.033 5.6-7.86 6.82-12.328a50.234 50.234 0 012.206-7.166 15.562 15.562 0 011.801-3.144c.357-.461.897-.893 1.33-1.355l1.407-.267a283.309 283.309 0 0010.067-2.099 5.08 5.08 0 00.616-.028.488.488 0 00.322-.175c1.469-.278 2.93-.669 4.385-1.021 2.283-.535 4.56-1.106 6.836-1.677-2.805 4.007-4.275 8.763-5.791 13.414a51.56 51.56 0 01-3.313 8.352 22.396 22.396 0 01-2.349 3.667c-.888 1.133-1.981 2.063-2.857 3.193-.061.011.025.135.096.108 2.359-.941 4.147-3.551 5.43-5.684a42.408 42.408 0 003.432-7.588c1.961-5.446 3.478-11.428 7.324-15.962 6.519-1.68 13.011-3.43 19.529-5.11a25.855 25.855 0 00-5.134 11.323c-.29 1.552-.369 3.14-.805 4.655a14.933 14.933 0 01-2.004 4.084c-1.784 2.697-4.129 4.981-5.668 7.835 0 0 .03.159.109.106a45.776 45.776 0 005.966-6.8 15.707 15.707 0 003.332-7.113 35.394 35.394 0 012.203-8.117 25.89 25.89 0 014.275-6.556 43.02 43.02 0 0116.462-.812l.82.111c-2.609 1.763-4.037 5.065-5.361 7.853a60.855 60.855 0 01-2.951 5.911 20.848 20.848 0 01-1.708 2.43c-.71.87-1.629 1.577-2.303 2.44a.152.152 0 00.086.265c.04.003.08-.01.11-.035a10.632 10.632 0 003.671-3.652 40.992 40.992 0 003.046-4.94c.939-1.738 1.79-3.472 2.824-5.178 1.149-1.968 2.441-4.052 4.777-4.71l.098-.019a52.51 52.51 0 0112.18 4.033c.459.217.699-.526.264-.747a58.244 58.244 0 00-5.881-2.589 32.117 32.117 0 00-1.972-2.709 24.904 24.904 0 00-1.97-2.696 12.628 12.628 0 00-5.15-3.679c-.175-.055-.307.185-.149.282a15.38 15.38 0 015.351 4.542c.604.912 1.156 2.419 1.946 3.575a55.942 55.942 0 00-4.348-1.256.527.527 0 00-.597-.14 44.31 44.31 0 00-9.22-1.132 39.055 39.055 0 00-19.466-11.023c-.237-.044-.326.353-.088.41a34.76 34.76 0 0114.605 7.924c.966.882 1.888 1.862 2.891 2.737a32.55 32.55 0 00-2.923.237 31.662 31.662 0 00-4.139.784.58.58 0 00-.436-.269.584.584 0 00-.482.177l-.371.387c-3.329.771-6.629 1.764-9.893 2.611l-.698.133c-2.451-1.426-4.453-3.418-6.768-5.059a31.98 31.98 0 00-7.468-3.937 61.236 61.236 0 00-17.078-3.105.19.19 0 00-.158.168.187.187 0 00.125.193 75.03 75.03 0 0116.899 4.103 32.659 32.659 0 017.476 4.176 53.969 53.969 0 005.171 3.992l-8.182 2.071a.559.559 0 00-.185-.149.561.561 0 00-.464-.01.57.57 0 00-.192.141c-.093.095-.18.196-.259.303l-4.036.993a353.77 353.77 0 01-10.007 2.341 34.133 34.133 0 01-3.395-1.246 38.714 38.714 0 01-4.291-2.561 53.93 53.93 0 00-8.569-5.06 25.787 25.787 0 00-19.448-.69 29.672 29.672 0 0120.52 2.668 93.514 93.514 0 017.882 5.178 32.188 32.188 0 003.987 2.364l-2.449.465c-5.008.949-10.076 1.58-15.1 2.507a48.243 48.243 0 00-8.53 2.441 18.88 18.88 0 01-2.22-.467c-1.038-.323-2.045-.754-3.063-1.17a28.106 28.106 0 00-6.741-2.109 21.03 21.03 0 00-13.616 2.378.088.088 0 00-.015.135.089.089 0 00.045.025 25.772 25.772 0 0114.712-1.077c2.138.61 4.226 1.38 6.246 2.304.704.298 1.531.649 2.398.941-.876.408-1.73.862-2.558 1.36-3.963 2.375-7.145 5.73-10.339 9.025l-.958.968-.563.106c-.982.03-1.964-.026-2.936-.166a19.52 19.52 0 00-5.008-.053 14.106 14.106 0 00-8.198 4.522 16.684 16.684 0 019.876-3.368c1.672-.013 3.31.336 4.977.426l.359.021a76.577 76.577 0 01-8.96 7.533c-1.494.283-2.964.358-4.493.522a5.992 5.992 0 00-4.086 1.598.094.094 0 00-.036.058.09.09 0 00.14.088 15.175 15.175 0 015.216-.989l1.379-.02a77.19 77.19 0 01-5.944 3.574c-2.302 1.236-4.68 2.079-6.71 3.682-.161.081-.02.295.142.277zm185.468-53.306s.011.062 0 0c.702-2.987 1.307-6.019 1.99-9.04 2.723.981 5.527-1.288 7.85-2.414 2.884-1.383 6.357-2.397 9.461-1.21 0 0 .123-.023-.018-.098a11.444 11.444 0 00-7.882-.294c-3.076.9-5.986 3.151-9.245 3.021.266-1.142.532-2.283.812-3.414a.546.546 0 00.287-.828l-.016-.086a78.877 78.877 0 012.907-9.151 8.548 8.548 0 004.681.204 31.698 31.698 0 007.204-2.545 38.794 38.794 0 0117.754-2.896c-5.321-.704-10.557-1.094-15.723.761-2.6.936-5.056 2.302-7.749 3.016a13.413 13.413 0 01-3.838.499c-.571-.006-1.171-.159-1.74-.216.313-.757.631-1.489.985-2.228a63.115 63.115 0 0111.197-16.075c6.142 3.224 13.164 2.198 19.78 1.502a46.832 46.832 0 0110.819-.136 16.952 16.952 0 019.323 4.486c.092.084.221-.042.143-.116-3.677-5.213-11.41-6.259-17.271-5.934-7.322.385-14.835 2.038-21.862-.778a67.003 67.003 0 013.055-2.951 105.594 105.594 0 0112.431-9.7 27.571 27.571 0 008.834 1.775c3.103.231 6.22.2 9.318-.091 3.203-.303 6.323-.97 9.552-.466a36.502 36.502 0 019.215 3.047c.195.09.362-.233.177-.338a43.815 43.815 0 00-8.147-3.833 22.93 22.93 0 00-9.054-.39 61.802 61.802 0 01-9.887.302c-2.872-.166-5.709-.745-8.559-.99a168.353 168.353 0 017.482-4.628c3.906-2.275 7.904-4.403 11.892-6.516a23.58 23.58 0 0010.932 3.268c4.399.054 8.925-.627 12.872 1.796-2.7-2.798-6.84-3.028-10.515-3.08a24.923 24.923 0 01-6.793-.64 24.366 24.366 0 01-4.969-2.191c4.184-2.214 8.354-4.438 12.426-6.846 1.95-1.156 3.887-2.31 5.82-3.488l.161.11c1.744.772 4.333.04 6.108-.296a12.373 12.373 0 017.082.56 10.403 10.403 0 00-6.033-1.317c-1.156-.009-2.305-.045-3.464-.003-.679.027-1.417-.048-2.132-.078 2.203-1.356 4.407-2.712 6.589-4.115 4.531-2.863 9.492-5.731 14.99-4.896.315.054.432-.463.127-.532-4.304-.96-8.545.352-12.325 2.425-4.38 2.39-8.456 5.307-12.793 7.79a242.13 242.13 0 01-6.292 3.476c1.897-4.913 3.794-10.232 8.235-13.37.246-.173-.036-.589-.299-.437a16.798 16.798 0 00-6.164 6.09 38.836 38.836 0 00-3.711 8.592 1.244 1.244 0 00-.031.17c-3.369 1.768-6.759 3.489-10.147 5.222a.81.81 0 00-.799.405c-1.687.865-3.361 1.74-5.032 2.628a73.137 73.137 0 012.378-9.608 30.436 30.436 0 015.968-10.2s-.014-.074 0 0a21.632 21.632 0 00-6.76 9.234 45.178 45.178 0 00-3.077 11.402l-1.762.943a150.641 150.641 0 00-18.914 12.033c.013-1.335-.176-2.669-.187-3.998a43.966 43.966 0 01.247-4.854 48.657 48.657 0 012.184-9.89 47.985 47.985 0 014.119-9.05c1.678-2.855 3.684-5.455 5.594-8.163-5.436 3.91-9.083 10.499-11.34 16.66a43.277 43.277 0 00-2.312 9.887 45.59 45.59 0 00-.268 5.277 17.422 17.422 0 00.443 5.078c-.004.08.011.16.044.233a75.755 75.755 0 00-15.053 15.537 39.29 39.29 0 01.024-18.472c.437-1.846 1.477-3.92 1.433-5.827 0 0-.017-.086-.074.014-1.331 1.343-1.82 3.782-2.279 5.505a41.499 41.499 0 00-1.194 6.683 42.74 42.74 0 00.74 13.812.987.987 0 00.037.195 43.015 43.015 0 00-2.462 4.272 58.463 58.463 0 00-5.291 14.714c-5.031-8.876-6.521-18.88-6.018-29.072-.016-.085-.15-.123-.159.03-2.62 10.467.195 21.906 5.796 30.979a119.078 119.078 0 00-1.858 14.152z" fill="#F8EDE7"/></g><defs><clipPath id="clip0"><path transform="rotate(169.267 380.336 249.347)" fill="#fff" d="M380.336 249.347h339.001v253.787H380.336z"/></clipPath></defs></svg>