<svg width="381" height="313" viewBox="0 0 381 313" fill="none" xmlns="http://www.w3.org/2000/svg">
<g clip-path="url(#clip0)">
<path d="M28.07 209.677L28.6826 209.764C28.7483 209.803 28.8216 209.827 28.8975 209.834C28.9735 209.842 29.0501 209.832 29.1221 209.807C35.7758 210.449 41.5488 207.046 47.368 204.154C54.3576 200.869 61.9422 199.038 69.6611 198.774C77.5948 198.273 85.5771 198.294 93.5106 198.059C101.089 197.891 108.908 198.121 116.416 196.647C123.493 195.306 129.314 191.754 135.189 187.749C138.058 185.728 141.052 183.89 144.153 182.245C147.499 180.681 151.011 179.5 154.622 178.725C157.996 178.023 161.243 176.813 164.254 175.137C166.843 173.542 169.149 171.52 171.597 169.711C174.044 167.903 177.146 165.932 180.493 165.856C183.84 165.78 187.17 167.622 190.555 168.35C194.286 169.165 198.129 169.033 201.877 169.73C205.22 170.463 208.389 171.84 211.206 173.784L211.799 174.166L213.096 175.188C214.721 176.466 216.35 177.768 218.096 178.883C219.203 179.621 220.379 180.248 221.609 180.754C220.99 181.105 220.395 181.498 219.828 181.929C218.661 182.654 217.45 183.307 216.203 183.884C213.716 185.061 211.072 185.874 208.353 186.298C205.609 186.742 202.916 186.39 200.162 186.582C199.772 186.612 199.386 186.685 199.011 186.8L198.225 186.531C197.579 186.409 196.917 186.41 196.272 186.533C195.485 186.706 194.682 186.799 193.876 186.81C192.997 186.717 192.124 186.577 191.26 186.392C189.629 186.197 187.978 186.224 186.354 186.473C185.571 186.621 184.775 186.772 183.953 186.788C181.483 186.673 179.003 186.636 176.516 186.765C170.939 187.159 165.477 188.538 160.381 190.838C151.576 194.574 143.017 200.344 138.586 209.086C136.308 213.61 135.253 218.65 135.523 223.708C135.89 226.481 136.056 229.277 136.018 232.074C135.788 234.743 135.012 237.338 134.607 239.952C133.781 245.499 135.574 250.676 138.096 255.551C140.533 259.876 142.71 264.343 144.615 268.927C145.028 271.152 145.79 273.297 146.872 275.285C148.164 277.881 149.779 280.315 151.277 282.796C152.566 284.911 153.752 287.223 154.979 289.413C155.216 290.192 155.462 290.957 155.743 291.703C155.869 292.034 156.336 291.819 156.302 291.508C155.99 288.524 155.465 285.554 155.141 282.571C154.816 279.588 154.666 276.319 154.615 273.107C154.557 267.082 155.081 261.065 156.182 255.141C156.88 252.536 157.649 249.967 158.523 247.417C160.312 241.995 162.709 236.792 165.667 231.908C172.091 221.368 181.31 212.923 190.203 204.502C195.508 199.501 200.934 194.668 207.964 192.346C207.999 192.335 208.03 192.315 208.053 192.288C208.077 192.261 208.094 192.228 208.1 192.193C213.375 190.508 218.93 189.506 224.218 188.161C227.847 187.232 231.584 186.068 235.36 186.049C238.617 186.125 241.819 186.903 244.747 188.329C251.617 191.517 257.002 197.041 263.656 200.625C269.83 203.957 279.417 205.755 280.504 214.098C280.528 214.209 280.58 214.313 280.656 214.398C280.731 214.484 280.828 214.548 280.936 214.585C281.044 214.622 281.159 214.631 281.272 214.61C281.384 214.589 281.488 214.539 281.576 214.465C283.176 213.121 284.469 211.449 285.365 209.561C286.261 207.673 286.74 205.614 286.77 203.524C286.843 203.495 286.91 203.449 286.963 203.39C287.016 203.331 287.056 203.261 287.078 203.184C287.1 203.108 287.105 203.028 287.091 202.949C287.078 202.871 287.046 202.797 287 202.732C284.679 199.05 280.919 196.947 276.983 195.321C272.846 193.568 268.545 192.227 264.508 190.202C262.378 189.111 260.409 187.73 258.657 186.098C256.728 184.334 254.495 182.935 252.065 181.97C249.41 180.875 246.561 180.299 243.817 179.474C241.038 178.65 238.31 177.663 235.647 176.52C232.709 175.451 230.106 173.626 228.099 171.229C227.041 169.874 226.26 168.323 225.801 166.667C225.652 165.883 225.398 165.145 225.179 164.387C225.093 162.517 225.201 160.644 225.501 158.796C225.88 156.498 226.421 154.23 227.119 152.008C227.638 150.261 228.077 147.692 229.521 146.479C230.47 145.849 231.575 145.495 232.714 145.455C233.742 145.261 234.759 145.068 235.771 144.787C237.703 144.306 239.6 143.693 241.447 142.95C245.167 141.469 248.676 139.503 251.881 137.104C255.121 134.609 258.051 131.738 260.61 128.549C261.877 126.884 263.38 125.411 265.07 124.178C267.077 123.013 269.255 122.173 271.524 121.686C279.102 119.577 286.094 115.752 291.956 110.507C297.719 105.115 302.278 98.5671 305.336 91.292C308.679 83.8345 311.369 75.8791 316.596 69.4597C321.836 63.1426 329.006 58.7219 337.004 56.8776C338.959 56.4183 340.945 56.1939 342.938 55.9304C343.746 55.7772 343.709 54.5157 342.867 54.4852C339.743 54.609 336.615 54.3808 333.542 53.8047C331.629 53.3677 329.745 52.8141 327.9 52.1471L327.623 52.0221C324.269 50.3874 321.237 47.8419 317.508 47.1029C313.148 46.2549 309.582 49.1886 305.679 50.6133C303.554 51.3436 301.356 51.8411 299.124 52.0969C297.397 52.0858 295.674 51.9418 293.969 51.6661C288.883 50.867 283.668 50.118 278.519 49.7875C274.61 49.3487 270.653 49.8337 266.966 51.2036C269.435 49.0639 271.527 46.5235 273.152 43.6892C276.429 38.1594 278.493 32.1872 281.131 26.3601C282.469 23.3151 284.163 20.4394 286.178 17.7931C288.212 15.1372 291.346 12.1332 294.666 11.1108C294.779 11.0943 294.883 11.036 294.956 10.9472C295.029 10.8584 295.066 10.7456 295.06 10.6309C295.054 10.5161 295.005 10.4077 294.924 10.3269C294.842 10.246 294.733 10.1985 294.619 10.1938C294.595 10.1499 294.56 10.1134 294.517 10.088C294.474 10.0626 294.425 10.0493 294.376 10.0496L294.29 10.0658C293.811 9.85741 293.276 9.81587 292.771 9.94786L292.293 10.0384C284.838 11.5911 277.585 13.8791 270.001 14.8219C265.046 15.4442 260.021 15.6991 254.932 16.2198C251.651 15.5097 247.864 16.1388 244.741 16.7942C240.416 17.7337 236.237 19.2511 232.316 21.3056C228.478 23.2853 224.811 25.5799 221.352 28.1658L219.425 29.647C215.696 32.0536 212.07 34.6054 208.564 37.1218C204.209 40.243 199.851 43.4156 195.602 46.6944L192.956 48.5912C188.916 51.2491 185.204 54.3752 181.898 57.9044C176.106 64.5261 172.827 72.9732 172.634 81.7682C172.608 82.902 172.594 84.0335 172.565 85.1551C172.227 87.9208 171.994 90.7048 171.812 93.4917C171.442 94.644 171.242 95.8441 171.219 97.0541C171.218 97.117 171.229 97.1795 171.253 97.2377L171.138 98.0334C170.963 99.7201 170.963 101.42 171.136 103.107L171.258 104.353C171.146 107.318 171.397 110.286 172.007 113.191C172.211 114.268 172.57 115.291 172.916 116.316C172.675 116.045 172.419 115.764 172.152 115.497C171.047 114.349 169.887 113.25 168.698 112.194C166.524 110.259 164.219 108.475 161.801 106.855C159.901 105.465 157.993 104.102 156.165 102.685C155.419 102.028 154.643 101.35 153.987 100.561C152.137 98.3458 150.14 96.2581 148.008 94.3127C143.682 89.2221 140.352 83.2323 135.399 78.7171C129.439 73.302 120.808 71.1963 112.998 70.2793L111.162 70.0946C94.349 67.4471 76.2154 71.8863 59.9242 75.4055C53.0145 76.8929 45.8235 77.9008 39.4044 80.9059C34.1837 83.3415 29.252 87.1682 27.36 92.7779C27.2595 93.0506 27.6558 93.2673 27.8099 93.0097L28.006 92.7062L28.1162 92.6853C30.5585 91.5834 33.1545 90.8604 35.8147 90.5411C38.5839 90.4244 41.3537 90.756 44.017 91.5231C49.2093 92.8854 53.9515 95.4873 58.9153 97.451C63.879 99.4147 69.2533 99.9307 74.6403 100.647C79.7963 101.472 84.7623 103.216 89.3019 105.796C93.5275 108.013 97.6875 110.421 102.302 111.677C107.503 113.089 112.84 112.673 118.093 111.88C124.147 110.961 130.196 109.954 136.246 108.947C141.238 108.115 146.636 106.483 151.687 107.568C152.741 108.04 153.927 108.411 154.92 108.832C156.468 109.557 157.962 110.393 159.39 111.333C160.752 112.229 162.076 113.196 163.359 114.208C165.17 115.73 166.896 117.343 168.523 118.899C169.249 119.586 169.951 120.277 170.664 121.03C172.039 122.528 173.36 124.075 174.626 125.67C175.695 127.027 176.717 128.406 177.742 129.797C178.256 130.499 178.745 131.206 179.246 131.91C181.464 138.123 183.564 144.384 186.287 150.387C187.515 152.974 189.461 155.155 191.892 156.669C193.094 157.427 194.238 158.275 195.315 159.203C195.666 159.51 195.989 159.848 196.28 160.213C196.28 160.26 196.294 160.307 196.319 160.347C196.345 160.387 196.381 160.419 196.424 160.439L196.438 160.513L196.455 160.598L196.563 160.768C194.222 163.609 188.495 161.029 185.972 159.63C182.853 157.932 180.234 155.446 178.377 152.419C176.788 149.854 175.551 146.943 173.402 144.775C172.548 143.897 171.527 143.197 170.4 142.719C168.518 141.959 166.508 142.264 164.614 142.306C158.605 142.456 154.198 137.812 149.77 134.389C147.561 132.557 145.053 131.119 142.355 130.138C138.72 129.124 134.879 129.107 131.235 130.089C128.389 130.73 125.594 131.577 122.785 132.351C119.577 132.959 116.388 133.665 113.189 134.322C109.628 134.806 106.057 135.103 102.467 135.504C102.352 135.51 102.241 135.552 102.15 135.624C102.059 135.696 101.993 135.794 101.96 135.905C98.3368 135.995 94.7284 135.36 91.1254 135.155C87.4497 134.832 83.7483 135.343 80.2976 136.65C76.7614 138.26 73.4704 140.361 70.5219 142.891C67.7481 145.053 65.0034 147.235 62.3285 149.518C57.1285 153.762 52.6082 158.776 48.9245 164.387C46.9466 167.632 45.4337 171.138 44.43 174.803C43.251 179.022 42.4205 183.339 41.0807 187.513C38.5228 195.402 34.2187 202.612 28.4889 208.608C28.4089 208.688 28.3492 208.787 28.315 208.895L28.1435 208.927C27.651 208.805 27.56 209.596 28.07 209.677ZM144.579 265.129C142.319 258.023 136.794 251.828 136.253 244.155C135.892 238.972 138.261 234.071 137.933 228.857C137.607 226.147 137.45 223.419 137.462 220.689C137.617 218.099 138.14 215.543 139.017 213.101C142.45 203.572 151.068 197.245 160.063 193.308C165.206 190.943 170.74 189.541 176.389 189.173C181.243 188.951 186.084 189.466 190.931 189.676C187.745 190.957 184.786 192.743 182.167 194.965C181.226 195.752 180.318 196.584 179.427 197.438C177.356 196.347 174.648 196.581 172.397 196.817C169.785 197.179 167.2 197.72 164.662 198.436C161.947 199.102 159.202 199.61 156.493 200.238C153.757 200.878 151.064 201.689 148.43 202.667C148.283 202.694 148.368 202.945 148.478 202.924C151.195 202.333 153.923 201.803 156.637 201.2C159.17 200.643 161.727 200.083 164.302 199.747C166.876 199.411 169.236 199.014 171.718 198.722C172.995 198.559 174.282 198.484 175.569 198.499C176.461 198.52 177.357 198.629 178.241 198.677C175.913 200.983 173.699 203.42 171.383 205.723C170.455 206.647 169.503 207.513 168.529 208.332C163.835 207.778 159.08 208.099 154.503 209.278C152.282 209.651 150.105 210.247 148.003 211.055C147.027 211.488 146.104 212.033 145.254 212.68C144.35 213.483 143.491 214.336 142.682 215.235C142.663 215.258 142.653 215.287 142.654 215.316C142.654 215.345 142.665 215.374 142.684 215.396C142.704 215.418 142.73 215.433 142.76 215.437C142.789 215.441 142.818 215.435 142.844 215.42C144.663 213.941 146.711 212.768 148.908 211.949C150.995 211.332 153.123 210.865 155.277 210.552C159.166 209.727 163.144 209.399 167.116 209.576C164.394 211.646 161.555 213.556 158.612 215.298C155.857 216.856 153.325 218.778 151.083 221.012C147.215 222.354 143.297 224.771 141.384 228.33C141.337 228.415 141.419 228.513 141.508 228.446C143.234 226.897 145.059 225.462 146.972 224.15C147.816 223.631 148.695 223.172 149.603 222.776C149.04 223.547 148.541 224.363 148.112 225.215C146.291 229.113 145.449 233.395 145.657 237.692C142.939 241.042 141.019 244.967 140.045 249.169C140.034 249.184 140.027 249.2 140.024 249.218C140.022 249.236 140.023 249.254 140.029 249.271C140.034 249.288 140.044 249.303 140.056 249.316C140.069 249.328 140.085 249.338 140.102 249.343C140.119 249.348 140.137 249.35 140.155 249.347C140.172 249.343 140.189 249.336 140.203 249.325C140.217 249.314 140.229 249.3 140.236 249.284C140.244 249.268 140.248 249.25 140.247 249.232C141.744 245.89 143.576 242.708 145.715 239.736C145.999 245.783 147.037 251.928 146.141 257.844C145.68 260.227 144.871 262.651 144.579 265.129ZM175.884 124.48C173.685 121.547 171.227 118.816 168.541 116.321C166.005 113.946 163.199 111.877 160.181 110.156C159.683 109.87 159.173 109.586 158.652 109.317L158.276 109.071C156.256 107.749 154.022 106.786 151.674 106.226C148.973 105.782 146.215 105.828 143.531 106.361C137.214 107.296 130.906 108.255 124.607 109.238C118.705 110.154 112.62 111.51 106.622 110.782C101.305 110.167 96.5352 107.621 91.9042 105.137C87.2732 102.654 82.9609 100.313 77.9637 99.2437C72.3178 98.0308 66.5734 98.1049 61.0534 96.2847C55.1948 94.3511 49.7961 91.1634 43.7937 89.6756C39.4832 88.6154 33.3418 88.0672 29.3393 90.6397C32.0083 87.2011 35.4542 84.4441 39.3947 82.5947C45.065 79.9217 51.3485 78.7434 57.4727 77.5952C69.8391 75.2512 82.2629 72.5411 94.8343 71.6802C96.3873 71.5761 97.9473 71.5087 99.5166 71.4903C100.499 71.5871 101.487 71.6118 102.473 71.5641C103.849 71.595 105.227 71.6382 106.604 71.745L108.306 71.8916C114.863 72.5364 121.232 74.443 127.065 77.5064C131.782 80.1125 135.962 83.5898 139.382 87.7539C143.006 92.0138 146.137 96.6207 150.312 100.383C151.585 101.502 152.914 102.554 154.296 103.534C156.233 105.271 158.32 106.832 160.533 108.199C163.357 110.048 166.055 112.036 168.676 114.152C170.024 115.241 171.322 116.403 172.618 117.552C172.965 117.842 173.443 118.423 173.954 118.846C174.784 120.883 175.72 122.875 176.594 124.878C176.836 125.416 177.065 125.956 177.294 126.496C176.814 125.838 176.374 125.186 175.884 124.48ZM40.532 192.246C43.3631 185.368 44.0153 177.634 47.0142 170.838C49.7988 164.45 54.4718 159.125 59.607 154.498C62.2189 152.152 64.9951 150.002 67.7881 147.874C70.5812 145.747 73.5399 143.423 76.6074 141.471C79.9574 139.167 83.878 137.832 87.938 137.611C91.7861 137.504 95.6626 138.215 99.4341 138.438C103.436 138.662 107.45 138.412 111.393 137.694C115.409 136.932 119.398 135.961 123.412 135.124C126.907 134.362 130.443 133.802 134.002 133.446C137.586 133.018 141.219 133.295 144.697 134.26C145.52 134.53 146.324 134.856 147.102 135.237C147.781 135.743 148.448 136.251 149.11 136.798C152.879 139.888 156.814 143.582 161.684 144.447L162.095 144.61C163.973 145.282 165.876 145.555 167.812 146.063C169.606 146.564 171.28 147.425 172.731 148.593C173.735 149.356 174.64 150.241 175.425 151.228C176.33 152.937 177.393 154.557 178.6 156.068C181.157 159.067 184.477 161.321 188.208 162.593C190.439 163.324 193.753 164.078 196.057 162.982C196.684 162.876 197.305 162.732 197.916 162.554C198.016 162.53 198.107 162.476 198.177 162.399C198.246 162.323 198.29 162.227 198.304 162.125L198.288 162.039C198.348 161.998 198.391 161.936 198.407 161.864C198.975 159.842 195.769 157.519 194.384 156.501L192.703 155.259C191.499 154.09 190.428 152.791 189.508 151.387C188.277 149.376 187.91 146.769 186.846 144.637C184.831 138.892 182.336 133.29 179.968 127.689C176.984 120.644 173.608 113.674 173.633 105.843C173.68 99.537 174.087 93.2389 174.852 86.9794C175.446 81.0662 176.828 75.2588 178.961 69.7116C181.411 63.8222 185.193 58.5812 190.011 54.4005C195.244 49.7557 201.036 45.6517 206.665 41.4898C208.669 40.0191 210.676 38.5606 212.712 37.122C214.159 36.4081 215.515 35.525 216.754 34.4913L218.618 33.0851C220.648 31.7491 222.71 30.4451 224.795 29.2001C230.905 25.505 237.383 22.0067 244.253 20.1084C252.231 17.8986 260.563 17.892 268.716 16.7398C275.177 15.8317 281.534 14.2954 287.697 12.1527L289.609 11.6L289.731 11.5768C286.045 13.5439 283.216 17.3526 281.182 20.8077C278.213 26.0253 276.44 31.7266 274.153 37.2591C271.866 42.7915 268.816 48.5191 263.4 51.6639C260.351 53.5103 256.795 54.0195 253.622 55.5469C251.306 56.6813 249.243 58.2717 247.557 60.2225C244.029 64.2271 241.916 69.2065 239.593 73.9466C236.894 79.6304 232.934 84.6236 228.015 88.546C222.306 93.0908 215.979 96.9157 209.899 100.973C204.143 104.803 198.082 108.426 192.758 112.859C187.619 117.131 183.506 122.667 183.388 129.603C183.515 137.145 186.361 144.389 191.402 150.001C191.46 150.072 191.534 150.128 191.619 150.165C191.703 150.202 191.794 150.219 191.886 150.214C192.548 150.752 193.251 151.238 193.988 151.667C197.012 153.77 200.515 155.389 203.448 157.408C206.814 159.713 209.104 162.894 211.967 165.75C213.591 167.539 215.636 168.895 217.915 169.696C218.945 170.193 220.018 170.593 221.122 170.889C221.272 170.92 221.428 170.912 221.574 170.867C222.317 171.17 222.727 170.255 222.358 169.716C221.473 168.35 220.996 166.76 220.982 165.132C221.085 163.896 221.299 162.671 221.62 161.472C222.421 158.996 222.728 156.387 222.524 153.792C222.247 151.871 221.576 150.027 220.554 148.377C219.532 146.726 218.18 145.305 216.583 144.201C214.983 143.043 213.634 141.572 212.618 139.879C211.177 137.095 211.544 133.41 211.424 130.364C211.284 127.016 211.159 123.679 210.999 120.297C210.873 117.29 210.603 114.259 210.69 111.236C210.789 108.723 211.408 106.257 212.507 103.995C213.607 101.732 215.162 99.7218 217.077 98.0901C220.446 95.7899 223.881 93.4391 227.145 90.9814C232.083 87.4496 236.199 82.8921 239.211 77.6212C241.726 73.0858 243.771 68.2206 246.66 63.9187C248.06 61.7415 249.849 59.8414 251.939 58.3138C254.738 56.35 258.098 55.675 261.239 54.4455C261.82 54.2188 262.39 53.9627 262.945 53.6781C262.924 54.0372 263.216 54.4385 263.609 54.3007C268.182 52.8939 272.967 52.296 277.746 52.5342C282.774 52.7608 287.724 53.8519 292.747 54.1175C297.616 54.4877 302.512 53.9892 307.206 52.6451C309.94 51.7463 312.496 50.1076 315.442 49.993C317.476 49.9538 319.502 50.2466 321.441 50.86C323.685 52.1675 326.022 53.3101 328.431 54.2788C330.563 54.988 332.776 55.421 335.017 55.5672C329.884 57.0308 325.092 59.4998 320.92 62.8309C314.42 68.0203 310.45 75.1146 307.139 82.6042C303.722 90.3421 300.635 98.1444 295.039 104.621C289.548 110.931 282.531 115.728 274.659 118.555C270.68 119.982 266.137 120.437 262.852 123.178C259.566 125.919 257.382 129.656 254.332 132.568C248.011 138.55 240.085 142.564 231.522 144.121C230.721 144.217 229.951 144.489 229.267 144.917C228.583 145.344 228.002 145.918 227.565 146.596C226.642 148.379 225.939 150.267 225.472 152.219C224.055 156.232 223.566 160.513 224.041 164.743C224.092 165.012 224.143 165.281 224.192 165.538C224.423 167.238 224.796 168.915 225.307 170.553C226.07 172.965 227.613 175.055 229.693 176.495C234.519 179.77 239.962 182.027 245.689 183.128L246.999 183.348C249.008 183.779 250.979 184.373 252.891 185.124C254.337 185.776 255.712 186.573 256.996 187.504C258.06 188.57 259.039 189.653 260.113 190.566C261.889 192.033 263.868 193.234 265.989 194.132C267.976 195.352 270.107 196.32 272.332 197.014C274.486 197.671 276.66 198.236 278.789 198.961C281.252 200.042 283.544 201.474 285.595 203.214C285.528 206.793 284.08 210.208 281.554 212.745C280.075 206.683 273.813 203.824 268.667 201.235C262.196 198.01 256.6 193.515 250.467 189.731C244.834 186.245 238.552 183.884 231.882 184.831C227.99 185.521 224.139 186.424 220.346 187.538C216.489 188.536 212.608 189.474 208.803 190.614C205.347 191.587 202.029 193 198.933 194.819C196.024 196.65 193.277 198.728 190.724 201.03L189.378 202.223C188.447 202.826 187.47 203.355 186.456 203.805C184.551 204.597 182.585 205.198 180.64 205.846C177.239 206.972 172.858 208.348 170.918 211.633C170.878 211.678 170.857 211.737 170.86 211.797C170.863 211.857 170.89 211.913 170.934 211.953C170.979 211.994 171.038 212.015 171.098 212.012C171.158 212.009 171.214 211.982 171.255 211.937C172.86 210.543 174.633 209.355 176.533 208.4C178.424 207.569 180.364 206.854 182.342 206.259C183.821 205.763 185.285 205.257 186.716 204.643C183.337 207.694 180.023 210.821 176.857 214.122C173.173 216.368 169.32 218.189 165.419 220.096C163.209 221.141 161.059 222.311 158.98 223.599C156.935 224.729 155.154 226.281 153.755 228.154C153.649 228.326 153.818 228.484 154.012 228.371C156.097 226.923 157.94 225.204 160.124 223.877C162.308 222.55 164.485 221.389 166.808 220.263C169.639 218.972 172.391 217.514 175.05 215.898L174.481 216.513C171.532 219.668 168.844 223.057 166.446 226.649C163.809 228.531 160.646 229.511 157.934 231.395C156.371 232.586 154.985 233.993 153.818 235.575C152.408 237.122 151.312 238.928 150.589 240.892C150.516 241.109 150.832 241.303 150.968 241.087C153.115 237.42 155.907 233.682 159.552 231.431C161.549 230.19 163.804 229.242 165.693 227.831C162.868 232.271 160.476 236.972 158.55 241.869C158.144 242.414 157.71 242.937 157.248 243.435C156.146 244.646 154.966 245.783 153.864 246.994C152.005 249.033 150.165 251.5 149.925 254.387C149.898 254.646 150.31 254.745 150.376 254.491C151.337 251.299 153.11 248.41 155.523 246.109C156.261 245.322 157.115 244.538 157.904 243.615C157.15 245.661 156.457 247.695 155.876 249.847C153.925 256.7 152.9 263.784 152.829 270.909C152.758 275.154 153.04 279.399 153.674 283.597C152.442 281.446 150.962 279.393 149.773 277.335C148.425 275.125 147.441 272.712 146.858 270.189C146.301 267.463 146.374 264.647 147.073 261.954C147.747 259.282 148.139 256.547 148.24 253.793C148.257 251.043 148.13 248.294 147.859 245.557C147.406 240.227 146.89 234.693 148.331 229.448C149.199 226.392 150.862 223.622 153.151 221.419L153.286 221.393C153.402 221.369 153.507 221.307 153.584 221.216C153.661 221.126 153.706 221.013 153.711 220.894C154.919 219.794 156.207 218.787 157.567 217.88C161.73 215.087 166.046 212.696 169.752 209.229C176.948 202.626 183.08 193.892 192.653 190.593C193.674 190.239 194.715 189.944 195.77 189.71C200.869 189.659 205.958 189.25 211 188.485C215.824 187.774 220.76 186.445 224.505 183.249C225.438 182.698 226.43 182.254 227.463 181.927C228.078 182.026 228.695 182.138 229.31 182.3C229.375 182.324 229.447 182.322 229.512 182.297C229.576 182.271 229.629 182.223 229.661 182.161C229.693 182.099 229.701 182.028 229.684 181.96C229.667 181.893 229.626 181.834 229.569 181.795C229.417 181.664 229.251 181.551 229.074 181.457C229.101 181.396 229.114 181.329 229.111 181.263C229.107 181.196 229.088 181.131 229.055 181.073C229.022 181.015 228.975 180.965 228.919 180.929C228.863 180.892 228.799 180.869 228.733 180.862C228.384 180.841 228.034 180.856 227.689 180.908C227.256 180.796 226.817 180.714 226.374 180.663C221.246 179.237 217.049 175.898 212.664 172.975C212.183 172.647 211.681 172.337 211.207 171.982C211.078 171.89 210.953 171.791 210.834 171.685C210.15 170.978 209.296 170.459 208.354 170.177C208.278 170.165 208.2 170.18 208.133 170.219C207.278 169.782 206.396 169.399 205.493 169.07C202.348 168.101 199.088 167.554 195.799 167.445C194.047 167.318 192.305 167.072 190.586 166.708C188.847 166.302 187.187 165.64 185.494 165.137C182.715 164.145 179.69 164.082 176.873 164.957C170.751 167.056 166.666 172.675 160.676 175.066C157.148 176.242 153.552 177.204 149.908 177.945C146.673 178.834 143.575 180.159 140.698 181.885C134.758 185.344 129.538 189.924 123.15 192.694C115.805 195.9 107.584 196.089 99.7385 196.32C91.8931 196.552 83.7369 196.817 75.765 196.983C67.4135 197.222 58.8857 197.735 51.0191 200.799C44.2861 203.419 37.5802 208.927 30.0957 208.988C34.5309 204.064 38.0636 198.397 40.532 192.246ZM212.557 143.302C213.831 144.606 215.182 145.832 216.602 146.975C217.271 147.744 217.877 148.567 218.412 149.435C219.705 151.522 220.313 153.961 220.153 156.411C219.907 160.262 218.509 164.332 219.588 168.085C216.985 166.025 214.566 163.742 212.359 161.262C209.411 158.25 206.02 155.707 202.304 153.718C198.233 151.783 194.554 149.114 191.451 145.844C189.982 144.143 188.7 142.29 187.625 140.316C186.744 138.746 186.239 137.015 185.429 135.418C185.1 133.653 184.968 131.858 185.035 130.064C185.271 123.677 188.698 118.741 193.402 114.716C198.468 110.395 204.296 106.88 209.784 103.113L211.569 101.887C210.512 103.378 209.703 105.031 209.173 106.78C208.443 109.605 208.179 112.529 208.392 115.439C208.543 118.848 208.731 122.249 208.932 125.649C209.132 129.048 209.218 132.646 209.533 136.113C209.691 138.784 210.758 141.321 212.557 143.302Z" fill="#F8EDE7"/>
<path d="M181.68 115.504C183 111.297 184.13 107.087 185.641 102.945C186.372 100.98 187.159 99.0423 188.026 97.1275C191.158 96.8511 194.175 97.6489 197.331 97.8371C200.682 97.9809 204.037 97.6818 207.31 96.9477C207.481 96.9152 207.423 96.6726 207.261 96.6906C203.614 97.1031 199.933 97.0989 196.287 96.6779C193.841 96.4186 191.209 95.5856 188.673 95.5845C189.48 93.8671 190.342 92.1901 191.258 90.5536C192.174 88.9172 193.262 87.2099 194.523 85.4319C195.613 85.2253 196.715 85.0165 197.833 84.8933C199.333 84.7984 200.838 84.8184 202.335 84.9533C204.95 85.2581 207.545 85.7192 210.105 86.3342C215.259 87.4248 220.474 88.1739 225.557 86.348C225.63 86.3341 225.531 86.2133 225.533 86.2256C219.84 88.0404 213.842 86.3743 208.229 85.0664C205.811 84.4566 203.356 84.0025 200.881 83.7068C199.144 83.4929 197.386 83.5147 195.654 83.7715C198.949 79.0275 202.735 74.6449 206.951 70.6969C208.086 70.7987 209.232 70.3532 210.416 70.5093C211.859 70.7863 213.28 71.1699 214.667 71.6569C221.976 73.8636 229.749 74.039 237.15 72.1643C237.19 72.1455 237.223 72.1139 237.243 72.0745C237.263 72.0351 237.27 71.9901 237.261 71.9466C237.253 71.9031 237.231 71.8636 237.197 71.8343C237.164 71.805 237.122 71.7875 237.078 71.7847C231.547 72.7364 225.89 72.6919 220.374 71.6532C217.563 71.1459 214.927 70.149 212.16 69.405C211.098 69.0922 209.999 68.9209 208.892 68.8955C214.208 64.3547 219.957 60.3465 226.056 56.9285C226.726 56.9724 227.4 56.9216 228.056 56.7775C228.991 56.7139 229.929 56.7793 230.846 56.9718C232.663 57.325 234.369 58.0925 236.14 58.6065C239.435 59.5928 242.194 59.0951 245.408 58.1181C243.446 58.5306 241.436 58.6683 239.436 58.5272C237.611 58.2165 235.834 57.6754 234.146 56.9171C232.37 56.1427 230.475 55.6741 228.543 55.531L231.716 53.8008C236.675 51.1231 241.758 48.498 246.637 45.5311C249.809 44.93 252.923 46.7749 256.129 46.8267C259.046 46.9242 261.927 46.1665 264.417 44.6469C264.417 44.6469 264.396 44.5367 264.399 44.549C261.309 45.6054 258.022 45.9597 254.778 45.5862C252.828 45.3343 250.738 44.3479 248.731 44.1957C251.278 42.5787 253.725 40.8102 256.06 38.8998C257.541 37.6804 258.933 36.3893 260.278 35.0561C264.628 35.2017 268.956 34.3814 272.951 32.6541C273.012 32.6424 272.932 32.5561 272.93 32.5439C270.799 32.9477 268.669 33.3515 266.525 33.6819C264.725 33.9595 262.928 34.0465 261.132 34.2093C263.261 32.0555 265.234 29.817 267.273 27.5914C270.826 23.7215 274.651 20.1427 279.644 18.245L279.627 18.1593" stroke="#F8EDE7"/>
<path d="M53.8485 82.4929C54.9284 82.6755 55.9868 82.9679 57.0073 83.3654C57.4858 83.5489 57.9508 83.7659 58.3988 84.0149C57.2287 84.2026 56.0693 84.452 54.9255 84.7621C54.8703 84.7725 54.8215 84.8045 54.7899 84.8509C54.7582 84.8974 54.7463 84.9545 54.7568 85.0097C54.7673 85.0649 54.7992 85.1136 54.8457 85.1453C54.8921 85.1769 54.9492 85.1888 55.0044 85.1783C56.5191 85.0054 58.0244 84.7835 59.5321 84.5738L59.6708 84.6363C59.6977 84.6497 59.7271 84.6573 59.7571 84.6585C59.7872 84.6596 59.8171 84.6544 59.8449 84.6431C59.8728 84.6318 59.8979 84.6148 59.9187 84.593C59.9394 84.5713 59.9553 84.5454 59.9653 84.5171C61.2013 84.3462 62.4396 84.1876 63.626 84.0895C62.6422 84.4536 61.6893 84.9132 60.7585 85.356C59.2233 86.018 57.7638 86.8432 56.4052 87.8174C56.3317 87.8314 56.4331 87.9644 56.492 87.9405C58.0111 87.3228 59.4785 86.4992 60.986 85.8203C62.4935 85.1413 63.9105 84.7205 65.2816 83.9913C65.6 83.931 65.9345 83.9564 66.2522 83.9596C69.7066 83.9076 73.1613 84.0403 76.6015 84.357L77.2485 84.4246C75.4047 85.0024 73.5812 85.754 71.8079 86.3691C68.9972 87.3332 66.2558 88.4616 63.5273 89.5242C63.5273 89.5242 63.5458 89.6222 63.5435 89.6099C66.3727 88.7439 69.245 87.9711 72.0696 87.0806C74.5583 86.2917 77.2526 85.7176 79.6727 84.7008C84.3315 85.3801 88.9252 86.4483 93.4058 87.8942C92.4634 88.2758 91.5227 88.7331 90.6025 89.0978C88.6734 89.8373 86.7075 90.4767 84.7124 91.0133C80.9985 92.0368 77.1924 92.6903 73.3497 92.9642C73.3497 92.9642 73.3497 92.9642 73.3497 92.9642C79.1162 93.1354 84.8634 92.2181 90.2902 90.2605C91.9461 89.7261 93.5726 89.1045 95.1629 88.3983C96.0691 88.6958 96.9776 89.0056 97.8762 89.3299C101.247 90.5174 104.579 91.6997 107.953 92.7089L107.551 92.8613C105.858 93.4992 104.192 94.2083 102.501 94.8586C98.9144 96.4209 95.0482 97.24 91.1361 97.2665C91.1361 97.2665 91.1361 97.2665 91.1361 97.2665C94.6316 97.641 98.1667 97.2692 101.508 96.1757C103.126 95.6788 104.708 95.1252 106.273 94.5495C107.232 94.1901 108.189 93.8184 109.172 93.5179C109.466 93.4622 109.76 93.4065 110.054 93.3508C112.752 94.1053 115.497 94.6824 118.271 95.0784C120.682 95.4205 123.079 95.7525 125.458 96.126C124.394 96.5932 123.365 97.1358 122.379 97.7497C120.462 98.8106 118.607 99.9994 116.636 100.906C112.179 102.943 107.261 103.761 102.385 103.277C102.299 103.294 102.283 103.411 102.41 103.412C106.951 104.222 111.622 103.877 115.995 102.41C118.208 101.569 120.342 100.532 122.371 99.3114C123.39 98.735 124.438 98.2104 125.51 97.7396C126.432 97.5355 127.295 97.1247 128.035 96.5381C131.734 97.1498 135.39 97.9989 138.981 99.0802L140.423 99.5298C138.363 100.223 136.363 101.082 134.441 102.097C131.337 103.639 127.981 104.611 124.533 104.964C124.533 104.964 124.533 104.964 124.545 105.026C126.016 105.088 127.49 104.987 128.94 104.725C130.408 104.396 131.852 103.97 133.264 103.449C136.468 102.284 139.407 100.661 142.827 100.368C148.87 102.393 154.652 105.129 160.049 108.519" stroke="#F8EDE7"/>
<path d="M39.0621 200.68C41.2644 200.265 43.3754 199.461 45.2965 198.306C47.3354 197.286 49.3288 196.16 51.2571 194.957C53.9151 193.295 56.4716 191.476 58.9131 189.51C58.9044 190.134 58.9861 190.765 58.9704 191.351C58.9149 192.732 58.8618 194.124 58.7819 195.509C58.8051 195.632 58.9514 195.667 59.0063 195.556C59.6387 194.271 60.0289 192.882 60.1572 191.456C60.3497 190.495 60.3263 189.503 60.0886 188.552C60.7788 187.977 61.4666 187.39 62.1398 186.793C65.5061 183.809 68.5416 180.417 71.9363 177.516C70.6474 179.549 70.478 182.536 70.2749 184.744C69.998 187.967 69.9392 191.872 67.9833 194.602C67.9016 194.707 68.032 194.859 68.1528 194.76C70.3328 192.343 70.9408 189.729 71.315 186.551C71.5077 184.891 71.6246 183.232 71.9222 181.59C72.3501 179.917 72.8859 178.273 73.5262 176.669C73.5559 176.609 73.5652 176.54 73.5526 176.474C73.54 176.408 73.5063 176.348 73.4566 176.302C76.9691 173.768 80.9502 171.957 85.1686 170.975C88.6699 170.108 92.2323 169.496 95.7923 168.872C95.3403 169.54 94.9253 170.233 94.5493 170.947C93.4851 173.084 92.678 175.341 92.1451 177.668C91.5466 180.25 90.7548 182.783 89.7762 185.246C88.6087 187.697 87.2784 190.068 85.7942 192.342C85.7839 192.363 85.7809 192.386 85.7855 192.408C85.7901 192.43 85.8022 192.45 85.8197 192.465C85.8372 192.479 85.8592 192.487 85.8818 192.487C85.9045 192.488 85.9266 192.48 85.9445 192.466C89.5679 189.433 91.5449 184.606 92.7655 180.138C93.3211 177.698 94.0584 175.303 94.9713 172.972C95.4471 171.858 96.0517 170.802 96.7725 169.828C97.1291 169.367 97.6687 168.935 98.1011 168.473L99.5091 168.206C102.872 167.568 106.228 166.869 109.576 166.107C109.781 166.11 109.987 166.101 110.192 166.079C110.318 166.065 110.433 166.002 110.514 165.904C111.983 165.626 113.444 165.235 114.899 164.883C117.182 164.348 119.459 163.777 121.735 163.206C118.93 167.213 117.46 171.969 115.944 176.62C115.085 179.495 113.976 182.29 112.631 184.972C111.969 186.268 111.182 187.496 110.282 188.639C109.394 189.772 108.301 190.702 107.425 191.832C107.364 191.843 107.45 191.967 107.521 191.94C109.88 190.999 111.668 188.389 112.951 186.256C114.341 183.845 115.491 181.304 116.383 178.668C118.344 173.222 119.861 167.24 123.707 162.706C130.226 161.026 136.718 159.276 143.236 157.596C140.629 160.897 138.867 164.783 138.102 168.919C137.812 170.471 137.733 172.059 137.297 173.574C136.841 175.03 136.166 176.407 135.293 177.658C133.509 180.355 131.164 182.639 129.625 185.493C129.625 185.493 129.655 185.652 129.734 185.599C131.942 183.535 133.941 181.257 135.7 178.799C137.395 176.748 138.542 174.301 139.032 171.686C139.441 168.902 140.181 166.177 141.235 163.569C142.32 161.179 143.761 158.969 145.51 157.013C150.894 155.684 156.483 155.408 161.972 156.201L162.792 156.312C160.183 158.075 158.755 161.377 157.431 164.165C156.555 166.187 155.57 168.161 154.48 170.076C153.969 170.926 153.398 171.738 152.772 172.506C152.062 173.376 151.143 174.083 150.469 174.946C150.439 174.972 150.42 175.009 150.417 175.049C150.414 175.089 150.427 175.128 150.453 175.159C150.478 175.189 150.515 175.208 150.555 175.211C150.595 175.214 150.635 175.201 150.665 175.176C152.171 174.28 153.432 173.025 154.336 171.524C155.467 169.951 156.485 168.3 157.382 166.584C158.321 164.846 159.172 163.112 160.206 161.406C161.355 159.438 162.647 157.354 164.983 156.696L165.081 156.677C169.29 157.518 173.381 158.873 177.261 160.71C177.72 160.927 177.96 160.184 177.525 159.963C175.613 158.992 173.65 158.128 171.644 157.374C171.034 156.437 170.376 155.533 169.672 154.665C169.076 153.723 168.418 152.822 167.702 151.969C166.326 150.326 164.553 149.059 162.552 148.29C162.377 148.235 162.245 148.475 162.403 148.572C164.513 149.653 166.344 151.208 167.754 153.114C168.358 154.026 168.91 155.533 169.7 156.689C168.265 156.213 166.815 155.79 165.352 155.433C165.28 155.35 165.184 155.292 165.076 155.266C164.969 155.241 164.857 155.25 164.755 155.293C161.73 154.594 158.64 154.214 155.535 154.161C150.26 148.667 143.494 144.836 136.069 143.138C135.832 143.094 135.743 143.491 135.981 143.548C141.419 144.97 146.43 147.689 150.586 151.472C151.552 152.354 152.474 153.334 153.477 154.209C152.494 154.243 151.532 154.324 150.554 154.446C149.166 154.62 147.78 154.87 146.415 155.23C146.368 155.155 146.304 155.092 146.228 155.045C146.152 154.998 146.067 154.969 145.979 154.961C145.89 154.952 145.801 154.963 145.717 154.994C145.634 155.024 145.559 155.074 145.497 155.138L145.126 155.525C141.797 156.296 138.497 157.289 135.233 158.136L134.535 158.269C132.084 156.843 130.082 154.851 127.767 153.21C125.463 151.573 122.951 150.25 120.299 149.273C114.782 147.432 109.032 146.387 103.221 146.168C103.18 146.174 103.142 146.194 103.113 146.225C103.085 146.255 103.067 146.294 103.063 146.336C103.06 146.377 103.07 146.419 103.092 146.454C103.115 146.489 103.149 146.516 103.188 146.529C108.961 147.237 114.632 148.614 120.087 150.632C122.752 151.69 125.265 153.094 127.563 154.808C129.205 156.242 130.931 157.575 132.734 158.8L124.552 160.871C124.502 160.809 124.439 160.758 124.367 160.722C124.295 160.687 124.216 160.668 124.136 160.666C124.056 160.664 123.976 160.68 123.903 160.712C123.83 160.745 123.764 160.793 123.711 160.853C123.618 160.948 123.531 161.049 123.452 161.156L119.416 162.149C116.084 162.971 112.759 163.766 109.409 164.49C108.256 164.135 107.123 163.719 106.014 163.244C104.53 162.484 103.097 161.628 101.723 160.683C99.029 158.736 96.1603 157.042 93.1541 155.623C87.0103 152.862 80.0298 152.614 73.7059 154.933C80.6447 153.331 87.9282 154.278 94.2267 157.601C96.9393 159.193 99.5697 160.922 102.108 162.779C103.379 163.662 104.711 164.452 106.095 165.143L103.646 165.608C98.6385 166.557 93.5704 167.188 88.5458 168.115C85.6334 168.665 82.778 169.482 80.0157 170.556C79.2673 170.445 78.5262 170.289 77.7963 170.089C76.7584 169.766 75.7508 169.335 74.7334 168.919C72.5839 167.935 70.3188 167.227 67.9918 166.81C63.315 166.046 58.517 166.884 54.3762 169.188C54.3615 169.198 54.3499 169.211 54.343 169.227C54.3361 169.243 54.3341 169.261 54.3374 169.278C54.3406 169.295 54.3489 169.311 54.3612 169.323C54.3735 169.336 54.3892 169.344 54.4064 169.348C59.1008 167.563 64.2143 167.189 69.1185 168.271C71.2555 168.881 73.3435 169.651 75.3644 170.575C76.0678 170.873 76.8952 171.224 77.7624 171.516C76.8862 171.924 76.0324 172.378 75.2044 172.876C71.2406 175.251 68.0588 178.606 64.8654 181.901L63.9073 182.869L63.3441 182.975C62.3624 183.005 61.3801 182.949 60.408 182.809C58.748 182.576 57.065 182.559 55.4005 182.756C52.2324 183.286 49.3399 184.881 47.2015 187.278C50.0488 185.128 53.5102 183.948 57.0778 183.91C58.7497 183.897 60.3886 184.246 62.0546 184.336L62.4137 184.357C59.6237 187.093 56.6282 189.611 53.4535 191.89C51.9597 192.173 50.4901 192.248 48.9609 192.412C47.4459 192.409 45.9862 192.98 44.8753 194.01C44.8658 194.017 44.8577 194.026 44.8515 194.036C44.8453 194.046 44.8411 194.057 44.8392 194.068C44.8372 194.08 44.8376 194.092 44.8402 194.103C44.8429 194.114 44.8477 194.125 44.8545 194.135C44.8613 194.144 44.8699 194.152 44.8799 194.159C44.8898 194.165 44.9009 194.169 44.9124 194.171C44.924 194.173 44.9358 194.173 44.9472 194.17C44.9586 194.167 44.9694 194.162 44.979 194.156C46.6461 193.522 48.4117 193.188 50.1949 193.167L51.5735 193.147C49.651 194.424 47.6699 195.616 45.6302 196.721C43.3276 197.957 40.9508 198.8 38.9207 200.403C38.7586 200.484 38.9006 200.698 39.0621 200.68Z" fill="#F8EDE7"/>
<path d="M224.53 147.374C224.53 147.374 224.541 147.436 224.53 147.374C225.232 144.387 225.837 141.355 226.52 138.334C229.243 139.315 232.047 137.046 234.37 135.92C237.254 134.537 240.727 133.523 243.831 134.71C243.831 134.71 243.954 134.687 243.813 134.612C241.303 133.583 238.51 133.479 235.931 134.318C232.855 135.218 229.945 137.469 226.686 137.339C226.952 136.197 227.218 135.056 227.498 133.925C227.579 133.899 227.653 133.855 227.713 133.795C227.774 133.736 227.82 133.663 227.848 133.583C227.876 133.502 227.885 133.417 227.874 133.332C227.863 133.248 227.832 133.167 227.785 133.097L227.769 133.011C228.551 129.905 229.522 126.849 230.676 123.86C232.187 124.363 233.808 124.433 235.357 124.064C237.852 123.509 240.271 122.655 242.561 121.519C248.17 119.176 254.252 118.184 260.315 118.623C254.994 117.919 249.758 117.529 244.592 119.384C241.992 120.32 239.536 121.686 236.843 122.4C235.595 122.751 234.302 122.919 233.005 122.899C232.434 122.893 231.834 122.74 231.265 122.683C231.578 121.926 231.896 121.194 232.25 120.455C235.123 114.546 238.901 109.123 243.447 104.38C249.589 107.604 256.611 106.578 263.227 105.882C266.816 105.419 270.447 105.373 274.046 105.746C277.545 106.233 280.805 107.802 283.369 110.232C283.461 110.316 283.59 110.19 283.512 110.116C279.835 104.903 272.102 103.857 266.241 104.182C258.919 104.567 251.406 106.22 244.379 103.404C245.366 102.393 246.383 101.401 247.434 100.453C251.33 96.9147 255.485 93.6722 259.865 90.7531C262.692 91.8253 265.677 92.4251 268.699 92.5285C271.802 92.759 274.919 92.7283 278.017 92.4366C281.22 92.134 284.34 91.4664 287.569 91.9706C290.762 92.5717 293.862 93.5967 296.784 95.0183C296.979 95.1082 297.146 94.7849 296.961 94.6804C294.384 93.126 291.654 91.8413 288.814 90.8466C285.852 90.1158 282.774 89.9835 279.76 90.4573C276.478 90.8217 273.172 90.9225 269.873 90.7586C267.001 90.5928 264.164 90.0143 261.314 89.7681C263.772 88.1479 266.273 86.6211 268.796 85.1409C272.702 82.8657 276.7 80.738 280.688 78.6249C284.01 80.5927 287.763 81.7148 291.62 81.8928C296.019 81.9468 300.545 81.2665 304.492 83.6892C301.792 80.8905 297.652 80.6606 293.977 80.6089C291.694 80.7079 289.408 80.4924 287.184 79.9686C285.451 79.4255 283.784 78.6906 282.215 77.7775C286.399 75.5638 290.569 73.34 294.641 70.932C296.591 69.7761 298.528 68.6224 300.461 67.4442L300.622 67.5534C302.366 68.3262 304.955 67.5946 306.73 67.2581C309.095 66.7485 311.557 66.9433 313.812 67.8182C311.981 66.7788 309.877 66.3195 307.779 66.5012C306.623 66.492 305.474 66.456 304.315 66.4981C303.636 66.5254 302.898 66.4496 302.183 66.4204C304.386 65.0641 306.59 63.7078 308.772 62.3049C313.303 59.442 318.264 56.5737 323.762 57.4087C324.077 57.4632 324.194 56.9462 323.889 56.8772C319.585 55.9173 315.344 57.2286 311.564 59.3023C307.184 61.6925 303.108 64.6088 298.771 67.0924C296.701 68.2838 294.598 69.4309 292.479 70.5681C294.376 65.655 296.273 60.3362 300.714 57.1987C300.96 57.0252 300.678 56.6093 300.415 56.7606C297.863 58.2165 295.738 60.3163 294.251 62.8504C292.672 65.5548 291.426 68.4399 290.54 71.4431C290.526 71.4994 290.515 71.5564 290.509 71.6139C287.14 73.3813 283.75 75.102 280.362 76.835C280.204 76.8166 280.044 76.8452 279.902 76.9172C279.76 76.9892 279.642 77.1015 279.563 77.24C277.876 78.1053 276.202 78.9806 274.531 79.8681C275.106 76.6154 275.9 73.4053 276.909 70.2598C278.213 66.5025 280.24 63.0371 282.877 60.0595C282.877 60.0595 282.863 59.9861 282.877 60.0595C279.836 62.4749 277.5 65.6646 276.117 69.2937C274.597 72.9438 273.562 76.7773 273.04 80.6963L271.278 81.6391C264.683 85.1747 258.361 89.1967 252.364 93.6716C252.377 92.3373 252.188 91.0034 252.177 89.6737C252.17 88.0524 252.252 86.4319 252.424 84.8197C252.806 81.4565 253.538 78.1423 254.608 74.9308C255.664 71.7796 257.044 68.7464 258.727 65.8802C260.405 63.0253 262.411 60.4254 264.321 57.717C258.885 61.6266 255.238 68.2159 252.981 74.3768C251.825 77.5705 251.049 80.8892 250.669 84.2643C250.478 86.0165 250.388 87.7783 250.401 89.5409C250.299 91.2462 250.448 92.9573 250.844 94.6193C250.84 94.6993 250.855 94.7789 250.888 94.852C245.153 99.2842 240.083 104.517 235.835 110.389C234.375 104.317 234.383 97.9848 235.859 91.9168C236.296 90.071 237.336 87.9967 237.292 86.0898C237.292 86.0898 237.275 86.0041 237.218 86.1037C235.887 87.4468 235.398 89.886 234.939 91.6094C234.359 93.8006 233.96 96.0355 233.745 98.2917C233.24 102.905 233.49 107.57 234.485 112.104C234.491 112.17 234.503 112.236 234.522 112.299C233.639 113.659 232.813 115.059 232.06 116.571C229.645 121.217 227.866 126.166 226.769 131.285C221.738 122.409 220.248 112.405 220.751 102.213C220.735 102.128 220.601 102.09 220.592 102.243C217.972 112.71 220.787 124.149 226.388 133.222C225.486 137.898 224.866 142.624 224.53 147.374Z" fill="#F8EDE7"/>
</g>
<defs>
<clipPath id="clip0">
<rect x="380.336" y="249.347" width="339.001" height="253.787" transform="rotate(169.267 380.336 249.347)" fill="white"/>
</clipPath>
</defs>
</svg>
