<svg width="426" height="354" fill="none" xmlns="http://www.w3.org/2000/svg"><path d="M2.961 175.439a109.329 109.329 0 014.246-16.964c3.717-10.883 9.492-20.915 18.02-28.601 7.998-7.265 17.796-12.167 28.333-14.175a62.086 62.086 0 0115.832-.802 84.711 84.711 0 0117.89 3.663c5.998 1.772 11.95 3.712 17.971 5.4 4.976 1.4 10.316 2.801 15.514 1.903a12.257 12.257 0 003.329-1.029c10.632-13.756 24.5-25.776 40.437-32.684a92.48 92.48 0 014.552-1.832c0-.706.082-1.424.105-2.13a24.407 24.407 0 00-.317-2.395 24.777 24.777 0 00-.565-2.287 4.57 4.57 0 00-.776-1.64v-.084l-.329-.287a11.04 11.04 0 01-2.65-4.212 11.198 11.198 0 01-.549-4.97c.025-.554.08-1.105.164-1.653.794-4.16 3.089-7.867 6.434-10.391a32.48 32.48 0 0112.256-5.567 142.774 142.774 0 0115.031-3.017 149.95 149.95 0 018.151-.994 38.37 38.37 0 017.775-.323l.423-1.832a14.849 14.849 0 00-.094-7.89 40.324 40.324 0 00-3.035-6.464 31.25 31.25 0 01-2.705-6.753c-2.246-8.835.377-18.844 7.963-24.171 7.41-5.208 17.643-3.843 24.417 1.76a22.002 22.002 0 016.893 10.056 22.2 22.2 0 01-.188 13.517 33.08 33.08 0 01-3.623 7.29 14.684 14.684 0 00-2.67 8.022c.082 2.155.413 4.293.988 6.369a33.215 33.215 0 016.881.455c2.223.24 4.434.527 6.645.838 4.611.654 9.194 1.453 13.75 2.394 7.492 1.58 16.243 4.083 20.453 11.218a14.02 14.02 0 011.882 5.627 10.625 10.625 0 01-.317 4.202 12.042 12.042 0 01-2.847 5.292 13.922 13.922 0 00-.988 2.119 18.068 18.068 0 00-.835 3.771c-.066.62-.097 1.244-.094 1.868a.29.29 0 01.224 0 53.22 53.22 0 019.644 5.71 134.157 134.157 0 018.951 6.573c17.87 14.224 32.165 32.566 41.707 53.515 1.753 3.867 3.352 7.818 4.705 11.828a69.713 69.713 0 012.811 9.65c7.166-3.543 13.102-9.222 17.019-16.282 4.493-7.998 6.504-16.929 7.269-26.051.764-9.123.565-18.389 2.811-27.309 1.839-7.933 6.116-15.063 12.209-20.352 6.445-5.375 15.913-8.536 24.135-5.986h.2c0-.12.106-.263.223-.18l.283.228c.428.083.831.267 1.176.539a5.691 5.691 0 011.776 3.088c.164.48.317.958.47 1.437.153.479.341.886.494 1.329a25.593 25.593 0 011 3.568 50.036 50.036 0 011.176 13.815 15.842 15.842 0 01-.482 3.867 39.027 39.027 0 01-.294 2.119 15.885 15.885 0 01-1.023 3.987 3.443 3.443 0 01-1.075 1.436 3.346 3.346 0 01-1.642.683h-.153a33.542 33.542 0 00-10.445 1.437 12.483 12.483 0 00-4.798 2.394 9.316 9.316 0 00-2.412 3.783 38.062 38.062 0 00-1.764 9.745 86.481 86.481 0 00-.165 10.775c.624 14.367 4.105 28.458 5.023 42.824a129.12 129.12 0 01-.824 22.352c-.788 7.075-1.729 14.247-4.116 20.975-4.152 11.108-11.842 20.479-21.842 26.614-10.585 6.62-23.241 9.398-35.626 9.027a13.077 13.077 0 01-1.329 3.316c-.671 1.508-1.424 2.981-2.188 4.453a102.645 102.645 0 01-5.128 8.716 96.299 96.299 0 01-5.681 8.009l-.635.791c-5.881 7.422-13.279 13.6-20.76 19.406-5.01 3.903-10.585 7.519-14.502 12.631a22.18 22.18 0 00-4.023 8.763c-.717 3.113-1.74 5.986-4.234 8.093a29.199 29.199 0 01-7.962 4.19 132.224 132.224 0 01-10.08 3.688 125.245 125.245 0 01-20.489 4.573 144.306 144.306 0 01-42.413-.311 130.536 130.536 0 01-20.619-4.992c-4.528-1.497-9.703-3.592-12.749-7.519h-.212a13.482 13.482 0 01-1.176-1.712c-.071-.239-.13-.479-.188-.73a1.735 1.735 0 000-.228l-.071-.179a19.8 19.8 0 01-.388-3.855 1.116 1.116 0 00-.156-.608 1.092 1.092 0 00-.456-.422 21.706 21.706 0 00-3.846-6.692c-3.27-3.903-7.504-6.74-11.609-9.638a138.793 138.793 0 01-22.065-19.155c-2.658-2.897-5.199-5.986-7.574-9.087a27.467 27.467 0 00-3.258-2.394 22.716 22.716 0 00-7.175-2.945c-6.093-1.329-12.127.73-18.16 1.401a76.213 76.213 0 01-17.643-.096 67.39 67.39 0 01-17.384-4.693c-21.265-8.728-38.026-26.411-48.694-46.799-5.88-11.23-9.68-23.465-9.574-36.287.15-6.526.827-13.029 2.023-19.443zM241.29 49.841a25.15 25.15 0 01-.953-6.776c.165-4.561 3.023-7.854 4.835-11.805a22.685 22.685 0 001.952-13.708 20.198 20.198 0 00-5.693-10.403c-6.175-5.986-16.302-7.794-23.606-2.778-7.304 5.017-9.809 14.642-7.48 23.13a35.056 35.056 0 002.835 6.597c1.176.922 2.187 2.047 3.387 2.957a20.265 20.265 0 004.164 2.514c3.74 1.664 7.562 1.784 11.573 1.904-4 1.098-8.241.85-12.091-.707a19.738 19.738 0 01-5.175-2.873c.467 1.062.84 2.163 1.117 3.292 1.176 5.005-.764 10.392-2.235 15.169a5.452 5.452 0 002.565 1.197c1.176.407 2.458.754 3.716 1.042 2.652.604 5.353.952 8.069 1.041 2.495.11 4.995-.051 7.457-.479a30.755 30.755 0 006.433-2.263.376.376 0 01.103-.206.36.36 0 01.203-.105.14.14 0 00.118-.072v-.12a.209.209 0 000-.143c.106-1.353-1.153-5.818-1.294-6.405zm49.623 25.045a14.1 14.1 0 00.271-3.723 13.505 13.505 0 00-1.847-5.663 19.075 19.075 0 00-8.316-7.183c-3.799-1.831-7.951-2.574-12.044-3.412a208.953 208.953 0 00-12.726-2.19 193.903 193.903 0 00-7.198-.899 52.128 52.128 0 01-6.681-.754l.424 1.688c.223.898 1.529 4.442-.33 4.55a3.238 3.238 0 01-.388.37 13.267 13.267 0 01-3.658 1.988 27.837 27.837 0 01-9.809 1.449 40.422 40.422 0 01-10.586-1.485c-.952-.263-6.88-1.796-5.445-3.855.329-1.532.694-3.04 1.058-4.561-1.858.335-3.822.347-5.669.503-2.258.18-4.505.43-6.739.73-4.659.552-9.276 1.42-13.821 2.598-7.633 2.095-16.466 4.501-20.583 12.163-2.105 3.987-2.058 9.997 1.612 13.05a.983.983 0 00.423.43c.03.052.05.11.059.168a27.328 27.328 0 005.822 3.245 65.682 65.682 0 006.587 2.538 105.978 105.978 0 0028.428 4.729c2.87.12 5.728.216 8.586.251h.8c10.715-.395 21.477-.31 32.18-1.197 5.304-.455 10.586-1.508 15.831-2.263 4.952-.706 9.951-1.34 14.514-3.591a20.55 20.55 0 005.881-4.226 18.494 18.494 0 003.364-5.448zm-3.834 6.968a21.438 21.438 0 01-2.353 1.868c-4.116 2.777-9.115 3.987-13.879 5.04-5.257 1.197-10.585 2.263-15.878 3.04a153.934 153.934 0 01-16.466 1.114c-4.823.18-9.727.527-14.585.335-1.705.156-3.434.156-5.14.156-2.787 0-5.587 0-8.374-.108a136.085 136.085 0 01-15.749-1.472 77.673 77.673 0 01-14.691-3.735 68.076 68.076 0 01-6.704-2.898c-1.117-.562-2.282-1.125-3.376-1.772.211.62.384 1.251.518 1.892.338 1.477.519 2.986.541 4.502.4.18.576.861.082 1.077h-.117c-.022.458-.073.914-.153 1.365a6.046 6.046 0 001.364 3.388c.432.504.935.94 1.494 1.293a5.117 5.117 0 01-.388-2.023c-.059-1.473 0-2.957 0-4.418-.043-1.353.181-2.7.658-3.963h.071c.847 1.808.729 3.975.776 5.926a23.31 23.31 0 00.153 3.137c.2 1.197.459 2.394 1.811 2.574a.217.217 0 01.142.108.218.218 0 01.011.18l.189.071a142.986 142.986 0 0027.134 7.183 163.125 163.125 0 0029.204 1.557 173.21 173.21 0 0027.147-2.335 98.134 98.134 0 0014.561-3.711 60.12 60.12 0 007.233-2.885 7.108 7.108 0 002.332-1.568 7.246 7.246 0 001.561-2.36.426.426 0 01-.106-.19 16.955 16.955 0 01-.199-4.299 36.24 36.24 0 01.352-4.214 19.5 19.5 0 01.882-3.855h-.058zm133.99 32.277a4.561 4.561 0 001.846-2.742c.503-1.556.85-3.161 1.035-4.789a17.29 17.29 0 01.153-1.76c.15-3.136.111-6.278-.117-9.41a58.586 58.586 0 00-.259-3.4c-.071-.466-.153-.921-.235-1.388a50.998 50.998 0 00-.977-4.227 49.193 49.193 0 00-.529-1.831 14.497 14.497 0 00-2.187-3.712 2.217 2.217 0 00-1.4-.61 2.708 2.708 0 00-1.635.515 5.395 5.395 0 00-1.176 1.796 20.043 20.043 0 00-1.4 7.757c-.07 2.61.082 5.232.224 7.806a49.6 49.6 0 001.035 7.914 18.692 18.692 0 002.611 6.764c.705.97 1.823 1.903 3.011 1.317zm-45.801 142.036c10.316-5.579 18.984-14.367 23.383-25.513 2.634-6.692 3.611-13.851 4.528-20.951a126.25 126.25 0 001.176-22.399c-.717-14.367-4.175-28.458-4.916-42.836a88.845 88.845 0 01.07-10.775 48.758 48.758 0 011.459-9.733 10.85 10.85 0 011.678-3.894 10.638 10.638 0 013.027-2.93 24.21 24.21 0 019.409-2.634 26.746 26.746 0 012.858-.156c-1.941-1.748-2.823-4.86-3.446-7.303a47.671 47.671 0 01-1.259-9.206 64.964 64.964 0 010-9.805c.271-2.706.718-6.345 3.07-8.057.178-.127.367-.235.565-.324a29.106 29.106 0 00-10.327.455 29.078 29.078 0 00-11.115 5.412c-6.359 5.228-10.815 12.473-12.656 20.58-2.223 8.943-2.046 18.281-2.74 27.415-.659 8.752-2.411 17.372-6.575 25.142-4.164 7.769-10.797 14.653-19.03 18.03a.334.334 0 01-.135.275.317.317 0 01-.301.036c-8.233 7.734-13.185 17.958-16.113 28.876a115.788 115.788 0 00-3.27 19.06c-.6 6.177-1.012 12.439-1.023 18.652 0 6.525.67 13.169 3.246 19.155 13.114 1.557 26.746-.275 38.437-6.572zm-244.774 34.371a129.001 129.001 0 0021.266 19.503c7.656 5.615 17.266 11.134 19.677 21.214a14.94 14.94 0 01.423 4.047c2.07 3.879 6.399 6.153 10.586 7.674a125.671 125.671 0 0019.795 5.22 136.243 136.243 0 0040.66 1.352 137.857 137.857 0 0020.078-3.843c3.258-.885 6.504-1.819 9.703-2.897a46.093 46.093 0 008.857-3.591 10.844 10.844 0 003.4-2.964 11.06 11.06 0 001.928-4.112c.812-3.077 1.411-6.07 3.023-8.847 3.046-5.232 8.139-8.943 12.797-12.547 10.209-7.913 20.394-16.126 28.228-26.566l.306-.407.435-.658c1.376-2.083 2.764-4.143 4.093-6.25a122.587 122.587 0 002.47-4.393c.788-1.485 1.517-2.946 2.258-4.43l.212-.431c.094-.216.188-.443.27-.658a6.122 6.122 0 01.777-1.796h-.247a86.123 86.123 0 01-4.952-.443h-.082a.56.56 0 00-.2 0h-.106a2.765 2.765 0 01-1.071-.587l.13-.191c-4.917-11.398-3.776-24.483-2.682-36.563 1.176-12.607 3.376-25.141 9.315-36.455a52.744 52.744 0 015.27-8.093 31.281 31.281 0 016.622-6.572.454.454 0 010-.18v-.24l.247-.143a76.087 76.087 0 00-2.623-8.68c-1.259-3.591-2.623-7.183-4.152-10.655a143.553 143.553 0 00-10.421-19.718 144.723 144.723 0 00-29.404-33.522 138.445 138.445 0 00-10.104-7.662c-1.67-1.197-3.364-2.25-5.081-3.328-1.717-1.077-3.67-2.107-5.352-3.364v1.197c.142 1.26.212 2.527.212 3.795.329 3.161-3.293 5.352-5.881 6.489a88.18 88.18 0 01-13.396 4.49 141.84 141.84 0 01-28.311 3.735 210.996 210.996 0 01-30.263-.563 128.29 128.29 0 01-29.016-6.321c-3.823-1.305-8.927-2.574-10.527-6.8h-.153c-.165-.97-.259-1.94-.341-2.921-15.501 7.03-29.19 17.623-39.99 30.947-11.903 14.953-20.212 32.527-24.265 51.324a150.75 150.75 0 000 62.016 129.865 129.865 0 009.574 29.989 107.998 107.998 0 0016.008 24.375v.024zm-29.757-111.471a132.324 132.324 0 017.61-26.578c-1.717-7.183-9.527-10.631-15.737-12.87a60.743 60.743 0 00-26.347-3.771 46.51 46.51 0 00-21.747 7.698c-6.787 4.645-11.35 11.349-14.397 19-6.704 16.76-8.233 36.191-2.458 53.514 5.262 15.114 15.989 27.616 29.993 34.959a66.19 66.19 0 0024.217 7.315c3.905.466 7.847.514 11.762.143a18.146 18.146 0 009.045-3.16 12.424 12.424 0 002.646-2.862 133.182 133.182 0 01-2.905-10.607 157.133 157.133 0 01-1.682-62.805v.024zM5.561 205.238a74.543 74.543 0 005.046 17.251c8.868 20.808 24.7 39.819 44.788 49.984a74.778 74.778 0 0016.279 5.986 69.107 69.107 0 0017.49 2.202 58.17 58.17 0 008.762-.885 62.968 62.968 0 019.692-1.341 23.94 23.94 0 0111.114 2.562 106.005 106.005 0 01-5.328-8.991 117.156 117.156 0 01-6.869-15.887c-3.74 4.789-10.938 5.914-16.678 5.986a70.423 70.423 0 01-26.605-4.669c-15.916-6.066-28.921-18.146-36.308-33.725-8.092-17.575-8.01-38.419-2.059-56.64 2.811-8.644 6.893-17.048 13.785-23.058a43.374 43.374 0 0121.642-10.069 62.458 62.458 0 0127.546 2.395 60.35 60.35 0 0111.962 4.789 21.356 21.356 0 018.056 7.015c.488.805.882 1.665 1.177 2.562a117.05 117.05 0 0113.055-23.214 15.87 15.87 0 01-6.539.934c-5.693-.275-11.327-2.083-16.702-3.831-11.303-3.591-22.853-8.225-34.92-7.554a59.71 59.71 0 00-29.405 9.961c-8.965 6.172-16.077 14.749-20.548 24.782-4.87 10.463-7.34 22.064-8.563 33.521a75.544 75.544 0 00.13 19.91v.024z" fill="#BCA27D"/><path d="M414.835 92.294a29.27 29.27 0 01.6-6.13c.364-1.508 1.07-3.4 2.611-4.022 1.541-.623 2.729.67 3.293 2.035a22.796 22.796 0 011.4 6.98h-.059a44.693 44.693 0 00-1.423-4.79c-.353-1.1-1.047-3.986-2.717-3.46-1.67.528-2.082 2.85-2.352 4.251a31.477 31.477 0 00-.365 4.992 55.428 55.428 0 00.682 10.165c.271 1.7.612 3.388 1.012 5.064.329 1.317.552 3.184 1.529 4.214 1.74 1.844 2.858-1.592 3.211-2.814.529-1.879.541-3.807.941-5.698a.13.13 0 01.129-.132c.034 0 .067.014.091.039a.128.128 0 01.038.093 12.523 12.523 0 01-.576 6.058c-.365 1.281-.87 3.148-2.282 3.591-1.411.443-2.282-.646-2.834-1.724a25.446 25.446 0 01-1.741-5.818 55.112 55.112 0 01-1.188-12.894zm-33.356 43.302c.329-3.017.517-6.046.705-9.075.232-5.499.781-10.98 1.647-16.413 1.717-9.817 5.881-19.263 14.443-24.794a26.606 26.606 0 0115.079-4.478.07.07 0 01.05.021.074.074 0 01.021.051c0 .02-.008.038-.021.051a.07.07 0 01-.05.021c-9.621 1.078-18.56 6.082-23.524 14.678-5.269 9.015-6.022 19.921-6.633 30.145-.188 3.149-.388 6.297-.718 9.434a34.477 34.477 0 01-1.834 9.326c0 .108-.224.108-.212 0 .188-3.029.788-5.986 1.047-8.967zm-41.543 77.962c.471-3.28.882-6.56 1.647-9.793 1.176-5.016 2.705-10.128 5.575-14.45a20.62 20.62 0 014.94-5.351c2.352-1.748 5.234-2.682 7.704-4.286a44.881 44.881 0 0012.161-12.727 57.656 57.656 0 008.069-17.431 1.2 1.2 0 01-.276-.895 1.28 1.28 0 01.489-.904c.139-.107.299-.184.469-.224a17.098 17.098 0 014.046-.731 33.03 33.03 0 014.611-.179 13.906 13.906 0 014.646.61.165.165 0 01.164.168.165.165 0 01-.164.168 31.762 31.762 0 01-3.529-.192h-3.528a37.053 37.053 0 00-3.788.419c-.576.096-1.176.192-1.74.335-.565.144-1.329.264-.459 1.198.26.162.547.276.847.335a29.672 29.672 0 007.057 1.269c1.147.072 2.298.072 3.446 0 1.176-.084 2.352-.359 3.529-.431a15.522 15.522 0 01-4.258.862 24.176 24.176 0 01-4.705.084 23.658 23.658 0 01-4.234-.719 5.56 5.56 0 01-2.517-1.017c-2.191 11.121-7.92 21.198-16.302 28.673a31.61 31.61 0 01-7.28 4.669 21.167 21.167 0 00-6.599 4.537c-3.528 3.807-5.445 9.003-6.798 13.984a138.278 138.278 0 00-4.176 21.765h-.058c.211-3.281.541-6.525 1.011-9.746zm-2.588 25.358v-3.089c.095-1.425.412-2.79.577-4.19h.082c-.07 1.269.071 2.55.071 3.819v3.831c.092 2.574.331 5.14.717 7.686.188 1.197.377 2.466.635 3.723.247.73.53 1.448.835 2.155.988 2.31 2 4.788 4.47 5.698 2.192.68 4.491.928 6.775.73a51.385 51.385 0 0025.875-7.769 60.03 60.03 0 0011.962-9.961.115.115 0 01.177.144c-5.599 7.925-14.338 13.648-23.359 16.677a49.658 49.658 0 01-14.244 2.586 20.823 20.823 0 01-7.245-.695 7.338 7.338 0 01-1.353-.61.46.46 0 01-.411-.096 11.592 11.592 0 01-3.176-4.262 34.839 34.839 0 01-2.199-9.087 29.26 29.26 0 01-.189-7.29zm57.739-7.891c.588-1.4 1.023-2.885 1.541-4.31.517-1.424.929-2.873 1.317-4.309.753-2.754 1.412-5.544 1.917-8.381a100.706 100.706 0 001.318-18.329c-.142-12.702-1.576-25.405-2.647-38.059-.611-7.267-1.094-14.534-1.505-21.813 1.482 13.001 2.576 26.039 3.705 39.076 1.082 12.487 2.211 25.058.4 37.533a60.29 60.29 0 01-2.094 9.577 58.304 58.304 0 01-1.623 4.43 45.277 45.277 0 01-2.353 4.549l.024.036zm-274.108 34.54c1.999 3.041 3.893 6.118 5.975 9.099s4.293 5.986 6.645 8.751a110.275 110.275 0 0015.608 15.265 119.91 119.91 0 0041.002 21.166 145.664 145.664 0 0048.34 5.627c15.832-.766 31.851-4.202 45.871-11.972a136.334 136.334 0 0020.337-14.546 780.871 780.871 0 009.409-7.89 103.064 103.064 0 008.821-8.224c1.353-1.473 2.647-3.017 3.917-4.55.094-.119.27 0 .2.156a51.083 51.083 0 01-7.622 9.41c-2.905 3.005-5.963 5.77-9.103 8.512a184.032 184.032 0 01-19.654 15.683c-13.926 8.991-29.816 13.552-46.036 14.977a148.303 148.303 0 01-49.399-3.891 123.962 123.962 0 01-43.166-19.981 112.959 112.959 0 01-16.466-14.701 108.452 108.452 0 01-7.058-8.536 84.693 84.693 0 01-5.88-9.338 38.331 38.331 0 01-2.294-4.789c.024-.3.412-.431.553-.228zm-15.726-69.162c.272-5.74.916-11.455 1.929-17.108 3.916-21.211 13.195-41.018 26.923-57.466a89.486 89.486 0 0112.667-12.918 60.958 60.958 0 0114.867-8.776c-9.291 4.55-17.348 11.972-24.088 19.862a128.164 128.164 0 00-13.291 18.7.512.512 0 01-.07.563 8.842 8.842 0 00-1.704 4.227 8.897 8.897 0 00.622 4.525 18.2 18.2 0 006.198 7.183 91.717 91.717 0 0017.925 9.985 146.325 146.325 0 0039.72 10.356 269.704 269.704 0 0042.73 1.664 360.751 360.751 0 0045.942-4.454 383.476 383.476 0 0022.665-4.346c7.515-1.676 15.055-3.472 22.465-5.579 1.929-.551 3.881-.982 5.881-1.472a286.058 286.058 0 01-46.307 12.714 340.301 340.301 0 01-47.505 5.483 273.308 273.308 0 01-44.378-1.293 149.446 149.446 0 01-41.025-10.535 98.525 98.525 0 01-18.56-10.105c-2.576-1.843-5.163-4.022-6.527-6.967a13.438 13.438 0 01-1.283-5.987l-.764 1.485a131.037 131.037 0 00-10.739 29.727 116.217 116.217 0 00-2.634 16.689 126.428 126.428 0 00-.4 8.464c-.035 2.826-.2 5.627-.106 8.464a107.802 107.802 0 002.67 19.012 144.88 144.88 0 002.352 9.362c.883 3.077 2.153 6.082 2.917 9.195a.322.322 0 01-.186.35.31.31 0 01-.378-.099 41.95 41.95 0 01-3.023-7.997 152.752 152.752 0 01-2.352-8.548 119.598 119.598 0 01-2.517-16.845 132.344 132.344 0 01-.636-17.515zm191.541-96.184a228.8 228.8 0 013.529 2.634c1.176.897 2.587 1.736 3.834 2.681a72.78 72.78 0 016.457 5.771c12.909 12.366 23.649 26.886 31.757 42.932 3.082 6.154 6.175 12.738 6.575 19.766 0 .084-.141.108-.153 0-1.176-6.357-3.787-12.235-6.634-17.958a157.68 157.68 0 00-30.639-42.286c-2.353-2.298-4.799-4.453-7.198-6.692-1.177-1.066-2.176-2.263-3.329-3.34-1.153-1.078-2.799-2.311-4.211-3.413-.058-.047.012-.131.012-.095z" fill="#BCA27D"/><path d="M137.575 131.419a37.267 37.267 0 019.821-4.957 85.625 85.625 0 0110.586-3.077c7.398-1.724 14.925-2.813 22.429-3.939a197.318 197.318 0 0124.324-2.238c8.233-.216 16.466 0 24.699.455 9.316.538 18.631 1.281 27.935 1.819.294 0 .305.479 0 .467-8.151-.275-16.326-.455-24.488-.658-8.163-.204-16.349-.431-24.512-.252-8.194.171-16.371.835-24.488 1.988-7.528 1.065-15.079 2.191-22.547 3.711a112.589 112.589 0 00-11.762 3.029c-3.976 1.197-7.763 2.969-11.656 4.406-.494.179-.682-.515-.341-.754zm136.789-10.847a54.046 54.046 0 0110.104.766c3.528.491 6.986 1.042 10.456 1.712a93.78 93.78 0 0119.513 5.795 52.706 52.706 0 0110.256 5.735c.129.096 0 .299-.118.227a97.599 97.599 0 00-18.913-7.662 161.35 161.35 0 00-19.924-4.178 80.67 80.67 0 01-11.409-2.084.147.147 0 01-.103-.058.159.159 0 01.025-.22.15.15 0 01.113-.033zm-99.893 186.201a5.033 5.033 0 01.671-2.216 4.909 4.909 0 011.588-1.663 16.28 16.28 0 015.222-2.071 116.034 116.034 0 016.328-1.581 140.079 140.079 0 0125.252-3.005c17.431-.562 34.78 1.641 51.975 4.322l7.057 1.126a31.49 31.49 0 016.575 1.352c2.835 1.138 5.74 4.502 3.988 7.722 0 .072-.189 0-.153-.072a4.639 4.639 0 00.09-2.661 4.57 4.57 0 00-1.384-2.259 9.695 9.695 0 00-4.705-2.023c-3.764-.766-7.645-1.197-11.456-1.664-7.763-1.054-15.537-2.024-23.335-2.742-15.467-1.401-31.169-1.856-46.565.611-4.219.68-8.4 1.584-12.526 2.705-1.835.503-3.976.91-5.481 2.167a3.192 3.192 0 00-.875.9 3.269 3.269 0 00.04 3.602.506.506 0 01.044.666.489.489 0 01-.644.124 3.23 3.23 0 01-1.375-1.394 3.305 3.305 0 01-.331-1.946zm-3.763-228.247a29.668 29.668 0 013.599 2.011 39.29 39.29 0 004.222 1.892 52.233 52.233 0 008.692 2.395c3.341.634 6.716 1.09 10.08 1.544 3.529.491 7.14 1.018 10.715 1.341 4.035.383 8.069.73 12.115 1.066v.084a196.91 196.91 0 01-22.065-1.138c-6.481-.67-13.244-1.425-19.407-3.7a24.107 24.107 0 01-4.481-2.143 10.247 10.247 0 01-3.635-3.077.15.15 0 01-.045-.042.166.166 0 01-.008-.179.16.16 0 01.16-.076c.02.004.04.01.058.022z" fill="#BCA27D"/><path d="M168.59 67.883a.257.257 0 01.087-.142.244.244 0 01.309 0 .251.251 0 01.087.142 17.198 17.198 0 001.047 3.651 11.871 11.871 0 002.281 3.077 18.76 18.76 0 006.775 4.142c2.529 1.006 5.14 1.784 7.739 2.526 2.6.742 5.517 1.569 8.316 2.131a59.293 59.293 0 01-17.643-4.166 16.34 16.34 0 01-6.645-4.561c-1.412-1.808-2.752-4.466-2.353-6.8z" fill="#BCA27D"/><path d="M172.919 70.29a17.422 17.422 0 012.776 2.394 20.294 20.294 0 003.34 2.215c1.176.646 2.352 1.197 3.529 1.772a16.186 16.186 0 004.893 1.796.07.07 0 01.07.072.07.07 0 01-.021.05.069.069 0 01-.049.022 14.533 14.533 0 01-4.952-.779 37.088 37.088 0 01-4.176-1.664c-2.117-1.018-5.645-2.993-5.728-5.723a.234.234 0 01.047-.09.232.232 0 01.271-.066zM178 71.366c.951.373 1.855.86 2.693 1.45 1.069.54 2.188.969 3.341 1.281.223 0 .188.444 0 .432a9.978 9.978 0 01-3.529-.803 5.03 5.03 0 01-2.705-2.012.243.243 0 01.089-.314.23.23 0 01.111-.034zm37.402-15.431a17.06 17.06 0 011.177-3.484c.42-1.177.777-2.376 1.07-3.592.321-1.315.479-2.667.47-4.022a16.139 16.139 0 01-.188-3.52 4.92 4.92 0 01.976 3.125 17.907 17.907 0 01-.152 4.118 21.89 21.89 0 01-1.094 4.226 11.583 11.583 0 01-1.459 3.448.462.462 0 01-.493.11.476.476 0 01-.307-.409zm5.623-8.571c0-1.485-.189-2.958-.236-4.43a.121.121 0 01.106-.068.12.12 0 01.063.018.126.126 0 01.043.05c.649 1.402.967 2.94.929 4.49a8.248 8.248 0 01-.835 4.55.257.257 0 01-.281.103.26.26 0 01-.189-.235c.038-1.5.172-2.996.4-4.478zm2.505-1.474c0-.934-.13-1.855-.2-2.777 0-.072.094-.084.129 0 .847 1.365 1.517 3.939.541 5.376a.234.234 0 01-.423 0 11.124 11.124 0 01-.047-2.599zm2.188-1.436a.089.089 0 01.034-.046.095.095 0 01.108 0 .101.101 0 01.034.046 6.57 6.57 0 01.13 2.395.244.244 0 01-.086.12.232.232 0 01-.361-.12 6.549 6.549 0 01.141-2.395zM214.991 10a23.336 23.336 0 00-2.447 8.896 23.4 23.4 0 001.188 9.158 15.62 15.62 0 005.093 7.183 14.275 14.275 0 003.529 1.916c1.255.519 2.554.92 3.881 1.197.018.007.034.02.045.035a.096.096 0 01.016.055c0 .02-.005.038-.016.055a.096.096 0 01-.045.035 9.365 9.365 0 01-4.268-.035 9.465 9.465 0 01-3.824-1.929 15.56 15.56 0 01-5.34-7.602c-2.035-5.89-2.011-14.08 2.188-18.964z" fill="#BCA27D"/><path d="M217.531 16.534c.083-.227.459-.132.377.108-1.259 3.652-.118 7.005 1.364 10.346.118.275-.188.562-.412.335-2.74-2.754-2.611-7.376-1.329-10.789zm-8.95 40.55c.106-1.293 1.752-1.689 2.799-1.653a.142.142 0 01.101.138c0 .031-.01.061-.028.086a.141.141 0 01-.073.052c-.67.155-1.423.215-1.799.934-.377.718.446 1.76 1.105 2.143a24.37 24.37 0 003.964 1.748c1.247.463 2.529.82 3.834 1.066a16.18 16.18 0 004.975.288c-.955.278-1.937.454-2.928.526-.946.009-1.89-.068-2.823-.227a25.747 25.747 0 01-6.199-1.94c-1.235-.55-3.046-1.413-2.928-3.161z" fill="#BCA27D"/><path d="M205.052 57.288c.109-.372.327-.7.626-.94s.664-.38 1.044-.402v.084c-.788.192-.858 1.198-.717 1.772a2.388 2.388 0 001.047 1.401c.696.452 1.423.853 2.175 1.198a22.6 22.6 0 005.623 2.251c-.847-.155-1.659-.143-2.494-.347a21.005 21.005 0 01-2.352-.694 12.699 12.699 0 01-3.776-1.785 2.677 2.677 0 01-.938-1.1 2.733 2.733 0 01-.238-1.438zm-2.152-.372a.17.17 0 01.195-.01.166.166 0 01.081.11.183.183 0 01-.019.135.176.176 0 01-.046.052c-1.176 1.341.965 2.766 1.835 3.34.871.575 2.082 1.366 3.152 1.94.153.084 0 .312-.117.276a11.405 11.405 0 01-5.281-2.55c-.977-.97-1.247-2.623.2-3.293zm-29.322 10.99a29.72 29.72 0 015.551-3.591 28.29 28.29 0 016.752-2.826c.094 0 .129.12 0 .144a32.509 32.509 0 00-5.999 2.945 35.597 35.597 0 00-5.41 3.508 15.143 15.143 0 00-3.858 4.585 13.767 13.767 0 00-1.341 6.07.168.168 0 01-.048.119.164.164 0 01-.233 0 .168.168 0 01-.048-.119c-1.247-3.963 1.787-8.392 4.634-10.835z" fill="#BCA27D"/><path d="M174.154 71.679a14.173 14.173 0 012.941-2.586 22.123 22.123 0 014.34-1.88c.176-.072.247.204.07.275a16.641 16.641 0 00-6.763 4.562 19.043 19.043 0 00-3.281 6.931.218.218 0 01-.075.12.21.21 0 01-.337-.12 11.791 11.791 0 013.105-7.302z" fill="#BCA27D"/><path d="M175.93 73.75a14.096 14.096 0 016.222-4.071c.177 0 .235.215.071.275a14.4 14.4 0 00-5.811 4.059 20.177 20.177 0 00-3.328 6.297c0 .156-.33.156-.306 0a11.804 11.804 0 013.152-6.56zm68.983-14.092c2.103.3 4.177.784 6.198 1.449a230.96 230.96 0 015.634 1.568 37.53 37.53 0 0110.174 4.334c5.469 3.591 9.856 10.056 8.339 16.928 0 .144-.271.12-.247 0 .906-7.1-3.693-13.349-9.409-16.856a42.566 42.566 0 00-9.704-4.25 122.687 122.687 0 00-5.328-1.509 48.866 48.866 0 01-5.681-1.496c-.094 0-.094-.168.024-.168z" fill="#BCA27D"/><path d="M246.03 56.581c3.799.371 7.575.946 11.35 1.496 3.776.551 7.657 1.03 11.386 1.748 6.092 1.054 12.526 3.113 16.043 8.704a11.34 11.34 0 011.722 4.3c.274 1.54.228 3.122-.134 4.643 0 .096-.165 0-.153 0 1.282-6.177-3.388-11.84-8.528-14.366-6.01-2.945-13.114-3.328-19.618-4.286-4.046-.599-8.092-1.197-12.091-1.928a.156.156 0 01.023-.311zm27.817 37.127c.061-1.764.349-3.51.859-5.197 0-.02.007-.037.02-.051a.07.07 0 01.05-.021.07.07 0 01.05.021.074.074 0 01.021.05c0 1.713-.353 3.461-.459 5.174-.106 1.712 0 3.496-.223 5.22a.165.165 0 01-.33 0 20.178 20.178 0 01.012-5.196zm-12.115 221.026c7.822-2.191 14.349-7.961 19.995-13.636a104.441 104.441 0 0014.114-17.766 128.94 128.94 0 0016.843-42.238 154.627 154.627 0 002.611-46.08 156.089 156.089 0 00-11.362-46.116 136.032 136.032 0 00-24.958-39.305 169.499 169.499 0 00-3.964-4.25s0-.131.082-.083c11.468 10.869 20.755 23.9 27.347 38.37a154.096 154.096 0 0113.09 45.661 156.874 156.874 0 01-1.094 47.086 132.406 132.406 0 01-15.513 43.447 107.234 107.234 0 01-13.244 18.245 97.648 97.648 0 01-8.233 8.057 48.05 48.05 0 01-9.951 6.992 27.071 27.071 0 01-5.622 2.047c-.364.084-.423-.335-.141-.431zM289.09 98.89a91.784 91.784 0 0115.937 12.499 129.724 129.724 0 0113.703 15.157 133.955 133.955 0 0119.583 35.557 141.596 141.596 0 013.528 11.122c.483 1.819.93 3.663 1.33 5.507.5 1.853.804 3.755.905 5.674a.202.202 0 01-.2.204.204.204 0 01-.2-.204 37.717 37.717 0 01-1.176-5.004c-.353-1.628-.729-3.244-1.176-4.789a130.961 130.961 0 00-2.87-9.697 130.396 130.396 0 00-8.069-18.796 132.837 132.837 0 00-23.841-32.42 193.685 193.685 0 00-17.489-14.761l.035-.048zm-12.962 215.94a132.166 132.166 0 0021.96-13.169 120.908 120.908 0 0018.901-17.959 115.552 115.552 0 004.634-5.794c1.482-1.987 2.74-3.927 4.199-5.807.07-.095.2 0 .153.108a71.747 71.747 0 01-7.516 10.476 118.02 118.02 0 01-28.993 25.536 97.47 97.47 0 01-13.114 7.016c-.259.156-.506-.227-.224-.407zm115.936-193.276c1.057-6.691 4.387-12.792 9.41-17.24a17.377 17.377 0 019.221-4.214c.106 0 .118.155 0 .179a21.666 21.666 0 00-8.457 4.071 25.744 25.744 0 00-5.998 7.183c-3.776 6.513-4.623 14.163-4.258 21.55.118 2.227.329 4.453.6 6.68.27 2.227.776 4.669.894 7.004a.232.232 0 01-.059.142.221.221 0 01-.376-.082 51.5 51.5 0 01-.965-6.166 108.82 108.82 0 01-.635-6.501 53.324 53.324 0 01.623-12.606z" fill="#BCA27D"/><path d="M398.063 121.613a13.585 13.585 0 015.551-6.872 12.182 12.182 0 014.489-1.839 12.09 12.09 0 014.838.067c.118 0 .094.228 0 .216a14.78 14.78 0 00-8.527 1.832 12.949 12.949 0 00-5.881 7.255c-1.117 3.519-.917 7.315-.741 10.966.2 4.059.388 8.105.588 12.164.212 4.621.482 9.254.506 13.875 0 .228-.318.216-.341 0-.788-8.763-1.012-17.599-1.435-26.338-.176-3.807-.341-7.734.953-11.326zm-54.446 122.582a52.69 52.69 0 0018.678-6.872 60.185 60.185 0 0015.032-13.038 65.386 65.386 0 0010.585-17.754 76.682 76.682 0 004.917-23.417c.646-10.105-.318-20.113-.612-30.206a175.489 175.489 0 011.27 27.68 79.71 79.71 0 01-4.316 24.303c-4.659 12.95-13.248 24.054-24.524 31.702a50.604 50.604 0 01-20.806 8.189c-.447.047-.635-.587-.224-.587zm3.447 11.972c11.02-.814 22.006-3.855 30.992-10.643 8.033-6.07 12.938-15.061 16.466-24.435 1.929-5.22 3.529-10.583 5.011-15.946h.059c-2.517 9.757-5.07 19.634-10.198 28.373a43.289 43.289 0 01-9.468 11.421 50.076 50.076 0 01-14.055 8.093 51.598 51.598 0 01-18.819 3.652.277.277 0 01.012-.515zm-80.086 89.79c2.552-.179 3.775-4.094 4.411-6.106.7-2.36 1.052-4.813 1.046-7.279.059-3.591-.211-8.129 2.729-10.679-3.093 4.071-1.835 9.195-2.352 13.936a21.642 21.642 0 01-2 7.183c-.741 1.544-1.94 3.819-3.952 3.304a.22.22 0 01-.046-.215.218.218 0 01.164-.144zm-16.314 3.987c4.423-1.437 3.282-6.609 3.529-10.32a34.125 34.125 0 012.482-11.313 59.863 59.863 0 00-1.835 14.234 11.53 11.53 0 01-.765 5.687 3.76 3.76 0 01-1.358 1.641c-.599.402-1.3.618-2.017.622a.288.288 0 01-.036-.551zM23.239 195.948c.094-.527.894-.3.8.227-3.012 16.761 2.905 33.941 13.408 46.811 11.268 13.792 27.628 21.957 44.695 25.321a111.353 111.353 0 0030.239 1.568c.541 0 .53.802 0 .838-18.136 1.437-36.967-1.005-53.351-9.398-15.29-7.818-27.617-21.095-33.392-37.58a54.88 54.88 0 01-2.4-27.787zm21.159-54.831c5.481-7.064 15.631-8.01 23.806-8.477a86.357 86.357 0 0129.275 3.293 77.246 77.246 0 0115.29 6.382c.471.263 0 .994-.423.73a78.982 78.982 0 00-27.476-8.933 87.602 87.602 0 00-14.055-.73 70.19 70.19 0 00-13.879 1.533c-4.563 1.053-9.033 2.969-12.009 6.801-.27.431-.847-.18-.529-.599zm99.869 48.174a139.446 139.446 0 019.222-32.025c1.834-4.227 3.916-8.297 6.045-12.344-1.705 3.46-3.199 7.064-4.587 10.632-2.011 5.16-3.858 10.391-5.399 15.719a159.39 159.39 0 00-5.975 32.564c-.47 6.261-.67 12.535-.705 18.82 0 .132-.177.12-.188 0a124.433 124.433 0 011.587-33.366zm15.267-44.368a81.928 81.928 0 012.199-4.142l-2.199 4.142zm2.541-4.728l-.341.587.317-.599s.036 0 .024.012zm5.786 4.129c.13-2.753 2.353-4.549 4.705-5.602a28.197 28.197 0 014.034-1.413c2.082-.587 4.164-1.197 6.281-1.688a.152.152 0 01.181.11.156.156 0 01-.099.189c-2.975 1.09-6.116 1.7-9.056 2.873-2.294.91-4.999 2.467-5.305 5.232-.306 2.766 2.176 4.789 4.258 5.986a51.96 51.96 0 008.586 3.783 127.957 127.957 0 0037.72 8.117c7.247.487 14.521.363 21.748-.371.106 0 .106.144 0 .156a125.427 125.427 0 01-41.484-1.617 124.631 124.631 0 01-20.113-5.986c-4.163-1.676-11.726-4.01-11.456-9.769zm19.807-45.362a173.696 173.696 0 0025.006 4.538c4.116.407 8.233.587 12.361.706 4.26.212 8.529.184 12.785-.084.224 0 .224.324 0 .348-4.257.467-8.48 1.041-12.785 1.197a101.11 101.11 0 01-12.773-.551 128.355 128.355 0 01-12.467-1.856 51.258 51.258 0 01-5.987-1.592c-2.105-.67-4.246-1.197-6.328-1.963a.377.377 0 01-.23-.177.388.388 0 01.133-.525.37.37 0 01.285-.04z" fill="#BCA27D"/><path d="M205.652 99.884a57.22 57.22 0 009.198 1.749c3.136.275 6.294.179 9.409-.288.165 0 .235.216.071.252-6.175 1.377-12.938 1.521-18.89-.911a.415.415 0 01-.211-.202.421.421 0 01.141-.533.406.406 0 01.282-.067zM7.384 187.076a41.25 41.25 0 011.306-9.302.203.203 0 01.07-.111.197.197 0 01.247 0c.035.028.06.067.07.111 0 2.742-.293 5.483-.364 8.225-.07 2.742 0 5.495.153 8.237a90.6 90.6 0 002.352 16.09 94.014 94.014 0 005.305 15.708 91.792 91.792 0 007.61 14.174 85.897 85.897 0 0011.762 14.499s0 .107-.071.06a82.517 82.517 0 01-11.327-11.973 85.863 85.863 0 01-8.703-14.366 89.228 89.228 0 01-8.34-32.121 76.13 76.13 0 01-.07-9.231z" fill="#BCA27D"/><path d="M11.994 195.109A97.97 97.97 0 0014.23 205.8a90.464 90.464 0 003.117 10.368 176.488 176.488 0 004.093 10.021 90.48 90.48 0 005.375 9.362c.07.12-.094.264-.188.156a75.935 75.935 0 01-6.163-9.147 53.088 53.088 0 01-4.705-9.733 74.988 74.988 0 01-3.07-10.584 53.746 53.746 0 01-.87-5.459c-.2-1.892-.153-3.783-.247-5.675-.059-.287.388-.275.423 0zm4.411 5.257c.847 3.017 1.694 6.046 2.693 9.003.483 1.424 1 2.825 1.565 4.214a35.408 35.408 0 011.776 4.537c.082.347-.388.694-.635.383-1.87-2.394-2.882-5.758-3.823-8.608a44.084 44.084 0 01-2.082-9.457c-.035-.299.424-.347.506-.072zm53.175-71.713c3.992-.174 7.99.054 11.938.682 3.729.455 7.445 1.066 11.138 1.76 3.694.695 7.128 1.473 10.586 2.515s7.057 2.156 9.939 4.323c.364.275.176.922-.318.778-3.411-.982-6.669-2.395-10.08-3.412-3.41-1.018-6.94-1.725-10.444-2.395-3.505-.671-7.351-1.497-11.033-2.192-1.917-.371-3.834-.73-5.775-.982-1.94-.251-3.999-.359-5.986-.634a.218.218 0 01-.149-.078.225.225 0 01.025-.313.216.216 0 01.159-.052zm23.1.61a24.42 24.42 0 015.799.683c1.929.383 3.846.91 5.728 1.461a94.036 94.036 0 015.634 1.868 17.566 17.566 0 014.857 2.467c.083 0 0 .227-.082.215a27.059 27.059 0 01-5.105-1.473c-1.87-.634-3.752-1.197-5.645-1.784-1.894-.587-3.694-.934-5.552-1.365a52.054 52.054 0 01-5.728-1.413.33.33 0 01-.189-.14.34.34 0 01.063-.439.33.33 0 01.22-.08zm6.152-1.831c1.33.103 2.646.344 3.928.718 1.494.347 2.94.802 4.399 1.257l4.152 1.318 2.07.682c.353.108.694.251 1.035.371l.259.108a.663.663 0 01.294 0 .55.55 0 01.317.108.55.55 0 01.193.745.54.54 0 01-.193.201c-.941.634-2.352-.108-3.34-.383l-4.599-1.377c-1.529-.479-3.058-.922-4.563-1.485a21.184 21.184 0 01-4.094-1.796.265.265 0 01-.084-.282.262.262 0 01.226-.185zM54.725 265.11c3.364 1.198 6.61 2.634 9.974 3.808a90.02 90.02 0 0010.091 2.921 101.781 101.781 0 0021.172 2.395c3.999 0 7.998-.407 11.997-.383a.128.128 0 01.065.047.13.13 0 010 .156.124.124 0 01-.065.048 44.86 44.86 0 01-10.48 1.497c-3.626.189-7.26.133-10.88-.168a88.85 88.85 0 01-21.17-4.322 48.792 48.792 0 01-11.21-4.969c-.412-.335-.106-1.233.506-1.03z" fill="#BCA27D"/><path d="M44.54 261.733a43.379 43.379 0 009.409 6.477 58.356 58.356 0 0010.197 4.598c8.057 2.705 16.467 3.687 24.83 5.232.105 0 .07.191 0 .191a79.559 79.559 0 01-25.783-3.843 49.28 49.28 0 01-10.432-4.789 40.667 40.667 0 01-8.41-7.686.148.148 0 01-.004-.082.142.142 0 01.112-.107.155.155 0 01.08.009zm121.91 54.378a27.21 27.21 0 017.892 8.824c.483.862.941 1.748 1.353 2.646.388.203.753.443 1.176.646.624.347 1.247.706 1.882 1.042l-.176-.467a51.302 51.302 0 00-3.717-7.483c-.129-.215.141-.395.317-.251a19.123 19.123 0 014.94 6.932c.306.754.588 1.52.835 2.298.671.288 1.365.551 2.059.802a35.267 35.267 0 00-1.906-6.417.113.113 0 01-.023-.045.114.114 0 01-.002-.052.11.11 0 01.019-.048.119.119 0 01.085-.051.11.11 0 01.093.034.104.104 0 01.028.043 17.314 17.314 0 013.105 6.68l.071.347c1.506.479 3.035.898 4.54 1.365 1.506.467 3.282 1.197 4.952 1.652v.072c-1.859-.311-3.752-.287-5.611-.635a41.444 41.444 0 01-3.528-.85c.096.591.163 1.187.2 1.784 1.568.527 3.136 1.018 4.705 1.473 2.281.658 4.587 1.197 6.892 1.76l3.528.838c1.235.311 2.47.754 3.717.957.071 0 .059.132 0 .132-1.176-.096-2.352 0-3.622-.084-1.271-.083-2.353-.239-3.588-.419a73.967 73.967 0 01-7.374-1.556c-1.447-.359-2.87-.778-4.293-1.197a5.39 5.39 0 01-.389 1.305.428.428 0 01-.654.103.448.448 0 01-.134-.211 6.524 6.524 0 01-.2-1.64l-1.352-.455-.165-.06a2.692 2.692 0 01-.129.467.764.764 0 01-.23.349.737.737 0 01-.787.107.74.74 0 01-.312-.277 3.977 3.977 0 01-.459-1.34l-1.553-.587-.435-.168a1.934 1.934 0 01-.247 1.521.552.552 0 01-.332.247.541.541 0 01-.409-.056c-.753-.431-.87-1.197-1.07-1.951-.082-.287-.153-.575-.247-.862l-.353-.299a.768.768 0 010-1.006 8.252 8.252 0 01-.188-.563 38.505 38.505 0 00-2.352-5.495 61.854 61.854 0 00-6.481-9.817c-.188-.036-.13-.167-.071-.084zm15.443 17.875l.777.287.811.287c0-.574-.106-1.197-.188-1.724h-.176a33.753 33.753 0 01-1.659-.598c.071.431.306 1.053.435 1.748zm-5.045-3.592c.223.599.435 1.197.623 1.832.588.215 1.176.503 1.764.73l.565.227c0-.095 0-.191-.059-.287a23.333 23.333 0 00-.4-1.556l-1.035-.479c-.47-.24-1.035-.491-1.588-.79l.13.323z" fill="#BCA27D"/><path d="M175.871 336.308c1.555.277 3.053.815 4.434 1.592 1.541.647 3.106 1.198 4.705 1.82a112.662 112.662 0 009.562 3.006 128.668 128.668 0 0020.101 3.664c3.776.383 7.61.706 11.409.754.07.014.132.052.177.108a.316.316 0 010 .395.302.302 0 01-.177.108 102.504 102.504 0 01-20.359-1.018 113.072 113.072 0 01-19.807-5.017 110.788 110.788 0 01-5.446-2.072c-1.588-.646-3.728-1.197-4.928-2.49a.511.511 0 01.067-.756.49.49 0 01.262-.094zm-47.27-53.084c3.352 3.592 6.633 7.351 10.162 10.775 1.764 1.74 3.579 3.42 5.446 5.04 1.929 1.676 3.999 3.089 6.057 4.574a149.607 149.607 0 0025.064 14.917 96.67 96.67 0 0015.585 6.094c-4.858-1.365-9.692-2.527-14.432-4.334a100.729 100.729 0 01-13.338-6.286 110.92 110.92 0 01-12.562-8.141c-1.964-1.496-3.775-3.196-5.622-4.789a137.714 137.714 0 01-5.622-5.112 76.714 76.714 0 01-10.938-12.582c-.141-.12.047-.264.2-.156zm-10.692-118.679a158.266 158.266 0 011.647-5.351c-.141-.264-.282-.527-.4-.802a.342.342 0 01.09-.413.326.326 0 01.416.005l.223.216c3.329-9.925 7.728-19.443 14.455-27.536a166.267 166.267 0 0114.973-15.336 195.768 195.768 0 013.529-3.196c-.72-.425-1.405-.91-2.047-1.449a17.005 17.005 0 01-1.929-1.987c-.529-.635-1.176-1.198-1.094-2.131a.33.33 0 01.121-.25.327.327 0 01.127-.062.33.33 0 01.14 0c.765.288 1.071.934 1.565 1.557a18.298 18.298 0 001.646 1.796c.694.67 1.424 1.293 2.176 1.891l1.718-1.496c-1.318-1.066-2.964-2.526-3.258-4.274a.279.279 0 01.095-.295.269.269 0 01.304-.017c1.412.85 2.353 2.395 3.647 3.496l.235.204 1.505-1.293a17.415 17.415 0 01-.952-.91c-.706-.742-1.835-1.796-1.8-2.897 0-.074.016-.146.047-.212a.47.47 0 01.541-.255c.894.347 1.412 1.353 2.035 2.047.4.455.823.874 1.258 1.281l1.941-1.556-.423-.348a13.616 13.616 0 01-3.529-3.771c-.212-.455.235-1.029.718-.73 1.275 1 2.456 2.118 3.528 3.34l.776.694 1.671-1.34-.483-.479a10.369 10.369 0 01-2.199-2.682c-.271-.61.365-1.568 1.035-1.054a22.55 22.55 0 012.117 2.263l.859.886c.411-.311.811-.634 1.176-.958.365-.323.847.407.423.731l-1.023.814c.282.263.576.538.87.79a32.932 32.932 0 005.446 3.783 41.58 41.58 0 0012.291 4.298v.072a24.602 24.602 0 01-12.02-2.514.469.469 0 01-.001.275.468.468 0 01-.152.228l-1.294 1.029c.926.5 1.876.951 2.846 1.353v.084c-1.082-.371-2.129-.743-3.164-1.197a93.353 93.353 0 00-19.748 22.483l3.823-.802c6.328-1.353 12.644-2.742 18.983-3.987.177 0 .247.228.083.276-5.27 1.364-10.586 2.621-15.855 3.89-2.576.611-5.187 1.198-7.775 1.808-.423.695-.846 1.389-1.258 2.095a24.464 24.464 0 014.281-1.101.19.19 0 01.122.032.19.19 0 01.074.104.19.19 0 01-.09.223c-1.67.682-3.376 1.197-5.046 1.904a110.034 110.034 0 00-5.787 11.78 21.048 21.048 0 003.788 3.292 47.625 47.625 0 0011.761 5.424l.424.143a145.372 145.372 0 016.332-13.831.068.068 0 01.026-.018.086.086 0 01.032-.005c.01.001.02.005.03.01a.069.069 0 01.022.023c.006.009.01.019.011.03a.058.058 0 01-.003.032.067.067 0 01-.016.027 143.578 143.578 0 00-6.269 13.792 178.605 178.605 0 0013.584 4.059 277.943 277.943 0 0016.467 3.711c.094 0 .07.168 0 .168a129.104 129.104 0 01-30.581-6.477 129.16 129.16 0 00-.717 1.963c3.011.97 6.045 1.856 9.092 2.694a230.453 230.453 0 0030.074 6.189c5.732.799 11.48 1.357 17.243 1.677 2.882.179 5.763.287 8.645.431 2.882.143 5.775.395 8.657.359-2.753.119-5.493.383-8.233.467-2.741.083-5.364 0-8.034-.06a212.739 212.739 0 01-16.219-1.197 221.27 221.27 0 01-31.581-5.986 226.995 226.995 0 01-10.221-2.981 126.263 126.263 0 00-3.363 11.972 154.311 154.311 0 0027.51 6.464c6.462.92 12.977 1.404 19.501 1.449a.083.083 0 01.083.084.083.083 0 01-.083.084 144.119 144.119 0 01-47.435-6.238c-.247 1.197-.494 2.299-.729 3.448l-.106.551c2.717.994 5.446 2.011 8.233 2.849-2.764-.766-5.575-1.365-8.351-2.071a165.867 165.867 0 00-2.893 24.543c1.306.538 2.623 1.041 3.94 1.532v-1.197a97.939 97.939 0 011.623-15.564c0-.143.247-.107.247 0 0 4.633-.388 9.255-.517 13.888 0 1.113 0 2.239-.071 3.352.73.275 1.471.539 2.212.79.203-4.108.69-8.197 1.458-12.235 0-.204.376-.156.365 0a253.15 253.15 0 00-.377 12.69l.635.216a171.307 171.307 0 0034.251 7.722 141.04 141.04 0 0019.995.873.202.202 0 01.151.198.202.202 0 01-.151.198 162 162 0 01-35.286-2.598 153.847 153.847 0 01-19.689-5.148c0 1.987 0 3.974.118 5.986 1.294.371 2.587.73 3.893 1.053.153 0 .082.264-.071.24-1.27-.288-2.54-.575-3.81-.886 0 1.197.105 2.394.176 3.591a138.561 138.561 0 003.528 23.765 187.271 187.271 0 003.611 13.061c.189.599-.682.802-.905.252a117.267 117.267 0 01-8.092-41.028l-2.153-.575c0 .826 0 1.64.059 2.394a177.166 177.166 0 003.023 27.644 144.985 144.985 0 0017.313 46.391c2.2 3.7 4.575 7.291 7.057 10.775 3.352 1.353 6.787 2.598 10.233 3.592a.137.137 0 01.031.25.13.13 0 01-.102.013 84.539 84.539 0 01-9.221-2.634c2.247 2.993 4.705 5.783 7.128 8.62a104.407 104.407 0 0012.185 3.233c.235 0 .129.395-.094.347-3.74-.635-7.422-1.413-11.056-2.395a.28.28 0 01-.042.351.264.264 0 01-.346.02l-.683-.658a100.739 100.739 0 01-14.761-5.22 118.112 118.112 0 01-24.276-14.57c-4.058-3.16-8.362-6.584-11.421-10.775-.152-.203.153-.514.353-.359 3.646 2.766 6.904 6.07 10.492 8.931a119.11 119.11 0 0011.573 8.225 122.482 122.482 0 0025.1 11.864l1.529.503c-2.152-2.238-4.152-4.681-6.081-7.087a92.459 92.459 0 01-1.317-1.664 98.58 98.58 0 01-28.452-16.546 75.582 75.582 0 01-9.174-8.799.354.354 0 01-.106-.253.363.363 0 01.214-.335.331.331 0 01.135-.029.331.331 0 01.135.026.334.334 0 01.116.076 129.69 129.69 0 0017.043 14.211 109.014 109.014 0 0018.983 10.2 109.776 109.776 0 01-4.646-6.716 137.043 137.043 0 01-11.138-21.622 156.906 156.906 0 01-11.033-52.126 198.156 198.156 0 01-.2-6.417c-1.352-.395-2.693-.802-4.022-1.197v3.592a177.61 177.61 0 002.152 21.753c0 .143-.176.203-.211.06a119.05 119.05 0 01-3.2-25.788 91.335 91.335 0 01-4.551-1.7 115.092 115.092 0 01-5.411-2.323c0 2.083.106 4.167.212 6.25 0 .431-.6.407-.647 0a86.868 86.868 0 01-.541-6.693 153.15 153.15 0 01-3.987-1.951c.006.1.006.2 0 .299a160.39 160.39 0 005.457 36.79c3.529 12.846 9.233 25.141 17.76 35.389.342.408-.247 1.018-.588.599-15.643-18.772-21.582-43.782-23.123-67.857a182.365 182.365 0 01-.271-5.699 130.36 130.36 0 01-6.175-3.436 79.94 79.94 0 01-9.056-6.118c-.377-.299.117-.945.529-.682 4.834 3.137 9.645 6.213 14.667 8.967 0-2.167-.071-4.346 0-6.525-2.105-1.197-4.164-2.394-6.14-3.795a.425.425 0 01-.105-.544.406.406 0 01.517-.174c1.929 1.005 3.834 2.047 5.752 3.065.132-6.155.631-12.296 1.493-18.389l-.141-.072a17.875 17.875 0 01-4.305-2.263c-.364-.323 0-.874.447-.778a22.153 22.153 0 014.187 1.867c.165-1.101.342-2.19.541-3.292a45.041 45.041 0 01-13.702-9.709.558.558 0 01.378-.95.542.542 0 01.387.16 78.75 78.75 0 008.762 6.465 65.163 65.163 0 004.446 2.514c.223-1.197.459-2.395.717-3.592a45.556 45.556 0 01-2.434-1.197 39.497 39.497 0 01-7.304-4.609 23.04 23.04 0 01-4.764-4.669c0 .107-.059.203-.094.299-7.657 23.752-9.915 49.72-3.011 73.951a94.075 94.075 0 0017.902 34.468c.341.407-.247 1.017-.589.598-15.29-18.365-22.441-42.513-22.347-66.373a141.459 141.459 0 015.869-38.466zm35.932 51.564a73.96 73.96 0 002.153.67v-5.986l-2.188-.766c.012 2.035.012 4.058.035 6.082zm17.643-107.27l-.353-.179a31.096 31.096 0 01-5.587-3.688c-.494-.407-.976-.806-1.446-1.197l-1.635 1.317a36.12 36.12 0 002.352 1.88 52.876 52.876 0 004.952 3.136l1.717-1.269zm-22.888 25.992a83.104 83.104 0 00-5.117 1.472 26.577 26.577 0 00-6.116 2.814c-1.893 1.197-4.563 3.16-4.469 5.722.082 2.167 1.74 4.358 3.081 5.986a23.539 23.539 0 003.446 3.257 83.371 83.371 0 011.33-3.448c-2.047-2.323-3.529-5.256-2.071-8.141 1.071-2.119 3.529-3.185 5.576-4.083a66.464 66.464 0 013.011-1.269c.423-.802.87-1.568 1.329-2.31zm-2.012 3.46l-.776.335c-1.929.85-4.387 1.736-5.575 3.591-1.188 1.856-.341 4.346.847 6.07l.388.539a108.3 108.3 0 015.105-10.535h.011zm10.068 23.56c.247-.646.494-1.305.753-1.951l-1.388-.467a42.368 42.368 0 01-12.267-6.07 24.07 24.07 0 01-2.353-2.095c-.435 1.09-.858 2.179-1.27 3.28l.529.36a47.724 47.724 0 0011.139 5.303c1.588.575 3.211 1.126 4.846 1.64h.011zm-4.422 13.481a140.727 140.727 0 013.529-10.943l.317-.885a144.978 144.978 0 01-4.705-1.581 48.386 48.386 0 01-11.538-5.519l-.259-.179a118.598 118.598 0 00-3.693 12.546 136.808 136.808 0 006.798 2.969c.224-.61.471-1.197.718-1.831 0-.016.006-.031.017-.043a.059.059 0 01.083 0 .064.064 0 01.018.043l-.6 1.891a48.685 48.685 0 004.504 1.76 88.472 88.472 0 014.799 1.772h.012zm-16.831-4.43c-.247 1.197-.482 2.395-.718 3.592a84.665 84.665 0 004.47 2.107c.529.239 1.07.467 1.6.682a134.49 134.49 0 011.176-3.591 180.254 180.254 0 01-6.54-2.79h.012zm16.325 6.25a134.858 134.858 0 01-9.409-3.329 109.603 109.603 0 00-1.012 3.676c2.694 1.101 5.423 2.095 8.151 3.077l1.329.479c.283-1.281.6-2.574.941-3.903zm.729 38.478v-6.106a144.705 144.705 0 01-3.951-1.52 155.109 155.109 0 00-.106 6.213c1.376.515 2.717.982 4.057 1.437v-.024zm-4.892-13.589a133.73 133.73 0 012.999-20.112 34.596 34.596 0 01-1.564-.431 95.47 95.47 0 01-8.046-2.706 98.437 98.437 0 00-.764 3.208c2.188.91 4.399 1.796 6.634 2.61a.22.22 0 01.108.247.223.223 0 01-.08.119.207.207 0 01-.134.041 106.73 106.73 0 01-6.751-2.023 129.413 129.413 0 00-1.765 10.104c-.388 2.85-.635 5.723-.788 8.584a105.33 105.33 0 004.046 1.964c1.941.898 3.905 1.748 5.881 2.574.082-1.377.082-2.73.224-4.155v-.024zm-10.292 7.459l.847.407a149.28 149.28 0 009.104 3.843c0-2.083 0-4.178.07-6.249a203.488 203.488 0 01-3.975-1.688c-1.988-.886-3.988-1.784-5.964-2.742a131.43 131.43 0 00-.082 6.405v.024zm-4.987-2.526c1.317.702 2.646 1.385 3.987 2.047-.062-2.155-.062-4.31 0-6.465a100.09 100.09 0 01-4.081-2.107c.012 2.203.035 4.37.094 6.549v-.024zm0-7.985l4.128 2.167a97.394 97.394 0 012.823-18.425l-2.105-.779c-1.176-.454-2.27-.945-3.399-1.448a153.873 153.873 0 00-1.482 18.509l.035-.024zm2.117-23.035a162.14 162.14 0 00-.529 3.281c1.258.574 2.529 1.125 3.799 1.664l1.8.766c.27-1.053.564-2.095.882-3.137l-2.059-.838c-1.293-.538-2.634-1.065-3.893-1.736zm-8.95-12.822a53.802 53.802 0 006.704 3.808c.988.502 1.976.981 2.975 1.448a122.505 122.505 0 013.682-12.714c-2.999-2.227-5.881-5.208-7.057-8.824-1.553-4.788 3.27-8.081 6.986-9.9a45.662 45.662 0 0110.586-3.388 95.558 95.558 0 0119.995-23.094 32.014 32.014 0 01-5.093-2.682 41.747 41.747 0 01-2.788-2.023l-1.964 1.616.824.658a20.504 20.504 0 006.269 3.269c.188 0 .164.395-.059.371a15.319 15.319 0 01-6.846-2.395 13.573 13.573 0 01-1.246-.934l-1.506 1.281a23.464 23.464 0 003.611 2.491.265.265 0 01-.022.459.255.255 0 01-.178.02 14.488 14.488 0 01-4.411-2.108L154.182 112l1.377 1.042c.094.059 0 .227-.071.191a11.777 11.777 0 01-1.905-.706 207.729 207.729 0 00-15.573 15.156 72.496 72.496 0 00-10.833 15.013 105.898 105.898 0 00-6.668 16.138 39.343 39.343 0 004.94 4.346v-.048z" fill="#BCA27D"/><path d="M153.936 283.056a51.697 51.697 0 014.316 3.592 54.317 54.317 0 004.705 3.352 49.018 49.018 0 0010.444 5.125.175.175 0 01.107.085c.023.041.029.09.017.136a.186.186 0 01-.083.109.172.172 0 01-.135.017 52.526 52.526 0 01-10.785-4.789 47.746 47.746 0 01-4.846-3.317 18.41 18.41 0 01-4.187-3.903.359.359 0 01.006-.184.343.343 0 01.26-.237.339.339 0 01.181.014zm3.281-1.939a67.541 67.541 0 015.775 3.772 64.83 64.83 0 005.975 3.461c.129.06 0 .311-.106.251a42.06 42.06 0 01-6.351-2.85 19.175 19.175 0 01-5.575-4.251.241.241 0 01.107-.429.234.234 0 01.175.046zm-3.834-8.081c3.528 2.035 6.61 4.885 9.974 7.184.282.204 0 .671-.283.491-3.458-2.071-7.257-4.251-9.938-7.34a.21.21 0 01-.041-.294.203.203 0 01.288-.041zm109.302 33.294a144.033 144.033 0 0015.525-13.564 97.606 97.606 0 0012.527-16.246c8.092-13.17 12.185-28.182 15.643-43.207 2.105-9.135 3.74-18.629 1.964-27.979 0-.216.282-.311.33-.084 1.752 8.117.988 16.486-.542 24.579a222.71 222.71 0 01-5.88 24.255c-4.169 14.043-11.343 26.972-21.007 37.856a72.881 72.881 0 01-18.09 15.109.42.42 0 01-.588-.12.44.44 0 01.118-.599z" fill="#BCA27D"/><path d="M276.799 285.391a117.725 117.725 0 0013.326-19.646 98.42 98.42 0 008.233-22.089 91.594 91.594 0 002.352-13.456c0-.263.424-.263.4 0-1.012 16.171-6.294 31.765-15.29 45.134a67.994 67.994 0 01-8.563 10.56c-.282.359-.752-.144-.458-.503z" fill="#BCA27D"/><path d="M284.668 263.769c1.987-3.591 4.105-6.967 5.775-10.703a69.373 69.373 0 004.046-11.792c.106-.467.811-.264.694.203a71.181 71.181 0 01-3.999 11.817 48.439 48.439 0 01-6.163 10.775c-.165.191-.483-.072-.353-.3zm-5.517-10.999a50.961 50.961 0 004.881-9.844c.165-.479.918-.275.753.204a29.667 29.667 0 01-5.328 9.879c-.176.168-.459-.048-.306-.239zm-169.663-50.034c.07-3.903.611-7.71 1.046-11.577 0-.131.224-.131.2 0a88.673 88.673 0 00-.082 9.997c.094 3.328.247 6.668.529 9.984a118.996 118.996 0 003.458 19.814 122.112 122.112 0 0016.314 36.359c1.999 3.041 4.116 5.986 6.269 8.967 2.293 3.136 5.093 5.746 7.598 8.679a.265.265 0 01-.015.356.258.258 0 01-.35.016 84.514 84.514 0 01-7.057-7.243 71.482 71.482 0 01-6.445-7.555 110.695 110.695 0 01-10.268-17.431 117.094 117.094 0 01-10.786-38.957 99.197 99.197 0 01-.411-11.409zm231.671 14.929a74.515 74.515 0 017.057-23.573c1.8-3.508 4.399-6.872 8.034-8.488a.09.09 0 01.058.004.095.095 0 01.058.097.095.095 0 01-.022.055c-5.881 4.513-8.68 11.972-10.715 18.975a89.23 89.23 0 00-3.588 24.22c0 2.322.083 4.621.177 6.931.235 2.291.352 4.593.353 6.896a.385.385 0 01-.094.254.373.373 0 01-.647-.158 25.732 25.732 0 01-1.176-6.297 61.31 61.31 0 01-.342-6.238 84.8 84.8 0 01.847-12.678z" fill="#BCA27D"/><path d="M343.841 224.657c.066-3.574.46-7.133 1.176-10.632a73.875 73.875 0 012.846-10.439 51.417 51.417 0 011.976-4.885c.777-1.64 1.753-3.125 2.67-4.669.141-.263.494 0 .377.227-1.424 3.221-2.529 6.681-3.658 10.033a80.595 80.595 0 00-2.647 9.973 109.351 109.351 0 00-1.529 10.356 56.3 56.3 0 00-.282 5.076c-.024 1.712.106 3.591 0 5.411 0 .132-.212.18-.247 0a26.602 26.602 0 01-.553-5.112c-.129-1.724-.129-3.544-.129-5.339z" fill="#BCA27D"/><path d="M348.769 216.479c.025-1.698.186-3.392.482-5.064a23.663 23.663 0 013.811-9.422.274.274 0 01.502.076.287.287 0 01-.031.211 43.388 43.388 0 00-2.847 9.363 30.232 30.232 0 00-.411 4.788v2.275c.075.796.075 1.598 0 2.395a.49.49 0 01-.882.119 11.6 11.6 0 01-.624-4.741zm4.752-5.158a12.24 12.24 0 011.176-4.132c.13-.239.577-.155.541.144-.164 1.317-.541 2.599-.729 3.904-.188 1.305-.165 2.826-.435 4.179a.305.305 0 01-.465.15.31.31 0 01-.111-.15 10.95 10.95 0 01.023-4.095zM396.51 89.349a25.786 25.786 0 016.916-4.79 29.327 29.327 0 013.929-1.52 12.971 12.971 0 014.128-.802.54.54 0 01.347.142.556.556 0 01-.206.936c-1.176.503-2.634.682-3.905 1.077a33.455 33.455 0 00-3.775 1.425 30.76 30.76 0 00-6.846 4.358c-4.107 3.417-6.952 8.153-8.068 13.432 0 .084-.153 0-.141 0a26.923 26.923 0 017.621-14.258z" fill="#BCA27D"/><path d="M397.945 90.247a11.418 11.418 0 013.528-2.275 30.386 30.386 0 013.964-1.808 16.895 16.895 0 014.058-.91s2.152-.191 1.87.383c-.282.575-1.87.611-2.564.743a26.79 26.79 0 00-3.717 1.03c-1.246.442-2.481.91-3.669 1.472a19.511 19.511 0 01-3.305 1.58.14.14 0 01-.159-.047.14.14 0 01-.03-.083.143.143 0 01.024-.085zm7.057-1.113a6.39 6.39 0 012.741-1.366 4.485 4.485 0 012.799-.072.186.186 0 01.064.07.197.197 0 010 .184.186.186 0 01-.064.07c-.83.3-1.69.505-2.564.61-.941.252-1.87.552-2.799.815-.177.06-.377-.192-.177-.311zm-4.705 23.692a17.518 17.518 0 016.246-4.597 27.408 27.408 0 018.845-2.048 72.762 72.762 0 015.093-.155c.694 0 2.764-.359 2.905.658a.18.18 0 01-.108.193.175.175 0 01-.21-.061c-.306-.419-1.976-.168-2.411-.156h-2.047c-1.411 0-2.822.132-4.234.264a24.991 24.991 0 00-8.198 1.987 16.714 16.714 0 00-5.622 4.106 14.48 14.48 0 00-3.07 6.501c0 .108-.2.084-.188 0a11.438 11.438 0 012.999-6.692z" fill="#BCA27D"/><path d="M405.226 106.373c5.14-2.574 11.326-2.718 16.925-2.083.094 0 .106.167 0 .167-5.469.216-11.138-.107-16.243 2.299a16.805 16.805 0 00-5.387 3.856 14.646 14.646 0 00-3.093 6.13c0 .12-.224.108-.212 0 .224-4.502 4.258-8.501 8.01-10.369zM212.603 6.06a13.79 13.79 0 018.163-4.322.221.221 0 01.147.04.227.227 0 01.076.28.224.224 0 01-.106.11 18 18 0 00-6.78 4.7 18.434 18.434 0 00-4.029 7.273c-1.87 6.608-.094 13.3 2.835 19.263 1.259 2.562 3.058 5.579 2.717 8.56.491 2.89.297 5.857-.565 8.655-.482 1.52-1.787 3.508-.858 5.065a5.858 5.858 0 003.528 2.107c2.047.586 4.164.97 6.246 1.365 1.176.227 2.352.419 3.611.586 1.258.168 2.187.443 3.293.61.165 0 .118.264 0 .264a30.057 30.057 0 01-3.117.192c-1.106 0-2.211-.108-3.317-.204a56.476 56.476 0 01-6.175-.898c-2.775-.55-6.233-1.796-6.374-5.196-.083-1.951 1.07-3.759 1.529-5.603a16.4 16.4 0 00.341-6.237 32.374 32.374 0 00-2.235-7.686l-.741-1.4a30.379 30.379 0 01-3.246-9.985 21.335 21.335 0 01.551-9.36 21.073 21.073 0 014.506-8.18zm119.324 222.403c.893-12.881 2.916-26.135 9.327-37.484a65.66 65.66 0 015.657-8.56 31.606 31.606 0 017.633-7.351c.424-.263.847.335.518.694-2.023 2.215-4.223 4.226-6.14 6.525a46.337 46.337 0 00-5.01 7.255 71.37 71.37 0 00-6.234 16.342c-3.317 12.439-3.646 25.405-4.034 38.215a69.178 69.178 0 00.2 10.128c0 .228 0 .467.082.707a.538.538 0 01.447.431 10.369 10.369 0 001.306 3.496 6.66 6.66 0 002.646 2.454 9.516 9.516 0 003.999 1.089 59.23 59.23 0 005.057.264 73.978 73.978 0 009.763-.659c1.646-.215 3.293-.526 4.928-.802 1.635-.275 3.176-.67 4.705-.778.2 0 .258.275.094.371-.724.443-1.493.805-2.294 1.078-.882.335-1.741.742-2.634 1.029a42.767 42.767 0 01-5.423 1.353c-3.61.655-7.271.972-10.938.946-2.611 0-5.775.108-8.233-1.197a1.03 1.03 0 01-.671.395c-2.905.347-3.999-3.676-4.552-5.831a39.652 39.652 0 01-1.058-9.637c.059-6.8.388-13.672.859-20.473zM166.085 95.993c.177-.167.541-.12.577.156.035.77.19 1.53.458 2.25a5.706 5.706 0 001.471 1.964 19.583 19.583 0 004.293 2.395c3.387 1.604 6.751 3.292 10.244 4.633a49.813 49.813 0 0010.586 2.646c3.693.539 7.422 1.03 11.138 1.425a.095.095 0 01.05-.005.11.11 0 01.091.106.106.106 0 01-.045.088.094.094 0 01-.046.019.095.095 0 01-.05-.005c-4.17.173-8.348.053-12.503-.359a44.966 44.966 0 01-11.573-2.933c-3.682-1.509-7.339-3.209-10.915-4.969a8.823 8.823 0 01-3.881-3.185c-.683-1.137-.988-3.196.105-4.226zm66.513 201.61a40.97 40.97 0 0013.691-7.687c.094-.072.235.06.141.143a40.959 40.959 0 01-13.785 7.699c-.094.036-.141-.119-.047-.155zm-24.076 1.161a127.255 127.255 0 0040.59-18.234c.141-.095.27.132.129.228a117.574 117.574 0 01-40.66 18.173.087.087 0 01-.112-.054.09.09 0 01.003-.068.089.089 0 01.05-.045zm-83.768-88.402a168.052 168.052 0 0022.548-5.399s.082.084 0 .096a131.746 131.746 0 01-22.536 5.447c-.07.012-.106-.132-.012-.144zm-3.869-6.645a67.806 67.806 0 0010.668-.994 35.691 35.691 0 009.986-3.938.341.341 0 01.47.12.353.353 0 01-.118.479 36.307 36.307 0 01-10.315 4.154 24.869 24.869 0 01-10.738.526c-.2-.048-.141-.335.047-.347zm1.047-5.397c2.211-.408 4.469-.444 6.68-.899a39.544 39.544 0 006.481-1.928c.494-.204.718.611.224.802a38.243 38.243 0 01-6.681 1.989 21.388 21.388 0 01-6.634.587c-.27-.036-.458-.479-.07-.551zm-4.964-2.169c2.165-1.065 4.399-1.951 6.622-2.873.424-.18.612.527.188.694-2.187.922-4.363 1.868-6.61 2.646-.329.084-.458-.311-.2-.467z" fill="#BCA27D"/><path d="M130.224 215.929c3.528-.969 7.222-1.592 10.797-2.394 3.576-.802 6.904-1.736 10.315-2.754 1.071-.323 2.153-.646 3.223-.993-2.211-1.09-4.399-2.215-6.481-3.508-.188-.12-.07-.467.153-.383 2.517 1.029 4.952 2.275 7.375 3.591a182.266 182.266 0 009.139-3.196 385.036 385.036 0 01-15.02-8.153 163.775 163.775 0 01-10.362-6.453.182.182 0 01-.083-.109.184.184 0 01.018-.136.174.174 0 01.241-.066c8.563 4.86 17.067 9.793 25.723 14.438 0-2.554.043-5.104.13-7.65a269.9 269.9 0 01-14.632-7.926 100.557 100.557 0 01-9.845-6.213.199.199 0 01-.06-.114.192.192 0 01.122-.209.185.185 0 01.127 0c3.834 2.035 7.492 4.441 11.256 6.62 3.763 2.179 7.598 4.25 11.444 6.286l1.611.85c.079-2.107.196-4.215.353-6.322h-.082a158.56 158.56 0 01-9.81-5.375 75.331 75.331 0 01-9.268-5.986c-.2-.156 0-.455.247-.335 3.258 1.772 6.328 3.974 9.539 5.866 3.211 1.892 6.234 3.592 9.409 5.244 0-.419 0-.838.094-1.197 0-.156.259-.168.247 0 0 .454-.058.909-.094 1.364a234.41 234.41 0 009.727 4.789c.188-1.472.4-2.933.647-4.394 0-.167.282-.095.259.072a95.395 95.395 0 00-.623 4.442 172.348 172.348 0 008.115 3.448c.082-1.676.188-3.364.318-5.052-2.29-.95-4.564-1.948-6.822-2.993a100.113 100.113 0 01-13.526-7.184.163.163 0 01-.052-.046.183.183 0 01.033-.252.176.176 0 01.061-.031.179.179 0 01.134.018c4.411 2.311 8.692 4.849 13.185 7.028a196.513 196.513 0 007.057 3.184c.153-1.939.33-3.867.553-5.794-1.929-.707-3.822-1.473-5.657-2.395a.17.17 0 01-.088-.096.173.173 0 01.1-.22.165.165 0 01.129.005c1.87.659 3.728 1.353 5.587 2.047a1.363 1.363 0 010-.239c0-.084.129-.084.129 0v.287c2.505.922 5.022 1.832 7.563 2.634l.141-1.197c0-.335.553-.347.518 0l-.142 1.329.741.227a131.754 131.754 0 0014.973 3.592c.118 0 .071.191 0 .179a144.067 144.067 0 01-15.22-3.448l-.599-.335a189.031 189.031 0 00.352 42.058 140.62 140.62 0 005.54-3.149.268.268 0 01.327.119.27.27 0 01.034.184.274.274 0 01-.09.164 142.348 142.348 0 01-5.74 3.269c.365 2.897.8 5.794 1.294 8.667.847 4.921 1.811 9.829 2.952 14.678a.163.163 0 01-.112.197.153.153 0 01-.12-.015.166.166 0 01-.074-.098 157.517 157.517 0 01-4.705-23.034 205.321 205.321 0 01-5.88 2.981 176.472 176.472 0 004.21 18.293c.58 1.971 1.192 3.927 1.835 5.866l1.588-.778c.329-.168.623.335.294.515l-1.705.718c1.317 3.939 2.764 7.818 4.222 11.697.071.179-.223.311-.306.131a100.47 100.47 0 01-2.246-5.459 83.42 83.42 0 01-8.01 3.592c.784 2.466 1.568 4.924 2.352 7.375 1.365-.431 2.729-.874 4.093-1.353a158.863 158.863 0 0019.89-8.417c.247-.131.47.252.223.384a160.856 160.856 0 01-19.619 8.452 207.293 207.293 0 01-4.446 1.508c.847 2.634 1.694 5.28 2.517 7.914a160.04 160.04 0 0013.597-4.179 152.489 152.489 0 0039.625-21.118c.071 0 .13 0 .071.108-15.52 11.607-33.048 20.136-51.669 25.141-2.588.694-5.211 1.365-7.846 1.927a254.923 254.923 0 003.2 6.178 179.735 179.735 0 0022.653-5.914 165.7 165.7 0 0028.11-12.403 169.115 169.115 0 0014.479-9.159c.141-.096.271.132.13.228-16.731 11.909-35.469 20.589-55.281 25.608a145.084 145.084 0 01-9.809 2.155c1.176 2.167 2.352 4.334 3.528 6.477a.165.165 0 01.005.118.16.16 0 01-.073.092.16.16 0 01-.214-.043 134.113 134.113 0 01-3.94-6.525c-2.105.372-4.222.695-6.34.934-.117 0-.141-.191 0-.203 2.055-.359 4.101-.759 6.14-1.198-1.176-2.023-2.223-4.082-3.27-6.153a69.874 69.874 0 01-7.174 1.125c-.106 0-.13-.179 0-.203 2.352-.491 4.634-.934 6.951-1.413a149.657 149.657 0 01-3.341-7.183c-2.787.73-5.598 1.365-8.421 1.832-.235 0-.341-.3-.094-.36 2.764-.682 5.516-1.352 8.233-2.071a192.216 192.216 0 01-2.811-6.836c-1.258.335-2.54.647-3.822.922a37.274 37.274 0 01-7.058 1.078.22.22 0 01-.139-.06.233.233 0 01-.038-.288.216.216 0 01.119-.095c2.352-.551 4.704-.779 6.963-1.281a79.25 79.25 0 003.763-.898 185.854 185.854 0 01-1.999-5.46 127.517 127.517 0 01-6.598 1.796 54.719 54.719 0 01-8.669 1.616c-.223 0-.27-.347 0-.395 2.823-.718 5.716-1.197 8.563-1.819a109.39 109.39 0 006.551-1.784c-.6-1.748-1.176-3.508-1.741-5.28a90.932 90.932 0 01-4.987 1.449 94.24 94.24 0 01-6.386 1.436 43.429 43.429 0 01-6.316.91.18.18 0 01-.095-.283.178.178 0 01.095-.064c2.128-.443 4.316-.646 6.445-1.053a100.53 100.53 0 006.387-1.437 77.28 77.28 0 004.704-1.389l-.388-1.197a178.815 178.815 0 01-1.729-5.986c-.8.239-1.599.467-2.411.67a85.251 85.251 0 01-7.786 1.653c-2.626.509-5.29.782-7.963.814-.165 0-.212-.264 0-.288 2.623-.407 5.269-.55 7.892-.969a77.438 77.438 0 007.587-1.605 70.18 70.18 0 002.611-.718 195.818 195.818 0 01-2.506-10.404 147.595 147.595 0 01-15.137 4.131 103.547 103.547 0 01-13.526 2.095c-.118 0-.141-.18 0-.192a201.431 201.431 0 0023.629-5.04 185.155 185.155 0 004.952-1.544c-.517-2.459-.98-4.921-1.388-7.387a93.247 93.247 0 01-21.171 4.789c-.129 0-.153-.204 0-.228a150.291 150.291 0 0017.443-3.879 82.67 82.67 0 003.693-1.197 213.261 213.261 0 01-.918-6.142 82.726 82.726 0 01-7.998 2.706 91.062 91.062 0 01-6.798 1.604c-2.3.522-4.643.819-6.998.886a.201.201 0 01-.229-.173.208.208 0 01.037-.153.202.202 0 01.133-.081c2.2-.503 4.47-.706 6.669-1.125a87.224 87.224 0 006.81-1.592 81.475 81.475 0 008.292-2.79c-.329-2.55-.611-5.1-.823-7.674-1 .323-1.988.635-2.988.922l.365.179c.27.132 0 .551-.235.408l-.812-.396h-.153a89.725 89.725 0 01-14.361 3.077.09.09 0 01-.066-.028.095.095 0 010-.135.09.09 0 01.066-.028c4.705-.946 9.48-1.82 14.114-3.125l-5.951-2.945a75.17 75.17 0 00-2.353-1.114 266.643 266.643 0 01-8.48 2.263 142.154 142.154 0 01-11.597 2.335c-.165 0-.235-.228-.071-.264 6.469-1.4 12.938-2.957 19.255-4.788-1.341-.647-2.67-1.305-3.952-2.048-.189-.107 0-.467.164-.371 1.553.647 3.07 1.413 4.576 2.191a230.463 230.463 0 009.409-2.897l-3.235-1.592c-1.446-.719-2.916-1.413-4.375-2.131-1.329.431-2.658.85-3.987 1.197a197.678 197.678 0 01-10.503 2.825 76.777 76.777 0 01-10.515 2 .124.124 0 01.001.043.124.124 0 01-.016.04.095.095 0 01-.029.031.113.113 0 01-.081.018.11.11 0 01-.07-.045.11.11 0 01-.017-.04zm35.838-1.005l5.399 2.837c.153.072 0 .299-.13.228l-5.234-2.586c.106 1.532.224 3.052.365 4.585a124.073 124.073 0 008.621-3.197 139.965 139.965 0 01-.176-4.669v-.874l-1.447-.694c-2.47.982-4.963 1.904-7.469 2.801.012.527.036 1.042.071 1.569zm-.612-1.389l-1.176.431 1.27.67c-.058-.371-.07-.73-.094-1.101zm9.41-2.813v-.755l-.824.336.824.419zm-2.153-.479a498.193 498.193 0 01-7.057-3.52c0 2.023.118 4.034.224 6.058 2.329-.814 4.618-1.66 6.869-2.538h-.036zm-7.057-4.418c2.059-.778 4.093-1.604 6.116-2.394.283-.12.412.359.13.478a993.473 993.473 0 01-5.787 2.395 243.64 243.64 0 007.257 3.771l1.482-.587c0-2.218.071-4.433.212-6.644a309.283 309.283 0 01-9.41-4.501c-.008 2.466.008 4.98.047 7.542l-.047-.06zm.33-14.654a213.26 213.26 0 00-.283 6.357 311.606 311.606 0 009.41 4.717c.141-2.19.341-4.393.611-6.584a176.29 176.29 0 01-9.691-4.49h-.047zm9.291 18.03a206.814 206.814 0 007.328-3.137 503.026 503.026 0 01-7.186-3.16c-.047 2.095-.094 4.178-.094 6.297h-.048zm.718-13.42c-.251 2.21-.431 4.425-.541 6.644a309.656 309.656 0 007.492 3.496l.788-.359a.28.28 0 01.259 0c0-2.179.059-4.37.153-6.549a179.538 179.538 0 01-8.104-3.232h-.047zm7.998 10.26l-.388.167.388.18v-.228c0-.072.047-.084.047-.119h-.047zm0 .61l-.706-.299a245.954 245.954 0 01-8.01 3.448v1.137l2.094 1.042a391.963 391.963 0 006.834 3.22 312.447 312.447 0 01-.165-8.548h-.047zm-8.692 4.789a62.4 62.4 0 00.212 5.136l.67-.287c.188-.072.271.227.082.299l-.741.311c.295 4.789.836 9.65 1.588 14.438 1.306-.574 2.611-1.197 3.905-1.795.224-.108.412.227.188.347-1.329.634-2.67 1.269-4.034 1.867.4 2.562.859 5.116 1.376 7.662a136.228 136.228 0 007.998-3.519 177.83 177.83 0 01-2.352-20.353 369.983 369.983 0 01-8.845-4.082l-.047-.024zm11.762 24.195a141.329 141.329 0 005.787-2.933 179.11 179.11 0 01-1.177-29.056c.181-4.533.53-9.051 1.047-13.552a145.554 145.554 0 01-7.574-2.395c-.189 1.94-.342 3.879-.459 5.831 2.246.946 4.528 1.855 6.822 2.705.141.06.082.3-.071.24-2.27-.826-4.54-1.7-6.775-2.622-.105 1.7-.188 3.388-.247 5.076l1.623.635c.095 0 .059.191 0 .155l-1.576-.586a174.938 174.938 0 00-.094 7.422c.953.419 1.917.85 2.882 1.257.082 0 0 .192-.059.156l-2.823-1.197c0 2.857.094 5.718.283 8.584l3.787 1.724c.2.084 0 .383-.177.299l-3.528-1.604a179.502 179.502 0 002.282 19.921l.047-.06zm.2 4.514c-.236-1.197-.459-2.466-.682-3.7-2.623 1.198-5.293 2.395-7.987 3.52.714 3.52 1.498 7.024 2.353 10.512a99.3 99.3 0 003.234-1.461c.271-.132.494.275.235.395a84.013 84.013 0 01-3.352 1.509c1.118 4.417 2.353 8.799 3.646 13.169a110.436 110.436 0 007.775-3.388 178.488 178.488 0 01-5.069-20.532l-.153-.024zm7.304 26.614h.082a137.575 137.575 0 01-1.941-5.484 124.763 124.763 0 01-7.786 3.4l.459 1.509a314.07 314.07 0 001.305 4.202 80.674 80.674 0 007.987-3.604l-.106-.023zm-9.127 21.477c2.081-.431 4.152-.874 6.198-1.4a437.278 437.278 0 01-2.776-7.806c-2.246.73-4.516 1.424-6.81 2.035a472.298 472.298 0 003.493 7.195l-.105-.024zm-4.305-9.29c.212.503.435 1.018.658 1.52 2.353-.61 4.611-1.197 6.905-1.939a255.032 255.032 0 01-2.412-7.303 91.49 91.49 0 01-4.704 1.652l-2.576.754a411.973 411.973 0 002.235 5.34l-.106-.024zm-2.423-5.986a94.068 94.068 0 002.446-.718 77.477 77.477 0 004.917-1.7c-.596-1.9-1.18-3.807-1.753-5.723a89.906 89.906 0 01-6.045 2.167l-1.6.503a460.046 460.046 0 002.141 5.543l-.106-.072zm-4.14-11.78a150.337 150.337 0 007.057-2.598c.27-.12.388.323.129.443a92.616 92.616 0 01-7.057 2.598 202.816 202.816 0 001.764 5.279l1.459-.455c2.093-.67 4.164-1.412 6.21-2.203a352.288 352.288 0 01-3.587-13.169 84.585 84.585 0 01-8.092 2.921c.776 2.491 1.47 4.885 2.223 7.255l-.106-.071zm-2.223-7.603a84.585 84.585 0 008.092-2.921c-.094-.395-.188-.79-.294-1.197a227.43 227.43 0 01-2.082-9.35 156.958 156.958 0 01-8.233 3.029c.815 3.551 1.69 7.055 2.623 10.511l-.106-.072zm-2.623-10.978a147.394 147.394 0 008.233-3.017c-.51-2.538-.96-5.088-1.352-7.65a121.9 121.9 0 01-8.234 3.268 362.9 362.9 0 001.4 7.471l-.047-.072zm-2.494-14.761c1.447-.587 2.894-1.198 4.305-1.88.412-.192.765.419.353.61a80.985 80.985 0 01-4.563 1.988c.27 2.071.576 4.118.917 6.177a120.011 120.011 0 008.292-3.22c-.729-4.789-1.27-9.578-1.541-14.462-2.823 1.197-5.704 2.227-8.609 3.172.305 2.602.623 5.164.952 7.686l-.106-.071zm-12.996-10.775l1.599.814 6.599 3.256c1.176-.323 2.246-.67 3.363-1.029-.141-1.653-.27-3.317-.364-4.981v-.072l-1.906-.933a151.65 151.65 0 01-9.185 3.005l-.106-.06zm5.41-5.519l3.764 1.975 1.917-.646a166.373 166.373 0 01-.165-6.394 200.89 200.89 0 01-8.997 3.209l3.481 1.856zm82.779-39.975c3.529-1.532 7.375-2.574 11.033-3.808.282-.083.4.36.117.455-3.634 1.198-7.292 2.731-11.02 3.665-.177.048-.318-.24-.13-.312zm-14.737.025c11.467-3.592 23.064-6.861 34.614-10.238-11.514 3.485-23.006 7.089-34.579 10.322a.061.061 0 01-.023.025.048.048 0 01-.031.008.058.058 0 01-.053-.036.062.062 0 01.01-.064.066.066 0 01.029-.017.062.062 0 01.033 0zm-17.525 0c7.563-1.82 15.137-3.592 22.618-5.795 7.48-2.203 14.878-4.622 22.183-7.34a296.464 296.464 0 0012.314-4.873c.071 0 .129.108 0 .132a299.778 299.778 0 01-43.977 15.194c-4.352 1.126-8.704 2.155-13.115 2.969-.129.036-.211-.239-.023-.287zm-5.505-2.827c8.151-2.263 16.337-4.286 24.418-6.812a380.21 380.21 0 0023.923-8.381c.118 0 .165.144 0 .192a372.4 372.4 0 01-23.818 8.763 222.178 222.178 0 01-24.44 6.753.254.254 0 01-.191-.046.262.262 0 01.108-.469zm.506-4.129c3.881-1.354 7.986-2.204 11.927-3.389a282.008 282.008 0 0011.761-3.82c.153 0 .212.192.071.24a294.52 294.52 0 01-11.762 3.963 96.663 96.663 0 01-11.95 3.341.166.166 0 01-.188-.144.17.17 0 01.141-.191zm-4.811-3.054a196.176 196.176 0 0020.301-6.585c.141 0 .212.191.059.239a131.844 131.844 0 01-20.36 6.526c-.117.024-.176-.18 0-.18zm-11.056-1.305c3.776-1.4 7.704-2.394 11.55-3.591l11.562-3.592a1647.7 1647.7 0 0023.065-7.35c.13 0 .177.167 0 .203a1381.158 1381.158 0 01-22.994 7.554 922.62 922.62 0 01-11.562 3.592c-3.846 1.197-7.716 2.394-11.632 3.316a.068.068 0 01-.029-.029.066.066 0 01-.008-.041.067.067 0 01.015-.038.078.078 0 01.033-.024zm-16.349-1.365c4.34-1.377 8.845-2.286 13.256-3.448a567.32 567.32 0 0013.197-3.663 572.455 572.455 0 0025.934-8.212 640.454 640.454 0 0014.491-5.208c.2-.084.294.251.094.335a589.446 589.446 0 01-51.987 16.76c-4.917 1.329-9.904 2.85-14.938 3.688a.127.127 0 01-.094-.02.146.146 0 01-.034-.036.12.12 0 01-.018-.096.125.125 0 01.054-.081.127.127 0 01.045-.019zm-2.305-4.356c4.07-1.293 8.233-2.227 12.409-3.329 4.175-1.101 8.233-2.191 12.397-3.329a902.023 902.023 0 0024.7-7.184c.235-.071.341.312.094.384a899.704 899.704 0 01-24.7 7.279 914.683 914.683 0 01-12.385 3.389c-4.129 1.078-8.233 2.287-12.479 3.053a.158.158 0 01-.091-.121.163.163 0 01.055-.142zm-4.963-2.323c2.634-.994 5.492-1.556 8.233-2.395l8.398-2.394a565.616 565.616 0 0016.466-5.065c.224-.072.318.299.094.371a769.682 769.682 0 01-16.466 5.185c-2.721.798-5.465 1.596-8.233 2.394a83.268 83.268 0 01-8.422 2.275.21.21 0 01-.143-.164.216.216 0 01.073-.207zm-8.692-3.077c10.033-2.647 20.136-5.017 30.204-7.496.177 0 .247.228.071.263-10.068 2.503-20.113 5.113-30.216 7.436a.105.105 0 01-.071-.017.109.109 0 01-.042-.06.108.108 0 01.004-.073.108.108 0 01.05-.053zm-6.552-4.932c14.22-3.592 28.523-6.921 42.79-10.322.106 0 .153.132 0 .156-14.255 3.46-28.499 7.041-42.801 10.274-.024.012-.059-.096.011-.108zm4.964-6.586c8.751-1.928 17.56-3.592 26.346-5.328.141 0 .2.204 0 .228-8.774 1.796-17.536 3.711-26.346 5.339-.094.048-.153-.179 0-.239zm-3.834-1.675c5.881-1.138 11.703-2.12 17.56-3.161.13 0 .188.179 0 .203-5.881 1.042-11.762 2.155-17.572 3.113-.047.012-.094-.143.012-.155zm56.938 202.554c8.422.478 16.796 1.592 25.241 1.891 8.42.367 16.856-.033 25.205-1.197a86.166 86.166 0 0013.856-3.208v.096c-16.208 5.554-33.333 5.733-50.223 4.429-4.705-.36-9.48-.779-14.114-1.521-.306-.048-.247-.502.035-.49z" fill="#BCA27D"/><path d="M199.171 333.159c2.094.24 4.176.79 6.258 1.198 2.082.407 4.14.754 6.222 1.077 4.269.671 8.574 1.198 12.938 1.533 8.535.691 17.11.735 25.652.132.071 0 .071.108 0 .12-8.606.763-17.258.843-25.876.239a165.262 165.262 0 01-12.409-1.353 153.796 153.796 0 01-6.233-1.066 45.243 45.243 0 01-6.552-1.533c-.235-.071-.223-.371 0-.347zm-1.058-3.603c3.528.455 7.057 1.197 10.515 1.7 3.458.503 7.351.946 11.044 1.197 7.239.573 14.506.685 21.759.336.353 0 .353.539 0 .562-7.321.404-14.659.328-21.971-.227a144.786 144.786 0 01-10.585-1.197 76.68 76.68 0 01-10.786-2.06c-.223.012-.2-.347.024-.311zm-3.235-2.455c3.399.287 6.787.898 10.174 1.317 3.387.419 6.681.755 10.021 1.042 6.763.563 13.538.958 20.324 1.09v.084c-6.845.096-13.714-.06-20.536-.611a263.845 263.845 0 01-10.232-1.042 86.728 86.728 0 01-9.798-1.533.18.18 0 01-.09-.076.188.188 0 01-.023-.116.178.178 0 01.054-.106.172.172 0 01.106-.049zm4.234-120.294h.059c-.66 9.26-.139 18.568 1.553 27.691a102.747 102.747 0 01-1.612-27.691z" fill="#BCA27D"/></svg>