<svg width="85" height="90" fill="none" xmlns="http://www.w3.org/2000/svg"><path d="M12.324 49.841c10.595 6.445 22.016 11.374 32.61 17.819a.563.563 0 00.783-.117c10.957-15.019 21.16-30.621 32.103-45.568a.556.556 0 00-.247-.86c-10.74-5.92-21.928-11.038-33.088-16.185a.576.576 0 00-.667.19c-10.522 14.172-21.175 28.331-31.06 43a.556.556 0 00.131.773c-.594-.233-1.16.584-.565.948zm32.16-43.774c-.188 0-.217-.073 0 0v0zM13.658 48.79c7.87-11.665 16.305-22.98 24.64-34.296 2.072-2.77 4-5.745 6.188-8.384.108.057.21.126.304.204.719.445 1.488.802 2.29 1.064l8.32 3.923c7.087 3.383 14.203 6.766 21.102 10.528-9.073 12.467-17.639 25.299-26.567 37.912l-3.203 4.477c-.507.7-1.043 1.94-2.043 2.027-.522 0-1.768-1.05-2.218-1.313-2.898-1.662-5.797-3.222-8.696-4.768-6.942-3.645-13.928-7.101-20.653-11.155a.504.504 0 00.536-.219z" fill="#543018" stroke="#543018" stroke-width=".3"/><path d="M38.18 22.661l17.392-6.839c.68-.262.217-1.298-.464-1.035l-17.392 6.839c-.681.262-.203 1.254.463 1.035zm-5.044 6.343l19.03-7.905c.681-.277.218-1.312-.464-1.035l-19.03 7.905c-.666.277-.202 1.312.464 1.035zm18.407-4.668l-14.928 6.535a.567.567 0 00-.255.738.566.566 0 00.718.297l14.929-6.534a.567.567 0 00.254-.739.567.567 0 00-.718-.297zM31.005 39.065l32.712-11.93c.681-.247.203-1.283-.464-1.035L30.541 38.03c-.695.248-.217 1.283.464 1.035zM54.717 35.3l-6.261 1.912c-.696.219-.232 1.24.463 1.036l6.261-1.911c.696-.22.218-1.255-.463-1.036zm-1.537 5.222l-7.115 1.97c-.696.204-.522 1.327.173 1.123l7.117-1.97c.637-.19.463-1.27-.174-1.123zm-9.782 8.311l-13.204 4.974c-.681.248-.217 1.283.464 1.035l13.203-4.974c.624-.262.218-1.298-.463-1.035zM23.513 60.541a6.548 6.548 0 00-3.29 3.643 6.602 6.602 0 00.152 4.92 6.54 6.54 0 003.508 3.43 6.484 6.484 0 004.89.011 6.549 6.549 0 003.29-3.642 6.602 6.602 0 00-.152-4.92 6.541 6.541 0 00-3.507-3.43 6.484 6.484 0 00-4.891-.011zM28.31 71.51a5.36 5.36 0 01-4.126.092 5.407 5.407 0 01-2.983-2.87 5.459 5.459 0 01-.092-4.153 5.412 5.412 0 012.853-3.002 5.363 5.363 0 015.901 1.045 5.428 5.428 0 011.664 3.8 5.458 5.458 0 01-1.494 3.873 5.39 5.39 0 01-1.723 1.215z" fill="#543018" stroke="#543018" stroke-width=".3"/><path d="M28.817 65.69l-3.97-1.838a.504.504 0 00-.67.228.513.513 0 00-.055.254.526.526 0 00-.203.335c-.203 1.459-.42 2.918-.638 4.376a.587.587 0 00.237.515.577.577 0 00.56.069l4.768-2.918a.582.582 0 00.196-.813.581.581 0 00-.225-.208zm-4.246 2.305c.145-.948.275-1.882.42-2.83l2.42 1.123-2.84 1.707z" fill="#543018" stroke="#543018" stroke-width=".3"/><path d="M1.512 63.619c.016.08.04.159.073.233a.476.476 0 00-.537.27.484.484 0 00-.043.212c-.304 9.944 12.9 15.646 20.117 19.554 4.754 2.58 10.798 6.08 16.45 5.132a12.013 12.013 0 005.464-3.164C48.95 80.753 53.69 74.191 58.24 67.848c5.217-7.204 10.145-14.582 15-22.063 1.841-2.814 3.667-5.628 5.566-8.413 3.609-5.279 7.362-11.403 4.435-17.892a.48.48 0 00-.42-.306c-.957-3.296-5.537-5.045-8.276-6.358-5.42-2.479-10.798-5.176-16.19-7.787C54.009 2.886 48.92.203 43.863 1.224c-4.797.977-7.74 5.118-10.29 8.967-6.503 9.829-13.01 19.657-19.523 29.485-2.898 4.55-5.942 9.128-8.986 13.663-1.97 2.916-4.464 6.547-3.55 10.28zM73.24 43.802c-4.188 6.373-8.377 12.745-12.754 18.957A177.3 177.3 0 0146.5 80.826a35.106 35.106 0 01-6.261 5.76c-3.32 2.187-7.247 1.297-10.783 0a89.013 89.013 0 01-16.48-8.633C8.528 75.139 2.456 70.997 2.15 65.165c1.45 2.493 4.348 4.01 6.682 5.482a233.84 233.84 0 0014.203 8.283c3.884 2.056 8.493 5.235 13.044 5.089a10.8 10.8 0 005.798-2.056.273.273 0 00.203-.131 18.988 18.988 0 002.898-2.508c4.87-5.031 8.696-11.447 12.74-17.12 2.971-4.111 6.015-8.18 8.913-12.336 2.899-4.155 5.943-8.865 8.696-13.43a.364.364 0 00.174-.437l.261-.408c1.74-2.917 3.42-5.935 4.899-9.026a29.566 29.566 0 002.189-5.002c2.13 7.918-5.493 15.894-9.61 22.237zm1.218-27.705a1.712 1.712 0 01-.911 1.174 1.687 1.687 0 01-1.48.007l1.666-.583c.42-.146.13-.773-.275-.627l-1.986.7a1.239 1.239 0 01-.203-.277l3.305-1.313a1.95 1.95 0 01-.116.86v.06zm-3.493-.19v-.102l3.145-1.137-3.145 1.24zM15.31 39.88l19.16-29.018c2.624-4.024 5.667-8.399 10.885-8.69 4.783-.336 9.406 2.362 13.566 4.374 4.478 2.158 8.928 4.375 13.435 6.503a2.643 2.643 0 00-1.45.555c-.347.277.088.802.436.525a2.064 2.064 0 012.29-.117l-2.638.962c.145-.408-.493-.656-.623-.248-.13.478-.13.981 0 1.458a.41.41 0 00.101.336 2.378 2.378 0 001.319 1.356 2.392 2.392 0 001.792.064 2.411 2.411 0 001.339-1.201 2.376 2.376 0 00-.261-2.61c2.695 1.166 5.71 2.551 6.913 5.06a5.28 5.28 0 01-.493 4.097.246.246 0 00-.16-.131l-2.217-.802c-.42-.146-.666.48-.246.627l2.218.802a.245.245 0 00.173 0c-.26.568-.55 1.122-.811 1.618a.145.145 0 00-.087-.073l-2.696-1.458c-.377-.204-.783.35-.406.554l2.696 1.458a.346.346 0 00.232 0l-.305.613-.304.612-3.362-1.312a.346.346 0 00-.388.218.352.352 0 00.141.424l3.305 1.21-1.218 2.333-3.493-1.458a.346.346 0 00-.387.218.352.352 0 00.141.423l3.42 1.459-1.087 1.939-3.014-1.896c-.362-.233-.768.321-.391.554l3.072 1.867c-.406.714-.826 1.458-1.232 2.1l-.174.277-3.043-1.196a.346.346 0 00-.388.218.352.352 0 00.141.423l2.899 1.138c-.478.787-.971 1.575-1.45 2.362l-3.13-1.764c-.377-.204-.783.335-.406.554l3.189 1.779-1.073 1.735-2.826-1.327c-.391-.175-.638.452-.246.642l2.71 1.254c-.362.583-.74 1.152-1.116 1.735l-2.652-1.619c-.363-.233-.769.321-.392.554l2.682 1.692-1.102 1.662-2.768-1.458c-.392-.204-.638.438-.246.627l2.637 1.342c-.55.816-1.087 1.647-1.638 2.45l-.13.174-.116-.087-3.29-1.517c-.391-.19-.638.438-.246.627l3.275 1.575c-.377.569-.782 1.108-1.16 1.663l-2.55-1.707c-.362-.233-.768.321-.406.555l2.565 1.691a.13.13 0 00.087 0l-1.014 1.458a.422.422 0 00-.16-.16L60.675 51.4c-.392-.175-.638.452-.247.641l2.464 1.138a89.862 89.862 0 00-1.362 1.895l-3.015-1.764c-.377-.219-.768.335-.391.554l3.014 1.75-1.174 1.618-3.188-1.21a.346.346 0 00-.388.218.352.352 0 00.141.423l3.015 1.138-1.45 1.896-2.898-1.809c-.377-.218-.783.336-.406.555l2.899 1.808c-.391.51-.768 1.035-1.145 1.545l-3.044-1.88c-.377-.234-.768.32-.406.553l3.059 1.881-1.45 1.954a.276.276 0 00-.145-.145L51.66 62.7c-.377-.19-.624.438-.247.642l2.899 1.458c-.594.802-1.16 1.619-1.754 2.42l-3.13-1.734c-.377-.22-.783.335-.406.539l3.145 1.75-1.319 1.837-2.899-1.458c-.391-.19-.623.437-.246.642l2.812 1.458-.392.554-1.029 1.458a.367.367 0 00-.203-.335l-3.463-1.808c-.392-.205-.638.437-.247.626l3.508 1.707a.4.4 0 00.217 0c-.522.758-1.073 1.458-1.623 2.26a.352.352 0 00-.174-.408l-4.348-2.363c-.377-.204-.623.438-.247.642l4.348 2.362a.289.289 0 00.247 0 31.911 31.911 0 01-3.87 4.375.334.334 0 00-.16-.16l-3.318-1.78c-.377-.204-.624.438-.247.642l3.261 1.735a15.61 15.61 0 01-1.45 1.094l-3.97-2.188c-.377-.218-.624.423-.247.627l3.566 1.969c-.65.381-1.341.69-2.058.919a.393.393 0 00.113-.489.395.395 0 00-.113-.138l-3.32-1.765c-.39-.204-.637.438-.246.627l3.32 1.78h.13c-.477.129-.961.231-1.45.305l-4.16-2.041c-.39-.219-.623.423-.246.627l3.03 1.662a12.635 12.635 0 01-5.117-1.297A144.072 144.072 0 015.802 67.308c-5.594-4.097-2.478-9.434.624-13.984 3.101-4.55 5.928-8.953 8.884-13.444z" fill="#543018" stroke="#543018" stroke-width=".3"/><path d="M76.53 35.738l-4.189 6.096c-.405.598.508 1.268.913.67l4.19-6.124c.376-.583-.508-1.24-.914-.642zM64.674 53.863l-11.32 15.793a.571.571 0 00.124.795.562.562 0 00.79-.124l11.319-15.794c.42-.597-.493-1.268-.913-.67zM22.527 80.418l-7.681-3.384c-.667-.292-1.073.773-.406 1.065l7.667 3.384c.638.291 1.073-.773.42-1.065zm18.566-5.047l3.391 1.927c.377.218.783-.336.406-.555l-3.406-1.955c-.362-.219-.768.32-.391.584zm28.784-61.867a.333.333 0 00.435-.19.339.339 0 00-.188-.437L56.079 7.072a.346.346 0 00-.387.218.352.352 0 00.141.424l14.044 5.79zm8.508 6.635c.333.277.739-.278.391-.54l-3.043-2.393c-.334-.278-.74.277-.392.54l3.044 2.393zM35.166 48.585l-6.276 2.378c-.406.16-.13.773.275.627l6.29-2.392c.406-.073.13-.773-.29-.613zm2.869-9.55l-11.059 4.81a.338.338 0 00-.16.453.338.338 0 00.45.16l11.044-4.796a.35.35 0 00-.275-.627zm7.522-8.18l11.377-4.974a.335.335 0 00.167-.445.335.335 0 00-.442-.167l-11.392 4.9c-.391.234-.116.846.29.686zm-4.478-7.51c-.406.175-.116.788.275.628l7.16-3.02a.35.35 0 00-.29-.627l-7.145 3.02zm-.362-5.815l8.537-3.865a.339.339 0 00-.29-.612l-8.523 3.865a.335.335 0 00-.166.445.335.335 0 00.442.167zM28.165 79.821c.377.22.768-.32.391-.554L7.831 66.943c-.377-.219-.769.335-.406.554l20.74 12.324z" fill="#543018" stroke="#543018" stroke-width=".3"/></svg>