<svg width="86" height="110" viewBox="0 0 86 110" fill="none" xmlns="http://www.w3.org/2000/svg">
<mask id="path-1-inside-1" fill="white">
<path d="M76.316 28.8146C76.1944 27.3716 75.7898 25.9592 75.1255 24.6588C74.3287 23.0993 73.8596 21.3427 72.6377 20.0262C71.1701 18.4829 69.6589 16.9607 68.0991 15.508C66.1518 13.7267 63.7798 12.4855 61.2275 11.9124C57.9507 11.1125 54.6642 11.2511 51.3913 11.4719C48.359 11.7997 45.3619 12.3572 42.4256 13.1397C41.3011 13.3116 40.2049 13.6188 39.1605 14.0546C35.9773 15.6317 31.1297 20.497 29.558 23.9557C28.2023 26.823 27.4054 29.9356 27.2091 33.1304C27.1429 34.5725 27.2677 36.0223 27.5803 37.4419C28.0565 39.8754 28.5903 42.2944 29.121 44.7203C29.4858 46.4338 30.1308 48.0822 31.0296 49.5981C32.3442 51.7588 33.6823 53.9054 34.3104 56.4536C34.8767 58.6264 35.0794 60.869 34.9102 63.0887C34.6289 65.2193 34.2243 67.3283 33.6984 69.4053C33.0266 72.7553 31.6121 75.8681 31.1308 79.2669C30.9347 79.8292 30.6406 80.3498 30.2618 80.805C30.0927 81.0066 29.9676 81.242 29.8943 81.4967C29.821 81.7513 29.8011 82.0197 29.8357 82.2853C30.1841 83.8225 30.1786 85.4098 29.8196 86.9253C29.5675 88.1351 29.8409 89.4614 29.7132 90.697C29.6252 91.1275 29.6351 91.575 29.7422 92.0065C29.8493 92.438 30.051 92.8425 30.3323 93.1904C30.9892 93.9526 31.4657 94.852 31.7244 95.8184C31.9831 96.7847 32.0171 97.7919 31.8238 98.7614C31.7768 99.3536 31.8827 99.9521 32.1311 100.5C32.494 101.666 33.5543 101.71 34.3998 102.114C37.5374 103.614 39.3677 103.049 40.8067 100.032C41.0179 99.5824 41.3177 99.1823 41.6885 98.8549C42.0593 98.5275 42.4935 98.2795 42.9659 98.1252C45.0424 97.299 46.8589 95.9781 47.0291 93.6008C47.1822 91.5607 47.605 89.582 47.7697 87.5726C48.0005 85.7542 48.367 83.9593 48.8659 82.2028C49.1538 81.2937 49.3338 80.3512 49.4022 79.3943C49.4057 77.2153 50.1821 75.1699 50.6769 73.1078C51.2865 70.587 53.01 68.4974 54.9184 66.8247C57.1085 64.8101 59.6129 63.1651 62.3384 61.9511C64.9992 60.7504 67.289 58.876 68.9883 56.5075C70.1106 55.0484 71.0226 53.4719 72.0254 51.9389C74.5266 48.3334 76.1601 44.1817 76.8021 39.7988C76.8387 39.4375 76.8722 39.083 76.9159 38.725C77.3081 35.4098 76.5712 32.1276 76.316 28.8146ZM31.7915 84.4577C32.094 85.1074 32.1926 85.8291 32.074 86.5254C31.9554 87.2216 31.6252 87.8588 31.1282 88.3505C31.238 86.9296 30.9832 85.6375 31.7915 84.4577ZM32.6672 91.3089C32.288 91.4537 31.9227 91.6312 31.5755 91.8396C32.5664 92.4479 32.9138 93.0686 32.5575 93.9087C31.9667 93.5246 31.5067 92.9668 31.2427 92.3147C30.9787 91.6625 30.9242 90.9491 31.0869 90.2757C31.1262 90.1066 31.2104 89.9523 31.3307 89.8291C31.451 89.7059 31.603 89.6183 31.7708 89.5754C33.9719 88.6646 36.2842 88.0333 38.6553 87.696C39.3891 87.6485 40.1047 87.4686 40.7679 87.1648C42.2461 86.3965 43.9262 86.0795 45.6055 86.2521C45.9283 86.2716 46.3664 86.0937 46.5135 86.5934C46.5901 86.7972 46.5929 87.0196 46.5215 87.2213C46.4501 87.423 46.3091 87.5908 46.1234 87.6952C45.8061 87.8635 45.4649 87.984 45.1103 88.053C43.0274 88.5562 40.9505 89.1213 38.8355 89.5081C36.7204 89.895 34.7494 90.7885 32.6672 91.3089ZM33.2582 84.805C33.3626 84.2571 33.6004 83.7898 34.3673 83.8617C34.4946 85.135 33.969 86.273 33.7333 87.4654C33.7022 87.5428 33.656 87.6129 33.5972 87.6715C33.5384 87.7301 33.4684 87.7762 33.391 87.807C33.3507 87.8237 33.307 87.8317 33.263 87.8304C33.2189 87.829 33.1753 87.8184 33.1351 87.7992C33.0949 87.78 33.059 87.7526 33.0296 87.7189C33.0002 87.6851 32.9781 87.6457 32.9647 87.6033C32.6222 86.5976 33.093 85.7112 33.2613 84.7981L33.2582 84.805ZM44.1302 92.3248C44.4125 91.3723 45.0152 90.5546 45.8376 90.0087C46.1003 92.5002 46.1003 92.5002 44.1334 92.3179L44.1302 92.3248ZM43.0642 91.9754C42.9884 92.3597 42.7791 92.7013 42.473 92.94C42.167 93.1787 41.7838 93.2993 41.3909 93.2806C39.6133 93.2056 38.1932 94.0846 36.7047 94.7961C36.3889 94.9483 36.0979 95.2891 35.7418 95.0432C35.5695 94.9077 35.4448 94.7205 35.3867 94.5102C35.3286 94.3 35.3404 94.0783 35.4203 93.8791C36.0485 91.5609 35.4723 91.1255 38.3884 90.6416C39.5476 90.401 40.6882 90.0855 41.803 89.6971C42.3568 89.4481 42.9648 89.3348 43.5778 89.3665C43.5993 90.2658 43.4251 91.1537 43.0674 91.9684L43.0642 91.9754ZM34.125 95.2135C33.8067 95.2213 33.7476 95.0331 33.7326 94.7481C33.6136 93.6809 33.3151 92.5784 34.7268 91.6617C34.6676 92.8964 34.5926 93.8288 34.5697 94.7777C34.5723 94.8365 34.5627 94.8949 34.5414 94.9491C34.5201 95.0033 34.4877 95.0522 34.4461 95.0925C34.4045 95.1329 34.3548 95.1639 34.3 95.1835C34.2453 95.2032 34.1867 95.211 34.1281 95.2066L34.125 95.2135ZM36.3616 99.6503C36.0737 100.153 35.5633 99.816 35.2855 99.6412C34.8704 99.3754 35.1764 98.9828 35.4108 98.7665C35.5643 98.5904 35.7733 98.4722 36.0048 98.4304C36.2363 98.3886 36.4772 98.4256 36.6895 98.5356C36.8873 99.0174 36.5512 99.3452 36.3724 99.6639L36.3616 99.6503ZM42.9561 95.4515C41.9164 95.6438 40.8985 95.9294 39.9146 96.3049C38.3302 96.8528 36.6663 97.4636 34.7034 96.5424C38.4068 95.0371 41.8714 93.5523 45.9356 93.6676C45.3761 95.2357 44.0517 95.2679 42.9561 95.4515ZM45.9075 85.0072C45.3093 84.4518 46.2428 83.9886 45.7997 83.3727C44.8425 83.7572 45.1427 84.9869 44.2302 85.4601C43.3177 85.9333 42.5183 85.4839 41.61 85.8918C39.537 86.8039 37.2102 86.8706 34.9471 87.6582C34.9416 86.7236 35.0759 85.7973 35.3453 84.91C35.3997 84.552 35.5796 84.2283 35.8531 83.9967C36.1266 83.765 36.4758 83.6405 36.8387 83.6451C38.9744 83.6807 40.8675 82.6405 42.9539 82.56L43.9874 82.5318C44.6513 83.1859 43.6924 83.9485 44.3349 84.6682C44.6984 84.2784 44.9252 83.7792 44.9825 83.2432C45.0935 82.6058 45.3184 82.2418 46.0581 82.4859C46.7977 82.7299 47.274 83.067 47.1413 83.8455C47.1269 84.1646 46.9911 84.4627 46.7617 84.6787C46.5322 84.8947 46.2266 85.0123 45.9075 85.0072ZM46.3553 81.4575C46.2975 81.4358 46.2368 81.4238 46.1757 81.4222C44.2792 80.9537 42.465 81.5769 40.6987 81.9452C38.6175 82.3925 36.4918 82.6316 34.3525 82.659C33.6396 82.7381 32.9476 82.9335 32.3035 83.2374C31.4346 83.521 31.0552 83.1207 31.235 82.2384C31.2895 82.0055 31.3915 81.7876 31.5347 81.5982C31.6778 81.4088 31.859 81.2519 32.067 81.1373C32.8338 80.671 33.7433 80.485 34.6456 80.61C35.7828 80.7276 36.9259 80.6218 38.0107 80.2985C38.9987 79.9961 40.1418 79.6331 41.175 80.1858C42.5725 80.8537 43.8582 80.6262 45.1886 80.319C45.7891 80.1766 46.3973 79.7179 46.7402 80.648C46.9617 81.2085 47.748 79.9088 47.679 80.903C47.6686 81.4874 47.0949 81.87 46.371 81.423L46.3553 81.4575ZM34.5881 73.6615C34.2827 73.5661 34.3407 73.3075 34.3658 73.0838C34.3909 72.86 34.4133 72.736 34.6488 72.798C34.7493 72.8653 34.829 72.9598 34.8785 73.0701C34.928 73.1803 34.945 73.3017 34.9276 73.4196C34.9273 73.4557 34.9188 73.491 34.9028 73.5228C34.8868 73.5547 34.8637 73.5823 34.8352 73.6035C34.8067 73.6248 34.7736 73.6391 34.7383 73.6455C34.7031 73.6519 34.6666 73.6501 34.6318 73.6403L34.5881 73.6615ZM34.6706 76.4373C34.7878 76.9149 34.7788 77.4116 34.6446 77.8778C34.5103 78.344 34.2555 78.7635 33.9055 79.0943C33.9326 78.0801 33.9447 77.1176 34.7142 76.4161L34.6706 76.4373ZM35.8862 75.3344C37.1227 75.3275 38.2029 75.2712 38.9957 75.9785C40.6879 77.4018 42.7604 77.483 44.7236 77.9918C45.0422 78.0768 45.4538 77.9198 45.7368 78.4761C45.3999 78.9452 44.9219 79.2928 44.37 79.47C43.8181 79.6472 43.22 79.6451 42.6597 79.464C40.7471 78.8672 38.7123 78.8811 36.8409 79.5037C36.3116 79.6874 35.7312 79.6858 35.1929 79.4991C35.2043 78.0143 36.7574 76.9547 35.9313 75.3475L35.8862 75.3344ZM37.1549 73.8526C37.2052 73.7419 37.4086 73.6876 37.5022 73.6313C37.7642 73.6723 37.8725 73.8083 37.8663 73.9905C37.86 74.1727 37.8024 74.3557 37.5599 74.2903C37.3175 74.225 37.0991 74.1627 37.186 73.8591L37.1549 73.8526ZM46.5473 57.3764C45.1845 60.7497 45.3803 64.4553 44.2142 67.8637C43.7892 69.1172 43.9903 70.6025 43.9423 71.9436C43.883 73.1782 43.7534 73.2762 42.5288 72.9015C42.3681 72.8247 42.1784 72.7929 42.0114 72.73C40.0632 72.0009 40.4045 71.8862 40.8372 70.4848C41.8632 67.6292 42.5907 64.6673 43.008 61.646C43.1927 59.9759 43.0863 58.2785 42.6936 56.6292C41.8847 53.4304 41.8993 50.179 41.5792 46.9528C41.4578 45.7413 41.0817 44.5849 40.947 43.3838C40.8734 42.966 40.9127 42.5391 41.0606 42.1477C41.2085 41.7563 41.4598 41.4147 41.788 41.1588C41.9255 41.6566 42.0954 42.1456 42.2965 42.6227C42.9119 43.683 43.5908 43.7801 44.4396 42.9228C45.0125 42.3547 45.54 41.6806 46.1286 41.0778C46.2302 40.9265 46.3612 40.7976 46.5142 40.6988C46.6672 40.5999 46.839 40.5329 47.0197 40.5018C47.6193 40.923 47.379 41.5828 47.5182 42.1377C47.6573 42.6925 47.7455 43.5092 48.46 43.8086C49.3055 44.2127 49.5485 43.2848 50.031 42.9344C50.1845 42.8005 50.3274 42.6549 50.4585 42.4989C51.0735 42.7928 50.8675 43.9573 51.8482 43.8955C52.5486 43.8514 52.987 43.261 53.6365 43.142C53.9366 43.3613 53.7113 43.8009 53.885 43.9428C55.2788 45.1057 54.3286 45.9987 53.5989 46.8372C52.019 48.6669 50.5134 50.5575 49.0474 52.4922C48.0082 53.9992 47.1778 55.6439 46.5784 57.3828L46.5473 57.3764ZM45.3494 75.866C45.336 76.0418 45.2544 76.2035 45.122 76.3164C44.9896 76.4294 44.8169 76.4847 44.6409 76.4705C44.1424 76.4258 43.983 76.0466 43.992 75.5962C44.001 75.1459 44.1687 75.0576 44.552 75.1313C44.8661 75.3572 45.4656 75.2733 45.3805 75.8725L45.3494 75.866ZM42.953 75.8238C42.9968 76.3077 42.6128 76.2169 42.3399 76.1622C41.3976 75.9897 40.2996 76.0291 40.1223 74.6224C40.3783 74.9621 40.7351 75.2124 41.1392 75.3356C41.5432 75.4589 41.9727 75.4485 42.3632 75.3061C42.7852 75.2384 42.9645 75.5177 42.9841 75.8302L42.953 75.8238ZM46.0315 76.7982C46.2264 76.7062 46.3553 76.591 46.4081 76.6246C46.7435 76.7849 47.2954 76.5435 47.3783 77.1473C47.3655 77.2013 47.3398 77.251 47.3033 77.2922C47.2668 77.3334 47.2206 77.3649 47.1687 77.3839C46.9494 77.4287 46.7193 77.3955 46.5176 77.2899C46.3159 77.1843 46.1551 77.0128 46.0626 76.8047L46.0315 76.7982ZM74.026 45.1405C73.1586 47.4881 72.0618 49.7388 70.7513 51.8604C68.2416 56.0917 65.1103 59.6133 60.3305 61.6904C55.4009 63.8726 51.4611 67.3951 49.4037 72.634C49.0377 73.5705 48.6437 74.4936 48.1977 75.5687L47.9042 75.4284C45.8582 74.3158 45.9116 74.1982 46.3518 71.8069C47.0588 68.2297 47.6344 64.6233 48.3516 61.0424C49.0484 57.6371 50.0605 54.3993 52.4543 51.6956C53.83 50.1471 55.1056 48.5003 56.5309 46.9923C56.7298 46.8596 56.8995 46.688 57.03 46.4874C57.1606 46.2868 57.2495 46.0611 57.2916 45.8235C57.2659 45.31 57.3514 44.8001 57.5421 44.3287C57.7328 43.8574 58.0242 43.4358 58.3963 43.093C58.579 42.892 58.6852 42.6321 58.6971 42.3571C58.709 42.0821 58.6257 41.8088 58.4614 41.5833C58.4135 41.4226 58.3216 41.2775 58.1963 41.1647C58.071 41.052 57.9173 40.9762 57.7531 40.9461C57.589 40.9161 57.4209 40.933 57.2683 40.9949C57.1158 41.0567 56.985 41.1611 56.891 41.2959C56.6227 41.6876 56.3909 42.1038 56.1983 42.5393C55.6915 43.4674 55.6377 43.4923 55.0363 42.4386C54.7414 41.9272 54.3564 42.0632 53.9567 42.0069C53.2506 41.9136 52.8011 42.566 52.1519 42.6094C50.9009 40.3275 50.7399 40.9999 49.046 42.5563C48.5366 42.1613 48.4708 41.5573 48.3317 41.0025C47.9493 39.5231 47.0157 39.1443 45.887 40.112C45.3145 40.6045 44.874 41.3118 44.3574 41.8311C44.255 41.9734 44.1249 42.0931 43.9744 42.1832C43.824 42.2732 43.6563 42.3317 43.4812 42.3553C42.5183 39.4955 42.2692 39.5196 40.3943 40.5011C40.4086 40.1398 40.3341 39.778 40.1772 39.4476C40.0204 39.1172 39.786 38.8283 39.4947 38.6062C39.381 38.5162 39.2453 38.4593 39.1029 38.4418C38.9605 38.4244 38.8172 38.4471 38.6891 38.5074C38.5506 38.5649 38.4396 38.6723 38.3775 38.809C38.3154 38.9456 38.3066 39.1019 38.3527 39.2476C39.3511 43.5641 39.4869 47.982 39.9903 52.3398C40.5234 56.1165 40.5617 59.9337 40.1043 63.6935C39.7825 65.8804 39.2018 68.0193 38.6934 70.1675C38.5656 70.7295 38.4833 71.3974 37.8457 71.64C37.4614 71.7931 35.9383 70.6527 35.7094 70.1644C35.527 69.628 35.5012 69.0544 35.6351 68.5123C35.8344 66.5952 36.0095 64.675 36.2468 62.7677C36.4169 61.0384 36.278 59.2843 35.8366 57.5872C35.2228 54.7417 34.0797 52.0241 32.4676 49.5781C31.6178 48.172 30.9624 46.6603 30.5199 45.0858C29.6558 42.061 28.9835 38.9893 28.507 35.8893C28.0885 33.6096 28.6762 31.3056 29.1723 29.1094C29.6615 26.5074 30.7661 24.0767 32.3943 22.0191C34.0675 20.0403 35.5695 17.8954 37.8077 16.4139C39.6496 15.2152 41.7141 14.3895 43.8885 13.982C48.1529 13.0843 52.5124 12.6446 56.894 12.6704C62.1364 12.7762 66.3783 14.7277 69.604 18.972C69.7736 19.2231 69.9656 19.4586 70.1774 19.6755C73.3274 22.7386 74.5622 26.5535 74.9115 30.745C75.2842 33.3208 75.4668 35.9156 75.4579 38.5081C75.2995 40.7834 74.8281 43.0174 74.0571 45.1469L74.026 45.1405ZM72.0655 25.4781C71.2896 23.3552 69.8376 21.5325 67.9383 20.2978C66.9926 19.5687 65.8752 19.1035 64.7036 18.951C63.532 18.7986 62.3497 18.9645 61.281 19.4315C60.9166 19.631 60.5138 19.7535 60.0967 19.7916C59.4991 19.8773 58.9636 20.1912 58.6011 20.6682C58.5283 20.7213 58.4688 20.7904 58.4267 20.8704C58.3847 20.9503 58.3612 21.0392 58.358 21.1304C58.3549 21.2217 58.3721 21.313 58.4084 21.3979C58.4447 21.4827 58.4993 21.5588 58.5681 21.6207C59.8309 22.8473 60.9354 24.3097 62.4815 25.1749C64.407 26.3339 65.8608 28.149 66.5677 30.2768C67.7178 33.1385 68.2705 36.192 68.1911 39.245C68.1727 39.8845 68.2402 40.784 68.8789 40.9882C69.2689 41.0545 69.6667 41.0107 70.0274 40.8618C70.3882 40.7128 70.6975 40.4647 70.9205 40.1453C71.0685 39.9569 71.1912 39.7496 71.2859 39.5285C72.1021 37.62 73.1615 35.794 73.0798 33.709C73.6709 30.8173 72.948 28.0469 72.0655 25.4781ZM71.3334 36.9158C70.9699 37.9691 70.3841 38.9264 69.6152 39.7235C69.3261 38.5039 69.1583 37.2616 69.1144 36.0153C68.6862 32.2407 67.7997 28.6512 65.0194 25.748C64.5868 25.2413 64.0801 24.8031 63.5173 24.4491C62.508 23.7629 61.6089 22.9241 60.8533 21.9635C60.3624 21.4342 60.334 20.9912 61.0534 20.7372C62.8693 20.0727 64.6563 19.6217 66.5745 20.791C67.7112 21.4277 68.7126 22.2867 69.5174 23.3156C70.3222 24.3445 70.9135 25.5215 71.2551 26.7748C72.2006 30.2156 72.5001 33.5246 71.3491 36.8812L71.3334 36.9158ZM36.0878 19.4313C32.6098 24.0017 30.7072 29.6049 30.6566 35.4263C30.6734 36.0842 30.7357 36.7414 30.8431 37.393C30.8632 37.4766 30.9027 37.5547 30.9585 37.6209C31.0142 37.6871 31.0845 37.7394 31.1635 37.7735C31.2832 37.7882 31.4029 37.7585 31.4998 37.69C31.5968 37.6215 31.6644 37.519 31.6896 37.4019C31.7592 37.175 31.7786 36.9344 31.7465 36.6965C31.6495 35.6103 31.696 34.5199 31.8847 33.4537C32.3469 28.8522 33.9521 24.4706 36.5544 20.7068C37.1444 19.8016 38.1945 19.3436 38.8463 18.1901C38.3097 18.1146 37.7668 18.1909 37.2792 18.4103C36.7917 18.6297 36.3789 18.9834 36.0878 19.4313ZM32.1898 41.5982C32.1458 41.3582 32.0559 41.088 31.7782 41.0815C31.5004 41.0751 31.3349 41.3833 31.3258 41.6652C31.0696 42.9404 31.9288 43.932 32.249 45.0617C32.3159 45.1991 32.4278 45.3102 32.5655 45.3759C32.7031 45.4417 32.858 45.4582 33.0037 45.4224C33.3153 45.3356 33.3481 44.9639 33.2342 44.6906C32.7997 43.6891 32.4503 42.6545 32.1898 41.5982ZM41.2747 17.6751C42.6721 16.659 44.4668 16.9021 45.9204 16.1739C44.1893 16.1465 42.1471 15.2125 41.2747 17.6751ZM50.4181 15.0734C50.3575 15.0706 50.2975 15.0821 50.243 15.1071C50.1885 15.1322 50.141 15.17 50.1045 15.2174C50.068 15.2649 50.0434 15.3207 50.0329 15.3802C50.0224 15.4397 50.0262 15.5013 50.044 15.5598C50.0845 15.6362 50.1431 15.7017 50.2144 15.7506C50.2858 15.7994 50.3677 15.8299 50.4528 15.8394C51.1026 15.8132 51.7573 15.7388 52.7537 15.6424C52.4369 15.3619 52.0574 15.163 51.6497 15.0637C51.2419 14.9644 50.8187 14.9677 50.4181 15.0734ZM56.057 15.2425C55.9969 15.2811 55.9406 15.4984 56.0042 15.5456C56.2758 15.8136 56.6159 16.0004 56.9846 16.0841C57.3533 16.1679 57.7353 16.1451 58.0859 16.0185C58.0859 16.0185 58.1299 15.9216 58.2084 15.7487C57.4953 15.4837 56.9471 14.7249 56.0538 15.2494L56.057 15.2425ZM38.9245 55.9392C39.2211 55.9042 39.2518 55.6494 39.3206 55.4045C39.2133 54.8732 39.4825 54.1684 38.701 53.9043C38.6419 53.8913 38.5811 53.8907 38.5226 53.9028C38.464 53.9148 38.4089 53.9391 38.3609 53.9741C38.3129 54.0091 38.2731 54.0541 38.244 54.106C38.2149 54.158 38.1972 54.2158 38.192 54.2757C38.0939 54.8098 38.6146 55.9848 38.9214 55.9462L38.9245 55.9392ZM59.7389 17.1537C60.1442 17.3474 60.5135 17.7512 61.0295 17.5516C61.1036 17.5196 61.1175 17.3579 61.1615 17.2611C60.9989 16.9555 60.7602 16.6959 60.4694 16.5082C60.1786 16.3205 59.8459 16.2112 59.5043 16.1912C59.4481 16.2153 59.3988 16.2529 59.3608 16.3007C59.3228 16.3485 59.2971 16.4051 59.286 16.4658C59.2662 16.6138 59.3013 16.7655 59.3848 16.8922C59.4682 17.0189 59.5941 17.1119 59.7389 17.1537ZM36.3929 50.3174C36.3203 50.3408 36.255 50.3818 36.2029 50.437C36.1508 50.4922 36.1134 50.5598 36.0941 50.6339C36.0748 50.7079 36.0741 50.786 36.0921 50.8614C36.1101 50.9368 36.1462 51.007 36.1973 51.0659C36.2835 51.2588 36.4152 51.4287 36.5807 51.5606C36.7462 51.6926 36.9405 51.7826 37.1463 51.8226C37.5211 51.3534 37.1651 50.9391 36.9942 50.529C36.9694 50.4742 36.9337 50.4248 36.8894 50.384C36.845 50.3432 36.7929 50.3119 36.7363 50.292C36.6798 50.2721 36.6201 50.2641 36.561 50.2685C36.5019 50.2729 36.4446 50.2895 36.3929 50.3174Z"/>
</mask>
<path d="M76.316 28.8146C76.1944 27.3716 75.7898 25.9592 75.1255 24.6588C74.3287 23.0993 73.8596 21.3427 72.6377 20.0262C71.1701 18.4829 69.6589 16.9607 68.0991 15.508C66.1518 13.7267 63.7798 12.4855 61.2275 11.9124C57.9507 11.1125 54.6642 11.2511 51.3913 11.4719C48.359 11.7997 45.3619 12.3572 42.4256 13.1397C41.3011 13.3116 40.2049 13.6188 39.1605 14.0546C35.9773 15.6317 31.1297 20.497 29.558 23.9557C28.2023 26.823 27.4054 29.9356 27.2091 33.1304C27.1429 34.5725 27.2677 36.0223 27.5803 37.4419C28.0565 39.8754 28.5903 42.2944 29.121 44.7203C29.4858 46.4338 30.1308 48.0822 31.0296 49.5981C32.3442 51.7588 33.6823 53.9054 34.3104 56.4536C34.8767 58.6264 35.0794 60.869 34.9102 63.0887C34.6289 65.2193 34.2243 67.3283 33.6984 69.4053C33.0266 72.7553 31.6121 75.8681 31.1308 79.2669C30.9347 79.8292 30.6406 80.3498 30.2618 80.805C30.0927 81.0066 29.9676 81.242 29.8943 81.4967C29.821 81.7513 29.8011 82.0197 29.8357 82.2853C30.1841 83.8225 30.1786 85.4098 29.8196 86.9253C29.5675 88.1351 29.8409 89.4614 29.7132 90.697C29.6252 91.1275 29.6351 91.575 29.7422 92.0065C29.8493 92.438 30.051 92.8425 30.3323 93.1904C30.9892 93.9526 31.4657 94.852 31.7244 95.8184C31.9831 96.7847 32.0171 97.7919 31.8238 98.7614C31.7768 99.3536 31.8827 99.9521 32.1311 100.5C32.494 101.666 33.5543 101.71 34.3998 102.114C37.5374 103.614 39.3677 103.049 40.8067 100.032C41.0179 99.5824 41.3177 99.1823 41.6885 98.8549C42.0593 98.5275 42.4935 98.2795 42.9659 98.1252C45.0424 97.299 46.8589 95.9781 47.0291 93.6008C47.1822 91.5607 47.605 89.582 47.7697 87.5726C48.0005 85.7542 48.367 83.9593 48.8659 82.2028C49.1538 81.2937 49.3338 80.3512 49.4022 79.3943C49.4057 77.2153 50.1821 75.1699 50.6769 73.1078C51.2865 70.587 53.01 68.4974 54.9184 66.8247C57.1085 64.8101 59.6129 63.1651 62.3384 61.9511C64.9992 60.7504 67.289 58.876 68.9883 56.5075C70.1106 55.0484 71.0226 53.4719 72.0254 51.9389C74.5266 48.3334 76.1601 44.1817 76.8021 39.7988C76.8387 39.4375 76.8722 39.083 76.9159 38.725C77.3081 35.4098 76.5712 32.1276 76.316 28.8146ZM31.7915 84.4577C32.094 85.1074 32.1926 85.8291 32.074 86.5254C31.9554 87.2216 31.6252 87.8588 31.1282 88.3505C31.238 86.9296 30.9832 85.6375 31.7915 84.4577ZM32.6672 91.3089C32.288 91.4537 31.9227 91.6312 31.5755 91.8396C32.5664 92.4479 32.9138 93.0686 32.5575 93.9087C31.9667 93.5246 31.5067 92.9668 31.2427 92.3147C30.9787 91.6625 30.9242 90.9491 31.0869 90.2757C31.1262 90.1066 31.2104 89.9523 31.3307 89.8291C31.451 89.7059 31.603 89.6183 31.7708 89.5754C33.9719 88.6646 36.2842 88.0333 38.6553 87.696C39.3891 87.6485 40.1047 87.4686 40.7679 87.1648C42.2461 86.3965 43.9262 86.0795 45.6055 86.2521C45.9283 86.2716 46.3664 86.0937 46.5135 86.5934C46.5901 86.7972 46.5929 87.0196 46.5215 87.2213C46.4501 87.423 46.3091 87.5908 46.1234 87.6952C45.8061 87.8635 45.4649 87.984 45.1103 88.053C43.0274 88.5562 40.9505 89.1213 38.8355 89.5081C36.7204 89.895 34.7494 90.7885 32.6672 91.3089ZM33.2582 84.805C33.3626 84.2571 33.6004 83.7898 34.3673 83.8617C34.4946 85.135 33.969 86.273 33.7333 87.4654C33.7022 87.5428 33.656 87.6129 33.5972 87.6715C33.5384 87.7301 33.4684 87.7762 33.391 87.807C33.3507 87.8237 33.307 87.8317 33.263 87.8304C33.2189 87.829 33.1753 87.8184 33.1351 87.7992C33.0949 87.78 33.059 87.7526 33.0296 87.7189C33.0002 87.6851 32.9781 87.6457 32.9647 87.6033C32.6222 86.5976 33.093 85.7112 33.2613 84.7981L33.2582 84.805ZM44.1302 92.3248C44.4125 91.3723 45.0152 90.5546 45.8376 90.0087C46.1003 92.5002 46.1003 92.5002 44.1334 92.3179L44.1302 92.3248ZM43.0642 91.9754C42.9884 92.3597 42.7791 92.7013 42.473 92.94C42.167 93.1787 41.7838 93.2993 41.3909 93.2806C39.6133 93.2056 38.1932 94.0846 36.7047 94.7961C36.3889 94.9483 36.0979 95.2891 35.7418 95.0432C35.5695 94.9077 35.4448 94.7205 35.3867 94.5102C35.3286 94.3 35.3404 94.0783 35.4203 93.8791C36.0485 91.5609 35.4723 91.1255 38.3884 90.6416C39.5476 90.401 40.6882 90.0855 41.803 89.6971C42.3568 89.4481 42.9648 89.3348 43.5778 89.3665C43.5993 90.2658 43.4251 91.1537 43.0674 91.9684L43.0642 91.9754ZM34.125 95.2135C33.8067 95.2213 33.7476 95.0331 33.7326 94.7481C33.6136 93.6809 33.3151 92.5784 34.7268 91.6617C34.6676 92.8964 34.5926 93.8288 34.5697 94.7777C34.5723 94.8365 34.5627 94.8949 34.5414 94.9491C34.5201 95.0033 34.4877 95.0522 34.4461 95.0925C34.4045 95.1329 34.3548 95.1639 34.3 95.1835C34.2453 95.2032 34.1867 95.211 34.1281 95.2066L34.125 95.2135ZM36.3616 99.6503C36.0737 100.153 35.5633 99.816 35.2855 99.6412C34.8704 99.3754 35.1764 98.9828 35.4108 98.7665C35.5643 98.5904 35.7733 98.4722 36.0048 98.4304C36.2363 98.3886 36.4772 98.4256 36.6895 98.5356C36.8873 99.0174 36.5512 99.3452 36.3724 99.6639L36.3616 99.6503ZM42.9561 95.4515C41.9164 95.6438 40.8985 95.9294 39.9146 96.3049C38.3302 96.8528 36.6663 97.4636 34.7034 96.5424C38.4068 95.0371 41.8714 93.5523 45.9356 93.6676C45.3761 95.2357 44.0517 95.2679 42.9561 95.4515ZM45.9075 85.0072C45.3093 84.4518 46.2428 83.9886 45.7997 83.3727C44.8425 83.7572 45.1427 84.9869 44.2302 85.4601C43.3177 85.9333 42.5183 85.4839 41.61 85.8918C39.537 86.8039 37.2102 86.8706 34.9471 87.6582C34.9416 86.7236 35.0759 85.7973 35.3453 84.91C35.3997 84.552 35.5796 84.2283 35.8531 83.9967C36.1266 83.765 36.4758 83.6405 36.8387 83.6451C38.9744 83.6807 40.8675 82.6405 42.9539 82.56L43.9874 82.5318C44.6513 83.1859 43.6924 83.9485 44.3349 84.6682C44.6984 84.2784 44.9252 83.7792 44.9825 83.2432C45.0935 82.6058 45.3184 82.2418 46.0581 82.4859C46.7977 82.7299 47.274 83.067 47.1413 83.8455C47.1269 84.1646 46.9911 84.4627 46.7617 84.6787C46.5322 84.8947 46.2266 85.0123 45.9075 85.0072ZM46.3553 81.4575C46.2975 81.4358 46.2368 81.4238 46.1757 81.4222C44.2792 80.9537 42.465 81.5769 40.6987 81.9452C38.6175 82.3925 36.4918 82.6316 34.3525 82.659C33.6396 82.7381 32.9476 82.9335 32.3035 83.2374C31.4346 83.521 31.0552 83.1207 31.235 82.2384C31.2895 82.0055 31.3915 81.7876 31.5347 81.5982C31.6778 81.4088 31.859 81.2519 32.067 81.1373C32.8338 80.671 33.7433 80.485 34.6456 80.61C35.7828 80.7276 36.9259 80.6218 38.0107 80.2985C38.9987 79.9961 40.1418 79.6331 41.175 80.1858C42.5725 80.8537 43.8582 80.6262 45.1886 80.319C45.7891 80.1766 46.3973 79.7179 46.7402 80.648C46.9617 81.2085 47.748 79.9088 47.679 80.903C47.6686 81.4874 47.0949 81.87 46.371 81.423L46.3553 81.4575ZM34.5881 73.6615C34.2827 73.5661 34.3407 73.3075 34.3658 73.0838C34.3909 72.86 34.4133 72.736 34.6488 72.798C34.7493 72.8653 34.829 72.9598 34.8785 73.0701C34.928 73.1803 34.945 73.3017 34.9276 73.4196C34.9273 73.4557 34.9188 73.491 34.9028 73.5228C34.8868 73.5547 34.8637 73.5823 34.8352 73.6035C34.8067 73.6248 34.7736 73.6391 34.7383 73.6455C34.7031 73.6519 34.6666 73.6501 34.6318 73.6403L34.5881 73.6615ZM34.6706 76.4373C34.7878 76.9149 34.7788 77.4116 34.6446 77.8778C34.5103 78.344 34.2555 78.7635 33.9055 79.0943C33.9326 78.0801 33.9447 77.1176 34.7142 76.4161L34.6706 76.4373ZM35.8862 75.3344C37.1227 75.3275 38.2029 75.2712 38.9957 75.9785C40.6879 77.4018 42.7604 77.483 44.7236 77.9918C45.0422 78.0768 45.4538 77.9198 45.7368 78.4761C45.3999 78.9452 44.9219 79.2928 44.37 79.47C43.8181 79.6472 43.22 79.6451 42.6597 79.464C40.7471 78.8672 38.7123 78.8811 36.8409 79.5037C36.3116 79.6874 35.7312 79.6858 35.1929 79.4991C35.2043 78.0143 36.7574 76.9547 35.9313 75.3475L35.8862 75.3344ZM37.1549 73.8526C37.2052 73.7419 37.4086 73.6876 37.5022 73.6313C37.7642 73.6723 37.8725 73.8083 37.8663 73.9905C37.86 74.1727 37.8024 74.3557 37.5599 74.2903C37.3175 74.225 37.0991 74.1627 37.186 73.8591L37.1549 73.8526ZM46.5473 57.3764C45.1845 60.7497 45.3803 64.4553 44.2142 67.8637C43.7892 69.1172 43.9903 70.6025 43.9423 71.9436C43.883 73.1782 43.7534 73.2762 42.5288 72.9015C42.3681 72.8247 42.1784 72.7929 42.0114 72.73C40.0632 72.0009 40.4045 71.8862 40.8372 70.4848C41.8632 67.6292 42.5907 64.6673 43.008 61.646C43.1927 59.9759 43.0863 58.2785 42.6936 56.6292C41.8847 53.4304 41.8993 50.179 41.5792 46.9528C41.4578 45.7413 41.0817 44.5849 40.947 43.3838C40.8734 42.966 40.9127 42.5391 41.0606 42.1477C41.2085 41.7563 41.4598 41.4147 41.788 41.1588C41.9255 41.6566 42.0954 42.1456 42.2965 42.6227C42.9119 43.683 43.5908 43.7801 44.4396 42.9228C45.0125 42.3547 45.54 41.6806 46.1286 41.0778C46.2302 40.9265 46.3612 40.7976 46.5142 40.6988C46.6672 40.5999 46.839 40.5329 47.0197 40.5018C47.6193 40.923 47.379 41.5828 47.5182 42.1377C47.6573 42.6925 47.7455 43.5092 48.46 43.8086C49.3055 44.2127 49.5485 43.2848 50.031 42.9344C50.1845 42.8005 50.3274 42.6549 50.4585 42.4989C51.0735 42.7928 50.8675 43.9573 51.8482 43.8955C52.5486 43.8514 52.987 43.261 53.6365 43.142C53.9366 43.3613 53.7113 43.8009 53.885 43.9428C55.2788 45.1057 54.3286 45.9987 53.5989 46.8372C52.019 48.6669 50.5134 50.5575 49.0474 52.4922C48.0082 53.9992 47.1778 55.6439 46.5784 57.3828L46.5473 57.3764ZM45.3494 75.866C45.336 76.0418 45.2544 76.2035 45.122 76.3164C44.9896 76.4294 44.8169 76.4847 44.6409 76.4705C44.1424 76.4258 43.983 76.0466 43.992 75.5962C44.001 75.1459 44.1687 75.0576 44.552 75.1313C44.8661 75.3572 45.4656 75.2733 45.3805 75.8725L45.3494 75.866ZM42.953 75.8238C42.9968 76.3077 42.6128 76.2169 42.3399 76.1622C41.3976 75.9897 40.2996 76.0291 40.1223 74.6224C40.3783 74.9621 40.7351 75.2124 41.1392 75.3356C41.5432 75.4589 41.9727 75.4485 42.3632 75.3061C42.7852 75.2384 42.9645 75.5177 42.9841 75.8302L42.953 75.8238ZM46.0315 76.7982C46.2264 76.7062 46.3553 76.591 46.4081 76.6246C46.7435 76.7849 47.2954 76.5435 47.3783 77.1473C47.3655 77.2013 47.3398 77.251 47.3033 77.2922C47.2668 77.3334 47.2206 77.3649 47.1687 77.3839C46.9494 77.4287 46.7193 77.3955 46.5176 77.2899C46.3159 77.1843 46.1551 77.0128 46.0626 76.8047L46.0315 76.7982ZM74.026 45.1405C73.1586 47.4881 72.0618 49.7388 70.7513 51.8604C68.2416 56.0917 65.1103 59.6133 60.3305 61.6904C55.4009 63.8726 51.4611 67.3951 49.4037 72.634C49.0377 73.5705 48.6437 74.4936 48.1977 75.5687L47.9042 75.4284C45.8582 74.3158 45.9116 74.1982 46.3518 71.8069C47.0588 68.2297 47.6344 64.6233 48.3516 61.0424C49.0484 57.6371 50.0605 54.3993 52.4543 51.6956C53.83 50.1471 55.1056 48.5003 56.5309 46.9923C56.7298 46.8596 56.8995 46.688 57.03 46.4874C57.1606 46.2868 57.2495 46.0611 57.2916 45.8235C57.2659 45.31 57.3514 44.8001 57.5421 44.3287C57.7328 43.8574 58.0242 43.4358 58.3963 43.093C58.579 42.892 58.6852 42.6321 58.6971 42.3571C58.709 42.0821 58.6257 41.8088 58.4614 41.5833C58.4135 41.4226 58.3216 41.2775 58.1963 41.1647C58.071 41.052 57.9173 40.9762 57.7531 40.9461C57.589 40.9161 57.4209 40.933 57.2683 40.9949C57.1158 41.0567 56.985 41.1611 56.891 41.2959C56.6227 41.6876 56.3909 42.1038 56.1983 42.5393C55.6915 43.4674 55.6377 43.4923 55.0363 42.4386C54.7414 41.9272 54.3564 42.0632 53.9567 42.0069C53.2506 41.9136 52.8011 42.566 52.1519 42.6094C50.9009 40.3275 50.7399 40.9999 49.046 42.5563C48.5366 42.1613 48.4708 41.5573 48.3317 41.0025C47.9493 39.5231 47.0157 39.1443 45.887 40.112C45.3145 40.6045 44.874 41.3118 44.3574 41.8311C44.255 41.9734 44.1249 42.0931 43.9744 42.1832C43.824 42.2732 43.6563 42.3317 43.4812 42.3553C42.5183 39.4955 42.2692 39.5196 40.3943 40.5011C40.4086 40.1398 40.3341 39.778 40.1772 39.4476C40.0204 39.1172 39.786 38.8283 39.4947 38.6062C39.381 38.5162 39.2453 38.4593 39.1029 38.4418C38.9605 38.4244 38.8172 38.4471 38.6891 38.5074C38.5506 38.5649 38.4396 38.6723 38.3775 38.809C38.3154 38.9456 38.3066 39.1019 38.3527 39.2476C39.3511 43.5641 39.4869 47.982 39.9903 52.3398C40.5234 56.1165 40.5617 59.9337 40.1043 63.6935C39.7825 65.8804 39.2018 68.0193 38.6934 70.1675C38.5656 70.7295 38.4833 71.3974 37.8457 71.64C37.4614 71.7931 35.9383 70.6527 35.7094 70.1644C35.527 69.628 35.5012 69.0544 35.6351 68.5123C35.8344 66.5952 36.0095 64.675 36.2468 62.7677C36.4169 61.0384 36.278 59.2843 35.8366 57.5872C35.2228 54.7417 34.0797 52.0241 32.4676 49.5781C31.6178 48.172 30.9624 46.6603 30.5199 45.0858C29.6558 42.061 28.9835 38.9893 28.507 35.8893C28.0885 33.6096 28.6762 31.3056 29.1723 29.1094C29.6615 26.5074 30.7661 24.0767 32.3943 22.0191C34.0675 20.0403 35.5695 17.8954 37.8077 16.4139C39.6496 15.2152 41.7141 14.3895 43.8885 13.982C48.1529 13.0843 52.5124 12.6446 56.894 12.6704C62.1364 12.7762 66.3783 14.7277 69.604 18.972C69.7736 19.2231 69.9656 19.4586 70.1774 19.6755C73.3274 22.7386 74.5622 26.5535 74.9115 30.745C75.2842 33.3208 75.4668 35.9156 75.4579 38.5081C75.2995 40.7834 74.8281 43.0174 74.0571 45.1469L74.026 45.1405ZM72.0655 25.4781C71.2896 23.3552 69.8376 21.5325 67.9383 20.2978C66.9926 19.5687 65.8752 19.1035 64.7036 18.951C63.532 18.7986 62.3497 18.9645 61.281 19.4315C60.9166 19.631 60.5138 19.7535 60.0967 19.7916C59.4991 19.8773 58.9636 20.1912 58.6011 20.6682C58.5283 20.7213 58.4688 20.7904 58.4267 20.8704C58.3847 20.9503 58.3612 21.0392 58.358 21.1304C58.3549 21.2217 58.3721 21.313 58.4084 21.3979C58.4447 21.4827 58.4993 21.5588 58.5681 21.6207C59.8309 22.8473 60.9354 24.3097 62.4815 25.1749C64.407 26.3339 65.8608 28.149 66.5677 30.2768C67.7178 33.1385 68.2705 36.192 68.1911 39.245C68.1727 39.8845 68.2402 40.784 68.8789 40.9882C69.2689 41.0545 69.6667 41.0107 70.0274 40.8618C70.3882 40.7128 70.6975 40.4647 70.9205 40.1453C71.0685 39.9569 71.1912 39.7496 71.2859 39.5285C72.1021 37.62 73.1615 35.794 73.0798 33.709C73.6709 30.8173 72.948 28.0469 72.0655 25.4781ZM71.3334 36.9158C70.9699 37.9691 70.3841 38.9264 69.6152 39.7235C69.3261 38.5039 69.1583 37.2616 69.1144 36.0153C68.6862 32.2407 67.7997 28.6512 65.0194 25.748C64.5868 25.2413 64.0801 24.8031 63.5173 24.4491C62.508 23.7629 61.6089 22.9241 60.8533 21.9635C60.3624 21.4342 60.334 20.9912 61.0534 20.7372C62.8693 20.0727 64.6563 19.6217 66.5745 20.791C67.7112 21.4277 68.7126 22.2867 69.5174 23.3156C70.3222 24.3445 70.9135 25.5215 71.2551 26.7748C72.2006 30.2156 72.5001 33.5246 71.3491 36.8812L71.3334 36.9158ZM36.0878 19.4313C32.6098 24.0017 30.7072 29.6049 30.6566 35.4263C30.6734 36.0842 30.7357 36.7414 30.8431 37.393C30.8632 37.4766 30.9027 37.5547 30.9585 37.6209C31.0142 37.6871 31.0845 37.7394 31.1635 37.7735C31.2832 37.7882 31.4029 37.7585 31.4998 37.69C31.5968 37.6215 31.6644 37.519 31.6896 37.4019C31.7592 37.175 31.7786 36.9344 31.7465 36.6965C31.6495 35.6103 31.696 34.5199 31.8847 33.4537C32.3469 28.8522 33.9521 24.4706 36.5544 20.7068C37.1444 19.8016 38.1945 19.3436 38.8463 18.1901C38.3097 18.1146 37.7668 18.1909 37.2792 18.4103C36.7917 18.6297 36.3789 18.9834 36.0878 19.4313ZM32.1898 41.5982C32.1458 41.3582 32.0559 41.088 31.7782 41.0815C31.5004 41.0751 31.3349 41.3833 31.3258 41.6652C31.0696 42.9404 31.9288 43.932 32.249 45.0617C32.3159 45.1991 32.4278 45.3102 32.5655 45.3759C32.7031 45.4417 32.858 45.4582 33.0037 45.4224C33.3153 45.3356 33.3481 44.9639 33.2342 44.6906C32.7997 43.6891 32.4503 42.6545 32.1898 41.5982ZM41.2747 17.6751C42.6721 16.659 44.4668 16.9021 45.9204 16.1739C44.1893 16.1465 42.1471 15.2125 41.2747 17.6751ZM50.4181 15.0734C50.3575 15.0706 50.2975 15.0821 50.243 15.1071C50.1885 15.1322 50.141 15.17 50.1045 15.2174C50.068 15.2649 50.0434 15.3207 50.0329 15.3802C50.0224 15.4397 50.0262 15.5013 50.044 15.5598C50.0845 15.6362 50.1431 15.7017 50.2144 15.7506C50.2858 15.7994 50.3677 15.8299 50.4528 15.8394C51.1026 15.8132 51.7573 15.7388 52.7537 15.6424C52.4369 15.3619 52.0574 15.163 51.6497 15.0637C51.2419 14.9644 50.8187 14.9677 50.4181 15.0734ZM56.057 15.2425C55.9969 15.2811 55.9406 15.4984 56.0042 15.5456C56.2758 15.8136 56.6159 16.0004 56.9846 16.0841C57.3533 16.1679 57.7353 16.1451 58.0859 16.0185C58.0859 16.0185 58.1299 15.9216 58.2084 15.7487C57.4953 15.4837 56.9471 14.7249 56.0538 15.2494L56.057 15.2425ZM38.9245 55.9392C39.2211 55.9042 39.2518 55.6494 39.3206 55.4045C39.2133 54.8732 39.4825 54.1684 38.701 53.9043C38.6419 53.8913 38.5811 53.8907 38.5226 53.9028C38.464 53.9148 38.4089 53.9391 38.3609 53.9741C38.3129 54.0091 38.2731 54.0541 38.244 54.106C38.2149 54.158 38.1972 54.2158 38.192 54.2757C38.0939 54.8098 38.6146 55.9848 38.9214 55.9462L38.9245 55.9392ZM59.7389 17.1537C60.1442 17.3474 60.5135 17.7512 61.0295 17.5516C61.1036 17.5196 61.1175 17.3579 61.1615 17.2611C60.9989 16.9555 60.7602 16.6959 60.4694 16.5082C60.1786 16.3205 59.8459 16.2112 59.5043 16.1912C59.4481 16.2153 59.3988 16.2529 59.3608 16.3007C59.3228 16.3485 59.2971 16.4051 59.286 16.4658C59.2662 16.6138 59.3013 16.7655 59.3848 16.8922C59.4682 17.0189 59.5941 17.1119 59.7389 17.1537ZM36.3929 50.3174C36.3203 50.3408 36.255 50.3818 36.2029 50.437C36.1508 50.4922 36.1134 50.5598 36.0941 50.6339C36.0748 50.7079 36.0741 50.786 36.0921 50.8614C36.1101 50.9368 36.1462 51.007 36.1973 51.0659C36.2835 51.2588 36.4152 51.4287 36.5807 51.5606C36.7462 51.6926 36.9405 51.7826 37.1463 51.8226C37.5211 51.3534 37.1651 50.9391 36.9942 50.529C36.9694 50.4742 36.9337 50.4248 36.8894 50.384C36.845 50.3432 36.7929 50.3119 36.7363 50.292C36.6798 50.2721 36.6201 50.2641 36.561 50.2685C36.5019 50.2729 36.4446 50.2895 36.3929 50.3174Z" fill="#543018" stroke="#543018" stroke-width="2" mask="url(#path-1-inside-1)"/>
</svg>
