<svg width="85" height="90" viewBox="0 0 85 90" fill="none" xmlns="http://www.w3.org/2000/svg">
<path d="M12.324 49.8412C22.9187 56.2863 34.3396 61.2149 44.9342 67.66C45.0539 67.7475 45.2029 67.7842 45.3492 67.7624C45.4956 67.7406 45.6275 67.662 45.7169 67.5434C56.6739 52.5242 66.8773 36.9218 77.8198 21.9755C77.873 21.9066 77.9092 21.826 77.9256 21.7403C77.942 21.6546 77.938 21.5662 77.914 21.4824C77.8899 21.3985 77.8466 21.3216 77.7874 21.2578C77.7282 21.194 77.6549 21.1451 77.5734 21.1152C66.8338 15.195 55.6449 10.0769 44.4849 4.92953C44.3683 4.88471 44.2405 4.87894 44.1204 4.9131C44.0002 4.94725 43.8943 5.0195 43.8183 5.11909C33.296 19.2925 22.6434 33.4513 12.7589 48.1205C12.717 48.1799 12.6871 48.247 12.671 48.3179C12.6549 48.3889 12.6528 48.4624 12.6649 48.5341C12.677 48.6059 12.7031 48.6746 12.7416 48.7362C12.7801 48.7978 12.8303 48.8512 12.8893 48.8934C12.2951 48.6601 11.7298 49.4766 12.324 49.8412ZM44.4849 6.06691C44.2965 6.06691 44.2675 5.994 44.4849 6.06691V6.06691ZM13.6574 48.7913C21.5274 37.1259 29.9625 25.8105 38.2963 14.4951C40.3688 11.7246 42.2964 8.74994 44.4849 6.11065C44.593 6.16819 44.695 6.23659 44.7893 6.31479C45.5079 6.75986 46.2766 7.1172 47.0793 7.37926L55.3985 11.3017C62.4858 14.6847 69.602 18.0676 76.5009 21.8297C67.428 34.2971 58.8624 47.129 49.9345 59.7421L46.7314 64.2187C46.2242 64.9186 45.6879 66.1581 44.6879 66.2456C44.1661 66.2456 42.9197 65.1957 42.4704 64.9332C39.5717 63.2709 36.673 61.7107 33.7743 60.165C26.832 56.5196 19.8461 53.0637 13.1212 49.01C13.2221 49.0329 13.3275 49.0242 13.4234 48.9851C13.5192 48.946 13.6009 48.8784 13.6574 48.7913Z" fill="#543018" stroke="#543018" stroke-width="0.3"/>
<path d="M38.1795 22.6611L55.5715 15.8222C56.2527 15.5597 55.7889 14.5244 55.1078 14.7869L37.7157 21.6258C37.0345 21.8883 37.5128 22.8799 38.1795 22.6611Z" fill="#543018" stroke="#543018" stroke-width="0.3"/>
<path d="M33.1364 29.0041L52.1662 21.0993C52.8474 20.8222 52.3836 19.7867 51.7024 20.0638L32.6726 27.9686C32.0059 28.2457 32.4697 29.2812 33.1364 29.0041Z" fill="#543018" stroke="#543018" stroke-width="0.3"/>
<path d="M51.5428 24.3363L36.6146 30.8708C36.4864 30.9378 36.3886 31.0517 36.3413 31.189C36.2939 31.3263 36.3006 31.4767 36.36 31.6092C36.4193 31.7418 36.5268 31.8464 36.6604 31.9016C36.794 31.9569 36.9436 31.9586 37.0784 31.9063L52.0066 25.3719C52.1348 25.3049 52.2326 25.191 52.2799 25.0537C52.3273 24.9163 52.3206 24.766 52.2612 24.6334C52.2019 24.5009 52.0944 24.3963 51.9608 24.341C51.8272 24.2858 51.6776 24.2841 51.5428 24.3363Z" fill="#543018" stroke="#543018" stroke-width="0.3"/>
<path d="M31.0052 39.065L63.7169 27.1355C64.3981 26.8876 63.9198 25.8521 63.2531 26.1001L30.5414 38.0295C29.8457 38.2775 30.324 39.3129 31.0052 39.065Z" fill="#543018" stroke="#543018" stroke-width="0.3"/>
<path d="M54.7166 35.3007L48.4555 37.2121C47.7598 37.431 48.2236 38.4523 48.9193 38.2481L55.1804 36.3366C55.8761 36.1178 55.3978 35.0818 54.7166 35.3007Z" fill="#543018" stroke="#543018" stroke-width="0.3"/>
<path d="M53.1807 40.5218L46.0645 42.4915C45.3688 42.6958 45.5427 43.8192 46.2384 43.6149L53.3547 41.6453C53.9924 41.4556 53.8184 40.3759 53.1807 40.5218Z" fill="#543018" stroke="#543018" stroke-width="0.3"/>
<path d="M43.3977 48.8328L30.1941 53.8067C29.513 54.0547 29.9767 55.0903 30.6579 54.8423L43.8614 49.8684C44.4847 49.6059 44.0788 48.5703 43.3977 48.8328Z" fill="#543018" stroke="#543018" stroke-width="0.3"/>
<path d="M23.5127 60.5415C21.9881 61.2803 20.8086 62.5864 20.2232 64.1841C19.6377 65.7817 19.6921 67.5458 20.375 69.1038C21.0578 70.6618 22.3156 71.8918 23.8828 72.5339C25.4499 73.1761 27.2037 73.1802 28.7738 72.5454C30.2983 71.8066 31.4778 70.5005 32.0633 68.9028C32.6487 67.3052 32.5943 65.5411 31.9115 63.9831C31.2286 62.4251 29.9708 61.1951 28.4037 60.553C26.8365 59.9108 25.0828 59.9067 23.5127 60.5415ZM28.31 71.5098C27.0011 72.0901 25.5169 72.1233 24.1837 71.6022C22.8505 71.0812 21.7775 70.0484 21.201 68.7313C20.6244 67.4141 20.5913 65.9204 21.1091 64.5787C21.6269 63.2371 22.6531 62.1573 23.962 61.5771C24.61 61.2898 25.308 61.1337 26.016 61.1179C26.724 61.102 27.4282 61.2267 28.0883 61.4847C28.7484 61.7427 29.3516 62.129 29.8634 62.6216C30.3751 63.1142 30.7855 63.7034 31.071 64.3556C31.3565 65.0078 31.5115 65.7102 31.5273 66.4227C31.543 67.1352 31.4192 67.8439 31.1628 68.5082C30.9064 69.1725 30.5225 69.7795 30.033 70.2945C29.5436 70.8096 28.9581 71.2225 28.31 71.5098Z" fill="#543018" stroke="#543018" stroke-width="0.3"/>
<path d="M28.8174 65.6902L24.8462 63.8522C24.7673 63.8145 24.6801 63.7978 24.593 63.804C24.5059 63.8101 24.4218 63.8388 24.349 63.8872C24.2761 63.9356 24.2168 64.0021 24.177 64.0803C24.1372 64.1585 24.118 64.2457 24.1215 64.3336C24.0133 64.4148 23.9406 64.535 23.9186 64.6691C23.7157 66.1278 23.4983 67.5865 23.2809 69.0452C23.2736 69.1442 23.2915 69.2436 23.333 69.3337C23.3745 69.4238 23.4382 69.5018 23.5181 69.5603C23.5979 69.6187 23.6912 69.6557 23.7892 69.6676C23.8872 69.6796 23.9866 69.6662 24.078 69.6286L28.8464 66.7112C28.9356 66.6582 29.0091 66.5821 29.0592 66.4908C29.1093 66.3995 29.1342 66.2963 29.1312 66.1921C29.1282 66.0878 29.0976 65.9863 29.0424 65.898C28.9872 65.8097 28.9095 65.738 28.8174 65.6902ZM24.5708 67.9949C24.7157 67.0467 24.8462 66.1132 24.9911 65.165L27.4115 66.2882L24.5708 67.9949Z" fill="#543018" stroke="#543018" stroke-width="0.3"/>
<path d="M1.51244 63.619C1.52786 63.6993 1.55216 63.7776 1.58491 63.8524C1.5142 63.8369 1.44094 63.8378 1.37062 63.8549C1.3003 63.8721 1.23477 63.9051 1.17896 63.9514C1.12315 63.9977 1.07851 64.0562 1.04841 64.1224C1.0183 64.1886 1.00352 64.2608 1.00517 64.3336C0.70081 74.2783 13.9043 79.9798 21.122 83.8877C25.8759 86.4687 31.9196 89.9683 37.5721 89.0205C39.6406 88.4732 41.5267 87.381 43.0361 85.8562C48.9494 80.7526 53.6887 74.1908 58.2397 67.8478C63.4573 60.6444 68.385 53.266 73.2403 45.7855C75.081 42.9713 76.9072 40.157 78.8058 37.3719C82.4147 32.0933 86.1685 25.9689 83.2408 19.48C83.2075 19.3937 83.1501 19.3189 83.0755 19.2646C83.001 19.2103 82.9124 19.1787 82.8205 19.1738C81.8639 15.8783 77.284 14.1285 74.5447 12.8162C69.1242 10.3373 63.7472 7.63963 58.3556 5.02949C54.0076 2.88597 48.9204 0.202925 43.8622 1.22365C39.0649 2.20063 36.1227 6.34185 33.5719 10.1914C27.0692 20.0196 20.5616 29.8477 14.0492 39.6758C11.1506 44.2253 8.10694 48.804 5.06333 53.3389C3.09222 56.2553 0.599356 59.8861 1.51244 63.619ZM73.2403 43.8024C69.0517 50.1747 64.8631 56.5469 60.4861 62.7587C56.2156 69.0777 51.5438 75.1125 46.5 80.8255C44.6526 82.9936 42.5501 84.9277 40.2388 86.5853C36.9198 88.7726 32.9921 87.8831 29.4557 86.5853C23.6791 84.2928 18.1561 81.3996 12.9767 77.9529C8.52725 75.1386 2.45451 70.9974 2.15015 65.1647C3.59949 67.6582 6.49818 69.1747 8.83161 70.6475C13.4502 73.5638 18.1847 76.3246 23.0352 78.9299C26.9194 80.9859 31.5283 84.1648 36.0792 84.0189C38.1684 83.9107 40.1818 83.1966 41.8766 81.9629C41.9181 81.958 41.9579 81.9436 41.9931 81.9208C42.0282 81.8981 42.0578 81.8676 42.0795 81.8317C43.1273 81.0961 44.0984 80.2558 44.9782 79.3236C49.848 74.2929 53.6742 67.8769 57.7179 62.2046C60.689 58.0926 63.7327 54.0242 66.6313 49.8684C69.53 45.7126 72.5736 41.0027 75.3274 36.4386C75.4031 36.3982 75.4622 36.3321 75.494 36.252C75.5259 36.1719 75.5285 36.083 75.5013 36.0012L75.7622 35.5929C77.5014 32.6765 79.1826 29.6581 80.661 26.5668C81.5429 24.9714 82.2755 23.297 82.8495 21.5652C84.98 29.4831 77.3565 37.4594 73.2403 43.8024ZM74.4578 16.0971C74.4041 16.3493 74.2942 16.5861 74.1365 16.7895C73.9787 16.9929 73.7771 17.1576 73.5469 17.2713C73.3167 17.385 73.0639 17.4447 72.8074 17.4459C72.551 17.4471 72.2976 17.3897 72.0664 17.2782L73.7331 16.6949C74.1534 16.5491 73.8636 15.9221 73.4577 16.0679L71.4721 16.7678C71.392 16.6854 71.3237 16.5922 71.2692 16.4908L74.5737 15.1784C74.6002 15.4703 74.5606 15.7645 74.4578 16.0387V16.0971ZM70.9649 15.9075C70.9649 15.9075 70.9649 15.9075 70.9649 15.8054L74.1099 14.668L70.9649 15.9075ZM15.3102 39.8799L34.4705 10.8622C37.0938 6.83763 40.1374 2.4631 45.355 2.17146C50.1378 1.83608 54.7612 4.53371 58.9208 6.54599C63.3993 8.7041 67.8488 10.9205 72.3562 13.0495C71.8291 13.0848 71.3244 13.2778 70.9069 13.6036C70.5591 13.8806 70.9939 14.4056 71.3417 14.1285C71.6696 13.8845 72.0618 13.7433 72.4692 13.7226C72.8765 13.7018 73.2809 13.8025 73.6317 14.0119L70.9939 14.9743C71.1388 14.566 70.5011 14.3181 70.3706 14.7264C70.2405 15.2036 70.2405 15.7073 70.3706 16.1845C70.3617 16.2445 70.3662 16.3057 70.3838 16.3637C70.4013 16.4218 70.4315 16.4751 70.4721 16.5199C70.5876 16.825 70.7643 17.1028 70.9912 17.3361C71.2181 17.5694 71.4904 17.7532 71.791 17.876C72.3579 18.1289 73 18.1518 73.5833 17.9399C74.1666 17.728 74.646 17.2976 74.9216 16.7387C75.1393 16.3263 75.2308 15.8584 75.1844 15.3938C75.1379 14.9292 74.9557 14.4889 74.6607 14.1285C77.3565 15.2951 80.3711 16.6803 81.5741 19.1884C81.7714 19.8694 81.8294 20.5837 81.7447 21.2879C81.66 21.9921 81.4343 22.6718 81.0813 23.2859C81.0657 23.2537 81.0434 23.2253 81.0158 23.2027C80.9883 23.18 80.9563 23.1636 80.9218 23.1546L78.7044 22.3526C78.284 22.2068 78.0377 22.8338 78.458 22.9797L80.6755 23.7816C80.7315 23.8029 80.7933 23.8029 80.8494 23.7816C80.5885 24.3503 80.2986 24.9044 80.0378 25.4002C80.0289 25.3828 80.0166 25.3674 80.0016 25.3549C79.9867 25.3424 79.9694 25.333 79.9508 25.3273L77.255 23.8691C76.8782 23.665 76.4724 24.2191 76.8492 24.4232L79.545 25.8814C79.62 25.9081 79.7018 25.9081 79.7769 25.8814L79.4725 26.4939L79.1681 27.1063L75.8057 25.7939C75.7259 25.7791 75.6436 25.7928 75.5728 25.8326C75.502 25.8724 75.4473 25.9359 75.4181 26.012C75.3889 26.0881 75.387 26.172 75.4128 26.2494C75.4386 26.3267 75.4904 26.3926 75.5593 26.4355L78.8638 27.6458L77.6463 29.9789L74.1534 28.5207C74.0737 28.5059 73.9913 28.5196 73.9206 28.5594C73.8498 28.5992 73.7951 28.6627 73.7658 28.7388C73.7366 28.8148 73.7347 28.8988 73.7605 28.9762C73.7863 29.0535 73.8381 29.1193 73.907 29.1623L77.3275 30.6205L76.2405 32.5599L73.2258 30.6642C72.8635 30.4309 72.4577 30.985 72.8345 31.2184L75.9071 33.0848C75.5013 33.7993 75.081 34.543 74.6752 35.1846L74.5013 35.4616L71.4576 34.2659C71.3779 34.2511 71.2955 34.2648 71.2248 34.3046C71.154 34.3444 71.0993 34.4079 71.0701 34.484C71.0408 34.5601 71.039 34.644 71.0647 34.7214C71.0905 34.7987 71.1423 34.8646 71.2113 34.9075L74.1099 36.0449C73.6317 36.8323 73.1389 37.6197 72.6606 38.4072L69.53 36.6428C69.1532 36.4386 68.7474 36.9781 69.1242 37.1969L72.3128 38.9759L71.2402 40.7111L68.414 39.3841C68.0227 39.2092 67.7763 39.8362 68.1676 40.0257L70.8779 41.2798C70.5156 41.863 70.1387 42.4317 69.7619 43.015L67.1096 41.3964C66.7473 41.1631 66.3415 41.7172 66.7183 41.9505L69.3996 43.642L68.2981 45.3043L65.5298 43.8462C65.1385 43.642 64.8921 44.2836 65.2835 44.4732L67.9213 45.8147C67.3705 46.6313 66.8343 47.4624 66.2835 48.2644L66.1531 48.4394L66.0371 48.3519L62.7471 46.8354C62.3558 46.6459 62.1094 47.2729 62.5007 47.4624L65.7762 49.0373C65.3994 49.606 64.9936 50.1455 64.6168 50.6996L62.0659 48.9935C61.7036 48.7602 61.2978 49.3143 61.6601 49.5476L64.2254 51.2391C64.2536 51.2491 64.2843 51.2491 64.3124 51.2391L63.2979 52.6973C63.2602 52.6302 63.2051 52.5748 63.1384 52.5369L60.6745 51.3995C60.2832 51.2245 60.0368 51.8516 60.4282 52.0411L62.892 53.1785C62.4283 53.8055 61.979 54.4325 61.5297 55.0741L58.515 53.3097C58.1382 53.091 57.7469 53.6451 58.1237 53.8638L61.1383 55.6137L59.9644 57.2322L56.7758 56.0219C56.6961 56.0071 56.6137 56.0208 56.543 56.0606C56.4722 56.1005 56.4175 56.1639 56.3882 56.24C56.359 56.3161 56.3571 56.4 56.3829 56.4774C56.4087 56.5547 56.4605 56.6206 56.5294 56.6635L59.5441 57.8009L58.0947 59.6966L55.196 57.8884C54.8192 57.6697 54.4134 58.2238 54.7902 58.4425L57.6889 60.2507C57.2976 60.761 56.9208 61.286 56.5439 61.7963L53.5003 59.9153C53.1235 59.682 52.7322 60.2361 53.0945 60.4694L56.1526 62.3504L54.7033 64.3044C54.6754 64.2388 54.6235 64.1866 54.5583 64.1586L51.6596 62.7004C51.2828 62.5108 51.0364 63.1378 51.4133 63.342L54.3119 64.8002C53.7177 65.6022 53.1525 66.4187 52.5582 67.2207L49.4277 65.4855C49.0508 65.2668 48.645 65.8209 49.0218 66.025L52.1669 67.7749L50.848 69.6122L47.9493 68.154C47.558 67.9644 47.3261 68.5914 47.7029 68.7956L50.5147 70.2538L50.1233 70.8079L49.0943 72.266C49.0958 72.1965 49.0775 72.1279 49.0416 72.0685C49.0056 72.0091 48.9535 71.9613 48.8914 71.9307L45.4275 70.1225C45.0362 69.9184 44.7898 70.56 45.1811 70.7495L48.6885 72.4556C48.7595 72.4763 48.8349 72.4763 48.9059 72.4556C48.3841 73.2139 47.8334 73.9138 47.2826 74.7158C47.3051 74.638 47.3 74.5548 47.2683 74.4803C47.2366 74.4059 47.1802 74.3448 47.1087 74.3075L42.7607 71.9452C42.3839 71.7411 42.1375 72.3827 42.5143 72.5868L46.8623 74.9491C46.9009 74.9673 46.9429 74.9767 46.9855 74.9767C47.0281 74.9767 47.0702 74.9673 47.1087 74.9491C45.9545 76.5233 44.6592 77.9876 43.239 79.3236C43.206 79.2531 43.1496 79.1964 43.0796 79.1632L39.7606 77.3842C39.3837 77.1801 39.1373 77.8217 39.5142 78.0258L42.7752 79.7611C42.3135 80.1536 41.8296 80.5187 41.3258 80.8547L37.3547 78.6674C36.9778 78.4487 36.7314 79.0903 37.1083 79.2944L40.6736 81.263C40.0231 81.6441 39.333 81.9522 38.6156 82.1816C38.6636 82.1449 38.7026 82.0975 38.7294 82.0431C38.7562 81.9887 38.7702 81.9288 38.7702 81.8681C38.7702 81.8074 38.7562 81.7475 38.7294 81.6931C38.7026 81.6388 38.6636 81.5914 38.6156 81.5546L35.2966 79.7902C34.9053 79.5861 34.6589 80.2277 35.0502 80.4172L38.3692 82.1962H38.4996C38.0227 82.3258 37.5388 82.4281 37.0503 82.5024L32.8907 80.461C32.4994 80.2423 32.2675 80.8839 32.6443 81.088L35.6734 82.7503C33.8965 82.683 32.1535 82.2408 30.5572 81.4526C21.8624 77.5702 13.5705 72.8324 5.80249 67.3082C0.208034 63.2108 3.32412 57.8738 6.42571 53.3243C9.5273 48.7748 12.3535 44.3711 15.3102 39.8799Z" fill="#543018" stroke="#543018" stroke-width="0.3"/>
<path d="M76.53 35.7383L72.3414 41.8337C71.9356 42.4316 72.8487 43.1023 73.2545 42.5045L77.4431 36.38C77.8199 35.7967 76.9358 35.1405 76.53 35.7383Z" fill="#543018" stroke="#543018" stroke-width="0.3"/>
<path d="M64.6737 53.8627L53.3544 69.6559C53.2659 69.7777 53.2293 69.9299 53.2524 70.0789C53.2755 70.228 53.3565 70.3617 53.4776 70.4506C53.5986 70.5396 53.7499 70.5765 53.898 70.5533C54.0461 70.53 54.179 70.4485 54.2674 70.3267L65.5868 54.5335C66.0071 53.9356 65.094 53.2648 64.6737 53.8627Z" fill="#543018" stroke="#543018" stroke-width="0.3"/>
<path d="M22.5273 80.4179L14.8458 77.034C14.1791 76.7423 13.7733 77.807 14.44 78.0987L22.107 81.4826C22.7447 81.7743 23.1795 80.7096 22.5273 80.4179Z" fill="#543018" stroke="#543018" stroke-width="0.3"/>
<path d="M41.093 75.3715L44.4844 77.2975C44.8613 77.5163 45.2671 76.9619 44.8902 76.743L41.4843 74.7879C41.122 74.569 40.7162 75.1088 41.093 75.3715Z" fill="#543018" stroke="#543018" stroke-width="0.3"/>
<path d="M69.8772 13.5037C69.9598 13.5366 70.0521 13.5351 70.1336 13.4995C70.2151 13.464 70.2793 13.3973 70.312 13.3141C70.3447 13.231 70.3432 13.1382 70.3078 13.0561C70.2725 12.9741 70.2062 12.9095 70.1236 12.8766L56.0794 7.07222C55.9997 7.05741 55.9173 7.0711 55.8465 7.11092C55.7758 7.15073 55.7211 7.21417 55.6918 7.29028C55.6626 7.36638 55.6607 7.45036 55.6865 7.52771C55.7123 7.60506 55.7641 7.67092 55.833 7.71391L69.8772 13.5037Z" fill="#543018" stroke="#543018" stroke-width="0.3"/>
<path d="M78.3848 20.1387C78.7181 20.4159 79.124 19.8614 78.7761 19.5988L75.7325 17.2056C75.3992 16.9283 74.9934 17.4828 75.3412 17.7455L78.3848 20.1387Z" fill="#543018" stroke="#543018" stroke-width="0.3"/>
<path d="M35.1655 48.5853L28.8898 50.9628C28.484 51.1233 28.7594 51.7359 29.1652 51.59L35.4553 49.1979C35.8612 49.125 35.5858 48.4249 35.1655 48.5853Z" fill="#543018" stroke="#543018" stroke-width="0.3"/>
<path d="M38.0348 39.0347L26.9764 43.8459C26.8956 43.8846 26.8335 43.9539 26.8036 44.0387C26.7737 44.1235 26.7785 44.2167 26.8169 44.2979C26.8554 44.3791 26.9243 44.4416 27.0086 44.4717C27.0928 44.5018 27.1855 44.4969 27.2662 44.4583L38.3102 39.6617C38.3754 39.6149 38.4225 39.547 38.4437 39.4693C38.4649 39.3916 38.4588 39.309 38.4264 39.2353C38.3941 39.1617 38.3374 39.1015 38.2661 39.065C38.1948 39.0284 38.1131 39.0177 38.0348 39.0347Z" fill="#543018" stroke="#543018" stroke-width="0.3"/>
<path d="M45.557 30.8549L56.9344 25.8812C57.0151 25.8445 57.078 25.777 57.1093 25.6936C57.1405 25.6101 57.1376 25.5176 57.101 25.4364C57.0645 25.3552 56.9974 25.2918 56.9145 25.2604C56.8316 25.2289 56.7397 25.2319 56.659 25.2687L45.2671 30.1694C44.8758 30.4028 45.1512 31.0153 45.557 30.8549Z" fill="#543018" stroke="#543018" stroke-width="0.3"/>
<path d="M41.0788 23.3452C40.673 23.5203 40.9629 24.133 41.3542 23.9725L48.514 20.9529C48.5829 20.9064 48.633 20.8367 48.6553 20.7563C48.6776 20.6759 48.6707 20.5902 48.6357 20.5145C48.6007 20.4388 48.54 20.3782 48.4646 20.3435C48.3891 20.3089 48.3038 20.3026 48.2241 20.3257L41.0788 23.3452Z" fill="#543018" stroke="#543018" stroke-width="0.3"/>
<path d="M40.7169 17.5302L49.2535 13.6655C49.3342 13.6268 49.3964 13.5574 49.4263 13.4727C49.4562 13.3879 49.4514 13.2946 49.4129 13.2134C49.3745 13.1322 49.3056 13.0696 49.2213 13.0395C49.137 13.0095 49.0444 13.0143 48.9636 13.053L40.4415 16.9177C40.3608 16.9544 40.2979 17.0219 40.2666 17.1053C40.2353 17.1887 40.2383 17.2812 40.2748 17.3625C40.3113 17.4437 40.3784 17.507 40.4613 17.5384C40.5442 17.5699 40.6361 17.5669 40.7169 17.5302Z" fill="#543018" stroke="#543018" stroke-width="0.3"/>
<path d="M28.1648 79.8214C28.5416 80.0402 28.933 79.5005 28.5561 79.2672L7.83054 66.9428C7.45371 66.724 7.06239 67.2782 7.42473 67.497L28.1648 79.8214Z" fill="#543018" stroke="#543018" stroke-width="0.3"/>
</svg>
