<svg width="78" height="75" fill="none" xmlns="http://www.w3.org/2000/svg"><path d="M3.16 9.25l.083.17-.084-.17zm0 0h0zm10.757 7.47h-.001a5.384 5.384 0 01-3.502-.045 5.865 5.865 0 002.224.29v.001h.008a5.295 5.295 0 002.52-.89 5.322 5.322 0 001.77-2.006h0l.003-.007a8.365 8.365 0 00.463-6.164 12.653 12.653 0 00-1.687-3.586h0a18.437 18.437 0 00-1.47-1.883l-.016-.017-.017-.016A7.12 7.12 0 0113.054 1l.274.134-.01.02c1.03.625 1.89 1.884 2.583 2.954l.001.002a12.99 12.99 0 011.653 3.655c.447 1.702.437 3.675-.144 5.356-.578 1.672-1.706 3.028-3.494 3.598zM3.24 9.421h.002-.002zm15.377-7.92c-.38-.034-.758-.082-1.133-.144.62.06 1.243.103 1.867.13 1.008.084 2.006.158 3.016.214h.004c.084.005.165.008.243.011.566.025.957.042 1.292.223a1.743 1.743 0 01-.719.055l-.862-.114.004.008a3.078 3.078 0 00-.432-.04l-.411-.04a105.03 105.03 0 01-2.853-.301l-.008-.001h-.008zM2.886 9.604l.188-.09.222.44.09-.045c.07.116.142.231.214.345l-.288.167a30.563 30.563 0 01-.426-.817zm0 0l.187-.094-.001-.002-.076-.152-.076-.15a.39.39 0 00-.034.398zm.206-.532l.157.31.011.024.307-.175m-.475-.16l.653 1.1a30.1 30.1 0 01-.412-.792l-.054.027.288-.175m-.475-.16a.387.387 0 01.475.16m-.475-.16l.475.16m19.166-7.808v-.43h.046a2.62 2.62 0 011.936.678.458.458 0 01.13.38l-.851-.37a2.181 2.181 0 00-1.26-.258zm0 0l-.042-.43h-.278l-.024-.002-.033.432m.377 0h-.377m0 0V.989l-.906-.07m.906.504l-.938-.072.032-.431m0 0l-.018-.002-.033.431m.05-.43l-.032.432-.018-.002m0 0l.033-.43L19.4.766l-.023-.002h-.012l-.894-.077m2.928.661l-2.03-.156h-.005l-.02-.002-.894-.045.021-.458m0 0h-.01l-.016.305.026-.305zm-.039.458c-.53-.028-1.06-.07-1.589-.127A15.656 15.656 0 0113.923.1l4.51 1.047zm0 0l.013-.148M3.314 9.513l-.033-.065-.014-.028.07-.033a.108.108 0 01-.023.126z" fill="#543018" stroke="#543018"/><mask id="a" fill="#fff"><path d="M8.314 30.546c.27-1.052-.53-2.08-1.092-2.89l-.074-.101a11.338 11.338 0 00-1.689-4.987.073.073 0 00-.096-.027.073.073 0 00-.033.095 13.281 13.281 0 011.255 4.133 32.705 32.705 0 00-1.278-1.526c.13-.436-.202-1.131-.326-1.487a10.684 10.684 0 00-1.239-2.822.087.087 0 00-.086-.044.086.086 0 00-.058.032.088.088 0 00-.008.097c.372.973.676 1.996.963 2.997.04.135.073.31.112.497-.394-.447-.788-.893-1.165-1.351-.208-.52-.473-1.018-.63-1.56a4.893 4.893 0 01-.096-2.516.178.178 0 00-.119-.22.176.176 0 00-.22.118 6.12 6.12 0 00-.061 2.702 10.757 10.757 0 01-1.256-2.352.34.34 0 00.118-.22c.085-.633.08-1.267.147-1.917a22.83 22.83 0 01.563-2.945c.49-1.798 1.064-3.613 1.137-5.473 0-.226-.366-.3-.405-.062-.321 2.001-1.166 3.957-1.746 5.885-.294.945-.52 1.911-.675 2.89-.103.459-.07.938.095 1.379.062 2.16 1.47 4.014 2.816 5.625.822 1.012 1.689 1.99 2.471 3.036a14.76 14.76 0 011.127 1.815c.222.54.577 1.014 1.03 1.38a.35.35 0 00.518-.181z"/></mask><path d="M8.314 30.546c.27-1.052-.53-2.08-1.092-2.89l-.074-.101a11.338 11.338 0 00-1.689-4.987.073.073 0 00-.096-.027.073.073 0 00-.033.095 13.281 13.281 0 011.255 4.133 32.705 32.705 0 00-1.278-1.526c.13-.436-.202-1.131-.326-1.487a10.684 10.684 0 00-1.239-2.822.087.087 0 00-.086-.044.086.086 0 00-.058.032.088.088 0 00-.008.097c.372.973.676 1.996.963 2.997.04.135.073.31.112.497-.394-.447-.788-.893-1.165-1.351-.208-.52-.473-1.018-.63-1.56a4.893 4.893 0 01-.096-2.516.178.178 0 00-.119-.22.176.176 0 00-.22.118 6.12 6.12 0 00-.061 2.702 10.757 10.757 0 01-1.256-2.352.34.34 0 00.118-.22c.085-.633.08-1.267.147-1.917a22.83 22.83 0 01.563-2.945c.49-1.798 1.064-3.613 1.137-5.473 0-.226-.366-.3-.405-.062-.321 2.001-1.166 3.957-1.746 5.885-.294.945-.52 1.911-.675 2.89-.103.459-.07.938.095 1.379.062 2.16 1.47 4.014 2.816 5.625.822 1.012 1.689 1.99 2.471 3.036a14.76 14.76 0 011.127 1.815c.222.54.577 1.014 1.03 1.38a.35.35 0 00.518-.181z" fill="#543018"/><path d="M7.222 27.657l.82-.572-.004-.006-.005-.006-.811.584zm-.074-.102l-.995.092.025.271.159.22.811-.583zM5.46 22.568l-.854.52.004.006.004.006.846-.532zm-.13.068l-.915.401.009.021.01.02.897-.442zm1.256 4.133l-.788.615 2.263 2.904-.483-3.65-.992.131zm-1.278-1.526l-.958-.286-.158.532.367.415.75-.662zm-.326-1.487l-.964.265.008.032.011.031.945-.328zm-1.239-2.822l-.875.485.013.023.014.022.848-.53zm-.152.085l.934-.357-.025-.065-.034-.062-.875.484zm.963 2.997l-.961.276v.003l.96-.28zm.112.497l-.75.662 2.514 2.848-.785-3.716-.979.206zM3.5 23.162l-.928.372.057.144.099.12.772-.636zm-.63-1.56l.96-.28-.003-.007-.002-.007-.956.294zm-.096-2.516l-.959-.287-.01.033-.007.033.976.22zm-.338-.102l-.958-.286-.007.021-.005.022.97.243zm-.062 2.702l-.817.577 1.797-.775-.98.198zm-1.256-2.352l-.645-.764-.543.459.254.663.934-.358zm.118-.22l-.99-.132-.002.008-.001.01.993.115zm.147-1.917l-.993-.123v.01l-.002.01.995.103zm.563-2.945l-.965-.263L.978 14l.968.252zm1.137-5.473l1 .04v-.04h-1zm-.405-.062l-.987-.164v.005l.987.159zM.932 14.602l.955.298.003-.01-.958-.288zm-.675 2.89l.976.217.006-.03.005-.031-.987-.157zm.095 1.379l1-.029-.005-.166-.058-.156-.937.35zm2.816 5.625l.776-.63-.009-.01-.767.64zm2.471 3.036l.81-.587-.005-.006-.004-.006-.8.6zm1.127 1.815l.924-.382-.018-.042-.02-.04-.886.464zm1.03 1.38l-.628.778.042.034.046.03.54-.842zm.435-.048l.71.705-.71-.705zm1.052.116c.218-.85-.015-1.626-.302-2.22-.28-.58-.684-1.124-.939-1.49l-1.641 1.143c.308.443.586.818.779 1.217.186.386.217.65.165.852l1.938.498zm-1.25-3.722l-.073-.102-1.623 1.168.073.102 1.623-1.168zm.111.39a12.338 12.338 0 00-1.838-5.427L4.613 23.1a10.339 10.339 0 011.54 4.547l1.991-.184zm-1.83-5.414a1.073 1.073 0 00-.629-.476l-.537 1.926a.927.927 0 01-.543-.412l1.709-1.038zm-.629-.476a1.073 1.073 0 00-.786.083l.928 1.771a.927.927 0 01-.68.072l.538-1.926zm-.786.083c-.242.126-.426.34-.515.596l1.888.66a.927.927 0 01-.445.515l-.928-1.771zm-.515.596c-.09.256-.08.537.03.785l1.832-.802a.926.926 0 01.026.677l-1.888-.66zm.049.827A12.281 12.281 0 015.594 26.9l1.983-.262a14.28 14.28 0 00-1.35-4.444l-1.794.885zm2.941 3.075a33.657 33.657 0 00-1.317-1.573l-1.5 1.323c.433.49.852.982 1.24 1.48l1.577-1.23zm-1.108-.626c.156-.525.017-1.061-.07-1.348-.082-.272-.253-.702-.27-.753l-1.89.657c.038.108.094.25.132.35.044.115.083.222.114.324.031.104.047.18.053.23.006.056-.006.035.014-.03l1.917.57zm-.321-2.038a11.684 11.684 0 00-1.355-3.085l-1.696 1.06a9.684 9.684 0 011.123 2.556l1.928-.531zm-1.328-3.04a1.088 1.088 0 00-.274-.324L3.097 21.69a.914.914 0 01-.23-.271l1.75-.969zm-.274-.324a1.087 1.087 0 00-.377-.194l-.552 1.922a.914.914 0 01-.317-.164l1.246-1.564zm-.377-.194a1.087 1.087 0 00-.425-.035l.23 1.986a.912.912 0 01-.357-.029l.552-1.922zm-.425-.035c-.142.016-.28.06-.404.13l.974 1.747a.914.914 0 01-.34.11l-.23-1.987zm-.404.13c-.125.07-.235.163-.324.275l1.57 1.24a.914.914 0 01-.272.232l-.974-1.747zm-.324.275c-.088.112-.154.24-.192.377l1.923.548a.912.912 0 01-.162.316l-1.569-1.24zm-.192.377a1.07 1.07 0 00-.035.421l1.987-.227a.912.912 0 01-.029.354l-1.923-.548zm-.035.421c.016.142.06.279.129.403l1.75-.968c.058.105.095.22.108.338l-1.987.227zm.07.276c.355.929.649 1.916.936 2.915l1.922-.551c-.288-1.002-.602-2.062-.99-3.078l-1.868.714zm.936 2.919c.026.088.048.205.095.425l1.957-.413c-.033-.154-.078-.387-.13-.57l-1.922.558zm1.823-.444a51.591 51.591 0 01-1.143-1.325l-1.544 1.272c.39.473.795.932 1.188 1.377l1.5-1.323zm-.987-1.06c-.11-.278-.247-.574-.345-.8a5.629 5.629 0 01-.253-.668l-1.921.558c.097.333.223.64.34.908.125.289.225.502.323.745l1.856-.744zm-.603-1.483a3.893 3.893 0 01-.076-2.002l-1.95-.44a5.893 5.893 0 00.114 3.03l1.912-.588zm-.093-1.936c.089-.298.056-.62-.09-.894l-1.763.945a.822.822 0 01-.064-.624l1.917.573zm-.09-.894a1.177 1.177 0 00-.698-.57l-.577 1.915a.823.823 0 01-.488-.4l1.762-.945zm-.698-.57c-.3-.09-.623-.058-.899.091l.952 1.76a.824.824 0 01-.63.064l.577-1.915zm-.899.091c-.275.149-.478.4-.567.699l1.916.572a.823.823 0 01-.397.489l-.952-1.76zm-.58.742a7.12 7.12 0 00-.071 3.144l1.96-.397a5.12 5.12 0 01.052-2.261l-1.94-.486zm1.726 2.369a9.755 9.755 0 01-1.14-2.134l-1.867.716c.35.911.81 1.775 1.373 2.571L3.19 21.11zm-1.428-1.011a1.34 1.34 0 00.467-.87l-1.987-.23a.66.66 0 01.23-.429l1.29 1.529zm.465-.853c.047-.359.069-.71.086-1.029.019-.33.033-.621.063-.916l-1.989-.207c-.037.355-.054.705-.07 1.013-.018.318-.036.6-.073.875l1.983.264zm.147-1.926c.118-.95.298-1.89.539-2.817L.978 14a23.92 23.92 0 00-.588 3.074l1.985.246zm.536-2.805c.472-1.736 1.093-3.692 1.171-5.697L2.084 8.74c-.068 1.715-.596 3.388-1.103 5.249l1.93.526zm1.172-5.736c0-.74-.595-1.116-1.014-1.19a1.204 1.204 0 00-.81.14 1.16 1.16 0 00-.568.824l1.973.327a.835.835 0 01-.407.58.796.796 0 01-.535.099.786.786 0 01-.639-.78h2zm-2.393-.22c-.147.92-.419 1.85-.737 2.814-.309.934-.685 1.965-.978 2.941l1.915.576c.286-.951.623-1.863.962-2.89.329-.995.64-2.044.813-3.125L1.69 8.558zm-1.712 5.746a21.39 21.39 0 00-.709 3.03l1.975.313c.148-.93.363-1.849.643-2.748l-1.91-.595zm-.697 2.968a3.423 3.423 0 00.135 1.949l1.873-.702a1.424 1.424 0 01-.056-.81l-1.952-.437zm.072 1.626c.073 2.551 1.724 4.654 3.047 6.238l1.535-1.282c-1.368-1.638-2.532-3.244-2.583-5.013l-2 .057zm3.038 6.228c.862 1.06 1.678 1.976 2.448 3.004l1.601-1.198c-.796-1.063-1.713-2.104-2.496-3.067l-1.553 1.26zm2.44 2.993c.39.537.74 1.103 1.049 1.691l1.771-.928a15.753 15.753 0 00-1.202-1.938L4.83 28.12zm1.01 1.609a4.476 4.476 0 001.327 1.776l1.256-1.557a2.475 2.475 0 01-.734-.983l-1.849.764zm1.415 1.84c.172.11.367.18.57.204l.234-1.987a.652.652 0 01.276.1l-1.08 1.682zm.57.204c.203.024.41 0 .602-.067l-.659-1.888a.653.653 0 01.291-.032l-.234 1.986zm.602-.067a1.35 1.35 0 00.512-.322l-1.418-1.41a.652.652 0 01.247-.156l.66 1.888zm.512-.322a1.36 1.36 0 00.32-.513l-1.892-.65a.648.648 0 01.154-.247l1.418 1.41z" fill="#543018" mask="url(#a)"/><mask id="b" fill="#fff"><path d="M7.97 30.992a.488.488 0 01-.292-.09 3.25 3.25 0 01-1.008-1.284l-.09-.17a15.275 15.275 0 00-1.126-1.792 59.127 59.127 0 00-1.65-2.041c-.276-.328-.563-.65-.817-.984-1.39-1.696-2.753-3.545-2.815-5.71a2.707 2.707 0 01-.124-1.459c.157-.987.385-1.962.682-2.917.191-.633.41-1.278.625-1.9A23.988 23.988 0 002.48 8.689a.39.39 0 01.433-.322.416.416 0 01.389.43 20.894 20.894 0 01-.817 4.42c-.095.368-.186.73-.276 1.092l-.05.203a20.05 20.05 0 00-.563 2.714c-.029.288-.045.565-.062.86-.017.293-.04.706-.085 1.062a.567.567 0 01-.084.238c.185.487.41.958.675 1.407-.03-.625.038-1.25.203-1.854a.373.373 0 01.587-.202.384.384 0 01.145.406 4.688 4.688 0 00.096 2.408c.108.344.24.68.394 1.006.073.17.146.34.214.51.186.22.372.44.563.655a30.82 30.82 0 00-.85-2.612.3.3 0 01.135-.384.297.297 0 01.388.101c.55.877.968 1.83 1.245 2.827.027.09.059.18.095.266.181.38.268.8.254 1.221.276.311.512.566.726.843a13.55 13.55 0 00-1.126-3.29.29.29 0 01.335-.405.275.275 0 01.166.133 11.429 11.429 0 011.74 5.02l.169.238c.563.808 1.267 1.815.997 2.877a.566.566 0 01-.35.38.517.517 0 01-.197.056zm-5.1-22.22a23.255 23.255 0 01-1.127 4.015 45.653 45.653 0 00-.62 1.877 20.537 20.537 0 00-.658 2.878 2.32 2.32 0 00.09 1.238v.084c.062 2.053 1.39 3.845 2.742 5.502.265.328.563.65.81.978a82.183 82.183 0 011.69 2.058c.435.584.826 1.2 1.171 1.843l.09.17c.194.441.492.83.867 1.13a.112.112 0 00.113 0 .153.153 0 00.09-.085c.225-.876-.417-1.792-.935-2.533l-.23-.328v-.05a9.648 9.648 0 00-.355-1.934c.079.368.146.735.191 1.13l.09.753-.467-.6c-.35-.446-.743-.915-1.272-1.515l-.09-.113-.564-.605a67.018 67.018 0 01-1.17-1.357l-.035-.056a8.496 8.496 0 00-.225-.52 8.85 8.85 0 01-.41-1.063 5.501 5.501 0 01-.198-.99c.012.329.05.656.113.979l.236 1.006-.563-.848a11.154 11.154 0 01-1.306-2.409l-.056-.141L1 19.17a.136.136 0 00.045-.085c.045-.34.062-.673.079-1.029.017-.356.033-.565.067-.882a20.6 20.6 0 01.563-2.77l.051-.204c.09-.362.186-.73.281-1.097a20.66 20.66 0 00.783-4.33zM4.371 22.67c.13.424.254.86.383 1.3 0 .091.051.199.074.312l.225.96v-.084c.02-.37-.056-.737-.22-1.069-.04-.107-.079-.203-.107-.288-.096-.396-.23-.769-.355-1.13z"/></mask><path d="M7.97 30.992a.488.488 0 01-.292-.09 3.25 3.25 0 01-1.008-1.284l-.09-.17a15.275 15.275 0 00-1.126-1.792 59.127 59.127 0 00-1.65-2.041c-.276-.328-.563-.65-.817-.984-1.39-1.696-2.753-3.545-2.815-5.71a2.707 2.707 0 01-.124-1.459c.157-.987.385-1.962.682-2.917.191-.633.41-1.278.625-1.9A23.988 23.988 0 002.48 8.689a.39.39 0 01.433-.322.416.416 0 01.389.43 20.894 20.894 0 01-.817 4.42c-.095.368-.186.73-.276 1.092l-.05.203a20.05 20.05 0 00-.563 2.714c-.029.288-.045.565-.062.86-.017.293-.04.706-.085 1.062a.567.567 0 01-.084.238c.185.487.41.958.675 1.407-.03-.625.038-1.25.203-1.854a.373.373 0 01.587-.202.384.384 0 01.145.406 4.688 4.688 0 00.096 2.408c.108.344.24.68.394 1.006.073.17.146.34.214.51.186.22.372.44.563.655a30.82 30.82 0 00-.85-2.612.3.3 0 01.135-.384.297.297 0 01.388.101c.55.877.968 1.83 1.245 2.827.027.09.059.18.095.266.181.38.268.8.254 1.221.276.311.512.566.726.843a13.55 13.55 0 00-1.126-3.29.29.29 0 01.335-.405.275.275 0 01.166.133 11.429 11.429 0 011.74 5.02l.169.238c.563.808 1.267 1.815.997 2.877a.566.566 0 01-.35.38.517.517 0 01-.197.056zm-5.1-22.22a23.255 23.255 0 01-1.127 4.015 45.653 45.653 0 00-.62 1.877 20.537 20.537 0 00-.658 2.878 2.32 2.32 0 00.09 1.238v.084c.062 2.053 1.39 3.845 2.742 5.502.265.328.563.65.81.978a82.183 82.183 0 011.69 2.058c.435.584.826 1.2 1.171 1.843l.09.17c.194.441.492.83.867 1.13a.112.112 0 00.113 0 .153.153 0 00.09-.085c.225-.876-.417-1.792-.935-2.533l-.23-.328v-.05a9.648 9.648 0 00-.355-1.934c.079.368.146.735.191 1.13l.09.753-.467-.6c-.35-.446-.743-.915-1.272-1.515l-.09-.113-.564-.605a67.018 67.018 0 01-1.17-1.357l-.035-.056a8.496 8.496 0 00-.225-.52 8.85 8.85 0 01-.41-1.063 5.501 5.501 0 01-.198-.99c.012.329.05.656.113.979l.236 1.006-.563-.848a11.154 11.154 0 01-1.306-2.409l-.056-.141L1 19.17a.136.136 0 00.045-.085c.045-.34.062-.673.079-1.029.017-.356.033-.565.067-.882a20.6 20.6 0 01.563-2.77l.051-.204c.09-.362.186-.73.281-1.097a20.66 20.66 0 00.783-4.33zM4.371 22.67c.13.424.254.86.383 1.3 0 .091.051.199.074.312l.225.96v-.084c.02-.37-.056-.737-.22-1.069-.04-.107-.079-.203-.107-.288-.096-.396-.23-.769-.355-1.13z" fill="#543018" stroke="#543018" stroke-width="2" mask="url(#b)"/><path d="M55.416 62.574v0zm0 0l-.004-.013.004.013zM23.011 27.168h0zm0 0l.046-.294-.046.294zm2.429 2.935l-.01-.02.01.02zm0 0l.009-.002-.01.002zm.036-.008h.001m0 0h0m0 0h0m0 0h0" fill="#543018" stroke="#543018"/><mask id="c" fill="#fff"><path d="M37.982 48.478l.337.6-.326-.605s-.017 0-.011.005z"/></mask><path d="M37.982 48.478l.337.6-.326-.605s-.017 0-.011.005z" fill="#543018"/><path d="M37.982 48.478l.87-.49-.066-.12-.096-.095-.708.705zm.337.6l-.87.49 1.75-.965-.88.475zm-.326-.605l.88-.475-.284-.525h-.596v1zm-.883.496l.338.6 1.743-.983-.338-.599-1.742.982zm2.09-.366l-.327-.605-1.76.95.327.605 1.76-.95zm-1.207-.13v-1h-.025a1.032 1.032 0 00-.345.068 1.004 1.004 0 00-.633 1.076c.044.308.214.498.283.567l1.417-1.411a.996.996 0 01-.64 1.698l-.033.001h-.023l-.001-1z" fill="#543018" mask="url(#c)"/><mask id="d" fill="#fff"><path d="M38.134 49.203l-.338-.566-.079-.158.135-.226h.26l.377.712-.355.238z"/></mask><path d="M38.134 49.203l-.338-.566-.079-.158.135-.226h.26l.377.712-.355.238z" fill="#543018"/><path d="M38.134 49.203l-.858.513.54.903.874-.585-.556-.831zm-.338-.566l-.895.446.017.034.02.033.858-.513zm-.079-.158l-.858-.513-.28.47.243.489.895-.446zm.135-.226v-1h-.567l-.291.487.858.513zm.26 0l.883-.468-.282-.532h-.602v1zm.377.712l.556.831.75-.502-.423-.797-.883.468zm.503-.275l-.337-.566-1.717 1.026.337.566 1.717-1.026zm-.3-.498l-.08-.159-1.79.892.079.158 1.79-.891zm-.116.8l.135-.226-1.717-1.026-.135.226 1.717 1.026zm-.724.26h.26v-2h-.26v2zm-.624-.531l.377.712 1.767-.936-.377-.712-1.767.936zm.704-.587l-.354.238 1.112 1.662.355-.238-1.113-1.662z" fill="#543018" mask="url(#d)"/><mask id="e" fill="#fff"><path d="M40.093 52.3c-.564-1.073-1.177-2.153-1.774-3.222a122.396 122.396 0 001.773 3.223z"/></mask><path d="M40.093 52.3c-.564-1.073-1.177-2.153-1.774-3.222a122.396 122.396 0 001.773 3.223z" fill="#543018"/><path d="M40.093 52.3l-.87.496 1.755-.96-.886.465zm-1.774-3.222l.873-.488-1.756.957.883-.469zm2.66 2.758c-.572-1.09-1.196-2.186-1.787-3.245l-1.746.975c.602 1.078 1.206 2.14 1.76 3.199l1.772-.928zm-3.543-2.289c.579 1.09 1.175 2.174 1.788 3.249l1.737-.99a121.457 121.457 0 01-1.759-3.197l-1.766.938z" fill="#543018" mask="url(#e)"/><mask id="f" fill="#fff"><path d="M39.907 52.408a147.967 147.967 0 01-1.78-3.234l.372-.203a307.827 307.827 0 011.78 3.228l-.372.21z"/></mask><path d="M39.907 52.408a147.967 147.967 0 01-1.78-3.234l.372-.203a307.827 307.827 0 011.78 3.228l-.372.21z" fill="#543018"/><path d="M39.907 52.408l-.87.492.49.87.87-.49-.49-.872zm-1.78-3.234l-.48-.877-.867.475.465.872.882-.47zm.372-.203l.872-.49-.484-.863-.868.476.48.877zm1.78 3.228l.49.871.86-.483-.473-.867-.878.479zm.498-.283c-.61-1.08-1.209-2.164-1.767-3.212l-1.765.94a148.418 148.418 0 001.791 3.256l1.741-.984zm-2.17-1.865l.372-.203-.96-1.754-.372.203.96 1.754zm-.98-.591c.6 1.069 1.188 2.144 1.773 3.218l1.756-.958a307.208 307.208 0 00-1.785-3.239l-1.744.979zm2.16 1.867l-.37.21.98 1.743.372-.21-.981-1.742z" fill="#543018" mask="url(#f)"/><mask id="g" fill="#fff"><path d="M56.522 65.26a.119.119 0 00-.16-.048.12.12 0 00-.048.16c.298.747 2.252 6.35 3.727 4.925a.21.21 0 00-.14-.356c-.676 0-1.284-1.233-1.566-1.696-.602-1.018-1.137-2.024-1.813-2.985z"/></mask><path d="M56.522 65.26a.119.119 0 00-.16-.048.12.12 0 00-.048.16c.298.747 2.252 6.35 3.727 4.925a.21.21 0 00-.14-.356c-.676 0-1.284-1.233-1.566-1.696-.602-1.018-1.137-2.024-1.813-2.985z" fill="#543018"/><path d="M56.522 65.26l-.88.474.028.052.034.049.818-.575zm-.208.113l.929-.372-.022-.052-.026-.05-.881.474zm3.727 4.924l.695.72.01-.01.008-.008-.712-.702zm-.14-.356l.035-1h-.035v1zm-1.566-1.696l-.86.51.006.009.854-.52zm-.932-3.46a1.118 1.118 0 00-.664-.54l-.574 1.915a.881.881 0 01-.523-.426l1.76-.948zm-.664-.54a1.118 1.118 0 00-.854.088l.954 1.758a.882.882 0 01-.674.07l.574-1.917zm-.854.088a1.119 1.119 0 00-.539.664l1.917.57a.882.882 0 01-.424.524l-.954-1.758zm-.539.664a1.12 1.12 0 00.088.85l1.76-.948a.88.88 0 01.07.668l-1.918-.57zm.04.747c.127.32.724 1.997 1.47 3.38.364.675.829 1.407 1.374 1.871.277.236.665.48 1.147.526.532.05 1.001-.159 1.36-.505l-1.39-1.438c-.011.01.075-.062.216-.049.092.01.082.044-.036-.057-.245-.208-.564-.657-.91-1.298-.675-1.25-1.204-2.746-1.374-3.173l-1.858.743zm5.368 5.255a1.21 1.21 0 00.324-.608l-1.96-.398a.79.79 0 01.211-.398L60.754 71zm.324-.608a1.21 1.21 0 00-.061-.686l-1.86.735a.79.79 0 01-.04-.447l1.96.398zm-.061-.686a1.21 1.21 0 00-.426-.542l-1.155 1.632a.791.791 0 01-.279-.355l1.86-.735zm-.426-.542a1.207 1.207 0 00-.655-.221l-.07 1.998a.792.792 0 01-.43-.145l1.155-1.632zm-.69-.222c.14 0 .19.062.127.013a1.55 1.55 0 01-.255-.283c-.236-.318-.395-.635-.583-.945l-1.71 1.038c.094.153.38.684.687 1.099.162.217.371.464.626.665.25.196.63.413 1.108.413v-2zm-.705-1.206c-.572-.966-1.15-2.047-1.855-3.05l-1.637 1.15c.646.918 1.138 1.85 1.77 2.92l1.722-1.02z" fill="#543018" mask="url(#g)"/><mask id="h" fill="#fff"><path d="M59.53 70.737a1.112 1.112 0 01-.192 0c-1.194-.272-2.353-2.991-3.125-5.02l-.096-.25a.335.335 0 01.158-.38.33.33 0 01.406.064c.478.684.89 1.402 1.295 2.092.169.3.343.6.523.893l.135.238c.254.446.777 1.373 1.228 1.373h.034a.381.381 0 01.36.243.42.42 0 01-.084.475.933.933 0 01-.642.272zm-2.714-4.653c1.295 3.279 2.134 4.11 2.612 4.218a.476.476 0 00.468-.159c-.704.04-1.25-.933-1.616-1.577l-.124-.226c-.18-.3-.355-.6-.53-.9a42.12 42.12 0 00-.81-1.356z"/></mask><path d="M59.53 70.737a1.112 1.112 0 01-.192 0c-1.194-.272-2.353-2.991-3.125-5.02l-.096-.25a.335.335 0 01.158-.38.33.33 0 01.406.064c.478.684.89 1.402 1.295 2.092.169.3.343.6.523.893l.135.238c.254.446.777 1.373 1.228 1.373h.034a.381.381 0 01.36.243.42.42 0 01-.084.475.933.933 0 01-.642.272zm-2.714-4.653c1.295 3.279 2.134 4.11 2.612 4.218a.476.476 0 00.468-.159c-.704.04-1.25-.933-1.616-1.577l-.124-.226c-.18-.3-.355-.6-.53-.9a42.12 42.12 0 00-.81-1.356z" fill="#543018"/><path d="M59.338 70.737l-.221.975.067.015.069.006.085-.996zm-3.125-5.02l.935-.356-.002-.004-.933.36zm-.096-.25l-.963.267.013.047.017.046.934-.36zm1.859 1.776l.87-.491-.004-.008-.004-.008-.862.507zm.523.893l.87-.495-.009-.014-.008-.013-.853.522zm.135.238l.87-.494v-.001l-.87.495zm1.262 1.373v1h.01l-.01-1zm.36.243l-.93.367.01.028.014.028.906-.422zm-.084.475l-.705-.71v.001l.705.71zm-.744-.163l-.219.975.004.001.215-.977zm.468-.159l.763.646 1.501-1.775-2.32.13.056 1zm-1.616-1.577l-.877.48.003.007.004.007.87-.494zm-.124-.226l.877-.48-.01-.018-.01-.018-.857.516zm-.53-.9l-.865.502.001.002.864-.503zm1.818 2.3h-.02l-.171 1.993c.12.01.242.01.362 0l-.17-1.993zm.116.022c.002 0-.122-.038-.358-.303-.22-.248-.46-.606-.71-1.057-.499-.902-.96-2.033-1.344-3.04l-1.87.71c.389 1.02.892 2.265 1.465 3.298.285.516.607 1.015.964 1.418.342.384.81.788 1.41.924l.443-1.95zm-2.413-4.405l-.096-.249-1.867.719.096.248 1.867-.718zm-.066-.155c.04.142.03.294-.026.432l-1.847-.767c-.115.275-.134.58-.054.867l1.927-.532zm-.026.432a.667.667 0 01-.29.325l-.98-1.743c-.26.146-.463.376-.577.65l1.847.768zm-.29.325a.669.669 0 01-.43.078l.309-1.976a1.33 1.33 0 00-.859.155l.98 1.743zm-.43.078a.668.668 0 01-.387-.205l1.465-1.362a1.332 1.332 0 00-.77-.409l-.309 1.976zm-.474-.313c.45.644.838 1.32 1.253 2.025l1.724-1.013c-.397-.674-.831-1.434-1.338-2.158l-1.639 1.146zm1.244 2.01c.173.308.354.618.542.925l1.705-1.045c-.173-.282-.34-.57-.505-.862l-1.742.982zm.525.897l.135.237 1.739-.989-.136-.238-1.738.99zm.135.236c.12.214.347.617.613.967.133.174.305.374.51.54.188.152.526.373.974.373v-2c.222 0 .326.106.282.07a1.224 1.224 0 01-.174-.195 6.854 6.854 0 01-.466-.742l-1.74.987zm2.097 1.88h.034v-2h-.034v2zm.045 0a.618.618 0 01-.353-.105l1.119-1.658a1.382 1.382 0 00-.789-.236l.023 2zm-.353-.105a.615.615 0 01-.229-.285l1.861-.733a1.385 1.385 0 00-.513-.64l-1.119 1.658zm-.204-.229a.58.58 0 01-.046-.347l1.97.35a1.42 1.42 0 00-.112-.848l-1.812.845zm-.046-.347a.581.581 0 01.163-.31l1.409 1.42a1.42 1.42 0 00.397-.76l-1.969-.35zm.163-.31a.067.067 0 01.046-.02l.033 2c.5-.008.977-.21 1.33-.561l-1.41-1.419zm-3.581-3.305c.66 1.67 1.225 2.776 1.717 3.495.463.679.98 1.19 1.606 1.331l.438-1.951c.149.033.006.075-.393-.508-.371-.543-.873-1.493-1.508-3.102l-1.86.735zm3.327 4.827c.263.058.537.043.792-.043l-.642-1.895a.523.523 0 01.28-.015l-.43 1.953zm.792-.043c.255-.087.48-.241.654-.446l-1.527-1.292a.521.521 0 01.231-.157l.642 1.895zm-.166-2.09c.145-.008.111.087-.115-.18-.199-.235-.381-.552-.575-.893l-1.739.988c.172.303.446.794.788 1.198.314.37.906.931 1.754.884l-.112-1.997zm-.682-1.06l-.124-.226-1.754.961.124.226 1.754-.96zm-.144-.26a73.81 73.81 0 01-.522-.888l-1.729 1.007c.174.299.352.604.537.911l1.714-1.03zm-.521-.886a43.94 43.94 0 00-.83-1.388l-1.692 1.066c.27.43.532.878.791 1.325l1.73-1.003z" fill="#543018" mask="url(#h)"/><path d="M61.55 65.813c.052.141.271.187.316 0a1.946 1.946 0 00.052-.312.316.316 0 00-.165-.063.36.36 0 00-.287.108l.085.267z" fill="#543018" stroke="#543018"/><mask id="i" fill="#fff"><path d="M61.731 66.164a.405.405 0 01-.377-.255c-.1-.299-.17-.608-.208-.921a4.114 4.114 0 00-.141-.724 7.363 7.363 0 00-.71-1.628 11.432 11.432 0 00-1.959-2.476.266.266 0 010-.373.259.259 0 01.36-.04 8.768 8.768 0 012.478 2.708c.563 1.03 1.188 2.346.912 3.443a.345.345 0 01-.321.272l-.034-.006zm-.326-2.03c.075.26.13.524.163.792.028.227.071.451.13.673a4.746 4.746 0 00-.721-2.584c.171.365.314.743.428 1.13v-.01z"/></mask><path d="M61.731 66.164a.405.405 0 01-.377-.255c-.1-.299-.17-.608-.208-.921a4.114 4.114 0 00-.141-.724 7.363 7.363 0 00-.71-1.628 11.432 11.432 0 00-1.959-2.476.266.266 0 010-.373.259.259 0 01.36-.04 8.768 8.768 0 012.478 2.708c.563 1.03 1.188 2.346.912 3.443a.345.345 0 01-.321.272l-.034-.006zm-.326-2.03c.075.26.13.524.163.792.028.227.071.451.13.673a4.746 4.746 0 00-.721-2.584c.171.365.314.743.428 1.13v-.01z" fill="#543018"/><path d="M61.731 66.164l.165-.986-.084-.014h-.084l.003 1zm-.377-.255l-.948.32.01.027.01.027.928-.374zm-.208-.921l-.995.102v.009l.002.008.993-.119zm-.85-2.352l-.863.506v.001l.862-.507zm-1.96-2.476l-.713.7.01.012.012.01.691-.722zm0-.373l.714.7.032-.032.029-.036-.775-.632zm.36-.04l-.62.785.02.015.02.015.58-.815zm2.478 2.708l.877-.48-.007-.013-.008-.013-.862.506zm.912 3.443l-.97-.244-.004.017-.004.016.978.211zm-.321.272l-.165.986.103.017.105-.004-.043-1zm-.36-2.036l.96-.28-1.96.28h1zm.163.792l.992-.123-.992.123zm.13.673l-.968.254 1.967-.24-1-.014zm-.721-2.584l.848-.53-1.754.955.906-.425zm.428 1.13l-.96.281 1.96-.28h-1zm.323 1.019c.12 0 .236.035.335.102l-1.118 1.658c.233.157.508.241.79.24l-.007-2zm.335.102a.59.59 0 01.218.27l-1.855.747c.105.26.285.484.519.64l1.118-1.657zm.239.324a3.619 3.619 0 01-.164-.722l-1.985.24c.046.381.13.757.253 1.12l1.896-.638zm-.162-.704a5.118 5.118 0 00-.175-.9l-1.92.557c.051.178.087.362.106.547l1.99-.204zm-.177-.908a8.368 8.368 0 00-.806-1.849l-1.723 1.014c.26.443.466.915.613 1.407l1.916-.572zm-.805-1.848a12.428 12.428 0 00-2.131-2.693l-1.382 1.446a10.426 10.426 0 011.788 2.26l1.725-1.013zm-2.108-2.67c.135.137.21.322.21.513h-2c0 .331.13.65.363.887l1.427-1.4zm.21.513a.734.734 0 01-.21.514l-1.427-1.401a1.266 1.266 0 00-.363.887h2zm-.15.446a.741.741 0 01-.493.268l-.218-1.988c-.329.036-.63.2-.838.455l1.55 1.265zm-.493.268a.742.742 0 01-.54-.155l1.239-1.57a1.258 1.258 0 00-.917-.263l.218 1.988zm-.5-.125a7.768 7.768 0 012.194 2.399l1.725-1.012a9.769 9.769 0 00-2.76-3.017l-1.16 1.63zm2.18 2.373c.274.502.534 1.021.696 1.523.165.511.196.906.123 1.196l1.94.488c.203-.806.06-1.618-.16-2.298-.222-.688-.556-1.342-.845-1.869l-1.755.96zm.812 2.752a.655.655 0 01.217-.362l1.291 1.528c.227-.192.384-.454.446-.743l-1.955-.423zm.217-.362a.658.658 0 01.396-.154l.086 1.998c.298-.013.582-.125.81-.316l-1.292-1.528zm.604-.142l-.034-.005-.33 1.972.034.006.33-1.973zm-1.486-.77c.061.209.105.421.131.636l1.985-.247a6.081 6.081 0 00-.195-.947l-1.92.559zm.131.636c.034.27.086.54.155.804l1.934-.509a4.109 4.109 0 01-.104-.54l-1.985.245zm2.122.564a5.746 5.746 0 00-.872-3.128l-1.696 1.06c.381.61.579 1.318.569 2.04l2 .028zm-2.626-2.173c.15.319.275.648.374.986l1.92-.561a8.848 8.848 0 00-.483-1.275l-1.81.85zm2.334.706v-.012h-2v.012h2z" fill="#543018" mask="url(#i)"/><mask id="j" fill="#fff"><path d="M28.55 25.044a16.944 16.944 0 001.942 2.307c.119.101.321 0 .231-.176a11.992 11.992 0 00-1.773-2.125 21.95 21.95 0 00-2.421-2.33c-.074-.056-.18.04-.107.102a21.407 21.407 0 012.128 2.222z"/></mask><path d="M28.55 25.044a16.944 16.944 0 001.942 2.307c.119.101.321 0 .231-.176a11.992 11.992 0 00-1.773-2.125 21.95 21.95 0 00-2.421-2.33c-.074-.056-.18.04-.107.102a21.407 21.407 0 012.128 2.222z" fill="#543018"/><path d="M30.492 27.35l-.704.71.025.025.027.024.652-.758zm.231-.175l.89-.457-.024-.046-.03-.044-.836.547zM28.95 25.05l-.747.665.028.031.03.029.689-.725zm-2.421-2.33l.636-.771-.013-.01-.012-.01-.611.791zm-.107.102l.67-.742-.011-.01-.012-.01-.647.762zm1.309 2.796c.612.873 1.3 1.691 2.057 2.442l1.409-1.419a15.95 15.95 0 01-1.828-2.17l-1.638 1.146zm2.11 2.49c.407.352.974.363 1.383.102a1.135 1.135 0 00.388-1.492l-1.778.915a.839.839 0 01-.062-.585.874.874 0 01.376-.524.836.836 0 01.997.069l-1.305 1.516zm1.719-1.48a12.998 12.998 0 00-1.922-2.303l-1.377 1.45c.615.584 1.16 1.238 1.626 1.948l1.673-1.095zm-1.864-2.244a22.955 22.955 0 00-2.531-2.435l-1.273 1.543a20.83 20.83 0 012.311 2.223l1.493-1.33zM27.14 21.93c-.505-.39-1.095-.218-1.399.064a1.06 1.06 0 00.033 1.592l1.295-1.525a.94.94 0 01.03 1.4c-.25.232-.75.385-1.182.052l1.223-1.583zm-1.389 1.635a20.413 20.413 0 012.029 2.118l1.54-1.276a22.392 22.392 0 00-2.228-2.326l-1.341 1.484z" fill="#543018" mask="url(#j)"/><path d="M30.604 27.238l.008.002-.008-.002z" fill="#543018" stroke="#543018"/><mask id="k" fill="#fff"><path d="M77.276 6.833a7.214 7.214 0 00-1.801-1.968c-.08-.062-.237-.197-.423-.322a.46.46 0 00-.118-.367A6.812 6.812 0 0073.3 2.694a.528.528 0 00-.625.085c-1.28 1-2.446 2.138-3.48 3.392a21.58 21.58 0 00-2.477 2.635.72.72 0 000 .95 8.041 8.041 0 00-.608 2.205c-.02.113.002.23.062.328-.05.119-.107.232-.163.35a.823.823 0 00-.068.373 56.984 56.984 0 00-5.512 5.015 60.324 60.324 0 00-5.535 5.795c-1.633 2.058-3.204 4.161-4.87 6.22a39.884 39.884 0 01-2.337 2.64c-.665.678-1.442 1.181-2.123 1.826a16.307 16.307 0 01-1.447-.95.376.376 0 00-.372-.068 3.773 3.773 0 00-.31-.226 1.302 1.302 0 00-1.687.416c-.12.176-.196.379-.221.59a.061.061 0 00-.045 0 8.972 8.972 0 00-2.607.402l-1.07-.735c-.433-.52-.856-1.04-1.272-1.566-2.664-3.393-4.403-7.605-7.647-10.494.27-1.492.654-2.973.94-4.466.277-.769.564-1.538.766-2.324.068.034.152-.056.09-.113l-.044-.045c.112-.384.213-.774.303-1.176a.209.209 0 00-.298-.227.209.209 0 00-.101.114c-.102.283-.214.565-.327.842v-.667a9.187 9.187 0 00-.203-2.001c.226.39.472.767.738 1.13.237.317.681 0 .62-.344-.17-.933-.947-1.838-1.493-2.59-.67-.921-1.39-1.809-2.089-2.708-1.238-1.605-2.815-3.482-2.72-5.653a.08.08 0 00-.056-.068.079.079 0 00-.084.028c-.715 1.447.321 3.262 1.21 4.59l-.247-.124c-.135-.056-.287.136-.203.26.969 1.369 2.28 2.347 3.046 3.896.5 1.082.756 2.261.75 3.454a18.244 18.244 0 01-1.211-1.56 10.926 10.926 0 01-.856-1.544.125.125 0 000-.152 19.164 19.164 0 01-1.819-4.026c-.034-.13-.236-.085-.203.046.277.958.644 1.888 1.098 2.775a8.63 8.63 0 001.554 3.014c.432.608.904 1.186 1.414 1.73v.384a23.514 23.514 0 01-.226 2.431c0 .063-.05.12-.073.181a6.228 6.228 0 00-1.689-3.228c-.067-.062-.191 0-.14.107a14.457 14.457 0 011.689 3.393c-.085.203-.17.401-.248.6-.265.65-.524 1.3-.772 1.95-.36-1.38-1.604-3.025-2.438-3.393-.13-.056-.214.13-.135.22.788.889 1.588 1.595 2.09 2.709.144.32.235.662.27 1.012a5.38 5.38 0 00-.4 1.13 1.253 1.253 0 01-.682.272 1.95 1.95 0 00.654-.119 1.701 1.701 0 000 .475.335.335 0 00.234.248.33.33 0 00.329-.09c.12-.123.22-.264.298-.418l.124.13c-.056.447-.102.893-.135 1.346 0 .249.354.249.383 0 .028-.249.084-.645.135-.967 2.59 2.787 4.138 6.445 6.272 9.577a37.45 37.45 0 01-5.439-5.054c-.04-.04-.101 0-.067.062a41.128 41.128 0 004.977 5.088c.495.436 1.025.9 1.588 1.352.782 1.006 1.638 1.973 2.494 2.928a.406.406 0 00-.135.17.416.416 0 00-.028.215c-.5-.422-1.036-.8-1.6-1.13a.03.03 0 00-.046.03.03.03 0 00.013.02c1.413.99 2.517 2.369 3.733 3.579a12.32 12.32 0 002.545 2.109c.726.808 1.453 1.61 2.168 2.425.85.961 1.689 1.934 2.533 2.872-.827-.633-1.689-1.238-2.522-1.854-1.774-1.3-3.615-2.556-4.944-4.342 0 0-.062 0-.045.034a19.788 19.788 0 004.308 4.29c.861.69 1.756 1.335 2.63 2.013.872.679 1.62 1.555 2.561 2.036a.135.135 0 00.152 0c1.064 1.006 2.066 1.922 3.04 2.883 1.284 1.238 2.562 2.51 3.767 3.845-.174-.17-.343-.328-.5-.492a25.768 25.768 0 00-2.14-1.911.067.067 0 00-.062 0 21.873 21.873 0 00-2.365-2.33 8.525 8.525 0 00-3.378-2.035.045.045 0 00-.022.068.045.045 0 00.022.017 8.857 8.857 0 013.378 2.318c.867.882 1.633 2.148 2.686 2.827a.118.118 0 00.163-.158c0-.04-.056-.085-.084-.125.495.447.974.91 1.43 1.391a21.818 21.818 0 001.852 2.086c.135.108.355 0 .26-.192l-.13-.21a33.65 33.65 0 012.443 3.2 15.404 15.404 0 011.87 3.851c.309 1.275.456 2.584.439 3.895a19.328 19.328 0 01-.845 2.262 4.43 4.43 0 01-1.56 1.967 3.027 3.027 0 01-2.336.311.13.13 0 000-.147c-.642-.644-1.42-1.13-2.06-1.786a14.178 14.178 0 01-1.893-2.37c-1.025-1.594-1.728-3.55-1.407-5.46 0-.057-.074-.085-.085 0-.4 1.893.203 3.782 1.092 5.444.5.92 1.115 1.77 1.83 2.533a8.898 8.898 0 001.819 1.605 9.37 9.37 0 01-1.25-.565 13.652 13.652 0 01-1.515-.956c.268.094.543.164.822.21a.09.09 0 00.085-.126.09.09 0 00-.04-.044c-4.448-1.51-6.002-6.479-8.141-10.176 1.075 2.12 1.908 4.347 3.175 6.366.085.135.175.277.27.412a57.232 57.232 0 01-2.657-2.827 71.675 71.675 0 01-2.573-3.708c-.727-1.131-1.436-2.228-2.14-3.359.22.119.445.232.676.334.096.04.152-.113.068-.164a14.56 14.56 0 01-1.087-.724 152.195 152.195 0 01-2.63-4.421 351.61 351.61 0 002.298 4.178c-4.623-3.51-6.932-9.102-10.698-13.444-1.954-2.262-3.987-4.405-5.806-6.745-.608-.86-1.227-1.742-1.869-2.601a13.136 13.136 0 01-2.252-5.772c.172 1.71.71 3.362 1.576 4.845a21.44 21.44 0 00-3.333-3.489c.208-.112.398-.255.563-.423a.312.312 0 00-.05-.487 3.22 3.22 0 00-1.853-.271c-.523-.922-1.126-1.815-1.65-2.686a.087.087 0 10-.152.085c.428.843.828 1.775 1.279 2.663l-.282.04c-.907.124-1.813.26-2.714.407a3.999 3.999 0 00-.332-1.131c-.073-.136-.265 0-.209.113.122.35.189.716.198 1.085h-.057c-.985.17-1.954.374-2.905.622a20.339 20.339 0 01-.732-2.306c0-.057-.096-.034-.085 0 .095.803.253 1.597.473 2.374-.765.215-1.525.458-2.252.74-.293-1.514-.681-3.007-.895-4.522 0-.153-.248-.096-.23.05.185 1.55.562 3.07.81 4.603l-.22.085c-.473.192-.157.944.316.825h.04c0 .09.027.175.039.266 0 .226.377.147.343-.08 0-.09-.028-.18-.04-.27a41.19 41.19 0 012.607-.566c.046.068.08.13.124.192.045.063.203 0 .175-.096l-.05-.141c.917-.17 1.835-.323 2.753-.453v.08a.108.108 0 000 .045.159.159 0 00.156.124.158.158 0 00.069-.017.345.345 0 00.13-.282c.872-.113 1.745-.21 2.623-.3.31-.028.625-.057.935-.107.13.186.264.367.405.565a.1.1 0 00.12.015.102.102 0 00.05-.111 2.61 2.61 0 00-.102-.294c2.522 2.533 4.409 5.76 6.458 8.65 1.165 1.64 2.444 3.183 3.665 4.777-3.766 2.522-6.886 6.27-9.966 9.527-2.871 3.03-5.81 5.998-8.648 9.046a15.567 15.567 0 00-3.069 4.217c-.563 1.255-.276 2.262.344 3.427a16.641 16.641 0 002.9 3.793c.563.566 1.66 1.815 2.51 1.17a.345.345 0 00.136-.395c1.56.565 3.04.865 4.583-.238a25.464 25.464 0 003.559-3.494c1.402-1.498 2.815-3.002 4.313-4.381 2.33-2.12 4.887-3.958 7.179-6.14 1.689-1.583 3.49-3.29 4.572-5.377 2.347 3.07 4.735 6.106 7.23 9.046 2.916 3.443 6.193 7.26 10.258 9.312 1.48.746 3.181 1.181 4.763.492 1.763-.77 2.776-3.037 3.069-4.817.076-.576.11-1.156.101-1.736.445-2.352-1.008-5.088-2.167-6.982-1.92-3.087-4.505-5.739-7.106-8.26-1.244-1.182-2.478-2.347-3.722-3.528-1.357-1.29-2.573-2.658-3.812-4.071l-.9-1.018a6.066 6.066 0 00.264-1.532c.094-.801.109-1.61.045-2.414l.304.204c1.166.802 2.742-.786 1.948-1.957a8.513 8.513 0 00-.929-1.13c1.436-.786 2.67-2.494 3.62-3.63 1.746-2.08 3.345-4.28 5-6.44a60.14 60.14 0 015.507-6.111 92.403 92.403 0 003.71-3.879c.49-.458.975-.91 1.47-1.362a12.094 12.094 0 003.745-.701c.827-.289 2.128-.667 2.398-1.6 1.616-.99 2.95-2.72 3.942-4.173a.623.623 0 00.112-.282.606.606 0 00.484-.616.612.612 0 00-.073-.272zM28.443 21.499c0-.08.05-.159.073-.238l-.034.238h-.04zm6.458 26.51a182.56 182.56 0 00-3.204-4.133c-.732-.922-1.47-1.843-2.196-2.765.563.628 1.126 1.25 1.655 1.877a47.743 47.743 0 013.745 5.02zM18.837 71.664c-.766.757-1.644 1.611-2.815 1.572a3.298 3.298 0 01-.462-.051 52.865 52.865 0 004.55-3.523 160.848 160.848 0 003.518-2.979c-1.599 1.64-3.141 3.353-4.791 4.98zm9.307-9.046c3.097-2.906 6.047-5.948 8.919-9.086a.113.113 0 00-.082-.18.113.113 0 00-.076.022 384.506 384.506 0 01-10.838 10.313 149.534 149.534 0 01-5.66 4.93c-1.795 1.498-3.738 2.826-5.472 4.404-.76-.226-1.526-.566-2.219-.826a.526.526 0 00-.563.12 6.488 6.488 0 01-.444-.436 14.806 14.806 0 01-2.545-3.607c-.637-1.312.157-2.426.929-3.5a34.135 34.135 0 013.513-3.878c2.658-2.691 5.158-5.541 7.72-8.311 2.815-3.048 5.917-5.903 8.631-9.046l1.002 1.362c-2.055 2.827-4.91 5.14-6.61 8.204a.182.182 0 00.053.224.18.18 0 00.229-.01 50.422 50.422 0 006.407-8.339c1.126 1.544 2.292 3.093 3.446 4.63.552.755 1.104 1.49 1.655 2.206-3.44 3.002-7.015 5.868-10.467 8.837-1.689 1.464-3.378 2.945-4.988 4.472-1.61 1.526-3.289 2.962-4.505 4.76-.107.158.119.294.242.192 1.69-1.362 3.125-3.03 4.702-4.523 1.576-1.492 3.294-3.019 4.972-4.483 3.429-2.997 6.852-5.987 10.135-9.153.512.684 1.03 1.362 1.542 2.04-2.736 3.314-6.295 5.948-9.628 8.668v-.006zm12.247-7.35c.707.71 1.497 1.33 2.353 1.849a86.72 86.72 0 002.365 3.907c.23.356.473.706.71 1.057l-.113-.13a302.601 302.601 0 01-5.315-6.666v-.017zm33.85-49.6h-.078l-.085-.045c.026-.034.05-.07.073-.107l.09.152zm-4.662 6.36l.09.04c.164.044.332.07.502.08l-1.076.209c.152-.085.327-.193.484-.306v-.022zM43.623 37.16a5.885 5.885 0 00-1.2 1.95c-.264-.293-.53-.564-.8-.87.198-.333.35-.695.53-1.034.18-.34.343-.611.563-.905.276.313.58.6.907.86zm-2.072-2.776H41.5a.067.067 0 00.05 0zm-2.292 1.25l.45-.108h.057l-.355.26-.152-.152zm2.894 0c.122.186.258.364.405.531a7.685 7.685 0 00-.428.566c-.298.367-.57.757-.81 1.164-.36-.39-.715-.78-1.07-1.176a11.008 11.008 0 001.903-1.085zm-1.864 2.827a46.53 46.53 0 00-1.396-1.346.4.4 0 00.157-.062l.124-.09.884.989 1.69 1.854c-.524-.43-.991-.893-1.459-1.345zm5.31 2.403c-.079.446-.248.916-.321 1.38-.27-.306-.563-.611-.828-.911a.164.164 0 00.085-.119c.083-.894.222-1.781.416-2.657 0 0-.034-.034-.045 0-.405.8-.627 1.68-.647 2.578-.524-.565-1.047-1.13-1.577-1.696a7.688 7.688 0 011.03-2.171c.688.526 1.459.984 2.253 1.498-.09.678-.22 1.39-.366 2.098z"/></mask><path d="M77.276 6.833a7.214 7.214 0 00-1.801-1.968c-.08-.062-.237-.197-.423-.322a.46.46 0 00-.118-.367A6.812 6.812 0 0073.3 2.694a.528.528 0 00-.625.085c-1.28 1-2.446 2.138-3.48 3.392a21.58 21.58 0 00-2.477 2.635.72.72 0 000 .95 8.041 8.041 0 00-.608 2.205c-.02.113.002.23.062.328-.05.119-.107.232-.163.35a.823.823 0 00-.068.373 56.984 56.984 0 00-5.512 5.015 60.324 60.324 0 00-5.535 5.795c-1.633 2.058-3.204 4.161-4.87 6.22a39.884 39.884 0 01-2.337 2.64c-.665.678-1.442 1.181-2.123 1.826a16.307 16.307 0 01-1.447-.95.376.376 0 00-.372-.068 3.773 3.773 0 00-.31-.226 1.302 1.302 0 00-1.687.416c-.12.176-.196.379-.221.59a.061.061 0 00-.045 0 8.972 8.972 0 00-2.607.402l-1.07-.735c-.433-.52-.856-1.04-1.272-1.566-2.664-3.393-4.403-7.605-7.647-10.494.27-1.492.654-2.973.94-4.466.277-.769.564-1.538.766-2.324.068.034.152-.056.09-.113l-.044-.045c.112-.384.213-.774.303-1.176a.209.209 0 00-.298-.227.209.209 0 00-.101.114c-.102.283-.214.565-.327.842v-.667a9.187 9.187 0 00-.203-2.001c.226.39.472.767.738 1.13.237.317.681 0 .62-.344-.17-.933-.947-1.838-1.493-2.59-.67-.921-1.39-1.809-2.089-2.708-1.238-1.605-2.815-3.482-2.72-5.653a.08.08 0 00-.056-.068.079.079 0 00-.084.028c-.715 1.447.321 3.262 1.21 4.59l-.247-.124c-.135-.056-.287.136-.203.26.969 1.369 2.28 2.347 3.046 3.896.5 1.082.756 2.261.75 3.454a18.244 18.244 0 01-1.211-1.56 10.926 10.926 0 01-.856-1.544.125.125 0 000-.152 19.164 19.164 0 01-1.819-4.026c-.034-.13-.236-.085-.203.046.277.958.644 1.888 1.098 2.775a8.63 8.63 0 001.554 3.014c.432.608.904 1.186 1.414 1.73v.384a23.514 23.514 0 01-.226 2.431c0 .063-.05.12-.073.181a6.228 6.228 0 00-1.689-3.228c-.067-.062-.191 0-.14.107a14.457 14.457 0 011.689 3.393c-.085.203-.17.401-.248.6-.265.65-.524 1.3-.772 1.95-.36-1.38-1.604-3.025-2.438-3.393-.13-.056-.214.13-.135.22.788.889 1.588 1.595 2.09 2.709.144.32.235.662.27 1.012a5.38 5.38 0 00-.4 1.13 1.253 1.253 0 01-.682.272 1.95 1.95 0 00.654-.119 1.701 1.701 0 000 .475.335.335 0 00.234.248.33.33 0 00.329-.09c.12-.123.22-.264.298-.418l.124.13c-.056.447-.102.893-.135 1.346 0 .249.354.249.383 0 .028-.249.084-.645.135-.967 2.59 2.787 4.138 6.445 6.272 9.577a37.45 37.45 0 01-5.439-5.054c-.04-.04-.101 0-.067.062a41.128 41.128 0 004.977 5.088c.495.436 1.025.9 1.588 1.352.782 1.006 1.638 1.973 2.494 2.928a.406.406 0 00-.135.17.416.416 0 00-.028.215c-.5-.422-1.036-.8-1.6-1.13a.03.03 0 00-.046.03.03.03 0 00.013.02c1.413.99 2.517 2.369 3.733 3.579a12.32 12.32 0 002.545 2.109c.726.808 1.453 1.61 2.168 2.425.85.961 1.689 1.934 2.533 2.872-.827-.633-1.689-1.238-2.522-1.854-1.774-1.3-3.615-2.556-4.944-4.342 0 0-.062 0-.045.034a19.788 19.788 0 004.308 4.29c.861.69 1.756 1.335 2.63 2.013.872.679 1.62 1.555 2.561 2.036a.135.135 0 00.152 0c1.064 1.006 2.066 1.922 3.04 2.883 1.284 1.238 2.562 2.51 3.767 3.845-.174-.17-.343-.328-.5-.492a25.768 25.768 0 00-2.14-1.911.067.067 0 00-.062 0 21.873 21.873 0 00-2.365-2.33 8.525 8.525 0 00-3.378-2.035.045.045 0 00-.022.068.045.045 0 00.022.017 8.857 8.857 0 013.378 2.318c.867.882 1.633 2.148 2.686 2.827a.118.118 0 00.163-.158c0-.04-.056-.085-.084-.125.495.447.974.91 1.43 1.391a21.818 21.818 0 001.852 2.086c.135.108.355 0 .26-.192l-.13-.21a33.65 33.65 0 012.443 3.2 15.404 15.404 0 011.87 3.851c.309 1.275.456 2.584.439 3.895a19.328 19.328 0 01-.845 2.262 4.43 4.43 0 01-1.56 1.967 3.027 3.027 0 01-2.336.311.13.13 0 000-.147c-.642-.644-1.42-1.13-2.06-1.786a14.178 14.178 0 01-1.893-2.37c-1.025-1.594-1.728-3.55-1.407-5.46 0-.057-.074-.085-.085 0-.4 1.893.203 3.782 1.092 5.444.5.92 1.115 1.77 1.83 2.533a8.898 8.898 0 001.819 1.605 9.37 9.37 0 01-1.25-.565 13.652 13.652 0 01-1.515-.956c.268.094.543.164.822.21a.09.09 0 00.085-.126.09.09 0 00-.04-.044c-4.448-1.51-6.002-6.479-8.141-10.176 1.075 2.12 1.908 4.347 3.175 6.366.085.135.175.277.27.412a57.232 57.232 0 01-2.657-2.827 71.675 71.675 0 01-2.573-3.708c-.727-1.131-1.436-2.228-2.14-3.359.22.119.445.232.676.334.096.04.152-.113.068-.164a14.56 14.56 0 01-1.087-.724 152.195 152.195 0 01-2.63-4.421 351.61 351.61 0 002.298 4.178c-4.623-3.51-6.932-9.102-10.698-13.444-1.954-2.262-3.987-4.405-5.806-6.745-.608-.86-1.227-1.742-1.869-2.601a13.136 13.136 0 01-2.252-5.772c.172 1.71.71 3.362 1.576 4.845a21.44 21.44 0 00-3.333-3.489c.208-.112.398-.255.563-.423a.312.312 0 00-.05-.487 3.22 3.22 0 00-1.853-.271c-.523-.922-1.126-1.815-1.65-2.686a.087.087 0 10-.152.085c.428.843.828 1.775 1.279 2.663l-.282.04c-.907.124-1.813.26-2.714.407a3.999 3.999 0 00-.332-1.131c-.073-.136-.265 0-.209.113.122.35.189.716.198 1.085h-.057c-.985.17-1.954.374-2.905.622a20.339 20.339 0 01-.732-2.306c0-.057-.096-.034-.085 0 .095.803.253 1.597.473 2.374-.765.215-1.525.458-2.252.74-.293-1.514-.681-3.007-.895-4.522 0-.153-.248-.096-.23.05.185 1.55.562 3.07.81 4.603l-.22.085c-.473.192-.157.944.316.825h.04c0 .09.027.175.039.266 0 .226.377.147.343-.08 0-.09-.028-.18-.04-.27a41.19 41.19 0 012.607-.566c.046.068.08.13.124.192.045.063.203 0 .175-.096l-.05-.141c.917-.17 1.835-.323 2.753-.453v.08a.108.108 0 000 .045.159.159 0 00.156.124.158.158 0 00.069-.017.345.345 0 00.13-.282c.872-.113 1.745-.21 2.623-.3.31-.028.625-.057.935-.107.13.186.264.367.405.565a.1.1 0 00.12.015.102.102 0 00.05-.111 2.61 2.61 0 00-.102-.294c2.522 2.533 4.409 5.76 6.458 8.65 1.165 1.64 2.444 3.183 3.665 4.777-3.766 2.522-6.886 6.27-9.966 9.527-2.871 3.03-5.81 5.998-8.648 9.046a15.567 15.567 0 00-3.069 4.217c-.563 1.255-.276 2.262.344 3.427a16.641 16.641 0 002.9 3.793c.563.566 1.66 1.815 2.51 1.17a.345.345 0 00.136-.395c1.56.565 3.04.865 4.583-.238a25.464 25.464 0 003.559-3.494c1.402-1.498 2.815-3.002 4.313-4.381 2.33-2.12 4.887-3.958 7.179-6.14 1.689-1.583 3.49-3.29 4.572-5.377 2.347 3.07 4.735 6.106 7.23 9.046 2.916 3.443 6.193 7.26 10.258 9.312 1.48.746 3.181 1.181 4.763.492 1.763-.77 2.776-3.037 3.069-4.817.076-.576.11-1.156.101-1.736.445-2.352-1.008-5.088-2.167-6.982-1.92-3.087-4.505-5.739-7.106-8.26-1.244-1.182-2.478-2.347-3.722-3.528-1.357-1.29-2.573-2.658-3.812-4.071l-.9-1.018a6.066 6.066 0 00.264-1.532c.094-.801.109-1.61.045-2.414l.304.204c1.166.802 2.742-.786 1.948-1.957a8.513 8.513 0 00-.929-1.13c1.436-.786 2.67-2.494 3.62-3.63 1.746-2.08 3.345-4.28 5-6.44a60.14 60.14 0 015.507-6.111 92.403 92.403 0 003.71-3.879c.49-.458.975-.91 1.47-1.362a12.094 12.094 0 003.745-.701c.827-.289 2.128-.667 2.398-1.6 1.616-.99 2.95-2.72 3.942-4.173a.623.623 0 00.112-.282.606.606 0 00.484-.616.612.612 0 00-.073-.272zM28.443 21.499c0-.08.05-.159.073-.238l-.034.238h-.04zm6.458 26.51a182.56 182.56 0 00-3.204-4.133c-.732-.922-1.47-1.843-2.196-2.765.563.628 1.126 1.25 1.655 1.877a47.743 47.743 0 013.745 5.02zM18.837 71.664c-.766.757-1.644 1.611-2.815 1.572a3.298 3.298 0 01-.462-.051 52.865 52.865 0 004.55-3.523 160.848 160.848 0 003.518-2.979c-1.599 1.64-3.141 3.353-4.791 4.98zm9.307-9.046c3.097-2.906 6.047-5.948 8.919-9.086a.113.113 0 00-.082-.18.113.113 0 00-.076.022 384.506 384.506 0 01-10.838 10.313 149.534 149.534 0 01-5.66 4.93c-1.795 1.498-3.738 2.826-5.472 4.404-.76-.226-1.526-.566-2.219-.826a.526.526 0 00-.563.12 6.488 6.488 0 01-.444-.436 14.806 14.806 0 01-2.545-3.607c-.637-1.312.157-2.426.929-3.5a34.135 34.135 0 013.513-3.878c2.658-2.691 5.158-5.541 7.72-8.311 2.815-3.048 5.917-5.903 8.631-9.046l1.002 1.362c-2.055 2.827-4.91 5.14-6.61 8.204a.182.182 0 00.053.224.18.18 0 00.229-.01 50.422 50.422 0 006.407-8.339c1.126 1.544 2.292 3.093 3.446 4.63.552.755 1.104 1.49 1.655 2.206-3.44 3.002-7.015 5.868-10.467 8.837-1.689 1.464-3.378 2.945-4.988 4.472-1.61 1.526-3.289 2.962-4.505 4.76-.107.158.119.294.242.192 1.69-1.362 3.125-3.03 4.702-4.523 1.576-1.492 3.294-3.019 4.972-4.483 3.429-2.997 6.852-5.987 10.135-9.153.512.684 1.03 1.362 1.542 2.04-2.736 3.314-6.295 5.948-9.628 8.668v-.006zm12.247-7.35c.707.71 1.497 1.33 2.353 1.849a86.72 86.72 0 002.365 3.907c.23.356.473.706.71 1.057l-.113-.13a302.601 302.601 0 01-5.315-6.666v-.017zm33.85-49.6h-.078l-.085-.045c.026-.034.05-.07.073-.107l.09.152zm-4.662 6.36l.09.04c.164.044.332.07.502.08l-1.076.209c.152-.085.327-.193.484-.306v-.022zM43.623 37.16a5.885 5.885 0 00-1.2 1.95c-.264-.293-.53-.564-.8-.87.198-.333.35-.695.53-1.034.18-.34.343-.611.563-.905.276.313.58.6.907.86zm-2.072-2.776H41.5a.067.067 0 00.05 0zm-2.292 1.25l.45-.108h.057l-.355.26-.152-.152zm2.894 0c.122.186.258.364.405.531a7.685 7.685 0 00-.428.566c-.298.367-.57.757-.81 1.164-.36-.39-.715-.78-1.07-1.176a11.008 11.008 0 001.903-1.085zm-1.864 2.827a46.53 46.53 0 00-1.396-1.346.4.4 0 00.157-.062l.124-.09.884.989 1.69 1.854c-.524-.43-.991-.893-1.459-1.345zm5.31 2.403c-.079.446-.248.916-.321 1.38-.27-.306-.563-.611-.828-.911a.164.164 0 00.085-.119c.083-.894.222-1.781.416-2.657 0 0-.034-.034-.045 0-.405.8-.627 1.68-.647 2.578-.524-.565-1.047-1.13-1.577-1.696a7.688 7.688 0 011.03-2.171c.688.526 1.459.984 2.253 1.498-.09.678-.22 1.39-.366 2.098z" fill="#543018" stroke="#543018" stroke-width="2" mask="url(#k)"/><mask id="l" fill="#fff"><path d="M13.162 74.683c-.76 0-1.543-.808-2.01-1.289l-.13-.13A16.59 16.59 0 018.09 69.42c-.63-1.193-.935-2.262-.35-3.607a15.903 15.903 0 013.103-4.28c1.656-1.776 3.379-3.55 5.023-5.264 1.21-1.26 2.427-2.521 3.626-3.788.563-.616 1.171-1.255 1.762-1.894 2.489-2.697 5.068-5.49 8.058-7.542a73.26 73.26 0 00-1.127-1.413c-.816-1.03-1.655-2.098-2.432-3.189a104.168 104.168 0 01-1.582-2.318 46.398 46.398 0 00-4.47-5.92.398.398 0 01-.08.057.297.297 0 01-.383-.068 6.826 6.826 0 01-.337-.44l-.687.073h-.13c-.675.068-1.56.158-2.466.271a.446.446 0 01-.197.277.36.36 0 01-.321 0 .384.384 0 01-.203-.198c-.765.108-1.548.238-2.33.385a.33.33 0 01-.175.277.297.297 0 01-.383-.085.403.403 0 01-.056-.08c-.727.148-1.487.317-2.253.51v.079a.392.392 0 01-.33.495.41.41 0 01-.21-.026.333.333 0 01-.209-.288v-.068a.674.674 0 01-.563-.475.567.567 0 01.333-.758l.062-.028c-.09-.509-.192-1.023-.288-1.532-.185-.95-.377-1.928-.495-2.906a.34.34 0 01.42-.373.302.302 0 01.227.266 32.7 32.7 0 00.563 2.86c.102.47.203.945.299 1.42a27.29 27.29 0 011.852-.606 15.87 15.87 0 01-.4-2.052v-.147a.26.26 0 01.203-.294.264.264 0 01.299.198c.175.712.395 1.413.659 2.098a38.968 38.968 0 012.6-.566 2.838 2.838 0 00-.162-.825.33.33 0 01.163-.436.314.314 0 01.422.136c.156.317.262.657.315 1.006.834-.135 1.69-.26 2.506-.378-.186-.374-.36-.752-.535-1.131a36.637 36.637 0 00-.614-1.272.304.304 0 01.121-.41.3.3 0 01.409.122c.225.39.478.785.732 1.187.253.401.563.916.85 1.385a3.332 3.332 0 011.83.3.518.518 0 01.259.39.517.517 0 01-.164.446c-.133.121-.28.226-.439.311a19.85 19.85 0 012 1.98 10.777 10.777 0 01-.851-3.393v-.21l.433-.039.029.226a12.802 12.802 0 002.224 5.654c.506.684 1.008 1.396 1.503 2.092l.355.503c1.323 1.696 2.787 3.341 4.2 4.93l1.594 1.798a52.305 52.305 0 013.94 5.41c1.668 2.635 3.453 5.287 5.817 7.356a210.51 210.51 0 01-1.655-3.02l-.107-.197.371-.21c.8 1.414 1.69 2.89 2.602 4.383.343.248.698.48 1.041.69a.305.305 0 01.108.4.282.282 0 01-.372.136c.602.961 1.177 1.86 1.74 2.72.856 1.306 1.689 2.55 2.567 3.703.473.531.93 1.029 1.374 1.498-.524-.967-.985-1.973-1.436-2.951-.343-.752-.698-1.532-1.08-2.262l-.096-.186.371-.215.118.187a53.96 53.96 0 011.29 2.436c1.537 3.03 3.12 6.157 6.193 7.469a12.514 12.514 0 01-1.48-2.148c-1.093-2.036-1.464-3.913-1.127-5.586a.254.254 0 01.293-.198.264.264 0 01.209.3c-.35 2.074.563 4.036 1.379 5.314.538.84 1.16 1.623 1.858 2.335.324.312.664.606 1.02.882.365.281.715.583 1.047.904a.323.323 0 01.073.12 2.767 2.767 0 002.021-.312 4.198 4.198 0 001.48-1.877c.317-.717.591-1.45.823-2.2v-.52a13.054 13.054 0 00-.411-3.307 14.848 14.848 0 00-1.847-3.799 31.77 31.77 0 00-2.038-2.821.387.387 0 01-.473 0 8.368 8.368 0 01-1.216-1.3 12.23 12.23 0 00-.682-.809 19.47 19.47 0 00-1.126-1.091.314.314 0 01-.36 0 8.133 8.133 0 01-1.858-1.826 13.01 13.01 0 00-.873-1.001 8.797 8.797 0 00-3.305-2.261.248.248 0 01-.158-.323.242.242 0 01.31-.164c.76.227 1.48.572 2.134 1.024l-.524-.504a.353.353 0 01-.202-.04 8.488 8.488 0 01-1.729-1.316c-.293-.266-.563-.515-.861-.736l-1.048-.797c-.563-.401-1.064-.803-1.587-1.22a19.933 19.933 0 01-4.347-4.337l-.113-.175.175-.159a.242.242 0 01.332.057c1.194 1.6 2.815 2.798 4.431 3.957l1.126.815.225.163-.304-.35-.872-.995c-.71-.803-1.425-1.602-2.146-2.397a12.566 12.566 0 01-2.494-2.064l-.062-.062c-.349-.35-.692-.712-1.036-1.074a18.191 18.191 0 00-2.669-2.482l-.169-.119.102-.21a.236.236 0 01.32-.084c.481.28.939.598 1.369.95-.788-.882-1.616-1.832-2.376-2.827-.507-.401-1.014-.842-1.51-1.272l-.01-.017a41.403 41.403 0 01-5-5.088.261.261 0 01.216-.408c.064 0 .125.025.172.068a36.907 36.907 0 004.398 4.224c-.518-.826-1.008-1.696-1.487-2.5a34.495 34.495 0 00-3.761-5.653c0 .17-.045.34-.062.514a.425.425 0 01-.456.368.377.377 0 01-.35-.418c0-.289.046-.566.085-.905a.563.563 0 01-.523.124.561.561 0 01-.366-.39 1.489 1.489 0 01-.04-.237c-.143.03-.288.046-.433.05h-.226l-.045-.418.209-.04c.185-.016.363-.078.518-.18.087-.368.212-.726.371-1.069a2.96 2.96 0 00-.242-.882 7.691 7.691 0 00-1.548-2.108 8.464 8.464 0 01-.507-.566.357.357 0 010-.447.315.315 0 01.389-.107c.805.35 1.863 1.696 2.364 2.963.186-.47.372-.939.563-1.408l.192-.464v-.068a10.702 10.702 0 00-1.25-2.55c-.135-.231-.276-.463-.411-.7a.29.29 0 01.067-.374.298.298 0 01.395 0 5.905 5.905 0 011.486 2.448c.073-.604.118-1.13.135-1.696v-.3c-.5-.528-.96-1.095-1.374-1.695l-.033-.051a8.628 8.628 0 01-1.555-3.014 15.304 15.304 0 01-1.097-2.787.306.306 0 01.214-.379h.05a.35.35 0 01.062-.107.378.378 0 01.158-.125c-.84-1.328-1.594-2.98-.912-4.353a.276.276 0 01.32-.141.281.281 0 01.215.288c-.085 1.94 1.26 3.67 2.443 5.19l.237.305.653.837c.478.61.974 1.238 1.436 1.877l.264.356a5.977 5.977 0 011.267 2.318.642.642 0 01-.377.679.494.494 0 01-.62-.17 3.181 3.181 0 01-.202-.277c0 .204.034.407.04.61a.427.427 0 01.421-.107.417.417 0 01.288.498 22.73 22.73 0 01-.276 1.08.272.272 0 01-.102.396c-.242.82-.518 1.605-.737 2.21a49.972 49.972 0 01-.417 1.973c-.169.77-.343 1.56-.49 2.34 1.971 1.788 3.407 4.094 4.798 6.322a45.35 45.35 0 002.77 4.144c.41.52.828 1.035 1.25 1.538.32.215.647.418.974.622a9.056 9.056 0 012.438-.38 1.484 1.484 0 01.8-.983 1.352 1.352 0 011.407 0l.242.17a.646.646 0 01.456.13c.36.27.736.517 1.126.74l.192.113c.276-.254.563-.491.856-.718.394-.306.77-.637 1.126-.989a39.57 39.57 0 002.325-2.629c.98-1.193 1.943-2.437 2.872-3.64.664-.855 1.323-1.697 1.999-2.55a56.369 56.369 0 015.247-5.524l.304-.294c.355-.34.715-.696 1.081-1.058a42.974 42.974 0 014.37-3.912.97.97 0 01.084-.356c.034-.074.073-.153.107-.232a.772.772 0 01-.034-.362 8.169 8.169 0 01.563-2.148.919.919 0 01.068-1.131 21.662 21.662 0 012.5-2.657 22.466 22.466 0 013.49-3.392.73.73 0 01.874-.09c.64.411 1.21.925 1.689 1.52a.76.76 0 01.169.396c.112.079.214.164.281.22l.056.045a7.101 7.101 0 011.853 2.024.77.77 0 01.062.673.892.892 0 01-.44.47.887.887 0 01-.123.254c-.98 1.413-2.314 3.155-3.942 4.184-.32.921-1.48 1.317-2.33 1.605l-.175.057a12.088 12.088 0 01-3.745.712l-1.401 1.312a108.114 108.114 0 01-3.711 3.873 59.876 59.876 0 00-5.49 6.089c-.439.565-.878 1.13-1.312 1.735-1.182 1.566-2.41 3.183-3.688 4.71l-.478.565a13.543 13.543 0 01-2.968 2.957c.28.303.535.626.766.967a1.656 1.656 0 01-.264 1.942 1.642 1.642 0 01-1.926.32c.03.677.006 1.356-.073 2.03 0 .107 0 .225-.034.338a4.96 4.96 0 01-.197 1.131c.276.305.563.616.816.922 1.29 1.475 2.466 2.793 3.8 4.059l1.127 1.04c.878.831 1.757 1.657 2.624 2.5 2.54 2.476 5.18 5.155 7.134 8.299 1.835 2.94 2.55 5.275 2.201 7.135.012.578-.022 1.157-.101 1.73-.293 1.78-1.306 4.155-3.193 4.975-1.402.616-3.068.447-4.943-.492-4.167-2.092-7.438-5.959-10.321-9.368-2.15-2.544-4.398-5.348-7.038-8.803-1.126 1.962-2.85 3.619-4.403 5.089l-.062.062c-1.245 1.176-2.59 2.261-3.89 3.347-1.093.893-2.225 1.82-3.29 2.787-1.424 1.295-2.758 2.725-4.053 4.11l-.248.26-.614.673a20.074 20.074 0 01-2.967 2.827c-1.565 1.13-3.08.82-4.504.35a.644.644 0 01-.209.278 1.05 1.05 0 01-.698.265zm5.8-45.834l.68.684a43.372 43.372 0 014.9 6.371c.523.78 1.047 1.555 1.576 2.307.771 1.086 1.61 2.149 2.421 3.178.417.531.833 1.057 1.244 1.594l.136.18-.186.125c-3.035 2.036-5.63 4.868-8.176 7.605-.585.644-1.17 1.275-1.756 1.893-1.205 1.273-2.422 2.533-3.632 3.794a279.917 279.917 0 00-5.017 5.258 15.602 15.602 0 00-3.03 4.161c-.517 1.193-.253 2.12.339 3.24a16.04 16.04 0 002.866 3.709l.13.135c.703.73 1.508 1.47 2.1 1.018 0 0 .095-.08.067-.153l-.158-.424.423.147c1.458.503 2.894.865 4.391-.203a19.791 19.791 0 002.906-2.77c.202-.227.41-.453.619-.673l.242-.266c1.3-1.385 2.64-2.827 4.082-4.127 1.07-.973 2.207-1.906 3.305-2.827 1.295-1.057 2.635-2.154 3.869-3.325l.062-.056c1.689-1.578 3.378-3.206 4.442-5.207-2.252 2.697-5.068 4.97-7.826 7.163l-1.69 1.374-.276-.317a162.504 162.504 0 005.8-5.755 310.754 310.754 0 01-7.59 7.135 176.575 176.575 0 01-5.67 4.935c-.743.617-1.52 1.216-2.252 1.798-1.07.832-2.18 1.697-3.198 2.601l-.085.08-.112-.035c-.45-.13-.896-.31-1.324-.48a20.28 20.28 0 00-.906-.345.314.314 0 00-.344.068l-.14.141-.152-.136a6.803 6.803 0 01-.456-.446A14.583 14.583 0 019 68.368c-.698-1.425.175-2.64.94-3.714a29.817 29.817 0 013.052-3.393l.49-.486c1.83-1.86 3.615-3.822 5.343-5.716a394.93 394.93 0 012.37-2.595c1.166-1.255 2.394-2.499 3.582-3.703 1.69-1.696 3.452-3.494 5.067-5.331l.17-.198.157.203 1.03 1.363.09.124c.563.747 1.127 1.498 1.69 2.262l1.74 2.34 1.593 2.12.146.193 1.543 2.035.05.068.203.266c2.726 3.567 5.023 6.44 7.224 9.045 2.86 3.393 6.104 7.215 10.186 9.267 1.762.882 3.305 1.046 4.589.486 1.622-.707 2.646-2.827 2.945-4.659a10.8 10.8 0 00.096-1.696c.337-1.792-.36-4.025-2.134-6.869-1.932-3.104-4.556-5.761-7.078-8.22-.862-.843-1.734-1.697-2.613-2.494l-1.126-1.046c-1.345-1.272-2.528-2.606-3.823-4.082-.27-.31-.563-.616-.816-.921l-.175-.192.05-.125c.129-.364.201-.745.215-1.13 0-.12 0-.238.04-.357.039-.118 0-.13 0-.197-.04.186-.09.367-.136.565-.072.243-.13.49-.175.74l-.062.447-.303-.334-.755-.83-.293-.317a98.954 98.954 0 00-1.57-1.696l-1.178-1.284-.202-.22-1.07-1.182-.191-.215.259-.118a10.376 10.376 0 001.869-1.092l.175-.13.123.187c.12.179.25.35.389.514l.13.148c.265.288.553.554.86.797l.142.107c.484.368.996.695 1.537 1.046l.41.266.665.44a1.123 1.123 0 001.442-.208 1.132 1.132 0 00.214-1.453c-.27-.4-.572-.779-.901-1.131l-.197-.198.247-.136c1.166-.639 2.253-1.939 3.069-2.99l.484-.566c1.278-1.52 2.494-3.138 3.677-4.698l1.317-1.736a61.42 61.42 0 015.552-6.18c1.526-1.515 2.67-2.707 3.705-3.867l1.48-1.379.063-.056h.084a11.537 11.537 0 003.677-.673l.175-.057c.788-.271 1.869-.633 2.088-1.402v-.08l.068-.039c1.605-.983 2.928-2.713 3.902-4.11a.477.477 0 00.073-.186v-.136l.13-.04a.489.489 0 00.298-.271.33.33 0 00-.034-.305 6.633 6.633 0 00-1.75-1.911L75.266 5c-.084-.067-.208-.17-.35-.271l-.117-.08.028-.135a.267.267 0 00-.073-.192 6.71 6.71 0 00-1.566-1.447.33.33 0 00-.383.067 21.886 21.886 0 00-3.445 3.336 22.02 22.02 0 00-2.478 2.63.516.516 0 000 .683l.085.102-.051.119a7.774 7.774 0 00-.597 2.143.244.244 0 00.034.186l.062.102-.209.452a.676.676 0 00-.056.277v.113l-.09.068a42.228 42.228 0 00-4.403 3.958 86.86 86.86 0 01-1.087 1.057l-.304.3a56.026 56.026 0 00-5.208 5.472 206.55 206.55 0 00-1.993 2.55c-.935 1.204-1.898 2.454-2.883 3.652a49.08 49.08 0 01-2.331 2.663c-.367.37-.758.713-1.171 1.03-.321.254-.648.52-.952.802l-.118.113-.462-.282a12.298 12.298 0 01-1.126-.77.18.18 0 00-.174-.033l-.107.034-.085-.068-.31-.26a.96.96 0 00-.98 0 1.032 1.032 0 00-.596.842v.057l.062.316h-.31v-.152h-.034c-.85.01-1.693.143-2.505.395l-.09.029-.08-.051a35.358 35.358 0 01-1.086-.696l-.05-.04c-.434-.52-.862-1.04-1.279-1.571a46.68 46.68 0 01-2.815-4.155c-1.39-2.262-2.815-4.523-4.803-6.31l-.09-.08v-.118c.147-.825.332-1.662.512-2.47.147-.668.293-1.33.423-1.996.208-.679.518-1.527.771-2.37l.056-.191c.108-.374.203-.747.288-1.131-.096.288-.209.565-.321.854l-.473 1.192.067-1.283v-.656a9.117 9.117 0 00-.18-1.95l-.27-1.272.659 1.13a11.039 11.039 0 00.746 1.157.078.078 0 00.093.008.22.22 0 00.13-.21 5.66 5.66 0 00-1.189-2.142l-.265-.356a68.123 68.123 0 00-1.43-1.871c-.22-.277-.439-.566-.653-.837l-.236-.306c-1.053-1.35-2.253-2.855-2.483-4.573-.068 1.159.686 2.47 1.407 3.545l.45.667-.714-.362-.119-.051c.36.486.766.927 1.16 1.362a10.63 10.63 0 011.813 2.437c.52 1.11.784 2.324.772 3.55v.675a24.295 24.295 0 01-.231 2.46l-.045.124-.13.306-.09.203-.186.458c-.264.65-.523 1.295-.771 1.95l-.23.611c-.16.32-.284.655-.372 1v.16c-.012.136-.002.273.028.406a.102.102 0 00.078.08.122.122 0 00.113 0c.105-.105.192-.225.26-.357l.044-.09.102-.249.067-.22.411.084-.073.498-.208-.074.197.198v.108c0 .141-.04.282-.057.424v-.096l.068-.425.298.317a32.554 32.554 0 014.088 6.021c.687 1.193 1.402 2.426 2.18 3.562l.737 1.091-.991-.763c.405.356.827.718 1.267 1.074A56.237 56.237 0 0038.78 36.2l.152.17-.18.135a.197.197 0 00-.084.198v.226l.163-.034a.237.237 0 00.079-.034l.123-.08.153-.107.287.317c.242.271.484.565.72.808l1.69 1.85-.276.288a8.737 8.737 0 001.599 1.198l.056.045c.726.809 1.453 1.612 2.168 2.426l.873 1c.563.628 1.126 1.256 1.689 1.872l-.288.31c-.608-.468-1.233-.92-1.858-1.373l-.304-.22.766.616 1.053.797c.298.232.597.503.884.763a8.56 8.56 0 001.605 1.233l.107-.09 1.086 1.034 2.044 1.956c1.059 1.023 2.45 2.392 3.767 3.856l-.281.271.067.09c.298.39.624.756.974 1.098l.316-.238a34.015 34.015 0 012.455 3.28 15.413 15.413 0 011.897 3.906 13.58 13.58 0 01.428 3.392l.034.566c-.24.779-.526 1.544-.856 2.29a4.564 4.564 0 01-1.639 2.057 3.247 3.247 0 01-2.494.34l-.248-.057.08-.187a11.156 11.156 0 00-.964-.83c-.315-.25-.63-.51-.929-.792.44.486.942.911 1.492 1.266l-.18.379a8.567 8.567 0 01-1.278-.565 14.52 14.52 0 01-1.56-.939l-1.21-.86.563.199a10.188 10.188 0 01-3.012-2.923l-.231.192c-.845-.843-1.69-1.77-2.664-2.827a79.286 79.286 0 01-1.74-2.454l-.225.17-.107-.13c-1.65-1.973-3.378-4.15-5.326-6.654l.315-.26a41.085 41.085 0 01-5.067-6.604l-.411-.61-.299.209-.04-.057a155.83 155.83 0 00-3.102-4.003l-.833-1.051c-.479-.566-.952-1.193-1.424-1.793l.264-.22c-1.317-1.481-2.663-3.008-3.896-4.591l-.36-.509c-.489-.7-.992-1.4-1.51-2.097a21.074 21.074 0 01-.596-.99l-.102.068a21.492 21.492 0 00-3.333-3.477l-.276-.22.327-.142c.232-.09.448-.22.636-.384a.09.09 0 000-.08.068.068 0 00-.034-.062 2.98 2.98 0 00-1.711-.243h-.136l-.056-.085c-.152-.27-.315-.565-.479-.802.107.22.214.44.327.661l.135.266-.563.08a107.4 107.4 0 00-2.708.406h-.107l.118.905h.163c.963-.125 1.915-.22 2.63-.294h.135c.265-.029.53-.057.794-.096h.13l.027.04-.213-.515zm-6.442 43.11c.09 0 .18.016.265.044.298.102.614.227.929.35.315.125.777.318 1.171.436 1.002-.893 2.083-1.73 3.13-2.538a60.088 60.088 0 002.253-1.787c1.96-1.64 3.862-3.296 5.63-4.924a360.55 360.55 0 0010.834-10.313.415.415 0 01.123-.079l-.686-.904c-3.154 3.058-6.52 6.004-9.786 8.83l-.152.137a172.919 172.919 0 00-4.972 4.477 77.247 77.247 0 01-1.69 1.662 37.525 37.525 0 01-3.04 2.867.393.393 0 01-.507 0 .345.345 0 01-.05-.458 26.177 26.177 0 013.941-4.252l.563-.565a179.47 179.47 0 014.995-4.478 307.1 307.1 0 015.067-4.263 240.07 240.07 0 005.265-4.444l-1.464-1.99-1.74-2.34-1.52-2.041a50.672 50.672 0 01-6.25 8.107.371.371 0 01-.507.045.39.39 0 01-.113-.508 26.797 26.797 0 013.806-4.959 41.73 41.73 0 002.703-3.183c-.259-.345-.518-.684-.771-1.029-1.554 1.787-3.25 3.5-4.893 5.162a171.421 171.421 0 00-3.57 3.692 246.5 246.5 0 00-2.348 2.606c-1.728 1.9-3.519 3.867-5.354 5.727l-.49.492a28.845 28.845 0 00-3.007 3.393c-.766 1.068-1.492 2.08-.907 3.279a14.281 14.281 0 002.816 3.867.685.685 0 01.326-.119zm42.742-1.03l.315.187-.236-.243a.282.282 0 01-.08.056zM31.456 56.06l-.597.492c-1.69 1.385-3.378 2.827-5.068 4.257a189.159 189.159 0 00-4.983 4.466l-.563.566a27.177 27.177 0 00-3.699 3.907c.94-.82 1.858-1.753 2.748-2.658l1.689-1.696c1.69-1.594 3.378-3.098 4.983-4.523l.152-.135a237.364 237.364 0 005.338-4.676zm5.8-2.425l-.035.05a189.343 189.343 0 01-5.568 5.835 43.021 43.021 0 005.844-5.563l-.242-.322zm4.504 3.092c.657.848 1.298 1.659 1.925 2.431-.354-.565-.726-1.221-1.126-1.905a8.994 8.994 0 01-.777-.526h-.022zm10.81-4.811l.068.079c.406.53.862 1.018 1.362 1.459l-.084-.136-.096-.113c-.382-.462-.8-.893-1.25-1.29zm-23.383-4.523c-.286.324-.573.64-.862.95a28.067 28.067 0 00-3.637 4.607 49.798 49.798 0 004.499-5.529v-.028zm15.551-6.078l.428.475c0-.124.062-.249.096-.373a5.66 5.66 0 00.14-.566 26.56 26.56 0 00.327-1.99l-.563-.35v.124c-.16.688-.274 1.384-.343 2.087l-.068.53-.017.063zm-1.802-1.962l1.127 1.238a7.558 7.558 0 01.624-2.063l.102-.243h.118c-.4-.26-.782-.51-1.126-.78a7.933 7.933 0 00-.845 1.848zm-1.053-1.142l.473.51a6.128 6.128 0 01.958-1.539 4.706 4.706 0 01-.563-.537c-.13.21-.254.424-.383.662-.08.141-.147.288-.22.44-.073.153-.18.312-.265.464zm-.225-.446a2.501 2.501 0 00-.135.237l-.135.255.073-.125a2.97 2.97 0 01.197-.367zm-1.041-.973c.225.255.45.503.68.752.181-.3.395-.565.564-.848l.096-.124c.101-.142.214-.283.32-.419-.061-.079-.123-.158-.18-.243a11.3 11.3 0 01-1.497.882h.017zM9.209 30.381l-.365.141a.174.174 0 00-.106.165.192.192 0 00.015.067c.034.096.136.226.27.187l.232-.057.157-.04a34.776 34.776 0 012.618-.565h.243c.895-.175 1.79-.322 2.657-.44l.208-.99h-.084v-.029l-.14.029-.09-.198.033.209c-1.02.175-1.965.373-2.883.616l-.343.09a26.95 26.95 0 00-2.253.736l-.169.079zm16.982-13.315l.406.447a5.341 5.341 0 00-.406-.447zm1.47-6.479c.226.494.492.968.794 1.42.242.356.512.712.8 1.068a7.374 7.374 0 00-.705-2.753 10.31 10.31 0 00-1.75-2.341 23.172 23.172 0 01-.682-.763 23.613 23.613 0 001.515 3.11.355.355 0 01.028.26zm-.614-.44c.05.112.113.225.169.338l-.169-.339zm-10.918 63.32h-.09a3.61 3.61 0 01-.49-.05l-.534-.09.456-.295c1.3-.9 2.55-1.872 3.744-2.911l.783-.645c1.126-.904 2.252-1.877 3.513-2.98l.293.312c-.72.729-1.425 1.47-2.128 2.21a123.1 123.1 0 01-2.686 2.776c-.738.752-1.65 1.657-2.86 1.657v.017zm4.505-3.929l-.372.306-.782.644c-1.048.87-2.134 1.764-3.272 2.55.997-.034 1.785-.814 2.483-1.51.66-.667 1.307-1.34 1.943-2.007v.017zm18.772-33.48l-.507-.566.332-.085.457-.107h.05l.462.135-.434.373-.36.25zm28.66-23.26l.912-.594c.163-.107.326-.215.484-.328l.101-.067.13.062c.16.047.323.076.49.085l1.745.096-1.717.322-.788.158-1.358.266zm6.137-6.83l-.147-.05h-.061l-.243-.136.395-.566.416.537-.36.215z"/></mask><path d="M13.162 74.683c-.76 0-1.543-.808-2.01-1.289l-.13-.13A16.59 16.59 0 018.09 69.42c-.63-1.193-.935-2.262-.35-3.607a15.903 15.903 0 013.103-4.28c1.656-1.776 3.379-3.55 5.023-5.264 1.21-1.26 2.427-2.521 3.626-3.788.563-.616 1.171-1.255 1.762-1.894 2.489-2.697 5.068-5.49 8.058-7.542a73.26 73.26 0 00-1.127-1.413c-.816-1.03-1.655-2.098-2.432-3.189a104.168 104.168 0 01-1.582-2.318 46.398 46.398 0 00-4.47-5.92.398.398 0 01-.08.057.297.297 0 01-.383-.068 6.826 6.826 0 01-.337-.44l-.687.073h-.13c-.675.068-1.56.158-2.466.271a.446.446 0 01-.197.277.36.36 0 01-.321 0 .384.384 0 01-.203-.198c-.765.108-1.548.238-2.33.385a.33.33 0 01-.175.277.297.297 0 01-.383-.085.403.403 0 01-.056-.08c-.727.148-1.487.317-2.253.51v.079a.392.392 0 01-.33.495.41.41 0 01-.21-.026.333.333 0 01-.209-.288v-.068a.674.674 0 01-.563-.475.567.567 0 01.333-.758l.062-.028c-.09-.509-.192-1.023-.288-1.532-.185-.95-.377-1.928-.495-2.906a.34.34 0 01.42-.373.302.302 0 01.227.266 32.7 32.7 0 00.563 2.86c.102.47.203.945.299 1.42a27.29 27.29 0 011.852-.606 15.87 15.87 0 01-.4-2.052v-.147a.26.26 0 01.203-.294.264.264 0 01.299.198c.175.712.395 1.413.659 2.098a38.968 38.968 0 012.6-.566 2.838 2.838 0 00-.162-.825.33.33 0 01.163-.436.314.314 0 01.422.136c.156.317.262.657.315 1.006.834-.135 1.69-.26 2.506-.378-.186-.374-.36-.752-.535-1.131a36.637 36.637 0 00-.614-1.272.304.304 0 01.121-.41.3.3 0 01.409.122c.225.39.478.785.732 1.187.253.401.563.916.85 1.385a3.332 3.332 0 011.83.3.518.518 0 01.259.39.517.517 0 01-.164.446c-.133.121-.28.226-.439.311a19.85 19.85 0 012 1.98 10.777 10.777 0 01-.851-3.393v-.21l.433-.039.029.226a12.802 12.802 0 002.224 5.654c.506.684 1.008 1.396 1.503 2.092l.355.503c1.323 1.696 2.787 3.341 4.2 4.93l1.594 1.798a52.305 52.305 0 013.94 5.41c1.668 2.635 3.453 5.287 5.817 7.356a210.51 210.51 0 01-1.655-3.02l-.107-.197.371-.21c.8 1.414 1.69 2.89 2.602 4.383.343.248.698.48 1.041.69a.305.305 0 01.108.4.282.282 0 01-.372.136c.602.961 1.177 1.86 1.74 2.72.856 1.306 1.689 2.55 2.567 3.703.473.531.93 1.029 1.374 1.498-.524-.967-.985-1.973-1.436-2.951-.343-.752-.698-1.532-1.08-2.262l-.096-.186.371-.215.118.187a53.96 53.96 0 011.29 2.436c1.537 3.03 3.12 6.157 6.193 7.469a12.514 12.514 0 01-1.48-2.148c-1.093-2.036-1.464-3.913-1.127-5.586a.254.254 0 01.293-.198.264.264 0 01.209.3c-.35 2.074.563 4.036 1.379 5.314.538.84 1.16 1.623 1.858 2.335.324.312.664.606 1.02.882.365.281.715.583 1.047.904a.323.323 0 01.073.12 2.767 2.767 0 002.021-.312 4.198 4.198 0 001.48-1.877c.317-.717.591-1.45.823-2.2v-.52a13.054 13.054 0 00-.411-3.307 14.848 14.848 0 00-1.847-3.799 31.77 31.77 0 00-2.038-2.821.387.387 0 01-.473 0 8.368 8.368 0 01-1.216-1.3 12.23 12.23 0 00-.682-.809 19.47 19.47 0 00-1.126-1.091.314.314 0 01-.36 0 8.133 8.133 0 01-1.858-1.826 13.01 13.01 0 00-.873-1.001 8.797 8.797 0 00-3.305-2.261.248.248 0 01-.158-.323.242.242 0 01.31-.164c.76.227 1.48.572 2.134 1.024l-.524-.504a.353.353 0 01-.202-.04 8.488 8.488 0 01-1.729-1.316c-.293-.266-.563-.515-.861-.736l-1.048-.797c-.563-.401-1.064-.803-1.587-1.22a19.933 19.933 0 01-4.347-4.337l-.113-.175.175-.159a.242.242 0 01.332.057c1.194 1.6 2.815 2.798 4.431 3.957l1.126.815.225.163-.304-.35-.872-.995c-.71-.803-1.425-1.602-2.146-2.397a12.566 12.566 0 01-2.494-2.064l-.062-.062c-.349-.35-.692-.712-1.036-1.074a18.191 18.191 0 00-2.669-2.482l-.169-.119.102-.21a.236.236 0 01.32-.084c.481.28.939.598 1.369.95-.788-.882-1.616-1.832-2.376-2.827-.507-.401-1.014-.842-1.51-1.272l-.01-.017a41.403 41.403 0 01-5-5.088.261.261 0 01.216-.408c.064 0 .125.025.172.068a36.907 36.907 0 004.398 4.224c-.518-.826-1.008-1.696-1.487-2.5a34.495 34.495 0 00-3.761-5.653c0 .17-.045.34-.062.514a.425.425 0 01-.456.368.377.377 0 01-.35-.418c0-.289.046-.566.085-.905a.563.563 0 01-.523.124.561.561 0 01-.366-.39 1.489 1.489 0 01-.04-.237c-.143.03-.288.046-.433.05h-.226l-.045-.418.209-.04c.185-.016.363-.078.518-.18.087-.368.212-.726.371-1.069a2.96 2.96 0 00-.242-.882 7.691 7.691 0 00-1.548-2.108 8.464 8.464 0 01-.507-.566.357.357 0 010-.447.315.315 0 01.389-.107c.805.35 1.863 1.696 2.364 2.963.186-.47.372-.939.563-1.408l.192-.464v-.068a10.702 10.702 0 00-1.25-2.55c-.135-.231-.276-.463-.411-.7a.29.29 0 01.067-.374.298.298 0 01.395 0 5.905 5.905 0 011.486 2.448c.073-.604.118-1.13.135-1.696v-.3c-.5-.528-.96-1.095-1.374-1.695l-.033-.051a8.628 8.628 0 01-1.555-3.014 15.304 15.304 0 01-1.097-2.787.306.306 0 01.214-.379h.05a.35.35 0 01.062-.107.378.378 0 01.158-.125c-.84-1.328-1.594-2.98-.912-4.353a.276.276 0 01.32-.141.281.281 0 01.215.288c-.085 1.94 1.26 3.67 2.443 5.19l.237.305.653.837c.478.61.974 1.238 1.436 1.877l.264.356a5.977 5.977 0 011.267 2.318.642.642 0 01-.377.679.494.494 0 01-.62-.17 3.181 3.181 0 01-.202-.277c0 .204.034.407.04.61a.427.427 0 01.421-.107.417.417 0 01.288.498 22.73 22.73 0 01-.276 1.08.272.272 0 01-.102.396c-.242.82-.518 1.605-.737 2.21a49.972 49.972 0 01-.417 1.973c-.169.77-.343 1.56-.49 2.34 1.971 1.788 3.407 4.094 4.798 6.322a45.35 45.35 0 002.77 4.144c.41.52.828 1.035 1.25 1.538.32.215.647.418.974.622a9.056 9.056 0 012.438-.38 1.484 1.484 0 01.8-.983 1.352 1.352 0 011.407 0l.242.17a.646.646 0 01.456.13c.36.27.736.517 1.126.74l.192.113c.276-.254.563-.491.856-.718.394-.306.77-.637 1.126-.989a39.57 39.57 0 002.325-2.629c.98-1.193 1.943-2.437 2.872-3.64.664-.855 1.323-1.697 1.999-2.55a56.369 56.369 0 015.247-5.524l.304-.294c.355-.34.715-.696 1.081-1.058a42.974 42.974 0 014.37-3.912.97.97 0 01.084-.356c.034-.074.073-.153.107-.232a.772.772 0 01-.034-.362 8.169 8.169 0 01.563-2.148.919.919 0 01.068-1.131 21.662 21.662 0 012.5-2.657 22.466 22.466 0 013.49-3.392.73.73 0 01.874-.09c.64.411 1.21.925 1.689 1.52a.76.76 0 01.169.396c.112.079.214.164.281.22l.056.045a7.101 7.101 0 011.853 2.024.77.77 0 01.062.673.892.892 0 01-.44.47.887.887 0 01-.123.254c-.98 1.413-2.314 3.155-3.942 4.184-.32.921-1.48 1.317-2.33 1.605l-.175.057a12.088 12.088 0 01-3.745.712l-1.401 1.312a108.114 108.114 0 01-3.711 3.873 59.876 59.876 0 00-5.49 6.089c-.439.565-.878 1.13-1.312 1.735-1.182 1.566-2.41 3.183-3.688 4.71l-.478.565a13.543 13.543 0 01-2.968 2.957c.28.303.535.626.766.967a1.656 1.656 0 01-.264 1.942 1.642 1.642 0 01-1.926.32c.03.677.006 1.356-.073 2.03 0 .107 0 .225-.034.338a4.96 4.96 0 01-.197 1.131c.276.305.563.616.816.922 1.29 1.475 2.466 2.793 3.8 4.059l1.127 1.04c.878.831 1.757 1.657 2.624 2.5 2.54 2.476 5.18 5.155 7.134 8.299 1.835 2.94 2.55 5.275 2.201 7.135.012.578-.022 1.157-.101 1.73-.293 1.78-1.306 4.155-3.193 4.975-1.402.616-3.068.447-4.943-.492-4.167-2.092-7.438-5.959-10.321-9.368-2.15-2.544-4.398-5.348-7.038-8.803-1.126 1.962-2.85 3.619-4.403 5.089l-.062.062c-1.245 1.176-2.59 2.261-3.89 3.347-1.093.893-2.225 1.82-3.29 2.787-1.424 1.295-2.758 2.725-4.053 4.11l-.248.26-.614.673a20.074 20.074 0 01-2.967 2.827c-1.565 1.13-3.08.82-4.504.35a.644.644 0 01-.209.278 1.05 1.05 0 01-.698.265zm5.8-45.834l.68.684a43.372 43.372 0 014.9 6.371c.523.78 1.047 1.555 1.576 2.307.771 1.086 1.61 2.149 2.421 3.178.417.531.833 1.057 1.244 1.594l.136.18-.186.125c-3.035 2.036-5.63 4.868-8.176 7.605-.585.644-1.17 1.275-1.756 1.893-1.205 1.273-2.422 2.533-3.632 3.794a279.917 279.917 0 00-5.017 5.258 15.602 15.602 0 00-3.03 4.161c-.517 1.193-.253 2.12.339 3.24a16.04 16.04 0 002.866 3.709l.13.135c.703.73 1.508 1.47 2.1 1.018 0 0 .095-.08.067-.153l-.158-.424.423.147c1.458.503 2.894.865 4.391-.203a19.791 19.791 0 002.906-2.77c.202-.227.41-.453.619-.673l.242-.266c1.3-1.385 2.64-2.827 4.082-4.127 1.07-.973 2.207-1.906 3.305-2.827 1.295-1.057 2.635-2.154 3.869-3.325l.062-.056c1.689-1.578 3.378-3.206 4.442-5.207-2.252 2.697-5.068 4.97-7.826 7.163l-1.69 1.374-.276-.317a162.504 162.504 0 005.8-5.755 310.754 310.754 0 01-7.59 7.135 176.575 176.575 0 01-5.67 4.935c-.743.617-1.52 1.216-2.252 1.798-1.07.832-2.18 1.697-3.198 2.601l-.085.08-.112-.035c-.45-.13-.896-.31-1.324-.48a20.28 20.28 0 00-.906-.345.314.314 0 00-.344.068l-.14.141-.152-.136a6.803 6.803 0 01-.456-.446A14.583 14.583 0 019 68.368c-.698-1.425.175-2.64.94-3.714a29.817 29.817 0 013.052-3.393l.49-.486c1.83-1.86 3.615-3.822 5.343-5.716a394.93 394.93 0 012.37-2.595c1.166-1.255 2.394-2.499 3.582-3.703 1.69-1.696 3.452-3.494 5.067-5.331l.17-.198.157.203 1.03 1.363.09.124c.563.747 1.127 1.498 1.69 2.262l1.74 2.34 1.593 2.12.146.193 1.543 2.035.05.068.203.266c2.726 3.567 5.023 6.44 7.224 9.045 2.86 3.393 6.104 7.215 10.186 9.267 1.762.882 3.305 1.046 4.589.486 1.622-.707 2.646-2.827 2.945-4.659a10.8 10.8 0 00.096-1.696c.337-1.792-.36-4.025-2.134-6.869-1.932-3.104-4.556-5.761-7.078-8.22-.862-.843-1.734-1.697-2.613-2.494l-1.126-1.046c-1.345-1.272-2.528-2.606-3.823-4.082-.27-.31-.563-.616-.816-.921l-.175-.192.05-.125c.129-.364.201-.745.215-1.13 0-.12 0-.238.04-.357.039-.118 0-.13 0-.197-.04.186-.09.367-.136.565-.072.243-.13.49-.175.74l-.062.447-.303-.334-.755-.83-.293-.317a98.954 98.954 0 00-1.57-1.696l-1.178-1.284-.202-.22-1.07-1.182-.191-.215.259-.118a10.376 10.376 0 001.869-1.092l.175-.13.123.187c.12.179.25.35.389.514l.13.148c.265.288.553.554.86.797l.142.107c.484.368.996.695 1.537 1.046l.41.266.665.44a1.123 1.123 0 001.442-.208 1.132 1.132 0 00.214-1.453c-.27-.4-.572-.779-.901-1.131l-.197-.198.247-.136c1.166-.639 2.253-1.939 3.069-2.99l.484-.566c1.278-1.52 2.494-3.138 3.677-4.698l1.317-1.736a61.42 61.42 0 015.552-6.18c1.526-1.515 2.67-2.707 3.705-3.867l1.48-1.379.063-.056h.084a11.537 11.537 0 003.677-.673l.175-.057c.788-.271 1.869-.633 2.088-1.402v-.08l.068-.039c1.605-.983 2.928-2.713 3.902-4.11a.477.477 0 00.073-.186v-.136l.13-.04a.489.489 0 00.298-.271.33.33 0 00-.034-.305 6.633 6.633 0 00-1.75-1.911L75.266 5c-.084-.067-.208-.17-.35-.271l-.117-.08.028-.135a.267.267 0 00-.073-.192 6.71 6.71 0 00-1.566-1.447.33.33 0 00-.383.067 21.886 21.886 0 00-3.445 3.336 22.02 22.02 0 00-2.478 2.63.516.516 0 000 .683l.085.102-.051.119a7.774 7.774 0 00-.597 2.143.244.244 0 00.034.186l.062.102-.209.452a.676.676 0 00-.056.277v.113l-.09.068a42.228 42.228 0 00-4.403 3.958 86.86 86.86 0 01-1.087 1.057l-.304.3a56.026 56.026 0 00-5.208 5.472 206.55 206.55 0 00-1.993 2.55c-.935 1.204-1.898 2.454-2.883 3.652a49.08 49.08 0 01-2.331 2.663c-.367.37-.758.713-1.171 1.03-.321.254-.648.52-.952.802l-.118.113-.462-.282a12.298 12.298 0 01-1.126-.77.18.18 0 00-.174-.033l-.107.034-.085-.068-.31-.26a.96.96 0 00-.98 0 1.032 1.032 0 00-.596.842v.057l.062.316h-.31v-.152h-.034c-.85.01-1.693.143-2.505.395l-.09.029-.08-.051a35.358 35.358 0 01-1.086-.696l-.05-.04c-.434-.52-.862-1.04-1.279-1.571a46.68 46.68 0 01-2.815-4.155c-1.39-2.262-2.815-4.523-4.803-6.31l-.09-.08v-.118c.147-.825.332-1.662.512-2.47.147-.668.293-1.33.423-1.996.208-.679.518-1.527.771-2.37l.056-.191c.108-.374.203-.747.288-1.131-.096.288-.209.565-.321.854l-.473 1.192.067-1.283v-.656a9.117 9.117 0 00-.18-1.95l-.27-1.272.659 1.13a11.039 11.039 0 00.746 1.157.078.078 0 00.093.008.22.22 0 00.13-.21 5.66 5.66 0 00-1.189-2.142l-.265-.356a68.123 68.123 0 00-1.43-1.871c-.22-.277-.439-.566-.653-.837l-.236-.306c-1.053-1.35-2.253-2.855-2.483-4.573-.068 1.159.686 2.47 1.407 3.545l.45.667-.714-.362-.119-.051c.36.486.766.927 1.16 1.362a10.63 10.63 0 011.813 2.437c.52 1.11.784 2.324.772 3.55v.675a24.295 24.295 0 01-.231 2.46l-.045.124-.13.306-.09.203-.186.458c-.264.65-.523 1.295-.771 1.95l-.23.611c-.16.32-.284.655-.372 1v.16c-.012.136-.002.273.028.406a.102.102 0 00.078.08.122.122 0 00.113 0c.105-.105.192-.225.26-.357l.044-.09.102-.249.067-.22.411.084-.073.498-.208-.074.197.198v.108c0 .141-.04.282-.057.424v-.096l.068-.425.298.317a32.554 32.554 0 014.088 6.021c.687 1.193 1.402 2.426 2.18 3.562l.737 1.091-.991-.763c.405.356.827.718 1.267 1.074A56.237 56.237 0 0038.78 36.2l.152.17-.18.135a.197.197 0 00-.084.198v.226l.163-.034a.237.237 0 00.079-.034l.123-.08.153-.107.287.317c.242.271.484.565.72.808l1.69 1.85-.276.288a8.737 8.737 0 001.599 1.198l.056.045c.726.809 1.453 1.612 2.168 2.426l.873 1c.563.628 1.126 1.256 1.689 1.872l-.288.31c-.608-.468-1.233-.92-1.858-1.373l-.304-.22.766.616 1.053.797c.298.232.597.503.884.763a8.56 8.56 0 001.605 1.233l.107-.09 1.086 1.034 2.044 1.956c1.059 1.023 2.45 2.392 3.767 3.856l-.281.271.067.09c.298.39.624.756.974 1.098l.316-.238a34.015 34.015 0 012.455 3.28 15.413 15.413 0 011.897 3.906 13.58 13.58 0 01.428 3.392l.034.566c-.24.779-.526 1.544-.856 2.29a4.564 4.564 0 01-1.639 2.057 3.247 3.247 0 01-2.494.34l-.248-.057.08-.187a11.156 11.156 0 00-.964-.83c-.315-.25-.63-.51-.929-.792.44.486.942.911 1.492 1.266l-.18.379a8.567 8.567 0 01-1.278-.565 14.52 14.52 0 01-1.56-.939l-1.21-.86.563.199a10.188 10.188 0 01-3.012-2.923l-.231.192c-.845-.843-1.69-1.77-2.664-2.827a79.286 79.286 0 01-1.74-2.454l-.225.17-.107-.13c-1.65-1.973-3.378-4.15-5.326-6.654l.315-.26a41.085 41.085 0 01-5.067-6.604l-.411-.61-.299.209-.04-.057a155.83 155.83 0 00-3.102-4.003l-.833-1.051c-.479-.566-.952-1.193-1.424-1.793l.264-.22c-1.317-1.481-2.663-3.008-3.896-4.591l-.36-.509c-.489-.7-.992-1.4-1.51-2.097a21.074 21.074 0 01-.596-.99l-.102.068a21.492 21.492 0 00-3.333-3.477l-.276-.22.327-.142c.232-.09.448-.22.636-.384a.09.09 0 000-.08.068.068 0 00-.034-.062 2.98 2.98 0 00-1.711-.243h-.136l-.056-.085c-.152-.27-.315-.565-.479-.802.107.22.214.44.327.661l.135.266-.563.08a107.4 107.4 0 00-2.708.406h-.107l.118.905h.163c.963-.125 1.915-.22 2.63-.294h.135c.265-.029.53-.057.794-.096h.13l.027.04-.213-.515zm-6.442 43.11c.09 0 .18.016.265.044.298.102.614.227.929.35.315.125.777.318 1.171.436 1.002-.893 2.083-1.73 3.13-2.538a60.088 60.088 0 002.253-1.787c1.96-1.64 3.862-3.296 5.63-4.924a360.55 360.55 0 0010.834-10.313.415.415 0 01.123-.079l-.686-.904c-3.154 3.058-6.52 6.004-9.786 8.83l-.152.137a172.919 172.919 0 00-4.972 4.477 77.247 77.247 0 01-1.69 1.662 37.525 37.525 0 01-3.04 2.867.393.393 0 01-.507 0 .345.345 0 01-.05-.458 26.177 26.177 0 013.941-4.252l.563-.565a179.47 179.47 0 014.995-4.478 307.1 307.1 0 015.067-4.263 240.07 240.07 0 005.265-4.444l-1.464-1.99-1.74-2.34-1.52-2.041a50.672 50.672 0 01-6.25 8.107.371.371 0 01-.507.045.39.39 0 01-.113-.508 26.797 26.797 0 013.806-4.959 41.73 41.73 0 002.703-3.183c-.259-.345-.518-.684-.771-1.029-1.554 1.787-3.25 3.5-4.893 5.162a171.421 171.421 0 00-3.57 3.692 246.5 246.5 0 00-2.348 2.606c-1.728 1.9-3.519 3.867-5.354 5.727l-.49.492a28.845 28.845 0 00-3.007 3.393c-.766 1.068-1.492 2.08-.907 3.279a14.281 14.281 0 002.816 3.867.685.685 0 01.326-.119zm42.742-1.03l.315.187-.236-.243a.282.282 0 01-.08.056zM31.456 56.06l-.597.492c-1.69 1.385-3.378 2.827-5.068 4.257a189.159 189.159 0 00-4.983 4.466l-.563.566a27.177 27.177 0 00-3.699 3.907c.94-.82 1.858-1.753 2.748-2.658l1.689-1.696c1.69-1.594 3.378-3.098 4.983-4.523l.152-.135a237.364 237.364 0 005.338-4.676zm5.8-2.425l-.035.05a189.343 189.343 0 01-5.568 5.835 43.021 43.021 0 005.844-5.563l-.242-.322zm4.504 3.092c.657.848 1.298 1.659 1.925 2.431-.354-.565-.726-1.221-1.126-1.905a8.994 8.994 0 01-.777-.526h-.022zm10.81-4.811l.068.079c.406.53.862 1.018 1.362 1.459l-.084-.136-.096-.113c-.382-.462-.8-.893-1.25-1.29zm-23.383-4.523c-.286.324-.573.64-.862.95a28.067 28.067 0 00-3.637 4.607 49.798 49.798 0 004.499-5.529v-.028zm15.551-6.078l.428.475c0-.124.062-.249.096-.373a5.66 5.66 0 00.14-.566 26.56 26.56 0 00.327-1.99l-.563-.35v.124c-.16.688-.274 1.384-.343 2.087l-.068.53-.017.063zm-1.802-1.962l1.127 1.238a7.558 7.558 0 01.624-2.063l.102-.243h.118c-.4-.26-.782-.51-1.126-.78a7.933 7.933 0 00-.845 1.848zm-1.053-1.142l.473.51a6.128 6.128 0 01.958-1.539 4.706 4.706 0 01-.563-.537c-.13.21-.254.424-.383.662-.08.141-.147.288-.22.44-.073.153-.18.312-.265.464zm-.225-.446a2.501 2.501 0 00-.135.237l-.135.255.073-.125a2.97 2.97 0 01.197-.367zm-1.041-.973c.225.255.45.503.68.752.181-.3.395-.565.564-.848l.096-.124c.101-.142.214-.283.32-.419-.061-.079-.123-.158-.18-.243a11.3 11.3 0 01-1.497.882h.017zM9.209 30.381l-.365.141a.174.174 0 00-.106.165.192.192 0 00.015.067c.034.096.136.226.27.187l.232-.057.157-.04a34.776 34.776 0 012.618-.565h.243c.895-.175 1.79-.322 2.657-.44l.208-.99h-.084v-.029l-.14.029-.09-.198.033.209c-1.02.175-1.965.373-2.883.616l-.343.09a26.95 26.95 0 00-2.253.736l-.169.079zm16.982-13.315l.406.447a5.341 5.341 0 00-.406-.447zm1.47-6.479c.226.494.492.968.794 1.42.242.356.512.712.8 1.068a7.374 7.374 0 00-.705-2.753 10.31 10.31 0 00-1.75-2.341 23.172 23.172 0 01-.682-.763 23.613 23.613 0 001.515 3.11.355.355 0 01.028.26zm-.614-.44c.05.112.113.225.169.338l-.169-.339zm-10.918 63.32h-.09a3.61 3.61 0 01-.49-.05l-.534-.09.456-.295c1.3-.9 2.55-1.872 3.744-2.911l.783-.645c1.126-.904 2.252-1.877 3.513-2.98l.293.312c-.72.729-1.425 1.47-2.128 2.21a123.1 123.1 0 01-2.686 2.776c-.738.752-1.65 1.657-2.86 1.657v.017zm4.505-3.929l-.372.306-.782.644c-1.048.87-2.134 1.764-3.272 2.55.997-.034 1.785-.814 2.483-1.51.66-.667 1.307-1.34 1.943-2.007v.017zm18.772-33.48l-.507-.566.332-.085.457-.107h.05l.462.135-.434.373-.36.25zm28.66-23.26l.912-.594c.163-.107.326-.215.484-.328l.101-.067.13.062c.16.047.323.076.49.085l1.745.096-1.717.322-.788.158-1.358.266zm6.137-6.83l-.147-.05h-.061l-.243-.136.395-.566.416.537-.36.215z" fill="#543018" stroke="#543018" stroke-width="2" mask="url(#l)"/><mask id="m" fill="#fff"><path d="M23.543 56.553c3.474-2.346 6.537-5.891 8.71-9.459.029-.05-.044-.09-.078-.045-2.573 3.443-5.839 6.18-8.823 9.227-.118.124.04.35.191.277z"/></mask><path d="M23.543 56.553c3.474-2.346 6.537-5.891 8.71-9.459.029-.05-.044-.09-.078-.045-2.573 3.443-5.839 6.18-8.823 9.227-.118.124.04.35.191.277z" fill="#543018"/><path d="M23.543 56.553l.436.9.064-.031.06-.04-.56-.829zm8.71-9.459l.855.52.01-.017.01-.019-.874-.484zm-.078-.045l.801.599-.801-.599zm-8.823 9.227l-.715-.7-.005.006-.005.005.725.689zm.751 1.106c3.621-2.446 6.776-6.11 9.005-9.767l-1.708-1.04c-2.118 3.476-5.09 6.902-8.416 9.15l1.119 1.657zm9.026-9.804a1.042 1.042 0 00-.404-1.416 1.048 1.048 0 00-1.351.289l1.602 1.197a.952.952 0 01-1.665-.269.957.957 0 01.068-.769l1.75.968zm-1.755-1.128c-2.521 3.374-5.66 5.984-8.737 9.126l1.43 1.4c2.89-2.953 6.284-5.816 8.909-9.328l-1.602-1.198zm-8.747 9.137c-.487.512-.322 1.154-.102 1.472.218.314.786.717 1.454.394l-.87-1.8c.515-.25.928.077 1.059.266.133.191.278.658-.091 1.046l-1.45-1.378z" fill="#543018" mask="url(#m)"/><mask id="n" fill="#fff"><path d="M23.466 56.761a.355.355 0 01-.276-.135.374.374 0 010-.498c.9-.921 1.841-1.826 2.747-2.697a54.931 54.931 0 006.07-6.49.265.265 0 01.355-.056.26.26 0 01.073.344 30.623 30.623 0 01-8.795 9.47.371.371 0 01-.174.063zm6.745-6.993c-1.278 1.374-2.63 2.685-3.97 3.957-.77.741-1.565 1.51-2.336 2.262a28.985 28.985 0 006.306-6.22z"/></mask><path d="M23.466 56.761a.355.355 0 01-.276-.135.374.374 0 010-.498c.9-.921 1.841-1.826 2.747-2.697a54.931 54.931 0 006.07-6.49.265.265 0 01.355-.056.26.26 0 01.073.344 30.623 30.623 0 01-8.795 9.47.371.371 0 01-.174.063zm6.745-6.993c-1.278 1.374-2.63 2.685-3.97 3.957-.77.741-1.565 1.51-2.336 2.262a28.985 28.985 0 006.306-6.22z" fill="#543018"/><path d="M23.19 56.626l.787-.618-.02-.024-.02-.023-.747.665zm-.095-.249h1-1zm.095-.249l-.715-.699-.016.017-.016.017.747.665zm2.747-2.697l-.672-.74-.01.01-.01.01.692.72zm6.07-6.49l.784.622.003-.005-.787-.617zm.355-.056l.58-.816-.012-.008-.011-.007-.557.83zm.073.344l.86.511.001-.002-.86-.509zM23.64 56.7l.56.829.007-.005.006-.004-.573-.82zm2.602-2.974L25.553 53l-.004.004.693.721zm-2.337 2.262l-.698-.716 1.283 1.527-.585-.811zm-.432-.225c.098 0 .194.023.28.066l-.882 1.795c.183.09.383.137.587.139l.015-2zm.28.066a.646.646 0 01.224.18l-1.574 1.235c.126.16.285.29.468.38l.883-1.795zm.184.133a.626.626 0 01.158.416h-2c0 .337.124.662.348.914l1.494-1.33zm.158.416a.626.626 0 01-.158.416l-1.494-1.33a1.374 1.374 0 00-.348.914h2zm-.19.45c.888-.908 1.817-1.802 2.725-2.674l-1.385-1.443c-.905.87-1.857 1.785-2.77 2.72l1.43 1.397zm2.705-2.656a55.927 55.927 0 006.18-6.608l-1.566-1.244a53.92 53.92 0 01-5.96 6.373l1.346 1.48zm6.184-6.612a.736.736 0 01-.463.272l-.315-1.975c-.315.05-.599.217-.795.468l1.573 1.235zm-.463.272a.736.736 0 01-.526-.116l1.114-1.661a1.264 1.264 0 00-.903-.198l.315 1.975zm-.548-.131a.74.74 0 01-.296-.45l1.957-.415a1.26 1.26 0 00-.503-.766l-1.158 1.63zm-.296-.45a.739.739 0 01.087-.529l1.722 1.017c.16-.272.213-.594.148-.903l-1.957.415zm.088-.531a29.621 29.621 0 01-8.507 9.16l1.145 1.64a31.622 31.622 0 009.082-9.779l-1.72-1.021zm-8.495 9.15a.628.628 0 01.296-.105l.18 1.992c.23-.021.453-.1.645-.23L23.08 55.87zm6.399-6.784c-1.256 1.35-2.59 2.645-3.926 3.913l1.377 1.45c1.344-1.275 2.713-2.604 4.013-4l-1.464-1.363zm-3.93 3.917a433.01 433.01 0 00-2.342 2.267l1.396 1.432c.77-.75 1.562-1.518 2.331-2.256l-1.385-1.443zm-1.059 3.794a29.99 29.99 0 006.524-6.434l-1.605-1.192a27.987 27.987 0 01-6.09 6.004l1.171 1.622z" fill="#543018" mask="url(#n)"/><path d="M33.71 50.961h-.001 0z" fill="#543018" stroke="#543018"/><mask id="o" fill="#fff"><path d="M12.593 69.81a.338.338 0 01-.22-.085.396.396 0 01-.1-.47c.872-1.65 2.33-3.024 3.738-4.353l.788-.746c1.734-1.696 3.62-3.392 5.591-5.088 3.71-3.155 7.562-6.146 10.884-8.701a.483.483 0 01.682.463.487.487 0 01-.119.3c-3.817 2.963-7.54 5.88-11.109 8.978a118.843 118.843 0 00-5.512 5.088 38.578 38.578 0 00-1.532 1.646 22.53 22.53 0 01-2.905 2.872.326.326 0 01-.186.096zm20.94-19.081c-3.316 2.555-7.168 5.54-10.873 8.69a150.09 150.09 0 00-5.568 5.043l-.771.751a18.759 18.759 0 00-3.52 4.003c.936-.81 1.81-1.691 2.613-2.634a40.089 40.089 0 011.548-1.663c1.554-1.549 3.317-3.171 5.535-5.088 3.581-3.104 7.32-6.027 11.126-8.995a.068.068 0 000-.05.08.08 0 00-.09-.057z"/></mask><path d="M12.593 69.81a.338.338 0 01-.22-.085.396.396 0 01-.1-.47c.872-1.65 2.33-3.024 3.738-4.353l.788-.746c1.734-1.696 3.62-3.392 5.591-5.088 3.71-3.155 7.562-6.146 10.884-8.701a.483.483 0 01.682.463.487.487 0 01-.119.3c-3.817 2.963-7.54 5.88-11.109 8.978a118.843 118.843 0 00-5.512 5.088 38.578 38.578 0 00-1.532 1.646 22.53 22.53 0 01-2.905 2.872.326.326 0 01-.186.096zm20.94-19.081c-3.316 2.555-7.168 5.54-10.873 8.69a150.09 150.09 0 00-5.568 5.043l-.771.751a18.759 18.759 0 00-3.52 4.003c.936-.81 1.81-1.691 2.613-2.634a40.089 40.089 0 011.548-1.663c1.554-1.549 3.317-3.171 5.535-5.088 3.581-3.104 7.32-6.027 11.126-8.995a.068.068 0 000-.05.08.08 0 00-.09-.057z" fill="#543018"/><path d="M12.373 69.725l.664-.748-.007-.006-.007-.006-.65.76zm-.1-.47l-.885-.467-.011.022-.011.023.906.423zm3.738-4.353l.686.728.001-.001-.687-.727zm.788-.746l.688.726.006-.005.005-.006-.699-.715zm5.591-5.088l-.648-.762-.004.004.652.758zm10.884-8.701l-.41-.912-.107.048-.093.071.61.793zm.563.763l.613.79.078-.06.064-.074-.755-.656zm-11.109 8.978l-.655-.755-.002.001.657.754zm-5.512 5.088l-.702-.712-.003.003.705.71zm-1.532 1.646l-.745-.667-.01.011-.01.011.765.645zm-2.905 2.872l-.636-.772-.044.036-.04.041.72.695zm9.881-10.296l-.647-.762-.006.005.653.757zm-5.568 5.044l-.69-.724-.008.007.698.717zm-.771.751l.649.76.025-.02.023-.023-.698-.717zm-3.52 4.003l-.837-.547 1.492 1.303-.655-.756zm2.613-2.634l-.748-.664-.007.008-.006.007.761.649zm1.548-1.663l-.706-.708-.002.003.708.705zm5.535-5.088l.654.757.001-.001-.655-.756zm11.126-8.995l.615.789.212-.166.1-.25-.927-.373zm0-.05l-.963.267.015.054.02.052.928-.374zM12.605 68.81a.66.66 0 01.431.166l-1.326 1.498c.24.212.55.332.871.336l.024-2zm.418.155c.101.086.17.203.198.331l-1.955.423c.065.298.225.567.458.766l1.3-1.52zm.198.331a.603.603 0 01-.043.383l-1.812-.846c-.13.276-.164.588-.1.886l1.955-.422zm-.065.427c.781-1.478 2.106-2.739 3.541-4.093l-1.373-1.455c-1.38 1.303-2.972 2.79-3.936 4.613l1.768.935zm3.542-4.094l.789-.747-1.375-1.452-.789.746 1.375 1.453zm.8-.758c1.714-1.676 3.584-3.358 5.544-5.045l-1.304-1.516c-1.98 1.704-3.884 3.415-5.638 5.131l1.398 1.43zm5.54-5.041c3.69-3.138 7.525-6.116 10.846-8.67l-1.22-1.586c-3.323 2.556-7.19 5.56-10.922 8.732l1.296 1.524zm10.647-8.551a.517.517 0 01-.344.028l.508-1.934a1.481 1.481 0 00-.985.082l.82 1.824zm-.344.028a.516.516 0 01-.285-.192l1.61-1.188c-.2-.272-.49-.468-.817-.554l-.508 1.934zm-.285-.192a.513.513 0 01-.1-.325l2 .08a1.488 1.488 0 00-.29-.943l-1.61 1.188zm-.1-.325a.513.513 0 01.126-.316l1.51 1.312c.222-.256.35-.579.363-.916l-1.998-.08zm.268-.45c-3.817 2.962-7.559 5.895-11.151 9.013l1.31 1.51c3.547-3.078 7.25-5.98 11.067-8.943l-1.226-1.58zm-11.153 9.014a119.866 119.866 0 00-5.557 5.13l1.404 1.425a117.81 117.81 0 015.467-5.047l-1.314-1.508zm-5.56 5.133a39.406 39.406 0 00-1.572 1.688l1.49 1.333a37.76 37.76 0 011.492-1.602l-1.41-1.419zm-1.591 1.71a21.53 21.53 0 01-2.777 2.745l1.271 1.544c1.1-.906 2.116-1.91 3.035-3l-1.53-1.289zm-2.86 2.822a.673.673 0 01.383-.198l.3 1.978c.288-.044.554-.182.756-.391l-1.44-1.389zm20.863-19.083c-3.317 2.556-7.185 5.554-10.91 8.72l1.295 1.524c3.685-3.132 7.519-6.104 10.835-8.66l-1.22-1.584zm-10.916 8.725a151.193 151.193 0 00-5.606 5.077l1.381 1.447a149.153 149.153 0 015.532-5.01l-1.307-1.514zm-5.613 5.084l-.772.752 1.396 1.433.772-.753-1.396-1.432zm-.723.708a19.758 19.758 0 00-3.707 4.216l1.675 1.094a17.755 17.755 0 013.331-3.79l-1.3-1.52zm-2.215 5.52a25.527 25.527 0 002.72-2.743l-1.523-1.297c-.77.905-1.609 1.75-2.506 2.527l1.31 1.512zm2.706-2.728c.495-.558.999-1.108 1.509-1.62l-1.417-1.411c-.549.55-1.08 1.132-1.588 1.704l1.496 1.327zm1.506-1.617c1.534-1.529 3.277-3.135 5.483-5.04l-1.308-1.514c-2.231 1.928-4.012 3.567-5.587 5.137l1.412 1.417zm5.484-5.041c3.559-3.085 7.277-5.992 11.086-8.962l-1.23-1.578c-3.804 2.967-7.562 5.905-11.166 9.028l1.31 1.512zm11.399-9.377a1.069 1.069 0 000-.799l-1.855.748a.93.93 0 010-.697l1.855.748zm.035-.693a1.079 1.079 0 00-.465-.625l-1.064 1.694a.92.92 0 01-.397-.532l1.926-.537zm-.465-.625a1.078 1.078 0 00-.769-.147l.362 1.967a.921.921 0 01-.657-.126l1.063-1.694z" fill="#543018" mask="url(#o)"/><mask id="p" fill="#fff"><path d="M15.312 63.614a127.5 127.5 0 003.598-4.308 19.847 19.847 0 002.303-3.104.159.159 0 00-.144-.23.157.157 0 00-.098.038c-2 1.831-3.57 4.262-5.327 6.326a187.95 187.95 0 01-3.108 3.579c-.405.458-1.38 1.826-2.06 1.877a.045.045 0 00-.022.016.045.045 0 000 .052.045.045 0 00.021.017c.518.163 1.126-.566 1.492-.826a33.282 33.282 0 003.345-3.437z"/></mask><path d="M15.312 63.614a127.5 127.5 0 003.598-4.308 19.847 19.847 0 002.303-3.104.159.159 0 00-.144-.23.157.157 0 00-.098.038c-2 1.831-3.57 4.262-5.327 6.326a187.95 187.95 0 01-3.108 3.579c-.405.458-1.38 1.826-2.06 1.877a.045.045 0 00-.022.016.045.045 0 000 .052.045.045 0 00.021.017c.518.163 1.126-.566 1.492-.826a33.282 33.282 0 003.345-3.437z" fill="#543018"/><path d="M18.91 59.306l-.741-.672-.022.024-.02.026.783.622zm2.303-3.104l.857.515.02-.035.018-.035-.895-.445zm-.242-.192l-.643-.767-.017.014-.016.015.675.738zm-5.327 6.326l-.761-.648.761.648zm-3.108 3.579l-.745-.667-.004.004.749.663zm-2.06 1.877l-.075-.998-.142.011-.133.05.35.937zm0 .085l-.35.937.024.008.023.008.302-.953zm1.491-.826l.58.815.044-.031.04-.037-.664-.747zm4.1-2.782a128.324 128.324 0 003.626-4.341l-1.566-1.244a126.581 126.581 0 01-3.57 4.274l1.51 1.311zm3.584-4.292a20.837 20.837 0 002.419-3.26l-1.715-1.03a18.836 18.836 0 01-2.186 2.947l1.482 1.343zm2.457-3.33a1.16 1.16 0 00.094-.767l-1.953.433a.841.841 0 01.068-.557l1.791.891zm.094-.767a1.159 1.159 0 00-.41-.656l-1.245 1.566a.842.842 0 01-.298-.477l1.953-.433zm-.41-.656a1.157 1.157 0 00-.736-.251l.027 2a.843.843 0 01-.535-.183l1.243-1.566zm-.736-.251a1.16 1.16 0 00-.728.27l1.285 1.533a.842.842 0 01-.53.197l-.027-2zm-.761.3c-1.061.971-1.994 2.089-2.864 3.194-.888 1.128-1.686 2.207-2.548 3.22l1.523 1.297c.893-1.05 1.76-2.218 2.596-3.28.854-1.084 1.706-2.098 2.644-2.957l-1.351-1.475zm-5.413 6.415a186.975 186.975 0 01-3.091 3.56l1.49 1.334a189.646 189.646 0 003.125-3.598l-1.524-1.296zm-3.095 3.564c-.117.133-.278.334-.42.507-.156.19-.321.385-.488.564a3.415 3.415 0 01-.445.413c-.145.108-.147.067-.033.058l.149 1.995c.454-.034.83-.265 1.07-.443.265-.194.51-.434.72-.657.212-.227.409-.462.571-.66.176-.214.289-.355.374-.451l-1.498-1.326zm-1.661 1.603c-.2.075-.373.209-.494.384l1.644 1.139a.955.955 0 01-.452.35l-.698-1.873zm-.494.384a1.045 1.045 0 00-.186.595h2c0 .194-.06.384-.17.544l-1.644-1.139zm-.186.595c0 .213.065.42.186.595l1.644-1.138c.11.16.17.35.17.543h-2zm.186.595c.121.176.293.31.494.385l.698-1.874a.95.95 0 01.452.35l-1.644 1.14zm.541.401a1.61 1.61 0 001.045-.037c.264-.097.489-.243.655-.366.17-.126.326-.263.44-.363.133-.117.194-.17.233-.198l-1.158-1.63c-.144.102-.296.238-.395.325a4.97 4.97 0 01-.31.258 1.2 1.2 0 01-.108.073c-.03.017-.043.022-.042.022.001 0 .101-.036.244.01l-.604 1.906zm2.459-1.032a34.293 34.293 0 003.445-3.54l-1.53-1.288a32.294 32.294 0 01-3.244 3.334l1.329 1.494z" fill="#543018" mask="url(#p)"/><path d="M10.478 67.833l.002.002-.002-.002z" fill="#543018" stroke="#543018"/><mask id="q" fill="#fff"><path d="M10.52 66.287c3.975-4.692 8.536-8.859 12.337-13.704.214-.266-.164-.65-.378-.379-3.794 4.874-8.445 8.984-12.066 13.999-.045.062.062.141.107.084z"/></mask><path d="M10.52 66.287c3.975-4.692 8.536-8.859 12.337-13.704.214-.266-.164-.65-.378-.379-3.794 4.874-8.445 8.984-12.066 13.999-.045.062.062.141.107.084z" fill="#543018"/><path d="M10.52 66.287l-.763-.646-.01.012-.009.011.782.623zm12.337-13.704l-.78-.627-.007.01.787.617zm-.378-.379l-.785-.619-.004.005.79.614zM10.413 66.203l.81.586.001-.001-.81-.585zm.87.73c1.966-2.32 4.075-4.51 6.197-6.754 2.114-2.235 4.232-4.517 6.163-6.979l-1.573-1.234c-1.87 2.383-3.932 4.606-6.043 6.84-2.102 2.223-4.26 4.463-6.27 6.835l1.526 1.293zM23.636 53.21c.504-.627.26-1.36-.096-1.72a1.215 1.215 0 00-1.846.096l1.57 1.237a.786.786 0 01-1.147.072c-.167-.17-.33-.578-.04-.94l1.559 1.255zm-1.946-1.62c-1.865 2.396-3.943 4.606-6.044 6.882-2.089 2.263-4.194 4.584-6.044 7.145l1.622 1.171c1.771-2.453 3.801-4.695 5.892-6.96 2.078-2.25 4.223-4.532 6.152-7.01L21.69 51.59zM9.603 65.616c-.202.28-.244.618-.16.91a1.078 1.078 0 001.007.78c.295.009.624-.11.852-.395l-1.564-1.247a.95.95 0 01.768-.357.92.92 0 01.86.666.947.947 0 01-.143.816l-1.62-1.173z" fill="#543018" mask="url(#q)"/><path d="M23.124 52.48l-.322-.044.322.044z" fill="#543018" stroke="#543018"/></svg>