<svg width="86" height="110" fill="none" xmlns="http://www.w3.org/2000/svg"><mask id="a" fill="#fff"><path d="M76.316 28.815a11.21 11.21 0 00-1.19-4.156c-.797-1.56-1.266-3.316-2.488-4.633a105.79 105.79 0 00-4.539-4.518 15.093 15.093 0 00-6.872-3.596c-3.276-.8-6.563-.66-9.836-.44-3.032.328-6.03.885-8.965 1.668a13.956 13.956 0 00-3.266.915c-3.183 1.577-8.03 6.442-9.602 9.9a25.05 25.05 0 00-2.349 9.175 16.527 16.527 0 00.371 4.312c.477 2.433 1.01 4.852 1.541 7.278a16.171 16.171 0 001.909 4.878c1.314 2.16 2.652 4.307 3.28 6.856a20.22 20.22 0 01.6 6.635 55.134 55.134 0 01-1.212 6.316c-.671 3.35-2.086 6.463-2.567 9.862a4.953 4.953 0 01-.87 1.538 1.916 1.916 0 00-.367.692 1.943 1.943 0 00-.058.788 10.277 10.277 0 01-.016 4.64c-.253 1.21.02 2.536-.107 3.772-.088.43-.078.878.03 1.31.106.431.308.835.59 1.183a6.672 6.672 0 011.391 2.628c.26.967.293 1.974.1 2.943a3.54 3.54 0 00.307 1.739c.363 1.166 1.423 1.21 2.269 1.614 3.137 1.5 4.968.935 6.407-2.082a3.625 3.625 0 012.159-1.907c2.076-.826 3.893-2.147 4.063-4.524.153-2.04.576-4.019.74-6.028a36.45 36.45 0 011.097-5.37c.288-.91.468-1.852.536-2.809.004-2.179.78-4.224 1.275-6.286.61-2.521 2.333-4.61 4.241-6.283a27.457 27.457 0 017.42-4.874 16.546 16.546 0 006.65-5.444c1.123-1.459 2.035-3.035 3.037-4.568a28.537 28.537 0 004.777-12.14c.037-.361.07-.716.114-1.074.392-3.315-.345-6.597-.6-9.91zM31.791 84.458c.303.65.402 1.371.283 2.067a3.356 3.356 0 01-.946 1.825c.11-1.42-.145-2.712.663-3.892zm.876 6.85a6.964 6.964 0 00-1.091.532c.99.608 1.338 1.229.981 2.069a3.447 3.447 0 01-1.314-1.594 3.344 3.344 0 01-.156-2.04.944.944 0 01.684-.7 28.5 28.5 0 016.884-1.879 6.001 6.001 0 002.113-.531 8.579 8.579 0 014.837-.913c.323.02.761-.158.909.341a.922.922 0 01.008.628.879.879 0 01-.399.474 3.648 3.648 0 01-1.013.358c-2.083.503-4.16 1.068-6.274 1.455-2.116.387-4.087 1.28-6.169 1.8zm.591-6.503c.105-.548.342-1.015 1.11-.943.127 1.273-.399 2.411-.635 3.603a.614.614 0 01-.342.342.31.31 0 01-.256-.008.327.327 0 01-.17-.196c-.343-1.005.128-1.892.296-2.805l-.003.007zm10.872 7.52a4.21 4.21 0 011.708-2.316c.262 2.491.262 2.491-1.705 2.309l-.003.007zm-1.066-.35a1.617 1.617 0 01-1.673 1.306c-1.778-.075-3.198.804-4.686 1.515-.316.152-.607.493-.963.247a1.027 1.027 0 01-.355-.533.988.988 0 01.033-.63c.628-2.32.052-2.754 2.968-3.238 1.16-.241 2.3-.556 3.415-.945a3.842 3.842 0 011.775-.33 6.12 6.12 0 01-.51 2.601l-.004.007zm-8.939 3.239c-.318.007-.377-.18-.392-.466-.12-1.067-.418-2.17.994-3.086-.06 1.234-.134 2.167-.157 3.116a.418.418 0 01-.124.314.406.406 0 01-.318.115l-.003.007zm2.237 4.436c-.288.503-.799.166-1.077-.009-.415-.266-.109-.658.126-.875.153-.176.362-.294.594-.336.231-.041.472-.004.684.106.198.481-.138.81-.317 1.128l-.01-.014zm6.594-4.199a17.41 17.41 0 00-3.041.854c-1.585.548-3.249 1.159-5.212.237 3.704-1.505 7.168-2.99 11.233-2.874-.56 1.568-1.884 1.6-2.98 1.783zm2.951-10.444c-.598-.555.336-1.018-.107-1.634-.957.384-.657 1.614-1.57 2.087-.912.473-1.712.024-2.62.432-2.073.912-4.4.979-6.663 1.766a9.27 9.27 0 01.398-2.748 1.487 1.487 0 011.494-1.265c2.135.036 4.029-1.004 6.115-1.085l1.033-.028c.664.654-.295 1.416.348 2.136.363-.39.59-.889.648-1.425.11-.637.335-1.001 1.075-.757.74.244 1.216.581 1.083 1.36a1.213 1.213 0 01-1.234 1.161zm.448-3.55a.552.552 0 00-.18-.035c-1.896-.468-3.71.155-5.476.523a32.16 32.16 0 01-6.346.714 6.473 6.473 0 00-2.05.578c-.868.284-1.248-.116-1.068-.999a1.705 1.705 0 01.832-1.1 3.921 3.921 0 012.579-.528 8.66 8.66 0 003.365-.311c.988-.303 2.13-.666 3.164-.113 1.398.668 2.683.44 4.014.133.6-.142 1.208-.601 1.551.329.222.56 1.008-.74.939.255-.01.584-.584.967-1.308.52l-.016.034zm-11.767-7.795c-.305-.096-.247-.355-.222-.578.025-.224.047-.348.283-.286a.646.646 0 01.279.622.234.234 0 01-.093.183.23.23 0 01-.203.037l-.044.022zm.083 2.775a2.8 2.8 0 01-.026 1.44 2.7 2.7 0 01-.74 1.217c.028-1.014.04-1.976.81-2.678l-.044.021zm1.215-1.103c1.237-.007 2.317-.063 3.11.644 1.692 1.424 3.764 1.505 5.728 2.014.318.085.73-.072 1.013.484-.337.47-.815.817-1.367.994a2.789 2.789 0 01-1.71-.006 9.483 9.483 0 00-5.82.04 2.513 2.513 0 01-1.647-.005c.011-1.485 1.564-2.544.738-4.151l-.045-.014zm1.269-1.481c.05-.111.254-.165.347-.222.262.041.37.177.364.36-.006.182-.064.365-.306.3-.242-.066-.46-.128-.374-.432l-.031-.006zm9.392-16.477c-1.362 3.374-1.167 7.08-2.333 10.488-.425 1.253-.224 2.739-.272 4.08-.059 1.234-.189 1.332-1.413.957-.16-.076-.35-.108-.518-.171-1.948-.73-1.607-.844-1.174-2.245a43.902 43.902 0 002.171-8.839 14.69 14.69 0 00-.314-5.017c-.81-3.199-.795-6.45-1.115-9.676-.121-1.212-.497-2.368-.632-3.57a2.345 2.345 0 01.114-1.235c.148-.392.399-.733.727-.99.138.499.307.988.509 1.465.615 1.06 1.294 1.157 2.143.3.573-.568 1.1-1.242 1.689-1.845a1.34 1.34 0 01.89-.576c.6.421.36 1.08.5 1.636.138.555.227 1.371.941 1.67.846.405 1.088-.523 1.571-.874.154-.133.296-.28.428-.435.614.294.408 1.458 1.39 1.396.7-.044 1.138-.634 1.788-.753.3.22.074.659.248.8 1.394 1.164.444 2.057-.286 2.895a113.67 113.67 0 00-4.552 5.655 20.219 20.219 0 00-2.469 4.89l-.03-.006zm-1.198 18.49a.656.656 0 01-.708.605c-.499-.045-.658-.424-.649-.875.009-.45.177-.538.56-.465.314.226.914.142.828.742l-.03-.007zm-2.396-.042c.044.484-.34.393-.613.338-.942-.172-2.04-.133-2.218-1.54.256.34.613.59 1.017.714.404.123.834.112 1.224-.03.422-.068.602.212.621.524l-.031-.006zm3.078.974c.195-.092.324-.207.377-.173.335.16.887-.082.97.522a.335.335 0 01-.21.237.981.981 0 01-.65-.094 1.013 1.013 0 01-.455-.485l-.032-.007zm27.995-31.657a37.547 37.547 0 01-3.275 6.72c-2.51 4.23-5.64 7.752-10.42 9.83-4.93 2.182-8.87 5.704-10.927 10.943-.366.936-.76 1.86-1.206 2.935l-.294-.14c-2.046-1.113-1.992-1.23-1.552-3.622.707-3.577 1.282-7.184 2-10.765.696-3.405 1.709-6.643 4.102-9.346 1.376-1.549 2.652-3.196 4.077-4.704a1.761 1.761 0 00.76-1.168 3.516 3.516 0 01.251-1.495c.19-.472.482-.893.854-1.236.183-.201.29-.46.301-.736a1.226 1.226 0 00-.236-.774.916.916 0 00-.708-.637.872.872 0 00-.485.049.848.848 0 00-.377.3 7.88 7.88 0 00-.693 1.244c-.507.928-.56.953-1.162-.1-.295-.512-.68-.376-1.08-.432-.705-.093-1.155.559-1.804.602-1.251-2.282-1.412-1.61-3.106-.053-.51-.395-.575-.999-.714-1.553-.383-1.48-1.316-1.859-2.445-.891-.572.492-1.013 1.2-1.53 1.72a1.284 1.284 0 01-.876.523c-.963-2.86-1.212-2.835-3.087-1.854a2.25 2.25 0 00-.217-1.053 2.298 2.298 0 00-.682-.842.787.787 0 00-.392-.164.756.756 0 00-.414.065.59.59 0 00-.312.302.613.613 0 00-.024.439c.998 4.316 1.134 8.734 1.637 13.092a43.58 43.58 0 01.114 11.353c-.322 2.187-.902 4.326-1.41 6.475-.128.561-.21 1.23-.848 1.472-.385.153-1.908-.987-2.137-1.476a2.942 2.942 0 01-.074-1.652c.2-1.917.375-3.837.612-5.744a14.82 14.82 0 00-.41-5.18 23.609 23.609 0 00-3.37-8.01 18.217 18.217 0 01-1.947-4.492 74.919 74.919 0 01-2.013-9.197c-.419-2.28.17-4.583.665-6.78a16.255 16.255 0 013.222-7.09c1.674-1.979 3.175-4.124 5.414-5.605a16.822 16.822 0 016.08-2.432 61.376 61.376 0 0113.006-1.312c5.242.106 9.484 2.058 12.71 6.302.17.251.362.487.573.703 3.15 3.064 4.385 6.878 4.734 11.07.373 2.576.556 5.17.547 7.763a24.495 24.495 0 01-1.4 6.639l-.032-.006zm-1.96-19.663a10.48 10.48 0 00-4.128-5.18 6.726 6.726 0 00-3.234-1.347 6.461 6.461 0 00-3.423.48 3.04 3.04 0 01-1.184.36 2.28 2.28 0 00-1.496.877.59.59 0 00-.243.462.626.626 0 00.21.49c1.263 1.227 2.367 2.69 3.913 3.555a9.44 9.44 0 014.087 5.102 22.492 22.492 0 011.623 8.968c-.018.64.05 1.539.688 1.743.39.066.788.023 1.148-.126.361-.15.67-.397.894-.717.147-.188.27-.395.365-.617.816-1.908 1.876-3.734 1.794-5.819.59-2.892-.132-5.662-1.014-8.23zm-.733 11.438a7.622 7.622 0 01-1.718 2.808 18.975 18.975 0 01-.5-3.709c-.429-3.774-1.315-7.364-4.096-10.267a6.588 6.588 0 00-1.502-1.299 11.911 11.911 0 01-2.664-2.486c-.49-.529-.519-.972.2-1.226 1.816-.664 3.603-1.115 5.522.054a9.85 9.85 0 014.68 5.984c.946 3.44 1.245 6.75.094 10.106l-.016.035zM36.088 19.43c-3.478 4.57-5.38 10.174-5.431 15.995.016.658.079 1.315.186 1.967a.555.555 0 00.32.38.474.474 0 00.526-.372c.07-.226.09-.467.058-.704a12.32 12.32 0 01.138-3.243 27.166 27.166 0 014.67-12.747c.59-.905 1.64-1.363 2.291-2.517a2.85 2.85 0 00-1.567.22c-.487.22-.9.573-1.191 1.021zM32.19 41.598c-.044-.24-.134-.51-.412-.517-.278-.006-.443.302-.452.584-.256 1.275.603 2.267.923 3.397a.677.677 0 00.316.314.654.654 0 00.439.046c.311-.086.344-.458.23-.731a19.505 19.505 0 01-1.044-3.093zm9.085-23.923c1.397-1.016 3.192-.773 4.645-1.501-1.73-.027-3.773-.961-4.645 1.501zm9.143-2.602a.378.378 0 00-.313.144.374.374 0 00-.061.343.536.536 0 00.409.28c.65-.027 1.304-.101 2.3-.198a2.593 2.593 0 00-1.103-.578 2.504 2.504 0 00-1.232.01zm5.639.17c-.06.038-.116.255-.053.303.272.268.612.454.98.538.37.084.751.061 1.102-.066l.122-.27c-.713-.264-1.26-1.023-2.154-.499l.003-.007zM38.924 55.938c.297-.035.328-.29.397-.535-.108-.53.162-1.236-.62-1.5a.427.427 0 00-.34.07.413.413 0 00-.169.302c-.098.534.423 1.709.73 1.67l.003-.007zM59.74 17.154c.405.193.775.597 1.29.398.075-.032.088-.194.132-.29a2.034 2.034 0 00-.692-.754 1.996 1.996 0 00-.965-.317.37.37 0 00-.218.275.636.636 0 00.453.688zM36.393 50.317a.451.451 0 00-.3.544.484.484 0 00.104.205 1.324 1.324 0 00.95.757c.374-.47.018-.884-.153-1.294a.449.449 0 00-.258-.237.431.431 0 00-.343.025z"/></mask><path d="M76.316 28.815a11.21 11.21 0 00-1.19-4.156c-.797-1.56-1.266-3.316-2.488-4.633a105.79 105.79 0 00-4.539-4.518 15.093 15.093 0 00-6.872-3.596c-3.276-.8-6.563-.66-9.836-.44-3.032.328-6.03.885-8.965 1.668a13.956 13.956 0 00-3.266.915c-3.183 1.577-8.03 6.442-9.602 9.9a25.05 25.05 0 00-2.349 9.175 16.527 16.527 0 00.371 4.312c.477 2.433 1.01 4.852 1.541 7.278a16.171 16.171 0 001.909 4.878c1.314 2.16 2.652 4.307 3.28 6.856a20.22 20.22 0 01.6 6.635 55.134 55.134 0 01-1.212 6.316c-.671 3.35-2.086 6.463-2.567 9.862a4.953 4.953 0 01-.87 1.538 1.916 1.916 0 00-.367.692 1.943 1.943 0 00-.058.788 10.277 10.277 0 01-.016 4.64c-.253 1.21.02 2.536-.107 3.772-.088.43-.078.878.03 1.31.106.431.308.835.59 1.183a6.672 6.672 0 011.391 2.628c.26.967.293 1.974.1 2.943a3.54 3.54 0 00.307 1.739c.363 1.166 1.423 1.21 2.269 1.614 3.137 1.5 4.968.935 6.407-2.082a3.625 3.625 0 012.159-1.907c2.076-.826 3.893-2.147 4.063-4.524.153-2.04.576-4.019.74-6.028a36.45 36.45 0 011.097-5.37c.288-.91.468-1.852.536-2.809.004-2.179.78-4.224 1.275-6.286.61-2.521 2.333-4.61 4.241-6.283a27.457 27.457 0 017.42-4.874 16.546 16.546 0 006.65-5.444c1.123-1.459 2.035-3.035 3.037-4.568a28.537 28.537 0 004.777-12.14c.037-.361.07-.716.114-1.074.392-3.315-.345-6.597-.6-9.91zM31.791 84.458c.303.65.402 1.371.283 2.067a3.356 3.356 0 01-.946 1.825c.11-1.42-.145-2.712.663-3.892zm.876 6.85a6.964 6.964 0 00-1.091.532c.99.608 1.338 1.229.981 2.069a3.447 3.447 0 01-1.314-1.594 3.344 3.344 0 01-.156-2.04.944.944 0 01.684-.7 28.5 28.5 0 016.884-1.879 6.001 6.001 0 002.113-.531 8.579 8.579 0 014.837-.913c.323.02.761-.158.909.341a.922.922 0 01.008.628.879.879 0 01-.399.474 3.648 3.648 0 01-1.013.358c-2.083.503-4.16 1.068-6.274 1.455-2.116.387-4.087 1.28-6.169 1.8zm.591-6.503c.105-.548.342-1.015 1.11-.943.127 1.273-.399 2.411-.635 3.603a.614.614 0 01-.342.342.31.31 0 01-.256-.008.327.327 0 01-.17-.196c-.343-1.005.128-1.892.296-2.805l-.003.007zm10.872 7.52a4.21 4.21 0 011.708-2.316c.262 2.491.262 2.491-1.705 2.309l-.003.007zm-1.066-.35a1.617 1.617 0 01-1.673 1.306c-1.778-.075-3.198.804-4.686 1.515-.316.152-.607.493-.963.247a1.027 1.027 0 01-.355-.533.988.988 0 01.033-.63c.628-2.32.052-2.754 2.968-3.238 1.16-.241 2.3-.556 3.415-.945a3.842 3.842 0 011.775-.33 6.12 6.12 0 01-.51 2.601l-.004.007zm-8.939 3.239c-.318.007-.377-.18-.392-.466-.12-1.067-.418-2.17.994-3.086-.06 1.234-.134 2.167-.157 3.116a.418.418 0 01-.124.314.406.406 0 01-.318.115l-.003.007zm2.237 4.436c-.288.503-.799.166-1.077-.009-.415-.266-.109-.658.126-.875.153-.176.362-.294.594-.336.231-.041.472-.004.684.106.198.481-.138.81-.317 1.128l-.01-.014zm6.594-4.199a17.41 17.41 0 00-3.041.854c-1.585.548-3.249 1.159-5.212.237 3.704-1.505 7.168-2.99 11.233-2.874-.56 1.568-1.884 1.6-2.98 1.783zm2.951-10.444c-.598-.555.336-1.018-.107-1.634-.957.384-.657 1.614-1.57 2.087-.912.473-1.712.024-2.62.432-2.073.912-4.4.979-6.663 1.766a9.27 9.27 0 01.398-2.748 1.487 1.487 0 011.494-1.265c2.135.036 4.029-1.004 6.115-1.085l1.033-.028c.664.654-.295 1.416.348 2.136.363-.39.59-.889.648-1.425.11-.637.335-1.001 1.075-.757.74.244 1.216.581 1.083 1.36a1.213 1.213 0 01-1.234 1.161zm.448-3.55a.552.552 0 00-.18-.035c-1.896-.468-3.71.155-5.476.523a32.16 32.16 0 01-6.346.714 6.473 6.473 0 00-2.05.578c-.868.284-1.248-.116-1.068-.999a1.705 1.705 0 01.832-1.1 3.921 3.921 0 012.579-.528 8.66 8.66 0 003.365-.311c.988-.303 2.13-.666 3.164-.113 1.398.668 2.683.44 4.014.133.6-.142 1.208-.601 1.551.329.222.56 1.008-.74.939.255-.01.584-.584.967-1.308.52l-.016.034zm-11.767-7.795c-.305-.096-.247-.355-.222-.578.025-.224.047-.348.283-.286a.646.646 0 01.279.622.234.234 0 01-.093.183.23.23 0 01-.203.037l-.044.022zm.083 2.775a2.8 2.8 0 01-.026 1.44 2.7 2.7 0 01-.74 1.217c.028-1.014.04-1.976.81-2.678l-.044.021zm1.215-1.103c1.237-.007 2.317-.063 3.11.644 1.692 1.424 3.764 1.505 5.728 2.014.318.085.73-.072 1.013.484-.337.47-.815.817-1.367.994a2.789 2.789 0 01-1.71-.006 9.483 9.483 0 00-5.82.04 2.513 2.513 0 01-1.647-.005c.011-1.485 1.564-2.544.738-4.151l-.045-.014zm1.269-1.481c.05-.111.254-.165.347-.222.262.041.37.177.364.36-.006.182-.064.365-.306.3-.242-.066-.46-.128-.374-.432l-.031-.006zm9.392-16.477c-1.362 3.374-1.167 7.08-2.333 10.488-.425 1.253-.224 2.739-.272 4.08-.059 1.234-.189 1.332-1.413.957-.16-.076-.35-.108-.518-.171-1.948-.73-1.607-.844-1.174-2.245a43.902 43.902 0 002.171-8.839 14.69 14.69 0 00-.314-5.017c-.81-3.199-.795-6.45-1.115-9.676-.121-1.212-.497-2.368-.632-3.57a2.345 2.345 0 01.114-1.235c.148-.392.399-.733.727-.99.138.499.307.988.509 1.465.615 1.06 1.294 1.157 2.143.3.573-.568 1.1-1.242 1.689-1.845a1.34 1.34 0 01.89-.576c.6.421.36 1.08.5 1.636.138.555.227 1.371.941 1.67.846.405 1.088-.523 1.571-.874.154-.133.296-.28.428-.435.614.294.408 1.458 1.39 1.396.7-.044 1.138-.634 1.788-.753.3.22.074.659.248.8 1.394 1.164.444 2.057-.286 2.895a113.67 113.67 0 00-4.552 5.655 20.219 20.219 0 00-2.469 4.89l-.03-.006zm-1.198 18.49a.656.656 0 01-.708.605c-.499-.045-.658-.424-.649-.875.009-.45.177-.538.56-.465.314.226.914.142.828.742l-.03-.007zm-2.396-.042c.044.484-.34.393-.613.338-.942-.172-2.04-.133-2.218-1.54.256.34.613.59 1.017.714.404.123.834.112 1.224-.03.422-.068.602.212.621.524l-.031-.006zm3.078.974c.195-.092.324-.207.377-.173.335.16.887-.082.97.522a.335.335 0 01-.21.237.981.981 0 01-.65-.094 1.013 1.013 0 01-.455-.485l-.032-.007zm27.995-31.657a37.547 37.547 0 01-3.275 6.72c-2.51 4.23-5.64 7.752-10.42 9.83-4.93 2.182-8.87 5.704-10.927 10.943-.366.936-.76 1.86-1.206 2.935l-.294-.14c-2.046-1.113-1.992-1.23-1.552-3.622.707-3.577 1.282-7.184 2-10.765.696-3.405 1.709-6.643 4.102-9.346 1.376-1.549 2.652-3.196 4.077-4.704a1.761 1.761 0 00.76-1.168 3.516 3.516 0 01.251-1.495c.19-.472.482-.893.854-1.236.183-.201.29-.46.301-.736a1.226 1.226 0 00-.236-.774.916.916 0 00-.708-.637.872.872 0 00-.485.049.848.848 0 00-.377.3 7.88 7.88 0 00-.693 1.244c-.507.928-.56.953-1.162-.1-.295-.512-.68-.376-1.08-.432-.705-.093-1.155.559-1.804.602-1.251-2.282-1.412-1.61-3.106-.053-.51-.395-.575-.999-.714-1.553-.383-1.48-1.316-1.859-2.445-.891-.572.492-1.013 1.2-1.53 1.72a1.284 1.284 0 01-.876.523c-.963-2.86-1.212-2.835-3.087-1.854a2.25 2.25 0 00-.217-1.053 2.298 2.298 0 00-.682-.842.787.787 0 00-.392-.164.756.756 0 00-.414.065.59.59 0 00-.312.302.613.613 0 00-.024.439c.998 4.316 1.134 8.734 1.637 13.092a43.58 43.58 0 01.114 11.353c-.322 2.187-.902 4.326-1.41 6.475-.128.561-.21 1.23-.848 1.472-.385.153-1.908-.987-2.137-1.476a2.942 2.942 0 01-.074-1.652c.2-1.917.375-3.837.612-5.744a14.82 14.82 0 00-.41-5.18 23.609 23.609 0 00-3.37-8.01 18.217 18.217 0 01-1.947-4.492 74.919 74.919 0 01-2.013-9.197c-.419-2.28.17-4.583.665-6.78a16.255 16.255 0 013.222-7.09c1.674-1.979 3.175-4.124 5.414-5.605a16.822 16.822 0 016.08-2.432 61.376 61.376 0 0113.006-1.312c5.242.106 9.484 2.058 12.71 6.302.17.251.362.487.573.703 3.15 3.064 4.385 6.878 4.734 11.07.373 2.576.556 5.17.547 7.763a24.495 24.495 0 01-1.4 6.639l-.032-.006zm-1.96-19.663a10.48 10.48 0 00-4.128-5.18 6.726 6.726 0 00-3.234-1.347 6.461 6.461 0 00-3.423.48 3.04 3.04 0 01-1.184.36 2.28 2.28 0 00-1.496.877.59.59 0 00-.243.462.626.626 0 00.21.49c1.263 1.227 2.367 2.69 3.913 3.555a9.44 9.44 0 014.087 5.102 22.492 22.492 0 011.623 8.968c-.018.64.05 1.539.688 1.743.39.066.788.023 1.148-.126.361-.15.67-.397.894-.717.147-.188.27-.395.365-.617.816-1.908 1.876-3.734 1.794-5.819.59-2.892-.132-5.662-1.014-8.23zm-.733 11.438a7.622 7.622 0 01-1.718 2.808 18.975 18.975 0 01-.5-3.709c-.429-3.774-1.315-7.364-4.096-10.267a6.588 6.588 0 00-1.502-1.299 11.911 11.911 0 01-2.664-2.486c-.49-.529-.519-.972.2-1.226 1.816-.664 3.603-1.115 5.522.054a9.85 9.85 0 014.68 5.984c.946 3.44 1.245 6.75.094 10.106l-.016.035zM36.088 19.43c-3.478 4.57-5.38 10.174-5.431 15.995.016.658.079 1.315.186 1.967a.555.555 0 00.32.38.474.474 0 00.526-.372c.07-.226.09-.467.058-.704a12.32 12.32 0 01.138-3.243 27.166 27.166 0 014.67-12.747c.59-.905 1.64-1.363 2.291-2.517a2.85 2.85 0 00-1.567.22c-.487.22-.9.573-1.191 1.021zM32.19 41.598c-.044-.24-.134-.51-.412-.517-.278-.006-.443.302-.452.584-.256 1.275.603 2.267.923 3.397a.677.677 0 00.316.314.654.654 0 00.439.046c.311-.086.344-.458.23-.731a19.505 19.505 0 01-1.044-3.093zm9.085-23.923c1.397-1.016 3.192-.773 4.645-1.501-1.73-.027-3.773-.961-4.645 1.501zm9.143-2.602a.378.378 0 00-.313.144.374.374 0 00-.061.343.536.536 0 00.409.28c.65-.027 1.304-.101 2.3-.198a2.593 2.593 0 00-1.103-.578 2.504 2.504 0 00-1.232.01zm5.639.17c-.06.038-.116.255-.053.303.272.268.612.454.98.538.37.084.751.061 1.102-.066l.122-.27c-.713-.264-1.26-1.023-2.154-.499l.003-.007zM38.924 55.938c.297-.035.328-.29.397-.535-.108-.53.162-1.236-.62-1.5a.427.427 0 00-.34.07.413.413 0 00-.169.302c-.098.534.423 1.709.73 1.67l.003-.007zM59.74 17.154c.405.193.775.597 1.29.398.075-.032.088-.194.132-.29a2.034 2.034 0 00-.692-.754 1.996 1.996 0 00-.965-.317.37.37 0 00-.218.275.636.636 0 00.453.688zM36.393 50.317a.451.451 0 00-.3.544.484.484 0 00.104.205 1.324 1.324 0 00.95.757c.374-.47.018-.884-.153-1.294a.449.449 0 00-.258-.237.431.431 0 00-.343.025z" fill="#543018" stroke="#543018" stroke-width="2" mask="url(#a)"/></svg>