<svg width="81" height="86" fill="none" xmlns="http://www.w3.org/2000/svg"><g clip-path="url(#clip0)"><mask id="a" fill="#fff"><path d="M79.954 19.984C76.906 7.764 66.212.746 54.104.18a28.066 28.066 0 00-16.598 4.33c-5.157 3.386-7.94 9.136-9.167 15.035-1.227 5.9-.349 11.926 1.803 17.41a32.827 32.827 0 004.551 8.03c-4.58 4.131-9.065 8.66-12.372 13.904a.957.957 0 00-.138.367c-3.006-.169-6.469 1.738-9.12 3.704a55.235 55.235 0 00-8.488 8.065c-.812.932-2.922 2.875-3.385 4.504a2.878 2.878 0 01-.733.915.637.637 0 00-.282.697 11.12 11.12 0 003.138 5.449 7.597 7.597 0 002.524 1.563 12.623 12.623 0 002.537 1.636c.105.05.222.07.337.055a.608.608 0 00.409-.15c.439-.386.86-.789 1.268-1.204a14.852 14.852 0 002.273-1.804 70.439 70.439 0 008.416-8.281 58.154 58.154 0 004.81-6.195h.083c.235 0 .343-.312.193-.45a13.384 13.384 0 001.647-3.41.752.752 0 00.529-.325 23.218 23.218 0 013.252-3.729.83.83 0 00.174-.042.167.167 0 00.12-.154.169.169 0 00-.011-.069 53.125 53.125 0 012.134-1.888c.2.016.4.016.6 0 .211 0 .301-.367.055-.403h-.138c2.368-2.009 4.749-4 6.528-6.615a.667.667 0 00.078-.674.514.514 0 00.133 0 17.523 17.523 0 004.845 2.742c6.547 2.406 14.145 1.54 20.391-1.335 11.747-5.46 16.46-19.984 13.454-31.874zM21.09 72.77c.09-.15-.108-.3-.247-.229l-.102-.072a83.546 83.546 0 011.683-1.437.167.167 0 00.139-.114l.054-.048.126-.109c-.565.668-1.1 1.33-1.653 2.01zm-2.531 2.869a5.844 5.844 0 00-.691-.367l.523-.602h.162l.036.885-.03.084zM4.743 73.37a60.091 60.091 0 016.469-6.742c3.607-3.272 11.734-9.7 14.909-2.664a.5.5 0 00.252.246 2.83 2.83 0 01-.108 1.023c-.042.108-.09.21-.145.318a5.838 5.838 0 00-2.218-2.093c-.234-.12-.439.229-.204.355a5.411 5.411 0 011.99 2.033.246.246 0 00.222.12c-.234.427-.487.83-.721 1.203a.6.6 0 01-.072.096 8.062 8.062 0 01-2.736-2.213s-.066 0-.048.042c.686.92 1.377 2.02 2.363 2.652-.372.4-.763.782-1.173 1.143a6.86 6.86 0 01-1.448-1.137 4.554 4.554 0 01-1.034-2.658.12.12 0 00-.192-.067.12.12 0 00-.043.067c0 1.498.722 3.524 2.152 4.294-.324.27-.649.53-.973.782-.39-.317-.764-.654-1.119-1.01a6.54 6.54 0 01-1.328-2.622c0-.079-.126-.043-.114 0a7.159 7.159 0 001.016 2.622 6.65 6.65 0 001.082 1.37l-1.684 1.24c-1.202-1.143-2.122-2.61-3.186-3.855-.066-.084-.18 0-.138.102a15.8 15.8 0 002.844 4.15l-.343.276c-.463.391-.902.806-1.329 1.203a9.363 9.363 0 01-3.138-3.572c-.078-.133-.264 0-.204.12.601 1.383 1.49 3.115 2.831 3.981a31.192 31.192 0 00-1.743 2.04 1.603 1.603 0 00-.168-.133.198.198 0 00-.259.066 28.787 28.787 0 01-3.36-3.933c-.085-.108-.247 0-.18.138.937 1.684 1.88 3.41 3.336 4.673a209.59 209.59 0 00-1.804 2.406 10 10 0 01-4.274-4.974.06.06 0 00-.114 0 9.622 9.622 0 004.015 5.49c-.474.602-.955 1.246-1.448 1.847a8.61 8.61 0 01-4.563-5.202.09.09 0 10-.174.048c.6 2.358 1.953 4.727 4.208 5.78-.193.222-.385.439-.601.649a7.331 7.331 0 01-.463-.204 11.812 11.812 0 01-2.195-1.444 13.77 13.77 0 01-2.921-3.428.12.12 0 00-.205.12 15.405 15.405 0 002.76 3.675 10.881 10.881 0 002.446 1.888c-.282.283-.6.56-.877.83l-.493-.258c.13-.05.254-.11.373-.18a.295.295 0 000-.506c-.812-.565-1.804-.601-2.706-1.022l-.3-.157a25.293 25.293 0 01-2.946-3.06c-.493-.746-1.202-1.913-.86-2.358.03-.036.048-.078.079-.12 1.31-.433 2.176-2.442 3.005-3.476zm9.018 7.132c.04-.005.08-.02.114-.042l-.367.367.253-.325zm.234-.168c.035-.06.05-.13.042-.199.601-.794 1.203-1.6 1.804-2.405a.361.361 0 00.354-.15c.072 0 .115-.03.09-.181a.393.393 0 000-.145c.451 0 .674-.42 1.089-.517.174-.036.114-.264-.042-.282a1.322 1.322 0 00-.572.066c.32-.391.638-.77.962-1.13.228.123.447.261.656.414-1.437 1.564-2.904 3.055-4.377 4.547l-.006-.018zm4.96-5.16v-.542a.246.246 0 00.03-.174c.072-.24.264-.283.54-.409a1.63 1.63 0 00.752-.854.6.6 0 00.24 0l.127.096c-.39.451-.781.908-1.202 1.353-.127.139-.313.331-.487.53zm16.327-20.147a5.37 5.37 0 01-2.098-2.19h-.054a4.715 4.715 0 001.803 2.472c-.745.65-1.502 1.293-2.254 1.943-.036 0-.078 0-.12-.048a3.698 3.698 0 01-1.437-1.57c-.09-.168-.33 0-.252.15.343.701.863 1.3 1.509 1.739-.728.601-1.437 1.28-2.122 1.96a.977.977 0 01-.115-.054 2.566 2.566 0 01-1.16-1.6.146.146 0 00-.18-.102.147.147 0 00-.102.18 3.007 3.007 0 001.021 1.709l.247.168c-.373.379-.74.776-1.082 1.203a7.353 7.353 0 01-1.142-.542 5.472 5.472 0 01-1.732-1.864.06.06 0 00-.071-.011.06.06 0 00-.03.066 5.96 5.96 0 001.64 2.062c.312.261.65.49 1.01.68-.294.366-.6.74-.853 1.13a1.479 1.479 0 00-.932-.637.096.096 0 00-.042 0c-.157-.133-.319-.253-.481-.38a5.261 5.261 0 00-2.309-1.863 147.398 147.398 0 0111.266-14 19.795 19.795 0 004.911 4.342.776.776 0 00-.45.325l-.054.078a5.885 5.885 0 01-2.76-1.9c-.084-.12-.288 0-.204.12a6.113 6.113 0 002.76 2.057 21.041 21.041 0 01-1.678 2.02 2.271 2.271 0 01-1.004-.192 2.561 2.561 0 01-1.329-1.804.09.09 0 00-.168.048 2.936 2.936 0 001.329 2.05c.243.143.507.248.781.313a52.573 52.573 0 01-2.062 1.943zm37.272-9.43c-5.699 6.23-14.38 8.492-22.574 7.217-6.161-.944-10.345-5.202-14.367-9.58a27.672 27.672 0 01-1.611-2.226A30.985 30.985 0 0129.92 30.7c-1.557-7.313 0-15.877 4.81-21.716C43.006-1.06 60.933-.367 70.485 7.253c11.59 9.31 11.728 27.772 2.038 38.345h.03z"/></mask><path d="M79.954 19.984C76.906 7.764 66.212.746 54.104.18a28.066 28.066 0 00-16.598 4.33c-5.157 3.386-7.94 9.136-9.167 15.035-1.227 5.9-.349 11.926 1.803 17.41a32.827 32.827 0 004.551 8.03c-4.58 4.131-9.065 8.66-12.372 13.904a.957.957 0 00-.138.367c-3.006-.169-6.469 1.738-9.12 3.704a55.235 55.235 0 00-8.488 8.065c-.812.932-2.922 2.875-3.385 4.504a2.878 2.878 0 01-.733.915.637.637 0 00-.282.697 11.12 11.12 0 003.138 5.449 7.597 7.597 0 002.524 1.563 12.623 12.623 0 002.537 1.636c.105.05.222.07.337.055a.608.608 0 00.409-.15c.439-.386.86-.789 1.268-1.204a14.852 14.852 0 002.273-1.804 70.439 70.439 0 008.416-8.281 58.154 58.154 0 004.81-6.195h.083c.235 0 .343-.312.193-.45a13.384 13.384 0 001.647-3.41.752.752 0 00.529-.325 23.218 23.218 0 013.252-3.729.83.83 0 00.174-.042.167.167 0 00.12-.154.169.169 0 00-.011-.069 53.125 53.125 0 012.134-1.888c.2.016.4.016.6 0 .211 0 .301-.367.055-.403h-.138c2.368-2.009 4.749-4 6.528-6.615a.667.667 0 00.078-.674.514.514 0 00.133 0 17.523 17.523 0 004.845 2.742c6.547 2.406 14.145 1.54 20.391-1.335 11.747-5.46 16.46-19.984 13.454-31.874zM21.09 72.77c.09-.15-.108-.3-.247-.229l-.102-.072a83.546 83.546 0 011.683-1.437.167.167 0 00.139-.114l.054-.048.126-.109c-.565.668-1.1 1.33-1.653 2.01zm-2.531 2.869a5.844 5.844 0 00-.691-.367l.523-.602h.162l.036.885-.03.084zM4.743 73.37a60.091 60.091 0 016.469-6.742c3.607-3.272 11.734-9.7 14.909-2.664a.5.5 0 00.252.246 2.83 2.83 0 01-.108 1.023c-.042.108-.09.21-.145.318a5.838 5.838 0 00-2.218-2.093c-.234-.12-.439.229-.204.355a5.411 5.411 0 011.99 2.033.246.246 0 00.222.12c-.234.427-.487.83-.721 1.203a.6.6 0 01-.072.096 8.062 8.062 0 01-2.736-2.213s-.066 0-.048.042c.686.92 1.377 2.02 2.363 2.652-.372.4-.763.782-1.173 1.143a6.86 6.86 0 01-1.448-1.137 4.554 4.554 0 01-1.034-2.658.12.12 0 00-.192-.067.12.12 0 00-.043.067c0 1.498.722 3.524 2.152 4.294-.324.27-.649.53-.973.782-.39-.317-.764-.654-1.119-1.01a6.54 6.54 0 01-1.328-2.622c0-.079-.126-.043-.114 0a7.159 7.159 0 001.016 2.622 6.65 6.65 0 001.082 1.37l-1.684 1.24c-1.202-1.143-2.122-2.61-3.186-3.855-.066-.084-.18 0-.138.102a15.8 15.8 0 002.844 4.15l-.343.276c-.463.391-.902.806-1.329 1.203a9.363 9.363 0 01-3.138-3.572c-.078-.133-.264 0-.204.12.601 1.383 1.49 3.115 2.831 3.981a31.192 31.192 0 00-1.743 2.04 1.603 1.603 0 00-.168-.133.198.198 0 00-.259.066 28.787 28.787 0 01-3.36-3.933c-.085-.108-.247 0-.18.138.937 1.684 1.88 3.41 3.336 4.673a209.59 209.59 0 00-1.804 2.406 10 10 0 01-4.274-4.974.06.06 0 00-.114 0 9.622 9.622 0 004.015 5.49c-.474.602-.955 1.246-1.448 1.847a8.61 8.61 0 01-4.563-5.202.09.09 0 10-.174.048c.6 2.358 1.953 4.727 4.208 5.78-.193.222-.385.439-.601.649a7.331 7.331 0 01-.463-.204 11.812 11.812 0 01-2.195-1.444 13.77 13.77 0 01-2.921-3.428.12.12 0 00-.205.12 15.405 15.405 0 002.76 3.675 10.881 10.881 0 002.446 1.888c-.282.283-.6.56-.877.83l-.493-.258c.13-.05.254-.11.373-.18a.295.295 0 000-.506c-.812-.565-1.804-.601-2.706-1.022l-.3-.157a25.293 25.293 0 01-2.946-3.06c-.493-.746-1.202-1.913-.86-2.358.03-.036.048-.078.079-.12 1.31-.433 2.176-2.442 3.005-3.476zm9.018 7.132c.04-.005.08-.02.114-.042l-.367.367.253-.325zm.234-.168c.035-.06.05-.13.042-.199.601-.794 1.203-1.6 1.804-2.405a.361.361 0 00.354-.15c.072 0 .115-.03.09-.181a.393.393 0 000-.145c.451 0 .674-.42 1.089-.517.174-.036.114-.264-.042-.282a1.322 1.322 0 00-.572.066c.32-.391.638-.77.962-1.13.228.123.447.261.656.414-1.437 1.564-2.904 3.055-4.377 4.547l-.006-.018zm4.96-5.16v-.542a.246.246 0 00.03-.174c.072-.24.264-.283.54-.409a1.63 1.63 0 00.752-.854.6.6 0 00.24 0l.127.096c-.39.451-.781.908-1.202 1.353-.127.139-.313.331-.487.53zm16.327-20.147a5.37 5.37 0 01-2.098-2.19h-.054a4.715 4.715 0 001.803 2.472c-.745.65-1.502 1.293-2.254 1.943-.036 0-.078 0-.12-.048a3.698 3.698 0 01-1.437-1.57c-.09-.168-.33 0-.252.15.343.701.863 1.3 1.509 1.739-.728.601-1.437 1.28-2.122 1.96a.977.977 0 01-.115-.054 2.566 2.566 0 01-1.16-1.6.146.146 0 00-.18-.102.147.147 0 00-.102.18 3.007 3.007 0 001.021 1.709l.247.168c-.373.379-.74.776-1.082 1.203a7.353 7.353 0 01-1.142-.542 5.472 5.472 0 01-1.732-1.864.06.06 0 00-.071-.011.06.06 0 00-.03.066 5.96 5.96 0 001.64 2.062c.312.261.65.49 1.01.68-.294.366-.6.74-.853 1.13a1.479 1.479 0 00-.932-.637.096.096 0 00-.042 0c-.157-.133-.319-.253-.481-.38a5.261 5.261 0 00-2.309-1.863 147.398 147.398 0 0111.266-14 19.795 19.795 0 004.911 4.342.776.776 0 00-.45.325l-.054.078a5.885 5.885 0 01-2.76-1.9c-.084-.12-.288 0-.204.12a6.113 6.113 0 002.76 2.057 21.041 21.041 0 01-1.678 2.02 2.271 2.271 0 01-1.004-.192 2.561 2.561 0 01-1.329-1.804.09.09 0 00-.168.048 2.936 2.936 0 001.329 2.05c.243.143.507.248.781.313a52.573 52.573 0 01-2.062 1.943zm37.272-9.43c-5.699 6.23-14.38 8.492-22.574 7.217-6.161-.944-10.345-5.202-14.367-9.58a27.672 27.672 0 01-1.611-2.226A30.985 30.985 0 0129.92 30.7c-1.557-7.313 0-15.877 4.81-21.716C43.006-1.06 60.933-.367 70.485 7.253c11.59 9.31 11.728 27.772 2.038 38.345h.03z" fill="#543018" stroke="#543018" stroke-width="2" mask="url(#a)"/><mask id="b" fill="#fff"><path d="M8.627 86a.744.744 0 01-.319-.072 13.09 13.09 0 01-2.549-1.642 7.724 7.724 0 01-2.549-1.588A11.259 11.259 0 010 77.178a.788.788 0 01.343-.855 2.79 2.79 0 00.697-.872c.36-1.299 1.803-2.838 2.777-3.855a7.38 7.38 0 00.601-.667 54.71 54.71 0 018.507-8.089c1.966-1.455 5.74-3.861 9.09-3.74.03-.103.074-.2.132-.29 3.522-5.598 8.416-10.331 12.293-13.832a32.938 32.938 0 01-4.478-7.962c-2.309-5.942-2.91-11.992-1.768-17.513.992-4.811 3.403-11.3 9.228-15.119A28.21 28.21 0 0154.104.03a30.05 30.05 0 0116.412 5.563 25.217 25.217 0 019.618 14.355 30.923 30.923 0 01-1.202 18.44c-2.44 6.2-6.823 11.01-12.354 13.555-6.715 3.079-14.38 3.578-20.53 1.34a17.348 17.348 0 01-4.718-2.64.866.866 0 01-.169.536c-1.731 2.526-4.07 4.51-6.33 6.429a.313.313 0 01.12.258.403.403 0 01-.336.385 3.456 3.456 0 01-.56 0 53.765 53.765 0 00-2.02 1.805.277.277 0 010 .138.355.355 0 01-.186.174.66.66 0 01-.156.036 22.435 22.435 0 00-3.198 3.675.92.92 0 01-.53.373 13.702 13.702 0 01-1.604 3.331.44.44 0 010 .38.361.361 0 01-.385.228 57.892 57.892 0 01-4.773 6.116 70.666 70.666 0 01-8.416 8.3c-.103.078-.235.204-.397.354a10.686 10.686 0 01-1.882 1.456c-.48.48-.877.86-1.256 1.202a.757.757 0 01-.511.187L8.627 86zm13.195-26.606c-3.204 0-6.781 2.291-8.669 3.687a54.72 54.72 0 00-8.464 8.046c-.162.187-.379.415-.601.68-.944.992-2.369 2.496-2.73 3.765-.19.381-.459.719-.787.992a.493.493 0 00-.228.541 11.007 11.007 0 003.096 5.377 7.381 7.381 0 002.47 1.527h.042a12.93 12.93 0 002.513 1.624c.081.037.17.05.259.036a.469.469 0 00.324-.114c.38-.331.776-.71 1.257-1.203h.036a10.218 10.218 0 001.84-1.42c.168-.156.306-.282.408-.366a70.579 70.579 0 008.38-8.263 57.642 57.642 0 004.81-6.17l.054-.079h.156a.074.074 0 00.059-.002.07.07 0 00.037-.046.138.138 0 000-.138l-.096-.085.066-.108a12.712 12.712 0 001.6-3.392v-.102h.101a.6.6 0 00.427-.258 22.611 22.611 0 013.307-3.783h.042c.05.005.1.005.15 0l-.036-.097.096-.096c.601-.601 1.287-1.203 2.14-1.894l.042-.042h.066c.187.015.373.015.56 0a.102.102 0 00.06-.042.16.16 0 000-.06h-.157l-.342-.043.457-.385c2.296-1.99 4.629-3.957 6.348-6.47a.517.517 0 00.066-.53l-.102-.186h.281l.084-.036.073.054a17.29 17.29 0 004.809 2.724c6.102 2.177 13.682 1.69 20.3-1.365 5.46-2.514 9.794-7.27 12.198-13.393a30.623 30.623 0 001.203-18.259 24.88 24.88 0 00-9.493-14.187A29.72 29.72 0 0054.068.331 27.843 27.843 0 0037.59 4.637c-5.729 3.782-8.133 10.2-9.101 14.932-1.136 5.461-.517 11.427 1.803 17.327a32.68 32.68 0 004.527 7.998l.084.108-.102.097c-3.89 3.506-8.813 8.257-12.348 13.868a.8.8 0 00-.114.307v.138h-.138a3.495 3.495 0 00-.379-.018zM8.597 84.689l-.09-.042c-.169-.09-.337-.175-.5-.271l-.288-.156.306-.115c.123-.044.241-.098.355-.162a.126.126 0 00.066-.108.175.175 0 00-.078-.145 5 5 0 00-1.557-.637 7.276 7.276 0 01-1.124-.379 3.623 3.623 0 01-.265-.132H5.38a25.052 25.052 0 01-3.005-3.097c-.878-1.335-1.149-2.141-.86-2.538l.036-.066.06-.097h.054c.878-.294 1.57-1.37 2.182-2.327.265-.403.505-.782.752-1.083a59.87 59.87 0 016.486-6.76c4.81-4.36 8.867-6.35 11.663-5.767 1.515.319 2.687 1.377 3.486 3.152.036.078.1.14.18.174l.079.036v.09c.027.361-.012.724-.114 1.07-.048.127-.102.235-.15.344l-.109.21-.114.21c-.216.403-.463.794-.673 1.137l-.21.283-.109-.06a9.106 9.106 0 01-1.575-1.017c.364.482.805.9 1.305 1.24l.15.095-.12.133c-.355.385-.758.77-1.203 1.148l-.084.079-.3-.199a5.792 5.792 0 01-1.28-1.028 4.367 4.367 0 01-.866-1.925c.216 1.3.925 2.695 2.007 3.284l.193.102-.169.145c-.324.27-.655.529-.98.781l-.102.079-.09-.085a6.903 6.903 0 00-.39-.343 6.838 6.838 0 01-.74-.703 7.68 7.68 0 01-.385-.493l.199.33c.295.49.65.94 1.058 1.342l.132.12-.144.108-1.034.77-.638.475-.102.072-.09-.084a20.412 20.412 0 01-2.068-2.406 59.971 59.971 0 00-.751-.974 14.862 14.862 0 002.537 3.572l.12.12-.205.163-.264.21a24.79 24.79 0 00-1.323 1.203l-.084.085-.102-.06a9.23 9.23 0 01-2.946-3.2c.638 1.33 1.437 2.724 2.597 3.47l.15.102-.12.127c-.6.601-1.148 1.28-1.737 2.026l-.096.12-.168-.132-.103-.084h-.06l-.114.156-.12-.102a23.132 23.132 0 01-2.886-3.338 4.428 4.428 0 01-.204-.264 15.365 15.365 0 003.084 4.21l.126.096-.084.114c-.433.565-.854 1.13-1.275 1.702l-.6.8-.121-.078a11.197 11.197 0 01-3.433-3.254A9.495 9.495 0 0012.71 79.8l.138.09-.096.127a51.374 51.374 0 01-1.455 1.852l-.072.09-.103-.048a8.418 8.418 0 01-4.154-4.137 7.77 7.77 0 003.746 4.492l.18.084-.132.15c-.193.223-.391.44-.601.65l-.073.078-.102-.042-.469-.21a11.278 11.278 0 01-2.218-1.462 12.628 12.628 0 01-2.326-2.52 14.989 14.989 0 002.158 2.665 10.645 10.645 0 002.404 1.858l.187.096-.145.145c-.282.282-.6.565-.883.841l-.096.09zm-.175-.427l.126.066c.223-.199.445-.403.65-.602A11.635 11.635 0 016.9 81.922a15.557 15.557 0 01-2.771-3.74.265.265 0 01.102-.355.26.26 0 01.36.084 13.602 13.602 0 002.892 3.386 10.9 10.9 0 002.135 1.431l.366.163.379-.421c-1.93-.987-3.415-3.086-4.094-5.792a.24.24 0 01.457-.132 8.51 8.51 0 004.37 5.07c.391-.487.806-1.005 1.275-1.63a9.725 9.725 0 01-3.914-5.473.21.21 0 01.397-.126 9.694 9.694 0 004.1 4.811l.427-.601c.39-.536.787-1.065 1.202-1.594-1.37-1.203-2.284-2.863-3.174-4.45l-.09-.163a.265.265 0 01.096-.36.246.246 0 01.337.047l.487.638a24.248 24.248 0 002.789 3.235.313.313 0 01.33 0l.067.049a30.64 30.64 0 011.539-1.805c-1.263-.896-2.092-2.49-2.742-3.95a.277.277 0 01.222-.39.254.254 0 01.247.137 9.404 9.404 0 003.006 3.458c.445-.44.854-.818 1.256-1.155l.217-.174a15.925 15.925 0 01-2.741-4.042.241.241 0 01.09-.319.21.21 0 01.294.049c.391.457.776.956 1.143 1.437.571.817 1.2 1.593 1.881 2.321l.535-.397.89-.661a7.45 7.45 0 01-.974-1.281 7.217 7.217 0 01-1.034-2.652.203.203 0 01.087-.216.204.204 0 01.075-.03.197.197 0 01.24.15 5.682 5.682 0 002.009 3.229l.3.264.704-.565c-1.365-.872-2.068-2.838-2.038-4.318a.257.257 0 01.252-.264.276.276 0 01.283.252 4.39 4.39 0 00.998 2.586c.353.381.758.711 1.202.98l.102.067c.343-.307.662-.602.956-.927a8.769 8.769 0 01-1.918-2.123c-.114-.156-.222-.312-.336-.463a.175.175 0 01.072-.246.174.174 0 01.246 0 7.737 7.737 0 002.573 2.11l.036-.053c.193-.313.391-.602.602-.963a.367.367 0 01-.133-.138 5.285 5.285 0 00-1.93-1.972.338.338 0 01-.138-.464.363.363 0 01.487-.156 5.952 5.952 0 012.128 1.913v-.067a2.84 2.84 0 00.102-.866.661.661 0 01-.246-.282c-.758-1.678-1.858-2.683-3.276-2.977-2.688-.566-6.613 1.401-11.422 5.695a59.712 59.712 0 00-6.415 6.754c-.234.288-.475.667-.733 1.064-.601.974-1.335 2.075-2.29 2.406a.332.332 0 01-.055.084c-.108.156-.144.65.866 2.19a25.176 25.176 0 002.922 3.006l.24.126c.353.147.717.268 1.088.361a5.138 5.138 0 011.647.68.463.463 0 01.205.397.433.433 0 01-.217.36l-.108.103zm15.342-20.628c-.03 0-.048 0-.054.036-.006.036 0 .054 0 .06a5.532 5.532 0 012.14 2.063s0 .036.096.042h.198l-.12-.192a5.683 5.683 0 00-2.158-2.04l-.102.03zM13.34 81.243l.198-.361-.138-.126.282-.367h.054c.02.004.04.004.06 0l.055-.036v-.036a.139.139 0 000-.103v-.06l.036-.054c.45-.601.896-1.203 1.34-1.804l.5-.674h.09a.246.246 0 00.21-.096l.054-.078V77.4a.469.469 0 000-.09v-.163h.156a.98.98 0 00.53-.234c.156-.13.338-.224.534-.277a1.377 1.377 0 00-.54.072l-.464.139.307-.38c.313-.39.643-.775.968-1.136l.078-.084.174-.193c.145-.156.283-.312.427-.463l.06-.06h.355l.042 1.07-.072.175h-.108l.078.06-.114.127a169.576 169.576 0 01-3.517 3.674l-1.635 1.606zm2.555-3.338l-.391.53-.517.703c.625-.638 1.248-1.28 1.87-1.925-.132.09-.279.155-.433.193a.325.325 0 01-.072.27.181.181 0 01-.103.055.517.517 0 01-.354.174zm1.298-1.594h.15a.337.337 0 01.223.139l.601-.602a7.163 7.163 0 00-.39-.252 12.67 12.67 0 00-.602.715h.018zm.92-1.124l.313.168v-.481c-.115.102-.21.21-.313.3v.013zm.667.403v-1.059a.108.108 0 000-.078v-.066a.716.716 0 01.487-.445l.132-.06c.317-.166.56-.445.68-.782l.048-.102h.114a.368.368 0 00.168 0h.072l.325.228-.108.126-1.203 1.36-.318.354-.397.524zm.349-.945v.12l.252-.282c.114-.126.229-.253.337-.385l-.102.054-.139.066c-.192.085-.27.12-.306.229a.553.553 0 01-.042.198zm1.996-1.72l-.084-.036-.043-.06-.114-.078.096-.096-.102.084-.108-.048a.659.659 0 01-.102-.078l-.15-.109.138-.12a64.172 64.172 0 011.683-1.443h.078v-.036l.229-.199 1.094-.914-.896 1.059a60.288 60.288 0 01-1.617 1.984l-.102.09zm-.078-.559a.27.27 0 01.102.066c.162-.186.318-.379.48-.601-.204.198-.402.367-.588.535h.006zm6.654-9.574l-.12-.199a1.293 1.293 0 00-.823-.565h-.121l-.475-.373h-.03a5.14 5.14 0 00-2.242-1.804l-.174-.072.108-.15a148.008 148.008 0 0111.272-14.097l.12-.133.108.133a19.475 19.475 0 004.875 4.306l.307.186-.343.09a.601.601 0 00-.366.265l-.127.174-.108-.036a8.417 8.417 0 01-1.046-.463c.308.172.625.327.95.463l.174.072-.108.157c-.511.71-1.065 1.39-1.66 2.033l-.041.042h-.066a2.471 2.471 0 01-1.094-.205 1.475 1.475 0 01-.27-.15c.076.063.156.121.24.174.23.134.48.234.739.295l.252.066-.18.187a43.128 43.128 0 01-2.068 1.948l-.084.078-.102-.066a8.71 8.71 0 01-1.203-.95c.296.388.648.729 1.047 1.01l.15.114-.139.12c-.426.374-.847.74-1.274 1.101l-.986.848-.072.066-.09-.042h-.036a.282.282 0 01-.09-.036 3.693 3.693 0 01-1.491-1.63 4.427 4.427 0 001.448 1.672l.169.109-.15.132a41.164 41.164 0 00-2.11 1.955l-.079.078-.138-.072a.229.229 0 01-.078-.037 2.689 2.689 0 01-1.22-1.69c.123.64.46 1.22.955 1.642l.235.163.156.096-.126.132A13.5 13.5 0 0029 61.132l-.072.084-.199-.084a6.155 6.155 0 01-1.064-.511l-.162-.108.144.12c.304.255.635.477.986.661l.162.085-.114.144c-.318.39-.6.758-.847 1.118l-.133.15zm-.913-1.065c.342.08.652.263.89.524.192-.265.396-.542.6-.824a5.828 5.828 0 01-.877-.602 6.014 6.014 0 01-1.683-2.11.217.217 0 01.09-.277.204.204 0 01.276.078 5.358 5.358 0 001.69 1.804c.32.194.658.357 1.01.487.27-.319.565-.637.895-.98l-.102-.072a3.085 3.085 0 01-1.076-1.804.29.29 0 01.204-.355.294.294 0 01.367.198 2.46 2.46 0 001.088 1.51 47.363 47.363 0 011.906-1.768 4.624 4.624 0 01-1.395-1.684.3.3 0 01.132-.403.27.27 0 01.385.114c.298.63.777 1.155 1.377 1.51l.913-.794c.38-.325.758-.644 1.13-.975a4.811 4.811 0 01-1.707-2.405.186.186 0 01.115-.223l.132-.048.09.145a5.069 5.069 0 001.948 2.056 60.087 60.087 0 001.803-1.684 2.639 2.639 0 01-.6-.258 3.085 3.085 0 01-1.402-2.147.246.246 0 01.187-.283.22.22 0 01.174.025.224.224 0 01.102.144 2.471 2.471 0 001.34 1.696c.277.121.577.183.879.18a20.486 20.486 0 001.508-1.804 6.012 6.012 0 01-2.645-2.039.242.242 0 01-.01-.28.24.24 0 01.07-.069.276.276 0 01.385.054 5.578 5.578 0 002.585 1.805.915.915 0 01.24-.241 20.124 20.124 0 01-4.592-4.09 147.102 147.102 0 00-11.038 13.73 5.454 5.454 0 012.189 1.805l.427.354zm27.55-8.407a29.236 29.236 0 01-4.43-.343c-6.011-.926-10.123-4.907-14.428-9.622a27.185 27.185 0 01-1.623-2.25 31.148 31.148 0 01-4.1-10.356c-1.647-7.716.247-16.292 4.81-21.842 8.416-10.176 26.535-9.28 35.96-1.75 5.267 4.21 8.471 10.482 9.018 17.693.62 7.667-1.996 15.444-6.907 20.856-4.497 4.907-11.116 7.614-18.281 7.614h-.018zM52.65 1.678c-6.84 0-13.574 2.279-17.848 7.415-4.52 5.485-6.39 13.964-4.743 21.578a30.714 30.714 0 004.058 10.224 26.73 26.73 0 001.599 2.213c4.292 4.667 8.326 8.612 14.277 9.526 8.705 1.335 17.097-1.347 22.441-7.18 4.882-5.335 7.443-13.045 6.854-20.628-.56-7.127-3.728-13.334-8.922-17.483-4.568-3.59-11.181-5.665-17.716-5.665z"/></mask><path d="M8.627 86a.744.744 0 01-.319-.072 13.09 13.09 0 01-2.549-1.642 7.724 7.724 0 01-2.549-1.588A11.259 11.259 0 010 77.178a.788.788 0 01.343-.855 2.79 2.79 0 00.697-.872c.36-1.299 1.803-2.838 2.777-3.855a7.38 7.38 0 00.601-.667 54.71 54.71 0 018.507-8.089c1.966-1.455 5.74-3.861 9.09-3.74.03-.103.074-.2.132-.29 3.522-5.598 8.416-10.331 12.293-13.832a32.938 32.938 0 01-4.478-7.962c-2.309-5.942-2.91-11.992-1.768-17.513.992-4.811 3.403-11.3 9.228-15.119A28.21 28.21 0 0154.104.03a30.05 30.05 0 0116.412 5.563 25.217 25.217 0 019.618 14.355 30.923 30.923 0 01-1.202 18.44c-2.44 6.2-6.823 11.01-12.354 13.555-6.715 3.079-14.38 3.578-20.53 1.34a17.348 17.348 0 01-4.718-2.64.866.866 0 01-.169.536c-1.731 2.526-4.07 4.51-6.33 6.429a.313.313 0 01.12.258.403.403 0 01-.336.385 3.456 3.456 0 01-.56 0 53.765 53.765 0 00-2.02 1.805.277.277 0 010 .138.355.355 0 01-.186.174.66.66 0 01-.156.036 22.435 22.435 0 00-3.198 3.675.92.92 0 01-.53.373 13.702 13.702 0 01-1.604 3.331.44.44 0 010 .38.361.361 0 01-.385.228 57.892 57.892 0 01-4.773 6.116 70.666 70.666 0 01-8.416 8.3c-.103.078-.235.204-.397.354a10.686 10.686 0 01-1.882 1.456c-.48.48-.877.86-1.256 1.202a.757.757 0 01-.511.187L8.627 86zm13.195-26.606c-3.204 0-6.781 2.291-8.669 3.687a54.72 54.72 0 00-8.464 8.046c-.162.187-.379.415-.601.68-.944.992-2.369 2.496-2.73 3.765-.19.381-.459.719-.787.992a.493.493 0 00-.228.541 11.007 11.007 0 003.096 5.377 7.381 7.381 0 002.47 1.527h.042a12.93 12.93 0 002.513 1.624c.081.037.17.05.259.036a.469.469 0 00.324-.114c.38-.331.776-.71 1.257-1.203h.036a10.218 10.218 0 001.84-1.42c.168-.156.306-.282.408-.366a70.579 70.579 0 008.38-8.263 57.642 57.642 0 004.81-6.17l.054-.079h.156a.074.074 0 00.059-.002.07.07 0 00.037-.046.138.138 0 000-.138l-.096-.085.066-.108a12.712 12.712 0 001.6-3.392v-.102h.101a.6.6 0 00.427-.258 22.611 22.611 0 013.307-3.783h.042c.05.005.1.005.15 0l-.036-.097.096-.096c.601-.601 1.287-1.203 2.14-1.894l.042-.042h.066c.187.015.373.015.56 0a.102.102 0 00.06-.042.16.16 0 000-.06h-.157l-.342-.043.457-.385c2.296-1.99 4.629-3.957 6.348-6.47a.517.517 0 00.066-.53l-.102-.186h.281l.084-.036.073.054a17.29 17.29 0 004.809 2.724c6.102 2.177 13.682 1.69 20.3-1.365 5.46-2.514 9.794-7.27 12.198-13.393a30.623 30.623 0 001.203-18.259 24.88 24.88 0 00-9.493-14.187A29.72 29.72 0 0054.068.331 27.843 27.843 0 0037.59 4.637c-5.729 3.782-8.133 10.2-9.101 14.932-1.136 5.461-.517 11.427 1.803 17.327a32.68 32.68 0 004.527 7.998l.084.108-.102.097c-3.89 3.506-8.813 8.257-12.348 13.868a.8.8 0 00-.114.307v.138h-.138a3.495 3.495 0 00-.379-.018zM8.597 84.689l-.09-.042c-.169-.09-.337-.175-.5-.271l-.288-.156.306-.115c.123-.044.241-.098.355-.162a.126.126 0 00.066-.108.175.175 0 00-.078-.145 5 5 0 00-1.557-.637 7.276 7.276 0 01-1.124-.379 3.623 3.623 0 01-.265-.132H5.38a25.052 25.052 0 01-3.005-3.097c-.878-1.335-1.149-2.141-.86-2.538l.036-.066.06-.097h.054c.878-.294 1.57-1.37 2.182-2.327.265-.403.505-.782.752-1.083a59.87 59.87 0 016.486-6.76c4.81-4.36 8.867-6.35 11.663-5.767 1.515.319 2.687 1.377 3.486 3.152.036.078.1.14.18.174l.079.036v.09c.027.361-.012.724-.114 1.07-.048.127-.102.235-.15.344l-.109.21-.114.21c-.216.403-.463.794-.673 1.137l-.21.283-.109-.06a9.106 9.106 0 01-1.575-1.017c.364.482.805.9 1.305 1.24l.15.095-.12.133c-.355.385-.758.77-1.203 1.148l-.084.079-.3-.199a5.792 5.792 0 01-1.28-1.028 4.367 4.367 0 01-.866-1.925c.216 1.3.925 2.695 2.007 3.284l.193.102-.169.145c-.324.27-.655.529-.98.781l-.102.079-.09-.085a6.903 6.903 0 00-.39-.343 6.838 6.838 0 01-.74-.703 7.68 7.68 0 01-.385-.493l.199.33c.295.49.65.94 1.058 1.342l.132.12-.144.108-1.034.77-.638.475-.102.072-.09-.084a20.412 20.412 0 01-2.068-2.406 59.971 59.971 0 00-.751-.974 14.862 14.862 0 002.537 3.572l.12.12-.205.163-.264.21a24.79 24.79 0 00-1.323 1.203l-.084.085-.102-.06a9.23 9.23 0 01-2.946-3.2c.638 1.33 1.437 2.724 2.597 3.47l.15.102-.12.127c-.6.601-1.148 1.28-1.737 2.026l-.096.12-.168-.132-.103-.084h-.06l-.114.156-.12-.102a23.132 23.132 0 01-2.886-3.338 4.428 4.428 0 01-.204-.264 15.365 15.365 0 003.084 4.21l.126.096-.084.114c-.433.565-.854 1.13-1.275 1.702l-.6.8-.121-.078a11.197 11.197 0 01-3.433-3.254A9.495 9.495 0 0012.71 79.8l.138.09-.096.127a51.374 51.374 0 01-1.455 1.852l-.072.09-.103-.048a8.418 8.418 0 01-4.154-4.137 7.77 7.77 0 003.746 4.492l.18.084-.132.15c-.193.223-.391.44-.601.65l-.073.078-.102-.042-.469-.21a11.278 11.278 0 01-2.218-1.462 12.628 12.628 0 01-2.326-2.52 14.989 14.989 0 002.158 2.665 10.645 10.645 0 002.404 1.858l.187.096-.145.145c-.282.282-.6.565-.883.841l-.096.09zm-.175-.427l.126.066c.223-.199.445-.403.65-.602A11.635 11.635 0 016.9 81.922a15.557 15.557 0 01-2.771-3.74.265.265 0 01.102-.355.26.26 0 01.36.084 13.602 13.602 0 002.892 3.386 10.9 10.9 0 002.135 1.431l.366.163.379-.421c-1.93-.987-3.415-3.086-4.094-5.792a.24.24 0 01.457-.132 8.51 8.51 0 004.37 5.07c.391-.487.806-1.005 1.275-1.63a9.725 9.725 0 01-3.914-5.473.21.21 0 01.397-.126 9.694 9.694 0 004.1 4.811l.427-.601c.39-.536.787-1.065 1.202-1.594-1.37-1.203-2.284-2.863-3.174-4.45l-.09-.163a.265.265 0 01.096-.36.246.246 0 01.337.047l.487.638a24.248 24.248 0 002.789 3.235.313.313 0 01.33 0l.067.049a30.64 30.64 0 011.539-1.805c-1.263-.896-2.092-2.49-2.742-3.95a.277.277 0 01.222-.39.254.254 0 01.247.137 9.404 9.404 0 003.006 3.458c.445-.44.854-.818 1.256-1.155l.217-.174a15.925 15.925 0 01-2.741-4.042.241.241 0 01.09-.319.21.21 0 01.294.049c.391.457.776.956 1.143 1.437.571.817 1.2 1.593 1.881 2.321l.535-.397.89-.661a7.45 7.45 0 01-.974-1.281 7.217 7.217 0 01-1.034-2.652.203.203 0 01.087-.216.204.204 0 01.075-.03.197.197 0 01.24.15 5.682 5.682 0 002.009 3.229l.3.264.704-.565c-1.365-.872-2.068-2.838-2.038-4.318a.257.257 0 01.252-.264.276.276 0 01.283.252 4.39 4.39 0 00.998 2.586c.353.381.758.711 1.202.98l.102.067c.343-.307.662-.602.956-.927a8.769 8.769 0 01-1.918-2.123c-.114-.156-.222-.312-.336-.463a.175.175 0 01.072-.246.174.174 0 01.246 0 7.737 7.737 0 002.573 2.11l.036-.053c.193-.313.391-.602.602-.963a.367.367 0 01-.133-.138 5.285 5.285 0 00-1.93-1.972.338.338 0 01-.138-.464.363.363 0 01.487-.156 5.952 5.952 0 012.128 1.913v-.067a2.84 2.84 0 00.102-.866.661.661 0 01-.246-.282c-.758-1.678-1.858-2.683-3.276-2.977-2.688-.566-6.613 1.401-11.422 5.695a59.712 59.712 0 00-6.415 6.754c-.234.288-.475.667-.733 1.064-.601.974-1.335 2.075-2.29 2.406a.332.332 0 01-.055.084c-.108.156-.144.65.866 2.19a25.176 25.176 0 002.922 3.006l.24.126c.353.147.717.268 1.088.361a5.138 5.138 0 011.647.68.463.463 0 01.205.397.433.433 0 01-.217.36l-.108.103zm15.342-20.628c-.03 0-.048 0-.054.036-.006.036 0 .054 0 .06a5.532 5.532 0 012.14 2.063s0 .036.096.042h.198l-.12-.192a5.683 5.683 0 00-2.158-2.04l-.102.03zM13.34 81.243l.198-.361-.138-.126.282-.367h.054c.02.004.04.004.06 0l.055-.036v-.036a.139.139 0 000-.103v-.06l.036-.054c.45-.601.896-1.203 1.34-1.804l.5-.674h.09a.246.246 0 00.21-.096l.054-.078V77.4a.469.469 0 000-.09v-.163h.156a.98.98 0 00.53-.234c.156-.13.338-.224.534-.277a1.377 1.377 0 00-.54.072l-.464.139.307-.38c.313-.39.643-.775.968-1.136l.078-.084.174-.193c.145-.156.283-.312.427-.463l.06-.06h.355l.042 1.07-.072.175h-.108l.078.06-.114.127a169.576 169.576 0 01-3.517 3.674l-1.635 1.606zm2.555-3.338l-.391.53-.517.703c.625-.638 1.248-1.28 1.87-1.925-.132.09-.279.155-.433.193a.325.325 0 01-.072.27.181.181 0 01-.103.055.517.517 0 01-.354.174zm1.298-1.594h.15a.337.337 0 01.223.139l.601-.602a7.163 7.163 0 00-.39-.252 12.67 12.67 0 00-.602.715h.018zm.92-1.124l.313.168v-.481c-.115.102-.21.21-.313.3v.013zm.667.403v-1.059a.108.108 0 000-.078v-.066a.716.716 0 01.487-.445l.132-.06c.317-.166.56-.445.68-.782l.048-.102h.114a.368.368 0 00.168 0h.072l.325.228-.108.126-1.203 1.36-.318.354-.397.524zm.349-.945v.12l.252-.282c.114-.126.229-.253.337-.385l-.102.054-.139.066c-.192.085-.27.12-.306.229a.553.553 0 01-.042.198zm1.996-1.72l-.084-.036-.043-.06-.114-.078.096-.096-.102.084-.108-.048a.659.659 0 01-.102-.078l-.15-.109.138-.12a64.172 64.172 0 011.683-1.443h.078v-.036l.229-.199 1.094-.914-.896 1.059a60.288 60.288 0 01-1.617 1.984l-.102.09zm-.078-.559a.27.27 0 01.102.066c.162-.186.318-.379.48-.601-.204.198-.402.367-.588.535h.006zm6.654-9.574l-.12-.199a1.293 1.293 0 00-.823-.565h-.121l-.475-.373h-.03a5.14 5.14 0 00-2.242-1.804l-.174-.072.108-.15a148.008 148.008 0 0111.272-14.097l.12-.133.108.133a19.475 19.475 0 004.875 4.306l.307.186-.343.09a.601.601 0 00-.366.265l-.127.174-.108-.036a8.417 8.417 0 01-1.046-.463c.308.172.625.327.95.463l.174.072-.108.157c-.511.71-1.065 1.39-1.66 2.033l-.041.042h-.066a2.471 2.471 0 01-1.094-.205 1.475 1.475 0 01-.27-.15c.076.063.156.121.24.174.23.134.48.234.739.295l.252.066-.18.187a43.128 43.128 0 01-2.068 1.948l-.084.078-.102-.066a8.71 8.71 0 01-1.203-.95c.296.388.648.729 1.047 1.01l.15.114-.139.12c-.426.374-.847.74-1.274 1.101l-.986.848-.072.066-.09-.042h-.036a.282.282 0 01-.09-.036 3.693 3.693 0 01-1.491-1.63 4.427 4.427 0 001.448 1.672l.169.109-.15.132a41.164 41.164 0 00-2.11 1.955l-.079.078-.138-.072a.229.229 0 01-.078-.037 2.689 2.689 0 01-1.22-1.69c.123.64.46 1.22.955 1.642l.235.163.156.096-.126.132A13.5 13.5 0 0029 61.132l-.072.084-.199-.084a6.155 6.155 0 01-1.064-.511l-.162-.108.144.12c.304.255.635.477.986.661l.162.085-.114.144c-.318.39-.6.758-.847 1.118l-.133.15zm-.913-1.065c.342.08.652.263.89.524.192-.265.396-.542.6-.824a5.828 5.828 0 01-.877-.602 6.014 6.014 0 01-1.683-2.11.217.217 0 01.09-.277.204.204 0 01.276.078 5.358 5.358 0 001.69 1.804c.32.194.658.357 1.01.487.27-.319.565-.637.895-.98l-.102-.072a3.085 3.085 0 01-1.076-1.804.29.29 0 01.204-.355.294.294 0 01.367.198 2.46 2.46 0 001.088 1.51 47.363 47.363 0 011.906-1.768 4.624 4.624 0 01-1.395-1.684.3.3 0 01.132-.403.27.27 0 01.385.114c.298.63.777 1.155 1.377 1.51l.913-.794c.38-.325.758-.644 1.13-.975a4.811 4.811 0 01-1.707-2.405.186.186 0 01.115-.223l.132-.048.09.145a5.069 5.069 0 001.948 2.056 60.087 60.087 0 001.803-1.684 2.639 2.639 0 01-.6-.258 3.085 3.085 0 01-1.402-2.147.246.246 0 01.187-.283.22.22 0 01.174.025.224.224 0 01.102.144 2.471 2.471 0 001.34 1.696c.277.121.577.183.879.18a20.486 20.486 0 001.508-1.804 6.012 6.012 0 01-2.645-2.039.242.242 0 01-.01-.28.24.24 0 01.07-.069.276.276 0 01.385.054 5.578 5.578 0 002.585 1.805.915.915 0 01.24-.241 20.124 20.124 0 01-4.592-4.09 147.102 147.102 0 00-11.038 13.73 5.454 5.454 0 012.189 1.805l.427.354zm27.55-8.407a29.236 29.236 0 01-4.43-.343c-6.011-.926-10.123-4.907-14.428-9.622a27.185 27.185 0 01-1.623-2.25 31.148 31.148 0 01-4.1-10.356c-1.647-7.716.247-16.292 4.81-21.842 8.416-10.176 26.535-9.28 35.96-1.75 5.267 4.21 8.471 10.482 9.018 17.693.62 7.667-1.996 15.444-6.907 20.856-4.497 4.907-11.116 7.614-18.281 7.614h-.018zM52.65 1.678c-6.84 0-13.574 2.279-17.848 7.415-4.52 5.485-6.39 13.964-4.743 21.578a30.714 30.714 0 004.058 10.224 26.73 26.73 0 001.599 2.213c4.292 4.667 8.326 8.612 14.277 9.526 8.705 1.335 17.097-1.347 22.441-7.18 4.882-5.335 7.443-13.045 6.854-20.628-.56-7.127-3.728-13.334-8.922-17.483-4.568-3.59-11.181-5.665-17.716-5.665z" fill="#543018" stroke="#543018" stroke-width="2" mask="url(#b)"/><path d="M42.666 11.503h0l.002-.002c4.702-3.845 12.273-5.148 18.035-3.327a19.033 19.033 0 0111.043 9.37 19.046 19.046 0 011.257 14.432c-3.266 10.312-13.71 16.018-24.333 13.842-4.922-1.04-8.724-4.473-10.912-8.826-2.19-4.357-2.742-9.594-1.202-14.178l.028-.084-.002-.087a9.43 9.43 0 01.513-3.299 17.716 17.716 0 015.57-7.841zm16.1-3.289l-.58-.094v.014c-6.379-.863-13.798.999-17.96 6.316a18.832 18.832 0 00-2.037 3.224l.42.282c-2.198 5.382-2.293 12.01-.169 17.405 2.155 5.474 6.617 9.715 13.49 10.027h0c9.614.43 18.657-4.916 20.824-14.827 2.127-9.72-3.486-20.643-13.989-22.347zm-20.08 9.82a.314.314 0 01-.015-.036l.263.176h-.01a.24.24 0 01-.14-.029.246.246 0 01-.099-.112z" fill="#543018" stroke="#543018"/><mask id="c" fill="#fff"><path d="M53.22 46.909a22.935 22.935 0 01-4.683-.487c-4.502-.932-8.362-3.85-10.857-8.197a19.467 19.467 0 01-1.75-15.595 9.913 9.913 0 01.554-3.506A18.227 18.227 0 0142.255 11c4.767-3.904 12.624-5.353 18.636-3.447a19.307 19.307 0 0111.368 9.623 19.574 19.574 0 011.34 15.035 20.873 20.873 0 01-9.708 11.98 21.887 21.887 0 01-10.67 2.718zM42.447 11.228a17.976 17.976 0 00-5.68 8.017 9.69 9.69 0 00-.536 3.422v.054a19.12 19.12 0 001.726 15.366c2.44 4.263 6.222 7.126 10.64 8.04a21.869 21.869 0 0015.167-2.225 20.548 20.548 0 009.577-11.818 19.251 19.251 0 00-1.323-14.788 19.01 19.01 0 00-11.193-9.478c-5.952-1.87-13.683-.445-18.378 3.392v.018zm10.58 33.877h-1.081a13.949 13.949 0 01-11.627-6.76c-3.553-5.605-4.082-13.832-1.316-20.411 0-.037-.036-.067-.042-.073-.006-.006-.072-.03-.09 0l-.067.09-.048.06-.252-.156a18.185 18.185 0 011.996-3.163c3.817-4.895 10.965-7.295 18.209-6.122a16.191 16.191 0 0110.863 7.024 19.533 19.533 0 012.843 14.903c-1.936 8.822-9.654 14.608-19.387 14.608zm-14.036-27.55a.36.36 0 01.126.048.355.355 0 01.162.445c-2.729 6.519-2.206 14.608 1.293 20.135a13.674 13.674 0 0011.386 6.573c10.081.451 18.19-5.322 20.163-14.331a19.251 19.251 0 00-2.796-14.668 15.901 15.901 0 00-10.664-6.898c-7.136-1.155-14.17 1.202-17.92 6.014a17.84 17.84 0 00-1.75 2.682z"/></mask><path d="M53.22 46.909a22.935 22.935 0 01-4.683-.487c-4.502-.932-8.362-3.85-10.857-8.197a19.467 19.467 0 01-1.75-15.595 9.913 9.913 0 01.554-3.506A18.227 18.227 0 0142.255 11c4.767-3.904 12.624-5.353 18.636-3.447a19.307 19.307 0 0111.368 9.623 19.574 19.574 0 011.34 15.035 20.873 20.873 0 01-9.708 11.98 21.887 21.887 0 01-10.67 2.718zM42.447 11.228a17.976 17.976 0 00-5.68 8.017 9.69 9.69 0 00-.536 3.422v.054a19.12 19.12 0 001.726 15.366c2.44 4.263 6.222 7.126 10.64 8.04a21.869 21.869 0 0015.167-2.225 20.548 20.548 0 009.577-11.818 19.251 19.251 0 00-1.323-14.788 19.01 19.01 0 00-11.193-9.478c-5.952-1.87-13.683-.445-18.378 3.392v.018zm10.58 33.877h-1.081a13.949 13.949 0 01-11.627-6.76c-3.553-5.605-4.082-13.832-1.316-20.411 0-.037-.036-.067-.042-.073-.006-.006-.072-.03-.09 0l-.067.09-.048.06-.252-.156a18.185 18.185 0 011.996-3.163c3.817-4.895 10.965-7.295 18.209-6.122a16.191 16.191 0 0110.863 7.024 19.533 19.533 0 012.843 14.903c-1.936 8.822-9.654 14.608-19.387 14.608zm-14.036-27.55a.36.36 0 01.126.048.355.355 0 01.162.445c-2.729 6.519-2.206 14.608 1.293 20.135a13.674 13.674 0 0011.386 6.573c10.081.451 18.19-5.322 20.163-14.331a19.251 19.251 0 00-2.796-14.668 15.901 15.901 0 00-10.664-6.898c-7.136-1.155-14.17 1.202-17.92 6.014a17.84 17.84 0 00-1.75 2.682z" fill="#543018"/><path d="M48.537 46.422l.205-.979h-.002l-.203.979zM37.68 38.225l.868-.498-.003-.005-.865.503zM35.93 22.63l.955.299.05-.157-.004-.165-1 .024zm.554-3.506l-.943-.334-.001.004.944.33zm24.407-11.57l-.302.953.302-.954zm11.368 9.622l-.89.455.005.01.885-.465zm1.34 15.035l-.953-.302-.001.004.954.298zm-9.708 11.98l.482.875.007-.003-.49-.872zM42.447 11.228l.627.78.373-.301v-.479h-1zm-5.68 8.017l-.943-.334-.002.005.944.329zm-.536 3.422h1v-.025l-1 .025zm0 .054l.954.3.046-.147v-.153h-1zm1.726 15.366l.868-.497-.005-.007-.863.504zm10.64 8.04l.211-.977-.008-.002-.203.98zm15.167-2.225l.483.876.006-.003-.489-.873zm9.577-11.818l-.953-.301-.002.004.955.297zm-1.323-14.788l-.89.455.006.011.884-.466zM60.825 7.818l.301-.953h-.001l-.3.953zM42.447 11.21l-.632-.774-.368.3v.474h1zm9.499 33.895l-.024 1h.024v-1zm-11.627-6.76l.857-.515-.006-.01-.006-.01-.845.535zm-1.316-20.411l.922.387.078-.186v-.201h-1zm-.132-.073l.806.592.027-.038.024-.04-.857-.514zm-.067.09l.781.625.014-.016.012-.017-.807-.591zm-.048.06l-.526.851.754.467.553-.693-.78-.624zm-.252-.156l-.896-.443-.404.815.773.479.527-.85zm1.996-3.163l.786.618.002-.003-.788-.615zM58.709 8.57l.162-.987h-.002l-.16.987zm10.863 7.024l-.834.553.001.001.833-.554zm2.843 14.903l.977.214.001-.005-.978-.21zM39.117 17.603l-.525.851.027.016.027.015.471-.882zm.162.445l.923.386.003-.007.003-.007-.929-.372zm1.293 20.135l.855-.52-.005-.007-.005-.008-.845.535zm11.386 6.573l.044-.999h-.022l-.022.999zM72.12 30.425l.977.213v-.005l-.977-.208zm-2.796-14.668l-.833.553.833-.553zM58.661 8.859l.162-.987h-.003l-.16.987zm-17.92 6.014l.784.619.004-.005-.789-.614zm12.48 31.036a21.935 21.935 0 01-4.479-.466l-.41 1.958c1.608.336 3.245.507 4.887.508l.002-2zm-4.481-.466c-4.195-.869-7.825-3.59-10.192-7.716l-1.735.995c2.622 4.571 6.71 7.683 11.521 8.68l.406-1.96zm-10.195-7.72a18.468 18.468 0 01-2.386-7.223l-1.988.223a20.467 20.467 0 002.645 8.004l1.729-1.005zM36.159 30.5a18.47 18.47 0 01.726-7.571l-1.908-.597a20.467 20.467 0 00-.806 8.391l1.988-.223zm.772-7.893a8.916 8.916 0 01.497-3.152l-1.888-.66a10.913 10.913 0 00-.609 3.86l2-.048zm.495-3.148a17.227 17.227 0 015.455-7.68l-1.252-1.56a19.228 19.228 0 00-6.088 8.571l1.886.669zm5.463-7.686c4.497-3.682 12-5.074 17.7-3.266l.604-1.907c-6.324-2.005-14.535-.498-19.571 3.626l1.267 1.547zm17.7-3.266a18.305 18.305 0 016.304 3.48l1.293-1.526a20.308 20.308 0 00-6.993-3.86l-.604 1.906zm6.304 3.48a18.314 18.314 0 014.475 5.644l1.781-.91a20.315 20.315 0 00-4.963-6.26l-1.293 1.527zm4.481 5.655a18.575 18.575 0 012.066 7.006l1.993-.178a20.573 20.573 0 00-2.29-7.76l-1.769.932zm2.066 7.006a18.576 18.576 0 01-.794 7.26l1.907.605a20.576 20.576 0 00.88-8.043l-1.993.178zm-.795 7.265A19.872 19.872 0 0163.4 43.319l.98 1.744a21.873 21.873 0 0010.173-12.554l-1.91-.596zm-9.237 11.402a20.887 20.887 0 01-10.183 2.594l-.01 2c3.901.019 7.742-.96 11.158-2.843l-.965-1.751zM41.821 10.449a18.976 18.976 0 00-5.997 8.463l1.885.666a16.976 16.976 0 015.365-7.57l-1.253-1.56zm-5.999 8.467a10.693 10.693 0 00-.59 3.775l2-.049a8.692 8.692 0 01.479-3.069l-1.889-.657zm-.59 3.75v.055h2v-.054h-2zm.046-.245a20.118 20.118 0 00-.8 8.277l1.987-.224a18.119 18.119 0 01.72-7.454l-1.907-.599zm-.8 8.277a20.117 20.117 0 002.615 7.892l1.727-1.007a18.117 18.117 0 01-2.355-7.109l-1.987.224zm2.61 7.885c2.57 4.487 6.58 7.546 11.307 8.523l.405-1.958c-4.11-.85-7.662-3.517-9.975-7.558l-1.736.993zm11.298 8.522a22.869 22.869 0 0015.861-2.327l-.965-1.752a20.869 20.869 0 01-14.474 2.124l-.422 1.955zm15.867-2.33a21.548 21.548 0 0010.043-12.393l-1.91-.595a19.548 19.548 0 01-9.11 11.242l.977 1.745zm10.041-12.389a20.253 20.253 0 00.865-7.918l-1.992.179a18.25 18.25 0 01-.78 7.136l1.907.603zm.865-7.918a20.251 20.251 0 00-2.256-7.638l-1.77.932a18.25 18.25 0 012.034 6.885l1.992-.178zm-2.25-7.627a20.009 20.009 0 00-4.89-6.17l-1.293 1.526a18.011 18.011 0 014.402 5.554l1.781-.91zm-4.89-6.17a20 20 0 00-6.893-3.806l-.603 1.907a18.002 18.002 0 016.203 3.425l1.293-1.527zm-6.894-3.807c-6.262-1.968-14.345-.486-19.31 3.572l1.265 1.548C47.505 8.368 54.883 7 60.525 8.772l.6-1.908zM41.447 11.21v.018h2v-.018h-2zm11.58 32.895h-1.081v2h1.082v-2zm-1.058 0a12.95 12.95 0 01-6.202-1.75l-1.005 1.728a14.949 14.949 0 007.16 2.022l.047-2zm-6.202-1.75a12.955 12.955 0 01-4.59-4.525l-1.715 1.03a14.956 14.956 0 005.3 5.223l1.005-1.729zm-4.603-4.545c-3.363-5.305-3.89-13.184-1.24-19.489l-1.843-.775c-2.88 6.854-2.35 15.43 1.394 21.334l1.689-1.07zm-1.161-19.876a1.08 1.08 0 00-.224-.655c-.064-.083-.17-.184-.111-.125l-1.414 1.414c.065.066-.02-.017-.064-.074a.922.922 0 01-.187-.56h2zm-.335-.78a1.01 1.01 0 00-.383-.24 1.08 1.08 0 00-.601-.044 1.03 1.03 0 00-.671.477l1.715 1.029a.97.97 0 01-.628.45.92.92 0 01-.491-.03.91.91 0 01-.17-.082.987.987 0 01-.185-.146l1.414-1.414zm-1.604.116l-.066.09 1.613 1.183.066-.09-1.613-1.183zm-.04.057l-.049.06 1.562 1.25.048-.06-1.562-1.25zm1.259-.165l-.253-.157-1.053 1.7.253.157 1.053-1.7zm.117 1.137a17.183 17.183 0 011.886-2.99l-1.573-1.235a19.181 19.181 0 00-2.105 3.338l1.792.887zm1.888-2.992c3.548-4.55 10.298-6.877 17.261-5.75l.32-1.974c-7.525-1.219-15.07 1.253-19.158 6.494l1.577 1.23zm17.258-5.75a15.197 15.197 0 015.783 2.233l1.086-1.68a17.19 17.19 0 00-6.544-2.527l-.325 1.974zm5.783 2.233a15.2 15.2 0 014.41 4.357l1.666-1.106a17.198 17.198 0 00-4.99-4.93l-1.086 1.679zm4.41 4.358a18.53 18.53 0 012.778 6.797l1.965-.375a20.532 20.532 0 00-3.078-7.53l-1.665 1.108zm2.778 6.797a18.534 18.534 0 01-.08 7.343l1.956.418c.572-2.68.602-5.445.089-8.136l-1.965.375zm-.079 7.337c-1.823 8.311-9.09 13.823-18.41 13.823v2c10.146 0 18.316-6.06 20.364-15.394l-1.954-.428zM38.816 18.54a.637.637 0 01-.224-.085l1.05-1.702a1.36 1.36 0 00-.476-.182l-.35 1.97zm-.17-.054a.646.646 0 01-.302-.348l1.879-.685a1.355 1.355 0 00-.635-.731l-.942 1.764zm-.302-.348a.645.645 0 01.007-.46l1.857.743c.124-.31.13-.655.015-.968l-1.88.685zm.013-.475c-2.844 6.792-2.32 15.228 1.37 21.056l1.69-1.07c-3.309-5.227-3.83-12.968-1.215-19.214l-1.845-.772zm1.36 21.04a14.673 14.673 0 005.206 5.092l1-1.732a12.674 12.674 0 01-4.496-4.398l-1.71 1.038zm5.206 5.092a14.665 14.665 0 007.013 1.962l.044-2a12.666 12.666 0 01-6.057-1.694l-1 1.732zm6.99 1.961c10.502.47 19.095-5.57 21.184-15.117l-1.953-.427c-1.855 8.471-9.48 13.978-19.142 13.546l-.089 1.998zM73.1 30.633c.562-2.638.591-5.362.086-8.012l-1.964.375a18.252 18.252 0 01-.079 7.22l1.957.417zm.086-8.012a20.249 20.249 0 00-3.027-7.418l-1.666 1.107a18.25 18.25 0 012.729 6.686l1.964-.375zm-3.027-7.417a16.903 16.903 0 00-4.904-4.848l-1.086 1.68a14.903 14.903 0 014.324 4.274l1.666-1.106zm-4.904-4.848a16.897 16.897 0 00-6.43-2.484l-.326 1.973c2.02.333 3.95 1.079 5.67 2.19l1.086-1.678zM58.82 7.872c-7.415-1.2-14.847 1.229-18.868 6.387l1.577 1.23c3.48-4.465 10.116-6.752 16.972-5.642l.32-1.975zm-18.865 6.382c-.7.887-1.318 1.835-1.847 2.833l1.766.938a16.85 16.85 0 011.651-2.532l-1.57-1.239z" fill="#543018" mask="url(#c)"/><path d="M54.1 5.974l-.478-.004a36.893 36.893 0 013.249.023 99.717 99.717 0 01-2.037-.011l-.733-.008z" fill="#543018" stroke="#543018"/><mask id="d" fill="#fff"><path d="M33.16 31.459a.204.204 0 01-.198-.144c-2.585-7.464-1.143-14.163 4.208-19.384 5.404-5.316 13.033-7.463 22.64-6.326a.445.445 0 01.294.747.439.439 0 01-.295.137 40.92 40.92 0 01-5.001.144 32.275 32.275 0 00-6.403.355 18.682 18.682 0 00-9.835 5.04c-5.506 5.412-7.262 11.847-5.212 19.166a.205.205 0 01-.138.253l-.06.012zM54.976 5.61c-7.28 0-13.225 2.189-17.626 6.537a16.804 16.804 0 00-4.887 16.19c-.908-6.23 1.076-11.77 5.921-16.509a19.006 19.006 0 019.985-5.136 32.12 32.12 0 016.469-.36 41.69 41.69 0 004.96-.139c.108 0 .15-.084.15-.144 0-.06-.037-.132-.15-.15a41.66 41.66 0 00-4.822-.29z"/></mask><path d="M33.16 31.459a.204.204 0 01-.198-.144c-2.585-7.464-1.143-14.163 4.208-19.384 5.404-5.316 13.033-7.463 22.64-6.326a.445.445 0 01.294.747.439.439 0 01-.295.137 40.92 40.92 0 01-5.001.144 32.275 32.275 0 00-6.403.355 18.682 18.682 0 00-9.835 5.04c-5.506 5.412-7.262 11.847-5.212 19.166a.205.205 0 01-.138.253l-.06.012zM54.976 5.61c-7.28 0-13.225 2.189-17.626 6.537a16.804 16.804 0 00-4.887 16.19c-.908-6.23 1.076-11.77 5.921-16.509a19.006 19.006 0 019.985-5.136 32.12 32.12 0 016.469-.36 41.69 41.69 0 004.96-.139c.108 0 .15-.084.15-.144 0-.06-.037-.132-.15-.15a41.66 41.66 0 00-4.822-.29z" fill="#543018"/><path d="M33.16 31.459l.015 1 .091-.002.09-.017-.196-.981zm-.198-.144l.955-.294-.005-.017-.005-.017-.945.328zM37.17 11.93l.698.716.003-.003-.701-.713zm22.64-6.326l-.118.993.025.003.025.001.067-.997zm.414.445l-1-.002v.003l1-.001zm-.415.439l-.054-.999-.018.001-.017.002.09.996zm-5.001.144l-.044 1h.011l.033-1zm-6.403.355L48.251 6l-.009.001-.009.002.172.985zm-9.835 5.04l-.698-.716-.002.003.7.713zm-5.212 19.166l-.963.27.002.007.961-.277zm-.138.253l.196.98.045-.008.044-.013-.285-.96zm4.13-19.299l.682.731.01-.01.011-.01-.703-.711zm-4.887 16.19l-.973.232 1.962-.377-.99.145zm5.921-16.509l.7.715-.7-.715zm9.985-5.136l-.156-.987-.009.001-.009.002.174.984zm6.469-.36l-.046.999h.014l.032-1zm4.96-.139v-1h-.045l-.043.004.087.996zm0-.295l.155-.987-.019-.003-.02-.003-.117.993zM33.144 30.46a.79.79 0 01.48.152l-1.176 1.617c.21.154.465.235.726.23l-.03-1.999zm.48.152c.14.101.242.245.292.41l-1.911.587c.076.25.232.467.443.62l1.176-1.617zm.282.376c-2.468-7.125-1.091-13.41 3.961-18.34l-1.397-1.431c-5.648 5.51-7.156 12.625-4.454 20.426l1.89-.655zm3.964-18.343c5.132-5.048 12.427-7.158 21.82-6.046l.236-1.986c-9.82-1.162-17.782 1.022-23.459 6.607l1.403 1.425zm21.87-6.042a.555.555 0 01-.368-.175l1.463-1.364a1.445 1.445 0 00-.96-.456l-.134 1.995zm-.368-.175a.555.555 0 01-.149-.38l2 .005a1.447 1.447 0 00-.388-.989l-1.463 1.364zm-.149-.376a.56.56 0 01.153-.386L60.83 7.04c.253-.268.394-.622.393-.99l-2 .002zm.153-.386a.561.561 0 01.377-.175l.11 1.997c.368-.02.714-.18.967-.448l-1.454-1.374zm.343-.172a40.008 40.008 0 01-4.88.14l-.065 2c1.71.055 3.42.005 5.124-.148l-.18-1.992zm-4.868.141a33.276 33.276 0 00-6.6.366l.308 1.976a31.34 31.34 0 016.204-.344l.088-1.998zm-6.619.369a19.681 19.681 0 00-10.361 5.31l1.397 1.43a17.681 17.681 0 019.309-4.77l-.345-1.97zM37.87 11.315c-5.761 5.662-7.625 12.471-5.474 20.149l1.925-.54c-1.95-6.96-.302-13.02 4.95-18.183l-1.401-1.426zM32.397 31.47a.796.796 0 01.067-.602l1.754.96c.153-.278.19-.606.101-.911l-1.922.553zm.067-.602a.79.79 0 01.471-.38l.57 1.917c.304-.09.56-.298.713-.577l-1.754-.96zm.56-.403l-.06.012.392 1.962.06-.013-.392-1.96zM54.976 4.611c-7.49 0-13.707 2.259-18.329 6.826l1.406 1.422c4.179-4.129 9.853-6.248 16.923-6.248v-2zm-18.308 6.805a17.804 17.804 0 00-4.903 7.878l1.914.578a15.805 15.805 0 014.353-6.993l-1.364-1.463zm-4.903 7.878a17.809 17.809 0 00-.275 9.276l1.945-.464a15.81 15.81 0 01.244-8.234l-1.914-.578zm1.687 8.9c-.858-5.888.995-11.115 5.631-15.65l-1.398-1.43c-5.054 4.943-7.17 10.794-6.212 17.368l1.98-.288zm5.632-15.65a18.007 18.007 0 019.46-4.866l-.349-1.97a20.006 20.006 0 00-10.51 5.407l1.399 1.429zm9.441-4.863a31.12 31.12 0 016.267-.35l.091-1.998a33.12 33.12 0 00-6.67.373l.312 1.975zm6.28-.35c1.695.055 3.391.008 5.08-.14l-.175-1.993a40.31 40.31 0 01-4.84.135l-.064 1.999zm4.992-.137a1.144 1.144 0 001.15-1.144h-2a.856.856 0 01.85-.856v2zm1.15-1.144a1.14 1.14 0 00-.265-.733 1.182 1.182 0 00-.729-.405l-.312 1.975a.818.818 0 01-.492-.286.86.86 0 01-.201-.551h2zm-1.032-1.144a42.665 42.665 0 00-4.937-.295l-.004 2c1.573.003 3.144.097 4.706.282l.235-1.987z" fill="#543018" mask="url(#d)"/><path d="M77.223 21.885h0l-.001-.008a24.344 24.344 0 00-.808-3.955c.292.897.51 1.804.647 2.697 1.048 6.827-.349 14.566-4.31 20.267-.326.468-.667.916-1.022 1.345.444-.572.867-1.18 1.267-1.824a29.196 29.196 0 004.227-18.522zM66.116 7.798c2.68.42 4.989 1.899 6.807 3.944-2.012-2.054-4.281-2.994-6.807-3.944zm-13.86 41.626c-5.128-.656-10.053-2.94-13.678-6.673 3.925 3.472 8.911 5.81 13.985 6.58a24.18 24.18 0 003.516.278 24.166 24.166 0 01-3.822-.185z" fill="#543018" stroke="#543018"/><mask id="e" fill="#fff"><path d="M55.415 50.259c-.956 0-1.912-.055-2.862-.163-8.627-.974-15.852-6.236-18.888-13.736a.193.193 0 01.12-.276.217.217 0 01.277.078c4.208 7.457 12.96 12.581 21.707 12.75h.445c6.92 0 12.673-3.146 16.231-8.895a28.39 28.39 0 004.13-18.108c-.48-3.88-1.67-6.946-3.528-9.117-2.207-2.574-4.81-3.537-7.755-4.65l-.602-.234a.499.499 0 01-.312-.565.433.433 0 01.445-.36c4.124.101 7.021 2.47 8.729 4.437a18.503 18.503 0 014.148 9.051c1.136 7.38-.517 15.132-4.419 20.743-3.992 5.791-10.538 9.045-17.866 9.045zM34.53 37.533c3.247 6.706 10.046 11.36 18.035 12.263 8.35.944 16.003-2.316 20.44-8.727 3.859-5.545 5.488-13.23 4.37-20.52-1.293-8.419-7.454-13.11-12.588-13.23a.144.144 0 00-.157.114.199.199 0 00.127.229l.6.234c3.007 1.125 5.622 2.105 7.876 4.74 1.9 2.212 3.108 5.334 3.607 9.273.69 6.4-.793 12.845-4.208 18.3-3.607 5.84-9.468 9.021-16.49 9.021h-.457A26.688 26.688 0 0134.53 37.533z"/></mask><path d="M55.415 50.259c-.956 0-1.912-.055-2.862-.163-8.627-.974-15.852-6.236-18.888-13.736a.193.193 0 01.12-.276.217.217 0 01.277.078c4.208 7.457 12.96 12.581 21.707 12.75h.445c6.92 0 12.673-3.146 16.231-8.895a28.39 28.39 0 004.13-18.108c-.48-3.88-1.67-6.946-3.528-9.117-2.207-2.574-4.81-3.537-7.755-4.65l-.602-.234a.499.499 0 01-.312-.565.433.433 0 01.445-.36c4.124.101 7.021 2.47 8.729 4.437a18.503 18.503 0 014.148 9.051c1.136 7.38-.517 15.132-4.419 20.743-3.992 5.791-10.538 9.045-17.866 9.045zM34.53 37.533c3.247 6.706 10.046 11.36 18.035 12.263 8.35.944 16.003-2.316 20.44-8.727 3.859-5.545 5.488-13.23 4.37-20.52-1.293-8.419-7.454-13.11-12.588-13.23a.144.144 0 00-.157.114.199.199 0 00.127.229l.6.234c3.007 1.125 5.622 2.105 7.876 4.74 1.9 2.212 3.108 5.334 3.607 9.273.69 6.4-.793 12.845-4.208 18.3-3.607 5.84-9.468 9.021-16.49 9.021h-.457A26.688 26.688 0 0134.53 37.533z" fill="#543018"/><path d="M55.415 50.259l-.001 1v-1zm-2.862-.163l.113-.993-.113.993zM33.665 36.36l.927-.375-.02-.049-.025-.047-.882.471zm.12-.276l.257.966.093-.024.086-.042-.436-.9zm.277.078l.87-.492-.013-.024-.015-.023-.843.539zm21.707 12.75l-.019 1h.02v-1zm16.676-8.895l-.848-.53-.002.004.85.526zm4.13-18.108l.995-.109-.001-.007-.001-.007-.993.123zm-3.528-9.117l.76-.65-.001-.001-.76.65zm-7.755-4.65l-.364.932.01.004.354-.935zm-.602-.234l.364-.931-.01-.004-.353.935zm-.312-.565l.98.197.003-.016.003-.015-.986-.166zm9.174 4.077l.763-.646-.008-.01-.755.656zm4.148 9.051l.988-.152v-.004l-.988.156zm-4.42 20.743l-.821-.571-.002.003.823.568zm-20.716 8.582l.113-.994-.113.994zm20.44-8.727l-.821-.57-.002.001.822.57zm4.37-20.52l.988-.151-.988.152zM64.787 7.32l-.105.994.04.005h.041l.024-1zm-.157.114l.978.212.002-.01-.98-.202zm.127.229l.363-.932-.011-.004-.011-.004-.341.94zm.6.234l-.363.932.013.005.35-.937zm7.876 4.74l-.76.65h.001l.759-.65zm3.607 9.273l.994-.107v-.01l-.002-.009-.992.126zm-4.208 18.3l-.848-.53-.003.005.85.525zm-16.947 9.02l-.035 1h.035v-1zm-.27.029a24.6 24.6 0 01-2.75-.156l-.224 1.987c.987.112 1.98.168 2.973.169l.001-2zm-2.75-.156c-8.294-.937-15.187-5.987-18.073-13.118l-1.854.75c3.185 7.869 10.744 13.343 19.703 14.355l.224-1.987zM34.547 35.889c.057.108.09.227.094.348l-1.998.08c.007.18.055.356.14.514l1.764-.942zm.094.348a.808.808 0 01-.066.355l-1.834-.798a1.192 1.192 0 00-.098.524l1.998-.08zm-.066.355a.808.808 0 01-.214.29l-1.304-1.516a1.192 1.192 0 00-.316.428l1.834.798zm-.214.29a.808.808 0 01-.319.168l-.514-1.933a1.192 1.192 0 00-.471.249l1.304 1.516zm-.14.102a.784.784 0 01-.555.049l.544-1.925a1.217 1.217 0 00-.86.076l.87 1.8zm-.555.049a.784.784 0 01-.447-.332l1.685-1.078a1.217 1.217 0 00-.694-.515l-.544 1.925zm-.475-.38c4.387 7.776 13.47 13.083 22.56 13.258l.038-2c-8.405-.161-16.828-5.101-20.857-12.24l-1.741.982zm22.578 13.259h.445v-2h-.445v2zm.445 0c7.255 0 13.335-3.316 17.082-9.369l-1.7-1.052c-3.372 5.445-8.798 8.42-15.382 8.42v2zm17.08-9.366A29.39 29.39 0 0077.57 21.8l-1.989.218a27.389 27.389 0 01-3.984 17.47l1.697 1.058zm4.274-18.76c-.497-4.006-1.738-7.28-3.762-9.645l-1.52 1.3c1.692 1.978 2.832 4.838 3.297 8.59l1.985-.245zm-3.762-9.645c-2.395-2.795-5.24-3.83-8.161-4.934l-.707 1.871c2.97 1.122 5.332 2.01 7.35 4.364l1.518-1.301zm-8.15-4.93l-.602-.234-.727 1.863.601.234.727-1.863zm-.612-.238a.5.5 0 01.262.226l-1.75.968c.171.31.448.55.78.676l.709-1.87zm.262.226a.5.5 0 01.052.341l-1.96-.394a1.5 1.5 0 00.157 1.02l1.75-.967zm.058.31a.567.567 0 01-.202.346l-1.26-1.553c-.27.22-.452.531-.51.875l1.972.332zm-.202.346a.567.567 0 01-.38.126l.082-1.998a1.433 1.433 0 00-.962.319l1.26 1.553zm-.364.127c3.726.092 6.382 2.231 7.998 4.094l1.51-1.311c-1.797-2.07-4.937-4.67-9.458-4.783l-.05 2zm7.99 4.084a17.502 17.502 0 013.924 8.562l1.975-.313a19.502 19.502 0 00-4.372-9.54l-1.527 1.291zm3.923 8.558c1.101 7.15-.51 14.639-4.251 20.019l1.642 1.142c4.062-5.842 5.757-13.858 4.586-21.466l-1.977.305zm-4.253 20.022c-3.791 5.5-10.018 8.613-17.043 8.613v2c7.63 0 14.497-3.395 18.69-9.478l-1.647-1.135zM33.63 37.97c3.408 7.039 10.52 11.883 18.823 12.82l.224-1.987c-7.676-.867-14.162-5.332-17.246-11.705l-1.8.872zm18.823 12.82c8.68.982 16.708-2.408 21.374-9.15l-1.645-1.14c-4.207 6.08-11.484 9.209-19.505 8.302l-.224 1.987zm21.372-9.148c4.021-5.777 5.691-13.727 4.538-21.243l-1.977.303c1.084 7.062-.504 14.484-4.202 19.797l1.641 1.143zm4.538-21.243C77.01 11.573 70.5 6.452 64.81 6.319l-.047 2c4.578.107 10.393 4.368 11.623 12.382l1.977-.303zM64.891 6.324a1.144 1.144 0 00-.795.215l1.18 1.614a.856.856 0 01-.593.16l.208-1.989zm-.795.215a1.146 1.146 0 00-.445.691l1.959.406a.855.855 0 01-.333.517l-1.18-1.614zm-.443.683c-.061.283-.018.579.122.833l1.751-.967c.094.17.123.367.082.556l-1.955-.422zm.122.833c.14.253.368.448.64.547l.683-1.88a.801.801 0 01.428.366l-1.75.967zm.618.538l.601.235.727-1.863-.6-.235-.728 1.863zm.614.24c3.022 1.13 5.4 2.038 7.466 4.452l1.52-1.3c-2.443-2.854-5.295-3.907-8.285-5.025l-.7 1.873zm7.467 4.454c1.733 2.018 2.89 4.932 3.374 8.747l1.984-.25c-.515-4.064-1.774-7.392-3.84-9.8l-1.518 1.303zm3.372 8.729a27.696 27.696 0 01-4.062 17.663l1.695 1.061a29.696 29.696 0 004.355-18.938l-1.988.214zM71.78 39.684c-3.418 5.533-8.95 8.546-15.639 8.546v2c7.354 0 13.544-3.349 17.34-9.495l-1.701-1.051zM56.142 48.23h-.457v2h.457v-2zm-.422 0a25.69 25.69 0 01-11.527-3.191l-.968 1.75a27.69 27.69 0 0012.425 3.44l.07-1.998zm-11.527-3.19a25.7 25.7 0 01-8.835-8.067l-1.655 1.122a27.703 27.703 0 009.522 8.695l.968-1.75z" fill="#543018" mask="url(#e)"/></g><defs><clipPath id="clip0"><path fill="#fff" d="M0 0h81v86H0z"/></clipPath></defs></svg>