<svg width="216" height="227" fill="none" xmlns="http://www.w3.org/2000/svg"><path d="M21.38 101.159a90.682 90.682 0 015.72-26.3C33.09 59.16 44.347 44.827 59.338 36.77a27.566 27.566 0 018.442-4.62 48.991 48.991 0 0112.665-4.739c.301-.07.611-.078.911-.026.3.052.584.165.833.331a88.5 88.5 0 0115.57-1.88c18.595-.574 36.76 4.214 52.238 13.769 30.666 18.909 51.352 55.777 47.723 92.292-1.644 17.941-10.353 34.792-24.274 46.966a1.76 1.76 0 01-.193.677 1.837 1.837 0 01-.448.556 89.712 89.712 0 01-17.258 11.376c-.684.379-1.389.722-2.109 1.025a92.996 92.996 0 01-16.638 6.051c-5.78 3.202-13.623 3.907-19.683 4.361a89.365 89.365 0 01-23.306-1.471c-15.403-2.945-29.705-9.557-41.664-19.262C28 162.574 18.237 131.624 21.38 101.159zm139.206 79.5c8.588-5.15 15.807-12.267 21.008-20.71 5.095-8.337 8.548-17.496 10.174-26.982a111.307 111.307 0 001.684-15.256c-1.806-24.018-14.149-47.296-31.379-63.212-13.419-12.558-30.515-20.759-49.083-23.544a93.466 93.466 0 00-29.046.402l-2.832.49C66.085 35.572 54.365 46.175 47.41 59.695c-.873 1.668-1.629 3.39-2.312 5.108a80.228 80.228 0 00-1.942 13.791c-.047.83-.048 1.661-.067 2.483.267 5.405.844 10.78 1.729 16.1.304 2.011.67 3.976 1.079 5.93.787 2.654 1.654 5.387 2.306 8.15.062.24.043.497-.056.731a108.535 108.535 0 0016.035 32.316c9.37 13.085 21.715 27.335 36.477 34.743 7.634 3.837 16.443 5.609 24.857 7.159 4.291.883 8.644 1.498 13.034 1.84l.745.029c2.477-.551 5.042-.869 7.461-1.534a57.167 57.167 0 0013.851-5.859l-.021-.023zm-54.346 16.52a87.611 87.611 0 0019.478-.939c2.012.075 4.032.062 6.073-.043a137.878 137.878 0 004.28-2.039 58.5 58.5 0 01-8.82-1.641c-13.45-.295-26.214-5.475-36.685-13.565-12.639-9.756-26.12-21.492-33.48-35.764-3.46-6.721-6.318-13.935-9.358-20.87-3.12-7.143-6.015-14.504-6.812-22.343l.284-.406a83.522 83.522 0 01-1.248-20.973c.456-7.789 1.67-18.362 5.844-26.162-.766 1.023-1.574 2-2.384 2.963a38.145 38.145 0 01-5.085 5.78c-.162.36-.308.729-.453 1.097a69.095 69.095 0 00-4.093 7.349c-8.882 18.394-9.836 39.659-5.6 58.926 8.09 36.974 38.587 66.089 78.072 68.626l-.013.004z" fill="#F7F3EF"/><path d="M51.23 100.746a10.59 10.59 0 01.517-2.822l.051-.33c.11-.707.362-1.391.743-2.011.38-.62.88-1.163 1.472-1.598-3.044-2.569-3.956-7.82-4.105-11.483-.17-7.101 1.36-14.201 4.467-20.734.152-.343.318-.688.487-1.021 2.432-5.907 5.999-11.831 11.23-15.204a14.27 14.27 0 012.757-1.416 8.962 8.962 0 014.084-1.521 8.584 8.584 0 014.252.6c.48.188.948.402 1.4.643-.199-5.544 17.836-8.096 20.807-8.163 8.135-.178 20.303.283 26.328 6.6a13.704 13.704 0 014.224 5.61 5.443 5.443 0 013.155-2.14c3.738-1.393 7.918.741 10.896 2.681a68.787 68.787 0 0113.541 12.018c3.435 3.913 8.135 8.993 8.72 14.419a8.75 8.75 0 01-.065 2.256 3.168 3.168 0 011.48.004c10.342.435 15.966 31.674 16.587 37.248.559 4.542-.834 8.605-4.493 10.68 7.572 1.495.837 16.696-1.639 22.126a2.102 2.102 0 01-.264 1.507.55.55 0 01-.535.229c-2.584 5.948-9.686 24.276-18.384 20.257-1.488 9.011-17.447 10.029-24.277 10.1-5.032.047-12.626.797-16.921-2.282a9.867 9.867 0 01-3.583-7.031c-3.577 6.602-13.76 3.814-18.87.251a88.91 88.91 0 01-9.608-7.951l-1.322-1.224-.47-.462c-3.044-2.927-5.927-6.041-8.773-9.123a21.765 21.765 0 01-2.929-3.776 20.944 20.944 0 01-2.715-5.011 5.198 5.198 0 01-.407-2.88 5.52 5.52 0 011.2-2.715c-1.952-.179-3.624-1.739-4.975-3.557a84.174 84.174 0 01-9.906-17.429c-2.573-5.092-4.418-10.351-4.157-15.345zm3.173-1.828c-.766 1.153-.506 3.465-.142 5.42a109.86 109.86 0 0020.752 1.324c3.5-.022 7.02-.137 10.529-.305 1.972-.099 4.084-.409 6.164-.552-3.697-.657-7.353-1.568-10.964-2.477a.127.127 0 01-.026.094.135.135 0 01-.086.051c-3.88.698-8.327 1.678-12.058.285a64.918 64.918 0 01-10.959-6.053 5.711 5.711 0 00-3.21 2.213zm41.325 49.871l-.136.108c-.435 1.294-.84 2.594-1.284 3.847l-2.695 7.6c2.92-5.005 5.907-9.985 9.038-14.859a365.065 365.065 0 016.03-9.127 40.182 40.182 0 004.025-6.823c-3.747 4.236-9.138 7.02-12.045 12.021a37.25 37.25 0 00-2.86 6.754.336.336 0 01.061.251.362.362 0 01-.134.228zm15.365-20.621a35.108 35.108 0 013.609-11.505c.042-.312.066-.635.093-.943l.06-.175a4.078 4.078 0 00-1.086.034c-5.185 4.939-5.071 12.472-8.972 17.999 2.065-1.819 4.324-3.574 6.296-5.41zm5.749 15.145c.398 2.333.866 4.647 1.337 6.975-.3-4.512-.23-9.081-.499-13.587a459.024 459.024 0 00-.523-7.394l-.388-3.67a19.327 19.327 0 00-.372-3.904c-.322 2.469-.364 4.877-.419 5.853a183.218 183.218 0 00-.23 6.32c.102-.375.234-.741.395-1.097.064-.161.361-.097.321.043a43.818 43.818 0 00.378 10.461zm4.388-11.226c-.539-3.141-.752-6.285-1.108-9.404-.36-1.5-.594-3.03-.7-4.576l-.638-2.584a9.295 9.295 0 00-2.166 5.189c1.075.759.788 3.19.938 4.34.29 2.793.589 5.683.806 8.538.683 6.121.902 12.298.656 18.481a.337.337 0 01-.131.277.351.351 0 01-.301.069c.183.741.365 1.481.454 2.261l3.105 16.115a162.847 162.847 0 01.576-23.735.2.2 0 01.054-.113.211.211 0 01.11-.061 193.242 193.242 0 01-.407-8.243.326.326 0 01.034-.156.357.357 0 01.103-.125 61.079 61.079 0 01-1.454-6.312l.069.039zm1.079-16.665a2.91 2.91 0 00-1.524-.576 3.085 3.085 0 00-1.631.319 22.577 22.577 0 012.228 9.447 34.793 34.793 0 003.903 7.964c.419.619.873 1.2 1.347 1.805l-.222-.902c-.415-2.759-.358-5.645-.899-8.499l-.821-3.324c-.623-1.268-1.182-2.395-1.685-3.594a11.174 11.174 0 01-.696-2.64zm.044-1.62c.091-.422.293-.818.585-1.148a2.641 2.641 0 011.08-.734 1.452 1.452 0 01-.113-.157 4.005 4.005 0 01-.648-1.907c-3.218 2.301-7.653 3.809-10.924 3.138a5.993 5.993 0 01-.205.73c2.388-.513 4.208-.328 4.883 1.027.439-.42.954-.754 1.518-.982a4.44 4.44 0 011.932-.426 4.252 4.252 0 011.892.459zm18.095 9.861a39.628 39.628 0 0111.818 8.031 152.669 152.669 0 0117.104 17.59 62.414 62.414 0 00-4.723-7.872 49.1 49.1 0 00-12.34-11.408 115.186 115.186 0 00-21.348-11.354 54.373 54.373 0 009.489 5.013zm-13.185-6.502l-1.85-.665c.534.603 1.068 1.148 1.621 1.774 2.618 2.038 4.91 4.493 7.414 6.489 4.51 3.653 9.968 5.271 15.415 7.208.162.057.969.271 1.889.583-.284-.254-.569-.507-.842-.778a40.89 40.89 0 00-12.796-8.041 42.85 42.85 0 01-10.834-6.503l-.017-.067zm27.165 17.899a1.76 1.76 0 01-.381.375c-1.136.851-1.93-.629-1.192-1.531a26.377 26.377 0 01-4.224-1.476 800.898 800.898 0 01-4.852-1.681 32.369 32.369 0 01-7.18-3.265l-.549-.369c4.167 3.702 8.537 7.148 13.027 10.476a.34.34 0 01.402-.108 27.262 27.262 0 014.679 3.737c5.376 3.807 10.882 7.479 16.346 11.22a116.98 116.98 0 00-16.076-17.378zm-.525 7.704l-.892-.621c-4.144-1.928-8.68-3.407-12.782-5.347a121.165 121.165 0 0011.212 8.037c2.216 1.37 4.894 2.272 6.722 4.163a42.123 42.123 0 013.382 4.717 41.311 41.311 0 00-4.489-7.404 37.433 37.433 0 00-3.153-3.545zm-4.305-3.062a154.289 154.289 0 01-22.45-19.711l-1.114-.921a82.433 82.433 0 004.588 8.584 103.72 103.72 0 002.483 4.068.488.488 0 01.573-.317.448.448 0 01.204.108c4.541 3.659 10.288 5.731 15.716 8.189zm-15.328-2.839c-2.403-3.746-5.182-7.635-7.548-11.648.291 1.658.481 3.329.606 5.032a18.411 18.411 0 001.504 6.513 69.335 69.335 0 017.157 7.548 27.689 27.689 0 013.097 5.655 119.626 119.626 0 00-4.816-13.1zm-21.117-50.87a.486.486 0 01-.281-.24c-2.223-3.794-5.552-6.674-8.182-10.143a31.101 31.101 0 01-4.846-10.767c-.812-2.868-1.55-5.798-2.35-8.683-1.76-2.397-2.949-5.235-4.65-7.691-.579-.85-1.22-1.653-1.876-2.452.711 1.804 1.197 3.711 1.744 5.272 2.137 6.142 4.861 12.385 6.117 18.792 0 0 .017.068-.067.09 3.592 5.263 7.051 10.59 10.308 16.059.147.233.276.457.405.68a205.549 205.549 0 013.508 5.645c1.611 2.695 3.466 5.655 3.528 8.724l.04.162a.993.993 0 01.55-.304.946.946 0 01.611.092c1.682.825 2.664-.472 3.247-2.064-.891-8.286-4.006-15.873-7.069-23.488.354 1.971.68 3.95 1.044 5.905a5918.636 5918.636 0 003.456 18.92.53.53 0 01-.037.382.568.568 0 01-.681.28.513.513 0 01-.289-.248c-2.381-4.555-2.328-10.153-4.23-14.923zM111.1 81.45a284.785 284.785 0 00-12.983-27.08c.729 2.474 1.378 4.984 2.04 7.49 1.312 4.957 2.644 9.694 5.888 13.73 1.601 2.052 3.422 3.917 5.068 5.914l-.013-.054zm-27.266 3.384c2.92 2.66 5.83 5.221 9.865 6.533.51.158 1.035.276 1.567.354.435.026.863.083 1.291.14.81.041 1.619.024 2.435.035-5.088-2.637-10.535-4.574-15.407-7.713.02.08.137.135.202.218a.455.455 0 01.07.251.481.481 0 01-.079.254l.056-.072zm5.963 7.682l-.248-.048c2.48 1.6 4.95 3.219 7.494 4.716 4.709 2.782 9.608 5.254 14.328 8.018a6.77 6.77 0 00.798-1.263 6.336 6.336 0 001.172-.645 57.273 57.273 0 00-3.926-4.34.457.457 0 01-.221.015.432.432 0 01-.197-.09 28.144 28.144 0 00-9.607-5.31c-3.229-.797-6.416-.529-9.649-.98l.056-.073zm-8.24-4.803c-3.475-2.337-7.762-3.108-12.001-4.164a54.561 54.561 0 01-11.27-4.434c3.573 3.758 8.156 6.46 13.258 7.817 2.564.517 5.165.867 7.787 1.05.656.083 1.302.217 1.933.399a.387.387 0 01-.025-.349.424.424 0 01.262-.246l.056-.073zm-6.315.837a29.567 29.567 0 01-7.896-1.967 28.884 28.884 0 01-8.332-5.295A35.926 35.926 0 0071.686 91.4l.726.307c.555.152 1.093.294 1.596.475 6.004 1.82 11.392 5.104 15.668 9.551a.084.084 0 01.023.062.091.091 0 01-.155.06 42.75 42.75 0 00-3.085-2.371 26.112 26.112 0 002.051 2.319l.949.247c3.159.815 6.347 1.609 9.564 2.38-6.18-3.085-11.447-7.624-15.347-13.226a.314.314 0 01-.252.06.29.29 0 01-.2-.153c-1.533-2.559-5.262-2.145-7.983-2.504v-.058zm19.188 11.892c4.558 3.557 10.236 5.509 16.162 5.557.151-.117.292-.246.422-.386a145.224 145.224 0 01-14.502-7.583c-4.15-2.371-8.44-4.777-12.39-7.533 3.49 3.295 6.451 7.02 10.308 9.945zm15.974 9.77a32.018 32.018 0 00-5.493-1.164 52.176 52.176 0 00-6.172.224 39.138 39.138 0 01-6.748.164 42.015 42.015 0 007.133 2.474 28.691 28.691 0 003.99-.255c2.531-.35 4.858-1.406 7.339-1.485l-.049.042zm8.432-.832a3.4 3.4 0 00.385.241 14.324 14.324 0 00-.851-2.067c-.426.43-.866.864-1.302 1.254.162.513.211 1.057.143 1.598.496-.105.987-.237 1.47-.396a2.05 2.05 0 01-.107-.43c-.174-.226.097-.328.245-.209l.017.009zm-2.368-1.803c.423-.337.828-.695 1.214-1.073-.299-.493-.609-.97-.922-1.46-.033-.134.1-.314.227-.219.46.344.88.736 1.25 1.171.336-.319.66-.622 1.002-.915-.223-.184.075-.537.329-.404l.144.105c.399-.33.817-.634 1.254-.912a.642.642 0 00-.039-.161c-1.211 1.086-2.554 1.218-4.244-.294a4.97 4.97 0 01-.995 2.319 4.82 4.82 0 01-.423.502 4.44 4.44 0 011.2 1.328l.003.013zm2.483-.667c.52.788.934 1.641 1.233 2.539a20.565 20.565 0 001.504-.735 6.45 6.45 0 00-1.634-2.847c-.39.277-.743.644-1.11 1.016l.007.027zm-5.612 2.312a4.43 4.43 0 00-.665-1.256 8.416 8.416 0 01-.985.264c.215.358.384.742.504 1.142a5.588 5.588 0 001.14-.177l.006.027zm.832-.224a7.602 7.602 0 001.593-.858 3.472 3.472 0 00-1.17-1.265 6.327 6.327 0 01-1.281.804c.371.362.66.797.848 1.279l.01.04zm.353 1.427c.009.187-.01.376-.055.56l1.695-.384c-.003-.372.036-.756.015-1.138a6.65 6.65 0 01-1.693.929l.038.033zm-.985.265c-.354.043-.71.047-1.062.012.032.283.043.567.033.853l1.096-.295a3.215 3.215 0 01-.108-.617l.041.047zm-4.898-13.854c.541.515 1.055 1.037 1.582 1.556a62.972 62.972 0 013.346 3.133c-.288-5.663-4.784-10.339-8.21-14.57a434.225 434.225 0 00-11.905-14.022 1704.228 1704.228 0 00-5.545-5.987l-.21-.13a120.448 120.448 0 0020.887 29.978l.055.042zm12.669 7.947c-.251.182-.481.387-.725.597a6.277 6.277 0 011.889 2.922l.95-.528a6.644 6.644 0 01-2.169-3.034l.055.043zm-9.4 11.353c-.638.172-1.364.467-1.978.733l-.234.192a1.07 1.07 0 01-.569.153 62.99 62.99 0 00-2.814 1.36c-2.415 2.859-5.147 5.273-7.2 8.465a46.286 46.286 0 00-3.28 6.666 32.055 32.055 0 001.93-2.428 44.68 44.68 0 016.949-8.283 51.664 51.664 0 007.141-6.9l.055.042zm-1.943-3.08a17.002 17.002 0 01-3.552 1.371c-2.402.797-4.86 1.4-7.349 1.804 1.834.276 3.699.362 5.565.255l1.327-.615a.456.456 0 00.051-.272c.001-.359.478-.402.652-.176.174.226.02.081.03.121.764-.32 1.518-.623 2.25-.891a7.264 7.264 0 00.971-1.639l.055.042zm-13.46 16.536c.676-1.215 1.414-2.361 2.11-3.438a29.237 29.237 0 015.936-6.748c-1.137.607-1.951 1.084-2.187 1.205l-2.062 1.114a56.668 56.668 0 01-3.987 7.817l.19.05zm5.73-11.96a48.715 48.715 0 00-5.771-.372.577.577 0 01-.1.349.614.614 0 01-.29.23c-2.2.735-4.406 1.443-6.616 2.137l.033.135c-.044 1.677-3.247 3.743-4.493 4.624-4.679 3.037-10.426 4.381-13.971 8.894a4.28 4.28 0 002.758.449 199.434 199.434 0 0117.923-10.559c1.02-.604 5.56-3.418 10.527-5.887zm-4.107-2.197a53.034 53.034 0 006.009-1.242c1.387-.373 4.571-.957 6.095-2.213.051-.224.089-.449.114-.676-2.424.005-4.879.967-7.342 1.414l-.153.041c-.576.107-1.158.172-1.741.195l-1.034.005a.425.425 0 01-.116.252.454.454 0 01-.247.133c-3.788.832-7.617 1.861-11.46 2.708 3.353-.256 6.662-.155 9.875-.617zm-8.733-5.962a30.239 30.239 0 00-9.767-.862l-7.052.131c-.223.074-.45.135-.68.183a87.57 87.57 0 0019.37 2.672c1.496.071 3.002.183 4.492.227-1.995-.712-4.115-1.692-6.293-2.37l-.07.019zm-2.405-1.477c.369.058.717.151 1.076.227 4.484.847 8.816.242 13.293-.072a38.2 38.2 0 014.169-.13c-2.706-.536-5.353-1.432-7.277-1.919l-2.425-.597c-3.196 1.075-7.178.882-10.412 1.02-4.034.195-8.07.261-12.112.242-3.586-.026-7.564.096-11.413-.218a23.95 23.95 0 012.746.697c.916.299 2.19.846 3.35.994a.443.443 0 01.39-.22c6.185-.17 12.732-1.026 18.684-.043l-.07.019zm-6.802-5.807c-3.532-.887-6.998-2.108-10.462-3.258l-2.273-.58c-2.525-.642-5.068-1.178-7.39-1.96a8.677 8.677 0 00-1.066.057c2.877 1.71 5.705 3.518 8.709 4.963 3.981 1.872 8.31.895 12.551.759l-.07.019zM57.08 92.93c.619.398 1.272.74 1.955 1.025 1.946.207 3.847.66 5.657 1.35 1.44.502 2.908.997 4.37 1.465a6800.66 6800.66 0 0017.382 4.513 21.813 21.813 0 00-2.592-2.834c-3.486-2.68-7.833-4.051-11.882-5.776a33.73 33.73 0 00-2.995-.63c-5.56-1.131-11.77-2.39-15.531-6.66a24.839 24.839 0 003.637 7.547zm-4.107-11.912c.001.545.037 1.052.074 1.558 3.401 5.214 9.178 6.69 14.981 8.028a44.406 44.406 0 01-14.735-14.882 37.16 37.16 0 00-.362 5.307l.042-.011zm2.603-14.263a45.164 45.164 0 00-2.003 7.586c.792.992 1.584 1.985 2.363 2.981a.444.444 0 01.61-.164 72.883 72.883 0 0016.6 6.315c2.86.56 5.568 1.648 7.98 3.208a16.086 16.086 0 01-3.202-4.88l.083-.022c2.4 1.752 4.076 4.53 6.168 6.652 1.912 1.925 4.523 3.043 7.31 3.13a28.014 28.014 0 01-1.68-.812 27.457 27.457 0 01-8.543-7.29c-4.08-3.109-10.27-3.497-14.785-5.972a29.405 29.405 0 01-10.943-10.72l.042-.012zm13.607 10.967c3.001 1.317 6.491 1.914 9.539 3.176-7.209-5.238-14.036-11.21-22.42-14.74 2.957 5.08 7.447 9.112 12.88 11.564zM56.139 65.14c6.904 2.808 12.724 7.214 18.562 11.63a96.253 96.253 0 00-8.173-8.725c-2.727-2.482-5.764-4.479-8.684-6.664a51.897 51.897 0 00-1.705 3.759zm2.022-4.39c6.818 4.002 12.55 9.517 16.757 16.119 2.961 2.232 5.92 4.45 8.994 6.48 5.09 3.31 10.797 5.278 16.166 8.097.338.167.668.366.994.55l.332.026c-4.998-3.952-10.266-7.616-15.11-11.725A113.632 113.632 0 0163.05 53.35a41.597 41.597 0 00-4.889 7.4zm41.866 28.93a164.928 164.928 0 00-35.095-35.415 117.134 117.134 0 0022.874 25.927c3.92 3.295 8.135 6.295 12.208 9.434l.013.054zM65.141 51.037c-.402.41-.786.829-1.171 1.248a169.723 169.723 0 0131.259 29.457 91.775 91.775 0 01-8.046-15.16c-4.036-2.273-8.09-4.556-11.976-7a28.1 28.1 0 01-9.615-8.996l-.45.451zm4.164-3.143a15.495 15.495 0 00-2.984 2.05 33.321 33.321 0 0011.294 10.168c2.74 1.69 5.665 3.056 8.344 4.804-5.471-5.748-11.064-11.392-16.654-17.022zm.55-.291c4.749 4.263 9.268 8.789 13.73 13.33-.99-1.557-1.939-3.124-2.95-4.589-2.288-3.274-4.745-6.46-6.869-9.85a12.31 12.31 0 00-3.912 1.109zm8.28-.906a17.171 17.171 0 00-3.836-.203 102.639 102.639 0 016.562 8.612 75.4 75.4 0 016.629 9.9 393.85 393.85 0 018.64 9.604c3.587 4.102 7.162 8.222 10.629 12.442-3.071-5.073-6-10.228-9.262-15.177-1.403-2.149-2.828-4.507-4.308-6.908l-4.213-6.043c-.985-1.415-2.356-3.557-3.931-5.804a35.882 35.882 0 00-6.91-6.423zm2.588-1.5c4.902 3.864 8.327 10.908 11.483 15.427 2.03 3.071 4.257 6.104 6.339 9.204a125.244 125.244 0 01-5.47-14.317c-1.656-4.607-2.642-10.7-6.739-13.818-2.685.866-4.872 2.014-5.64 3.512l.027-.008zm7.098-3.96a28.41 28.41 0 015.661 6.4c.86 1.204 1.747 2.401 2.563 3.732-.173-.7-.457-1.313-.72-2.017-.262-.705-.638-1.149-.971-1.72-.04-.161.14-.267.233-.134a37.156 37.156 0 00-3.795-6.988c-1.023.232-2.031.46-2.999.734l.028-.007zm4.2-.957a46.403 46.403 0 015.518 12.05 236.354 236.354 0 0116.306 32.932.504.504 0 01.017.368 26.296 26.296 0 011.977 6.214c-1.018-5.625-2.047-11.232-3.19-16.824a.4.4 0 01-.205-.232c-1.858-6.748-6.36-12.226-9.04-18.652-2.09-5.05-4.227-11.135-4.149-16.81a82.385 82.385 0 00-7.275.965l.042-.011zm8.937-.408a.153.153 0 01-.141-.091 1.116 1.116 0 01-.07-.584l-.928.077c.684 2.773 1.011 5.656 1.751 8.413a63.633 63.633 0 003.927 10.699c1.473 3.091 3.755 6.166 5.473 9.35a72.996 72.996 0 01-2.711-9.964c-1.159-3.018-3.068-5.662-4.452-8.634a35.806 35.806 0 01-2.891-9.255l.042-.01zm.844-.715a40.435 40.435 0 003.918 11.864c.652 1.26 1.386 2.498 2.023 3.761a101.516 101.516 0 01-1.259-15.65 52.366 52.366 0 00-4.724.037l.042-.012zm5.92.016c.026 5.22.372 10.423 1.035 15.58a64.004 64.004 0 001.798 8.129.482.482 0 01.385.298 54.867 54.867 0 011.938 6.655l.046.188c3.324 8.794 7.397 17.33 8.862 26.68.079-.279.144-.555.195-.77.05-.214.235-.723.339-1.08.203-4.275-2.172-8.444-3.744-12.356a66.34 66.34 0 01-3.66-15.85c-.698-5.224-1.225-10.478-2.376-15.623a44.171 44.171 0 00-4.743-11.785l-.075-.066zm36.171 70.46a46.545 46.545 0 01-1.883-.441 10.672 10.672 0 00-1.058-.031c-.153.041-.154-.203-.06-.242l-.945-.292a63.968 63.968 0 00-6.494 1.072c1.828.286 3.6.814 5.268 1.569 4.878 2.147 9.261 4.686 14.616 5.829 1.405.297 2.817.506 4.247.667a16.247 16.247 0 01-6.89-3.228c-2.141-1.721-4.186-3.955-6.801-4.903zm16.182 1.146c6.634-.147 13.443-2.58 19.89-4.385a23.987 23.987 0 00-10.291-2.687c-1.185.835-2.266 1.786-3.506 2.693-3.258 2.441-7.118 2.445-10.959 2.1a76.074 76.074 0 00-14.41.042c6.496.191 12.746 2.386 19.276 2.237zm-6.797-3.569c2.389.333 4.814.422 7.239.265 3.122-.352 4.954-1.921 7.314-3.804l.202-.14a.448.448 0 01-.11-.444l-1.156.167c-2.835.28-5.678.388-8.514.323l-.291.078a.384.384 0 01-.199-.001.353.353 0 01-.167-.102c-1.684.008-3.364.029-5.053.139-7.586.604-17.661 1.131-24.068 6.155 8.062-2.522 16.507-3.42 24.817-2.639l-.014.003zm5.353-4.74c3.092-1.434 6.259-2.687 9.287-4.32 2.364-1.266 4.619-2.676 6.847-4.136l-.494-.025c-3.869 2.303-8.169 2.856-12.54 3.845a78.345 78.345 0 00-7.965 2.242c-2.88.975-5.712 2.683-8.661 3.261l2.957-.364a95.313 95.313 0 0110.569-.503zm-13.599.872c-.208.056-.395-.224-.2-.391a20.04 20.04 0 015.747-2.722 74.56 74.56 0 018.402-2.632c2.705-.727 5.475-1.07 8.219-1.636a27.4 27.4 0 005.906-2.018 74.095 74.095 0 00-7.932-.738c-5.091.048-9.065 2.523-13.584 4.528a.465.465 0 01-.325 0 33.488 33.488 0 01-4.884 1.845c-3.344 1.014-6.711 1.991-10.115 2.82-3.118 2.589-6.679 5.541-9.716 6.057a4.875 4.875 0 00-.307 1.933c4.919-4.939 12.02-6.13 18.803-6.992l-.014-.054zm-3.189-16.221a122.544 122.544 0 0010.36-8.9 117.432 117.432 0 007.846-9.141 22.336 22.336 0 00-4.067 2.7c-1.71 1.522-3.224 3.235-4.79 4.92-2.511 2.712-5.449 6.028-9.14 7.135A53.639 53.639 0 01135.745 91c1.294-.75 2.598-1.46 3.788-2.152.737-.428 1.509-.836 2.281-1.245a.295.295 0 01-.068-.219.32.32 0 01.11-.208l-.013-.054zm2.429-.825a28.598 28.598 0 007.255-4.822c1.551-1.565 2.66-3.484 4.283-4.997.482-.446 1.04-.883 1.611-1.323a24.347 24.347 0 002.115-4.257 61.56 61.56 0 01-15.251 15.452l-.013-.053zm2.275-.31a140.002 140.002 0 00-13.415 7.911 11.622 11.622 0 00-3.223 3.006 11.209 11.209 0 00-1.833 3.951c-.291 1.04-.557 2.059-.903 3.113a49.584 49.584 0 018.329-6.1 39.516 39.516 0 0010.489-9.22c1.595-1.865 3.398-3.67 5.143-5.589a27.262 27.262 0 01-4.574 2.981l-.013-.054zm2.545.664c-3.117 3.55-6.098 7.653-10.119 10.298-2.026 1.32-4.225 2.299-6.217 3.695a50.607 50.607 0 00-4.155 3.299 62.734 62.734 0 007.937-4.574 96.348 96.348 0 002.578-1.54l.75-.56c6.24-4.677 13.709-9.11 19.147-14.764a16.309 16.309 0 002.721-3.716 76.704 76.704 0 01-11.705 6.806c-.298.41-.64.703-.924 1.11l-.013-.054zm1.472 4.828c-.92.707-1.86 1.39-2.797 2.087-1.389 1.206-2.73 2.485-4.16 3.702a45.467 45.467 0 01-5.152 3.753c6.483-2.016 13.042-3.607 18.184-8.42a64.037 64.037 0 016.746-5.745 60.717 60.717 0 00-9.51 2.815 57.41 57.41 0 01-3.297 1.862l-.014-.054zm-24.814 13.317c1.46-2.833 1.515-6.148 3.543-8.775a14.513 14.513 0 012.009-1.99.36.36 0 01-.053-.224.386.386 0 01.092-.216c3.776-4.116 7.974-7.54 11.323-12.072a65.786 65.786 0 004.207-6.384c.605-1.024 1.159-2.077 1.712-3.13.23-.449.83-1.371 1.3-2.287-.969 1.05-1.975 2.067-2.957 3.063a77.066 77.066 0 00-10.552 12.137.412.412 0 01.096.358.46.46 0 01-.227.308l-.664.308c-.537 2.44-3.367 4.336-5.139 5.845-2.825 2.396-5.797 4.917-7.348 8.162-.124.334-.256.642-.39.937-.178.478-.319.967-.423 1.463a.83.83 0 01.215.329l.033.135a.692.692 0 01.207.36c.369 1.494 1.492 1.91 2.974 1.741l.042-.068zm24.631-37.192c.127-.206.124-.22.3-.224.742-.889 1.485-1.835 2.22-2.693a44.36 44.36 0 00-10.499 6.483 22.446 22.446 0 00-4.842 5.909 17.194 17.194 0 00-1.499 3.574 11.38 11.38 0 00-.396 1.872 1.65 1.65 0 00.009 1.175c.055.702.239.61.573-.255 1.384-1.405 2.457-3.287 3.776-4.775 1.61-1.868 3.356-3.543 5.088-5.272 1.733-1.729 3.594-3.837 5.301-5.73 0 0-.027-.05-.031-.064zm-27.491 19.13a37.574 37.574 0 001.613-9.346 49.678 49.678 0 00-.921-9.124c-.98-5.65-2.659-11.556-1.926-17.393-.495 4.467-1.747 8.98-2.154 13.324a69.604 69.604 0 002.742 24.895 19.34 19.34 0 01.787 3.19c.124-.335.235-.666.345-.997l.265-1.507c.236-1.498.479-2.913.711-4.367-.209.525-.448 1.04-.714 1.54-.196.585-.856.245-.748-.214zm8.746-14.722a29.546 29.546 0 012.424-8.158l-.925.866a.495.495 0 01-.236.064 60.39 60.39 0 00-3.595 6.707 49.932 49.932 0 00-2.002 5.733 289.938 289.938 0 01-.945 6.957c-.107.646-.282 2.214-.579 4.188l1.431-2.35c2.685-4.526 3.553-8.978 4.427-14.007zm-1.946 11.531c4.207-4.346 5.752-9.713 7.732-15.412a48.91 48.91 0 016.771-12.957 23.641 23.641 0 00-8.783 8.217c-2.155 3.736-2.582 7.999-3.294 12.123a32.234 32.234 0 01-2.426 8.03zm-5.199 11.717c-.08.395-.177.78-.288 1.168.395-.494.798-.96 1.231-1.422 2.782-2.93 7.107-5.183 9.262-8.675a25.068 25.068 0 00-10.205 8.929zm-15.739-56.047c3.435 4.99 4.871 11.349 5.834 17.649.315-5.345 2.056-10.565 5.05-15.136a35.42 35.42 0 00-10.871-2.46l-.013-.053zm6.152 19.774a.204.204 0 01-.071.133c.391 3.024.693 5.985 1.091 8.735a69.19 69.19 0 003.255 13.19 64.417 64.417 0 01-.814-14.866c.459-7.787 3.863-16.108 1.876-23.74-3.057 5.098-4.88 10.782-5.324 16.601l-.013-.053zm6.431-16.369c.556 2.542.68 5.17.368 7.781l.097-.026c.606 7.013 2.309 13.731 3.317 20.636.13.884.241 1.815.346 2.777.45-4.168 1.202-8.374 1.751-12.382.216-1.58.401-3.108.506-4.6a49.282 49.282 0 00-.191-5.69 11.383 11.383 0 00-2.055-4.993 11.517 11.517 0 00-4.139-3.503zm9.456 8.351c.057.23.113.458.086.71.375 4.635-.885 9.537-1.754 14.105-.398 2.045-.748 4.162-1.125 6.288a32.361 32.361 0 014.463-7.444.332.332 0 01-.078-.222.356.356 0 01.086-.225c3.453-4.588-.19-10.598 2.592-15.508a5.952 5.952 0 00-2.401.693 5.961 5.961 0 00-1.91 1.615l.041-.012zm5.342-2.326l.023.095c-2.635 4.124-.279 9.116-1.606 13.449a21.864 21.864 0 003.615-5.191 31.771 31.771 0 002.176-7.245 11.786 11.786 0 00-4.291-1.085l.083-.023zm4.634 1.338a15.685 15.685 0 01-2.198 8.112 35.71 35.71 0 017.253-4.95 31.991 31.991 0 00-5.138-3.14l.083-.022zm9.29 6.601c-.99-.838-2.19-1.865-3.508-2.888a.757.757 0 01-.099.198c-4.584 5.696-7.092 11.954-9.429 18.667a45.13 45.13 0 016.693-7.698c2.612-2.424 5.69-4.156 8.311-6.54-.68-.535-1.359-1.07-2.051-1.716l.083-.023zm2.859 2.533c-1.87 2.254-5.336 3.73-7.418 5.482a46.833 46.833 0 00-4.629 4.617 66.773 66.773 0 01-4.52 5.234c-1.475 3.912-3.505 7.974-7.145 10.245l-.599 1.108c-1.035 1.8-2.211 3.565-3.198 5.38a82.543 82.543 0 01-.332 1.77 24.832 24.832 0 019.951-7.8c-.794-.82-.351-2.503-.129-3.582a18.882 18.882 0 013.933-8.032c3.958-4.94 9.645-7.904 15.346-10.513l1.115-1.476c-.773-.855-1.619-1.646-2.459-2.41l.084-.023zm3.9 3.817l-2.331 1.043a32.643 32.643 0 01-3.331 4.483 16.939 16.939 0 01-1.768 3.863 61.76 61.76 0 01-4.983 8.515 93.361 93.361 0 01-1.592 2.237 63.393 63.393 0 009.728-9.002c2.025-2.224 4.851-5.395 7.977-6.45a36.116 36.116 0 00-3.811-4.66l.111-.03zm4.292 5.706a2.754 2.754 0 01-.039.384.46.46 0 01.172.154c1.403 2.752-.65 4.681-2.722 6.473a67.7 67.7 0 01-7.828 9.453c2.168-1.344 4.37-2.61 6.515-4.048a54.318 54.318 0 005.207-3.352c.509-1.27.765-2.615.752-3.962a17.933 17.933 0 00-2.168-5.072l.111-.03zm10.004 13.629c-1.72-1.935-3.678-2.915-5.796-2.389a16.608 16.608 0 01-4.801 5.596 39.624 39.624 0 01-2.41 1.74c2.663-.717 5.369-1.315 8.053-2.008a22.228 22.228 0 015.557-2.111c-.207-.303-.367-.59-.603-.828zm4.12 6.986a39.884 39.884 0 00-2.716-5.01 49.804 49.804 0 01-6.435 2.031 22.502 22.502 0 00-3.704 2.431c-2.231 1.806-4.148 3.986-6.331 5.807a23.617 23.617 0 017.628-2.05 36.167 36.167 0 017.258.344c1.206.15 2.474.254 3.703.44l1.157-.584c.153-.04.327.127.178.24l-.614.452.418.074.891-.584c-.479-1.22-.943-2.445-1.433-3.59zm1.791 4.8l-1.038.05a64.154 64.154 0 01-14.633 8.369l1.308-.036 1.124-.058-.328-.013a.256.256 0 01-.194-.023.236.236 0 01-.115-.152.252.252 0 01.03-.191.27.27 0 01.159-.118c2.734-.907 5.363-1.284 7.964-2.672a28.214 28.214 0 005.882-4.452 3.09 3.09 0 00-.159-.703zm.429 1.32a20.556 20.556 0 01-10.736 6.719 52.185 52.185 0 0011.826-3.08c-.326-1.203-.757-2.408-1.059-3.633l-.031-.006zm1.414 4.83l-1.387.373a46.527 46.527 0 01-5.301 1.655c-.346.093-.636.3-.935.466a22.577 22.577 0 018.84 2.618 156.574 156.574 0 00-1.214-5.098l-.003-.014zm1.643 7.079c-6.505 1.749-13.266 4.198-19.949 4.444a45.98 45.98 0 01-9.365-.912c-1.73-.296-3.495-.496-5.279-.834.892.527 1.74 1.119 2.537 1.772.831.667 1.637 1.297 2.436 1.9a6.845 6.845 0 01-1.765-2.238c4.781 5.589 12.095 3.221 18.127.695 4.413-1.832 8.926-3.562 13.67-2.498-.106-.732-.292-1.486-.408-2.316l-.004-.013zm1.045 5.732c-.159-.646-.244-1.47-.394-2.377a.578.578 0 01-.194.053c-7.357-1.883-13.74 3.478-20.752 4.789-2.862.602-5.814.195-8.329-1.148a15.973 15.973 0 007.343 2.963 50.26 50.26 0 0012.81-.889 24.117 24.117 0 019.359-.134c.138-1.078.191-2.163.16-3.243l-.003-.014zm-17.508 5.109c5.42-.035 10.844-.419 16.237-1.15-3.427-.643-7.069.121-10.535.579-1.888.263-3.799.49-5.698.584l-.004-.013zm15.531 3.718a9.614 9.614 0 001.678-3.924c-8.51 1.054-17.153 1.928-25.606.698a41.534 41.534 0 01-12.234-3.786c-4.442-2.179-9.061-4.955-14.137-3.949-.833.223-1.651.443-2.46.761a2.51 2.51 0 001.373.65c.183.08.393.153.586.216 4.367-.481 8.748.112 12.746 1.726-2.738-.068-5.412-.713-8.16-.821-.539-.027-1.068-.014-1.583-.005 1.875.587 3.771 1.139 5.671 1.705l11.167 3.298 1.592.462c4.805.23 9.744 1.786 14.254 3.042 4.876 1.359 11.634 2.671 15.113-.073zm-39.483-4.167c-2.42-.699-4.858-1.349-7.289-2.031 1.077.529 2.129 1.078 3.213 1.576 2.561 1.206 5.244 2.308 7.792 3.646-1.187-.857-2.375-1.715-3.584-2.538a.43.43 0 01-.211-.294.448.448 0 01.002-.186.481.481 0 01.077-.173zm37.526 8.224l-.86.231c-4.135 1.227-8.609-.183-12.446-1.347-4.123-1.245-8.25-2.465-12.38-3.661a88.349 88.349 0 018.929 4.417c1.306.739 2.63 1.489 3.943 2.255l2.07.118c3.383.115 6.752.402 10.092.86.968.15 1.905.434 2.782.846a8.714 8.714 0 00-2.13-3.719zm2.478 5.247c-2.557-1.609-5.655-1.637-8.847-1.927l-4.523-.349c4.349 2.52 8.662 5.135 12.742 7.942.569-1.846.782-3.768.628-5.666zm-3.537 13.236c1.077-2.202 2-4.469 2.762-6.785a140.671 140.671 0 01-15.014-8.88c-1.506-.112-2.899-.24-4.343-.397-5.82-.631-10.007-3.696-14.091-7.478-.02-.081.037-.211.126-.148a49.652 49.652 0 008.118 5.208 23.97 23.97 0 008.503 1.79c-.468-.276-.925-.569-1.403-.828a72.56 72.56 0 00-18.454-7.956 166.15 166.15 0 0114.513 12.001c2.915 2.83 6.732 4.612 10.865 5.073 3.52.4 7.005 1.011 10.435 1.83a.485.485 0 01.3.6.529.529 0 01-.228.294.532.532 0 01-.366.075c-2.801-.682-5.709-1.02-8.571-1.471a27.404 27.404 0 015.761 5.785c.249.35.663.769 1.077 1.247l.01.04zm-.456.969a104.529 104.529 0 00-7.548-8.232c-3.707-.438-7.211-1.78-10.193-3.905-2.772-2.125-5.221-4.796-7.905-7.103-1.433-1.251-2.922-2.429-4.425-3.604a96.165 96.165 0 01-10.032-4.335c-2.802-1.285-5.621-2.579-8.31-4.066l-1.202-.438-1.159.039c-.473.242-.627.814-.542 1.581l.862.314a.494.494 0 01.335-.291.493.493 0 01.226-.008.466.466 0 01.201.094l1.26.967a120.875 120.875 0 0125.91 13.299 50.638 50.638 0 0110.078 8.772.245.245 0 01.122-.074.242.242 0 01.141.003 33.964 33.964 0 0111.673 7.985l.508-.998zm-1.287 2.815l.527-1.161c-1.803-1.309-3.48-2.652-5.296-3.9-1.817-1.249-3.647-2.192-5.378-3.391l.256.318a75.34 75.34 0 017.632 13.305c.877-1.958 1.622-3.794 2.249-5.211l.01.04zm-2.833 6.502l-.279-.413a889.86 889.86 0 01-9.691-6.005c.209.245.411.463.605.712.195.249-.095.213-.16.13-.369-.475-.769-.899-1.169-1.322a95.886 95.886 0 01-3.545-2.377 47.024 47.024 0 015.831 10.445.447.447 0 01-.026.482.476.476 0 01-.458.193 35.084 35.084 0 013.574 6.689 32.158 32.158 0 005.284-8.553l.034.019zm-10.294.716a47.966 47.966 0 01-3.277-4.588c-2.063-2.846-5.782-4.014-8.664-5.923-4.442-2.953-8.445-6.47-12.602-9.772a23.916 23.916 0 01-3.638-2.754c.296.48.595.974.905 1.45 2.611 3.087 5.113 6.275 7.567 9.448a.294.294 0 01.205-.191.278.278 0 01.267.064c2.04 1.733 3.659 3.982 5.671 5.78 2.207 1.99 4.592 3.803 6.97 5.589a116.811 116.811 0 0110.341 8.343c-1.191-2.55-2.515-4.978-3.78-7.466l.035.02zm-4.408 9.408c.064.203.115.41.153.619a6.864 6.864 0 004.137.673 7.196 7.196 0 003.842-1.842 127.345 127.345 0 00-12.343-10.043c-2.114-1.613-4.683-3.391-6.903-5.435 3.809 4.946 8.803 10.378 11.08 16.009l.034.019zm-2.571.849a71.854 71.854 0 00-.11-.444c-2.154-2.736-4.032-6.092-5.745-8.3-4.242-5.562-8.432-11.153-12.385-16.922.284.67.554 1.287.834 2.001a125.752 125.752 0 012.593 7.268c.382 1.189.843 2.4 1.19 3.627a71.615 71.615 0 007.17 11.075 18.047 18.047 0 014.041 7.683 4.987 4.987 0 002.369-2.591 4.615 4.615 0 00.009-3.416l.034.019zm-8.274 8.425l1.849-.598a9.096 9.096 0 001.625-.609 24.759 24.759 0 01-6.461-9.041 837.699 837.699 0 013.008 10.213l-.021.035zm-4.651-15.972c.285 1.157.671 2.302.999 3.449a12.207 12.207 0 01-.239-2.046.306.306 0 01.229-.271.3.3 0 01.185.008.284.284 0 01.141.114 57.189 57.189 0 003.222 7.544 24.344 24.344 0 004.64 5.498l.383-.189c-.622-4.139-3.709-6.997-6.026-10.393a50.975 50.975 0 01-3.919-7.012c.084.508.132 1.023.143 1.54a.214.214 0 01-.069.142.225.225 0 01-.147.06c.178.483.335 1 .479 1.522l-.021.034zm-.97.806c-1.711-5.855-3.41-11.9-7.679-16.435-.889-.967-1.81-1.882-2.717-2.8a36.584 36.584 0 013.083 5.902c2.064 5.186 3.505 10.668 5.856 15.82 1.57 3.424 3.31 6.76 5.126 10.104a1634.982 1634.982 0 00-3.634-12.571l-.035-.02zm4.005 15.629c-2.275-4.124-4.512-8.274-6.484-12.609-2.185-4.78-3.649-9.754-5.442-14.683a37.925 37.925 0 00-3.885-7.652 22.11 22.11 0 01-1.772-3.284 29.822 29.822 0 01-3.916-5.32 32.365 32.365 0 01-1.788-3.71c.096 1.41.234 2.808.439 4.058a88.416 88.416 0 004.705 15.886c1.844 5.016 3.799 10.001 5.14 15.195l.833 3.378c.129-1.24.173-2.484.131-3.723a38.897 38.897 0 00-1.94-10.501 76.902 76.902 0 00-3.967-9.54c-1.391-2.941-3.261-5.725-4.382-8.768a.153.153 0 01.01-.094.162.162 0 01.065-.072.156.156 0 01.183.011 42.016 42.016 0 015.068 8.971 73.203 73.203 0 014.009 9.772 43.052 43.052 0 011.382 5.599 52.091 52.091 0 002.698 9.436 37.738 37.738 0 005.36 8.476 53.688 53.688 0 003.574-.86l-.021.034zm-4.364 1.015c-.706-1.245-2.071-2.399-2.656-3.333a32.035 32.035 0 01-2.907-5.246 32.716 32.716 0 01-1.082-2.766 25.27 25.27 0 01-.525 5.365 18.305 18.305 0 01-.171 7.036 73.398 73.398 0 007.362-1.09l-.021.034zm-8.349 1.169c-.147-1.496-.055-3.042-.05-4.579a.235.235 0 01-.053-.216c.006-.274.029-.539.053-.803.023-.265-.016-.785-.054-1.177a48.43 48.43 0 00-1.375-7.668c-1.285-5.208-3.282-10.183-5.101-15.219a190.86 190.86 0 01-1.842-5.246c1.066 11.812 1.193 23.533 3.88 35.139 1.598-.057 3.2-.158 4.563-.266l-.021.035zm-5.372.167c-1.981-5.811-2.515-12.169-3.027-18.26-.205-2.93-.456-5.863-.692-8.799-.111 8.9-.153 17.78.366 26.654 1.106.229 2.236.353 3.374.37l-.021.035zm-9.612-4.851a9.582 9.582 0 004.494 3.83c.176.075.355.142.538.2-1.459-7.55-2.93-15.091-4.415-22.623-.729-3.737-1.591-7.466-2.12-11.228-.03 6.711.103 13.42.339 20.131.133 3.236-.138 6.811 1.185 9.656l-.021.034zm-4.378-5.754c.461-1.183.789-2.407.977-3.65-.122-2.293-.23-4.589-.313-6.905a51.23 51.23 0 01-2.836 13.679 7.791 7.791 0 002.193-3.159l-.021.035zm-3.279 3.852c.604-2.344 1.403-4.683 1.98-7.019.682-2.81 1.212-5.637 1.925-8.44-.067-2.25-.138-4.513-.191-6.766a68.022 68.022 0 01-3.152 8.324c-1.049 2.521-2.163 5.017-3.195 7.548-1.032 2.53-1.579 4.629-2.356 6.934a7.561 7.561 0 005.01-.615l-.021.034zm-6.241.243l.252.061c.148-.578.328-1.149.539-1.709a67.556 67.556 0 011.431-4.03c.998-2.551 2.109-5.06 3.193-7.561 1.083-2.502 2.118-5.019 2.978-7.589.645-1.939 1.036-3.953 1.495-5.928a179.43 179.43 0 01.895-18.309c.073-2.159.182-4.355.366-6.486-.799 2.755-1.608 5.47-2.262 8.273.048.07.069.156.059.242a.134.134 0 01.029.057.153.153 0 01.001.064c-.13.742-.32 1.474-.568 2.191a30.544 30.544 0 00-.316 1.836c-.671 5.074-.961 10.19-1.642 15.281-1.02 8.153-3.185 16.342-8.534 22.832.671.322 1.384.575 2.135.861l-.051-.086zm-3.246-1.166c5.658-6.559 7.732-14.938 8.843-23.202a68.114 68.114 0 01-3.888 8.221c-2.364 4.382-5.365 9.365-9.254 12.721 1.4.854 2.862 1.612 4.375 2.268l-.076-.008zm-4.691-2.47c2.773-4.104 6.012-7.759 8.408-12.135 2.396-4.375 3.888-9.297 5.7-14.061.293-2.706.57-5.421.953-8.122-.475.831-.985 1.7-1.546 2.483a764.075 764.075 0 01-6.427 9.736 386.079 386.079 0 00-11.464 18.869 49.825 49.825 0 004.452 3.238l-.076-.008zM89.3 162.3l.502.296 3.606-10.141c.302-.813.583-1.592.869-2.472a25.966 25.966 0 01-12.497 4.795 85.878 85.878 0 007.596 7.53l-.076-.008zm-8.273-8.296c3.866-3.752 8.374-7.418 11.752-11.77a48.833 48.833 0 00-6.923 4.731 84.772 84.772 0 00-5.748 5.952c.348.394.642.746.919 1.087zm-1.853-2.114c.144.163.29.339.448.497 2.9-4.727 8.622-8.69 13.707-10.861a29.173 29.173 0 002.047-3.091 14.789 14.789 0 014.265-4.892c2.485-1.917 5.076-3.403 6.785-6.13a9.794 9.794 0 01-3.986 4.947 20.421 20.421 0 00-6.44 7.042c-3.062 5.573-8.626 9.997-13.308 14.399a32.607 32.607 0 0012.041-5.146 45.417 45.417 0 012.879-6.974 24.717 24.717 0 014.505-5.718.403.403 0 01-.178-.509.444.444 0 01.115-.163c3.942-3.686 4.526-9.828 6.756-14.575-.781.669-1.597 1.319-2.368 1.971a54.638 54.638 0 00-8.533 9.829 32.575 32.575 0 01-3.372 3.777l-.083.022c-1.796 1.775-3.731 3.4-5.664 5.039-3.558 3.023-7.028 6.281-10.825 8.996l1.209 1.54zm-4.6-6.054a32.568 32.568 0 003.134 4.31c5.067-5.18 11.357-9.296 16.427-14.463a17.78 17.78 0 012.111-5.648.14.14 0 01-.055.022.145.145 0 01-.058 0 .144.144 0 01-.09-.068 22.518 22.518 0 01-4.782 5.376 71.287 71.287 0 01-8.436 5.368 60.368 60.368 0 01-8.68 4.444c.171.154.366.404.43.659zm-.706-1.245c5.099-3.308 10.653-5.734 15.623-9.209 4.527-3.169 7.085-7.847 9.316-12.652-3.967 3.765-8.053 7.404-12.32 10.847-4.268 3.444-9.436 6.355-12.82 10.623.067.123.14.242.221.357l-.02.034zm-.638-1.264a17.3 17.3 0 013.873-3.725c2.641-2.002 5.334-3.917 7.917-5.975 3.84-3.06 7.567-6.254 11.183-9.579a817.347 817.347 0 00-5.118 2.811c-3.711 2.103-7.375 4.279-11.058 6.432-1.294.749-2.758 1.53-4.084 2.389-.237.179-.491.348-.721.495a9.05 9.05 0 00-2.872 2.925 8.307 8.307 0 00.891 4.152l-.01.075zm-3.075-10.124c2.087-2.871 5.272-4.589 8.458-6.12 1.772-.849 3.585-1.653 5.262-2.649a43.917 43.917 0 004.759-4.15 314.54 314.54 0 01-9.209 2.72 87.285 87.285 0 01-8.268 2.094c-2.258.377-5.108-.263-7.184.855a24.017 24.017 0 006.193 7.176l-.011.074zm-6.736-8.235a7.684 7.684 0 013.902-.791 38.675 38.675 0 009.766-1.721 306.642 306.642 0 0015.32-4.564c-2.524-.039-5.044-.18-7.57-.046a31.29 31.29 0 00-3.226.351l-3.842 1.033c-4.91 1.32-9.845 3.135-14.81 4.111a.446.446 0 01-.335-.041.41.41 0 01-.198-.261.432.432 0 01.053-.329c.061-.1.16-.173.274-.204l.139-.037a2.687 2.687 0 01-1.123-.473c.53.948 1.08 1.92 1.734 2.949l-.084.023zm-2.39-4.352c1.528 1.455 3.79 1.091 5.901.48l.333-.089 2.46-.82c2.962-.882 5.911-1.818 8.933-2.401.499-.134.998-.269 1.513-.278-2.886.288-5.88.146-8.79.34-3.636.244-7.242.93-10.737 2.04.175.168.245.45.415.72l-.028.008zm-2.19-4.377c.316.618.77 1.558 1.326 2.672 6.243-1.908 12.19-1.842 18.651-2.331a88.635 88.635 0 0015.335-2.888 59.367 59.367 0 01-6.203-.141c-2.425-.18-4.784-.45-7.085.656a14.04 14.04 0 01-4.255 1.876 7.928 7.928 0 01-3.342-.537 31.936 31.936 0 00-5.988-1.432 74.166 74.166 0 00-9.56-.143c.31.778.77 1.501 1.15 2.26l-.028.008zm-1.582-3.177a48.177 48.177 0 0110.036-.086c3.702.44 7.785 2.959 11.354 1.181a13.59 13.59 0 014.4-1.771 21.757 21.757 0 014.88.123 71.92 71.92 0 005.269.191l-4.071-.255a80.629 80.629 0 01-18.753-2.995 49.84 49.84 0 01-5.981.876 40.407 40.407 0 01-8.203.383c.37.776.714 1.573 1.097 2.345l-.028.008zm-1.288-2.883c2.452-.372 4.953-.427 7.425-.719 1.294-.147 2.621-.403 3.934-.656-.845-.189-1.699-.533-2.426-.783a65.639 65.639 0 00-10.105-1.33 27.616 27.616 0 001.2 3.481l-.028.007zm1.126-4.364a24.2 24.2 0 01-2.676-.716l.166.673a22.141 22.141 0 012.538.035l-.028.008zm-27.749 5.597c-1.352-12.3-.114-26.764 6.084-38.084.108-.173.327-.087.303.123-2.477 13.316-4.664 25.86-3.845 39.416.819 13.557 5.647 25.789 8.927 38.664a.18.18 0 01-.023.139.199.199 0 01-.26.069.177.177 0 01-.086-.11c-7.087-11.952-9.593-26.451-11.1-40.217z" fill="#F7F3EF"/><path d="M34.77 97.888c.354-.686 1.405-.375 1.362.359.047 2.963-.649 5.951-.791 8.878a32.58 32.58 0 01-.537 7.973.497.497 0 01-.4.318.49.49 0 01-.261-.038.447.447 0 01-.195-.167c-2.527-4.452-1.564-12.698.822-17.323zm1.765 26.605a.36.36 0 01.522-.253.326.326 0 01.142.162c2.126 7.263 3.382 14.442 6.481 21.415 6.214 13.683 15.689 25.637 27.66 34.897 6.157 4.683 13.213 7.278 19.821 11.133a.631.631 0 01.234.81.697.697 0 01-.325.333.697.697 0 01-.461.059c-7.423-1.546-14.482-6.376-20.531-10.627a81.955 81.955 0 01-17.24-16.369c-8.571-11.06-16.684-27.076-16.303-41.56zm8.999-33.602c-1.556-16.638.873-38.172 17.65-48.096a.14.14 0 01.099-.026.128.128 0 01.086.05c.021.026.03.06.024.095a.135.135 0 01-.054.086c-6.724 6.753-11.545 13.419-14.16 22.49-2.687 9.495-3.304 19.363-1.81 28.962 2.717 18.528 10.918 33.772 21.14 49.041a.497.497 0 01.085.376.561.561 0 01-.596.449.52.52 0 01-.35-.176c-13.157-13.952-20.342-34.356-22.114-53.25zm19.465-50.953c27.236-17.446 63.032-8.346 86.451 9.087 11.242 8.463 20.53 19.136 27.301 31.373 6.554 11.715 13.088 27.537 11.282 41.415a.172.172 0 01-.039.099.181.181 0 01-.092.059.17.17 0 01-.107-.005.157.157 0 01-.08-.068c-1.725-6.39-2.238-13.019-4.121-19.395a103.861 103.861 0 00-8.011-19.712 102.154 102.154 0 00-25.58-30.745c-22.83-18.581-58.927-29.379-85.954-10.426-1.151.783-2.21-.997-1.05-1.682zm115.336 115.393c.991-4.581 3.761-8.805 5.371-13.279 1.611-4.475 2.585-9.181 4.158-13.688a.63.63 0 01.672-.441.564.564 0 01.506.585 46.447 46.447 0 01-3.248 14.967c-1.482 4.152-3.113 9.265-6.269 12.529-.547.55-1.325-.018-1.19-.673zm-108.907-8.838c9.023 13.551 21.776 25.529 37.268 31.807 8.11 3.105 16.794 4.685 25.607 4.658 8.41.109 16.13-2.337 24.373-3.382.22-.059.258.273.096.388-7.11 4.62-17.299 5.347-25.467 5.145-8.722-.387-17.247-2.31-25.168-5.675-16.222-6.495-29.003-17.695-38.732-31.784-.693-1.197 1.317-2.35 2.023-1.157z" fill="#F7F3EF"/></svg>