<svg width="216" height="227" viewBox="0 0 216 227" fill="none" xmlns="http://www.w3.org/2000/svg">
<path d="M21.3795 101.159C21.9562 92.2086 23.8842 83.3451 27.1005 74.8582C33.0901 59.1612 44.3474 44.8277 59.3383 36.77C61.8586 34.7474 64.7199 33.1815 67.7804 32.1498C71.7691 29.9901 76.0346 28.3943 80.4455 27.4114C80.7462 27.3415 81.0562 27.3326 81.3561 27.385C81.6561 27.4375 81.9397 27.5503 82.1892 27.7164C87.3267 26.6287 92.5384 25.9995 97.7595 25.8367C116.354 25.2623 134.519 30.0499 149.997 39.6045C180.663 58.5139 201.349 95.3824 197.72 131.897C196.076 149.838 187.367 166.689 173.446 178.863C173.428 179.098 173.363 179.328 173.253 179.54C173.142 179.752 172.99 179.941 172.805 180.096C167.515 184.537 161.721 188.356 155.547 191.472C154.863 191.851 154.158 192.194 153.438 192.497C148.09 195.041 142.517 197.068 136.8 198.548C131.02 201.75 123.177 202.455 117.117 202.909C109.28 203.438 101.442 202.943 93.8106 201.438C78.4079 198.493 64.1057 191.881 52.1471 182.176C27.9989 162.574 18.2365 131.624 21.3795 101.159ZM160.586 180.659C169.174 175.509 176.393 168.392 181.594 159.949C186.689 151.612 190.142 142.453 191.768 132.967C192.681 127.913 193.244 122.816 193.452 117.711C191.646 93.6927 179.303 70.4152 162.073 54.4991C148.654 41.9406 131.558 33.7405 112.99 30.9555C103.402 29.5741 93.5966 29.7097 83.9438 31.3573L81.1117 31.8466C66.0853 35.5719 54.3653 46.175 47.4104 59.6954C46.5374 61.3632 45.7812 63.0855 45.0976 64.8027C44.0495 69.3508 43.3999 73.965 43.1558 78.5944C43.1094 79.4237 43.1078 80.2552 43.0892 81.077C43.3557 86.4821 43.9327 91.8574 44.8176 97.1778C45.1217 99.1882 45.4883 101.153 45.8966 103.107C46.6843 105.761 47.5507 108.494 48.2027 111.257C48.2652 111.497 48.2457 111.754 48.1469 111.988C51.6585 123.593 57.0724 134.504 64.1816 144.304C73.5523 157.389 85.8971 171.639 100.659 179.047C108.293 182.884 117.102 184.656 125.516 186.206C129.807 187.089 134.16 187.704 138.55 188.046L139.295 188.075C141.772 187.524 144.337 187.206 146.756 186.541C151.603 185.21 156.264 183.238 160.607 180.682L160.586 180.659ZM106.24 197.179C112.722 197.593 119.257 197.278 125.718 196.24C127.73 196.315 129.75 196.302 131.791 196.197C133.223 195.54 134.652 194.869 136.071 194.158C133.084 193.836 130.135 193.287 127.251 192.517C113.801 192.222 101.037 187.042 90.5659 178.952C77.927 169.196 64.4452 157.46 57.0853 143.188C53.6255 136.467 50.7679 129.253 47.728 122.318C44.6074 115.175 41.7133 107.814 40.916 99.9751L41.1998 99.5692C39.9044 92.6852 39.4854 85.6411 39.9523 78.596C40.4076 70.807 41.6229 60.2343 45.7961 52.4343C45.0297 53.4572 44.2224 54.4338 43.4118 55.3969C41.9209 57.4851 40.2167 59.4226 38.327 61.1779C38.1646 61.5368 38.0193 61.9055 37.874 62.2741C36.3588 64.6436 34.992 67.0978 33.7814 69.6225C24.8992 88.0175 23.9448 109.282 28.1818 128.549C36.2711 165.523 66.7676 194.638 106.253 197.175L106.24 197.179Z" fill="#F7F3EF"/>
<path d="M51.2303 100.746C51.2726 99.7916 51.4463 98.8422 51.7465 97.9238L51.7982 97.5942C51.9077 96.8866 52.1602 96.2027 52.5406 95.5828C52.921 94.9628 53.4218 94.4195 54.0134 93.9847C50.9688 91.4162 50.0573 86.1645 49.9077 82.5018C49.7382 75.4008 51.2679 68.3007 54.3748 61.7678C54.5269 61.4255 54.693 61.0795 54.8623 60.7469C57.2944 54.8402 60.8609 48.9156 66.0924 45.5429C66.9573 44.9723 67.882 44.4974 68.8489 44.1273C70.067 43.2907 71.4731 42.7668 72.9326 42.6056C74.3921 42.4443 75.8562 42.6513 77.185 43.2065C77.6652 43.3936 78.1329 43.6081 78.5859 43.8489C78.3863 38.3053 96.4212 35.7529 99.3923 35.6861C107.527 35.5083 119.695 35.9687 125.72 42.2854C127.597 43.7642 129.049 45.6927 129.944 47.8952C130.698 46.8287 131.824 46.0648 133.099 45.7554C136.837 44.3628 141.017 46.497 143.995 48.4375C149.034 51.8433 153.585 55.882 157.536 60.4552C160.971 64.3682 165.671 69.4482 166.256 74.874C166.332 75.6223 166.31 76.3804 166.191 77.1302C166.682 77.0147 167.19 77.016 167.671 77.1342C178.013 77.5686 183.637 108.808 184.258 114.382C184.817 118.924 183.424 122.987 179.765 125.062C187.337 126.557 180.602 141.758 178.126 147.188C178.232 147.699 178.137 148.236 177.862 148.695C177.804 148.779 177.722 148.845 177.627 148.886C177.532 148.927 177.428 148.94 177.327 148.924C174.743 154.872 167.641 173.2 158.943 169.181C157.455 178.192 141.496 179.21 134.666 179.281C129.634 179.328 122.04 180.078 117.745 176.999C116.694 176.134 115.835 175.067 115.22 173.86C114.605 172.654 114.245 171.331 114.162 169.968C110.585 176.57 100.402 173.782 95.2924 170.219C91.9012 167.792 88.6909 165.135 85.6838 162.268L84.3615 161.044L83.8924 160.582C80.848 157.655 77.9645 154.541 75.1187 151.459C74.0055 150.31 73.0238 149.044 72.1901 147.683C71.0606 146.144 70.1476 144.459 69.4745 142.672C69.0686 141.777 68.9278 140.78 69.0678 139.792C69.2079 138.805 69.6232 137.865 70.2679 137.077C68.3159 136.898 66.6443 135.338 65.2933 133.52C61.3076 128.124 57.9836 122.276 55.3867 116.091C52.8138 110.999 50.9687 105.74 51.2303 100.746ZM54.4025 98.9177C53.637 100.071 53.8971 102.383 54.2611 104.338C61.0953 105.433 68.0446 105.876 75.0127 105.662C78.5124 105.64 82.0338 105.525 85.5418 105.357C87.5139 105.258 89.6264 104.948 91.7061 104.805C88.0093 104.148 84.3531 103.237 80.7418 102.328C80.744 102.344 80.7429 102.361 80.7384 102.377C80.734 102.393 80.7263 102.409 80.7159 102.422C80.7054 102.436 80.6924 102.447 80.6777 102.456C80.6629 102.464 80.6466 102.47 80.6297 102.473C76.7497 103.171 72.3032 104.151 68.5723 102.758C64.7198 101.091 61.0503 99.0645 57.6132 96.7054C56.3166 97.0434 55.1745 97.8303 54.4025 98.9177ZM95.7276 148.789L95.5917 148.897C95.1567 150.191 94.7527 151.491 94.3078 152.744L91.613 160.344C94.5339 155.339 97.5202 150.359 100.651 145.485C102.615 142.417 104.627 139.364 106.681 136.358C108.249 134.214 109.597 131.928 110.706 129.535C106.959 133.771 101.568 136.555 98.6607 141.556C97.484 143.717 96.5263 145.979 95.8016 148.31C95.8543 148.382 95.876 148.471 95.8623 148.561C95.8485 148.65 95.8002 148.732 95.7276 148.789ZM111.093 128.168C111.615 124.181 112.836 120.288 114.702 116.663C114.744 116.351 114.768 116.028 114.795 115.72L114.855 115.545C114.495 115.508 114.13 115.519 113.769 115.579C108.584 120.518 108.698 128.051 104.797 133.578C106.862 131.759 109.121 130.004 111.093 128.168ZM116.842 143.313C117.24 145.646 117.708 147.96 118.179 150.288C117.879 145.776 117.949 141.207 117.68 136.701C117.526 134.236 117.351 131.772 117.157 129.307L116.769 125.637C116.777 124.322 116.653 123.015 116.397 121.733C116.075 124.202 116.033 126.61 115.978 127.586C115.863 129.698 115.79 131.799 115.748 133.906C115.85 133.531 115.982 133.165 116.143 132.809C116.207 132.648 116.504 132.712 116.464 132.852C116.172 136.356 116.299 139.867 116.842 143.313ZM121.23 132.087C120.691 128.946 120.478 125.802 120.122 122.683C119.762 121.183 119.528 119.653 119.422 118.107C119.209 117.245 118.996 116.384 118.784 115.523C117.535 117.008 116.778 118.822 116.618 120.712C117.693 121.471 117.406 123.902 117.556 125.052C117.846 127.845 118.145 130.735 118.362 133.59C119.045 139.711 119.264 145.888 119.018 152.071C119.02 152.124 119.008 152.176 118.986 152.224C118.963 152.272 118.929 152.314 118.887 152.348C118.845 152.381 118.796 152.405 118.744 152.417C118.691 152.429 118.637 152.429 118.586 152.417C118.769 153.158 118.951 153.898 119.04 154.678L122.145 170.793C121.759 162.898 121.951 154.966 122.721 147.058C122.726 147.016 122.745 146.977 122.775 146.945C122.804 146.914 122.843 146.893 122.885 146.884C122.692 144.066 122.55 141.391 122.478 138.641C122.476 138.587 122.488 138.534 122.512 138.485C122.536 138.436 122.572 138.393 122.615 138.36C122.02 136.286 121.534 134.179 121.161 132.048L121.23 132.087ZM122.309 115.422C121.872 115.091 121.343 114.891 120.785 114.846C120.227 114.8 119.662 114.911 119.154 115.165C120.57 118.103 121.329 121.322 121.382 124.612C122.339 127.425 123.65 130.099 125.285 132.576C125.704 133.195 126.158 133.776 126.632 134.381C126.559 134.085 126.483 133.775 126.41 133.479C125.995 130.72 126.052 127.834 125.511 124.98C125.235 123.863 124.962 122.76 124.69 121.656C124.067 120.388 123.508 119.261 123.005 118.062C122.666 117.215 122.433 116.329 122.309 115.422ZM122.353 113.802C122.444 113.38 122.646 112.984 122.938 112.654C123.23 112.323 123.602 112.071 124.018 111.92C123.977 111.87 123.939 111.818 123.905 111.763C123.531 111.195 123.308 110.54 123.257 109.856C120.039 112.157 115.604 113.665 112.333 112.994C112.28 113.241 112.212 113.485 112.128 113.724C114.516 113.211 116.336 113.396 117.011 114.751C117.45 114.331 117.965 113.997 118.529 113.769C119.135 113.483 119.797 113.337 120.461 113.343C121.124 113.349 121.772 113.506 122.353 113.802ZM140.448 123.663C144.866 125.618 148.867 128.338 152.266 131.694C158.44 137.099 164.158 142.98 169.37 149.284C167.991 146.548 166.413 143.917 164.647 141.412C161.234 136.942 157.064 133.086 152.307 130.004C145.636 125.495 138.481 121.69 130.959 118.65C133.938 120.624 137.116 122.303 140.448 123.663ZM127.263 117.161L125.413 116.496C125.947 117.099 126.481 117.644 127.034 118.27C129.652 120.308 131.944 122.763 134.448 124.759C138.958 128.412 144.416 130.03 149.863 131.967C150.025 132.024 150.832 132.238 151.752 132.55C151.468 132.296 151.183 132.043 150.91 131.772C147.206 128.335 142.87 125.611 138.114 123.731C134.182 122.099 130.533 119.909 127.28 117.228L127.263 117.161ZM154.428 135.06C154.321 135.203 154.193 135.33 154.047 135.435C152.911 136.286 152.117 134.806 152.855 133.904C151.403 133.531 149.99 133.037 148.631 132.428C147.015 131.872 145.399 131.316 143.779 130.747C141.25 129.95 138.839 128.854 136.599 127.482L136.05 127.113C140.217 130.815 144.587 134.261 149.077 137.589C149.122 137.529 149.187 137.486 149.261 137.466C149.334 137.446 149.411 137.452 149.479 137.481C151.176 138.555 152.745 139.808 154.158 141.218C159.534 145.025 165.04 148.697 170.504 152.438C165.755 146.126 160.371 140.305 154.428 135.06ZM153.903 142.764L153.011 142.143C148.867 140.215 144.331 138.736 140.229 136.796C143.804 139.681 147.547 142.364 151.441 144.833C153.657 146.203 156.335 147.105 158.163 148.996C159.398 150.49 160.528 152.065 161.545 153.713C160.312 151.094 158.808 148.614 157.056 146.309C156.082 145.063 155.029 143.879 153.903 142.764ZM149.598 139.702C141.476 133.857 133.959 127.257 127.148 119.991L126.034 119.07C127.393 122.02 128.925 124.885 130.622 127.654C131.421 129.032 132.24 130.376 133.105 131.722C133.13 131.647 133.175 131.579 133.233 131.524C133.292 131.469 133.364 131.429 133.442 131.409C133.519 131.388 133.601 131.386 133.678 131.405C133.755 131.423 133.825 131.46 133.882 131.513C138.423 135.172 144.17 137.244 149.598 139.702ZM134.27 136.863C131.867 133.117 129.088 129.228 126.722 125.215C127.013 126.873 127.203 128.544 127.328 130.247C127.43 132.501 127.939 134.706 128.832 136.76C131.407 139.097 133.799 141.62 135.989 144.308C137.238 146.066 138.277 147.963 139.086 149.963C138.386 147.668 137.631 145.388 136.796 143.144C135.962 140.9 135.162 138.919 134.27 136.863ZM113.153 85.9931C113.03 85.9523 112.93 85.8663 112.872 85.7529C110.649 81.9589 107.32 79.0791 104.69 75.61C102.403 72.3659 100.76 68.7161 99.8435 64.8429C99.0323 61.9753 98.2943 59.0449 97.4937 56.1602C95.7337 53.7629 94.5453 50.925 92.8447 48.4688C92.2654 47.6198 91.6235 46.8165 90.9676 46.0169C91.679 47.8206 92.1645 49.728 92.7123 51.2886C94.8493 57.4308 97.5731 63.6736 98.829 70.0814C98.829 70.0814 98.8456 70.1487 98.7624 70.1711C102.354 75.4343 105.813 80.7618 109.07 86.2296C109.217 86.463 109.346 86.6866 109.475 86.9102C110.673 88.7695 111.842 90.651 112.983 92.5547C114.594 95.2501 116.449 98.2103 116.511 101.279L116.551 101.441C116.696 101.283 116.89 101.176 117.101 101.137C117.312 101.099 117.527 101.131 117.712 101.229C119.394 102.054 120.376 100.757 120.959 99.165C120.068 90.8795 116.953 83.2923 113.89 75.6767C114.244 77.6483 114.57 79.6274 114.934 81.5819C116.075 87.8864 117.227 94.193 118.39 100.502C118.426 100.627 118.413 100.764 118.353 100.884C118.292 101.004 118.189 101.099 118.063 101.151C117.937 101.203 117.797 101.207 117.672 101.164C117.546 101.12 117.443 101.032 117.383 100.916C115.002 96.3605 115.055 90.7633 113.153 85.9931ZM111.1 81.4501C107.25 72.1985 102.917 63.1605 98.117 54.3708C98.8457 56.8444 99.4946 59.3537 100.157 61.8594C101.469 66.8169 102.801 71.5538 106.045 75.59C107.646 77.6425 109.467 79.5067 111.113 81.5039L111.1 81.4501ZM83.8343 84.8336C86.7535 87.4933 89.6634 90.055 93.6993 91.3667C94.2098 91.5248 94.7335 91.6431 95.2657 91.7206C95.7011 91.7471 96.1293 91.8042 96.5575 91.8613C97.3663 91.9022 98.1756 91.8855 98.9916 91.8958C93.904 89.2593 88.4566 87.3224 83.585 84.183C83.605 84.2638 83.722 84.3184 83.7868 84.4015C83.834 84.4762 83.8582 84.5632 83.8567 84.6524C83.8552 84.7417 83.828 84.8296 83.7783 84.9061L83.8343 84.8336ZM89.7975 92.5162L89.549 92.4682C92.0294 94.0689 94.4992 95.6869 97.0429 97.1845C101.752 99.9657 106.651 102.438 111.371 105.202C111.684 104.81 111.951 104.387 112.169 103.939C112.581 103.766 112.974 103.55 113.341 103.294C112.108 101.774 110.791 100.334 109.415 98.9533C109.343 98.9767 109.267 98.9822 109.194 98.9692C109.121 98.9562 109.054 98.9252 108.997 98.879C106.196 96.5072 102.933 94.704 99.3896 93.5684C96.161 92.7716 92.9735 93.0401 89.7414 92.5887L89.7975 92.5162ZM81.5574 87.7134C78.0817 85.3756 73.7947 84.6049 69.5556 83.5488C65.6294 82.4872 61.8501 81.0004 58.2861 79.1155C61.8594 82.8731 66.4415 85.5746 71.5442 86.9322C74.1077 87.4488 76.709 87.7994 79.3312 87.9818C79.9867 88.0652 80.6328 88.1986 81.2637 88.3808C81.2331 88.3292 81.215 88.2711 81.2107 88.2108C81.2064 88.1505 81.216 88.0896 81.2388 88.0325C81.2616 87.9754 81.297 87.9236 81.3425 87.8809C81.3879 87.8382 81.4422 87.8057 81.5014 87.7858L81.5574 87.7134ZM75.2416 88.5502C72.5169 88.2576 69.8599 87.5955 67.3463 86.5826C64.2689 85.2982 61.4524 83.5083 59.0144 81.2878C62.3892 85.5616 66.7168 89.0155 71.6856 91.4007L72.4121 91.7077C72.9673 91.8599 73.5053 92.0023 74.0083 92.1828C80.012 94.0026 85.3995 97.2868 89.6763 101.734C89.6922 101.751 89.7004 101.773 89.6992 101.796C89.698 101.819 89.6874 101.842 89.6698 101.858C89.6523 101.874 89.6291 101.883 89.6054 101.882C89.5817 101.882 89.5595 101.872 89.5437 101.856C88.5356 101.007 87.5131 100.22 86.459 99.4846C87.0955 100.297 87.7804 101.071 88.5102 101.804L89.4587 102.051C92.6179 102.866 95.8062 103.66 99.0235 104.431C92.8429 101.346 87.5756 96.8068 83.6763 91.2053C83.6407 91.2329 83.5996 91.2526 83.5559 91.2629C83.5122 91.2732 83.467 91.2739 83.4237 91.2649C83.3803 91.2559 83.3399 91.2375 83.3054 91.211C83.2709 91.1844 83.2432 91.1505 83.2243 91.1116C81.6907 88.553 77.9623 88.967 75.241 88.6078L75.2416 88.5502ZM94.4303 100.442C98.9883 103.999 104.666 105.951 110.592 105.999C110.743 105.882 110.884 105.753 111.014 105.613C106.031 103.355 101.19 100.823 96.5122 98.0304C92.3625 95.6585 88.0714 93.2529 84.1227 90.4969C87.6129 93.7924 90.5732 97.5174 94.4303 100.442ZM110.404 110.212C108.617 109.665 106.779 109.276 104.911 109.048C102.855 109.001 100.794 109.075 98.7392 109.272C96.4922 109.521 94.234 109.576 91.9911 109.436C94.2809 110.47 96.6681 111.298 99.124 111.91C100.455 111.918 101.788 111.833 103.114 111.655C105.645 111.305 107.972 110.249 110.453 110.17L110.404 110.212ZM118.836 109.38C118.959 109.469 119.087 109.549 119.221 109.621C118.991 108.91 118.707 108.219 118.37 107.554C117.944 107.984 117.504 108.418 117.068 108.808C117.23 109.321 117.279 109.865 117.211 110.406C117.707 110.301 118.198 110.169 118.681 110.01C118.63 109.871 118.594 109.727 118.574 109.58C118.4 109.354 118.671 109.252 118.819 109.371L118.836 109.38ZM116.468 107.577C116.891 107.24 117.296 106.882 117.682 106.504C117.383 106.011 117.073 105.534 116.76 105.044C116.727 104.91 116.86 104.73 116.987 104.825C117.447 105.169 117.867 105.561 118.237 105.996C118.573 105.677 118.897 105.374 119.239 105.081C119.016 104.897 119.314 104.544 119.568 104.677L119.712 104.782C120.111 104.452 120.529 104.148 120.966 103.87C120.96 103.815 120.947 103.761 120.927 103.709C119.716 104.795 118.373 104.927 116.683 103.415C116.56 104.252 116.217 105.052 115.688 105.734C115.559 105.911 115.417 106.078 115.265 106.236C115.752 106.594 116.16 107.045 116.465 107.564L116.468 107.577ZM118.951 106.91C119.471 107.698 119.885 108.551 120.184 109.449C120.705 109.222 121.205 108.973 121.688 108.714C121.397 107.639 120.836 106.66 120.054 105.867C119.664 106.144 119.311 106.511 118.944 106.883L118.951 106.91ZM113.339 109.222C113.186 108.77 112.962 108.346 112.674 107.966C112.351 108.074 112.022 108.162 111.689 108.23C111.904 108.588 112.073 108.972 112.193 109.372C112.577 109.353 112.959 109.293 113.333 109.195L113.339 109.222ZM114.171 108.998C114.734 108.777 115.269 108.488 115.764 108.14C115.488 107.628 115.086 107.194 114.594 106.875C114.201 107.193 113.771 107.463 113.313 107.679C113.684 108.041 113.973 108.476 114.161 108.958L114.171 108.998ZM114.524 110.425C114.533 110.612 114.514 110.801 114.469 110.985L116.164 110.601C116.161 110.229 116.2 109.845 116.179 109.463C115.663 109.853 115.092 110.167 114.486 110.392L114.524 110.425ZM113.539 110.69C113.185 110.733 112.829 110.737 112.477 110.702C112.509 110.985 112.52 111.269 112.51 111.555C112.871 111.458 113.245 111.357 113.606 111.26C113.55 111.059 113.514 110.852 113.498 110.643L113.539 110.69ZM108.641 96.8363C109.182 97.351 109.696 97.8732 110.223 98.3916C111.371 99.3889 112.488 100.438 113.569 101.525C113.281 95.8615 108.785 91.186 105.359 86.9546C101.52 82.2459 97.5705 77.567 93.4541 72.9329C91.6094 70.9316 89.7612 68.936 87.9094 66.9462L87.6998 66.816C93.0927 77.806 100.129 87.9058 108.586 96.7937L108.641 96.8363ZM121.31 104.783C121.059 104.965 120.829 105.17 120.585 105.38C121.479 106.159 122.132 107.169 122.474 108.302L123.424 107.774C122.423 106.986 121.673 105.937 121.255 104.74L121.31 104.783ZM111.91 116.136C111.272 116.308 110.546 116.603 109.932 116.869L109.698 117.061C109.526 117.164 109.328 117.218 109.129 117.214C108.171 117.644 107.208 118.118 106.315 118.574C103.9 121.433 101.168 123.847 99.1157 127.039C97.8422 129.176 96.7452 131.406 95.8357 133.705C96.5145 132.92 97.1622 132.128 97.7656 131.277C99.7295 128.255 102.064 125.472 104.714 122.994C107.315 120.924 109.707 118.613 111.855 116.094L111.91 116.136ZM109.967 113.056C108.837 113.645 107.645 114.105 106.415 114.427C104.013 115.224 101.555 115.827 99.0663 116.231C100.9 116.507 102.765 116.593 104.631 116.486L105.958 115.871C106.003 115.786 106.021 115.691 106.009 115.599C106.01 115.24 106.487 115.197 106.661 115.423C106.835 115.649 106.681 115.504 106.691 115.544C107.455 115.224 108.209 114.921 108.941 114.653C109.337 114.149 109.663 113.598 109.912 113.014L109.967 113.056ZM96.5067 129.592C97.183 128.377 97.9208 127.231 98.6164 126.154C100.227 123.622 102.231 121.344 104.553 119.406C103.416 120.013 102.602 120.49 102.366 120.611L100.304 121.725C99.1829 124.422 97.8499 127.036 96.317 129.542L96.5067 129.592ZM102.237 117.632C100.327 117.394 98.3995 117.27 96.4658 117.26C96.4714 117.383 96.4365 117.505 96.3663 117.609C96.2962 117.713 96.1944 117.794 96.0761 117.839C93.8763 118.574 91.6699 119.282 89.4601 119.976L89.4933 120.111C89.4487 121.788 86.2464 123.854 84.9995 124.735C80.3212 127.772 74.5742 129.116 71.029 133.629C71.8594 134.081 72.8314 134.239 73.7874 134.078C79.573 130.249 85.556 126.725 91.7099 123.519C92.7292 122.915 97.2704 120.101 102.237 117.632ZM98.1303 115.435C100.153 115.138 102.159 114.723 104.139 114.193C105.526 113.82 108.71 113.236 110.234 111.98C110.285 111.756 110.323 111.531 110.348 111.304C107.924 111.309 105.469 112.271 103.006 112.718L102.853 112.759C102.277 112.866 101.695 112.931 101.112 112.954L100.078 112.959C100.069 113.053 100.028 113.141 99.9617 113.211C99.8958 113.28 99.8089 113.327 99.7146 113.344C95.9266 114.176 92.0985 115.205 88.2551 116.052C91.6084 115.796 94.9167 115.897 98.1303 115.435ZM89.3972 109.473C86.2314 108.658 82.9312 108.367 79.6303 108.611L72.5782 108.742C72.3551 108.816 72.1282 108.877 71.8986 108.925C78.2054 110.532 84.7029 111.428 91.2672 111.597C92.7638 111.668 94.2703 111.78 95.7602 111.824C93.7653 111.112 91.6451 110.132 89.4666 109.454L89.3972 109.473ZM86.9916 107.996C87.361 108.054 87.7094 108.147 88.0682 108.223C92.5515 109.07 96.8836 108.465 101.361 108.151C102.75 108.032 104.141 107.988 105.53 108.021C102.824 107.485 100.177 106.589 98.2527 106.102L95.8278 105.505C92.6321 106.58 88.6505 106.387 85.4159 106.525C81.3819 106.72 77.3458 106.786 73.3036 106.767C69.718 106.741 65.7401 106.863 61.8911 106.549C62.8091 106.733 63.7198 106.947 64.6366 107.246C65.5534 107.545 66.8273 108.092 67.9877 108.24C68.0272 108.172 68.0844 108.116 68.153 108.078C68.2217 108.039 68.2992 108.019 68.3772 108.02C74.5617 107.85 81.1094 106.994 87.061 107.977L86.9916 107.996ZM80.1899 102.189C76.658 101.302 73.1917 100.081 69.7281 98.9308L67.4552 98.3506C64.9304 97.709 62.3873 97.1728 60.0646 96.3908C59.7093 96.3878 59.3534 96.4068 58.999 96.4476C61.876 98.1571 64.7035 99.9659 67.7076 101.411C71.6895 103.283 76.0184 102.306 80.2593 102.17L80.1899 102.189ZM57.0809 92.9304C57.6985 93.328 58.3522 93.6709 59.0346 93.9552C60.9805 94.1622 62.8821 94.6158 64.692 95.3046C66.1323 95.8072 67.6004 96.3023 69.0618 96.7705C74.8582 98.2835 80.6523 99.7875 86.4442 101.283C85.6662 100.265 84.7989 99.3171 83.8518 98.4489C80.3657 95.7695 76.0191 94.3977 71.9701 92.6733C70.9906 92.42 69.9922 92.21 68.9749 92.0434C63.4156 90.9116 57.2041 89.6537 53.4436 85.3832C54.2217 88.0904 55.4503 90.6396 57.0809 92.9304ZM52.9727 81.0176C52.974 81.5626 53.0104 82.0695 53.0468 82.5764C56.4484 87.7902 62.2255 89.2653 68.0282 90.6044C61.9718 86.8609 56.9291 81.7679 53.2926 75.7218C53.0451 77.4847 52.9243 79.2581 52.931 81.0288L52.9727 81.0176ZM55.5759 66.7551C54.6871 69.2297 54.0169 71.7677 53.5729 74.3405C54.3651 75.3331 55.1573 76.3256 55.9356 77.322C55.9645 77.2707 56.0037 77.2255 56.0507 77.1891C56.0977 77.1528 56.1515 77.1261 56.2088 77.1107C56.2661 77.0953 56.3256 77.0915 56.3836 77.0996C56.4416 77.1078 56.4968 77.1276 56.5458 77.1579C61.7743 79.9218 67.3483 82.0424 73.1457 83.4734C76.0062 84.0331 78.7136 85.1215 81.1253 86.6814C79.768 85.2609 78.6845 83.6091 77.9243 81.8012C77.9243 81.8012 77.9243 81.8012 78.0075 81.7788C80.4069 83.5305 82.0835 86.309 84.1748 88.4306C86.0865 90.356 88.6984 91.4744 91.4843 91.5604C90.9197 91.3103 90.3657 91.043 89.805 90.7488C86.4685 88.919 83.5637 86.4402 81.2617 83.4586C77.1817 80.3503 70.9925 79.962 66.4772 77.4874C61.9218 74.9193 58.1547 71.2285 55.5343 66.7663L55.5759 66.7551ZM69.1825 77.7217C72.1844 79.0387 75.6744 79.6361 78.7219 80.8979C71.5133 75.6599 64.6856 69.688 56.3013 66.1583C59.2589 71.2389 63.7493 75.2699 69.1825 77.7217ZM56.1387 65.1399C63.0434 67.948 68.8634 72.3537 74.7006 76.7692C72.1627 73.6975 69.4336 70.784 66.5281 68.0445C63.8007 65.5629 60.7641 63.5663 57.8436 61.3806C57.2294 62.6078 56.653 63.8679 56.1387 65.1399ZM58.1612 60.7499C64.9786 64.7521 70.7112 70.2667 74.9175 76.8688C77.8791 79.1008 80.8373 81.3194 83.9116 83.3489C89.0028 86.6589 94.7092 88.6267 100.078 91.4457C100.416 91.6134 100.746 91.8117 101.072 91.9966L101.404 92.0222C96.4058 88.0701 91.1384 84.4056 86.294 80.2973C77.1569 72.5662 69.3197 63.4806 63.0497 53.3503C61.1555 55.6442 59.5162 58.1255 58.1612 60.7499ZM100.027 89.6798C90.2218 76.1958 78.3975 64.2639 64.932 54.2651C71.2174 63.9746 78.92 72.7051 87.8062 80.1921C91.7252 83.4872 95.9412 86.4871 100.014 89.626L100.027 89.6798ZM65.1411 51.0371C64.7392 51.4466 64.3546 51.8657 63.97 52.2849C75.6271 60.7708 86.1252 70.6637 95.2286 81.7416C92.0794 76.9509 89.3868 71.8771 87.1835 66.5816C83.1469 64.3085 79.0931 62.0256 75.207 59.5829C71.3144 57.369 68.0248 54.2909 65.5917 50.5859L65.1411 51.0371ZM69.3052 47.894C68.2331 48.459 67.231 49.1478 66.3209 49.9449C69.2349 54.1431 73.0937 57.6169 77.6152 60.1123C80.3541 61.8014 83.2795 63.1678 85.959 64.9159C80.488 59.1677 74.8949 53.5241 69.3052 47.894ZM69.8545 47.6028C74.604 51.8658 79.1226 56.3917 83.5857 60.9326C82.5953 59.3762 81.6464 57.8086 80.6342 56.3441C78.3471 53.0696 75.8897 49.884 73.7663 46.4937C72.4149 46.6426 71.0916 47.0178 69.8545 47.6028ZM78.1351 46.6969C76.8736 46.4863 75.5865 46.4182 74.2989 46.494C76.6378 49.2489 78.828 52.1234 80.8612 55.1063C83.3297 58.2283 85.5457 61.5379 87.4899 65.0066C90.4294 68.168 93.3097 71.3691 96.1308 74.6101C99.7166 78.7123 103.292 82.8317 106.759 87.052C103.688 81.9789 100.759 76.8245 97.4968 71.8747C96.0939 69.726 94.6689 67.3678 93.1891 64.9671L88.9763 58.9236C87.9913 57.5093 86.6195 55.3665 85.0447 53.1204C83.0405 50.6903 80.7186 48.5317 78.1351 46.6969ZM80.7231 45.1975C85.6253 49.0606 89.0499 56.1052 92.2061 60.6243C94.2359 63.6953 96.4632 66.7276 98.5446 69.8278C96.4317 65.1749 94.6051 60.3944 93.0741 55.5113C91.4195 50.9042 90.4335 44.8114 86.3363 41.6934C83.6511 42.5589 81.4644 43.7065 80.6953 45.2049L80.7231 45.1975ZM87.821 41.2369C90.0253 43.0787 91.9325 45.2347 93.4824 47.6371C94.3416 48.8413 95.2286 50.0381 96.045 51.3686C95.8723 50.6687 95.588 50.0562 95.3254 49.3518C95.0629 48.6474 94.687 48.2031 94.3539 47.6324C94.314 47.4709 94.4949 47.3649 94.5869 47.498C93.575 45.0387 92.3033 42.697 90.7918 40.5099C89.7694 40.7418 88.7608 40.9699 87.7932 41.2443L87.821 41.2369ZM92.0217 40.2797C94.427 44.0095 96.2837 48.0645 97.5394 52.3302C103.82 62.8652 109.27 73.8729 113.845 85.2616C113.897 85.3766 113.903 85.5079 113.862 85.6302C114.775 87.6079 115.439 89.6941 115.839 91.8441C114.821 86.2192 113.792 80.6115 112.649 75.0202C112.552 74.9727 112.478 74.8897 112.444 74.7883C110.586 68.04 106.084 62.5623 103.404 56.1357C101.314 51.0857 99.1768 45.0011 99.2551 39.3253C97.3723 39.4871 94.7273 39.7963 91.9801 40.2909L92.0217 40.2797ZM100.958 39.8722C100.927 39.8724 100.898 39.8638 100.873 39.8476C100.848 39.8314 100.828 39.8082 100.817 39.7809C100.742 39.5973 100.718 39.3961 100.747 39.197L99.8193 39.2741C100.503 42.0467 100.83 44.9297 101.57 47.6873C102.558 51.3683 103.872 54.9478 105.497 58.3858C106.97 61.4774 109.252 64.5523 110.97 67.736C109.833 64.4871 108.928 61.1581 108.259 57.7724C107.1 54.7543 105.191 52.1103 103.807 49.1384C102.43 46.2045 101.458 43.0931 100.916 39.8834L100.958 39.8722ZM101.802 39.1573C102.489 43.302 103.81 47.3007 105.72 51.0206C106.372 52.2807 107.106 53.5185 107.743 54.7824C106.921 49.6181 106.5 44.3867 106.484 39.1328C104.915 39.0667 103.324 39.0925 101.76 39.1685L101.802 39.1573ZM107.722 39.1732C107.748 44.3933 108.094 49.5961 108.757 54.7539C109.18 57.5033 109.781 60.2179 110.555 62.8815C110.642 62.8929 110.723 62.9265 110.79 62.9789C110.858 63.0313 110.909 63.1007 110.94 63.1801C111.725 65.3529 112.372 67.5753 112.878 69.835C112.878 69.835 112.911 69.9696 112.924 70.0234C116.248 78.8174 120.321 87.3525 121.786 96.7037C121.865 96.4241 121.93 96.1483 121.981 95.9338C122.031 95.7193 122.216 95.2103 122.32 94.8522C122.523 90.5783 120.148 86.4089 118.576 82.4971C116.713 77.3965 115.485 72.0755 114.916 66.6463C114.218 61.4231 113.691 56.1686 112.54 51.0244C111.532 46.8804 109.936 42.9141 107.797 39.239L107.722 39.1732ZM143.893 109.633C143.258 109.498 142.63 109.351 142.01 109.192C141.658 109.164 141.305 109.154 140.952 109.161C140.799 109.202 140.798 108.958 140.892 108.919L139.947 108.627C137.769 108.872 135.601 109.23 133.453 109.699C135.281 109.985 137.053 110.513 138.721 111.268C143.599 113.415 147.982 115.954 153.337 117.097C154.742 117.394 156.154 117.603 157.584 117.764C155.042 117.238 152.683 116.133 150.694 114.536C148.553 112.815 146.508 110.581 143.893 109.633ZM160.075 110.779C166.709 110.632 173.518 108.199 179.965 106.394C176.81 104.748 173.293 103.829 169.674 103.707C168.489 104.542 167.408 105.493 166.168 106.4C162.91 108.841 159.05 108.845 155.209 108.5C150.432 108.058 145.606 108.072 140.799 108.542C147.295 108.733 153.545 110.928 160.075 110.779ZM153.278 107.21C155.667 107.543 158.092 107.632 160.517 107.475C163.639 107.123 165.471 105.554 167.831 103.671L168.033 103.531C167.976 103.474 167.936 103.403 167.917 103.325C167.897 103.247 167.9 103.165 167.923 103.087L166.767 103.254C163.932 103.534 161.089 103.642 158.253 103.577L157.962 103.655C157.896 103.672 157.827 103.672 157.763 103.654C157.698 103.636 157.641 103.601 157.596 103.552C155.912 103.56 154.232 103.581 152.543 103.691C144.957 104.295 134.882 104.822 128.475 109.846C136.537 107.324 144.982 106.426 153.292 107.207L153.278 107.21ZM158.631 102.47C161.723 101.036 164.89 99.7832 167.918 98.1509C170.282 96.8838 172.537 95.4738 174.765 94.0137L174.271 93.9887C170.402 96.2917 166.102 96.8451 161.731 97.8336C159.042 98.4394 156.382 99.1879 153.766 100.076C150.886 101.051 148.054 102.759 145.105 103.337L148.062 102.973C151.579 102.609 155.108 102.442 158.631 102.47ZM145.032 103.342C144.824 103.398 144.637 103.118 144.832 102.951C146.592 101.743 148.534 100.823 150.579 100.229C153.328 99.1861 156.134 98.3071 158.981 97.597C161.686 96.8699 164.456 96.5271 167.2 95.9614C169.235 95.5171 171.218 94.8396 173.106 93.9431C170.483 93.5556 167.835 93.3093 165.174 93.2052C160.083 93.2534 156.109 95.7283 151.59 97.7327C151.484 97.7722 151.369 97.7726 151.265 97.7339C149.686 98.4752 148.053 99.092 146.381 99.578C143.037 100.592 139.67 101.569 136.266 102.398C133.148 104.987 129.587 107.939 126.55 108.455C126.317 109.077 126.213 109.735 126.243 110.388C131.162 105.449 138.263 104.258 145.046 103.396L145.032 103.342ZM141.843 87.1207C145.462 84.3467 148.921 81.3753 152.203 78.2214C154.977 75.3064 157.595 72.2548 160.049 69.0797C158.598 69.8289 157.234 70.735 155.982 71.7803C154.272 73.3021 152.758 75.0153 151.192 76.6994C148.681 79.4123 145.743 82.7282 142.052 83.8352C140.172 86.3997 138.061 88.7977 135.745 90.999C137.039 90.2493 138.343 89.5399 139.533 88.8469C140.27 88.419 141.042 88.0106 141.814 87.6022C141.763 87.5415 141.738 87.4629 141.746 87.383C141.754 87.3032 141.794 87.2284 141.856 87.1746L141.843 87.1207ZM144.272 86.2955C146.923 85.068 149.372 83.4405 151.527 81.4745C153.078 79.9093 154.187 77.9895 155.81 76.4767C156.292 76.0314 156.85 75.5944 157.421 75.1537C158.266 73.8019 158.974 72.3759 159.536 70.8968C155.431 76.8873 150.261 82.1253 144.285 86.3493L144.272 86.2955ZM146.547 85.9853C141.932 88.3716 137.453 91.0133 133.132 93.8972C131.873 94.6873 130.777 95.7091 129.909 96.9033C129.041 98.0975 128.418 99.4404 128.076 100.854C127.785 101.894 127.519 102.913 127.173 103.967C129.726 101.652 132.519 99.6065 135.502 97.8671C139.527 95.4332 143.082 92.3071 145.991 88.6463C147.586 86.7821 149.389 84.9771 151.134 83.0584C149.714 84.2018 148.181 85.2008 146.56 86.0391L146.547 85.9853ZM149.092 86.6501C145.975 90.2006 142.994 94.303 138.973 96.9483C136.947 98.268 134.748 99.2466 132.756 100.643C131.314 101.67 129.926 102.771 128.601 103.942C131.354 102.613 134.008 101.084 136.538 99.3682C137.405 98.8626 138.271 98.3571 139.116 97.8283L139.866 97.2681C146.106 92.5908 153.575 88.1572 159.013 82.5044C160.095 81.3951 161.012 80.1431 161.734 78.7877C158.042 81.3963 154.124 83.6748 150.029 85.5943C149.731 86.0046 149.389 86.2974 149.105 86.7039L149.092 86.6501ZM150.564 91.4783C149.644 92.1849 148.704 92.8683 147.767 93.5652C146.378 94.771 145.037 96.05 143.607 97.2669C141.981 98.6359 140.259 99.8903 138.455 101.02C144.938 99.0044 151.497 97.4134 156.639 92.6007C158.75 90.534 161.004 88.6137 163.385 86.8546C160.149 87.5306 156.967 88.4723 153.875 89.6698C152.796 90.3329 151.69 90.946 150.578 91.5321L150.564 91.4783ZM125.75 104.795C127.21 101.962 127.265 98.6466 129.293 96.0201C129.895 95.2945 130.568 94.6279 131.302 94.0306C131.26 93.964 131.242 93.8856 131.249 93.8064C131.256 93.7272 131.288 93.6513 131.341 93.5895C135.117 89.4742 139.315 86.0493 142.664 81.518C144.192 79.4693 145.596 77.3375 146.871 75.134C147.476 74.1102 148.03 73.0572 148.583 72.0042C148.813 71.5551 149.413 70.6329 149.883 69.7174C148.914 70.7671 147.908 71.784 146.926 72.7799C142.986 76.4569 139.448 80.5262 136.374 84.9169C136.417 84.9649 136.447 85.022 136.464 85.084C136.481 85.1461 136.483 85.2115 136.47 85.2755C136.458 85.3395 136.431 85.4004 136.391 85.4537C136.352 85.5071 136.301 85.5515 136.243 85.5837L135.579 85.8913C135.042 88.3318 132.212 90.2266 130.44 91.7364C127.615 94.1321 124.643 96.6533 123.092 99.8976C122.968 100.232 122.836 100.54 122.702 100.835C122.524 101.313 122.383 101.802 122.279 102.298C122.376 102.389 122.45 102.502 122.494 102.627L122.527 102.762C122.631 102.858 122.704 102.984 122.734 103.122C123.103 104.616 124.226 105.032 125.708 104.863L125.75 104.795ZM150.381 67.6028C150.508 67.3965 150.505 67.3831 150.681 67.3787C151.423 66.4903 152.166 65.5443 152.901 64.6865C149.116 66.3477 145.58 68.5313 142.402 71.1688C140.455 72.856 138.816 74.8563 137.56 77.0776C136.925 78.2142 136.422 79.4135 136.061 80.6524C135.876 81.2662 135.744 81.8923 135.665 82.5241C135.524 82.909 135.527 83.3257 135.674 83.6986C135.729 84.4014 135.913 84.3088 136.247 83.4441C137.631 82.0387 138.704 80.157 140.023 78.6686C141.633 76.8007 143.379 75.1257 145.111 73.3969C146.844 71.6681 148.705 69.5604 150.412 67.6663C150.412 67.6663 150.385 67.6162 150.381 67.6028ZM122.89 86.7337C123.823 83.6829 124.365 80.5429 124.503 77.3875C124.477 74.3155 124.169 71.2618 123.582 68.2631C122.602 62.6136 120.923 56.7072 121.656 50.8697C121.161 55.337 119.909 59.8502 119.502 64.1935C118.908 72.6369 119.837 81.0643 122.244 89.0889C122.596 90.1261 122.859 91.193 123.031 92.2787C123.155 91.9439 123.266 91.6128 123.376 91.2816L123.641 89.7754C123.877 88.2766 124.12 86.8623 124.352 85.4076C124.143 85.9328 123.904 86.4472 123.638 86.9487C123.442 87.5325 122.782 87.1934 122.89 86.7337ZM131.636 72.0109C132.041 69.2052 132.858 66.4575 134.06 63.8532L133.135 64.7191C133.062 64.7598 132.981 64.7817 132.899 64.7825C131.558 66.946 130.357 69.1863 129.304 71.4898C128.519 73.3634 127.851 75.2781 127.302 77.2234C127.016 79.5392 126.701 81.8581 126.357 84.1799C126.25 84.8258 126.075 86.3941 125.778 88.3683L127.209 86.0173C129.894 81.4924 130.762 77.0395 131.636 72.0109ZM129.69 83.5422C133.897 79.1961 135.442 73.8294 137.422 68.1302C139.004 63.5216 141.287 59.1521 144.193 55.1728C140.595 57.1191 137.562 59.9566 135.41 63.3899C133.255 67.1264 132.828 71.389 132.116 75.513C131.665 78.2694 130.849 80.9687 129.69 83.5422ZM124.491 95.2589C124.411 95.6536 124.314 96.0385 124.203 96.4272C124.598 95.9333 125.001 95.4663 125.434 95.0053C128.216 92.0758 132.541 89.8224 134.696 86.3295C130.528 88.3213 126.987 91.4196 124.491 95.2589ZM108.752 39.212C112.187 44.2015 113.623 50.5608 114.586 56.8607C114.901 51.5158 116.642 46.2962 119.636 41.7252C116.189 40.3422 112.519 39.5121 108.765 39.2658L108.752 39.212ZM114.904 58.9856C114.899 59.037 114.873 59.085 114.833 59.1194C115.224 62.143 115.526 65.1044 115.924 67.8536C116.576 72.356 117.666 76.7724 119.179 81.0435C118.335 76.154 118.062 71.1673 118.365 66.1784C118.824 58.3909 122.228 50.0701 120.241 42.438C117.184 47.5358 115.361 53.2205 114.917 59.0395L114.904 58.9856ZM121.335 42.6174C121.891 45.159 122.015 47.7872 121.703 50.398L121.8 50.3718C122.406 57.3848 124.109 64.1031 125.117 71.0078C125.247 71.8916 125.358 72.8232 125.463 73.7854C125.913 69.6171 126.665 65.4108 127.214 61.4026C127.43 59.823 127.615 58.295 127.72 56.8029C127.766 54.9006 127.702 53.0011 127.529 51.1135C127.252 49.3025 126.549 47.5934 125.474 46.1197C124.4 44.6459 122.984 43.4473 121.335 42.6174ZM130.791 50.9684C130.848 51.1972 130.904 51.426 130.877 51.6772C131.252 56.3126 129.992 61.2152 129.123 65.7833C128.725 67.8277 128.375 69.9454 127.998 72.0706C129.137 69.413 130.639 66.9086 132.461 64.6274C132.409 64.5656 132.381 64.487 132.383 64.4053C132.384 64.3237 132.415 64.244 132.469 64.1804C135.922 59.5924 132.279 53.5822 135.061 48.6723C134.224 48.7295 133.405 48.9658 132.66 49.3645C131.915 49.7632 131.262 50.3146 130.75 50.9796L130.791 50.9684ZM136.133 48.6424L136.156 48.7366C133.521 52.8609 135.877 57.8534 134.55 62.1857C136.006 60.6318 137.224 58.8821 138.165 56.9945C139.18 54.6633 139.91 52.2312 140.341 49.7501C139.003 49.1234 137.547 48.7551 136.05 48.6648L136.133 48.6424ZM140.767 49.9799C140.794 52.8034 140.034 55.6078 138.569 58.0915C140.771 56.1517 143.208 54.4882 145.822 53.1419C144.217 51.9393 142.497 50.8883 140.684 50.0023L140.767 49.9799ZM150.057 56.5814C149.067 55.7427 147.867 54.7162 146.549 53.6926C146.526 53.7629 146.493 53.8299 146.45 53.8914C141.866 59.5873 139.358 65.8446 137.021 72.558C138.947 69.7554 141.193 67.1717 143.714 64.8599C146.326 62.4357 149.404 60.704 152.025 58.3201C151.345 57.7852 150.666 57.2502 149.974 56.6038L150.057 56.5814ZM152.916 59.1139C151.046 61.3675 147.58 62.8447 145.498 64.5957C143.847 66.0273 142.3 67.5704 140.869 69.2128C139.456 71.0319 137.947 72.779 136.349 74.4468C134.874 78.3595 132.844 82.4214 129.204 84.6917L128.605 85.8C127.57 87.5995 126.394 89.3653 125.407 91.1806C125.301 91.7689 125.195 92.3572 125.075 92.9492C127.648 89.5463 131.086 86.8524 135.026 85.15C134.232 84.3301 134.675 82.6468 134.897 81.5682C135.533 78.6404 136.883 75.8834 138.83 73.5356C142.788 68.5965 148.475 65.6323 154.176 63.0232L155.291 61.5467C154.518 60.6924 153.672 59.9009 152.832 59.1363L152.916 59.1139ZM156.816 62.9308L154.485 63.9736C153.508 65.5564 152.393 67.0567 151.154 68.457C150.732 69.8071 150.138 71.105 149.386 72.3195C147.96 75.2778 146.293 78.1258 144.403 80.8351C143.891 81.5756 143.364 82.3199 142.811 83.0716C146.365 80.4137 149.627 77.3953 152.539 74.0695C154.564 71.8459 157.39 68.675 160.516 67.6192C159.379 65.9645 158.104 64.4066 156.705 62.9606L156.816 62.9308ZM161.108 68.6371C161.104 68.7653 161.091 68.8934 161.069 69.0206C161.139 69.057 161.198 69.1102 161.241 69.1754C162.644 71.9268 160.591 73.8565 158.519 75.6479C156.208 79.0207 153.588 82.1854 150.691 85.1006C152.859 83.7571 155.061 82.4906 157.206 81.0529C159.004 80.0355 160.743 78.9162 162.413 77.7011C162.922 76.4316 163.178 75.0857 163.165 73.7386C162.707 71.9431 161.976 70.2339 160.997 68.6669L161.108 68.6371ZM171.112 82.2657C169.392 80.3313 167.434 79.3506 165.316 79.877C164.166 82.0659 162.523 83.9815 160.515 85.4734C159.734 86.0852 158.93 86.6603 158.105 87.2122C160.768 86.4963 163.474 85.8978 166.158 85.205C167.91 84.2545 169.781 83.5439 171.715 83.0937C171.508 82.7908 171.348 82.5036 171.112 82.2657ZM175.232 89.2525C174.447 87.5195 173.54 85.8453 172.516 84.2418C170.417 85.0644 168.267 85.7432 166.081 86.2733C164.769 86.96 163.528 87.7746 162.377 88.7043C160.146 90.5098 158.229 92.69 156.046 94.5112C158.463 93.4022 161.044 92.7082 163.674 92.4603C166.108 92.3318 168.54 92.4474 170.932 92.8053C172.138 92.9549 173.406 93.0589 174.635 93.2451L175.792 92.6612C175.945 92.6202 176.119 92.7885 175.97 92.9006L175.356 93.3525L175.774 93.4268L176.665 92.8427C176.186 91.6223 175.722 90.3982 175.232 89.2525ZM177.023 94.0526L175.985 94.102C171.499 97.5218 166.575 100.338 161.352 102.471L162.66 102.435L163.784 102.377L163.456 102.364C163.39 102.382 163.32 102.374 163.262 102.341C163.204 102.308 163.162 102.254 163.147 102.189C163.131 102.125 163.142 102.056 163.177 101.998C163.213 101.94 163.27 101.898 163.336 101.88C166.07 100.973 168.699 100.596 171.3 99.208C173.449 97.9864 175.428 96.4886 177.182 94.7562C177.157 94.4758 177.09 94.2642 177.023 94.0526ZM177.452 95.3724C174.682 98.6788 170.909 101.039 166.716 102.091C170.754 101.534 174.726 100.5 178.542 99.0117C178.216 97.8078 177.785 96.6031 177.483 95.3784L177.452 95.3724ZM178.866 100.202L177.479 100.575C175.745 101.232 173.975 101.785 172.178 102.23C171.832 102.323 171.542 102.53 171.243 102.696C174.364 102.959 177.373 103.85 180.083 105.314C179.719 103.661 179.315 101.961 178.869 100.216L178.866 100.202ZM180.509 107.281C174.004 109.03 167.243 111.479 160.56 111.725C157.403 111.741 154.264 111.435 151.195 110.813C149.465 110.517 147.7 110.317 145.916 109.979C146.808 110.506 147.656 111.098 148.453 111.751C149.284 112.418 150.09 113.048 150.889 113.651C150.148 113.035 149.548 112.273 149.124 111.413C153.905 117.002 161.219 114.634 167.251 112.108C171.664 110.276 176.177 108.546 180.921 109.61C180.815 108.878 180.629 108.124 180.513 107.294L180.509 107.281ZM181.554 113.013C181.395 112.367 181.31 111.543 181.16 110.636C181.098 110.665 181.033 110.683 180.966 110.689C173.609 108.806 167.226 114.167 160.214 115.478C157.352 116.08 154.4 115.673 151.885 114.33C154.022 115.909 156.545 116.927 159.228 117.293C163.499 117.547 167.806 117.248 172.038 116.404C175.139 115.748 178.321 115.703 181.397 116.27C181.535 115.192 181.588 114.107 181.557 113.027L181.554 113.013ZM164.046 118.122C169.466 118.087 174.89 117.703 180.283 116.972C176.856 116.329 173.214 117.093 169.748 117.551C167.86 117.814 165.949 118.041 164.05 118.135L164.046 118.122ZM179.577 121.84C180.428 120.663 181.002 119.321 181.255 117.916C172.745 118.97 164.102 119.844 155.649 118.614C151.374 117.984 147.247 116.707 143.415 114.828C138.973 112.649 134.354 109.873 129.278 110.879C128.445 111.102 127.627 111.322 126.818 111.64C127.193 111.991 127.672 112.218 128.191 112.29C128.374 112.37 128.584 112.443 128.777 112.506C133.144 112.025 137.525 112.618 141.523 114.232C138.785 114.164 136.111 113.519 133.363 113.411C132.824 113.384 132.295 113.397 131.78 113.406C133.655 113.993 135.551 114.545 137.451 115.111L148.618 118.409L150.21 118.871C155.015 119.101 159.954 120.657 164.464 121.913C169.34 123.272 176.098 124.584 179.577 121.84ZM140.094 117.673C137.674 116.974 135.236 116.324 132.805 115.642C133.882 116.171 134.934 116.72 136.018 117.218C138.579 118.424 141.262 119.526 143.81 120.864C142.623 120.007 141.435 119.149 140.226 118.326C140.172 118.294 140.125 118.252 140.089 118.202C140.052 118.151 140.027 118.093 140.015 118.032C140.003 117.971 140.003 117.907 140.017 117.846C140.031 117.784 140.057 117.725 140.094 117.673ZM177.62 125.897C177.342 125.972 177.051 126.05 176.76 126.128C172.625 127.355 168.151 125.945 164.314 124.781C160.191 123.536 156.064 122.316 151.934 121.12C154.997 122.426 157.978 123.901 160.863 125.537C162.169 126.276 163.493 127.026 164.806 127.792L166.876 127.91C170.259 128.025 173.628 128.312 176.968 128.77C177.936 128.92 178.873 129.204 179.75 129.616C179.36 128.217 178.629 126.941 177.62 125.897ZM180.098 131.144C177.541 129.535 174.443 129.507 171.251 129.217L166.728 128.868C171.077 131.388 175.39 134.003 179.47 136.81C180.039 134.964 180.252 133.042 180.098 131.144ZM176.561 144.38C177.638 142.178 178.561 139.911 179.323 137.595C174.129 134.942 169.115 131.977 164.309 128.715C162.803 128.603 161.41 128.475 159.966 128.318C154.146 127.687 149.959 124.622 145.875 120.84C145.855 120.759 145.912 120.629 146.001 120.692C148.523 122.682 151.242 124.426 154.119 125.9C156.799 127.005 159.681 127.612 162.622 127.69C162.154 127.414 161.697 127.121 161.219 126.862C155.499 123.381 149.29 120.704 142.765 118.906C147.833 122.635 152.678 126.641 157.278 130.907C160.193 133.737 164.01 135.519 168.143 135.98C171.663 136.38 175.148 136.991 178.578 137.81C178.696 137.853 178.793 137.938 178.848 138.049C178.904 138.16 178.914 138.289 178.878 138.41C178.841 138.531 178.76 138.636 178.65 138.704C178.54 138.773 178.41 138.799 178.284 138.779C175.483 138.097 172.575 137.759 169.713 137.308C171.918 138.945 173.859 140.893 175.474 143.093C175.723 143.443 176.137 143.862 176.551 144.34L176.561 144.38ZM176.105 145.349C173.74 142.475 171.22 139.727 168.557 137.117C164.85 136.679 161.346 135.337 158.364 133.212C155.592 131.087 153.143 128.416 150.459 126.109C149.026 124.858 147.537 123.68 146.034 122.505C142.603 121.248 139.254 119.801 136.002 118.17C133.2 116.885 130.381 115.591 127.692 114.104L126.49 113.666L125.331 113.705C124.858 113.947 124.704 114.519 124.789 115.286L125.651 115.6C125.68 115.529 125.726 115.467 125.784 115.416C125.842 115.365 125.911 115.329 125.986 115.309C126.06 115.289 126.137 115.286 126.212 115.301C126.286 115.316 126.355 115.348 126.413 115.395L127.673 116.362C136.854 119.755 145.551 124.219 153.583 129.661C157.327 132.137 160.714 135.086 163.661 138.433C163.693 138.397 163.736 138.371 163.783 138.359C163.83 138.346 163.879 138.347 163.924 138.362C168.36 140.194 172.333 142.912 175.597 146.347L176.105 145.349ZM174.818 148.164L175.345 147.003C173.542 145.694 171.865 144.351 170.049 143.103C168.232 141.854 166.402 140.911 164.671 139.712L164.927 140.03C167.918 144.195 170.474 148.652 172.559 153.335C173.436 151.377 174.181 149.541 174.808 148.124L174.818 148.164ZM171.985 154.666L171.706 154.253C168.443 152.26 165.213 150.258 162.015 148.248C162.224 148.493 162.426 148.711 162.62 148.96C162.815 149.209 162.525 149.173 162.46 149.09C162.091 148.615 161.691 148.191 161.291 147.768C160.078 146.989 158.893 146.202 157.746 145.391C160.127 148.611 162.085 152.119 163.577 155.836C163.621 155.909 163.641 155.993 163.636 156.078C163.632 156.164 163.602 156.247 163.551 156.318C163.5 156.389 163.43 156.445 163.349 156.479C163.268 156.514 163.179 156.525 163.093 156.511C164.523 158.605 165.72 160.847 166.667 163.2C168.875 160.629 170.659 157.741 171.951 154.647L171.985 154.666ZM161.691 155.382C160.509 153.917 159.415 152.386 158.414 150.794C156.351 147.948 152.632 146.78 149.75 144.871C145.308 141.918 141.305 138.401 137.148 135.099C135.847 134.296 134.629 133.375 133.51 132.345C133.806 132.825 134.105 133.319 134.415 133.795C137.026 136.882 139.528 140.07 141.982 143.243C141.998 143.197 142.024 143.155 142.06 143.122C142.096 143.089 142.139 143.064 142.187 143.052C142.234 143.039 142.283 143.038 142.33 143.049C142.377 143.061 142.419 143.083 142.454 143.116C144.494 144.849 146.113 147.098 148.125 148.896C150.332 150.886 152.717 152.699 155.095 154.485C158.703 157.072 162.155 159.857 165.436 162.828C164.245 160.278 162.921 157.85 161.656 155.362L161.691 155.382ZM157.283 164.79C157.347 164.993 157.398 165.2 157.436 165.409C158.693 166.056 160.141 166.292 161.573 166.082C163.005 165.872 164.35 165.228 165.415 164.24C161.521 160.644 157.399 157.29 153.072 154.197C150.958 152.584 148.389 150.806 146.169 148.762C149.978 153.708 154.972 159.14 157.249 164.771L157.283 164.79ZM154.712 165.639C154.676 165.491 154.639 165.343 154.602 165.195C152.448 162.459 150.57 159.103 148.857 156.895C144.615 151.333 140.425 145.742 136.472 139.973C136.756 140.643 137.026 141.26 137.306 141.974C138.24 144.378 139.118 146.797 139.899 149.242C140.281 150.431 140.742 151.642 141.089 152.869C143.133 156.773 145.532 160.479 148.259 163.944C150.212 166.14 151.596 168.771 152.3 171.627C153.383 171.073 154.228 170.149 154.669 169.036C155.109 167.924 155.112 166.704 154.678 165.62L154.712 165.639ZM146.438 174.064L148.287 173.466C148.842 173.317 149.384 173.114 149.912 172.857C147.095 170.363 144.89 167.278 143.451 163.816C144.478 167.2 145.464 170.594 146.459 174.029L146.438 174.064ZM141.787 158.092C142.072 159.249 142.458 160.394 142.786 161.541C142.649 160.868 142.569 160.184 142.547 159.495C142.552 159.433 142.577 159.373 142.618 159.324C142.659 159.276 142.714 159.241 142.776 159.224C142.838 159.207 142.903 159.21 142.961 159.232C143.02 159.254 143.069 159.294 143.102 159.346C143.995 161.936 145.071 164.457 146.324 166.89C147.587 168.939 149.15 170.791 150.964 172.388L151.347 172.199C150.725 168.06 147.638 165.202 145.321 161.806C143.832 159.575 142.522 157.231 141.402 154.794C141.486 155.302 141.534 155.817 141.545 156.334C141.541 156.388 141.517 156.438 141.476 156.476C141.436 156.513 141.383 156.535 141.329 156.536C141.507 157.019 141.664 157.536 141.808 158.058L141.787 158.092ZM140.817 158.898C139.106 153.043 137.407 146.998 133.138 142.463C132.249 141.496 131.328 140.581 130.421 139.663C131.626 141.532 132.657 143.507 133.504 145.565C135.568 150.751 137.009 156.233 139.36 161.385C140.93 164.809 142.67 168.145 144.486 171.489C143.271 167.223 142.062 163.041 140.852 158.918L140.817 158.898ZM144.822 174.527C142.547 170.403 140.31 166.253 138.338 161.918C136.153 157.138 134.689 152.164 132.896 147.235C131.894 144.544 130.591 141.978 129.011 139.583C128.329 138.54 127.736 137.442 127.239 136.299C125.739 134.674 124.426 132.89 123.323 130.979C122.649 129.782 122.052 128.543 121.535 127.269C121.631 128.679 121.769 130.077 121.974 131.327C123.045 136.768 124.619 142.085 126.679 147.213C128.523 152.229 130.478 157.214 131.819 162.408C132.074 163.444 132.36 164.602 132.652 165.786C132.781 164.546 132.825 163.302 132.783 162.063C132.62 158.477 131.967 154.945 130.843 151.562C129.735 148.294 128.41 145.108 126.876 142.022C125.485 139.081 123.615 136.297 122.494 133.254C122.487 133.223 122.491 133.19 122.504 133.16C122.518 133.13 122.54 133.105 122.569 133.088C122.597 133.07 122.63 133.062 122.663 133.064C122.696 133.066 122.727 133.079 122.752 133.099C124.803 135.871 126.505 138.882 127.82 142.07C129.389 145.225 130.729 148.49 131.829 151.842C132.414 153.673 132.875 155.543 133.211 157.441C133.813 160.67 134.716 163.828 135.909 166.877C137.31 169.928 139.112 172.776 141.269 175.353C142.437 175.111 143.668 174.823 144.843 174.493L144.822 174.527ZM140.458 175.542C139.752 174.297 138.387 173.143 137.802 172.209C136.671 170.555 135.698 168.799 134.895 166.963C134.496 166.066 134.135 165.144 133.813 164.197C133.83 165.992 133.655 167.79 133.288 169.562C133.687 171.881 133.629 174.269 133.117 176.598C135.584 176.36 138.042 175.996 140.479 175.508L140.458 175.542ZM132.109 176.711C131.962 175.215 132.054 173.669 132.059 172.132C132.033 172.103 132.015 172.068 132.006 172.031C131.997 171.993 131.997 171.954 132.006 171.916C132.012 171.642 132.035 171.377 132.059 171.113C132.082 170.848 132.043 170.328 132.005 169.936C131.752 167.342 131.293 164.778 130.63 162.268C129.345 157.06 127.348 152.085 125.529 147.049C124.889 145.298 124.261 143.529 123.687 141.803C124.753 153.615 124.88 165.336 127.567 176.942C129.165 176.885 130.767 176.784 132.13 176.676L132.109 176.711ZM126.737 176.878C124.756 171.067 124.222 164.709 123.71 158.618C123.505 155.688 123.254 152.755 123.018 149.819C122.907 158.719 122.865 167.599 123.384 176.473C124.49 176.702 125.62 176.826 126.758 176.843L126.737 176.878ZM117.125 172.027C118.173 173.737 119.741 175.073 121.619 175.857C121.795 175.932 121.974 175.999 122.157 176.057C120.698 168.507 119.227 160.966 117.742 153.434C117.013 149.697 116.151 145.968 115.622 142.206C115.592 148.917 115.725 155.626 115.961 162.337C116.094 165.573 115.823 169.148 117.146 171.993L117.125 172.027ZM112.747 166.273C113.208 165.09 113.536 163.866 113.724 162.623C113.602 160.33 113.494 158.034 113.411 155.718C113.1 160.36 112.146 164.962 110.575 169.397C111.564 168.536 112.319 167.448 112.768 166.238L112.747 166.273ZM109.468 170.125C110.072 167.781 110.871 165.442 111.448 163.106C112.13 160.296 112.66 157.469 113.373 154.666C113.306 152.416 113.235 150.153 113.182 147.9C112.317 150.733 111.264 153.514 110.03 156.224C108.981 158.745 107.867 161.241 106.835 163.772C105.803 166.302 105.256 168.401 104.479 170.706C106.15 171.083 107.924 170.866 109.489 170.091L109.468 170.125ZM103.227 170.368L103.479 170.429C103.627 169.851 103.807 169.28 104.018 168.72C104.45 167.355 104.934 166.019 105.449 164.69C106.447 162.139 107.558 159.63 108.642 157.129C109.725 154.627 110.76 152.11 111.62 149.54C112.265 147.601 112.656 145.587 113.115 143.612C113.101 137.509 113.399 131.398 114.01 125.303C114.083 123.144 114.192 120.948 114.376 118.817C113.577 121.572 112.768 124.287 112.114 127.09C112.162 127.16 112.183 127.246 112.173 127.332C112.187 127.348 112.197 127.368 112.202 127.389C112.207 127.41 112.207 127.432 112.203 127.453C112.073 128.195 111.883 128.927 111.635 129.644C111.518 130.249 111.401 130.855 111.319 131.48C110.648 136.554 110.358 141.67 109.677 146.761C108.657 154.914 106.492 163.103 101.143 169.593C101.814 169.915 102.527 170.168 103.278 170.454L103.227 170.368ZM99.9813 169.202C105.639 162.643 107.713 154.264 108.824 146C107.716 148.817 106.417 151.563 104.936 154.221C102.572 158.603 99.5715 163.586 95.6818 166.942C97.0826 167.796 98.5445 168.554 100.057 169.21L99.9813 169.202ZM95.2897 166.732C98.0631 162.628 101.302 158.973 103.698 154.597C106.094 150.222 107.586 145.3 109.398 140.536C109.691 137.83 109.968 135.115 110.351 132.414C109.876 133.245 109.366 134.114 108.805 134.897C106.694 138.148 104.541 141.411 102.378 144.633C98.3731 150.819 94.5517 157.109 90.9136 163.502C92.3348 164.661 93.8209 165.742 95.3657 166.74L95.2897 166.732ZM89.3005 162.3L89.8024 162.596L93.4082 152.455C93.7103 151.642 93.9914 150.863 94.277 149.983C90.5939 152.649 86.2733 154.307 81.7797 154.778C84.1498 157.44 86.6867 159.955 89.3765 162.308L89.3005 162.3ZM81.0268 154.004C84.8928 150.252 89.4011 146.586 92.7788 142.234C90.3389 143.61 88.0221 145.194 85.8563 146.965C83.8424 148.856 81.9237 150.843 80.1076 152.917C80.4563 153.311 80.7501 153.663 81.0268 154.004ZM79.174 151.89C79.3176 152.053 79.4645 152.229 79.6219 152.387C82.5227 147.66 88.2444 143.697 93.3289 141.526C94.0774 140.538 94.7613 139.506 95.3762 138.435C96.4084 136.52 97.8674 134.846 99.6411 133.543C102.126 131.626 104.717 130.14 106.426 127.413C105.699 129.44 104.292 131.187 102.44 132.36C99.7566 134.177 97.5452 136.595 95.9992 139.402C92.9377 144.975 87.3739 149.399 82.6921 153.801C87.0013 152.922 91.1045 151.169 94.7331 148.655C95.4945 146.262 96.4574 143.929 97.6117 141.681C98.8161 139.572 100.335 137.644 102.117 135.963C102.059 135.931 102.01 135.886 101.974 135.831C101.938 135.777 101.916 135.714 101.91 135.648C101.904 135.583 101.914 135.516 101.939 135.454C101.964 135.392 102.004 135.336 102.054 135.291C105.996 131.605 106.58 125.463 108.81 120.716C108.029 121.385 107.213 122.035 106.442 122.687C103.208 125.621 100.342 128.922 97.9087 132.516C96.8868 133.858 95.7592 135.121 94.5369 136.293C94.5369 136.293 94.5369 136.293 94.4537 136.315C92.6583 138.09 90.7226 139.715 88.7903 141.354C85.2325 144.377 81.7622 147.635 77.9655 150.35L79.174 151.89ZM74.5741 145.836C75.4986 147.355 76.5466 148.796 77.7082 150.146C82.7748 144.966 89.0651 140.85 94.135 135.683C94.5071 133.707 95.2213 131.797 96.2464 130.035C96.2297 130.046 96.211 130.054 96.1914 130.057C96.1718 130.061 96.1518 130.061 96.1327 130.057C96.1135 130.052 96.0957 130.044 96.0802 130.032C96.0647 130.021 96.052 130.006 96.0428 129.989C94.7545 132.018 93.1387 133.834 91.2612 135.365C88.5792 137.349 85.7595 139.143 82.8247 140.733C80.0556 142.446 77.1521 143.933 74.1451 145.177C74.3164 145.331 74.511 145.581 74.5741 145.836ZM73.8675 144.591C78.9669 141.283 84.5208 138.857 89.4906 135.382C94.0181 132.213 96.576 127.535 98.8067 122.73C94.8403 126.495 90.7541 130.134 86.4866 133.577C82.2191 137.021 77.0511 139.932 73.6674 144.2C73.734 144.323 73.8078 144.442 73.8885 144.557L73.8675 144.591ZM73.2302 143.327C74.3142 141.896 75.6221 140.638 77.1028 139.602C79.7443 137.6 82.4367 135.685 85.0199 133.627C88.8594 130.567 92.5872 127.373 96.2034 124.048C94.496 124.98 92.7887 125.913 91.0847 126.859C87.3737 128.962 83.7104 131.138 80.0266 133.291C78.7326 134.04 77.2689 134.821 75.9427 135.68C75.7058 135.859 75.4516 136.028 75.2219 136.175C74.0492 136.922 73.0648 137.924 72.3498 139.1C72.2844 140.548 72.591 141.976 73.2413 143.252L73.2302 143.327ZM70.155 133.203C72.2416 130.332 75.4265 128.614 78.613 127.083C80.3852 126.234 82.1984 125.43 83.8752 124.434C85.5608 123.165 87.1514 121.778 88.634 120.284C85.571 121.237 82.5118 122.146 79.4255 123.004C76.7022 123.837 73.9426 124.536 71.157 125.098C68.8986 125.475 66.0488 124.835 63.9731 125.953C65.5353 128.727 67.6377 131.163 70.1661 133.129L70.155 133.203ZM63.4194 124.968C64.635 124.365 65.9838 124.091 67.3211 124.177C70.6246 124.027 73.9084 123.448 77.0866 122.456C82.2322 121.073 87.3413 119.541 92.4067 117.892C89.8828 117.853 87.3634 117.712 84.8377 117.846C83.7586 117.907 82.6817 118.024 81.6113 118.197L77.7694 119.23C72.8595 120.55 67.9239 122.365 62.9587 123.341C62.8447 123.371 62.7245 123.357 62.6245 123.3C62.5246 123.244 62.4531 123.15 62.4258 123.039C62.3985 122.928 62.4176 122.81 62.4789 122.71C62.5403 122.61 62.6388 122.537 62.7528 122.506L62.8915 122.469C62.4826 122.398 62.0988 122.236 61.769 121.996C62.2988 122.944 62.8492 123.916 63.5026 124.945L63.4194 124.968ZM61.0292 120.616C62.5567 122.071 64.8184 121.707 66.9305 121.096L67.2634 121.007L69.7234 120.187C72.6854 119.305 75.6342 118.369 78.6555 117.786C79.1548 117.652 79.6541 117.517 80.1694 117.508C77.2825 117.796 74.2894 117.654 71.3793 117.848C67.7435 118.092 64.1369 118.778 60.6424 119.888C60.817 120.056 60.8867 120.338 61.0569 120.608L61.0292 120.616ZM58.8397 116.239C59.155 116.857 59.6089 117.797 60.1647 118.911C66.4084 117.003 72.3554 117.069 78.8164 116.58C83.9904 116.072 89.123 115.106 94.1506 113.692C92.0783 113.753 90.0079 113.706 87.9485 113.551C85.5228 113.371 83.1638 113.101 80.8634 114.207C79.5577 115.065 78.1181 115.7 76.6083 116.083C75.4592 116.145 74.3188 115.962 73.2665 115.546C71.329 114.879 69.3235 114.399 67.278 114.114C64.1054 113.861 60.9119 113.813 57.7181 113.971C58.0284 114.749 58.4879 115.472 58.8675 116.231L58.8397 116.239ZM57.2571 113.062C60.6023 112.684 63.9666 112.655 67.293 112.976C70.9954 113.416 75.078 115.935 78.6473 114.157C80.0005 113.313 81.4915 112.712 83.0465 112.386C84.6797 112.244 86.3175 112.285 87.9279 112.509C89.6902 112.638 91.4358 112.7 93.1959 112.7L89.125 112.445C82.7484 112.184 76.4529 111.179 70.3717 109.45C68.3944 109.863 66.3969 110.156 64.391 110.326C61.6677 110.732 58.9186 110.861 56.1882 110.709C56.5573 111.485 56.9019 112.282 57.2848 113.054L57.2571 113.062ZM55.9688 110.179C58.4209 109.807 60.9215 109.752 63.3935 109.46C64.6882 109.313 66.0152 109.057 67.3284 108.804C66.4831 108.615 65.629 108.271 64.9019 108.021C61.5839 107.318 58.2053 106.873 54.7974 106.691C55.1196 107.878 55.5201 109.04 55.9966 110.172L55.9688 110.179ZM57.0954 105.815C56.1882 105.627 55.2947 105.388 54.4193 105.099C54.4758 105.328 54.5323 105.556 54.5854 105.772C55.433 105.735 56.2804 105.747 57.1232 105.807L57.0954 105.815Z" fill="#F7F3EF"/>
<path d="M29.346 111.412C27.9943 99.1122 29.232 84.6477 35.4303 73.328C35.5381 73.1546 35.7565 73.2415 35.7331 73.4505C33.2555 86.7666 31.0687 99.3104 31.8877 112.867C32.7067 126.424 37.5351 138.656 40.8151 151.531C40.8268 151.578 40.8186 151.628 40.7923 151.67C40.766 151.712 40.7238 151.743 40.6749 151.756C40.626 151.769 40.5744 151.763 40.5316 151.739C40.4887 151.715 40.4581 151.675 40.4463 151.629C33.3591 139.677 30.8525 125.178 29.346 111.412Z" fill="#F7F3EF"/>
<path d="M34.7705 97.8885C35.1242 97.2017 36.1749 97.5131 36.1324 98.2467C36.179 101.21 35.483 104.198 35.3409 107.125C35.4904 109.783 35.31 112.459 34.8038 115.098C34.7733 115.181 34.7195 115.255 34.6486 115.311C34.5777 115.368 34.4926 115.404 34.4031 115.416C34.3137 115.427 34.2235 115.414 34.143 115.378C34.0625 115.342 33.995 115.284 33.9483 115.211C31.4206 110.759 32.3841 102.513 34.7705 97.8885Z" fill="#F7F3EF"/>
<path d="M36.5349 124.493C36.5466 124.419 36.5829 124.351 36.638 124.298C36.6931 124.245 36.7641 124.21 36.8397 124.2C36.9154 124.189 36.9916 124.203 37.0565 124.24C37.1214 124.277 37.1713 124.334 37.1985 124.402C39.3252 131.665 40.5809 138.844 43.6801 145.817C49.8942 159.5 59.3687 171.454 71.3401 180.714C77.4967 185.397 84.5534 187.992 91.1614 191.847C91.2929 191.931 91.3884 192.057 91.4311 192.206C91.4739 192.354 91.4611 192.514 91.395 192.657C91.3289 192.801 91.2138 192.919 91.0699 192.99C90.926 193.062 90.7627 193.083 90.6086 193.049C83.1855 191.503 76.1271 186.673 70.0777 182.422C63.5432 177.811 57.7396 172.3 52.8381 166.053C44.2668 154.993 36.1539 138.977 36.5349 124.493Z" fill="#F7F3EF"/>
<path d="M45.5344 90.8911C43.9783 74.2526 46.4065 52.7193 63.1832 42.7954C63.2119 42.7743 63.2476 42.7649 63.2825 42.7691C63.3174 42.7734 63.3486 42.791 63.3693 42.8181C63.39 42.8452 63.3985 42.8795 63.3929 42.9136C63.3873 42.9476 63.368 42.9786 63.3393 42.9997C56.6149 49.7529 51.7935 56.4185 49.1799 65.4897C46.4921 74.9851 45.8749 84.8533 47.3684 94.4524C50.0864 112.98 58.2874 128.224 68.5098 143.493C68.587 143.601 68.6171 143.736 68.5938 143.869C68.5704 144.002 68.4955 144.122 68.3846 144.206C68.2736 144.29 68.1352 144.33 67.9982 144.318C67.8611 144.306 67.736 144.243 67.6488 144.142C54.4914 130.19 47.3064 109.786 45.5344 90.8911Z" fill="#F7F3EF"/>
<path d="M64.9987 39.9384C92.2353 22.4919 128.031 31.5925 151.45 49.0254C162.692 57.4879 171.98 68.1612 178.751 80.3978C185.305 92.1134 191.839 107.935 190.033 121.813C190.031 121.849 190.017 121.884 189.994 121.912C189.97 121.941 189.938 121.961 189.902 121.971C189.867 121.981 189.829 121.979 189.795 121.966C189.761 121.953 189.733 121.929 189.715 121.898C187.99 115.508 187.477 108.879 185.594 102.503C183.602 95.667 180.919 89.0643 177.583 82.7908C171.182 70.9769 162.501 60.543 152.003 52.0455C129.173 33.465 93.0763 22.6672 66.049 41.6203C64.8977 42.403 63.8381 40.6232 64.9987 39.9384Z" fill="#F7F3EF"/>
<path d="M180.335 155.331C181.326 150.75 184.096 146.526 185.706 142.052C187.317 137.577 188.291 132.871 189.864 128.364C189.904 128.225 189.995 128.103 190.119 128.022C190.243 127.941 190.391 127.906 190.536 127.923C190.681 127.941 190.813 128.01 190.906 128.118C190.999 128.226 191.047 128.364 191.042 128.508C190.802 133.609 189.705 138.666 187.794 143.475C186.312 147.627 184.681 152.74 181.525 156.004C180.978 156.554 180.2 155.986 180.335 155.331Z" fill="#F7F3EF"/>
<path d="M71.4284 146.493C80.4512 160.044 93.2035 172.022 108.696 178.3C116.806 181.405 125.49 182.985 134.303 182.958C142.713 183.067 150.433 180.621 158.676 179.576C158.896 179.517 158.934 179.849 158.772 179.964C151.662 184.584 141.473 185.311 133.305 185.109C124.583 184.722 116.058 182.799 108.137 179.434C91.915 172.939 79.1342 161.739 69.4051 147.65C68.7124 146.453 70.7219 145.3 71.4284 146.493Z" fill="#F7F3EF"/>
</svg>
