<svg width="128" height="146" viewBox="0 0 128 146" fill="none" xmlns="http://www.w3.org/2000/svg">
<path d="M109.874 145.009C109.297 143.839 108.538 142.759 107.866 141.615C107.119 140.351 106.379 139.083 105.628 137.819C104.972 136.694 104.296 135.603 103.64 134.482C103.427 134.143 103.279 133.771 103.203 133.383C102.897 131.275 101.887 129.385 100.973 127.506C99.8159 125.117 98.2814 122.889 96.9417 120.576C96.4607 119.75 96.091 118.873 95.6378 118.037C94.9182 116.713 94.0277 115.449 93.4632 114.069C92.8097 112.468 91.9369 110.955 90.8673 109.568C89.1142 107.299 87.1424 105.199 84.5425 103.714C82.9126 102.78 81.6683 101.434 80.4479 100.088C79.2274 98.7411 78.0865 97.4623 76.9774 96.1047C76.23 95.1821 75.6098 94.162 74.93 93.1907C74.8575 93.0524 74.7623 92.9258 74.6478 92.8156C73.1014 91.6905 71.865 90.1679 70.0523 89.3503C69.7249 89.2465 69.4144 89.1001 69.13 88.9153C67.9056 87.8952 66.3711 87.4827 64.932 86.8601C63.4816 86.2246 61.9619 85.7405 60.4001 85.4162C59.0842 85.1425 57.8359 84.5424 56.5956 84.0099C53.9043 82.851 51.2329 81.6584 48.8476 79.9595C47.6113 79.0745 46.8997 77.8444 46.0251 76.7118C45.6594 76.2317 45.2817 75.7629 44.9955 75.3954C43.8029 75.9129 42.6858 76.4155 41.5568 76.8693C39.8434 77.5556 38.4163 76.918 37.001 75.9504C36.2656 76.3592 35.4864 76.8393 34.6595 77.2406C32.966 78.0581 31.2089 77.2405 30.7279 75.5379C30.4792 74.642 30.6044 73.6903 31.0777 72.8789C31.5866 71.9038 32.0437 70.9025 32.5566 69.8449C32.1948 70.0099 31.9205 70.1637 31.6263 70.265C31.2721 70.4097 30.8836 70.4634 30.5003 70.4206C30.1169 70.3777 29.7524 70.2399 29.4438 70.0212C28.9231 69.6724 28.2791 69.4699 27.802 69.0761C26.6094 68.0973 26.6452 66.8447 27.0904 65.5508C27.1898 65.262 27.3289 64.9845 27.4482 64.707L24.7966 61.808C23.2502 62.3368 21.4454 62.3068 19.6286 62.3255C19.5179 62.3296 19.4088 62.3525 19.3066 62.393C18.5593 62.6631 17.8278 62.9856 17.0645 63.1881C16.8419 63.2481 16.5199 62.9706 16.2456 62.8468L16.2695 62.7156C16.667 62.363 17.0407 61.9992 17.4621 61.6617C17.7403 61.4254 18.0942 61.2642 18.3406 61.0092C19.366 59.9242 20.6306 59.064 22.0457 58.4889C23.0316 58.0839 23.9817 57.6076 24.9517 57.1613H24.6694C23.5921 57.2101 22.7891 56.8238 22.5625 56.085C22.4457 55.719 22.4091 55.3344 22.4548 54.9547C22.5006 54.5749 22.6279 54.2079 22.8288 53.8761C23.8902 51.9671 24.8443 50.0132 25.8581 48.0856C26.4782 46.9005 26.8519 45.5503 28.2433 44.8603C28.7043 44.6569 29.1541 44.4316 29.5909 44.1852C32.2308 42.5768 34.6502 40.6672 36.7943 38.4997C38.2334 36.9996 39.9507 36.077 42.0656 36.137C44.4509 36.2083 46.8361 36.5121 49.2213 36.7296C50.5888 36.8421 51.9524 36.9621 53.3239 37.0184C54.9419 37.0859 56.5638 37.1346 58.1858 37.1159C59.6567 37.1159 61.1276 36.9846 62.5984 36.9134L62.7376 36.9359C63.5327 37.1984 64.3277 37.4984 65.1467 37.7159C65.9826 37.9399 66.7069 38.4371 67.19 39.1185C67.3172 39.0623 67.4365 38.961 67.5438 38.9685C68.2912 39.0248 69.0425 39.0773 69.7859 39.1823C70.9785 39.3473 72.1711 39.5948 73.3638 39.7336C74.26 39.8277 75.1333 40.0622 75.9478 40.4274C76.5151 40.6859 77.0076 41.0704 77.3828 41.5479C77.7581 42.0254 78.005 42.5816 78.1024 43.1689C78.6192 45.4191 79.2354 47.6693 80.3644 49.7357C81.561 51.899 82.5521 54.158 83.326 56.4863C84.2046 59.1865 85.1945 61.853 86.1923 64.5157C86.8323 66.2296 87.5121 67.936 88.2913 69.5974C88.6053 70.2725 89.2136 70.8313 89.7264 71.4126C90.2392 71.9939 90.7004 72.4589 91.2132 72.9577C91.6107 73.3327 92.0401 73.7078 92.4575 74.0828C92.9028 74.4265 93.3188 74.8027 93.7018 75.2079C95.0733 76.888 96.3255 78.6657 97.7725 80.2858C100.039 82.8173 102.34 85.3262 104.789 87.6964C106.435 89.2866 108.403 90.5767 110.156 92.0731C112.275 93.8845 114.294 95.7934 116.405 97.616C117.514 98.5761 118.759 99.4012 119.876 100.358C122.261 102.405 124.59 104.528 126.999 106.564L109.874 145.009ZM56.536 48.3443C56.6779 48.2426 56.8312 48.1558 56.9932 48.0856C58.6111 47.5268 60.2212 46.9605 61.859 46.4392C62.507 46.2404 62.9761 46.0416 63.1868 45.3141C63.3577 44.729 63.8229 44.2227 64.2482 43.5327C63.1113 44.1552 62.1771 44.8115 61.1315 45.2053C59.6328 45.7641 58.0546 46.1316 56.5082 46.5854C54.5006 47.1742 52.4692 47.7105 50.4934 48.3706C48.2871 49.1207 46.1205 49.9907 43.95 50.8158C43.4173 51.0146 42.8965 51.2471 42.3598 51.4646C42.271 51.4394 42.1779 51.4305 42.0855 51.4383C39.9269 51.9184 38.0147 52.9385 35.9913 53.9736L39.096 55.6837C39.8673 55.3874 40.4954 55.1399 41.1314 54.9111C41.9742 54.6036 42.821 54.3073 43.6677 54.0148C44.268 53.8048 44.8603 53.5798 45.4805 53.4185C46.1006 53.2572 46.8401 53.1747 47.504 53.006C48.1678 52.8372 49.0226 52.811 49.0385 51.8096L49.2571 52.4172C50.5252 51.9859 51.7417 51.4683 53.0178 51.1646C54.2104 50.8758 55.3076 50.3357 56.4883 50.0057C57.7763 49.6494 58.9968 49.0869 60.2609 48.6519C61.5251 48.2168 62.7535 47.8418 64.0733 47.418L62.7495 46.7504L63.0159 46.4804C62.7812 46.4055 62.527 46.4055 62.2923 46.4804C61.0997 46.8555 59.9071 47.2305 58.7145 47.6468C58.0506 47.8755 57.4066 48.1568 56.7507 48.3968L56.536 48.3443ZM36.9454 49.8445C37.7961 49.4357 38.6309 48.9894 39.5015 48.6219C40.3261 48.296 40.9864 47.6838 41.3461 46.9117C41.4513 46.6197 41.4732 46.3067 41.4097 46.0041C41.3421 45.5203 41.203 45.044 41.0957 44.5678L41.2626 44.504C41.9583 45.6291 42.658 46.7542 44.1607 46.938C45.4686 47.103 46.7884 47.1705 48.2593 47.313C47.4642 45.9254 48.0565 44.9353 48.6846 43.9377C48.8097 44.1715 48.884 44.4265 48.9033 44.6878C48.9788 45.4791 48.6846 46.2854 49.2372 47.058C49.5672 47.5193 49.8296 47.628 50.3662 47.433C52.1154 46.848 53.8844 46.3079 55.6376 45.7416C57.6491 45.0816 59.6567 44.4027 61.6603 43.7239C62.5746 43.4164 63.4691 43.0489 64.3993 42.7864C65.8026 42.4113 67.2298 42.0625 68.7324 41.6838C68.482 41.4887 68.2554 41.3425 68.0646 41.1662C67.4683 40.6187 66.8998 40.0411 66.2876 39.5123C65.8978 39.1278 65.4439 38.806 64.9439 38.5597C64.3956 38.3578 63.8112 38.2572 63.2226 38.2635C60.8374 38.2635 58.4124 38.3535 56.0073 38.331C54.2689 38.3255 52.532 38.2353 50.8035 38.061C49.4161 37.9109 48.0685 37.4759 46.6811 37.3109C45.0929 37.0943 43.4913 36.9765 41.8868 36.9584C41.1439 36.9718 40.4224 37.1952 39.8156 37.5997C38.7701 38.3122 37.8756 39.2198 36.9016 40.0336C34.9693 41.6931 32.8245 43.1181 30.5172 44.2752C29.7985 44.6111 29.1652 45.0896 28.6607 45.6779C28.1717 46.2854 27.9332 47.0805 27.6311 47.8155C26.7488 50.0772 25.4322 52.166 23.7471 53.9773C23.2224 54.5211 23.3138 55.1024 23.4927 55.7587C23.6915 56.5088 24.3673 56.3063 24.8205 56.5088C25.1942 56.6775 25.4486 56.385 25.6911 56.0737C26.514 55.0312 27.4363 54.1648 28.9867 54.1161C29.6835 54.0794 30.3536 53.8512 30.9147 53.4598C31.1851 53.2723 31.0936 52.6009 31.1413 52.1434C31.189 51.6859 31.197 51.2658 31.2169 50.827C31.2447 50.2832 31.2646 49.7357 31.2884 49.1919C31.7414 50.5671 31.7963 52.0316 31.4474 53.4335L32.6838 53.501L32.5248 53.3473L34.2024 51.4046C32.807 50.4258 31.841 48.3706 32.2147 47.103C32.7434 48.0031 33.2165 48.9144 33.8048 49.762C34.1706 50.2907 34.6556 50.8158 35.4626 50.287C35.554 50.2232 35.717 50.257 35.9038 50.2382C34.8026 49.3157 34.5641 48.0968 34.3534 46.863C34.751 47.6393 35.0372 48.4456 35.4149 49.2219C35.8442 50.092 36.1821 50.197 37.005 49.822L36.9454 49.8445ZM125.254 107.153C122.165 104.573 119.12 101.944 116.111 99.2999C114.091 97.5335 112.136 95.6921 110.128 93.9182C108.721 92.6769 107.298 91.443 105.803 90.2917C102.956 88.0977 100.702 85.4162 98.5795 82.6223C98.4205 82.4085 98.182 82.2472 98.027 82.0297C96.8715 80.5446 95.7226 79.0545 94.5803 77.5593C94.2941 77.1843 94.0516 76.8093 93.7852 76.4342C93.1694 75.531 92.3052 74.8025 91.2847 74.3266C90.9744 74.1367 90.7168 73.8795 90.5334 73.5765C90.1361 72.956 89.5444 72.4672 88.8399 72.1776C88.3728 72.0343 87.969 71.7495 87.691 71.3675C87.1861 70.4412 86.4507 70.5725 85.6477 70.7788C85.1746 70.8988 84.7055 71.0413 84.2404 71.18L82.7655 71.6263L82.6741 71.36L86.562 70.1112C85.1905 66.4959 83.5964 62.8768 82.4634 59.134C81.3017 55.2615 79.8401 51.4748 78.0905 47.8043C77.4585 46.5007 77.0031 45.1273 76.7349 43.7164C76.4407 42.1113 75.5423 41.2487 74.0952 40.8887C73.5307 40.7499 72.9781 40.5662 72.4057 40.4799C71.1256 40.2811 69.8416 40.1349 68.3627 39.9399L69.6627 41.8825C70.3703 41.8038 70.6406 42.4976 71.1654 42.8539C72.1513 43.5252 72.04 44.2865 71.7617 45.1866C71.6987 45.4398 71.7339 45.7059 71.8611 45.9366C72.823 47.5473 73.3869 49.3421 73.5108 51.1871C72.5448 49.5107 72.509 47.4668 71.2608 46.0004C70.8235 46.1654 70.418 46.3379 70.0006 46.4692C69.7819 46.5404 69.5275 46.5067 69.3129 46.5817C68.1878 46.983 67.0787 47.4368 65.9457 47.8155C64.2641 48.3781 62.5627 48.8881 60.8771 49.4469C60.6196 49.5385 60.3958 49.6988 60.2331 49.9082C59.3943 50.9921 58.5913 52.0984 57.7644 53.1935C57.2237 53.9061 56.6632 54.6074 56.1106 55.3124L55.9556 55.2074C56.9296 53.2948 58.5674 51.7909 59.8197 49.9195C59.124 50.1482 58.5475 50.3845 57.9473 50.5233C57.491 50.6378 57.0783 50.8713 56.7562 51.197C56.4342 51.5227 56.216 51.9274 56.1265 52.3647C55.8562 53.5348 55.1367 54.3373 54.3615 55.1437C53.9242 55.5975 53.5903 56.145 52.9343 56.4338C52.4627 56.7102 52.03 57.0416 51.6463 57.4201L51.857 57.6189L51.4316 58.0314L51.539 58.1552L55.1168 56.7938C55.0754 57.0294 54.9507 57.2449 54.763 57.4051C53.6522 58.3635 52.298 59.0353 50.8313 59.3553C49.6944 59.6103 48.5018 59.6365 47.341 59.8166C46.371 59.9666 45.4288 60.0828 44.4787 59.7003C44.0047 59.5162 43.5078 59.3902 42.9999 59.3253C41.9857 59.1806 41.0337 58.7744 40.2489 58.1514C39.4538 57.5551 38.6826 56.9101 37.8279 56.3925C36.4763 55.5562 35.2042 54.6036 33.4788 54.6261C33.3862 54.6098 33.2973 54.578 33.2165 54.5324C32.0875 54.0936 30.9863 54.2361 29.8652 54.6449L30.2151 55.0199C29.1139 54.8286 28.8555 55.4362 28.6249 56.1187C28.283 57.1688 27.9093 58.2114 27.5476 59.2578C27.5476 57.7914 28.1995 56.5088 28.8555 55.1324C28.4898 55.2074 28.0604 55.3949 27.9809 55.2974C27.4919 54.8286 27.3011 55.2974 27.0864 55.5149C25.6275 56.9176 25.6235 58.654 25.8938 60.4354C25.941 60.624 26.0528 60.7927 26.2119 60.9154C26.2715 60.9642 26.4703 60.8667 26.6094 60.8366L27.4681 61.688L27.3488 61.8192L26.2198 61.0692C26.3192 61.3767 26.3152 61.6092 26.4385 61.718C27.3886 62.5655 28.3188 63.4469 29.3484 64.2007C30.0799 64.7332 31.1016 64.842 31.7337 65.6033C31.9817 65.926 32.3192 66.178 32.7091 66.3315C33.0991 66.485 33.5264 66.5341 33.944 66.4734C35.7249 66.2971 37.3747 66.9834 38.786 67.8197C40.6177 68.9712 42.3342 70.278 43.9142 71.7238C44.7093 72.4251 45.238 73.4227 45.9019 74.2703C46.5181 75.0466 47.1422 75.8117 47.7981 76.558C48.5535 77.4168 49.1935 78.4707 50.1516 79.0445C52.656 80.5446 55.3195 81.8122 57.8956 83.2148C59.382 84.0991 61.0571 84.6626 62.8012 84.865C63.7632 84.9512 64.6656 85.585 65.6038 85.945C66.7964 86.4138 68.1322 86.6464 69.1817 87.4789C69.7501 87.8464 70.3482 88.1712 70.9706 88.4503C71.5763 88.7628 72.1605 89.111 72.7197 89.4928C73.5046 90.0411 74.2447 90.6441 74.934 91.2967C75.6655 92.0206 76.2737 92.8531 76.9456 93.6294C78.5357 95.4696 80.1259 97.3073 81.716 99.1424C82.9153 100.574 84.3437 101.82 85.9498 102.836C86.7423 103.286 87.4866 103.807 88.172 104.393C90.3814 106.393 92.2042 108.74 93.5586 111.331C94.3537 112.925 94.9461 114.605 95.9757 116.128C97.061 117.729 97.5658 119.627 98.7147 121.239C99.8636 122.852 100.802 124.615 101.827 126.317C102.056 126.648 102.262 126.992 102.444 127.349C103.123 128.905 103.783 130.473 104.431 132.04C104.463 132.119 104.519 132.216 104.491 132.284C104.141 133.233 104.749 133.912 105.222 134.628C105.787 135.487 106.367 136.338 106.908 137.208C107.552 138.251 108.156 139.316 108.796 140.362C109.75 141.922 110.784 143.449 111.666 145.043L125.254 107.153ZM34.8901 67.3772C34.7828 67.636 34.7112 67.8573 34.6039 68.0598C33.6538 69.8299 32.6838 71.5926 31.7496 73.3702C31.5751 73.7062 31.4622 74.0676 31.4156 74.4391C31.2208 75.9092 32.5128 77.1093 33.8684 76.5955C34.8276 76.2083 35.7014 75.655 36.4445 74.9641C37.9869 73.5802 38.9967 71.8213 39.9309 69.9762L39.3187 69.4699L36.1384 72.1926L35.9157 71.9638L39.0563 69.3161C38.2851 68.5286 38.2612 68.5248 37.49 69.2224C36.9175 69.7399 36.365 70.2762 35.7925 70.7938C35.6527 70.9018 35.5053 71.0008 35.3512 71.09L35.2161 70.94C35.7488 69.8974 36.8579 69.3086 37.657 68.4423C36.5677 68.0673 36.5677 68.0673 36.0191 68.9148C35.8879 69.1174 35.7528 69.3124 35.6216 69.5111L35.4387 69.4061L36.2338 67.8835L34.8901 67.3772ZM63.9103 46.4317C64.6855 47.208 64.8127 47.268 65.6992 47.0017C67.1781 46.5517 68.6503 46.0816 70.1159 45.5916C70.7082 45.3966 71.2568 44.1627 71.0103 43.6864C70.8026 43.2546 70.4483 42.9004 70.0034 42.6797C69.5585 42.459 69.0484 42.3843 68.5536 42.4676C67.6631 42.6138 66.7885 42.8426 65.9179 43.0826C64.8286 43.3677 63.799 44.7103 63.7911 45.8391C64.3118 45.7041 64.8247 45.5766 65.3375 45.4378C65.4408 45.4078 65.6118 45.3328 65.6118 45.2803C65.5879 44.5303 66.1206 44.984 66.4069 44.9578C66.6543 44.9765 66.9028 44.9765 67.1502 44.9578C68.0964 44.7253 69.0346 44.4552 69.9728 44.2077L69.9926 44.2977L63.9103 46.4317ZM40.9684 70.9063L37.4502 75.6279C37.7578 75.6475 38.0619 75.7004 38.3566 75.7854C40.4954 76.7118 42.1611 75.6317 43.8426 74.6416C43.9043 74.571 43.9464 74.4872 43.9651 74.3975C43.9838 74.3078 43.9786 74.2151 43.95 74.1278C43.3139 72.7739 42.2127 71.7801 40.9684 70.9063ZM28.1359 65.082C28.0286 65.6746 27.9093 66.1246 27.8696 66.5821C27.7915 66.9712 27.8119 67.3721 27.9292 67.7522C28.4301 68.8398 29.5989 69.1699 30.6126 69.6649C30.687 69.6965 30.7676 69.7128 30.8491 69.7128C30.9307 69.7128 31.0113 69.6965 31.0857 69.6649C32.0278 69.0911 33.1012 68.6561 33.6697 67.6022C33.4977 67.5662 33.3239 67.5387 33.1489 67.5197C32.0524 67.4478 31.0255 66.9868 30.2747 66.2296C29.738 65.7121 28.9151 65.4795 28.1359 65.082ZM44.3475 48.1343C43.9635 48.1131 43.584 48.045 43.2185 47.9318C42.821 47.7405 42.6779 47.8568 42.495 48.2093C42.1929 48.7906 41.7993 49.3344 41.4455 49.8857L41.2348 49.777L42.1849 47.9243L41.9742 47.8118L39.7361 50.8758L39.6327 50.8383C39.7917 50.3733 39.9547 49.9082 40.1137 49.4469C39.2272 49.7357 39.2272 49.7357 39.0801 51.5809L47.5795 48.5581C46.8434 48.4484 46.1016 48.3758 45.3573 48.3406C45.192 48.3015 45.0177 48.3136 44.8603 48.3751C44.7028 48.4365 44.5704 48.5441 44.4827 48.6819C44.2071 49.0176 43.9083 49.3359 43.5882 49.6344L43.4491 49.5182L44.3475 48.1343ZM21.3579 59.8353L21.8151 61.7517L24.8881 61.2942C24.2441 60.0416 24.578 58.939 24.9874 57.6714L21.3579 59.8353ZM54.5125 51.9596L54.3615 51.7084C53.2285 52.0834 52.0915 52.4584 50.9665 52.8335C50.8687 52.8755 50.7821 52.9378 50.7133 53.0157C50.6445 53.0936 50.5951 53.1851 50.569 53.2835C50.41 54.3223 50.2947 55.3687 50.1714 56.4675C51.1869 55.479 51.7739 54.1681 51.8172 52.7922L52.0399 52.8185L52.2108 53.7673C52.6083 53.3923 52.9621 53.0172 53.3478 52.7172C53.7334 52.4172 54.1269 52.1997 54.5165 51.9446L54.5125 51.9596ZM56.4247 51.0896C54.9896 51.4646 54.9816 51.4646 54.282 52.5147C53.5823 53.5648 52.8747 54.6824 52.171 55.77L52.3619 55.8975C52.8713 55.5251 53.3437 55.1096 53.7731 54.6561C54.6835 53.501 55.5104 52.3234 56.4287 51.0746L56.4247 51.0896ZM35.5739 53.2985C37.3707 53.1597 36.8142 51.7009 37.3628 50.782L35.713 51.1271L36.0827 51.5021L35.2876 51.7459L35.5739 53.2985ZM50.1675 53.2422L49.9925 53.081C49.6825 53.3323 49.1975 53.5423 49.1021 53.8311C48.9319 54.6875 48.8178 55.5529 48.7602 56.4225L49.5552 56.55L50.1675 53.2422ZM48.1599 56.2163L48.621 53.7373C48.1917 54.0711 47.3131 53.666 47.2654 54.4311C47.2297 55.1024 47.0786 55.9125 48.1639 56.2013L48.1599 56.2163ZM45.3096 55.71L45.1187 55.6087C44.8087 55.9275 44.3237 56.2088 44.2402 56.58C44.113 57.0376 44.2839 57.5701 44.3515 58.0802C44.3652 58.138 44.3932 58.1919 44.4333 58.2376C44.4734 58.2832 44.5244 58.3192 44.5821 58.3427C44.6616 58.3427 44.7888 58.2452 44.8762 58.1664C45.6634 57.4164 45.2976 56.5275 45.3135 55.695L45.3096 55.71ZM37.4184 52.3759C38.7104 52.0684 38.6429 50.9846 38.945 50.0657C37.7762 50.3132 37.4622 50.8083 37.4184 52.3759ZM39.8871 56.355L41.3461 57.2701C42.0975 56.9476 41.9384 56.3325 41.9822 55.6312L39.8871 56.355ZM35.0094 52.2372L33.3357 53.756L35.3234 53.6285L35.0094 52.2372ZM44.0931 58.0614L43.783 56.9738L42.3598 57.6264L42.4115 57.7801L44.0931 58.0614ZM47.3728 56.9363C47.2098 58.6352 47.182 58.8115 47.985 58.684C48.2633 57.4689 48.1996 57.2813 47.3728 56.9476V56.9363ZM48.6409 57.3976L48.5853 58.7477L49.4479 58.6952L49.5155 57.5401L48.6409 57.3976ZM46.6095 56.4188L45.7866 55.1587L45.6554 55.2037L45.7588 57.0976L46.6095 56.4188ZM42.3598 56.5013L43.8069 55.2899C42.2127 55.5487 42.1054 55.65 42.3598 56.5013ZM46.7844 57.4726L45.7985 58.7065L46.8957 58.6652L46.7844 57.4726Z" fill="#543018" stroke="#543018" stroke-width="0.4"/>
<path d="M54.9775 48.8744L56.5359 48.3445L56.7664 48.3971L57.2991 48.4159V48.4948L54.9775 48.8744Z" fill="#543018" stroke="#543018" stroke-width="0.4"/>
<path d="M111.668 135.956C111.597 135.508 111.557 135.055 111.549 134.602C111.712 131.561 112.741 128.718 113.958 125.946C114.852 123.906 115.946 121.948 116.995 119.946C117.134 119.695 117.366 119.501 117.647 119.402C116.431 122.08 115.127 124.727 114.021 127.45C112.916 130.173 112.034 132.989 111.879 135.956H111.668Z" fill="#543018" stroke="#543018" stroke-width="0.4"/>
<path d="M120.059 121.892C117.461 127.688 115.327 133.66 113.675 139.757C113.031 138.066 118.334 122.919 120.059 121.892Z" fill="#543018" stroke="#543018" stroke-width="0.4"/>
<path d="M114.681 117.56C112.296 122.09 109.97 126.643 109.163 131.74C108.997 131.517 108.891 131.259 108.856 130.989C108.821 130.719 108.856 130.445 108.96 130.191C109.36 128.497 109.868 126.827 110.483 125.192C111.421 122.942 112.582 120.8 113.663 118.622C113.906 118.212 114.181 117.819 114.486 117.448L114.681 117.56Z" fill="#543018" stroke="#543018" stroke-width="0.4"/>
<path d="M107.358 125.48C108.069 121.689 109.846 118.49 112.196 115.531C110.606 118.805 109.012 122.079 107.358 125.48Z" fill="#543018" stroke="#543018" stroke-width="0.4"/>
<path d="M31.766 63.4694C31.579 63.0964 31.4925 62.6856 31.514 62.2735C31.5355 61.8613 31.6644 61.4605 31.8893 61.1066C32.6565 59.6252 33.4794 58.1625 34.3063 56.7073C34.4852 56.3998 34.7873 56.0847 35.2524 56.3322C33.4516 58.3763 32.6008 60.8253 31.766 63.4694Z" fill="#543018" stroke="#543018" stroke-width="0.4"/>
<path d="M69.2771 76.0029L67.5557 85.308C67.4961 82.1201 68.3508 79.0596 68.9988 75.9729L69.2771 76.0029Z" fill="#543018" stroke="#543018" stroke-width="0.4"/>
<path d="M66.4917 83.4166L67.2033 74.0223L67.2669 73.9773C67.4049 74.3693 67.489 74.7764 67.5173 75.1886C67.4259 76.9437 67.2947 78.6951 67.1397 80.4389C67.0522 81.4403 66.8932 82.4341 66.766 83.4391L66.4917 83.4166Z" fill="#543018" stroke="#543018" stroke-width="0.4"/>
<path d="M62.3247 70.167C62.5685 73.5722 62.8097 76.9775 63.0482 80.3827L62.9488 80.4165C62.7524 79.8031 62.6075 79.1761 62.5155 78.5413C62.3485 75.9161 62.2412 73.291 62.1179 70.6658C62.1179 70.5008 62.1179 70.3358 62.1179 70.1707L62.3247 70.167Z" fill="#543018" stroke="#543018" stroke-width="0.4"/>
<path d="M70.9834 77.3787C70.884 80.2479 70.2162 83.0271 69.5244 85.8025C69.4767 82.9146 70.4269 80.1766 70.9834 77.3787Z" fill="#543018" stroke="#543018" stroke-width="0.4"/>
<path d="M65.0203 82.7868C64.579 79.6403 65.0203 76.4862 64.9766 73.3359C65.5331 76.4825 65.1276 79.6365 65.0203 82.7868Z" fill="#543018" stroke="#543018" stroke-width="0.4"/>
<path d="M32.8198 64.2114C32.6686 63.8778 32.5695 63.5254 32.5256 63.165C32.5918 61.5554 33.2593 60.0198 34.41 58.8297C34.5331 58.7146 34.6661 58.6093 34.8075 58.5146C34.41 59.4897 33.9607 60.3898 33.6864 61.3311C33.4121 62.2725 33.3088 63.2363 33.1339 64.1926L32.8198 64.2114Z" fill="#543018" stroke="#543018" stroke-width="0.4"/>
<path d="M109.318 114.066C108.034 116.987 106.392 119.777 105.652 122.935C105.096 121.776 107.743 116.226 109.318 114.066Z" fill="#543018" stroke="#543018" stroke-width="0.4"/>
<path d="M84.9768 86.4437L82.1941 93.7719C82.3253 91.0717 83.6689 88.7614 84.7264 86.3574L84.9768 86.4437Z" fill="#543018" stroke="#543018" stroke-width="0.4"/>
<path d="M63.0324 48.8848C62.2055 50.8985 60.6472 52.451 59.1963 54.071C60.0231 52.0648 61.6927 50.5948 63.0324 48.8848Z" fill="#543018" stroke="#543018" stroke-width="0.4"/>
<path d="M87.0631 88.6901C86.9829 89.0008 86.882 89.3065 86.761 89.6052C85.8904 91.4279 85 93.2432 84.0459 95.2309C84.2765 92.6468 85.8229 90.7303 86.7968 88.6113L87.0631 88.6901Z" fill="#543018" stroke="#543018" stroke-width="0.4"/>
<path d="M55.9158 76.8806C54.7749 75.5568 53.8447 70.5578 54.5085 68.9678C54.6636 70.3141 54.759 71.6641 54.9935 72.9917C55.2281 74.3192 55.6137 75.628 55.9158 76.8806Z" fill="#543018" stroke="#543018" stroke-width="0.4"/>
<path d="M52.1405 67.7822C52.1643 70.865 52.538 73.884 53.7545 76.8055C53.5435 76.6063 53.3629 76.3803 53.2178 76.1342C52.1894 73.6533 51.7655 70.9861 51.9775 68.3298C51.9958 68.1763 52.0278 68.0245 52.0729 67.876C52.0808 67.8422 52.1166 67.816 52.1405 67.7822Z" fill="#543018" stroke="#543018" stroke-width="0.4"/>
<path d="M83.1086 85.2579L79.9282 92.3649C80.2701 89.7397 81.6575 87.4894 82.9217 85.1904L83.1086 85.2579Z" fill="#543018" stroke="#543018" stroke-width="0.4"/>
<path d="M106.365 113.854C106.945 114.488 106.13 117.691 105.22 118.73L105.037 118.689C105.466 117.11 105.904 115.523 106.365 113.854Z" fill="#543018" stroke="#543018" stroke-width="0.4"/>
<path d="M90.3108 93.5282C89.7225 95.5609 88.3231 97.2786 87.6871 99.2775L87.3889 99.1875C87.4829 98.7889 87.6092 98.3977 87.7666 98.0174C88.5259 96.4835 89.321 94.9646 90.1041 93.4382L90.3108 93.5282Z" fill="#543018" stroke="#543018" stroke-width="0.4"/>
<path d="M81.7168 84.2534L78.7393 90.2017C78.5365 89.5041 80.1465 85.8849 81.7168 84.2534Z" fill="#543018" stroke="#543018" stroke-width="0.4"/>
<path d="M59.1443 70.197C59.0449 72.7625 59.9394 75.2116 60.1222 77.7358C59.4782 75.2529 58.6077 72.8 59.1443 70.197Z" fill="#543018" stroke="#543018" stroke-width="0.4"/>
<path d="M50.1809 68.3037C50.4592 70.6215 50.7335 72.9392 51.0117 75.2382C50.164 73.0198 49.8795 70.6447 50.1809 68.3037Z" fill="#543018" stroke="#543018" stroke-width="0.4"/>
<path d="M57.1887 69.8369C57.5227 72.3121 57.8606 74.7836 58.2144 77.3976C57.2285 74.8774 57.2245 72.3534 57.1887 69.8369Z" fill="#543018" stroke="#543018" stroke-width="0.4"/>
<path d="M79.0777 81.5935L77.2649 89.2596C77.4941 86.6379 78.104 84.0585 79.0777 81.5935Z" fill="#543018" stroke="#543018" stroke-width="0.4"/>
<path d="M92.7366 96.8091C91.9416 98.373 91.1465 99.9368 90.2998 101.572C90.0891 100.792 91.5838 97.7129 92.7366 96.8091Z" fill="#543018" stroke="#543018" stroke-width="0.4"/>
<path d="M28.0495 60.0272C27.652 58.7594 29.3693 55.6877 30.7209 55.2563C29.417 56.6891 28.1926 58.0918 28.0495 60.0272Z" fill="#543018" stroke="#543018" stroke-width="0.4"/>
<path d="M88.1094 91.6946L86.1535 96.2172L85.9866 96.1609C86.3523 94.5596 87.2229 93.1309 87.8391 91.6121L88.1094 91.6946Z" fill="#543018" stroke="#543018" stroke-width="0.4"/>
<path d="M76.4221 53.4552L74.7285 48.8658L74.9273 48.7983L76.6845 53.354L76.4221 53.4552Z" fill="#543018" stroke="#543018" stroke-width="0.4"/>
<path d="M63.4824 53.1824L65.0011 49.9197C65.1204 51.236 64.3451 52.2299 63.7408 53.2949L63.4824 53.1824Z" fill="#543018" stroke="#543018" stroke-width="0.4"/>
<path d="M71.0396 86.1773L71.8028 82.052H71.9339L71.1668 86.196L71.0396 86.1773Z" fill="#543018" stroke="#543018" stroke-width="0.4"/>
<path d="M38.1032 65.7867C37.6023 65.0366 37.8527 63.1203 38.7114 62.479L38.1032 65.7867Z" fill="#543018" stroke="#543018" stroke-width="0.4"/>
<path d="M100.691 111.511C100.839 110.243 101.972 109.261 102.011 107.835C102.083 108.049 102.266 108.304 102.202 108.473C101.805 109.527 101.331 110.562 100.886 111.605L100.691 111.511Z" fill="#543018" stroke="#543018" stroke-width="0.4"/>
<path d="M41.665 68.2099C41.2873 66.935 41.367 65.5781 41.8916 64.3503L41.665 68.2099Z" fill="#543018" stroke="#543018" stroke-width="0.4"/>
<path d="M40.0195 63.5852C39.8565 64.7704 39.6975 65.9593 39.5106 67.3357C39.0534 65.8768 39.4708 64.7516 40.0195 63.5852Z" fill="#543018" stroke="#543018" stroke-width="0.4"/>
<path d="M100.159 107.13C100.298 105.919 101.061 105.026 101.749 104.085L101.904 104.163L100.159 107.13Z" fill="#543018" stroke="#543018" stroke-width="0.4"/>
<path d="M46.9765 67.167C47.3342 68.1271 47.0083 69.0947 46.9447 70.0586H46.7102L46.7658 67.1857L46.9765 67.167Z" fill="#543018" stroke="#543018" stroke-width="0.4"/>
<path d="M36.4613 65.5278C36.028 64.5977 36.4971 63.7838 36.9343 62.97L36.4613 65.5278Z" fill="#543018" stroke="#543018" stroke-width="0.4"/>
<path d="M45.1118 68.7682L45.6128 66.0718L45.8155 66.1093L45.3146 68.802L45.1118 68.7682Z" fill="#543018" stroke="#543018" stroke-width="0.4"/>
<path d="M94.2949 100.26L92.848 102.818C92.7725 102.255 93.3926 101.104 94.2949 100.26Z" fill="#543018" stroke="#543018" stroke-width="0.4"/>
<path d="M43.3501 68.6069L43.6005 65.8245H43.7754L43.5846 68.6107L43.3501 68.6069Z" fill="#543018" stroke="#543018" stroke-width="0.4"/>
<path d="M54.0609 41.672L51.2066 46.4051C50.4632 45.3962 51.6439 42.6809 52.4429 41.6908L51.1072 45.5387L51.1748 45.5612L53.8343 41.552L54.0609 41.672Z" fill="#543018" stroke="#543018" stroke-width="0.4"/>
<path d="M36.9707 49.8289C36.3195 49.4277 35.8039 48.8586 35.4854 48.1891C35.1669 47.5197 35.0588 46.778 35.1739 46.0522C35.2523 46.417 35.36 46.7755 35.4959 47.1249C35.8934 47.875 36.291 48.625 36.7163 49.3751C36.7998 49.5252 36.8714 49.6789 36.9469 49.8289H36.9707Z" fill="#543018" stroke="#543018" stroke-width="0.4"/>
<path d="M36.9385 44.6763C37.7772 45.8013 37.8329 47.2489 38.5285 48.5127C37.8289 48.1789 37.7096 47.8751 36.9385 44.6763Z" fill="#543018" stroke="#543018" stroke-width="0.4"/>
<path d="M31.6667 48.4827C32.4247 49.5731 32.8875 50.8224 33.0145 52.1209L32.8077 52.1771L31.6667 48.4827Z" fill="#543018" stroke="#543018" stroke-width="0.4"/>
<path d="M29.2424 53.3022C29.3057 52.2602 29.627 51.2467 30.1805 50.343L30.4111 50.403L29.477 53.3735L29.2424 53.3022Z" fill="#543018" stroke="#543018" stroke-width="0.4"/>
<path d="M38.5442 44.7371L39.0291 47.2979C38.4567 46.8142 38.1904 45.6819 38.3335 44.7671L38.5442 44.7371Z" fill="#543018" stroke="#543018" stroke-width="0.4"/>
<path d="M54.5771 43.8774L52.9871 46.2514L52.8042 46.1464L54.3585 43.7649L54.5771 43.8774Z" fill="#543018" stroke="#543018" stroke-width="0.4"/>
<path d="M46.8204 42.9596L45.6556 44.6921L45.4529 44.5721L46.566 42.8171L46.8204 42.9596Z" fill="#543018" stroke="#543018" stroke-width="0.4"/>
<path d="M38.6198 70.8901C38.588 71.8091 36.6322 74.1497 35.7139 74.266L38.6198 70.8901Z" fill="#543018" stroke="#543018" stroke-width="0.4"/>
<path d="M42.1504 51.9296L41.9277 53.1223C42.4008 52.9835 42.8143 52.8785 43.2197 52.7472C46.0025 51.8246 48.7853 50.9094 51.5442 49.9642C52.4347 49.6641 53.2933 49.2741 54.1798 48.959C54.4506 48.8969 54.7281 48.8655 55.0067 48.8652C49.4889 51.1344 43.9274 53.2798 38.1154 54.7764L38.0239 54.5476C38.9979 54.1725 39.956 53.7562 40.9538 53.4599C41.5541 53.2798 41.9476 53.0848 41.9675 52.4247C42.003 52.2522 42.0646 52.0855 42.1504 51.9296Z" fill="#543018" stroke="#543018" stroke-width="0.4"/>
<path d="M24.2888 61.1443C23.6766 60.6529 23.5733 60.0415 23.9231 59.1975C24.0463 59.8352 24.1655 60.4691 24.2888 61.1443Z" fill="#543018" stroke="#543018" stroke-width="0.4"/>
<path d="M21.208 33.3388C24.2412 32.7838 27.1711 32.1463 30.1685 31.7187C32.6928 31.3437 35.2411 31.1562 37.7217 30.5562C39.2204 30.1811 40.743 29.9036 42.2695 29.6786C44.937 29.3036 47.6084 28.8498 50.2958 28.6698C52.8456 28.4924 55.3814 28.1668 57.8888 27.6947C58.8428 27.5185 59.6816 27.3872 60.5523 27.8785C60.7904 27.9583 61.0442 27.9877 61.2957 27.9647C62.2259 28.0023 63.1561 28.0285 64.2215 28.066C64.4767 27.6259 64.6679 27.1554 64.79 26.6672C64.8457 26.2621 64.6111 25.8159 64.4799 25.3921C64.2147 23.9054 64.0923 22.3992 64.1142 20.8918C64.8775 22.4181 64.5117 24.0945 65.267 25.6096C66.559 23.1644 67.851 20.7155 69.2106 18.1466C67.7835 17.5878 66.4279 16.7703 64.6151 16.7928C64.7413 16.5873 64.9419 16.4317 65.18 16.3546C65.418 16.2774 65.6776 16.2839 65.9111 16.3728C66.5354 16.5335 67.1488 16.7301 67.7477 16.9616C68.3241 17.1603 68.8926 17.3703 69.4531 17.6028C70.0136 17.8354 70.0773 18.0229 69.799 18.5517C68.5984 20.8731 67.3422 23.1794 66.1695 25.5121C65.6328 26.5772 65.2313 27.7022 64.7383 28.8873C63.5457 28.2948 62.2259 28.5123 60.9538 28.4485C60.4106 28.3806 59.8728 28.2791 59.3437 28.1448C57.4584 28.9463 55.4272 29.3983 53.3608 29.4761C51.4924 29.5849 49.62 29.6524 47.7516 29.7611C47.2509 29.8108 46.7534 29.8846 46.2608 29.9824C44.77 30.2186 43.2832 30.4624 41.7925 30.6912C40.8344 30.8412 39.8724 30.9612 38.9143 31.1112C38.0278 31.2462 37.1333 31.3625 36.2588 31.5687C35.2888 31.7975 34.3347 32.1013 33.3806 32.3975C31.6229 33.0067 29.7706 33.3374 27.8985 33.3763C27.1472 33.3763 26.3919 33.4813 25.6405 33.5413C24.6745 33.6164 23.7085 33.6876 22.7425 33.7739C21.9474 33.8451 21.1841 33.9389 20.3255 34.0289C19.8246 32.4313 19.0335 30.9387 19.3555 29.1948C19.431 28.7748 19.1686 28.276 18.9937 27.841C18.5962 26.8622 18.1708 25.8984 17.8011 24.9983C17.0816 24.687 16.3779 24.372 15.6663 24.072C15.0462 23.8095 14.422 23.547 13.786 23.322C13.3407 23.1232 13.1141 22.9019 13.2851 22.4482C13.3924 22.1594 13.4918 21.8706 13.619 21.5893C13.9808 20.7793 14.3704 19.9805 14.7242 19.1704C15.5192 17.3778 16.2547 15.5777 17.0339 13.7889C17.182 13.5149 17.3493 13.2505 17.5347 12.9976L17.7931 13.1251C17.3161 14.1601 16.8271 15.1989 16.3938 16.2603C15.9605 17.3216 15.5987 18.3754 15.2012 19.4292C14.8037 20.483 14.3266 21.5593 13.8774 22.6544C14.8553 23.1269 15.7935 23.6107 16.7556 24.0383C16.8721 24.0815 16.9969 24.1013 17.122 24.0964C17.2471 24.0915 17.3698 24.0619 17.4821 24.0097C17.5944 23.9574 17.6938 23.8836 17.7741 23.7929C17.8544 23.7023 17.9137 23.5968 17.9482 23.4832C18.298 22.4557 18.6081 21.4056 19.0374 20.408C19.8007 18.6492 20.6276 16.9166 21.4624 15.1802C21.6334 14.8052 21.86 14.4752 22.0627 14.1226L22.2813 14.2051C22.1502 14.5802 22.0309 14.9289 21.8838 15.2815C20.9973 17.3966 20.1346 19.5192 19.2044 21.6194C18.5543 23.1451 18.5543 24.8489 19.2044 26.3746C19.9995 28.4635 20.719 30.5487 20.9178 32.75C20.9413 32.8796 20.9827 33.0057 21.041 33.1251C21.0865 33.2029 21.1427 33.2748 21.208 33.3388ZM28.5664 32.5888L28.6022 32.7763L30.1287 32.4988L30.093 32.3188L28.5664 32.5888Z" fill="#543018" stroke="#543018" stroke-width="0.4"/>
<path d="M62.0978 11.8733C61.736 11.9408 61.3703 12.0271 61.0046 12.0758L44.638 14.232C41.2113 14.682 37.7885 15.1395 34.3617 15.5708C31.4716 15.9457 28.5775 16.2532 25.6875 16.6245C24.7612 16.7407 23.8548 16.9807 22.9365 17.1382C22.5032 17.2132 22.042 17.3445 21.5332 16.9845C21.9732 16.7155 22.4839 16.5675 23.0081 16.557C25.0753 16.3057 27.1504 16.092 29.2216 15.8445C30.0445 15.747 30.8634 15.6308 31.6744 15.4695C33.6859 15.0945 35.6815 14.6333 37.701 14.307C39.152 14.0708 40.6348 14.022 42.0978 13.8495C44.2047 13.5983 46.3116 13.3358 48.4106 13.0358C49.5794 12.867 50.7243 12.537 51.897 12.4095C54.6798 12.1058 57.4625 11.8808 60.2771 11.6183C60.7064 11.5808 61.1358 11.5058 61.5651 11.4871C61.7491 11.5106 61.9277 11.5625 62.0938 11.6408L62.0978 11.8733Z" fill="#543018" stroke="#543018" stroke-width="0.4"/>
<path d="M70.1887 90.5168C68.9573 91.1605 67.577 91.5084 66.1696 91.5299C59.9441 91.7775 53.7147 91.9051 47.4853 91.7363C46.8731 91.7363 46.2609 91.7363 45.6487 91.7363C45.3458 91.73 45.0543 91.6268 44.8218 91.4436C44.9432 91.3673 45.0777 91.3114 45.2193 91.2785C46.8413 91.2372 48.4632 91.1697 50.0812 91.1847C52.1365 91.2072 54.1878 91.3085 56.2391 91.3498C57.066 91.3498 57.8928 91.2973 58.7237 91.2785C60.5603 91.2335 62.3969 91.1472 64.2296 91.1772C65.8514 91.2165 67.4719 91.0601 69.0517 90.712C69.4135 90.6294 69.7911 90.5806 70.1887 90.5168Z" fill="#543018" stroke="#543018" stroke-width="0.4"/>
<path d="M74.8036 5.9023C74.8689 6.25562 74.9087 6.61271 74.9229 6.97111C74.8593 8.49746 74.736 10.0238 74.6883 11.5502C74.6287 13.3165 74.6247 15.0829 74.6088 16.8492C74.6088 17.8318 74.6088 18.8181 74.6088 19.8044C74.6088 20.7907 74.6684 21.7658 74.6923 22.7484C74.7103 23.109 74.6823 23.4704 74.6088 23.8247C73.77 20.862 73.937 17.8243 73.9688 14.8241C74.0006 11.8239 74.3186 8.86498 74.5134 5.88354L74.8036 5.9023Z" fill="#543018" stroke="#543018" stroke-width="0.4"/>
<path d="M14.0759 92.0462C15.4633 91.5404 26.2366 91.2743 27.6121 91.6715C27.6121 91.7053 27.6359 91.739 27.6121 91.769C27.5882 91.7989 27.5763 91.8402 27.5525 91.8402C26.8766 91.9076 26.2048 92.0163 25.529 92.0275C21.9512 92.0912 18.3455 92.1324 14.7517 92.1699C14.5229 92.1485 14.2966 92.1071 14.0759 92.0462Z" fill="#543018" stroke="#543018" stroke-width="0.4"/>
<path d="M63.407 18.8445L64.5241 17.5168L64.6752 17.5844C64.54 17.8769 64.4287 18.1807 64.2777 18.4582C63.2798 20.1496 62.2542 21.8335 61.2802 23.5287C60.7316 24.4813 60.2625 25.4751 59.7536 26.4465C59.6725 26.5788 59.5794 26.7043 59.4754 26.8215C59.0381 26.4465 59.2289 26.0264 59.3998 25.6964C59.7695 24.9463 60.175 24.2413 60.5924 23.5362C61.3875 22.2161 62.2542 20.9109 63.0771 19.5946C63.2065 19.3516 63.3194 19.101 63.415 18.8445H63.407Z" fill="#543018" stroke="#543018" stroke-width="0.4"/>
<path d="M74.6881 28.2349C74.7465 28.4166 74.7825 28.6041 74.7954 28.7937C74.7397 29.9488 74.6443 31.1001 74.6086 32.2552C74.5807 33.0991 74.6404 33.9466 74.6324 34.7942C74.6324 36.1856 74.5887 37.5732 74.5569 38.9609C74.5269 39.1069 74.4789 39.2492 74.4138 39.3846C74.0798 38.4996 74.1911 29.5475 74.6881 28.2349Z" fill="#543018" stroke="#543018" stroke-width="0.4"/>
<path d="M63.4308 18.8331C63.069 17.8055 62.6874 16.7854 62.3534 15.754C62.1388 15.0826 62.2541 12.8848 62.5085 12.0034C62.6698 12.1157 62.7932 12.2697 62.8638 12.4467C62.9343 12.6238 62.949 12.8163 62.906 13.0011C62.8457 14.324 63.019 15.6473 63.4188 16.9166C63.5937 17.5055 63.4188 18.1881 63.4188 18.8256L63.4308 18.8331Z" fill="#543018" stroke="#543018" stroke-width="0.4"/>
<path d="M18.1115 20.8202C18.0479 20.5727 17.9684 20.329 17.9287 20.0702C17.8372 19.504 17.7697 18.9453 17.6822 18.3641C17.5311 17.4303 17.547 17.3778 18.5528 17.1004C19.0736 16.9579 19.5665 16.5866 20.4093 16.8829L18.044 17.6816C18.2189 18.7653 18.6601 19.759 18.358 20.8015L18.1115 20.8202Z" fill="#543018" stroke="#543018" stroke-width="0.4"/>
<path d="M12.2827 59.0136C12.1276 57.8586 13.1095 56.4973 14.5605 55.8936L12.2827 59.0136Z" fill="#543018" stroke="#543018" stroke-width="0.4"/>
<path d="M10.7317 35.2637C10.8867 34.4273 11.8885 33.2459 13.3673 32.1357C13.2401 32.8296 11.642 34.7236 10.7317 35.2637Z" fill="#543018" stroke="#543018" stroke-width="0.4"/>
<path d="M10.7927 32.7352C10.7728 31.7489 12.0449 30.1101 13.3408 29.4988L10.7927 32.7352Z" fill="#543018" stroke="#543018" stroke-width="0.4"/>
<path d="M10.6855 37.7759C10.9559 36.8307 11.5522 36.1444 12.9436 35.053C12.9039 35.6793 11.906 36.9207 10.6855 37.7759Z" fill="#543018" stroke="#543018" stroke-width="0.4"/>
<path d="M10.9875 8.08131C11.3573 6.95647 12.6493 5.68164 13.6392 5.37793C13.4364 5.9291 12.3074 7.09895 10.9875 8.08131Z" fill="#543018" stroke="#543018" stroke-width="0.4"/>
<path d="M34.0481 91.8788H29.8223C31.1858 91.3146 33.4001 91.2995 34.0481 91.8788Z" fill="#543018" stroke="#543018" stroke-width="0.4"/>
<path d="M10.9796 72.6578C10.4071 71.6339 10.745 70.4562 11.7747 69.5073C11.882 70.1187 11.5083 70.5575 11.3772 71.0413C11.246 71.5251 11.1466 72.009 10.9796 72.6578Z" fill="#543018" stroke="#543018" stroke-width="0.4"/>
<path d="M24.256 86.5334C24.1685 87.4522 23.4967 88.0334 22.9004 88.8171C22.8407 88.0672 23.278 87.3659 24.256 86.5334Z" fill="#543018" stroke="#543018" stroke-width="0.4"/>
<path d="M23.0961 84.8914C22.7879 85.8035 22.2489 86.6312 21.5259 87.303C21.7565 86.359 22.3079 85.5121 23.0961 84.8914Z" fill="#543018" stroke="#543018" stroke-width="0.4"/>
<path d="M11.0825 39.8536C11.2892 38.9348 11.9531 38.2936 12.5574 37.6035L12.7959 37.7423L11.3528 39.9999L11.0825 39.8536Z" fill="#543018" stroke="#543018" stroke-width="0.4"/>
<path d="M11.4443 5.49749C11.8887 4.74594 12.4874 4.08548 13.2054 3.55469L13.4161 3.72721L11.6749 5.65502L11.4443 5.49749Z" fill="#543018" stroke="#543018" stroke-width="0.4"/>
<path d="M62.8494 26.6675C61.5971 27.2335 61.0326 27.3198 59.9712 27.1061C61.0446 26.8174 61.9271 26.5438 62.8494 26.6675Z" fill="#543018" stroke="#543018" stroke-width="0.4"/>
<path d="M22.0427 13.8565L19.8164 12.6231C20.6354 12.3494 21.1879 12.6231 22.0427 13.8565Z" fill="#543018" stroke="#543018" stroke-width="0.4"/>
<path d="M10.5781 10.2002C11.0711 9.40888 11.878 8.94757 12.6373 8.4375L12.8042 8.61002L10.7769 10.3728L10.5781 10.2002Z" fill="#543018" stroke="#543018" stroke-width="0.4"/>
<path d="M13.6344 62.0369L12.4419 64.1555L12.2192 64.043C12.4293 63.2607 12.8387 62.5386 13.4118 61.9395L13.6344 62.0369Z" fill="#543018" stroke="#543018" stroke-width="0.4"/>
<path d="M13.5194 59.3028L12.3268 61.1139C12.1757 60.229 12.7839 59.7378 13.2332 59.1641L13.5194 59.3028Z" fill="#543018" stroke="#543018" stroke-width="0.4"/>
<path d="M26.6619 87.2163C26.5427 87.9663 26.0935 88.5175 25.3462 89.0913C25.541 88.18 26.181 87.7488 26.6619 87.2163Z" fill="#543018" stroke="#543018" stroke-width="0.4"/>
<path d="M32.6133 88.7543C32.9778 88.5636 33.379 88.4434 33.7933 88.4009C34.2077 88.3583 34.6268 88.3943 35.0263 88.5066C34.1398 88.7919 33.4958 88.9457 32.6133 88.7543Z" fill="#543018" stroke="#543018" stroke-width="0.4"/>
<path d="M36.0991 53.429C35.5186 54.2915 35.3596 54.3365 34.6321 53.9015L36.0991 53.429Z" fill="#543018" stroke="#543018" stroke-width="0.4"/>
<path d="M10.6208 12.8066L11.4358 11.5918L11.6783 11.7305L10.9309 12.9679L10.6208 12.8066Z" fill="#543018" stroke="#543018" stroke-width="0.4"/>
<path d="M10.8315 42.5912L11.6266 41.365L11.8611 41.5037L11.0661 42.7337L10.8315 42.5912Z" fill="#543018" stroke="#543018" stroke-width="0.4"/>
<path d="M11.2419 28.8762L10.5581 30.2486C10.3752 29.6074 10.6813 29.1874 11.2419 28.8762Z" fill="#543018" stroke="#543018" stroke-width="0.4"/>
<path d="M71.4561 90.0593C71.6787 89.7293 71.8973 89.3993 72.116 89.0693L72.2948 89.1706L71.6588 90.2243L71.4561 90.0593Z" fill="#543018" stroke="#543018" stroke-width="0.4"/>
<path d="M39.5784 91.7534H40.5445V91.874H39.5784V91.7534Z" fill="#543018" stroke="#543018" stroke-width="0.4"/>
<path d="M10.4624 16.8767L10.6492 16.429H10.7684C10.786 16.5337 10.786 16.6403 10.7684 16.745C10.7485 16.8278 10.6492 16.888 10.5856 16.9595L10.4624 16.8767Z" fill="#543018" stroke="#543018" stroke-width="0.4"/>
<path d="M57.2168 86.1923L57.4434 85.8171L57.5865 85.8472C57.6069 85.9438 57.6069 86.0432 57.5865 86.1398C57.5507 86.2148 57.4354 86.2561 57.3559 86.3124L57.2168 86.1923Z" fill="#543018" stroke="#543018" stroke-width="0.4"/>
<path d="M73.8614 91.4362L73.8137 92.6775C73.3481 92.929 72.8196 93.0585 72.2831 93.0526C69.9774 93.0526 67.6717 92.985 65.366 92.9363C64.8611 92.9363 64.3563 92.8988 63.8514 92.8763L56.0835 92.5613C54.4258 92.4975 52.768 92.3662 51.1143 92.4C47.7352 92.4713 44.3561 92.22 40.9651 92.5688C39.8159 92.652 38.6629 92.6808 37.5105 92.655C33.8015 92.6775 30.0885 92.655 26.3795 92.7113C23.5689 92.7525 20.7623 92.8613 17.9517 92.9775C15.8686 93.0676 13.7855 93.2363 11.7024 93.3526C10.8795 93.3938 10.0526 93.3526 9.22576 93.3338C8.39888 93.3151 7.63561 93.2963 6.84053 93.2813C6.76897 93.2813 6.69742 93.2813 6.62586 93.2813C5.55251 93.3001 5.00391 93.2176 5.31399 91.8074C5.52834 91.6627 5.77929 91.5736 6.04166 91.5493C6.30403 91.5249 6.56857 91.5661 6.80873 91.6687C7.0972 91.7769 7.41447 91.7968 7.71557 91.7254C8.01667 91.6541 8.28633 91.4952 8.48634 91.2712C9.09854 90.6224 8.88387 89.7298 8.00532 89.5085C7.22733 89.3431 6.44036 89.2179 5.64792 89.1335C5.41337 88.4809 5.57239 88.2184 6.2641 88.2709C6.55033 88.2934 6.82463 88.4022 7.10688 88.4509C7.37612 88.5098 7.65769 88.4936 7.91739 88.4044C8.17708 88.3152 8.40374 88.1568 8.56982 87.9484C8.70115 87.82 8.79421 87.6612 8.83957 87.488C8.88493 87.3148 8.88098 87.1334 8.82812 86.9621C8.77527 86.7908 8.67538 86.6357 8.53857 86.5126C8.40176 86.3894 8.23289 86.3025 8.04905 86.2607C7.42013 86.1265 6.7806 86.0412 6.13689 86.0057C5.84271 85.9795 5.52866 86.0057 5.50878 85.6307C5.50878 85.1731 5.87451 85.1656 6.18459 85.1694C6.50678 85.1963 6.82595 85.249 7.13868 85.3269C7.40743 85.3766 7.68568 85.3517 7.93971 85.2552C8.19374 85.1586 8.41262 84.9947 8.56982 84.7831C8.70219 84.6553 8.79637 84.4968 8.84279 84.3236C8.88922 84.1504 8.88624 83.9687 8.83416 83.7969C8.78208 83.6251 8.68275 83.4694 8.54626 83.3456C8.40976 83.2217 8.24096 83.1341 8.057 83.0917C7.53517 82.9698 7.00313 82.8907 6.46685 82.8554C6.19145 82.8405 5.91537 82.8405 5.63997 82.8554C5.49685 82.0379 5.60021 81.8691 6.24422 81.8991C6.56225 81.8991 6.87631 82.0266 7.19831 82.0679C7.50294 82.1046 7.81218 82.0524 8.0844 81.9183C8.35662 81.7842 8.57875 81.5746 8.72088 81.3178C9.05084 80.699 8.82027 80.0277 8.11265 79.8589C7.30201 79.7018 6.48332 79.5841 5.65984 79.5064C5.50878 78.8951 5.60816 78.7038 6.17664 78.7151C6.46224 78.7422 6.74444 78.795 7.01942 78.8726C7.31823 78.9494 7.63512 78.9353 7.92493 78.8323C8.21474 78.7293 8.46269 78.5426 8.63342 78.2988C8.74835 78.1681 8.82628 78.012 8.85994 77.8451C8.8936 77.6783 8.8819 77.5061 8.82592 77.3447C8.76994 77.1833 8.67152 77.0379 8.53983 76.9221C8.40815 76.8063 8.24751 76.7238 8.0729 76.6824C7.44641 76.5427 6.80769 76.4574 6.16472 76.4274C5.81091 76.3974 5.49685 76.3899 5.50083 75.9586C5.5048 75.5273 5.81091 75.4336 6.15677 75.4486C6.50262 75.4636 6.78885 75.5761 7.10688 75.6211C7.41177 75.6805 7.72871 75.6489 8.01367 75.5306C8.29864 75.4123 8.53748 75.2132 8.69703 74.961C8.79784 74.8304 8.8631 74.6784 8.88706 74.5185C8.91103 74.3585 8.89297 74.1954 8.83447 74.0436C8.77597 73.8917 8.67883 73.7557 8.55158 73.6476C8.42434 73.5395 8.27088 73.4625 8.1047 73.4234C7.47825 73.2815 6.83968 73.1924 6.19652 73.1571C5.85861 73.1234 5.46505 73.1571 5.55648 72.7071C5.59226 72.5421 5.95402 72.3321 6.17664 72.3321C6.49827 72.3405 6.81748 72.3871 7.12676 72.4708C7.43203 72.5288 7.74883 72.496 8.03359 72.3772C8.31834 72.2583 8.55706 72.0591 8.71691 71.807C9.11445 71.1732 8.87592 70.4494 8.12855 70.2694C7.32082 70.111 6.50471 69.9933 5.6837 69.9169C5.50878 69.1893 5.62804 69.0093 6.35156 69.0543C6.63381 69.073 6.91209 69.1743 7.19831 69.2118C7.538 69.2637 7.88623 69.2021 8.18301 69.0378C8.4798 68.8736 8.70656 68.6168 8.82424 68.3117C8.88975 68.1844 8.92332 68.0445 8.92235 67.9029C8.92137 67.7614 8.88588 67.6219 8.81862 67.4954C8.75136 67.3689 8.65414 67.2586 8.53447 67.1732C8.41481 67.0878 8.27592 67.0295 8.12855 67.0029C7.57303 66.8699 7.00646 66.7821 6.43504 66.7403C6.1597 66.7235 5.8835 66.7235 5.60816 66.7403C5.43722 65.7615 5.65984 65.5365 6.55033 65.6902C6.79218 65.7556 7.03771 65.8082 7.28577 65.8478C7.57505 65.877 7.86681 65.8205 8.12046 65.6861C8.37411 65.5517 8.57703 65.346 8.70101 65.0977C8.79379 64.9688 8.85176 64.8204 8.86988 64.6655C8.888 64.5106 8.86572 64.3538 8.80498 64.2089C8.74424 64.064 8.64687 63.9353 8.52136 63.834C8.39585 63.7326 8.24599 63.6618 8.08482 63.6276C7.28975 63.4288 6.47082 63.3613 5.64394 63.2525C5.46505 62.5962 5.59226 62.3675 6.21242 62.3937C6.49541 62.4338 6.77554 62.4901 7.05123 62.5625C7.37029 62.6262 7.70262 62.5913 7.99903 62.4629C8.29544 62.3346 8.54018 62.1197 8.69703 61.8499C8.7863 61.7219 8.84194 61.5757 8.85935 61.4234C8.87676 61.2711 8.85543 61.1171 8.79714 60.9741C8.73885 60.8311 8.64526 60.7033 8.52415 60.6013C8.40304 60.4992 8.25788 60.4259 8.10072 60.3873C7.4393 60.2435 6.76656 60.1507 6.08918 60.1098C5.78308 60.076 5.49685 60.0685 5.49685 59.686C5.49685 59.3035 5.82283 59.2547 6.10111 59.2622C6.45492 59.2622 6.80873 59.3785 7.16254 59.4235C7.48768 59.4683 7.81945 59.4112 8.10677 59.2607C8.39409 59.1103 8.62104 58.8749 8.75269 58.5909C9.01904 57.9833 8.79244 57.3758 8.1206 57.2183C7.32553 57.0308 6.49865 56.9745 5.58034 56.8433C5.55648 56.6745 5.52468 56.4307 5.49288 56.2169C6.03353 55.8419 6.53045 55.9957 7.01147 56.1194C7.25538 56.1865 7.514 56.1898 7.75974 56.129C8.00548 56.0682 8.22913 55.9457 8.40683 55.7744C9.16215 55.1256 8.95543 54.1393 7.96556 53.8993C7.18549 53.7541 6.39699 53.6526 5.60419 53.5955C5.38554 53.2917 5.58034 53.0704 5.89837 53.0404C6.25207 53.0248 6.6062 53.0615 6.94787 53.1492C7.22994 53.2278 7.53007 53.2278 7.81217 53.1493C8.09427 53.0708 8.34632 52.9171 8.53802 52.7066C9.14625 52.0541 8.93555 51.169 8.03712 50.9478C7.26124 50.7905 6.47696 50.6729 5.68767 50.5952C5.46505 49.9277 5.62804 49.6764 6.31976 49.7326C6.60598 49.7551 6.88028 49.8639 7.16254 49.9089C7.4305 49.9594 7.70823 49.9356 7.96219 49.8405C8.21615 49.7453 8.43547 49.5828 8.59367 49.3726C8.72398 49.2429 8.81559 49.083 8.85919 48.9091C8.90279 48.7352 8.89683 48.5535 8.84192 48.3825C8.78701 48.2115 8.6851 48.0572 8.54654 47.9353C8.40798 47.8135 8.23771 47.7284 8.05302 47.6887C7.42429 47.5549 6.78457 47.4721 6.14086 47.4412C5.84271 47.4112 5.54456 47.4412 5.52468 47.0437C5.5048 46.6461 5.82283 46.5936 6.10509 46.6011C6.46185 46.6322 6.81631 46.6835 7.16651 46.7549C7.50698 46.8045 7.85518 46.7417 8.15218 46.577C8.44918 46.4123 8.67676 46.1558 8.79642 45.8511C9.01109 45.2548 8.79641 44.726 8.15638 44.561C7.3613 44.3697 6.5384 44.3134 5.60816 44.1859L5.49685 43.5784C6.02558 43.1771 6.52648 43.3309 7.00352 43.4584C7.26449 43.5327 7.54259 43.5347 7.80475 43.4642C8.06691 43.3938 8.3021 43.2538 8.48236 43.0608C8.64291 42.937 8.76298 42.7728 8.82864 42.5872C8.8943 42.4017 8.90287 42.2023 8.85336 42.0123C8.80385 41.8224 8.69828 41.6495 8.54889 41.5138C8.3995 41.3781 8.2124 41.2852 8.00929 41.2457C7.48618 41.1336 6.95446 41.0609 6.41914 41.0282C6.15279 40.9944 5.88247 40.9944 5.51276 40.9757C5.59183 40.806 5.73471 40.6699 5.91382 40.5938C6.09294 40.5176 6.29561 40.5067 6.48275 40.5631C6.72922 40.6006 6.96774 40.6981 7.21422 40.7319C7.50206 40.7784 7.79812 40.7396 8.06156 40.6207C8.32501 40.5018 8.54287 40.3087 8.68511 40.0681C8.79002 39.9355 8.85834 39.7804 8.88389 39.6167C8.90945 39.453 8.89145 39.2859 8.83152 39.1304C8.77158 38.9749 8.67159 38.8359 8.54055 38.7259C8.40951 38.616 8.25153 38.5385 8.08085 38.5005C7.67035 38.3715 7.24664 38.2835 6.81668 38.2379C6.43535 38.2173 6.05309 38.2173 5.67177 38.2379C5.46903 37.4616 5.60021 37.2366 6.2164 37.2666C6.50112 37.3061 6.78269 37.3638 7.05918 37.4391C7.30645 37.4939 7.56469 37.486 7.80767 37.4162C8.05065 37.3464 8.26971 37.2171 8.44261 37.0416C9.12637 36.389 8.92363 35.4702 7.99736 35.2114C7.47493 35.0885 6.94335 35.0033 6.40722 34.9564C6.26808 34.9564 6.08918 35.0202 5.98185 34.9564C5.80219 34.8376 5.63806 34.6991 5.49288 34.5439C5.66382 34.4051 5.82283 34.1688 6.00173 34.1688C6.35938 34.1682 6.71579 34.2085 7.06315 34.2888C7.38182 34.3508 7.71319 34.3138 8.00771 34.1833C8.30222 34.0528 8.54405 33.8359 8.69703 33.565C9.03096 32.9462 8.80437 32.2674 8.10072 32.0987C7.30565 31.9111 6.48275 31.8586 5.64394 31.7236C5.42927 31.0186 5.54853 30.8198 6.26808 30.8573C6.55333 30.8926 6.83608 30.9439 7.11483 31.0111C7.39957 31.0681 7.69605 31.0408 7.96364 30.9327C8.23124 30.8246 8.45685 30.6411 8.60957 30.4073C8.72573 30.2775 8.80485 30.1219 8.83943 29.9552C8.87401 29.7885 8.8629 29.6163 8.80717 29.4548C8.75143 29.2933 8.65291 29.1479 8.52093 29.0324C8.38896 28.9168 8.2279 28.835 8.05302 28.7946C7.53153 28.6697 6.99945 28.5882 6.46287 28.5509C6.18615 28.5359 5.90874 28.5359 5.63202 28.5509C5.46903 27.737 5.56444 27.5683 6.20845 27.5908C6.53045 27.5908 6.84451 27.7183 7.16254 27.7595C7.48782 27.8057 7.82016 27.7491 8.10778 27.5985C8.39539 27.4479 8.62214 27.2118 8.75269 26.927C9.01904 26.3194 8.79244 25.7119 8.1206 25.5544C7.32553 25.3668 6.49865 25.3106 5.58034 25.1793L5.49288 24.5568C6.03353 24.1817 6.53045 24.3318 7.01147 24.4593C7.25576 24.5254 7.51449 24.5279 7.76016 24.4665C8.00584 24.4051 8.22931 24.2821 8.40683 24.1105C9.16215 23.4617 8.95543 22.4791 7.96556 22.2353C7.19454 22.0919 6.4154 21.9905 5.63202 21.9316C5.52468 21.3128 5.60419 21.1365 6.09714 21.1365C6.41888 21.1592 6.73728 21.2133 7.04725 21.2978C7.31195 21.3582 7.58926 21.3482 7.84826 21.2687C8.10726 21.1892 8.33779 21.0435 8.51416 20.8477C8.65959 20.7201 8.76586 20.5578 8.8218 20.378C8.87775 20.1982 8.88129 20.0075 8.83206 19.826C8.78284 19.6445 8.68266 19.4788 8.54207 19.3464C8.40148 19.2141 8.22567 19.1199 8.03314 19.0738C7.65562 18.96 7.2666 18.8833 6.87233 18.845C6.48698 18.8263 6.10086 18.8263 5.7155 18.845C5.43722 18.095 5.60021 17.8175 6.29193 17.87C6.57418 17.8925 6.85246 18.0012 7.13471 18.05C7.40286 18.1002 7.68066 18.0767 7.93508 17.9823C8.18949 17.8879 8.4098 17.7265 8.56982 17.5174C8.70097 17.3887 8.79384 17.2296 8.83908 17.0562C8.88433 16.8828 8.88036 16.7012 8.82756 16.5298C8.77476 16.3583 8.675 16.203 8.53833 16.0794C8.40166 15.9559 8.2329 15.8685 8.04905 15.826C7.42153 15.6916 6.78329 15.6063 6.14086 15.571C5.84669 15.5448 5.52866 15.571 5.50878 15.196C5.48493 14.7384 5.87451 14.7309 6.18459 14.7347C6.50678 14.7616 6.82595 14.8143 7.13868 14.8922C7.42447 14.9465 7.72105 14.9162 7.98788 14.8054C8.25471 14.6946 8.47878 14.5088 8.62945 14.2734C8.74368 14.1424 8.82059 13.986 8.85293 13.8191C8.88527 13.6523 8.87196 13.4803 8.81425 13.3197C8.75655 13.159 8.65636 13.0148 8.52316 12.9009C8.38996 12.7869 8.22815 12.7068 8.05302 12.6683C7.53137 12.5448 6.99931 12.4645 6.46287 12.4283C6.18747 12.4133 5.91139 12.4133 5.63599 12.4283C5.49288 11.6069 5.59226 11.4419 6.23627 11.4682C6.55828 11.4682 6.87233 11.5957 7.19036 11.6369C7.49573 11.6756 7.8063 11.6243 8.07956 11.49C8.35282 11.3557 8.57542 11.1451 8.71691 10.8869C9.04686 10.2643 8.81629 9.59301 8.10868 9.42425C7.29803 9.26709 6.47934 9.14943 5.65587 9.07172C5.50083 8.46042 5.60419 8.26915 6.17267 8.2804C6.45696 8.30753 6.73784 8.36028 7.01147 8.43792C7.31022 8.51653 7.62775 8.50329 7.91798 8.40011C8.20821 8.29693 8.45603 8.10918 8.62547 7.86412C8.74146 7.73299 8.81997 7.57605 8.85353 7.40822C8.88709 7.24039 8.8746 7.06725 8.81723 6.90527C8.75986 6.74328 8.65953 6.59783 8.52577 6.48274C8.39201 6.36765 8.22927 6.28675 8.05302 6.24773C7.42658 6.10778 6.78784 6.02241 6.14484 5.99271C5.79501 5.96271 5.47698 5.95896 5.48095 5.52392C5.48493 5.08888 5.79103 4.99888 6.13689 5.01388C6.48275 5.02888 6.765 5.14139 7.087 5.18639C7.39191 5.24638 7.70907 5.21502 7.99416 5.09668C8.27925 4.97834 8.51804 4.77894 8.67715 4.52634C8.77496 4.39456 8.83782 4.24257 8.86043 4.08312C8.88304 3.92367 8.86476 3.76143 8.80711 3.61004C8.74946 3.45864 8.65413 3.32251 8.52914 3.21309C8.40414 3.10366 8.25313 3.02414 8.0888 2.98121C7.67868 2.8517 7.25476 2.76492 6.82463 2.72243C6.44204 2.69998 6.05834 2.69998 5.67575 2.72243C5.51673 1.84861 5.60419 1.66859 6.32373 1.64984C8.91568 1.58609 11.5116 1.55609 14.1035 1.51483C15.8686 1.48483 17.6337 1.42482 19.3987 1.44358C20.3687 1.44358 21.3347 1.59359 22.3008 1.6761C23.3781 1.76235 24.4514 1.91237 25.5288 1.92362C28.3751 1.96112 31.2255 1.98362 34.0718 1.92362C39.1007 1.80361 44.1494 1.74735 49.1822 1.46608C52.0445 1.31606 54.8591 1.51108 57.7015 1.66109C60.6161 1.78297 63.5356 1.75668 66.4473 1.58234C68.5145 1.48483 70.5459 1.42482 72.5376 2.04363C72.88 2.15161 73.2351 2.21963 73.595 2.24614C74.0123 2.26118 74.4123 2.40739 74.7314 2.66154C75.0505 2.91569 75.2704 3.26318 75.3561 3.64876C75.6569 4.69498 75.8368 5.76881 75.8928 6.85153C76.0094 10.6894 76.069 14.5284 76.0717 18.3688C76.0717 22.6554 76.0001 26.9382 75.9445 31.2211C75.9166 33.1262 75.861 35.0314 75.8053 36.9366L75.6781 40.4319L77.0456 41.932L77.0854 39.5468C77.1689 35.8715 77.3438 32.2037 77.4233 28.5321C77.4869 25.5056 77.5227 22.4754 77.475 19.4526C77.4114 15.4735 77.2484 11.4982 77.1371 7.52284C77.1053 6.29648 77.1371 5.06638 76.6759 3.89253C76.0916 2.35865 75.1216 1.22606 73.2492 1.06479C72.9629 1.04229 72.6847 0.929782 72.4024 0.90728C70.8997 0.78352 69.3811 0.479744 67.8983 0.596004C64.6902 0.847275 61.49 0.798521 58.2819 0.809772C57.9599 0.809772 57.6379 0.742266 57.3159 0.723515C54.9942 0.581003 52.6607 0.352234 50.3113 0.322231C46.9242 0.280978 43.5531 0.378486 40.1502 0.419739C39.6811 0.419739 39.212 0.419739 38.7429 0.449742C34.5727 0.757268 30.3946 0.896029 26.2086 0.824773C25.2743 0.806022 24.3401 0.734766 23.4258 0.656009C22.0304 0.532249 20.643 0.235974 19.2397 0.280978C14.8748 0.340983 10.5217 0.54725 6.18459 0.712264C4.99198 0.753517 4.83694 0.821023 4.59444 1.94237C4.56542 2.24886 4.42056 2.53529 4.1863 2.7494C3.95204 2.96352 3.64399 3.09104 3.31835 3.10872C2.68899 3.23918 2.09059 3.47821 1.55328 3.81378C1.30856 3.99135 1.13566 4.24262 1.06333 4.52577C0.991009 4.80893 1.02362 5.10691 1.15574 5.37016C1.438 5.9327 1.95082 5.86895 2.46364 5.77894C2.86118 5.71144 3.22692 5.58017 3.61253 5.49767C3.8431 5.44516 4.08162 5.42641 4.31219 5.39641C4.49108 5.87645 4.31219 6.12022 3.91465 6.23273C3.63094 6.27918 3.35074 6.34307 3.07585 6.424C2.49521 6.62215 1.93825 6.87733 1.41414 7.18531C0.976853 7.47783 0.913247 8.2429 1.15972 8.68544C1.44595 9.18798 1.92697 9.13547 2.39209 9.06047C2.85721 8.98546 3.22692 8.8392 3.6483 8.75294C3.87204 8.72216 4.09804 8.70836 4.32412 8.71169C4.36387 8.77544 4.40363 8.84295 4.4394 8.91046C4.26449 9.07172 4.11342 9.28549 3.90273 9.37925C3.53699 9.51801 3.10765 9.52926 2.75782 9.67177C2.28806 9.83567 1.84407 10.059 1.438 10.3356C1.22745 10.5244 1.0859 10.7714 1.03374 11.041C0.981589 11.3106 1.02152 11.5889 1.14779 11.8357C1.44197 12.3682 1.94287 12.3495 2.45172 12.2107C3.0679 12.0495 3.68806 11.9107 4.38375 11.7419C4.4076 12.2145 4.38375 12.5558 3.8749 12.6645C3.51933 12.7178 3.16946 12.8006 2.82938 12.912C2.35812 13.0721 1.90951 13.2862 1.49365 13.5496C1.26037 13.7398 1.1009 13.9979 1.04043 14.2832C0.979959 14.5684 1.02193 14.8645 1.15972 15.1247C1.47775 15.6535 1.9548 15.6048 2.4875 15.4698C3.09175 15.3122 3.70396 15.1772 4.31617 15.031C4.46326 15.721 4.02597 15.8148 3.58867 15.901C2.7936 16.0548 2.02635 16.2123 1.4221 16.7524C1.22772 16.9507 1.09838 17.1979 1.0497 17.4641C1.00103 17.7304 1.0351 18.0042 1.14779 18.2525C1.41812 18.7588 1.89516 18.7288 2.36823 18.6275C2.8413 18.5263 3.19909 18.4138 3.62048 18.3238C3.84964 18.2891 4.0805 18.2653 4.31219 18.2525C4.45531 18.7438 4.25256 18.9801 3.8431 19.0813C3.59486 19.1201 3.34928 19.1726 3.10765 19.2388C2.53832 19.4406 1.99003 19.6917 1.4698 19.9889C1.24627 20.1689 1.09171 20.4133 1.02993 20.6844C0.968151 20.9555 1.00258 21.2382 1.12792 21.489C1.40222 22.0591 1.92299 22.0028 2.42786 21.9128C2.8254 21.8453 3.19114 21.7178 3.57675 21.6315C3.80732 21.5828 4.04187 21.564 4.26846 21.5303C4.4235 21.9053 4.31219 22.1341 3.97826 22.2316C3.64433 22.3291 3.33425 22.3441 3.0361 22.4566C2.49673 22.6343 1.97953 22.8669 1.49365 23.1504C1.25833 23.3384 1.09729 23.596 1.03667 23.8812C0.976052 24.1665 1.01942 24.4627 1.15972 24.7218C1.47775 25.2468 1.9548 25.1981 2.4875 25.0631C3.09573 24.9093 3.71191 24.7705 4.41555 24.6055C4.37977 24.8756 4.41555 25.0931 4.32412 25.1793C4.11758 25.3422 3.88203 25.4692 3.62843 25.5544C2.9199 25.7829 2.22689 26.0522 1.55328 26.3607C1.30187 26.5341 1.12284 26.7851 1.0473 27.0702C0.971767 27.3552 1.00451 27.6562 1.13984 27.9208C1.29886 28.2696 1.75205 28.5809 2.5352 28.3258C3.12356 28.1346 3.74769 28.0296 4.37182 27.8796C4.45531 28.4234 4.32809 28.7196 3.81925 28.8021C3.53331 28.8355 3.25288 28.9022 2.98442 29.0009C2.44871 29.1892 1.93567 29.4306 1.4539 29.721C1.2419 29.9088 1.09846 30.1551 1.04418 30.4247C0.989894 30.6942 1.02756 30.973 1.15177 31.2211C1.37042 31.6411 1.7123 31.7536 2.45569 31.5961C3.07983 31.4686 3.69601 31.3036 4.39568 31.1348C4.41953 31.5961 4.41555 31.9411 3.89478 32.0537C3.53791 32.1069 3.18671 32.1897 2.84528 32.3012C2.37437 32.462 1.92585 32.6761 1.50955 32.9387C1.27527 33.1274 1.11442 33.3844 1.05249 33.669C0.990563 33.9537 1.0311 34.2497 1.16767 34.5101C1.48173 35.0389 1.96275 34.9977 2.49147 34.8626C3.09573 34.7051 3.70794 34.5701 4.32412 34.4276C4.47916 35.1064 4.04584 35.2039 3.60458 35.2902C2.8095 35.4439 2.04623 35.6015 1.44197 36.1415C1.24428 36.3379 1.11184 36.5846 1.06097 36.8512C1.01011 37.1177 1.04306 37.3925 1.15574 37.6416C1.4221 38.1479 1.89914 38.1254 2.37221 38.0392C2.84528 37.9529 3.20704 37.8254 3.62843 37.7354C3.85502 37.6904 4.09355 37.6829 4.38375 37.6529C4.38375 37.8666 4.4076 38.0617 4.33604 38.1142C4.09063 38.291 3.82372 38.4396 3.54097 38.5567C2.8384 38.7941 2.15201 39.0722 1.4857 39.3893C1.00468 39.6518 0.913247 40.3906 1.13189 40.8669C1.35054 41.3432 1.66459 41.4182 2.42786 41.3019C2.71409 41.2569 2.98839 41.1744 3.26667 41.1107L4.10547 40.9269L4.15318 41.1407C3.74987 41.2237 3.35173 41.3276 2.96056 41.452C2.45402 41.6188 1.9708 41.8429 1.52148 42.1195C1.28477 42.3065 1.12185 42.5633 1.05909 42.8485C0.996325 43.1337 1.03738 43.4305 1.17562 43.6909C1.4857 44.2159 1.9707 44.1784 2.49545 44.0434C3.10765 43.8859 3.72384 43.7471 4.3758 43.5896C4.47916 44.1559 4.29232 44.3922 3.76757 44.5385C3.00825 44.7305 2.27367 45.0009 1.57713 45.3448C1.32426 45.5135 1.14257 45.7609 1.06404 46.0435C0.985505 46.3262 1.01516 46.6259 1.14779 46.8899C1.35849 47.3549 1.70832 47.4675 2.52725 47.2949C3.13548 47.1712 3.71986 47.0137 4.34797 46.8712C4.46326 47.5762 4.00211 47.6212 3.58867 47.7525C2.87165 47.9558 2.17785 48.2259 1.5175 48.5588C1.01661 48.8513 0.901321 49.6464 1.17165 50.1264C1.44197 50.6065 1.93889 50.5802 2.40401 50.5015C2.86913 50.4227 3.23487 50.2839 3.65626 50.1977C3.88188 50.1573 4.11049 50.1335 4.34002 50.1264C4.37746 50.2115 4.39364 50.3036 4.3873 50.3955C4.38096 50.4874 4.35226 50.5767 4.30344 50.6565C4.25463 50.7363 4.18699 50.8044 4.10578 50.8556C4.02457 50.9067 3.93197 50.9395 3.83515 50.9515C3.40907 51.0235 2.98919 51.125 2.57893 51.2553C2.14819 51.4169 1.74605 51.6395 1.38632 51.9153C1.20591 52.1071 1.08785 52.3438 1.04626 52.5972C1.00467 52.8506 1.0413 53.1099 1.15177 53.3442C1.41017 53.8505 1.88324 53.8467 2.34438 53.7567C2.80553 53.6667 3.24679 53.5205 3.70396 53.4342C3.91319 53.4241 4.12292 53.4393 4.32809 53.4792C4.03789 54.0343 3.53302 53.888 3.15933 54.053C2.56404 54.2755 1.98617 54.5374 1.43005 54.8368C0.980828 55.1181 0.901321 55.8944 1.15177 56.337C1.4539 56.8657 1.94684 56.8395 2.46364 56.712C3.07585 56.5507 3.69601 56.412 4.36785 56.2507C4.4235 56.7345 4.36785 57.0608 3.86298 57.1658C3.50829 57.2247 3.1588 57.3087 2.81745 57.417C2.38038 57.5639 1.96388 57.7603 1.57713 58.0021C1.32978 58.1768 1.15154 58.4246 1.07085 58.706C0.99015 58.9874 1.01164 59.2862 1.13189 59.5547C1.34259 60.0235 1.69242 60.1398 2.50737 59.971C3.11958 59.8435 3.71986 59.686 4.33604 59.5397C4.46723 60.2373 4.01404 60.2898 3.59265 60.4211C2.90598 60.61 2.24031 60.8611 1.60496 61.1711C1.34605 61.3323 1.15605 61.5748 1.06872 61.8556C0.981385 62.1365 1.00236 62.4374 1.12792 62.705C1.32669 63.1813 1.67652 63.3125 2.5034 63.1663C2.90093 63.095 3.26269 62.9563 3.6483 62.8738C3.90359 62.8352 4.16115 62.8114 4.41953 62.8025C4.36785 63.0575 4.38772 63.2863 4.28436 63.3613C4.05164 63.5069 3.79883 63.6218 3.53302 63.7026C2.85185 63.9152 2.18761 64.1734 1.54533 64.4751C1.29881 64.6497 1.12433 64.8997 1.05179 65.1823C0.979262 65.4649 1.0132 65.7625 1.14779 66.024C1.42607 66.5903 1.94287 66.5266 2.45569 66.4366C2.87708 66.3616 3.28257 66.2078 3.70396 66.1253C3.93922 66.1027 4.17631 66.1027 4.41158 66.1253C4.26449 66.8753 4.26051 66.8754 3.73179 67.0291C3.07469 67.1833 2.43242 67.389 1.81168 67.6442C1.48214 67.795 1.22865 68.0619 1.10594 68.3875C0.983221 68.7131 1.00111 69.0711 1.15574 69.3843C1.39029 69.8456 1.74013 69.9356 2.66639 69.7368C3.23884 69.6131 3.80334 69.4668 4.41555 69.3205C4.43543 69.8718 4.32412 70.1794 3.80732 70.2506C3.44959 70.2975 3.09877 70.383 2.7618 70.5057C2.32056 70.6622 1.9024 70.8714 1.5175 71.1282C1.28238 71.3162 1.12007 71.5725 1.05603 71.8569C0.991997 72.1413 1.02987 72.4377 1.1637 72.6996C1.4698 73.2284 1.95877 73.1946 2.47954 73.0746C3.08778 72.9209 3.69998 72.7858 4.35195 72.6321C4.21281 73.3559 4.20088 73.3221 3.62048 73.5097C2.90198 73.7079 2.20565 73.9716 1.54136 74.2972C1.29264 74.471 1.11657 74.7217 1.0439 75.0055C0.971238 75.2893 1.0066 75.5882 1.14382 75.8499C1.43402 76.4124 1.95877 76.3186 2.45967 76.2474C2.71012 76.2136 2.94864 76.1349 3.19511 76.0786L4.38772 75.8048C4.38772 76.0786 4.41953 76.2699 4.34797 76.3261C4.10359 76.5054 3.83651 76.6553 3.5529 76.7724C2.84978 77.0102 2.16216 77.287 1.49365 77.6012C1.00866 77.8638 0.913247 78.5913 1.12792 79.0751C1.34259 79.5589 1.65267 79.6339 2.41594 79.5214C2.62927 79.485 2.8403 79.4374 3.04802 79.3789L4.24064 79.0901C4.4394 79.5064 4.32412 79.7277 3.99814 79.8402C3.67216 79.9527 3.28257 79.9677 2.95261 80.0915C2.44597 80.2593 1.9617 80.482 1.50955 80.7553C1.27243 80.941 1.10856 81.1968 1.04437 81.4812C0.980177 81.7656 1.01941 82.0621 1.15574 82.3229C1.46185 82.8554 1.95082 82.8217 2.47159 82.6979C3.0838 82.5404 3.70396 82.4017 4.36785 82.2404C4.44736 82.7917 4.29232 83.043 3.75962 83.1892C2.9995 83.379 2.26465 83.6495 1.56918 83.9955C1.33057 84.1603 1.15793 84.3962 1.07928 84.6651C1.00062 84.934 1.02057 85.2201 1.13587 85.4769C1.34656 85.9457 1.69242 86.062 2.51135 85.8895C3.11958 85.7657 3.72384 85.6082 4.34002 85.4619C4.46326 86.1595 4.01006 86.212 3.5847 86.3432C2.89818 86.5326 2.23255 86.7837 1.59701 87.0933C1.33847 87.2557 1.14917 87.4991 1.06259 87.7805C0.976009 88.062 0.997742 88.3632 1.12394 88.6309C1.32669 89.1035 1.67652 89.2347 2.5034 89.0847C2.90093 89.0135 3.26269 88.8747 3.6483 88.7922C3.9037 88.755 4.16124 88.7325 4.41953 88.7247C4.36387 88.9797 4.38375 89.2122 4.28039 89.2872C4.04482 89.4295 3.79101 89.543 3.52507 89.6248C2.8439 89.8374 2.17965 90.0956 1.53738 90.3973C1.29054 90.5725 1.11592 90.8231 1.0434 91.1064C0.970879 91.3896 1.00497 91.6878 1.13984 91.95C1.42607 92.5125 1.93492 92.4488 2.45172 92.3587C2.96852 92.2687 3.42568 92.1337 4.04187 91.9837C4.10926 92.1658 4.16111 92.3526 4.19691 92.5425C4.24859 93.6939 4.38772 94.0614 6.09714 94.2489C6.45641 94.2601 6.81606 94.2526 7.17446 94.2264C7.71114 94.2264 8.24781 94.2527 8.78846 94.2789C9.64357 94.3853 10.5064 94.4267 11.3685 94.4027C14.7476 94.0501 18.1266 94.0951 21.5216 94.0951H22.0622C26.2761 93.9976 30.494 93.8701 34.7119 93.8101C36.302 93.7876 37.8922 94.0764 39.4585 93.9564C42.1538 93.7539 44.8491 93.6526 47.5523 93.7014C48.7768 93.7239 50.0012 93.6639 51.2256 93.7014C53.098 93.7426 54.9704 93.8251 56.8388 93.8851C57.4868 93.9076 58.1388 93.9114 58.7828 93.9414C60.5836 94.0276 62.3805 94.1251 64.1774 94.2151C64.9327 94.2527 65.688 94.2864 66.4433 94.3052C68.1368 94.3502 69.8303 94.4214 71.5239 94.3989C72.6767 94.3989 73.8693 94.2752 74.7757 93.4951L74.8632 91.4587L73.8614 91.4362ZM3.33028 4.7476L2.0184 5.14514C1.70435 4.62759 1.83553 4.32382 2.16947 4.21881C4.07765 3.62251 5.99775 3.05621 8.02917 3.71627C8.057 3.71627 8.0729 3.76877 8.13253 3.85878C8.03337 4.04877 7.86302 4.19729 7.65445 4.27558C7.44587 4.35387 7.21393 4.35636 7.00352 4.28257C5.71948 3.99754 4.52289 4.37257 3.33028 4.7476ZM3.18319 8.07789C2.78565 8.20915 2.38811 8.28415 2.0184 8.37791C1.71627 7.95788 1.80771 7.6991 2.12176 7.50784C2.30231 7.3957 2.50104 7.31209 2.71012 7.26032C4.30027 6.91529 5.84669 6.51025 7.48057 6.79528C7.65366 6.83032 7.82178 6.88445 7.98146 6.95654C8.03712 6.97904 8.06892 7.0578 8.14048 7.14781C8.03588 7.32239 7.87153 7.45829 7.67436 7.53323C7.47719 7.60818 7.25888 7.61774 7.0552 7.56034C5.69562 7.27907 4.43543 7.6391 3.18319 8.07414V8.07789ZM3.29847 11.1981C2.87311 11.3332 2.43184 11.4307 2.00648 11.5469C1.6964 11.0669 1.81168 10.7481 2.20922 10.6244C4.01801 10.0093 5.86656 9.64927 7.7986 10.0243C7.92183 10.0468 8.02519 10.1593 8.19613 10.2568C8.1041 10.453 7.9397 10.6109 7.7335 10.7013C7.52729 10.7916 7.29332 10.8083 7.07508 10.7481C5.75128 10.4181 4.52686 10.8006 3.29847 11.1944V11.1981ZM3.29847 14.4647C2.87311 14.6034 2.43184 14.6972 1.9707 14.8397C1.70435 14.2284 1.9707 13.9771 2.31655 13.8571C3.96908 13.2743 5.7395 13.05 7.49647 13.2008C7.63644 13.2231 7.77107 13.2689 7.894 13.3358C7.98784 13.3998 8.07325 13.4741 8.14843 13.5571C8.05182 13.7411 7.89011 13.8876 7.69124 13.9711C7.49236 14.0547 7.2688 14.0701 7.05918 14.0146C5.74333 13.6809 4.51891 14.0634 3.29052 14.4609L3.29847 14.4647ZM3.26667 17.6412C2.86913 17.7687 2.47159 17.8775 2.10983 17.9787C1.7123 17.6449 1.7918 17.3862 2.05815 17.1462C2.13978 17.0777 2.23603 17.0265 2.34041 16.9961C4.02597 16.4973 5.7314 16.1186 7.50839 16.3998C7.75345 16.4682 7.9895 16.5626 8.21204 16.6811C8.09724 16.8738 7.91765 17.0248 7.70166 17.1104C7.48567 17.196 7.24561 17.2112 7.01942 17.1537C5.71152 16.8761 4.48313 17.2362 3.25872 17.6374L3.26667 17.6412ZM3.32232 20.874C2.89298 21.009 2.45569 21.1365 2.07008 21.249C1.70037 20.874 1.7918 20.6152 2.07008 20.3864C2.15365 20.3223 2.24946 20.274 2.35233 20.2439C4.04187 19.7639 5.7473 19.3701 7.52032 19.6664C7.76087 19.7338 7.99493 19.8204 8.21999 19.9251C8.09568 20.1218 7.90751 20.2754 7.68338 20.3632C7.45925 20.451 7.21109 20.4684 6.97569 20.4127C5.71152 20.1239 4.51891 20.4989 3.32232 20.874ZM3.37798 24.0242L2.0343 24.3993C1.69242 23.9567 1.79976 23.6492 2.13766 23.5254C4.00211 22.8654 5.91427 22.4641 7.91388 22.9291C8.02548 22.9646 8.13439 23.0072 8.23986 23.0567C7.87015 23.5367 7.53225 23.7317 7.04725 23.6004C5.78706 23.2554 4.59444 23.6905 3.37798 24.0242ZM3.37798 27.2908L2.03033 27.6658C1.69242 27.2495 1.81168 26.9195 2.13369 26.7995C3.99814 26.1244 5.91029 25.7494 7.90991 26.1994C8.01603 26.2412 8.11619 26.2954 8.20806 26.3607C7.87413 26.807 7.53225 27.002 7.05918 26.8707C5.78706 26.5257 4.59444 26.957 3.40183 27.2908H3.37798ZM3.21896 30.6248C2.82143 30.7523 2.42389 30.8386 1.99852 30.9473C1.7123 30.4973 1.7918 30.1748 2.18934 30.036C4.02994 29.4097 5.91029 29.0234 7.87413 29.4622C7.96556 29.4809 8.03314 29.5785 8.37105 29.8372C7.7986 29.9797 7.41298 30.2123 7.10291 30.1297C5.72743 29.8222 4.47916 30.2123 3.21896 30.6248ZM3.29052 33.8651C2.86516 34.0001 2.42786 34.0976 1.96275 34.2213C1.69242 33.6063 1.96275 33.355 2.3086 33.2388C3.9639 32.6563 5.738 32.437 7.49647 32.5975C7.63698 32.6178 7.77197 32.6637 7.894 32.7325C7.98877 32.7953 8.07432 32.8697 8.14843 32.9537C8.05177 33.1376 7.88986 33.2837 7.69085 33.3666C7.49184 33.4495 7.26833 33.464 7.05918 33.4075C5.74333 33.0775 4.51891 33.46 3.29052 33.8576V33.8651ZM3.29052 37.0191C2.86118 37.1541 2.42786 37.2704 1.97865 37.3941C1.70037 36.8578 1.84746 36.5653 2.18139 36.4603C4.06174 35.8715 5.958 35.3727 7.95364 35.9315C8.01327 35.9315 8.04904 36.029 8.12855 36.119C8.02055 36.3057 7.84568 36.4501 7.63521 36.5263C7.42474 36.6026 7.19239 36.6058 6.97967 36.5353C5.69165 36.2728 4.49904 36.644 3.30245 37.0003L3.29052 37.0191ZM2.00648 40.6269C1.68845 40.2143 1.80373 39.9593 2.11381 39.7681C2.29113 39.6537 2.48921 39.5711 2.69819 39.5243C4.26449 39.1755 5.82681 38.7742 7.46864 39.0555C7.75338 39.1351 8.03116 39.2354 8.29949 39.3555C7.14266 40.2969 6.08918 39.4418 4.9562 39.5655C4.06303 40.1015 3.06341 40.4601 2.0184 40.6194L2.00648 40.6269ZM3.33425 43.0308C2.90093 43.1621 2.46364 43.2859 2.07406 43.4059C1.67652 43.0308 1.76398 42.7871 2.07406 42.562C2.18667 42.4773 2.31462 42.4125 2.45172 42.3708C4.02134 41.8701 5.68046 41.6675 7.33348 41.7745C7.6566 41.8471 7.97197 41.9475 8.27564 42.0745C7.83835 42.5358 7.50839 42.7308 7.01942 42.6033C5.7314 42.2508 4.54276 42.6708 3.34618 43.0233L3.33425 43.0308ZM3.36605 46.2861L2.0184 46.6611C1.68049 46.2149 1.7918 45.9111 2.12574 45.7873C3.99416 45.1235 5.90234 44.726 7.90593 45.1948C8.01277 45.2329 8.11424 45.2833 8.20806 45.3448C7.85823 45.7948 7.52032 45.9898 7.04327 45.8623C5.7632 45.5098 4.59444 45.9373 3.37798 46.2786L3.36605 46.2861ZM3.23884 49.4964C2.8413 49.6276 2.44377 49.7289 2.00648 49.8527C1.66857 49.3051 1.85541 49.0163 2.23307 48.8926C4.01404 48.3188 5.81091 47.925 7.71909 48.2925C7.86618 48.3188 7.99339 48.4538 8.18818 48.5738C8.0637 48.7558 7.88101 48.8958 7.66659 48.9733C7.45217 49.0508 7.21714 49.062 6.99557 49.0051C5.6996 48.7201 4.47518 49.0876 3.25077 49.4889L3.23884 49.4964ZM3.18716 52.7817C2.80815 52.9101 2.42032 53.0141 2.02635 53.0929C1.68447 52.6879 1.79976 52.4329 2.09791 52.2266C2.21741 52.1438 2.35222 52.0828 2.49545 52.0466C4.1333 51.6303 5.77513 51.2253 7.49249 51.514C7.73974 51.5835 7.97936 51.6752 8.20806 51.7878C8.10411 51.983 7.93146 52.138 7.71968 52.2262C7.50791 52.3145 7.27019 52.3305 7.04725 52.2716C5.67972 51.9116 4.43543 52.2716 3.19909 52.7742L3.18716 52.7817ZM3.34618 55.6844L2.08598 56.0594C1.68845 55.7069 1.76398 55.4481 2.05418 55.2194C2.16473 55.1329 2.29148 55.0667 2.42786 55.0243C3.99729 54.5227 5.65635 54.3188 7.30962 54.4243C7.6347 54.4913 7.95172 54.5893 8.25576 54.7168C7.85823 55.1856 7.50442 55.3844 7.01942 55.2531C5.74333 54.9043 4.55469 55.3319 3.3581 55.6769L3.34618 55.6844ZM3.34618 58.9509L2.01443 59.3485C1.65664 58.7897 1.86734 58.5046 2.23307 58.3846C3.94492 57.7493 5.7989 57.5313 7.62368 57.7508C7.80655 57.7771 7.96954 57.9383 8.18421 58.0583C7.84233 58.4521 7.50442 58.6509 7.01942 58.5196C5.74333 58.1709 4.55469 58.5909 3.3581 58.9434L3.34618 58.9509ZM3.23487 62.1537C2.83733 62.285 2.43979 62.3862 2.00648 62.51C1.66857 61.9624 1.85541 61.6737 2.23705 61.5499C4.01404 60.9761 5.81488 60.5861 7.71909 60.9498C7.87015 60.9798 7.99737 61.1149 8.18818 61.2349C8.06314 61.4162 7.88022 61.5554 7.66584 61.6323C7.45146 61.7091 7.21673 61.7197 6.99557 61.6624C5.6996 61.3774 4.47121 61.7524 3.24679 62.1462L3.23487 62.1537ZM3.16331 65.4502C2.76577 65.5852 2.36823 65.6565 2.01045 65.7465C1.68845 65.3227 1.80771 65.0639 2.11779 64.8764C2.29739 64.7635 2.49649 64.681 2.70614 64.6327C4.29629 64.2876 5.84271 63.8826 7.47659 64.1714C7.72187 64.2411 7.96003 64.3315 8.18818 64.4414C8.08523 64.6359 7.91435 64.7909 7.70435 64.8804C7.49435 64.9699 7.25807 64.9884 7.03532 64.9327C5.69165 64.6439 4.43145 65.0114 3.17524 65.4427L3.16331 65.4502ZM3.35015 68.7467L2.0025 69.1218C1.65664 68.5967 1.86336 68.308 2.2291 68.1842C3.94137 67.5505 5.79493 67.3326 7.6197 67.5504C7.82426 67.6218 8.01498 67.7244 8.18421 67.8542C7.8463 68.2555 7.50839 68.4505 7.02737 68.323C5.75128 67.9667 4.56264 68.4017 3.36208 68.7393L3.35015 68.7467ZM3.35015 72.0133L2.0025 72.3883C1.64869 71.867 1.85144 71.5745 2.22115 71.4545C4.00211 70.8732 5.79898 70.5094 7.71114 70.8469C7.86618 70.8732 7.99736 71.0119 8.17626 71.1207C7.8463 71.522 7.50839 71.717 7.02737 71.5895C5.75525 71.2332 4.56662 71.6608 3.36605 72.0058L3.35015 72.0133ZM3.19511 75.2536C2.79757 75.3886 2.40004 75.4673 1.96672 75.5798C1.70435 74.9835 1.91902 74.721 2.30065 74.6048C4.04982 74.0647 5.82284 73.6747 7.68331 74.0159C7.85827 74.0764 8.02402 74.1584 8.17626 74.2597C8.08529 74.452 7.92379 74.6068 7.72147 74.6957C7.51915 74.7846 7.28961 74.8016 7.07508 74.7435C5.71152 74.4472 4.45133 74.8073 3.19511 75.2536ZM3.33425 78.4638L2.01443 78.8614C1.68447 78.2913 1.87926 78.0063 2.25692 77.89C4.07367 77.32 5.91427 76.8962 7.8463 77.3275C7.93773 77.3462 8.01327 77.44 8.14843 77.5375C8.05845 77.7379 7.8902 77.898 7.67854 77.9845C7.46688 78.0711 7.22803 78.0776 7.01147 78.0025C5.72345 77.7175 4.53084 78.07 3.33425 78.4451V78.4638ZM3.29847 81.6291C2.87311 81.7641 2.43184 81.8616 2.00648 81.9779C1.6964 81.5016 1.81963 81.1903 2.20922 81.059C4.01801 80.444 5.86656 80.084 7.7986 80.459C7.92183 80.4815 8.02519 80.594 8.19613 80.6915C8.10458 80.8836 7.9434 81.0386 7.74156 81.1287C7.53971 81.2187 7.31045 81.2379 7.09495 81.1828C5.75128 80.8528 4.52686 81.2541 3.29847 81.6291ZM3.36605 84.8694L2.01443 85.2444C1.66459 84.7194 1.87131 84.4306 2.23705 84.3068C3.95045 83.6721 5.80521 83.4529 7.63163 83.6693C7.83619 83.7406 8.02691 83.8432 8.19613 83.973C7.85823 84.3743 7.52429 84.5731 7.0393 84.4418C5.75128 84.0968 4.56264 84.5243 3.36605 84.8694ZM3.18319 88.1021C2.78565 88.2371 2.38811 88.3122 1.99057 88.4134L1.75205 88.1396C1.91107 87.9184 2.0184 87.5658 2.2291 87.4946C4.06969 86.8983 5.9421 86.452 7.90991 86.9208C8.01771 86.9626 8.11822 87.0195 8.20806 87.0896C8.10859 87.2845 7.94043 87.4408 7.73234 87.5318C7.52424 87.6228 7.28911 87.6428 7.06713 87.5883C5.69562 87.3108 4.43543 87.6708 3.18319 88.1021ZM3.25474 91.3387C2.85721 91.4699 2.45967 91.5749 2.09791 91.6762C1.70037 91.3349 1.78783 91.0799 2.05418 90.8399C2.1355 90.7718 2.23195 90.7219 2.33643 90.6936C4.02199 90.1948 5.72743 89.816 7.50442 90.0973C7.74926 90.1679 7.9852 90.2635 8.20806 90.3823C8.08971 90.5716 7.90952 90.7196 7.69451 90.8041C7.4795 90.8886 7.24124 90.9051 7.01545 90.8511C5.70755 90.5736 4.47916 90.9374 3.25474 91.3387Z" fill="#543018" stroke="#543018" stroke-width="0.4"/>
<path d="M27.2546 21.4322C27.2403 21.3648 27.2501 21.2949 27.2824 21.2334C27.3383 21.1585 27.4155 21.1 27.505 21.0646C27.6112 21.0071 27.723 20.9594 27.8389 20.9221C27.9004 20.906 27.9557 20.8734 27.998 20.8283C27.998 20.5883 28.0814 20.4533 28.2683 20.4271C28.3528 20.4287 28.4353 20.452 28.5068 20.4946C28.5791 20.5391 28.663 20.5637 28.7493 20.5658L28.9401 20.5246C29.0554 20.5021 29.1906 20.4683 29.3377 20.4233L29.8744 20.2808L30.4707 20.1233C30.574 20.1008 30.6973 20.0708 30.8404 20.0295L31.2379 19.9132L31.5957 19.8195L31.8104 19.7707C31.8668 19.76 31.9249 19.76 31.9813 19.7707C32.0458 19.7837 32.1075 19.8065 32.1642 19.8382C32.2198 19.8668 32.273 19.8994 32.3232 19.9357C32.3662 19.966 32.3959 20.01 32.4067 20.0595C32.4174 20.1077 32.4075 20.1579 32.3792 20.1993C32.351 20.2408 32.3066 20.27 32.2556 20.2808C32.2473 20.3493 32.2473 20.4185 32.2556 20.4871C32.2556 20.5846 32.2556 20.7046 32.2556 20.8621C32.3007 21.6622 32.359 22.4235 32.4305 23.1461C32.5021 23.8687 32.5949 24.5663 32.7088 25.2388C32.8917 26.334 33.1302 27.0315 33.4284 27.3241C33.3367 27.4186 33.2201 27.4885 33.0905 27.5266C32.7406 27.5766 32.4862 27.3403 32.3272 26.8178C32.1894 26.3877 32.09 26.0389 32.029 25.7714C31.9694 25.5089 31.9177 25.2576 31.878 25.0213C31.7587 24.3062 31.6461 23.5762 31.5401 22.8311C31.4327 22.081 31.3413 21.3309 31.2578 20.5996C31.2578 20.5396 31.226 20.5058 31.1902 20.4983C31.1415 20.491 31.0919 20.491 31.0431 20.4983C30.8205 20.5546 30.578 20.6221 30.3196 20.7008C30.0612 20.7796 29.8147 20.8546 29.5881 20.9371C29.3955 21.0017 29.207 21.0768 29.0236 21.1621C28.8725 21.2296 28.801 21.2859 28.8089 21.3347L28.8964 21.8597C29.0819 22.9973 29.1999 23.9624 29.2502 24.755C29.3197 25.4099 29.3171 26.0697 29.2423 26.724C29.1988 27.1406 29.0398 27.539 28.7811 27.8791C28.5619 28.1343 28.2476 28.3007 27.9025 28.3442C27.7539 28.365 27.6036 28.3738 27.4533 28.3704C27.289 28.3669 27.126 28.343 26.9683 28.2992C26.8039 28.2559 26.6481 28.1875 26.5072 28.0967C26.3473 28.0004 26.2117 27.8724 26.1096 27.7216C25.9985 27.5742 25.92 27.4071 25.8791 27.2303C25.8551 27.1314 25.8692 27.0278 25.9188 26.9378C25.9366 26.9038 25.9629 26.8744 25.9955 26.8521C26.028 26.8299 26.0659 26.8155 26.1057 26.8103C26.1737 26.8049 26.2422 26.814 26.3062 26.8367C26.3701 26.8594 26.4279 26.8952 26.4754 26.9415C26.6341 27.081 26.7496 27.2586 26.8093 27.4553C26.8361 27.5381 26.8905 27.6104 26.9643 27.6616C27.0339 27.7109 27.1139 27.7454 27.1989 27.7629C27.285 27.7813 27.373 27.7901 27.4613 27.7891C27.5478 27.7859 27.634 27.7784 27.7197 27.7666C28.6287 27.6316 28.8712 26.2965 28.4472 23.7612L28.0854 21.5784C27.9878 21.6069 27.8963 21.6513 27.8151 21.7097C27.7655 21.7545 27.7057 21.7879 27.6402 21.8072C27.5912 21.814 27.5411 21.8073 27.496 21.7881C27.4509 21.7688 27.4126 21.7377 27.3857 21.6984C27.319 21.6215 27.2739 21.5299 27.2546 21.4322Z" fill="#543018" stroke="#543018" stroke-width="0.4"/>
<path d="M41.3792 22.2459C41.5683 23.2233 41.4651 24.2311 41.0811 25.1563C40.9129 25.6169 40.6137 26.025 40.2161 26.3359C39.8186 26.6468 39.338 26.8485 38.827 26.9189C38.5058 26.9512 38.1812 26.9361 37.865 26.8739C36.4471 26.6689 35.5818 25.6263 35.2691 23.7461C35.0819 22.7149 35.1805 21.6555 35.5553 20.6708C35.9966 19.5457 36.7479 18.8818 37.8292 18.7206C38.7674 18.5856 39.5824 18.9268 40.2741 19.7557C40.8688 20.4793 41.2501 21.3384 41.3792 22.2459ZM40.6835 22.2459C40.4053 20.5558 39.6393 19.6082 38.3858 19.4031C38.2701 19.3835 38.1516 19.3835 38.0359 19.4031C37.4591 19.5158 36.9523 19.8377 36.6247 20.2995C35.9012 21.1821 35.6706 22.4147 35.933 23.9974C35.9811 24.2268 36.0516 24.4515 36.1436 24.6687C36.3105 25.1938 36.6284 25.6651 37.062 26.0301C37.2983 26.1886 37.5671 26.2989 37.8512 26.3538C38.1353 26.4087 38.4284 26.407 38.7117 26.3489C39.1535 26.2891 39.5658 26.105 39.8949 25.8206C40.224 25.5362 40.4545 25.1649 40.5563 24.755C40.8056 23.9381 40.8491 23.0777 40.6835 22.2422V22.2459Z" fill="#543018" stroke="#543018" stroke-width="0.4"/>
<path d="M44.3478 18.9536C44.3478 19.1211 44.3637 19.3273 44.3955 19.5724C44.3955 19.8161 44.4393 20.0899 44.4671 20.3899C44.4949 20.6899 44.5307 21.0087 44.5704 21.3462C44.6102 21.6837 44.6619 22.0325 44.7215 22.3888C44.8593 23.2438 44.9919 23.9314 45.1191 24.4514C45.1883 24.8426 45.3575 25.212 45.612 25.5277C45.5204 25.6222 45.4038 25.6921 45.2741 25.7302C44.9084 25.7827 44.6539 25.5465 44.5108 25.0214C44.4035 24.6164 44.3001 24.2001 44.2127 23.7801C44.1252 23.3601 44.0377 22.9213 43.9622 22.4638C43.8708 21.9162 43.7952 21.3725 43.7277 20.8287C43.6601 20.2849 43.6084 19.7524 43.5607 19.2198C43.5452 19.1419 43.5226 19.0653 43.4931 18.9911C43.4655 18.9281 43.4442 18.8628 43.4295 18.7961C43.403 18.6261 43.5183 18.5011 43.7754 18.421L44.1133 18.316C44.2802 18.2598 44.475 18.1885 44.6937 18.106L45.3934 17.8435C45.6438 17.7535 45.8863 17.6673 46.1169 17.5923L46.741 17.386C46.8801 17.3407 47.0222 17.3044 47.1664 17.2772C47.2418 17.2712 47.3176 17.2712 47.393 17.2772C47.4765 17.2766 47.5596 17.2879 47.6395 17.311C47.7132 17.3282 47.7832 17.3574 47.8462 17.3972C47.8739 17.4133 47.8977 17.4346 47.9162 17.4597C47.9346 17.4849 47.9474 17.5134 47.9536 17.5435C47.961 17.5821 47.954 17.6219 47.9336 17.6561C47.9133 17.6903 47.881 17.7168 47.8422 17.731C47.7144 17.7845 47.5812 17.8259 47.4447 17.8548L46.741 18.0123C46.4159 18.086 46.0959 18.1787 45.783 18.2898C45.2624 18.4185 44.7744 18.6442 44.3478 18.9536Z" fill="#543018" stroke="#543018" stroke-width="0.4"/>
<path d="M56.8033 19.9693C56.9895 20.9471 56.8849 21.9544 56.5012 22.8796C56.333 23.3402 56.0338 23.7483 55.6362 24.0591C55.2387 24.37 54.7581 24.5718 54.2471 24.6422C53.9266 24.6782 53.602 24.6668 53.2851 24.6085C51.8699 24.4009 51.0059 23.3584 50.6931 21.4807C50.5033 20.4508 50.602 19.392 50.9794 18.4092C51.4167 17.2841 52.172 16.6165 53.2493 16.459C54.1875 16.3203 55.0025 16.6615 55.6942 17.4904C56.2859 18.2118 56.6681 19.0661 56.8033 19.9693ZM56.1076 19.9693C55.8241 18.2767 55.0555 17.3291 53.8019 17.1266C53.6862 17.1071 53.5678 17.1071 53.4521 17.1266C52.873 17.2388 52.3643 17.5623 52.0368 18.0267C51.316 18.9117 51.088 20.1493 51.3531 21.7395C51.4026 21.9686 51.4731 22.1932 51.5638 22.4108C51.7336 22.9346 52.051 23.4051 52.4821 23.7721C52.7191 23.9308 52.9886 24.0411 53.2733 24.0959C53.5581 24.1508 53.8518 24.1491 54.1358 24.0909C54.5771 24.0309 54.9888 23.8467 55.3172 23.5623C55.6456 23.2779 55.8754 22.9066 55.9764 22.497C56.2322 21.6762 56.2772 20.8098 56.1076 19.9693Z" fill="#543018" stroke="#543018" stroke-width="0.4"/>
</svg>
