<svg width="128" height="146" fill="none" xmlns="http://www.w3.org/2000/svg"><path d="M109.874 145.009c-.577-1.17-1.336-2.25-2.008-3.394-.747-1.264-1.487-2.532-2.238-3.796-.656-1.125-1.332-2.216-1.988-3.337a3.234 3.234 0 01-.437-1.099c-.306-2.108-1.316-3.998-2.23-5.877-1.157-2.389-2.692-4.617-4.031-6.93-.481-.826-.851-1.703-1.304-2.539-.72-1.324-1.61-2.588-2.175-3.968a19.343 19.343 0 00-2.596-4.501c-1.753-2.269-3.725-4.369-6.325-5.854-1.63-.934-2.874-2.28-4.094-3.626-1.22-1.347-2.361-2.626-3.47-3.983-.748-.923-1.368-1.943-2.048-2.914a1.465 1.465 0 00-.282-.375c-1.547-1.126-2.783-2.648-4.596-3.466a3.801 3.801 0 01-.922-.435c-1.224-1.02-2.759-1.432-4.198-2.055a22.89 22.89 0 00-4.532-1.444c-1.316-.273-2.564-.874-3.804-1.406-2.692-1.159-5.363-2.352-7.748-4.05-1.237-.885-1.948-2.116-2.823-3.248-.366-.48-.743-.95-1.03-1.317-1.192.518-2.31 1.02-3.438 1.474-1.714.687-3.14.049-4.556-.919-.735.41-1.515.89-2.341 1.29-1.694.818-3.451 0-3.932-1.702a3.435 3.435 0 01.35-2.66c.509-.974.966-1.975 1.479-3.033-.362.165-.637.319-.93.42a2.306 2.306 0 01-2.183-.244c-.52-.349-1.165-.551-1.642-.945-1.193-.979-1.157-2.231-.712-3.525.1-.289.239-.567.358-.844l-2.651-2.899c-1.547.529-3.352.499-5.168.517a.972.972 0 00-.322.068c-.748.27-1.48.593-2.242.795-.223.06-.545-.217-.82-.341l.024-.131c.398-.353.772-.717 1.193-1.054.278-.237.632-.398.879-.653a10.565 10.565 0 013.705-2.52c.986-.405 1.936-.881 2.906-1.328h-.283c-1.077.05-1.88-.337-2.107-1.076a2.666 2.666 0 01.267-2.209c1.061-1.909 2.015-3.863 3.03-5.79.62-1.185.993-2.536 2.384-3.226.461-.203.911-.428 1.348-.675a37.766 37.766 0 007.203-5.685c1.44-1.5 3.157-2.423 5.272-2.363 2.385.071 4.77.375 7.155.593 1.368.112 2.731.232 4.103.288 1.618.068 3.24.117 4.862.098 1.47 0 2.942-.131 4.412-.203l.14.023c.795.262 1.59.562 2.409.78.836.224 1.56.721 2.043 1.402.127-.056.246-.157.354-.15.747.057 1.499.11 2.242.214 1.192.165 2.385.413 3.578.552.896.094 1.77.328 2.584.693.567.259 1.06.643 1.435 1.12.375.478.622 1.035.72 1.622.516 2.25 1.132 4.5 2.261 6.567a40.038 40.038 0 012.962 6.75c.879 2.7 1.869 5.367 2.866 8.03.64 1.714 1.32 3.42 2.1 5.081.313.675.922 1.234 1.434 1.816.513.58.974 1.046 1.487 1.545.398.375.827.75 1.245 1.125.445.344.86.72 1.244 1.125 1.371 1.68 2.624 3.458 4.07 5.078 2.267 2.531 4.568 5.04 7.017 7.41 1.646 1.59 3.614 2.88 5.367 4.377 2.119 1.812 4.138 3.72 6.249 5.543 1.109.96 2.354 1.785 3.471 2.742 2.385 2.047 4.714 4.17 7.123 6.206l-17.125 38.445zM56.536 48.344a2.5 2.5 0 01.457-.258c1.618-.56 3.228-1.125 4.866-1.647.648-.199 1.117-.397 1.328-1.125.17-.585.636-1.091 1.061-1.781-1.137.622-2.07 1.279-3.117 1.672-1.498.56-3.076.927-4.623 1.38-2.007.59-4.039 1.126-6.015 1.786-2.206.75-4.373 1.62-6.543 2.445-.533.199-1.053.431-1.59.649a.769.769 0 00-.274-.027c-2.16.48-4.071 1.5-6.095 2.536l3.105 1.71c.771-.297 1.4-.544 2.035-.773a156.2 156.2 0 012.537-.896c.6-.21 1.192-.435 1.813-.596.62-.162 1.36-.244 2.023-.413.664-.169 1.519-.195 1.535-1.196l.218.607c1.268-.431 2.485-.949 3.76-1.252 1.193-.29 2.29-.83 3.471-1.16 1.288-.356 2.509-.918 3.773-1.353 1.264-.435 2.492-.81 3.812-1.234l-1.323-.668.266-.27a1.193 1.193 0 00-.724 0c-1.192.376-2.385.75-3.578 1.167-.663.229-1.307.51-1.963.75l-.215-.053zm-19.59 1.5c.85-.408 1.685-.855 2.556-1.222a3.399 3.399 0 001.844-1.71c.105-.292.127-.605.064-.908-.068-.484-.207-.96-.314-1.436l.167-.064c.695 1.125 1.395 2.25 2.898 2.434 1.308.165 2.627.232 4.098.375-.795-1.388-.203-2.378.426-3.375.125.233.199.488.218.75.076.791-.218 1.597.334 2.37.33.461.593.57 1.13.375 1.748-.585 3.517-1.125 5.27-1.691 2.012-.66 4.02-1.34 6.023-2.018.915-.308 1.81-.675 2.74-.938 1.403-.375 2.83-.724 4.332-1.102-.25-.195-.477-.341-.667-.518-.597-.547-1.165-1.125-1.777-1.654a5.157 5.157 0 00-1.344-.952 4.836 4.836 0 00-1.721-.297c-2.386 0-4.81.09-7.216.068a53.56 53.56 0 01-5.203-.27c-1.388-.15-2.736-.585-4.123-.75a38.716 38.716 0 00-4.794-.353 3.864 3.864 0 00-2.071.642c-1.046.712-1.94 1.62-2.914 2.434a31.402 31.402 0 01-6.385 4.241 5.522 5.522 0 00-1.856 1.403c-.49.607-.728 1.403-1.03 2.138a19.409 19.409 0 01-3.884 6.161c-.525.544-.433 1.125-.254 1.782.199.75.874.547 1.328.75.373.169.628-.124.87-.435.823-1.043 1.745-1.91 3.296-1.958a3.714 3.714 0 001.928-.656c.27-.188.179-.86.226-1.317.048-.457.056-.877.076-1.316.028-.544.048-1.091.071-1.635a7.635 7.635 0 01.16 4.242l1.236.067-.16-.154 1.678-1.942c-1.395-.98-2.361-3.034-1.987-4.302.528.9 1.002 1.811 1.59 2.659.366.529.85 1.054 1.658.525.091-.064.254-.03.44-.049-1.1-.922-1.339-2.141-1.55-3.375.398.776.684 1.583 1.062 2.359.43.87.767.975 1.59.6l-.06.022zm88.308 57.309a480.627 480.627 0 01-9.143-7.853c-2.02-1.766-3.975-3.608-5.983-5.382-1.407-1.241-2.83-2.475-4.325-3.626-2.847-2.194-5.101-4.876-7.224-7.67-.158-.213-.397-.375-.552-.592a639.052 639.052 0 01-3.447-4.47c-.286-.376-.528-.75-.795-1.126a6.177 6.177 0 00-2.5-2.107 2.246 2.246 0 01-.752-.75 3.652 3.652 0 00-1.693-1.4 2.223 2.223 0 01-1.149-.81c-.505-.926-1.24-.794-2.043-.588-.473.12-.942.262-1.408.401l-1.474.446-.092-.266 3.888-1.249c-1.371-3.615-2.966-7.234-4.099-10.977a79.256 79.256 0 00-4.372-11.33 16.381 16.381 0 01-1.356-4.088c-.294-1.605-1.193-2.467-2.64-2.827-.564-.14-1.117-.323-1.69-.41-1.28-.198-2.563-.344-4.042-.54l1.3 1.944c.707-.08.978.615 1.502.97.986.672.875 1.433.597 2.334-.063.253-.028.519.1.75a11.772 11.772 0 011.649 5.25c-.966-1.676-1.002-3.72-2.25-5.187-.438.165-.843.338-1.26.47-.22.07-.474.037-.688.112-1.125.401-2.234.855-3.367 1.233-1.682.563-3.383 1.073-5.069 1.632a1.414 1.414 0 00-.644.461c-.839 1.084-1.642 2.19-2.469 3.285-.54.713-1.1 1.414-1.653 2.12l-.155-.106c.974-1.912 2.611-3.416 3.864-5.288-.696.23-1.273.466-1.873.604a2.545 2.545 0 00-1.19.674c-.323.326-.541.73-.63 1.168-.27 1.17-.99 1.972-1.766 2.779-.437.453-.77 1.001-1.427 1.29a6.547 6.547 0 00-1.288.986l.211.199-.425.412.107.124 3.578-1.361a1.042 1.042 0 01-.354.611 8.931 8.931 0 01-3.932 1.95c-1.137.255-2.33.282-3.49.462-.97.15-1.912.266-2.862-.117a6.286 6.286 0 00-1.48-.375 5.726 5.726 0 01-2.75-1.174c-.795-.596-1.566-1.24-2.421-1.759-1.352-.836-2.624-1.788-4.35-1.766a.825.825 0 01-.261-.094c-1.13-.438-2.23-.296-3.352.113l.35.375c-1.101-.191-1.36.416-1.59 1.099-.342 1.05-.716 2.092-1.077 3.139 0-1.467.652-2.75 1.308-4.126-.366.075-.796.263-.875.165-.49-.468-.68 0-.895.218-1.458 1.403-1.462 3.139-1.192 4.92a.877.877 0 00.318.48c.06.05.258-.048.397-.078l.86.851-.12.131-1.13-.75c.1.308.096.54.22.649.95.847 1.88 1.729 2.91 2.483.73.532 1.753.641 2.385 1.402.248.323.585.575.975.729.39.153.817.202 1.235.141 1.78-.176 3.43.51 4.842 1.347a35.887 35.887 0 015.128 3.904c.795.701 1.324 1.699 1.988 2.546a58.2 58.2 0 001.896 2.288c.755.859 1.395 1.913 2.354 2.486 2.504 1.5 5.167 2.768 7.744 4.17a12.394 12.394 0 004.905 1.651c.962.086 1.865.72 2.803 1.08 1.192.469 2.528.701 3.578 1.534a13.37 13.37 0 001.789.971 16.6 16.6 0 011.749 1.043 19.277 19.277 0 012.214 1.804c.731.724 1.34 1.556 2.012 2.332 1.59 1.84 3.18 3.678 4.77 5.513a18.232 18.232 0 004.234 3.694c.792.45 1.537.971 2.222 1.557 2.21 2 4.032 4.347 5.387 6.938.795 1.594 1.387 3.274 2.417 4.797 1.085 1.601 1.59 3.499 2.739 5.111 1.149 1.613 2.087 3.376 3.112 5.078.229.331.435.675.617 1.032a263.48 263.48 0 011.987 4.691c.032.079.088.176.06.244-.35.949.258 1.628.731 2.344.565.859 1.145 1.71 1.686 2.58.644 1.043 1.248 2.108 1.888 3.154.954 1.56 1.988 3.087 2.87 4.681l13.588-37.89zM34.89 67.377c-.107.259-.179.48-.286.683-.95 1.77-1.92 3.533-2.854 5.31a3.176 3.176 0 00-.334 1.07c-.195 1.47 1.097 2.67 2.452 2.156a8.397 8.397 0 002.576-1.632c1.543-1.384 2.553-3.143 3.487-4.988l-.612-.506-3.18 2.723-.223-.23 3.14-2.647c-.77-.787-.795-.791-1.566-.094-.573.518-1.125 1.054-1.698 1.572-.14.108-.287.207-.44.296l-.136-.15c.533-1.043 1.642-1.631 2.441-2.498-1.09-.375-1.09-.375-1.638.473-.131.202-.266.397-.397.596l-.183-.105.795-1.523-1.344-.506zm29.02-20.945c.776.776.903.836 1.79.57a170 170 0 004.416-1.41c.592-.195 1.14-1.43.894-1.906a2.191 2.191 0 00-1.007-1.006 2.381 2.381 0 00-1.45-.212c-.89.146-1.764.375-2.635.615-1.09.285-2.119 1.627-2.127 2.756.52-.135 1.034-.262 1.547-.401.103-.03.274-.105.274-.158-.024-.75.509-.296.795-.322.247.019.496.019.743 0 .946-.233 1.885-.503 2.823-.75l.02.09-6.083 2.134zM40.968 70.906l-3.518 4.722c.308.02.612.072.907.157 2.138.927 3.804-.153 5.486-1.143a.522.522 0 00.107-.514c-.636-1.354-1.737-2.348-2.982-3.222zm-12.832-5.824c-.107.593-.227 1.043-.266 1.5-.079.39-.058.79.06 1.17.5 1.088 1.669 1.418 2.683 1.913a.605.605 0 00.473 0c.942-.574 2.015-1.009 2.584-2.063a5.373 5.373 0 00-.521-.082 4.458 4.458 0 01-2.874-1.29c-.537-.518-1.36-.75-2.14-1.148zm16.211-16.948a4.692 4.692 0 01-1.129-.202c-.397-.192-.54-.075-.723.277-.302.582-.696 1.125-1.05 1.677l-.21-.109.95-1.853-.21-.112-2.239 3.064-.103-.038c.159-.465.322-.93.48-1.391-.886.289-.886.289-1.033 2.134l8.5-3.023a22.188 22.188 0 00-2.223-.217.839.839 0 00-.497.034.783.783 0 00-.377.307 9.84 9.84 0 01-.895.952l-.139-.116.898-1.384zm-22.99 11.701l.458 1.917 3.073-.458c-.644-1.252-.31-2.355.1-3.623l-3.63 2.164zm33.156-7.875l-.151-.252c-1.134.375-2.27.75-3.395 1.126a.713.713 0 00-.254.182.66.66 0 00-.144.267c-.159 1.04-.274 2.086-.398 3.184 1.016-.988 1.603-2.299 1.646-3.675l.223.026.17.95c.398-.376.752-.75 1.138-1.05.385-.3.779-.518 1.169-.773l-.005.015zm1.912-.87c-1.435.375-1.443.375-2.143 1.425-.7 1.05-1.407 2.167-2.111 3.255l.19.127c.51-.372.983-.787 1.412-1.24.91-1.156 1.737-2.334 2.656-3.582l-.004.015zm-20.851 2.208c1.797-.138 1.24-1.597 1.789-2.516l-1.65.345.37.375-.795.244.286 1.552zm14.593-.056l-.175-.161c-.31.251-.794.461-.89.75-.17.856-.284 1.722-.342 2.591l.795.128.612-3.308zm-2.007 2.974l.461-2.479c-.43.334-1.308-.071-1.356.694-.035.671-.186 1.482.899 1.77l-.004.015zm-2.85-.506l-.191-.101c-.31.319-.795.6-.879.971-.127.458.044.99.111 1.5a.367.367 0 00.082.158c.04.045.091.081.15.105.079 0 .206-.098.293-.177.787-.75.422-1.638.438-2.471l-.004.015zm-7.892-3.334c1.292-.308 1.225-1.391 1.527-2.31-1.169.247-1.483.742-1.527 2.31zm2.47 3.979l1.458.915c.752-.322.592-.938.636-1.639l-2.095.724zm-4.879-4.118l-1.673 1.519 1.987-.127-.314-1.392zm9.084 5.824l-.31-1.087-1.423.652.051.154 1.682.281zm3.28-1.125c-.163 1.7-.191 1.876.612 1.748.278-1.215.215-1.403-.612-1.736v-.012zm1.268.462l-.056 1.35.863-.053.068-1.155-.875-.142zm-2.032-.98l-.822-1.26-.132.046.104 1.894.85-.68zm-4.25.083l1.448-1.211c-1.594.259-1.702.36-1.447 1.211zm4.425.972l-.986 1.233 1.098-.04-.112-1.193z" fill="#543018" stroke="#543018" stroke-width=".4"/><path d="M54.977 48.874l1.559-.53.23.053.533.019v.079l-2.322.38zm56.691 87.082a9.757 9.757 0 01-.119-1.354c.163-3.041 1.192-5.884 2.409-8.656.894-2.04 1.988-3.998 3.037-6 .139-.251.371-.445.652-.544-1.216 2.678-2.52 5.325-3.626 8.048-1.105 2.723-1.987 5.539-2.142 8.506h-.211zm8.391-14.064a121.11 121.11 0 00-6.384 17.865c-.644-1.691 4.659-16.838 6.384-17.865zm-5.378-4.332c-2.385 4.53-4.711 9.083-5.518 14.18a1.57 1.57 0 01-.203-1.549c.4-1.694.908-3.364 1.523-4.999.938-2.25 2.099-4.392 3.18-6.57a9.38 9.38 0 01.823-1.174l.195.112zm-7.323 7.92c.711-3.791 2.488-6.99 4.838-9.949-1.59 3.274-3.184 6.548-4.838 9.949zM31.766 63.47a2.387 2.387 0 01.123-2.363c.768-1.482 1.59-2.944 2.417-4.4.18-.307.481-.622.946-.375-1.8 2.044-2.651 4.493-3.486 7.137zm37.511 12.533l-1.721 9.305c-.06-3.188.795-6.248 1.443-9.335l.278.03zm-2.785 7.414l.711-9.395.064-.045c.138.392.222.8.25 1.212a143.771 143.771 0 01-.377 5.25c-.088 1.001-.247 1.995-.374 3l-.274-.022zm-4.167-13.25a6613 6613 0 01.723 10.216l-.1.034a11.61 11.61 0 01-.432-1.876c-.167-2.625-.275-5.25-.398-7.875v-.495l.207-.004zm8.658 7.212c-.099 2.869-.767 5.648-1.459 8.423-.047-2.887.903-5.625 1.46-8.423zm-5.963 5.408c-.441-3.147 0-6.3-.043-9.451.556 3.147.15 6.3.043 9.45z" fill="#543018" stroke="#543018" stroke-width=".4"/><path d="M32.82 64.211a3.583 3.583 0 01-.294-1.046c.066-1.61.733-3.145 1.884-4.335a3.14 3.14 0 01.398-.315c-.398.975-.847 1.875-1.122 2.816-.274.941-.377 1.905-.552 2.862l-.314.018zm76.498 49.855c-1.284 2.921-2.926 5.711-3.666 8.869-.556-1.159 2.091-6.709 3.666-8.869zM84.977 86.444l-2.783 7.328c.131-2.7 1.475-5.01 2.532-7.415l.25.087zM63.032 48.885c-.826 2.014-2.385 3.566-3.836 5.186.827-2.006 2.497-3.476 3.836-5.186zM87.063 88.69a7.29 7.29 0 01-.302.915c-.87 1.823-1.761 3.638-2.715 5.626.23-2.584 1.777-4.5 2.75-6.62l.267.08zM55.916 76.88c-1.141-1.323-2.071-6.322-1.407-7.912.155 1.346.25 2.696.484 4.024.235 1.327.62 2.636.923 3.889zm-3.776-9.098c.024 3.083.398 6.102 1.614 9.023a3.064 3.064 0 01-.536-.67 16.853 16.853 0 01-1.24-7.805c.018-.154.05-.305.095-.454.008-.034.044-.06.068-.094zm30.969 17.476l-3.18 7.107c.341-2.625 1.728-4.876 2.993-7.175l.187.068zm23.256 28.596c.58.634-.235 3.837-1.145 4.876l-.183-.041c.429-1.579.867-3.166 1.328-4.835zM90.31 93.528c-.588 2.033-1.987 3.75-2.623 5.75l-.298-.09c.094-.4.22-.79.378-1.17.759-1.534 1.554-3.053 2.337-4.58l.207.09zm-8.593-9.275l-2.978 5.949c-.203-.698 1.407-4.317 2.978-5.949zM59.144 70.197c-.1 2.566.795 5.015.978 7.539-.644-2.483-1.514-4.936-.978-7.539zm-8.964-1.893c.28 2.317.553 4.635.832 6.934a14.287 14.287 0 01-.831-6.934zm7.009 1.533c.334 2.475.672 4.947 1.025 7.56-.986-2.52-.99-5.044-1.025-7.56zm21.889 11.757l-1.813 7.666a27.34 27.34 0 011.813-7.666zM92.737 96.81a703.99 703.99 0 01-2.437 4.762c-.21-.78 1.284-3.86 2.437-4.763zM28.05 60.027c-.398-1.268 1.32-4.34 2.67-4.77-1.303 1.432-2.527 2.835-2.67 4.77zm60.06 31.668l-1.957 4.522-.166-.056c.365-1.601 1.236-3.03 1.852-4.549l.27.083zm-11.688-38.24l-1.694-4.59.2-.067 1.757 4.556-.263.101zm-12.94-.273l1.52-3.262c.118 1.316-.657 2.31-1.261 3.375l-.259-.113zm7.558 32.995l.763-4.125h.13l-.766 4.144-.127-.019zm-32.937-20.39c-.5-.75-.25-2.667.608-3.308l-.608 3.308zm62.588 45.724c.148-1.268 1.281-2.25 1.32-3.676.072.214.255.469.191.638-.397 1.054-.871 2.089-1.316 3.132l-.195-.094zM41.665 68.21a5.684 5.684 0 01.227-3.86l-.227 3.86zm-1.645-4.625c-.164 1.185-.323 2.374-.51 3.75-.457-1.458-.04-2.583.51-3.75zm60.139 43.545c.139-1.211.902-2.104 1.59-3.045l.155.078-1.745 2.967zM46.977 67.167c.357.96.031 1.928-.032 2.892h-.235l.056-2.873.21-.019zm-10.516-1.639c-.433-.93.036-1.744.473-2.558l-.473 2.558zm8.651 3.24l.5-2.696.203.037-.5 2.693-.203-.034zm49.183 31.492l-1.447 2.558c-.076-.563.545-1.714 1.447-2.558zM43.35 68.607l.25-2.782h.175l-.19 2.786-.235-.004zm10.71-26.935l-2.853 4.733c-.744-1.009.437-3.724 1.236-4.714l-1.336 3.848.068.022 2.66-4.009.226.12zm-17.09 8.157a3.904 3.904 0 01-1.485-1.64 3.637 3.637 0 01-.311-2.137c.078.365.186.724.322 1.073.397.75.795 1.5 1.22 2.25.084.15.155.304.23.454h.025zm-.032-5.153c.84 1.125.895 2.573 1.59 3.837-.7-.334-.818-.638-1.59-3.837zm-5.271 3.807a7.681 7.681 0 011.347 3.638l-.206.056-1.141-3.694zm-2.425 4.819a6.405 6.405 0 01.938-2.959l.231.06-.934 2.97-.235-.07zm9.302-8.565l.485 2.56c-.572-.483-.839-1.615-.696-2.53l.211-.03zm16.033-.86l-1.59 2.374-.183-.105 1.554-2.381.22.112zm-7.757-.917l-1.164 1.732-.203-.12 1.113-1.755.254.143zm-8.2 27.93c-.032.92-1.988 3.26-2.906 3.376l2.906-3.376zm3.53-18.96l-.222 1.192c.473-.139.886-.243 1.292-.375 2.782-.922 5.565-1.838 8.324-2.783.89-.3 1.75-.69 2.636-1.005a3.7 3.7 0 01.827-.094c-5.518 2.27-11.08 4.415-16.892 5.911l-.091-.228c.974-.376 1.932-.792 2.93-1.088.6-.18.994-.375 1.014-1.035.035-.173.097-.34.182-.495zm-17.861 9.214c-.612-.491-.716-1.102-.366-1.947.123.638.243 1.272.366 1.947zm-3.081-27.805c3.033-.555 5.963-1.193 8.96-1.62 2.525-.375 5.073-.563 7.554-1.163a46.874 46.874 0 014.547-.877c2.668-.375 5.34-.83 8.027-1.01a65.675 65.675 0 007.593-.974c.954-.177 1.793-.308 2.663.183.238.08.492.11.744.087.93.037 1.86.064 2.926.101a5.4 5.4 0 00.568-1.399c.056-.405-.179-.851-.31-1.275a23.663 23.663 0 01-.366-4.5c.763 1.526.398 3.203 1.153 4.718 1.292-2.446 2.584-4.895 3.944-7.463-1.427-.56-2.783-1.377-4.596-1.354a1.03 1.03 0 01.565-.438c.238-.078.498-.071.731.018.624.16 1.238.357 1.837.589.576.198 1.145.408 1.705.64.56.233.624.42.346.95-1.2 2.321-2.457 4.627-3.63 6.96-.536 1.065-.938 2.19-1.43 3.375-1.193-.592-2.513-.375-3.785-.439a13.2 13.2 0 01-1.61-.303 16.931 16.931 0 01-5.983 1.331c-1.869.109-3.741.176-5.61.285-.5.05-.998.124-1.49.221-1.491.237-2.978.48-4.469.71-.958.15-1.92.27-2.878.42-.886.134-1.78.25-2.655.457-.97.229-1.924.532-2.878.829-1.758.609-3.61.94-5.483.978-.75 0-1.506.105-2.258.165-.966.075-1.931.147-2.898.233-.795.071-1.558.165-2.416.255-.501-1.598-1.293-3.09-.97-4.834.075-.42-.187-.919-.362-1.354-.398-.979-.823-1.943-1.193-2.843-.72-.311-1.423-.626-2.135-.926a33.552 33.552 0 00-1.88-.75c-.445-.199-.672-.42-.5-.874.106-.289.206-.577.333-.859.362-.81.751-1.608 1.105-2.419.795-1.792 1.53-3.592 2.31-5.381.148-.274.315-.538.5-.791l.26.127c-.478 1.035-.967 2.074-1.4 3.135-.433 1.062-.795 2.115-1.193 3.17-.397 1.053-.874 2.13-1.324 3.224.978.473 1.916.957 2.879 1.384a.948.948 0 00.726-.028.893.893 0 00.292-.217c.08-.09.14-.196.174-.31.35-1.027.66-2.077 1.09-3.075.763-1.759 1.59-3.491 2.424-5.228.171-.375.398-.705.6-1.057l.22.082c-.132.375-.251.724-.398 1.076-.887 2.116-1.75 4.238-2.68 6.338a6.04 6.04 0 000 4.756c.796 2.088 1.515 4.174 1.714 6.375.023.13.065.256.123.375.046.078.102.15.167.214zm7.358-.75l.036.187 1.527-.277-.036-.18-1.527.27z" fill="#543018" stroke="#543018" stroke-width=".4"/><path d="M62.098 11.873c-.362.068-.728.154-1.093.203l-16.367 2.156c-3.427.45-6.85.908-10.276 1.339-2.89.375-5.785.682-8.675 1.054-.926.116-1.832.356-2.75.513-.434.075-.895.206-1.404-.154.44-.269.95-.417 1.475-.427 2.067-.251 4.142-.465 6.214-.712a31.651 31.651 0 002.452-.376c2.012-.374 4.008-.836 6.027-1.162 1.451-.236 2.934-.285 4.397-.457 2.107-.252 4.214-.514 6.313-.814 1.168-.169 2.313-.499 3.486-.627 2.783-.303 5.566-.528 8.38-.79.43-.038.859-.113 1.288-.132.184.024.363.075.529.154l.004.232zm8.091 78.644a8.98 8.98 0 01-4.02 1.013c-6.225.248-12.454.375-18.684.206H45.65a1.384 1.384 0 01-.827-.292 1.3 1.3 0 01.397-.166c1.622-.04 3.244-.108 4.862-.093 2.055.022 4.107.123 6.158.165.827 0 1.654-.053 2.485-.072 1.836-.044 3.673-.13 5.506-.1a20.15 20.15 0 004.822-.466c.361-.083.74-.131 1.137-.195zm4.615-84.615c.065.354.105.71.119 1.07-.064 1.525-.187 3.052-.235 4.578-.06 1.766-.063 3.533-.08 5.3v2.954c0 .987.06 1.962.084 2.944.018.361-.01.722-.083 1.077-.839-2.963-.672-6-.64-9 .032-3.001.35-5.96.544-8.941l.29.018zM14.076 92.046c1.387-.506 12.16-.772 13.536-.375 0 .034.024.068 0 .098s-.036.071-.06.071c-.675.068-1.347.176-2.023.188-3.578.063-7.183.104-10.777.142a3.91 3.91 0 01-.676-.124zm49.331-73.201l1.117-1.328.151.067c-.135.293-.246.597-.397.874-.998 1.692-2.024 3.376-2.998 5.07-.548.953-1.017 1.947-1.526 2.919a2.659 2.659 0 01-.279.375c-.437-.375-.246-.796-.075-1.126.37-.75.775-1.455 1.192-2.16.796-1.32 1.662-2.625 2.485-3.941.13-.243.242-.494.338-.75h-.008zm11.281 9.39c.058.182.094.37.107.559-.055 1.155-.15 2.306-.186 3.461-.028.844.031 1.692.023 2.54 0 1.39-.043 2.778-.075 4.166-.03.146-.078.288-.143.424-.334-.885-.223-9.837.274-11.15z" fill="#543018" stroke="#543018" stroke-width=".4"/><path d="M63.43 18.833c-.361-1.027-.743-2.048-1.077-3.079-.214-.671-.099-2.87.155-3.75a.988.988 0 01.356.443.93.93 0 01.042.554 11.31 11.31 0 00.513 3.916c.175.588 0 1.271 0 1.909l.012.007zM18.111 20.82c-.063-.247-.143-.491-.182-.75-.092-.566-.16-1.125-.247-1.706-.15-.934-.135-.986.87-1.264.522-.142 1.015-.513 1.857-.217l-2.365.799c.175 1.083.616 2.077.314 3.12l-.247.018zm-5.828 38.194c-.155-1.155.827-2.517 2.277-3.12l-2.277 3.12zm-1.551-23.75c.155-.837 1.157-2.018 2.635-3.128-.127.694-1.725 2.588-2.635 3.128zm.061-2.529c-.02-.986 1.252-2.625 2.548-3.236l-2.548 3.236zm-.108 5.041c.27-.945.867-1.632 2.259-2.723-.04.626-1.038 1.868-2.259 2.723zm.303-29.695c.37-1.125 1.661-2.4 2.651-2.703-.203.551-1.332 1.721-2.651 2.703zm23.06 83.798h-4.226c1.364-.564 3.578-.58 4.226 0zM10.98 72.658c-.573-1.024-.235-2.202.795-3.15.107.61-.267 1.05-.398 1.533-.131.484-.23.968-.397 1.617zm13.276 13.875c-.087.92-.76 1.5-1.356 2.284-.06-.75.378-1.451 1.356-2.284zm-1.16-1.642a5.856 5.856 0 01-1.57 2.412c.23-.944.782-1.79 1.57-2.412zM11.082 39.854c.207-.92.871-1.56 1.475-2.25l.239.138L11.353 40l-.27-.146zm.362-34.357a6.596 6.596 0 011.761-1.942l.211.172-1.741 1.928-.23-.158zM62.85 26.668c-1.253.566-1.817.652-2.879.438 1.074-.289 1.956-.562 2.878-.439zM22.043 13.857l-2.227-1.234c.82-.274 1.372 0 2.227 1.234zM10.578 10.2c.493-.791 1.3-1.252 2.06-1.762l.166.172-2.027 1.763-.199-.173zm3.056 51.837l-1.192 2.119-.223-.113c.21-.782.62-1.504 1.193-2.104l.222.098zm-.114-2.734l-1.193 1.81c-.151-.884.457-1.375.906-1.949l.286.139zm13.142 27.913c-.12.75-.569 1.302-1.316 1.875.195-.911.835-1.342 1.316-1.875zm5.951 1.538a3.31 3.31 0 012.413-.248c-.886.286-1.53.44-2.413.248zM36.1 53.429c-.581.862-.74.907-1.468.472l1.467-.472zM10.62 12.807l.816-1.215.242.138-.747 1.238-.31-.161zm.212 29.784l.795-1.226.234.139-.795 1.23-.235-.143zm.41-13.715l-.684 1.373c-.183-.642.123-1.062.684-1.373zM71.456 90.06c.223-.33.441-.66.66-.99l.179.1-.636 1.054-.203-.165zm-31.878 1.693h.966v.121h-.966v-.12zM10.462 16.877l.187-.448h.12a.952.952 0 010 .316c-.02.083-.12.143-.183.214l-.124-.082zm46.755 69.315l.226-.375.144.03c.02.097.02.196 0 .293-.036.075-.152.116-.231.172l-.14-.12z" fill="#543018" stroke="#543018" stroke-width=".4"/><path d="M73.861 91.436l-.047 1.241a3.152 3.152 0 01-1.53.376c-2.307 0-4.612-.068-6.918-.117-.505 0-1.01-.037-1.515-.06l-7.767-.315c-1.658-.064-3.316-.195-4.97-.161-3.379.071-6.758-.18-10.149.169-1.15.083-2.302.112-3.455.086-3.709.022-7.421 0-11.13.056-2.811.041-5.618.15-8.428.267-2.083.09-4.167.258-6.25.375-.822.04-1.65 0-2.476-.02-.827-.018-1.59-.037-2.385-.052h-.215c-1.073.02-1.622-.063-1.312-1.474a1.583 1.583 0 011.495-.139c.288.109.605.129.907.057.3-.07.57-.23.77-.454.613-.649.398-1.541-.48-1.763a23.103 23.103 0 00-2.358-.374c-.235-.653-.076-.916.616-.863.286.022.56.131.843.18.27.059.55.043.81-.047.26-.089.487-.247.653-.456a.998.998 0 00.27-.46.957.957 0 00-.012-.526 1.004 1.004 0 00-.29-.45 1.093 1.093 0 00-.489-.251 12.45 12.45 0 00-1.912-.255c-.294-.026-.608 0-.628-.375 0-.458.366-.465.676-.462.322.027.641.08.954.158.268.05.547.025.8-.072.255-.096.474-.26.63-.472a.999.999 0 00.274-.46.957.957 0 00-.009-.526 1.003 1.003 0 00-.288-.451 1.093 1.093 0 00-.489-.254 9.83 9.83 0 00-1.59-.237 7.654 7.654 0 00-.827 0c-.143-.817-.04-.986.604-.956.318 0 .632.128.954.169.305.037.614-.016.886-.15.273-.134.495-.343.637-.6.33-.619.1-1.29-.608-1.46a25.955 25.955 0 00-2.453-.352c-.151-.61-.052-.802.517-.79.285.026.567.079.842.157.3.076.616.062.906-.04.29-.104.538-.29.708-.534a.981.981 0 00.227-.454.95.95 0 00-.034-.5 1 1 0 00-.286-.423 1.086 1.086 0 00-.467-.24 11.159 11.159 0 00-1.908-.255c-.354-.03-.668-.037-.664-.468.004-.432.31-.525.656-.51.346.015.632.127.95.172.305.06.622.028.907-.09.285-.119.523-.318.683-.57a.934.934 0 00.137-.917.985.985 0 00-.282-.396 1.068 1.068 0 00-.447-.225 11.49 11.49 0 00-1.908-.266c-.338-.034-.732 0-.64-.45.035-.165.397-.375.62-.375.321.009.64.055.95.139.305.058.622.025.907-.094.284-.119.523-.318.683-.57.397-.634.159-1.358-.588-1.538a24.503 24.503 0 00-2.445-.352c-.175-.728-.056-.908.668-.863.282.019.56.12.846.158.34.052.688-.01.985-.174.297-.164.524-.421.641-.726a.88.88 0 00-.005-.817.938.938 0 00-.285-.322 1.007 1.007 0 00-.405-.17 10.594 10.594 0 00-1.694-.263 6.79 6.79 0 00-.827 0c-.17-.978.052-1.203.942-1.05.242.066.488.118.736.158.29.029.58-.028.834-.162s.457-.34.581-.588a.907.907 0 00.104-.889.96.96 0 00-.284-.375 1.037 1.037 0 00-.436-.206c-.795-.2-1.614-.267-2.441-.376-.179-.656-.052-.885.568-.858.283.04.564.096.84.169.318.063.65.028.947-.1.296-.128.541-.343.698-.613a.914.914 0 00.1-.876.964.964 0 00-.273-.373 1.042 1.042 0 00-.423-.214 13.22 13.22 0 00-2.012-.277c-.306-.034-.592-.041-.592-.424s.326-.431.604-.424c.354 0 .708.117 1.062.161.325.045.656-.012.944-.162a1.45 1.45 0 00.646-.67c.266-.608.04-1.215-.632-1.373-.795-.187-1.622-.244-2.54-.375-.025-.169-.056-.412-.088-.626.54-.375 1.037-.221 1.518-.098.244.068.503.07.749.01.245-.06.47-.183.647-.355.755-.648.548-1.635-.441-1.875a21.246 21.246 0 00-2.362-.303c-.218-.304-.024-.526.294-.556.354-.015.708.022 1.05.11.282.078.582.078.864 0 .282-.08.534-.233.726-.443.608-.653.398-1.538-.5-1.76a23.326 23.326 0 00-2.35-.352c-.223-.667-.06-.919.632-.862.286.022.56.13.843.176.268.05.545.027.8-.069.253-.095.472-.257.63-.467a.99.99 0 00.266-.464.957.957 0 00-.017-.526 1.007 1.007 0 00-.295-.448 1.096 1.096 0 00-.494-.246 11.938 11.938 0 00-1.912-.248c-.298-.03-.596 0-.616-.397-.02-.398.298-.45.58-.443a9.4 9.4 0 011.062.154c.34.05.688-.013.985-.178.297-.165.525-.421.644-.726.215-.596 0-1.125-.64-1.29-.795-.191-1.618-.248-2.548-.375l-.111-.608c.529-.4 1.03-.247 1.507-.12.26.075.539.077.8.006.263-.07.498-.21.678-.403.16-.124.281-.288.347-.474a.98.98 0 00.024-.575 1.023 1.023 0 00-.304-.498 1.12 1.12 0 00-.54-.268 10.705 10.705 0 00-1.59-.218c-.266-.034-.537-.034-.906-.052a.773.773 0 01.4-.382.84.84 0 01.57-.03c.246.037.485.134.731.168.288.046.584.008.848-.111.263-.12.48-.312.623-.553a.945.945 0 00.146-.938.998.998 0 00-.29-.404 1.08 1.08 0 00-.46-.225 6.507 6.507 0 00-1.264-.263c-.382-.02-.764-.02-1.145 0-.203-.776-.072-1.001.544-.971.285.04.567.097.843.172.247.055.506.047.749-.023s.462-.199.635-.374c.683-.653.48-1.572-.446-1.83a11.211 11.211 0 00-1.59-.256c-.139 0-.318.064-.425 0a2.735 2.735 0 01-.49-.412c.172-.139.33-.375.51-.375.357 0 .714.04 1.061.12.319.062.65.025.945-.106.294-.13.536-.347.689-.618.334-.619.107-1.298-.596-1.466-.795-.188-1.618-.24-2.457-.375-.215-.705-.095-.904.624-.867.285.036.568.087.847.154.285.057.581.03.849-.078.267-.108.493-.292.646-.526a.975.975 0 00.23-.452.944.944 0 00-.033-.5.993.993 0 00-.286-.423 1.078 1.078 0 00-.468-.237 9.723 9.723 0 00-1.59-.244 7.676 7.676 0 00-.831 0c-.163-.814-.068-.983.576-.96.322 0 .637.127.955.168.325.047.657-.01.945-.16a1.44 1.44 0 00.645-.672c.266-.608.04-1.215-.632-1.373-.795-.187-1.622-.243-2.54-.375l-.088-.622c.54-.375 1.037-.225 1.518-.098a1.5 1.5 0 00.75.008c.245-.062.468-.185.646-.357.755-.648.548-1.63-.441-1.875a21.633 21.633 0 00-2.334-.303c-.107-.62-.028-.795.465-.795.322.022.64.076.95.16.265.061.542.051.801-.028.26-.08.49-.225.666-.421.146-.128.252-.29.308-.47.056-.18.06-.37.01-.552a1.03 1.03 0 00-.29-.48 1.124 1.124 0 00-.509-.272 6.05 6.05 0 00-1.16-.229 11.934 11.934 0 00-1.158 0c-.278-.75-.115-1.027.577-.975.282.022.56.131.843.18.268.05.546.027.8-.068.254-.094.475-.255.635-.465a1 1 0 00.27-.46.96.96 0 00-.012-.527 1.008 1.008 0 00-.29-.45 1.098 1.098 0 00-.489-.254 12.348 12.348 0 00-1.908-.255c-.294-.026-.612 0-.632-.375-.024-.458.366-.465.676-.461.322.027.641.08.954.157.285.055.582.024.849-.087.267-.11.49-.296.641-.532a.973.973 0 00.224-.454.943.943 0 00-.039-.5.994.994 0 00-.29-.418 1.08 1.08 0 00-.471-.233 9.754 9.754 0 00-1.59-.24 7.603 7.603 0 00-.827 0c-.143-.821-.044-.986.6-.96.322 0 .636.128.954.169.306.039.616-.013.89-.147.273-.134.495-.345.637-.603.33-.623.1-1.294-.608-1.463a25.32 25.32 0 00-2.453-.352c-.155-.612-.052-.803.517-.792.284.028.565.08.838.158.3.079.617.065.907-.038.29-.103.538-.29.707-.536a.978.978 0 00.229-.456.947.947 0 00-.037-.503.998.998 0 00-.291-.422 1.084 1.084 0 00-.473-.235 11.103 11.103 0 00-1.908-.255c-.35-.03-.668-.034-.664-.47.004-.434.31-.524.656-.51.346.016.628.128.95.173.305.06.622.029.907-.09a1.47 1.47 0 00.683-.57.952.952 0 00.13-.916 1.003 1.003 0 00-.278-.397 1.084 1.084 0 00-.44-.232 6.235 6.235 0 00-1.264-.259 9.807 9.807 0 00-1.15 0c-.158-.873-.07-1.053.649-1.072 2.592-.064 5.188-.094 7.78-.135 1.765-.03 3.53-.09 5.295-.071.97 0 1.936.15 2.902.232 1.077.086 2.15.236 3.228.248 2.846.037 5.697.06 8.543 0 5.029-.12 10.077-.177 15.11-.458 2.862-.15 5.677.045 8.52.195a86.13 86.13 0 008.745-.079c2.067-.097 4.099-.157 6.09.462.343.108.698.176 1.058.202.417.015.817.161 1.136.416.32.254.54.601.625.987.3 1.046.48 2.12.537 3.203.116 3.837.176 7.676.179 11.517 0 4.286-.072 8.57-.127 12.852-.028 1.905-.084 3.81-.14 5.716l-.127 3.495 1.368 1.5.04-2.385c.083-3.675.258-7.343.337-11.015.064-3.026.1-6.057.052-9.08-.064-3.979-.227-7.954-.338-11.93-.032-1.226 0-2.456-.461-3.63-.584-1.533-1.554-2.666-3.427-2.827-.286-.023-.564-.135-.847-.158C70.9.784 69.382.48 67.898.596 64.69.847 61.49.799 58.282.81c-.322 0-.644-.068-.966-.086C54.994.58 52.66.352 50.31.322 46.923.281 43.552.378 40.15.42c-.47 0-.939 0-1.408.03-4.17.307-8.348.446-12.534.375a42.409 42.409 0 01-2.783-.169C22.03.532 20.643.236 19.24.281c-4.365.06-8.718.266-13.055.431-1.193.042-1.348.109-1.59 1.23a1.255 1.255 0 01-.409.807 1.4 1.4 0 01-.868.36c-.629.13-1.227.37-1.765.705a1.271 1.271 0 00-.49.712 1.21 1.21 0 00.093.844c.282.563.795.499 1.308.409.397-.068.763-.199 1.149-.281.23-.053.469-.072.7-.102.178.48 0 .724-.398.837-.284.046-.564.11-.84.191a9.048 9.048 0 00-1.66.761c-.438.293-.502 1.058-.255 1.5.286.503.767.45 1.232.375.465-.075.835-.22 1.256-.307.224-.03.45-.045.676-.041.04.063.08.131.115.198-.175.162-.326.375-.536.47-.366.138-.795.15-1.145.292a5.65 5.65 0 00-1.32.664 1.27 1.27 0 00-.404.705c-.052.27-.012.548.114.795.294.532.795.514 1.304.375.616-.162 1.236-.3 1.932-.47.024.473 0 .815-.51.924a6.413 6.413 0 00-1.045.247c-.47.16-.92.374-1.335.638-.234.19-.393.448-.454.733-.06.285-.018.582.12.842.318.528.795.48 1.327.345.605-.158 1.217-.293 1.83-.439.146.69-.291.784-.728.87-.795.154-1.563.311-2.167.851a1.37 1.37 0 00-.372.712c-.049.266-.015.54.098.789.27.506.747.476 1.22.375.473-.102.831-.214 1.252-.304.23-.035.46-.059.692-.072.143.492-.06.728-.469.83a6.697 6.697 0 00-.735.157c-.57.202-1.118.453-1.638.75a1.25 1.25 0 00-.44.695c-.062.271-.027.554.098.805.274.57.795.514 1.3.424.397-.068.763-.195 1.149-.282.23-.048.465-.067.691-.1.155.374.044.603-.29.7-.334.098-.644.113-.942.226a8.04 8.04 0 00-1.542.693 1.278 1.278 0 00-.457.731c-.06.285-.018.582.123.84.318.526.795.477 1.327.342.609-.154 1.225-.293 1.929-.457-.036.27 0 .487-.092.573-.206.163-.442.29-.696.375a18.96 18.96 0 00-2.075.807c-.251.173-.43.424-.506.71-.075.284-.042.585.093.85.159.349.612.66 1.395.405.589-.191 1.213-.296 1.837-.446.083.543-.044.84-.553.922a3.67 3.67 0 00-.835.199 8.29 8.29 0 00-1.53.72 1.279 1.279 0 00-.41.704c-.054.27-.016.548.108.796.218.42.56.533 1.304.375.624-.127 1.24-.292 1.94-.461.024.461.02.806-.501.919a6.44 6.44 0 00-1.05.247c-.47.161-.92.375-1.335.638a1.293 1.293 0 00-.458.73c-.061.285-.02.58.116.841.314.529.795.488 1.323.353.605-.158 1.217-.293 1.833-.435.155.678-.278.776-.72.862-.795.154-1.558.312-2.162.852a1.36 1.36 0 00-.381.71c-.05.266-.018.54.095.79.266.506.743.483 1.216.397.473-.086.835-.214 1.256-.304.227-.045.466-.052.756-.082 0 .214.024.409-.048.461a3.938 3.938 0 01-.795.443c-.703.237-1.389.515-2.055.832-.481.263-.573 1.002-.354 1.478.219.476.533.551 1.296.435.286-.045.56-.128.839-.191l.838-.184.048.214c-.403.083-.801.187-1.192.311a6.76 6.76 0 00-1.44.668 1.28 1.28 0 00-.462.729c-.063.285-.022.582.117.842.31.525.795.487 1.32.352.612-.157 1.228-.296 1.88-.453.103.566-.084.802-.608.948-.76.193-1.494.463-2.19.807a1.243 1.243 0 00-.514.699c-.078.282-.049.582.084.846.21.465.56.578 1.38.405.607-.124 1.192-.281 1.82-.424.115.705-.346.75-.76.881-.716.204-1.41.474-2.07.807-.501.292-.617 1.087-.346 1.567.27.48.767.454 1.232.376.465-.08.83-.218 1.252-.304a4.75 4.75 0 01.684-.072.57.57 0 01-.037.53.616.616 0 01-.197.2.661.661 0 01-.27.096 9.232 9.232 0 00-1.257.303c-.43.162-.833.384-1.193.66-.18.192-.298.429-.34.682-.041.254-.005.513.106.747.258.506.731.503 1.192.413.462-.09.903-.236 1.36-.323.21-.01.419.005.624.045-.29.555-.795.409-1.169.574-.595.223-1.173.484-1.729.784-.45.281-.529 1.057-.278 1.5.302.529.795.502 1.312.375.612-.161 1.232-.3 1.904-.461.055.483 0 .81-.505.915a7.545 7.545 0 00-1.046.251 5.863 5.863 0 00-1.24.585 1.305 1.305 0 00-.506.704c-.08.281-.06.58.06.849.212.468.561.585 1.376.416.613-.127 1.213-.285 1.829-.431.131.697-.322.75-.743.881-.687.189-1.353.44-1.988.75a1.246 1.246 0 00-.536.685c-.088.28-.067.581.059.849.199.476.549.608 1.375.461.398-.071.76-.21 1.145-.292.256-.039.513-.063.772-.072-.052.255-.032.484-.136.56-.232.145-.485.26-.751.34-.681.213-1.345.471-1.988.773a1.25 1.25 0 00-.493.707c-.073.283-.039.58.096.842.278.566.795.503 1.308.413.421-.075.827-.23 1.248-.312.235-.022.472-.022.708 0-.148.75-.151.75-.68.904-.657.154-1.3.36-1.92.615-.33.151-.583.418-.706.743-.123.326-.105.684.05.997.234.462.584.552 1.51.353.573-.124 1.137-.27 1.75-.416.02.55-.092.858-.609.93a4.929 4.929 0 00-1.045.255c-.441.156-.86.365-1.244.622a1.301 1.301 0 00-.462.729c-.064.284-.026.58.108.843.306.528.795.495 1.316.375.608-.154 1.22-.29 1.872-.443-.14.724-.151.69-.732.878-.718.198-1.414.462-2.079.787a1.243 1.243 0 00-.497.709 1.18 1.18 0 00.1.844c.29.562.815.469 1.316.397.25-.033.489-.112.735-.168l1.193-.274c0 .274.032.465-.04.521-.244.18-.511.33-.795.446-.703.238-1.39.515-2.06.83-.484.262-.58.99-.365 1.473.215.484.525.559 1.288.446.213-.036.424-.084.632-.142l1.193-.289c.198.416.083.638-.243.75-.326.113-.715.128-1.045.251a7.127 7.127 0 00-1.443.664 1.283 1.283 0 00-.466.726c-.064.285-.025.581.112.842.306.532.795.499 1.316.375.612-.158 1.232-.296 1.896-.458.08.552-.076.803-.608.95-.76.189-1.495.46-2.19.806a1.24 1.24 0 00-.49.67c-.08.268-.06.554.056.81.21.47.556.586 1.375.413.609-.123 1.213-.28 1.829-.427.123.697-.33.75-.755.881-.687.19-1.352.44-1.988.75a1.249 1.249 0 00-.534.688 1.18 1.18 0 00.06.85c.204.472.554.604 1.38.454.398-.072.76-.21 1.145-.293.256-.037.513-.06.772-.067-.056.255-.036.487-.14.562a3.395 3.395 0 01-.755.338c-.681.212-1.345.47-1.988.772a1.254 1.254 0 00-.494.71c-.072.283-.038.58.097.843.286.563.795.499 1.312.409.517-.09.974-.225 1.59-.375.067.182.12.369.155.559.052 1.15.19 1.518 1.9 1.706.36.011.72.004 1.077-.023.537 0 1.074.027 1.614.053.856.106 1.718.148 2.58.124 3.38-.353 6.759-.308 10.154-.308h.54c4.214-.097 8.432-.225 12.65-.285 1.59-.022 3.18.266 4.746.146a86.985 86.985 0 018.094-.255c1.225.023 2.45-.037 3.674 0 1.872.042 3.744.124 5.613.184.648.023 1.3.026 1.944.056 1.8.087 3.597.184 5.394.274a90.49 90.49 0 002.266.09c1.694.045 3.387.116 5.08.094 1.154 0 2.346-.124 3.253-.904l.087-2.036-1.002-.023zM3.331 4.748l-1.313.397c-.314-.517-.182-.821.151-.926 1.909-.596 3.829-1.163 5.86-.503.028 0 .044.053.104.143-.1.19-.27.338-.479.417a.957.957 0 01-.65.007c-1.285-.285-2.481.09-3.674.465zm-.148 3.33c-.397.131-.795.206-1.165.3-.302-.42-.21-.679.104-.87.18-.112.379-.196.588-.248 1.59-.345 3.137-.75 4.77-.465.174.035.342.09.501.162.056.022.088.1.16.19a.923.923 0 01-.467.386.991.991 0 01-.619.027c-1.36-.28-2.62.08-3.872.514v.004zm.115 3.12c-.425.135-.866.233-1.292.349-.31-.48-.194-.799.203-.923 1.809-.615 3.658-.975 5.59-.6.123.023.226.135.397.233a.912.912 0 01-.462.444.99.99 0 01-.659.047c-1.324-.33-2.548.053-3.777.446v.004zm0 3.267c-.425.138-.866.232-1.327.375-.267-.612 0-.863.346-.983a12.404 12.404 0 015.18-.656c.14.022.274.068.397.135.094.064.18.138.254.221a.913.913 0 01-.457.414.985.985 0 01-.632.044c-1.316-.334-2.54.048-3.768.446l.007.004zm-.031 3.176c-.398.128-.795.237-1.157.338-.398-.334-.318-.593-.052-.833a.777.777 0 01.282-.15c1.686-.499 3.391-.877 5.168-.596.245.068.481.163.704.281a1.035 1.035 0 01-.51.43c-.216.085-.456.1-.683.043-1.307-.278-2.536.082-3.76.483l.008.004zm.055 3.233c-.429.135-.866.263-1.252.375-.37-.375-.278-.634 0-.863a.86.86 0 01.282-.142c1.69-.48 3.395-.874 5.168-.578.24.068.475.154.7.26-.124.196-.312.35-.537.437a1.192 1.192 0 01-.707.05c-1.264-.29-2.457.086-3.654.461zm.056 3.15l-1.344.375c-.342-.442-.234-.75.104-.874 1.864-.66 3.776-1.06 5.776-.596.111.036.22.078.326.128-.37.48-.708.675-1.193.543-1.26-.345-2.453.09-3.669.424zm0 3.267l-1.348.375c-.338-.416-.218-.747.104-.867 1.864-.675 3.776-1.05 5.776-.6a1.4 1.4 0 01.298.162c-.334.446-.676.641-1.149.51-1.272-.345-2.465.086-3.657.42h-.024zm-.159 3.334c-.398.127-.795.214-1.22.322-.287-.45-.207-.772.19-.911 1.84-.626 3.721-1.013 5.685-.574.092.019.16.116.497.375-.572.143-.958.375-1.268.293-1.376-.308-2.624.082-3.884.495zm.072 3.24c-.426.135-.863.233-1.328.356-.27-.615 0-.866.346-.982a12.284 12.284 0 015.187-.642c.141.02.276.067.398.136.095.062.18.137.254.22a.909.909 0 01-.457.414.982.982 0 01-.632.04c-1.316-.33-2.54.053-3.768.45v.008zm0 3.154c-.43.135-.863.251-1.312.375-.279-.536-.132-.829.202-.934 1.88-.589 3.777-1.087 5.773-.529.06 0 .095.098.175.188a.935.935 0 01-.494.407 1 1 0 01-.655.01c-1.288-.263-2.481.108-3.678.464l-.011.02zm-1.285 3.608c-.318-.413-.202-.668.108-.859.177-.114.375-.197.584-.244 1.566-.349 3.129-.75 4.77-.468.285.08.563.18.831.3-1.156.94-2.21.086-3.343.21a8.077 8.077 0 01-2.938 1.053l-.012.008zm1.328 2.404c-.433.131-.87.255-1.26.375-.397-.375-.31-.619 0-.844.113-.085.24-.15.378-.191a13.26 13.26 0 014.881-.596c.324.072.639.172.943.3-.438.46-.768.656-1.257.528-1.288-.352-2.476.068-3.673.42l-.012.008zm.032 3.255l-1.348.375c-.338-.446-.226-.75.108-.874 1.868-.663 3.776-1.061 5.78-.592.107.038.208.088.302.15-.35.45-.688.645-1.165.517-1.28-.352-2.449.075-3.665.417l-.012.007zm-.127 3.21c-.398.132-.795.233-1.233.357-.337-.548-.15-.837.227-.96 1.781-.574 3.578-.968 5.486-.6.147.026.274.16.47.28a1.071 1.071 0 01-.522.4c-.215.078-.45.089-.671.032-1.296-.285-2.52.083-3.745.484l-.012.007zm-.052 3.286a9.307 9.307 0 01-1.16.31c-.343-.404-.227-.66.07-.865.12-.083.255-.144.398-.18 1.638-.417 3.28-.822 4.997-.533.248.07.487.161.716.274a.975.975 0 01-.488.438 1.05 1.05 0 01-.673.046c-1.367-.36-2.612 0-3.848.502l-.012.008zm.16 2.902l-1.261.375c-.398-.352-.322-.61-.032-.84a1.17 1.17 0 01.374-.195 13.274 13.274 0 014.882-.6c.325.067.642.165.946.293-.398.469-.752.667-1.237.536-1.276-.349-2.464.079-3.66.424l-.013.007zm0 3.267l-1.333.398c-.357-.56-.147-.844.22-.964a11.552 11.552 0 015.39-.634c.183.026.346.187.56.307-.342.394-.68.593-1.165.462-1.276-.35-2.464.07-3.66.423l-.013.008zm-.112 3.203c-.398.131-.795.232-1.229.356-.337-.548-.15-.836.231-.96 1.777-.574 3.578-.964 5.482-.6.151.03.278.165.47.285-.126.181-.309.32-.523.397-.215.077-.45.088-.67.03-1.296-.285-2.525.09-3.75.484l-.011.008zm-.072 3.296c-.397.135-.795.206-1.153.296-.322-.423-.202-.682.108-.87a1.9 1.9 0 01.588-.243c1.59-.345 3.137-.75 4.77-.462.246.07.484.16.712.27a.978.978 0 01-.484.44c-.21.089-.446.107-.669.052-1.343-.29-2.604.078-3.86.51l-.012.007zm.187 3.297l-1.348.375c-.345-.525-.139-.814.227-.938a11.596 11.596 0 015.39-.634c.205.072.396.174.565.304-.338.401-.676.597-1.157.469-1.276-.356-2.464.079-3.665.416l-.012.008zm0 3.266l-1.348.375c-.353-.521-.15-.814.22-.934 1.78-.58 3.577-.945 5.49-.607.154.026.285.165.464.274-.33.401-.668.596-1.149.469-1.272-.357-2.46.07-3.661.416l-.016.007zm-.155 3.24c-.397.136-.795.214-1.228.327-.263-.596-.048-.859.334-.975 1.749-.54 3.522-.93 5.382-.59.175.061.341.143.493.245a.9.9 0 01-.455.436.977.977 0 01-.646.047c-1.363-.296-2.624.064-3.88.51zm.14 3.21l-1.32.398c-.33-.57-.136-.855.242-.971 1.817-.57 3.657-.994 5.59-.563.09.02.166.113.301.21a.872.872 0 01-.47.447.948.948 0 01-.667.019c-1.288-.285-2.48.067-3.677.442v.019zm-.037 3.166c-.425.135-.866.233-1.292.349-.31-.476-.186-.788.203-.919 1.809-.615 3.658-.975 5.59-.6.123.022.226.135.397.233a.912.912 0 01-.454.437.99.99 0 01-.647.054c-1.344-.33-2.568.071-3.797.446zm.068 3.24l-1.352.375c-.35-.525-.143-.813.223-.937a11.618 11.618 0 015.395-.638c.204.072.395.174.564.304-.338.401-.672.6-1.157.469-1.288-.345-2.476.082-3.673.427zm-.183 3.233c-.397.135-.795.21-1.192.311l-.239-.273c.16-.222.266-.574.477-.645 1.84-.597 3.713-1.043 5.68-.574.109.042.21.098.3.169a.965.965 0 01-.477.442 1.044 1.044 0 01-.665.056c-1.371-.277-2.632.083-3.884.514zm.072 3.237c-.398.13-.795.236-1.157.337-.398-.341-.31-.596-.044-.836a.741.741 0 01.282-.146c1.686-.5 3.391-.878 5.168-.597.245.07.481.166.704.285a1.06 1.06 0 01-.513.422 1.138 1.138 0 01-.68.047c-1.307-.277-2.536.086-3.76.488z" fill="#543018" stroke="#543018" stroke-width=".4"/><path d="M27.255 21.432a.295.295 0 01.027-.199.512.512 0 01.223-.168c.106-.058.218-.106.334-.143a.334.334 0 00.159-.094c0-.24.083-.375.27-.4a.484.484 0 01.239.067.477.477 0 00.242.07l.191-.04c.115-.023.25-.057.398-.102l.536-.142.597-.158a5.71 5.71 0 00.37-.094l.397-.116.358-.093.214-.05a.459.459 0 01.171 0 .63.63 0 01.183.068c.056.029.109.061.16.098.042.03.072.074.083.123.01.049 0 .099-.028.14a.199.199 0 01-.123.082.858.858 0 000 .206v.375c.045.8.103 1.562.175 2.284a30.2 30.2 0 00.278 2.093c.183 1.095.421 1.793.72 2.085a.775.775 0 01-.339.203c-.35.05-.604-.187-.763-.71a13.1 13.1 0 01-.298-1.046 13.29 13.29 0 01-.151-.75 78.984 78.984 0 01-.62-4.422c0-.06-.032-.093-.068-.1a.497.497 0 00-.147 0 14.73 14.73 0 00-.723.202c-.259.079-.505.154-.732.236a5.52 5.52 0 00-.564.225c-.152.068-.223.124-.215.173l.087.525a30.17 30.17 0 01.354 2.895 8.94 8.94 0 01-.008 1.969 2.302 2.302 0 01-.46 1.155c-.22.255-.534.422-.88.465-.148.021-.298.03-.449.026a1.97 1.97 0 01-.485-.07 1.607 1.607 0 01-.46-.203 1.27 1.27 0 01-.398-.375 1.305 1.305 0 01-.23-.492.406.406 0 01.039-.292.238.238 0 01.076-.086.254.254 0 01.11-.042.486.486 0 01.37.132 1.1 1.1 0 01.334.513.403.403 0 00.155.207c.07.049.15.083.235.1a1.1 1.1 0 00.262.027 2.49 2.49 0 00.259-.022c.909-.135 1.151-1.47.727-4.006l-.362-2.183a.89.89 0 00-.27.132.45.45 0 01-.175.097.272.272 0 01-.144-.019.255.255 0 01-.11-.09.577.577 0 01-.131-.266zm14.125.814a5.074 5.074 0 01-.299 2.91 2.66 2.66 0 01-.865 1.18 2.9 2.9 0 01-1.389.583 3.285 3.285 0 01-.962-.045c-1.418-.205-2.283-1.248-2.596-3.128a5.745 5.745 0 01.286-3.075c.442-1.125 1.193-1.79 2.274-1.95.938-.135 1.753.206 2.445 1.035a5.04 5.04 0 011.105 2.49zm-.697 0c-.278-1.69-1.044-2.638-2.297-2.843a1.048 1.048 0 00-.35 0 2.255 2.255 0 00-1.411.896c-.724.883-.954 2.116-.692 3.698.048.23.119.454.21.672.167.525.485.996.919 1.361.236.159.505.269.79.324.283.055.576.053.86-.005.441-.06.854-.244 1.183-.528.329-.285.56-.656.661-1.066.25-.817.293-1.677.128-2.513v.004zm3.665-3.292c0 .167.016.373.047.618 0 .244.044.518.072.818.028.3.064.619.103.956.04.338.092.686.151 1.043.138.855.27 1.542.398 2.062.07.392.239.761.493 1.077a.774.774 0 01-.338.202c-.366.053-.62-.183-.763-.709-.108-.405-.21-.82-.298-1.24a31.826 31.826 0 01-.485-2.952 46.798 46.798 0 01-.167-1.61 1.312 1.312 0 00-.068-.228 1.048 1.048 0 01-.064-.195c-.026-.17.09-.295.346-.375l.338-.105c.167-.056.362-.127.58-.21l.7-.263c.25-.09.493-.176.724-.25l.624-.207c.14-.045.281-.082.425-.109.076-.006.152-.006.227 0 .084 0 .167.01.246.034a.674.674 0 01.207.086.216.216 0 01.107.146.16.16 0 01-.02.113.176.176 0 01-.09.075 2.22 2.22 0 01-.398.124l-.704.157a8.441 8.441 0 00-.958.278 4.134 4.134 0 00-1.435.664zm12.455 1.016a5.094 5.094 0 01-.302 2.91c-.168.46-.467.868-.865 1.18-.397.31-.878.512-1.389.582a3.29 3.29 0 01-.962-.034c-1.415-.207-2.28-1.25-2.592-3.127a5.68 5.68 0 01.286-3.072c.438-1.125 1.193-1.793 2.27-1.95.938-.139 1.753.203 2.445 1.031a5.1 5.1 0 011.11 2.48zm-.695 0c-.284-1.693-1.052-2.64-2.306-2.843a1.053 1.053 0 00-.35 0 2.25 2.25 0 00-1.415.9c-.721.885-.949 2.122-.684 3.712.05.23.12.454.21.672.17.524.488.994.92 1.361.236.159.506.27.79.324.285.055.579.053.863-.005.441-.06.853-.244 1.181-.529.329-.284.558-.655.66-1.065a5.1 5.1 0 00.13-2.528z" fill="#543018" stroke="#543018" stroke-width=".4"/></svg>