<svg width="112" height="146" fill="none" xmlns="http://www.w3.org/2000/svg"><path d="M97.892 102.674c-.11-4.808 0-9.704-.439-14.49 1.12-1.01 13.525-11.9 13.547-11.879-.298-.338-.613-.66-.944-.966-1.405-1.317-3.074-2.327-4.611-3.556l-5.95-4.699c-2.634-2.064-5.818-5.38-9.067-6.411a65.856 65.856 0 00-7.553-1.537 47.548 47.548 0 00-7.64-1.054c-.308 0-.33.417 0 .505a54.88 54.88 0 008.628 2.086c2.042.44 4.391 1.098 6.587 1.361-5.16 3.337-10.298 7.487-15.128 11.11-5.203 3.908-10.736 7.618-15.566 11.987-12.625-5.488-25.293-11.394-38.203-16.313l2.613-3.82a.308.308 0 000-.132l2.59-.834-2.349 2.525c-.417.44.242 1.098.659.659l3.096-3.294a.416.416 0 00.11-.373l2.502-.856-4.39 5.138c-.396.439.263 1.097.658.658l4.984-6.016a.44.44 0 000-.395l2.195-.768-5.51 7.377c-.352.483.46.944.812.483l6.257-8.41c1.669-.658 3.337-1.316 4.962-2.041.55-.242.154-1.076-.395-.922a214.741 214.741 0 00-23.976 8.54.353.353 0 00-.22.22.307.307 0 00-.219.11 68.19 68.19 0 00-7.18 9.2c-1.712 2.327-3.358 4.632-5.137 6.981a9.654 9.654 0 01-1.12 1.58c-.35.308-.856.33-1.163.704-1.58 1.888 2.942 2.876 3.974 3.38 2.986 1.406 6.016 2.723 9.067 4.019 0 1.756-.131 3.534-.153 5.313h-.044a.394.394 0 000 .637v9.243a82.901 82.901 0 00.285 14.205.504.504 0 00.154.681 244.691 244.691 0 0044.24 23.119.595.595 0 00.813-.329.526.526 0 00.505-.44c6.345-3.995 12.405-8.584 18.596-12.822 6.192-4.237 12.603-8.65 18.75-13.173a.502.502 0 00.22-.154l.197-.153a.685.685 0 00.185-.819.682.682 0 00-.185-.235c.25-4.974.235-9.958-.044-14.93zM61.974 88.118l-2.195 2.37c0-1.273-.132-2.546-.22-3.82.776.498 1.58.981 2.415 1.45zM58.33 93.21a.418.418 0 00-.725 0c-1.383 1.559-2.744 3.14-4.128 4.72.308-.658.55-1.12.637-1.295 1.471-2.678 3.008-5.357 4.391-8.145 0 1.185 0 2.37-.11 3.556a.484.484 0 000 .703l-.065.461zm1.493-1.493c.988-1.076 1.997-2.195 3.008-3.205l2.041 1.097-4.962 4.918c-.022-.856-.066-1.778-.087-2.722v-.088zM22.717 65.24L20.52 68.4l-3.666-1.36 5.862-1.801zM2.583 86.076c2.196-2.723 4.392-5.6 6.587-8.453a91.387 91.387 0 007.136-9.793c.042.1.12.178.22.22C30.137 74.79 44.54 80.301 58.57 86.12a.46.46 0 000 .285c-2.196 3.227-3.952 6.74-5.818 10.165a84.698 84.698 0 00-4.677 8.783l-.878-.286c-7.597-3.732-15.566-6.85-23.36-10.187-7.092-3.074-14.052-6.214-21.254-8.804zm12.91 6.872l3.074 1.273-2.854 2.327c-.066-1.141-.11-2.415-.22-3.6zm0 29.047c.4-4.769.458-9.56.176-14.337v-9.924l3.6-2.942a.527.527 0 00.132-.198l1.23.527-3.996 2.898c-.483.352 0 1.164.483.813l4.391-3.14a.286.286 0 00.154-.175l2.086.878-6.28 3.732c-.505.308 0 1.12.461.813l6.367-3.82a.373.373 0 00.198-.374l2.657 1.12-6.763 4.127c-.505.308 0 1.12.483.813l6.587-4.062a.462.462 0 00.176-.57l4.61 1.997-7.091 4.523a.484.484 0 00.483.812l7.201-4.61a.484.484 0 00.22-.374l1.998.879-8.782 5.993c-.506.352 0 1.164.482.813l8.783-6.038a.437.437 0 00.197-.461l3.952 1.647a29.782 29.782 0 01-6.191 4.391.467.467 0 10.46.812 31.351 31.351 0 006.697-4.918c1.757.725 3.513 1.427 5.292 2.086l-6.126 5.379c-.461.395.198 1.054.659.659l6.257-5.379a.422.422 0 00.132-.396l1.668.615-3.556 3.293c-.44.396.22 1.054.658.659l12.45-11.307c.438-.395-.22-1.054-.66-.659l-8.584 7.795a42.265 42.265 0 003.117-5.511l.198-.132 6.104-6.982v9.199a113.038 113.038 0 00-11.505 9.749c-.44.417.22 1.076.659.658a112.384 112.384 0 0110.977-9.265v2.196a.436.436 0 00-.307.088 479.914 479.914 0 01-4.523 4.83c-.395.439.264 1.098.68.658l4.172-4.391v2.789a.396.396 0 00-.548 0l-3.909 4.896c-.395.461.264 1.119.66.658 1.316-1.58 2.634-3.139 3.93-4.72v2.964a.483.483 0 00-.528 0l-3.776 3.864c-.417.417.241 1.076.659.659 1.207-1.252 2.437-2.481 3.644-3.711-.01.183-.01.366 0 .549 0 9.441-.593 19.365.44 28.762a367.166 367.166 0 01-43.429-22.197h-.066zm62.09 9.331c-5.708 4.106-11.724 7.992-17.3 12.383.768-9.287 0-18.992-.22-28.279 0-6.586 0-13.019-.11-19.54l5.819-5.775 1.975 1.076a.395.395 0 00-.46 0l-6.587 7.18c-.417.439.241 1.098.658.658l6.587-7.18a.46.46 0 000-.724l2.196 1.274-6.85 8.782c-.374.461.285 1.12.658.659l6.982-9.024a46.505 46.505 0 013.776 2.788c-2.21 3.03-4.405 6.053-6.586 9.068-.352.505.46.966.812.483l6.587-8.958c.505.395 1.01.79 1.493 1.208l-5.73 7.179c-.374.461.285 1.12.658.659l5.796-7.267h.132l1.076.9a1075.486 1075.486 0 01-4.106 6.586c-.307.505.505.966.813.461 1.36-2.195 2.722-4.391 4.061-6.433.366.29.755.546 1.164.769l.307.132-3.337 5.489c-.33.505.483.988.79.461l3.294-5.401c.834 0 1.405-.593 2.371-1.318a70.579 70.579 0 002.744-2.195 28.938 28.938 0 01-4.017 5.994c-.396.461.263 1.119.658.658a29.925 29.925 0 004.896-7.728.373.373 0 000-.264l2.02-1.756c-.9 2.042-1.8 4.084-2.722 6.126-.242.548.57 1.031.812.483l3.623-8.146c1.141-1.054 2.195-2.195 3.49-3.14l-3.293 7.356c-.241.548.571 1.031.813.483l3.074-6.894c-.198 4.017 0 8.08 0 12.075 0 5.072-.132 10.253.263 15.369-6.39 4.281-12.69 8.804-19.013 13.283h-.066zm19.19-44.701l-1.317 1.163c-4.392 3.952-9.2 7.75-13.328 12.032h-.11a45.778 45.778 0 00-9.923-7.86 46.48 46.48 0 00-11.703-6.126c5.862-3.6 11.242-8.145 16.73-12.251A148.9 148.9 0 0091.307 62.89c5.335 4.83 11.614 9.09 17.367 13.414-3.996 3.403-7.926 6.894-11.856 10.385l-.044-.066z" fill="#543018" stroke="#543018" stroke-width=".2"/><path d="M35.034 40.85a111.973 111.973 0 0123.47 38.796c.264.768 1.515.922 1.713 0 .197-.922.46-2.064.724-3.096a.352.352 0 00.396-.242c2.195-5.027 4.5-10.055 6.74-15.105.241-.527-.57-1.01-.812-.461L62.346 71.72a87.366 87.366 0 016.104-14.206 89.23 89.23 0 015.84-9.375c1.318-1.822 2.767-3.534 4.194-5.247.615-.724 4.018-3.82 2.195-4.567h-.131a15.754 15.754 0 00-2.877 0c-1.141 0-2.195-.11-3.447-.11-2.308-.04-4.616.04-6.916.242.242-5.994.462-12.01.66-18.004.109-3.359.416-6.586.548-10.033 0-1.844.11-3.733.132-5.555 0-1.186-.132-2.35-1.537-2.459a134.3 134.3 0 00-3.689-.242c-1.888-.11-3.798-.22-5.686-.373a82.11 82.11 0 00-5.709-.285c-1.207-.022-2.722-.813-4.017-.373-.79.307-.9.68-.9 1.47V6.38c0 4.391.702 8.782.944 13.173.329 6.236.702 12.471 1.053 18.728a96.017 96.017 0 00-12.822.264h-.153l-2.196.154a.462.462 0 00-.33.79c.47.468.945.922 1.428 1.361zM67.308 4.01c-.724 5.137-.505 10.582-.746 15.698-.293 6.499-.556 13.012-.79 19.54 0 .769 4.017.352 4.676.44 1.405.153 2.854.175 4.282.197.636 0 3.556.461 3.995 0A71.441 71.441 0 0066.87 57.273a96.604 96.604 0 00-7.486 19.057 2.482 2.482 0 00-.264-1.075 2.35 2.35 0 00.79-.879c.242-.549-.548-1.01-.812-.483-.094.189-.23.353-.395.483l-.22-.505a79.996 79.996 0 00-.966-2.459l3.206-1.932c.505-.329 0-1.12-.461-.812l-3.14 1.888c-.307-.724-.615-1.449-.944-2.195l5.16-2.833c.526-.285 0-1.098-.484-.79l-5.181 2.744a11.237 11.237 0 00-.417-.9l-.44-.878 6.104-3.469a.483.483 0 00-.483-.812L54.4 64.87l-.703-1.471 7.465-4.26c.527-.285 0-1.098-.483-.812-2.59 1.427-5.006 2.832-7.487 4.15l-.746-1.362 9.22-5.27a.483.483 0 00-.482-.812l-9.221 5.27a36.172 36.172 0 00-.9-1.537l9.66-5.072c.527-.285 0-1.098-.483-.812l-9.66 5.203-1.12-1.8 9.88-4.984c.526-.263 0-1.076-.461-.812l-9.946 5.006-1.12-1.647 9.682-5.467c.527-.285 0-1.098-.483-.812L47.263 53.1l-1.427-1.975 11.944-6.587a.468.468 0 00-.461-.813l-12.076 6.719-.856-1.098 10.319-5.84a.468.468 0 00-.461-.813l-10.473 5.928a38.36 38.36 0 00-1.207-1.427l13.173-7.991c.527-.308 0-1.12-.461-.79L41.95 46.47l-1.12-1.208 9.2-5.203a.504.504 0 00.219-.352l.198-.131 6.981-4.391c.506-.33 0-1.142-.482-.813l-6.587 4.216c0-.571 0-1.142-.11-1.713l7.904-4.654a.483.483 0 00-.483-.813L50.183 35.8v-1.12l7.553-4.391a.467.467 0 00-.461-.813l-7.092 3.952-.132-2.415 8.673-4.962c.527-.307 0-1.098-.483-.812-2.745 1.58-5.49 3.161-8.255 4.72v-1.976l9.287-5.862c.505-.307 0-1.12-.461-.812l-8.782 5.598v-1.515l9-5.992c.505-.33 0-1.142-.46-.79l-8.607 5.708v-1.603l8.123-5.62c.505-.33 0-1.142-.483-.813l-8.08 5.357v-1.712h.132l7.904-4.59a.461.461 0 00-.46-.79l-7.795 4.37v-1.34l8.167-4.94a.463.463 0 10-.483-.79l-7.684 4.655v-1.493l7.97-4.59c.527-.285 0-1.097-.483-.812l-7.487 4.348v-1.823l7.618-5.291c.505-.351 0-1.164-.46-.812l-7.29 4.984V9.037l6.39-4.392c.482-.35 0-1.163-.484-.812l-6.06 4.128c0-.659-.11-1.296-.197-1.954l3.49-2.415a.417.417 0 00.198-.396c4.897.461 9.968.571 14.798.813zM51.5 2.999l-2.854 1.976a28.724 28.724 0 00-.417-2.46L51.501 3zm-2.81 36.644l-8.497 4.808-1.317-1.34 6.433-3.446c.747 0 1.471-.11 2.196-.11.396.006.792.035 1.185.088zm-5.664.197l-4.699 2.525-.132.132-.922-.856 3.733-1.779h2.042l-.022-.022zm-4.128 0l-2.196 1.01a.308.308 0 00-.197.176c-.176-.154-.33-.33-.505-.461-.176-.132-.769-.988-1.032-1.032 1.34.154 2.635.241 3.93.307zm-9.617 59.634l-7.64 4.72c-.505.329 0 1.142.483.812l7.64-4.808c.505-.241.044-1.054-.483-.724zm7.619 3.071a578.936 578.936 0 00-6.082 4.194c-.505.351 0 1.141.461.812l6.082-4.215c.505-.33.022-1.142-.461-.791zm5.643 2.391l-6.872 5.423c-.46.374.198 1.032.659.659l6.872-5.423c.483-.373-.197-1.032-.659-.659zm29.133-10.429l-6.455 8.65c-.374.483.439.966.812.483l6.455-8.782c.351-.373-.461-.834-.812-.351zM37.867 60.275c-1.823 2.788-3.667 5.576-5.49 8.387-.329.505.484.966.813.46 1.823-2.788 3.645-5.598 5.49-8.386.328-.615-.484-1.076-.813-.461zm-2.197 8.778c1.932-3.118 3.85-6.235 5.752-9.353a.522.522 0 00-.9-.527l-5.73 9.353a.511.511 0 10.878.527zm1.122 2.686l7.64-12.844c.308-.505-.505-.988-.812-.461l-7.64 12.822c-.308.527.504 1.01.812.483z" fill="#543018" stroke="#543018" stroke-width=".2"/><path d="M39.557 71.252l6.785-12.273c.285-.527-.527-1.01-.813-.483l-6.784 12.273c-.285.483.527.944.812.483zm1.69.916a88.783 88.783 0 007.026-12.844c.242-.549-.57-1.01-.812-.46a86.728 86.728 0 01-6.938 12.843c-.417.505.395.966.724.461zm2.196 1.808l5.862-11.505c.285-.548-.527-1.01-.79-.483-1.998 3.843-3.974 7.685-5.972 11.505-.176.549.614 1.01.9.483zm1.931-.518c1.815-2.927 3.623-5.855 5.423-8.782.33-.505-.483-.966-.79-.461l-5.445 8.782c-.307.461.505.988.812.461zm2.92 1.372a37.874 37.874 0 004.216-8.168c.22-.549-.681-.79-.9-.242a37.324 37.324 0 01-4.128 7.926c-.373.505.46.966.812.483zm2.526.184l2.656-4.677c.286-.527-.527-.988-.812-.46l-2.657 4.676a.469.469 0 00.349.694.468.468 0 00.463-.233zm1.252 2.496c.79-1.405 1.558-2.81 2.349-4.193.285-.527-.505-1.01-.812-.483l-2.328 4.215a.46.46 0 00.79.461zM71.26 59.898l-7.795 16.203c-.263.55.55 1.032.813.483l7.794-16.203c.242-.549-.57-1.01-.812-.483zm3.601-.036l-8.475 15.786c-.285.527.505.988.79.46l8.476-15.83a.461.461 0 00-.79-.416zm2.722.273c-2.37 4.392-4.72 8.607-7.091 12.888-.286.527.505 1.01.812.483 2.342-4.303 4.706-8.599 7.092-12.888.285-.526-.55-1.01-.813-.483zm1.648 1.261c-1.317 2.678-2.613 5.357-3.93 8.014-.264.549.549 1.032.812.483 1.296-2.679 2.613-5.358 3.908-8.014.264-.549-.527-1.01-.79-.483zm1.689 1.074l-2.524 5.6c-.264.548.549 1.01.79.46.856-1.866 1.713-3.71 2.547-5.576.242-.615-.549-1.098-.812-.483zm1.318 3.808l1.251-2.789c.242-.549-.57-1.032-.812-.483l-1.251 2.81c-.352.55.46 1.054.812.462zM38.569 100.75a.33.33 0 00.22.307l.307.176c.527.263 1.01-.549.483-.813l-.33-.153a.351.351 0 00-.219-.308L8.578 85.908c-.55-.264-1.01.549-.461.79l30.43 14.052h.022zm1.625.754l4.852 2.196c.549.241 1.01-.571.461-.813l-4.83-2.195c-.549-.242-1.032.571-.483.812zm8.519-.581l6.302-12.097c.263-.527-.55-1.01-.813-.483l-6.301 12.119c-.264.527.549 1.01.812.461zm33.527-6.095a108.284 108.284 0 00-16.95-9.924c-.549-.241-1.032.55-.483.813a107.272 107.272 0 0116.95 9.924c.483.35.922-.462.483-.813zm21.953-16.867l-21.67 18.07c-.461.395.198 1.054.659.68l21.67-18.09c.351-.374-.308-1.033-.659-.66zM83.798 92.608l7.772-6.257c.483-.373-.197-1.032-.659-.659L83.14 91.95c-.461.373.198 1.032.659.658zm-42.551 7.998c.57.198.812-.703.263-.922a38.114 38.114 0 01-9.968-5.599c-.46-.351-1.12.308-.658.659a40.947 40.947 0 0010.363 5.862z" fill="#543018" stroke="#543018" stroke-width=".2"/></svg>