<svg width="112" height="146" viewBox="0 0 112 146" fill="none" xmlns="http://www.w3.org/2000/svg">
<path d="M97.8925 102.674C97.7828 97.8658 97.8925 92.9697 97.4534 88.1833C98.5732 87.1734 110.978 76.2834 111 76.3054C110.702 75.9674 110.387 75.645 110.056 75.3393C108.651 74.022 106.982 73.012 105.445 71.7825L99.4953 67.084C96.8606 65.0202 93.6771 61.7049 90.4276 60.673C87.9422 60.0137 85.4203 59.5005 82.8749 59.1361C80.3608 58.5785 77.8056 58.2261 75.2344 58.0823C74.927 58.0823 74.9051 58.4994 75.2344 58.5872C78.0495 59.5143 80.9352 60.2119 83.8629 60.673C85.9048 61.1121 88.254 61.7708 90.4496 62.0343C85.29 65.3715 80.1524 69.5211 75.3222 73.1438C70.1187 77.0519 64.5859 80.7624 59.7557 85.1315C47.1313 79.6426 34.4629 73.7366 21.553 68.8185L24.1657 64.9983C24.1752 64.9549 24.1752 64.9099 24.1657 64.8665L26.7565 64.0322L24.4072 66.5571C23.9901 66.9962 24.6488 67.6549 25.0659 67.2158L28.1616 63.9224C28.2089 63.8738 28.2436 63.8144 28.2627 63.7494C28.2818 63.6844 28.2848 63.6156 28.2714 63.5492L30.7744 62.6929L26.3832 67.8305C25.988 68.2696 26.6467 68.9283 27.0419 68.4892L32.0258 62.4734C32.0567 62.4121 32.0728 62.3444 32.0728 62.2758C32.0728 62.2071 32.0567 62.1395 32.0258 62.0782L34.2214 61.3097L28.7105 68.6868C28.3592 69.1698 29.1716 69.6309 29.5229 69.1698L35.7802 60.7608C37.4488 60.1022 39.1175 59.4435 40.7422 58.719C41.2911 58.4775 40.8959 57.6431 40.347 57.7968C32.1933 60.1672 24.1874 63.0191 16.3715 66.3375C16.3205 66.3549 16.2742 66.3837 16.2361 66.4217C16.1981 66.4598 16.1693 66.5061 16.1519 66.5571C16.1098 66.5593 16.0685 66.5702 16.0307 66.5891C15.993 66.608 15.9595 66.6345 15.9324 66.6669C13.2808 69.5226 10.8788 72.6003 8.75292 75.8663C7.04038 78.1936 5.39372 80.4989 3.61532 82.8481C3.29598 83.4113 2.92085 83.9409 2.49558 84.4289C2.14429 84.7363 1.63931 84.7583 1.33194 85.1315C-0.248865 87.0197 4.27398 88.0077 5.30589 88.5127C8.29185 89.9178 11.3217 91.2352 14.3735 92.5305C14.3735 94.287 14.2418 96.0654 14.2199 97.8438H14.1759C14.126 97.8805 14.0854 97.9285 14.0575 97.9838C14.0295 98.0391 14.0149 98.1002 14.0149 98.1622C14.0149 98.2241 14.0295 98.2852 14.0575 98.3405C14.0854 98.3958 14.126 98.4438 14.1759 98.4805C14.1759 101.554 14.1759 104.65 14.1759 107.724C13.8644 112.458 13.9599 117.211 14.4614 121.929C14.3945 122.04 14.3731 122.173 14.4018 122.3C14.4304 122.427 14.5068 122.538 14.6151 122.61C28.535 131.804 43.359 139.551 58.8555 145.729C58.9299 145.765 59.011 145.784 59.0934 145.787C59.1759 145.789 59.258 145.775 59.3345 145.744C59.4109 145.713 59.4801 145.666 59.5375 145.607C59.5949 145.548 59.6393 145.477 59.6679 145.4C59.7899 145.396 59.9069 145.351 59.999 145.27C60.0911 145.19 60.1526 145.081 60.1729 144.96C66.518 140.965 72.5778 136.376 78.7692 132.138C84.9607 127.901 91.3717 123.488 97.5193 118.965C97.605 118.935 97.6808 118.881 97.7388 118.811L97.9364 118.658C98.0145 118.594 98.0774 118.513 98.1206 118.422C98.1638 118.331 98.1863 118.232 98.1863 118.131C98.1863 118.03 98.1638 117.93 98.1206 117.839C98.0774 117.748 98.0145 117.668 97.9364 117.604C98.1861 112.63 98.1714 107.646 97.8925 102.674ZM61.9732 88.1175L59.7777 90.4887C59.7777 89.2153 59.6459 87.9418 59.5581 86.6684C60.3339 87.1661 61.1389 87.6491 61.9732 88.1175ZM58.3286 93.2112C58.2921 93.1473 58.2394 93.0942 58.1758 93.0572C58.1121 93.0203 58.0399 93.0008 57.9663 93.0008C57.8928 93.0008 57.8205 93.0203 57.7569 93.0572C57.6933 93.0942 57.6405 93.1473 57.6041 93.2112C56.2209 94.77 54.8596 96.3508 53.4764 97.9316C53.7838 97.273 54.0253 96.8119 54.1131 96.6362C55.5841 93.9577 57.121 91.2791 58.5042 88.4907C58.5042 89.6763 58.5042 90.8619 58.3945 92.0475C58.3466 92.0927 58.3085 92.1471 58.2824 92.2075C58.2564 92.2679 58.243 92.333 58.243 92.3988C58.243 92.4646 58.2564 92.5297 58.2824 92.5901C58.3085 92.6505 58.3466 92.705 58.3945 92.7501L58.3286 93.2112ZM59.8216 91.7182C60.8096 90.6424 61.8195 89.5226 62.8295 88.5127L64.8713 89.6105L59.9094 94.5285C59.8874 93.6722 59.8435 92.7501 59.8216 91.806V91.7182ZM22.7167 65.2398L20.5211 68.4014L16.8545 67.0401L22.7167 65.2398ZM2.5834 86.0756C4.77896 83.3531 6.97452 80.4769 9.17007 77.6227C11.7626 74.5201 14.1463 71.2488 16.3056 67.8305C16.3478 67.9292 16.4265 68.0079 16.5252 68.0501C30.1376 74.7904 44.5405 80.3013 58.5701 86.1195C58.5399 86.2123 58.5399 86.3122 58.5701 86.4049C56.3745 89.6324 54.6181 93.1453 52.7519 96.5704C51.0224 99.4037 49.4608 102.336 48.0753 105.353L47.1971 105.067C39.6005 101.335 31.6306 98.217 23.8364 94.8798C16.7447 91.806 9.78483 88.6664 2.5834 86.0756ZM15.4933 92.9477L18.5671 94.2211L15.7128 96.5484C15.647 95.4067 15.6031 94.1333 15.4933 92.9477ZM15.4933 121.995C15.8922 117.226 15.9508 112.435 15.6689 107.658C15.6689 104.365 15.6689 101.071 15.6689 97.734L19.2696 94.792C19.328 94.737 19.3731 94.6694 19.4014 94.5944L20.6309 95.1213L16.635 98.0194C16.1519 98.3707 16.635 99.1831 17.118 98.8318L21.5091 95.6922C21.5457 95.6754 21.5782 95.651 21.6047 95.6208C21.6312 95.5905 21.651 95.555 21.6628 95.5165L23.7486 96.3947L17.4693 100.127C16.9643 100.435 17.4693 101.247 17.9303 100.94L24.2975 97.1193C24.3642 97.0843 24.4189 97.0299 24.4541 96.9633C24.4894 96.8967 24.5037 96.8209 24.4951 96.746L27.1517 97.8657L20.3894 101.993C19.8844 102.301 20.3894 103.113 20.8724 102.806L27.4591 98.744C27.5513 98.6851 27.6196 98.5954 27.6518 98.4908C27.684 98.3863 27.6779 98.2736 27.6347 98.1731L32.2454 100.171L25.1537 104.694C25.0723 104.769 25.0192 104.87 25.0032 104.979C24.9873 105.089 25.0094 105.201 25.066 105.296C25.1226 105.391 25.2102 105.464 25.3141 105.502C25.418 105.541 25.5319 105.542 25.6368 105.506L32.8382 100.896C32.9013 100.855 32.954 100.8 32.9921 100.735C33.0302 100.67 33.0527 100.597 33.0577 100.522L35.0557 101.401L26.2735 107.394C25.7685 107.746 26.2735 108.558 26.7565 108.207L35.5387 102.169C35.6148 102.122 35.6745 102.052 35.7098 101.97C35.7452 101.887 35.7544 101.796 35.7363 101.708L39.6883 103.355C37.8203 105.077 35.7396 106.552 33.4968 107.746C33.4435 107.776 33.3966 107.817 33.359 107.865C33.3213 107.913 33.2935 107.969 33.2772 108.028C33.2608 108.087 33.2563 108.149 33.2639 108.209C33.2715 108.27 33.2909 108.329 33.3212 108.382C33.3515 108.436 33.392 108.483 33.4403 108.52C33.4887 108.558 33.5441 108.586 33.6032 108.602C33.6623 108.618 33.7241 108.623 33.7849 108.615C33.8458 108.608 33.9046 108.588 33.9579 108.558C36.3985 107.223 38.6504 105.569 40.6544 103.64C42.4108 104.365 44.1672 105.067 45.9456 105.726L39.82 111.105C39.359 111.5 40.0176 112.159 40.4787 111.764L46.736 106.385C46.7907 106.336 46.8317 106.274 46.8548 106.205C46.8779 106.135 46.8824 106.061 46.8678 105.989L48.5364 106.604L44.9796 109.897C44.5405 110.293 45.1992 110.951 45.6383 110.556L58.0871 99.249C58.5262 98.8538 57.8675 98.1951 57.4284 98.5903L48.8438 106.385C50.0196 104.628 51.0618 102.786 51.9615 100.874L52.1591 100.742L58.2627 93.7601C58.2627 96.8338 58.2627 99.8857 58.2627 102.959C54.215 105.949 50.3715 109.206 46.758 112.708C46.3189 113.125 46.9776 113.784 47.4167 113.366C50.8745 110.047 54.5413 106.952 58.3945 104.101C58.3945 104.826 58.3945 105.528 58.3945 106.297C58.2846 106.286 58.1749 106.318 58.0871 106.385C56.5941 108.009 55.0792 109.612 53.5642 111.215C53.169 111.654 53.8277 112.313 54.2449 111.873L58.4164 107.482V110.271C58.3427 110.2 58.2444 110.16 58.142 110.16C58.0396 110.16 57.9412 110.2 57.8675 110.271L53.9594 115.167C53.5642 115.628 54.2229 116.286 54.6181 115.825C55.9354 114.245 57.2528 112.686 58.5481 111.105V114.069C58.4697 114.018 58.3782 113.991 58.2847 113.991C58.1911 113.991 58.0996 114.018 58.0212 114.069L54.2449 117.933C53.8277 118.35 54.4864 119.009 54.9035 118.592C56.1111 117.34 57.3406 116.111 58.5481 114.881C58.5376 115.064 58.5376 115.247 58.5481 115.43C58.5481 124.871 57.9553 134.795 58.9873 144.192C44.0352 137.764 29.5272 130.348 15.5591 121.995H15.4933ZM77.5836 131.326C71.8752 135.432 65.8594 139.318 60.2826 143.709C61.0511 134.422 60.2826 124.717 60.0631 115.43C60.0631 108.844 60.0631 102.411 59.9533 95.8898L65.7715 90.1154L67.7475 91.1913C67.6803 91.143 67.5997 91.1171 67.517 91.1171C67.4343 91.1171 67.3536 91.143 67.2865 91.1913L60.6998 98.3707C60.2826 98.8098 60.9413 99.4685 61.3585 99.0294L67.9451 91.8499C67.9999 91.8068 68.0442 91.7518 68.0747 91.689C68.1052 91.6263 68.121 91.5574 68.121 91.4877C68.121 91.4179 68.1052 91.3491 68.0747 91.2863C68.0442 91.2236 67.9999 91.1685 67.9451 91.1254L70.1407 92.3988L63.2906 101.181C62.9173 101.642 63.576 102.301 63.9492 101.84L70.9311 92.816C72.236 93.6812 73.4964 94.6119 74.7075 95.6043C72.4973 98.6342 70.3017 101.657 68.1208 104.672C67.7695 105.177 68.5818 105.638 68.9331 105.155L75.5198 96.1971C76.0248 96.5923 76.5298 96.9875 77.0128 97.4047L71.2824 104.584C70.9091 105.045 71.5678 105.704 71.941 105.243L77.7373 97.9755H77.869L78.9449 98.8757C77.5836 101.071 76.2224 103.267 74.8392 105.462C74.5318 105.967 75.3442 106.428 75.6515 105.923C77.0128 103.728 78.374 101.532 79.7133 99.4905C80.0787 99.7791 80.468 100.036 80.877 100.259L81.1843 100.391L77.8471 105.88C77.5178 106.385 78.3301 106.868 78.6375 106.341L81.9308 100.94C82.7651 100.94 83.336 100.347 84.302 99.6222C85.2681 98.8977 86.1463 98.1731 87.0465 97.4266C85.9627 99.5845 84.6129 101.598 83.0286 103.421C82.6334 103.882 83.2921 104.54 83.6873 104.079C85.7058 101.769 87.3571 99.1627 88.5834 96.3508C88.6154 96.2659 88.6154 96.1723 88.5834 96.0874L90.6033 94.3309C89.7031 96.3728 88.8029 98.4146 87.8808 100.457C87.6393 101.005 88.4516 101.488 88.6931 100.94L92.3158 92.794C93.4575 91.7402 94.5114 90.5985 95.8068 89.6544L92.5134 97.0095C92.2719 97.5584 93.0843 98.0414 93.3258 97.4925L96.3996 90.5985C96.202 94.6163 96.3996 98.6781 96.3996 102.674C96.3996 107.746 96.2678 112.927 96.663 118.043C90.2739 122.324 83.9727 126.847 77.6495 131.326H77.5836ZM96.7728 86.6245L95.4555 87.7881C91.0643 91.7401 86.2561 95.5385 82.1284 99.8198H82.0187C79.0907 96.7528 75.7508 94.1075 72.0947 91.9597C68.5055 89.3712 64.5649 87.3085 60.3924 85.8341C66.2545 82.2334 71.6337 77.6886 77.1226 73.5829C82.0589 70.3042 86.7951 66.7337 91.3059 62.8905C96.6411 67.7207 102.92 71.9801 108.673 76.3054C104.677 79.7085 100.747 83.1994 96.8167 86.6904L96.7728 86.6245Z" fill="#543018" stroke="#543018" stroke-width="0.2"/>
<path d="M35.0338 40.8502C45.4212 52.0462 53.4084 65.2486 58.5043 79.6458C58.7678 80.4142 60.0192 80.5679 60.2168 79.6458C60.4144 78.7236 60.6779 77.5819 60.9414 76.55C61.0253 76.5645 61.1117 76.548 61.1844 76.5036C61.2571 76.4592 61.3112 76.3898 61.3366 76.3085C63.5321 71.2807 65.8375 66.2528 68.0769 61.2031C68.3184 60.6761 67.5061 60.1931 67.2646 60.742L62.3465 71.7198C63.9573 66.8136 65.9998 62.0599 68.4502 57.5145C70.2015 54.2719 72.1519 51.1409 74.2904 48.1395C75.6077 46.3172 77.0568 44.6046 78.4839 42.8921C79.0986 42.1676 82.5017 39.0718 80.6794 38.3253H80.5477C79.591 38.2376 78.6282 38.2376 77.6715 38.3253C76.5298 38.3253 75.4759 38.2156 74.2245 38.2156C71.9165 38.1748 69.608 38.2554 67.3085 38.4571C67.55 32.4632 67.7696 26.4474 67.9672 20.4535C68.0769 17.0943 68.3843 13.8668 68.516 10.4198C68.516 8.57553 68.6258 6.68735 68.6478 4.86504C68.6478 3.67944 68.516 2.51579 67.1109 2.40601C65.7057 2.29623 64.6738 2.23037 63.4223 2.1645C61.5342 2.05472 59.624 1.94494 57.7359 1.79126C55.8477 1.63757 53.9375 1.52779 52.0274 1.50583C50.8199 1.48388 49.3049 0.693476 48.0095 1.13259C47.2191 1.43997 47.1094 1.81321 47.1094 2.60361C47.1094 3.72335 47.1094 5.17242 47.1094 6.37997C47.1094 10.7711 47.8119 15.1622 48.0535 19.5533C48.3828 25.7887 48.756 32.0241 49.1073 38.2814C44.8322 38.0834 40.5486 38.1714 36.2853 38.5449H36.1316L33.936 38.6986C33.8439 38.6973 33.7534 38.7236 33.6764 38.7741C33.5993 38.8247 33.5392 38.8972 33.5037 38.9823C33.4683 39.0674 33.4591 39.1611 33.4775 39.2514C33.4959 39.3417 33.5409 39.4245 33.6067 39.489C34.0751 39.9574 34.5508 40.4111 35.0338 40.8502ZM67.3085 4.00877C66.584 9.14638 66.8035 14.5914 66.562 19.707C66.2693 26.2059 66.0058 32.7194 65.7716 39.2475C65.7716 40.0159 69.7895 39.5988 70.4481 39.6866C71.8533 39.8403 73.3024 39.8622 74.7295 39.8842C75.3662 39.8842 78.2863 40.3453 78.7254 39.8842C73.9366 45.0634 69.9413 50.9232 66.8694 57.273C63.7057 63.3423 61.196 69.7307 59.3825 76.3305C59.3769 75.9566 59.2868 75.5888 59.1191 75.2546C59.453 75.034 59.7251 74.7317 59.9095 74.3764C60.151 73.8275 59.3606 73.3665 59.0971 73.8934C59.0026 74.0816 58.8677 74.2465 58.7019 74.3764L58.4823 73.8714C58.175 73.0371 57.8456 72.2248 57.5163 71.4124L60.7218 69.4803C61.2268 69.151 60.7218 68.3606 60.2607 68.668L57.1211 70.5561C56.8137 69.8316 56.5063 69.1071 56.177 68.3606L61.3366 65.5283C61.8635 65.2429 61.3366 64.4305 60.8535 64.7379L55.672 67.4824C55.5403 67.175 55.4086 66.8676 55.2549 66.5822L54.8158 65.704L60.9194 62.235C61.0008 62.1599 61.0539 62.0591 61.0699 61.9496C61.0859 61.84 61.0637 61.7282 61.0071 61.6331C60.9505 61.5379 60.8629 61.465 60.759 61.4267C60.6551 61.3884 60.5412 61.387 60.4364 61.4226L54.3986 64.8696L53.696 63.3986L61.1609 59.1392C61.6879 58.8538 61.1609 58.0415 60.6779 58.3269C58.0871 59.754 55.672 61.1592 53.1911 62.4765L52.4446 61.1152L61.6659 55.8459C61.7473 55.7708 61.8004 55.6701 61.8164 55.5605C61.8324 55.4509 61.8102 55.3392 61.7536 55.244C61.697 55.1488 61.6094 55.0759 61.5055 55.0376C61.4016 54.9993 61.2877 54.9979 61.1829 55.0335L51.9615 60.3029C51.6761 59.776 51.3687 59.271 51.0614 58.766L60.7218 53.6943C61.2488 53.4088 60.7218 52.5965 60.2388 52.8819L50.5783 58.0854L49.4586 56.285L59.3386 51.3011C59.8655 51.0376 59.3386 50.2253 58.8776 50.4887L48.9317 55.4946L47.8119 53.8479L57.4943 48.381C58.0213 48.0956 57.4943 47.2832 57.0113 47.5686L47.2631 53.1015L45.8359 51.1255L57.7798 44.5388C57.8875 44.4776 57.9665 44.3762 57.9995 44.2568C58.0324 44.1374 58.0166 44.0098 57.9554 43.9021C57.8943 43.7943 57.7928 43.7153 57.6734 43.6824C57.554 43.6494 57.4264 43.6653 57.3187 43.7264L45.2431 50.4448L44.3869 49.347L54.706 43.5069C54.8137 43.4457 54.8927 43.3443 54.9257 43.2249C54.9586 43.1055 54.9428 42.9779 54.8816 42.8702C54.8205 42.7624 54.7191 42.6834 54.5997 42.6505C54.4802 42.6175 54.3526 42.6334 54.2449 42.6945L43.7721 48.6225C43.3769 48.1395 42.9817 47.6565 42.5646 47.1954L55.7379 39.2036C56.2648 38.8962 55.7379 38.0838 55.2768 38.4132L41.9498 46.4709L40.8301 45.2633L50.0295 40.0598C50.0888 40.0201 50.1391 39.9683 50.1769 39.9077C50.2148 39.8472 50.2393 39.7793 50.249 39.7085L50.4466 39.5768L57.4285 35.1857C57.9335 34.8564 57.4285 34.044 56.9455 34.3733L50.3588 38.5888C50.3588 38.018 50.3588 37.4471 50.249 36.8763L58.153 32.2217C58.2344 32.1466 58.2875 32.0458 58.3035 31.9363C58.3195 31.8267 58.2973 31.715 58.2407 31.6198C58.1841 31.5246 58.0965 31.4517 57.9926 31.4134C57.8887 31.3751 57.7748 31.3737 57.67 31.4093L50.1831 35.8005C50.1831 35.4272 50.1831 35.054 50.1831 34.6807L57.7359 30.2896C57.7892 30.2593 57.8361 30.2188 57.8737 30.1705C57.9114 30.1221 57.9392 30.0667 57.9555 30.0076C57.9719 29.9485 57.9764 29.8867 57.9688 29.8259C57.9613 29.765 57.9418 29.7062 57.9115 29.6529C57.8812 29.5996 57.8407 29.5527 57.7924 29.515C57.744 29.4773 57.6887 29.4495 57.6295 29.4332C57.5101 29.4003 57.3825 29.4161 57.2748 29.4772L50.1831 33.4293L50.0514 31.0141L58.7239 26.0522C59.2508 25.7448 58.7239 24.9544 58.2408 25.2398C55.4964 26.8206 52.7519 28.4014 49.9855 29.9603C49.9855 29.3016 49.9855 28.6429 49.9855 27.9843L59.2728 22.1221C59.7777 21.8147 59.2727 21.0024 58.8117 21.3098L50.0295 26.9084C50.0295 26.4035 50.0295 25.8985 50.0295 25.3935L59.0312 19.3996C59.5362 19.0703 59.0312 18.2579 58.5702 18.6092L49.9636 24.3177C49.9636 23.7688 49.9636 23.2419 49.9636 22.7149L58.0871 17.0943C58.5921 16.765 58.0872 15.9526 57.6041 16.2819L49.5245 21.6391C49.5245 21.0683 49.5245 20.4974 49.5245 19.9266H49.6562L57.5602 15.3379C57.6496 15.2696 57.7109 15.1711 57.7327 15.0609C57.7545 14.9506 57.7353 14.8362 57.6787 14.7391C57.622 14.642 57.5319 14.5689 57.4252 14.5336C57.3184 14.4983 57.2025 14.5033 57.0991 14.5474L49.3049 18.9166V17.5773L57.4724 12.6373C57.5772 12.5733 57.6523 12.4702 57.6811 12.3508C57.7099 12.2314 57.6901 12.1054 57.6261 12.0006C57.562 11.8958 57.459 11.8207 57.3396 11.7919C57.2202 11.7631 57.0942 11.7829 56.9894 11.8469L49.3049 16.5015C49.3049 16.0185 49.3049 15.5135 49.3049 15.0085L57.2748 10.4198C57.8017 10.1344 57.2748 9.32202 56.7918 9.60744L49.3049 13.9546C49.3049 13.3399 49.3049 12.7471 49.3049 12.1323L56.9235 6.84104C57.4285 6.48975 56.9235 5.67739 56.4624 6.02868L49.1732 11.0126C49.1732 10.3539 49.1732 9.69527 49.1732 9.0366L55.5623 4.64548C56.0453 4.29419 55.5623 3.48184 55.0792 3.83312L49.0195 7.96077C49.0195 7.30211 48.9097 6.6654 48.8219 6.00673L52.3128 3.59161C52.3795 3.55085 52.4333 3.49219 52.4683 3.42232C52.5032 3.35245 52.5178 3.27418 52.5104 3.19641C57.4065 3.65748 62.4783 3.76726 67.3085 4.00877ZM51.5005 2.99881L48.6463 4.97481C48.5365 4.1405 48.4047 3.30619 48.2291 2.51579L51.5005 2.99881ZM48.6902 39.6427L40.1934 44.451L38.876 43.1117L45.309 39.6646C46.0555 39.6646 46.78 39.5549 47.5046 39.5549C47.9011 39.561 48.297 39.5903 48.6902 39.6427ZM43.0256 39.8403L38.3271 42.3652L38.1954 42.4969L37.2733 41.6406L41.0057 39.8622H43.0476L43.0256 39.8403ZM38.898 39.8403L36.7024 40.8502C36.6585 40.863 36.618 40.8853 36.5838 40.9157C36.5496 40.9461 36.5226 40.9837 36.5048 41.0259C36.3292 40.8722 36.1755 40.6965 35.9999 40.5648C35.8242 40.4331 35.2314 39.5768 34.9679 39.5329C36.3072 39.6866 37.6026 39.7744 38.898 39.8403Z" fill="#543018" stroke="#543018" stroke-width="0.2"/>
<path d="M29.2814 99.4735L21.6409 104.194C21.1359 104.523 21.6409 105.336 22.1239 105.006L29.7644 100.198C30.2694 99.9565 29.8083 99.1441 29.2814 99.4735Z" fill="#543018" stroke="#543018" stroke-width="0.2"/>
<path d="M36.8999 102.545C34.858 103.928 32.8381 105.333 30.8182 106.739C30.3132 107.09 30.8182 107.88 31.2793 107.551L37.361 103.336C37.8659 103.006 37.3829 102.194 36.8999 102.545Z" fill="#543018" stroke="#543018" stroke-width="0.2"/>
<path d="M42.5434 104.936L35.6713 110.359C35.2103 110.733 35.8689 111.391 36.33 111.018L43.2021 105.595C43.6851 105.222 43.0045 104.563 42.5434 104.936Z" fill="#543018" stroke="#543018" stroke-width="0.2"/>
<path d="M71.6757 94.5066L65.2208 103.157C64.8475 103.64 65.6599 104.123 66.0331 103.64L72.4881 94.8579C72.8394 94.4847 72.027 94.0236 71.6757 94.5066Z" fill="#543018" stroke="#543018" stroke-width="0.2"/>
<path d="M37.8668 60.2747C36.0444 63.063 34.2002 65.8514 32.3779 68.6617C32.0485 69.1667 32.8609 69.6278 33.1902 69.1228C35.0125 66.3344 36.8348 63.5241 38.6791 60.7357C39.0084 60.121 38.1961 59.6599 37.8668 60.2747Z" fill="#543018" stroke="#543018" stroke-width="0.2"/>
<path d="M35.6699 69.0531C37.602 65.9354 39.5195 62.8177 41.4223 59.7C41.4569 59.6409 41.4795 59.5756 41.4889 59.5077C41.4982 59.4399 41.4941 59.3709 41.4768 59.3046C41.4595 59.2383 41.4292 59.1761 41.3879 59.1216C41.3465 59.067 41.2948 59.0211 41.2357 58.9865C41.1766 58.9519 41.1112 58.9293 41.0434 58.9199C40.9755 58.9106 40.9065 58.9147 40.8403 58.932C40.774 58.9493 40.7118 58.9796 40.6572 59.0209C40.6026 59.0623 40.5567 59.114 40.5221 59.1731L34.7917 68.5262C34.7571 68.5838 34.7342 68.6477 34.7243 68.7143C34.7144 68.7808 34.7177 68.8486 34.734 68.9138C34.7503 68.9791 34.7793 69.0405 34.8194 69.0945C34.8594 69.1485 34.9097 69.1941 34.9674 69.2287C35.025 69.2633 35.0889 69.2862 35.1555 69.2961C35.222 69.306 35.2898 69.3027 35.355 69.2864C35.4203 69.2701 35.4817 69.2411 35.5357 69.2011C35.5897 69.161 35.6354 69.1108 35.6699 69.0531Z" fill="#543018" stroke="#543018" stroke-width="0.2"/>
<path d="M36.7918 71.7387L44.4323 58.8947C44.7397 58.3897 43.9273 57.9067 43.6199 58.4337L35.9794 71.2557C35.672 71.7826 36.4844 72.2657 36.7918 71.7387Z" fill="#543018" stroke="#543018" stroke-width="0.2"/>
<path d="M39.5573 71.2517L46.3416 58.9785C46.627 58.4516 45.8146 57.9686 45.5292 58.4955L38.7449 70.7687C38.4595 71.2517 39.2719 71.7128 39.5573 71.2517Z" fill="#543018" stroke="#543018" stroke-width="0.2"/>
<path d="M41.2473 72.1682C43.9388 68.0876 46.2887 63.7916 48.273 59.3242C48.5146 58.7753 47.7022 58.3142 47.4607 58.8631C45.5131 63.3318 43.1922 67.6284 40.5227 71.7071C40.1056 72.2121 40.9179 72.6732 41.2473 72.1682Z" fill="#543018" stroke="#543018" stroke-width="0.2"/>
<path d="M43.4429 73.9761L49.3051 62.4714C49.5905 61.9225 48.7782 61.4614 48.5147 61.9884C46.5167 65.8306 44.5407 69.6728 42.5428 73.4931C42.3671 74.042 43.1575 74.5031 43.4429 73.9761Z" fill="#543018" stroke="#543018" stroke-width="0.2"/>
<path d="M45.3743 73.4583C47.1893 70.5308 48.997 67.6034 50.7973 64.676C51.1266 64.171 50.3143 63.71 50.0069 64.215L44.5619 72.9972C44.2546 73.4583 45.0669 73.9852 45.3743 73.4583Z" fill="#543018" stroke="#543018" stroke-width="0.2"/>
<path d="M48.2941 74.8293C50.0256 72.2881 51.4412 69.5454 52.5096 66.6619C52.7291 66.113 51.829 65.8715 51.6094 66.4203C50.5559 69.2181 49.1701 71.8792 47.4818 74.3463C47.1085 74.8513 47.9428 75.3124 48.2941 74.8293Z" fill="#543018" stroke="#543018" stroke-width="0.2"/>
<path d="M50.8195 75.0138L53.4761 70.3373C53.7616 69.8104 52.9492 69.3493 52.6638 69.8762L50.0071 74.5528C49.9769 74.6061 49.9574 74.6649 49.9498 74.7258C49.9423 74.7866 49.9468 74.8484 49.9631 74.9075C49.9794 74.9666 50.0072 75.022 50.0449 75.0703C50.0826 75.1187 50.1295 75.1592 50.1828 75.1895C50.2361 75.2198 50.2949 75.2392 50.3558 75.2468C50.4166 75.2543 50.4784 75.2498 50.5375 75.2335C50.5967 75.2172 50.652 75.1894 50.7004 75.1517C50.7487 75.114 50.7892 75.0672 50.8195 75.0138Z" fill="#543018" stroke="#543018" stroke-width="0.2"/>
<path d="M52.0717 77.5104C52.8621 76.1053 53.6305 74.7001 54.4209 73.3169C54.7063 72.79 53.9159 72.307 53.6086 72.8339L51.2813 77.0494C51.2371 77.1527 51.2322 77.2687 51.2675 77.3754C51.3027 77.4821 51.3758 77.5723 51.4729 77.6289C51.57 77.6855 51.6844 77.7047 51.7947 77.6829C51.905 77.6611 52.0035 77.5998 52.0717 77.5104Z" fill="#543018" stroke="#543018" stroke-width="0.2"/>
<path d="M71.2597 59.898L63.4655 76.1013C63.202 76.6501 64.0143 77.1332 64.2778 76.5843L72.072 60.3811C72.3135 59.8322 71.5012 59.3711 71.2597 59.898Z" fill="#543018" stroke="#543018" stroke-width="0.2"/>
<path d="M74.8612 59.8618L66.3864 75.6478C66.1009 76.1747 66.8913 76.6358 67.1768 76.1089L75.6516 60.2789C75.6756 60.1793 75.6658 60.0744 75.6236 59.981C75.5814 59.8876 75.5093 59.8109 75.4186 59.763C75.3279 59.7152 75.2239 59.6989 75.123 59.7168C75.022 59.7347 74.9299 59.7857 74.8612 59.8618Z" fill="#543018" stroke="#543018" stroke-width="0.2"/>
<path d="M77.5834 60.1354C75.2122 64.5265 72.863 68.742 70.4918 73.0233C70.2063 73.5503 70.9967 74.0333 71.3041 73.5064C73.646 69.2031 76.0099 64.9071 78.3958 60.6184C78.6812 60.0915 77.8469 59.6085 77.5834 60.1354Z" fill="#543018" stroke="#543018" stroke-width="0.2"/>
<path d="M79.231 61.3958C77.9136 64.0744 76.6182 66.753 75.3009 69.4096C75.0374 69.9585 75.8498 70.4415 76.1133 69.8926C77.4086 67.2141 78.726 64.5355 80.0214 61.8789C80.2848 61.33 79.4944 60.8689 79.231 61.3958Z" fill="#543018" stroke="#543018" stroke-width="0.2"/>
<path d="M80.9206 62.4707L78.3957 68.0694C78.1322 68.6183 78.9446 69.0794 79.1861 68.5305C80.0424 66.6643 80.8986 64.82 81.7329 62.9538C81.9745 62.339 81.1841 61.856 80.9206 62.4707Z" fill="#543018" stroke="#543018" stroke-width="0.2"/>
<path d="M82.238 66.2775L83.4894 63.4892C83.7309 62.9403 82.9186 62.4573 82.6771 63.0062L81.4256 65.8165C81.0743 66.3654 81.8867 66.8703 82.238 66.2775Z" fill="#543018" stroke="#543018" stroke-width="0.2"/>
<path d="M38.5689 100.75C38.5696 100.817 38.591 100.883 38.6303 100.938C38.6695 100.993 38.7248 101.034 38.7885 101.057L39.0959 101.233C39.6228 101.496 40.1058 100.684 39.5789 100.42L39.2496 100.267C39.246 100.2 39.2235 100.135 39.1846 100.081C39.1457 100.026 39.0921 99.9842 39.03 99.9592L8.5776 85.9077C8.02871 85.6442 7.56764 86.4565 8.11653 86.6981L38.547 100.75H38.5689Z" fill="#543018" stroke="#543018" stroke-width="0.2"/>
<path d="M40.1939 101.504L45.0461 103.7C45.595 103.941 46.056 103.129 45.5071 102.887L40.6769 100.692C40.128 100.45 39.645 101.263 40.1939 101.504Z" fill="#543018" stroke="#543018" stroke-width="0.2"/>
<path d="M48.7134 100.923L55.0146 88.826C55.2781 88.299 54.4657 87.816 54.2022 88.3429L47.901 100.462C47.6375 100.989 48.4499 101.472 48.7134 100.923Z" fill="#543018" stroke="#543018" stroke-width="0.2"/>
<path d="M82.2399 94.8281C76.9023 91.0135 71.2291 87.6919 65.2902 84.9042C64.7413 84.6627 64.2583 85.4531 64.8072 85.7165C70.7487 88.4992 76.4223 91.8211 81.7569 95.6405C82.2399 95.9917 82.679 95.1794 82.2399 94.8281Z" fill="#543018" stroke="#543018" stroke-width="0.2"/>
<path d="M104.193 77.9614L82.5229 96.0308C82.0618 96.426 82.7205 97.0847 83.1816 96.7115L104.852 78.6201C105.203 78.2468 104.544 77.5882 104.193 77.9614Z" fill="#543018" stroke="#543018" stroke-width="0.2"/>
<path d="M83.7978 92.6084L91.5701 86.351C92.0531 85.9778 91.3725 85.3191 90.9114 85.6924L83.1391 91.9497C82.678 92.323 83.3367 92.9816 83.7978 92.6084Z" fill="#543018" stroke="#543018" stroke-width="0.2"/>
<path d="M41.2468 100.606C41.8176 100.804 42.0591 99.9034 41.5102 99.6839C37.925 98.3294 34.5646 96.442 31.5424 94.0852C31.0813 93.7339 30.4227 94.3926 30.8837 94.7439C34.034 97.1924 37.5253 99.1673 41.2468 100.606Z" fill="#543018" stroke="#543018" stroke-width="0.2"/>
</svg>
