<svg width="208" height="40" fill="none" xmlns="http://www.w3.org/2000/svg"><g clip-path="url(#clip0)" fill="#543018"><path d="M54.23 24.675c.89.95 1.967 1.7 3.161 2.198a12.2 12.2 0 004.547.79c.887 0 1.717-.113 2.398-.171.68-.09 1.35-.253 1.995-.488.61-.17 1.108-.453 1.607-.618.395-.229.801-.436 1.218-.62l-.619-1.32c-.33.17-.666.336-1.055.488-.361.168-.73.318-1.108.448a5.512 5.512 0 01-1.386.282 8.849 8.849 0 01-1.832.113 5.85 5.85 0 01-3.16-.79A6.286 6.286 0 0158 22.96a10.292 10.292 0 01-.959-3.04 27.633 27.633 0 01-.278-3.83c0-1.072.11-2.198.168-3.324a8.441 8.441 0 01.791-2.938 6.042 6.042 0 011.717-2.197 5.65 5.65 0 013.108-.902 5.218 5.218 0 013.103.975c.887.619 1.386 1.632 1.607 2.987h1.386V6.369a18.872 18.872 0 00-1.386-.488 7.417 7.417 0 00-1.607-.336c-.609-.112-1.108-.112-1.717-.17-.48 0-1.055-.113-1.439-.113a13.767 13.767 0 00-4.825.79 8.264 8.264 0 00-3.291 2.274 8.445 8.445 0 00-1.864 3.573 16.14 16.14 0 00-.61 4.79c-.035 1.545.17 3.086.61 4.566a7.99 7.99 0 001.716 3.42zm84.12 2.256a7.295 7.295 0 002.83-.901 4.776 4.776 0 001.995-2.198 8.544 8.544 0 00.777-3.942 8.107 8.107 0 00-.479-3.04 4.912 4.912 0 00-1.607-2.086 7.861 7.861 0 00-2.94-1.125 20.082 20.082 0 00-4.379-.336h-1.832v-5.19a1.37 1.37 0 01.331-1.072c.441-.172.917-.23 1.386-.17h2.604c.667-.026 1.335.011 1.995.112.441.026.865.184 1.219.453.348.28.616.65.777 1.072.253.6.457 1.221.609 1.856h1.074V5.521h-15.827v.677c.11 0 .168.112.441.112.278.112.446.17.48.283.114.148.208.312.278.487 0 .283.11.487.11.901v16.675c.025.305-.012.612-.11.901 0 .283-.11.449-.278.488a.747.747 0 01-.48.282.946.946 0 01-.441.112v.678h7.985c1.163 0 2.326-.063 3.482-.186zm-5.232-1.578a.804.804 0 01-.278-.62c0-.282-.111-.618-.111-1.071v-9.068h1.832c1.607 0 2.83.448 3.55 1.296.719.848 1.055 2.251 1.055 4.17a11.2 11.2 0 01-.331 3.042 4.312 4.312 0 01-.959 1.744 6.583 6.583 0 01-1.276.79 7.312 7.312 0 01-1.554.17c-.48-.112-.959-.112-1.218-.17a1.045 1.045 0 01-.71-.283zm-17.391 1.071c-.111 0-.168-.112-.441-.112-.279-.112-.446-.17-.48-.282-.034-.112-.168-.283-.278-.488 0-.282-.111-.487-.111-.9v-5.994h2.164a18.88 18.88 0 003.16-.283 7.477 7.477 0 002.662-.974 4.782 4.782 0 001.832-2.086 8.183 8.183 0 00.667-3.606 8.657 8.657 0 00-.609-3.323 5.719 5.719 0 00-1.727-1.895 5.692 5.692 0 00-2.494-.79 24.37 24.37 0 00-2.94-.17h-8.446v.677c.11 0 .168.112.446.112.278.112.441.17.48.283.114.148.208.312.278.487 0 .282.11.487.11.901v16.621a2.22 2.22 0 01-.11.901c0 .283-.11.449-.278.488a.747.747 0 01-.48.282.947.947 0 01-.446.113v.618h6.988l.053-.619v.04zm-1.166-18.477a.846.846 0 01.111-.487.479.479 0 01.168-.336.673.673 0 01.479-.17c.278 0 .48-.113.959-.113.521.029 1.04.086 1.554.17.473.174.907.443 1.276.79.364.44.663.933.887 1.462a8.9 8.9 0 01.279 2.251c0 1.857-.279 3.211-.777 4.171-.499.96-1.439 1.462-2.773 1.462h-2.163v-9.2zm-8.647 14.195h-1.386c-.12.684-.281 1.361-.48 2.027-.093.44-.327.836-.666 1.125a1.611 1.611 0 01-1.219.448c-.716.107-1.44.145-2.163.113a9.465 9.465 0 01-1.995-.113 3.257 3.257 0 01-1.108-.336.863.863 0 01-.441-.677 3.919 3.919 0 01-.11-1.238v-6.87h3.678c.331 0 .667.112 1.055.112.355.033.708.09 1.056.17.307.078.605.19.887.337v-2.817a2.104 2.104 0 01-.887.336c-.697.132-1.4.226-2.106.283h-3.717V7.879a2.96 2.96 0 01.168-.974c.168-.171.446-.171.887-.171h2.331c.667-.025 1.335.012 1.995.112.439.036.86.19 1.219.448.348.281.616.651.777 1.072.253.603.457 1.225.609 1.862h1.108V5.52H90.609v.677c.11 0 .168.112.442.112.278.112.44.17.48.283.114.148.207.312.277.487 0 .283.11.487.11.901v16.621a2.21 2.21 0 01-.11.902c0 .282-.11.448-.278.487a.746.746 0 01-.48.283.948.948 0 01-.44.112v.619h15.304v-4.863zm-23.401 4.789a7.298 7.298 0 002.83-.901 5.204 5.204 0 002.053-2.198 8.536 8.536 0 00.777-3.942 8.098 8.098 0 00-.48-3.04 4.911 4.911 0 00-1.606-2.086 7.865 7.865 0 00-2.94-1.125 20.071 20.071 0 00-4.38-.337h-1.832V8.113a1.376 1.376 0 01.331-1.072c.442-.172.918-.23 1.386-.17h2.605a10.6 10.6 0 011.995.112c.439.036.86.193 1.218.453.349.28.617.65.777 1.072.254.6.458 1.221.61 1.856h1.107V5.521H71.09v.677c.11 0 .168.112.446.112.278.112.441.17.48.283.114.148.207.312.278.487 0 .283.11.487.11.901v16.621c.021.305-.016.611-.11.902 0 .282-.11.448-.279.487a.746.746 0 01-.48.283.947.947 0 01-.445.112v.789h7.986c1.285-.073 2.326-.073 3.438-.244zM77.3 25.353a.803.803 0 01-.278-.62c0-.282-.11-.618-.11-1.071v-9.068h1.831c1.607 0 2.83.448 3.55 1.296.72.848 1.055 2.251 1.055 4.17a11.23 11.23 0 01-.331 3.041 4.306 4.306 0 01-.96 1.745 6.536 6.536 0 01-1.275.79 7.317 7.317 0 01-1.554.17c-.48-.112-.887-.112-1.218-.17a.947.947 0 01-.71-.283zm130.537 7.884H51.794v2.085h156.043v-2.085zm-12.48-14.248c.446.619.777 1.126 1.219 1.632.33.488.777 1.072 1.107 1.58a13.9 13.9 0 001.108 1.578c.409.555.779 1.138 1.108 1.744.331.488.609 1.126.888 1.633l7.194.112c-.777-.79-1.439-1.579-2.216-2.368a36.084 36.084 0 00-1.722-1.915c-.666-.79-1.276-1.462-1.827-2.086a55.626 55.626 0 01-1.607-1.915c-.514-.61-.994-1.25-1.439-1.915-.388-.619-.959-1.408-1.386-2.085l.331-.449c.48-.677 1.108-1.408 1.832-2.25a23.526 23.526 0 012.163-2.535 30.31 30.31 0 012.231-2.358 19.482 19.482 0 011.995-1.632h-4.993c-.225.542-.485 1.07-.777 1.578-.35.701-.758 1.371-1.218 2.003-.442.677-.959 1.462-1.386 2.251-.427.79-.96 1.462-1.439 2.198-.48.736-.959 1.408-1.386 1.915-.442.619-.777 1.072-1.055 1.462.388.58.829 1.203 1.275 1.822z"/><path d="M194.748 26.425c-.11 0-.168-.113-.446-.113-.278-.111-.441-.17-.479-.282a2.026 2.026 0 01-.279-.487c0-.283-.11-.488-.11-.902V8.074a2.223 2.223 0 01.11-.901c0-.283.111-.449.279-.488.146-.116.307-.211.479-.282a.95.95 0 01.446-.112V5.56h-6.988v.677c.111 0 .168.112.446.112.278.112.442.17.48.283.115.148.208.312.278.487 0 .283.11.487.11.901v16.621a2.21 2.21 0 01-.11.902c0 .282-.11.448-.278.487a.741.741 0 01-.48.282.944.944 0 01-.446.113v.618h6.988v-.618zm-46.282-1.915c.278-1.238.776-2.987 1.438-5.185h6.821l.959 2.817a21.3 21.3 0 01.959 3.152c.231.615.38 1.26.441 1.915h5.434c-.278-.448-.479-1.072-.887-1.744a27.35 27.35 0 01-1.218-3.04l-4.931-14.2a7.846 7.846 0 01-.446-1.579c-.11-.448-.11-.789-.168-1.072h-6.096v.678c.111 0 .168.112.442.112.278.112.441.17.479.282.115.149.209.313.279.488v.448c.004.484-.091.963-.279 1.408l-3.439 8.561c-.609 1.58-1.218 2.987-1.606 4-.389 1.014-.888 2.028-1.108 2.705-.331.678-.609 1.296-.887 1.745-.223.364-.426.74-.61 1.125h3.881c.129-.882.31-1.756.542-2.616zm4.882-15.437l2.791 8.732h-5.865l3.074-8.732zm19.271 17.352h-.173c-.11 0-.168-.112-.446-.112-.278-.112-.441-.171-.479-.283a2.062 2.062 0 01-.279-.487c0-.283-.11-.488-.11-.902v-8.283h8.264v8.225a2.22 2.22 0 01-.11.901c0 .283-.111.448-.279.487a.745.745 0 01-.479.283.95.95 0 01-.441.112v.678h6.988v-.678c-.111 0-.168-.112-.442-.112-.278-.112-.446-.17-.479-.283a1.98 1.98 0 01-.278-.487c0-.282-.111-.487-.111-.901V7.879a2.223 2.223 0 01.111-.901c0-.283.11-.449.278-.488a1.99 1.99 0 01.479-.282.95.95 0 01.442-.112V5.52h-6.873v.677c.11 0 .168.112.441.112.278.112.446.17.48.283.114.148.208.312.278.487 0 .283.11.487.11.901v6.949h-8.163V7.947a2.24 2.24 0 01.11-.901c0-.283.111-.448.278-.487.146-.117.308-.212.48-.283a.824.824 0 01.441-.112v-.643h-6.969v.677c.111 0 .168.112.442.112.278.112.441.17.479.283.115.148.208.312.279.487 0 .283.11.487.11.901v16.675a2.39 2.39 0 01-.11.901c0 .283-.111.449-.279.488a.745.745 0 01-.479.282.95.95 0 01-.442.112v.678h6.988l-.057-.731v.039zM37.597 7.777a33.78 33.78 0 01-1.276-1.862L12.475 19.832.964 13.127a8.244 8.244 0 00-.48 2.251l12.101 7.12L37.597 7.776z"/><path d="M12.475 25.07L.11 17.858a5.573 5.573 0 00-.11 1.35c0 5.514 2.156 10.802 5.993 14.7 3.838 3.9 9.042 6.09 14.47 6.09 5.427 0 10.631-2.19 14.469-6.09 3.837-3.898 5.993-9.186 5.993-14.7a20.674 20.674 0 00-2.215-9.463L12.473 25.07z"/><path d="M34.657 4.171a22.729 22.729 0 00-1.832-1.579l-20.35 12.002-9.813-5.691c-.33.618-.667 1.296-1.055 2.027l10.758 6.31L34.657 4.17z"/><path d="M30.83 1.243A19.28 19.28 0 0028.432.005L12.474 9.341l-7.15-4.098c-.48.487-.96 1.126-1.44 1.745l8.538 4.96L30.83 1.243z"/></g><defs><clipPath id="clip0"><path fill="#fff" d="M0 0h208v40H0z"/></clipPath></defs></svg>