<svg width="112" height="40" fill="none" xmlns="http://www.w3.org/2000/svg"><path fill-rule="evenodd" clip-rule="evenodd" d="M7.572 0L5.678 5.232h26.249L33.82 0H7.572zM4.73 7.847L2.836 13.08h26.249l1.894-5.232H4.73zm-2.836 7.848L0 20.926h26.249l1.893-5.231H1.894z" fill="#543018"/><mask id="a" maskUnits="userSpaceOnUse" x="39" y="7" width="73" height="34"><path d="M39.38 40h71.853V7.948H39.38V40z" fill="#543018"/></mask><g mask="url(#a)"><path fill-rule="evenodd" clip-rule="evenodd" d="M55.803 22.92v.11c1.2.445 2.346 1.221 2.946 1.72 1.855 1.553 2.674 3.604 2.674 6.266 0 4.382-2.292 7.543-6.057 8.541-1.146.332-2.345.444-4.583.444H39.38V7.948h10.094c2.073 0 3.49.11 4.745.443 3.657.999 6.057 3.55 6.057 7.597 0 2.163-.764 3.994-2.019 5.213-.545.555-1.309 1.22-2.455 1.72zM45.71 26.303v8.43h4.365c1.308 0 2.509-.111 3.383-.944.872-.832 1.254-1.885 1.254-3.272 0-1.053-.273-2.051-.819-2.772-.927-1.164-2.073-1.442-4.036-1.442H45.71zm-.055-5.546h3.546c1.091 0 1.637 0 2.182-.166 1.474-.444 2.402-1.774 2.402-3.604 0-2.162-.983-3.106-2.402-3.549-.6-.166-1.2-.222-2.4-.222h-3.328v7.541zm25.26 19.244V13.326h-9.11V7.948H87.12l-1.8 5.378h-8.076v26.675h-6.328zm18.169 0V7.948h20.514l-1.799 5.378h-12.44v7.099h5.074c4.091 0 6.22.998 7.693 2.273 1.145.999 3.109 3.216 3.109 7.599 0 4.325-2.018 6.709-3.71 7.93-1.963 1.385-4.037 1.774-8.238 1.774H89.084zm6.275-5.38h4.747c1.8 0 2.891-.443 3.654-1.442.382-.498.928-1.387.928-3.05 0-1.663-.546-2.828-1.637-3.66-.654-.499-1.527-.775-3-.775h-4.692v8.928z" fill="#543018"/></g></svg>