<svg width="18" height="24" viewBox="0 0 18 24" fill="none" xmlns="http://www.w3.org/2000/svg">
<path d="M17.5263 23.9527C17.7878 23.9527 18 23.7405 18 23.479V1.3106C18 1.04912 17.7878 0.836914 17.5263 0.836914H0.473684C0.212211 0.836914 0 1.04912 0 1.3106V23.479C0 23.7405 0.212211 23.9527 0.473684 23.9527H17.5263ZM0.947368 1.78428H17.0526V23.0053H0.947368V1.78428Z" fill="#ffffff"/>
<path d="M14.9672 3.39453H3.03032C2.76885 3.39453 2.55664 3.60674 2.55664 3.86822V8.13138C2.55664 8.39285 2.76885 8.60506 3.03032 8.60506H14.9672C15.2286 8.60506 15.4409 8.39285 15.4409 8.13138V3.86822C15.4409 3.60674 15.2286 3.39453 14.9672 3.39453ZM14.4935 7.65769H3.50401V4.3419H14.4935V7.65769Z" fill="#ffffff"/>
<path d="M5.16562 12.8684C5.66268 12.8684 6.06562 12.4654 6.06562 11.9684C6.06562 11.4713 5.66268 11.0684 5.16562 11.0684C4.66857 11.0684 4.26562 11.4713 4.26562 11.9684C4.26562 12.4654 4.66857 12.8684 5.16562 12.8684Z" fill="#ffffff"/>
<path d="M12.8414 12.8684C13.3385 12.8684 13.7414 12.4654 13.7414 11.9684C13.7414 11.4713 13.3385 11.0684 12.8414 11.0684C12.3443 11.0684 11.9414 11.4713 11.9414 11.9684C11.9414 12.4654 12.3443 12.8684 12.8414 12.8684Z" fill="#ffffff"/>
<path d="M8.99766 12.8684C9.49471 12.8684 9.89766 12.4654 9.89766 11.9684C9.89766 11.4713 9.49471 11.0684 8.99766 11.0684C8.5006 11.0684 8.09766 11.4713 8.09766 11.9684C8.09766 12.4654 8.5006 12.8684 8.99766 12.8684Z" fill="#ffffff"/>
<path d="M5.16562 14.9053C4.6692 14.9053 4.26562 15.3089 4.26562 15.8053C4.26562 16.3017 4.6692 16.7053 5.16562 16.7053C5.66205 16.7053 6.06562 16.3017 6.06562 15.8053C6.06562 15.3089 5.66205 14.9053 5.16562 14.9053Z" fill="#ffffff"/>
<path d="M12.8414 14.9053C12.345 14.9053 11.9414 15.3089 11.9414 15.8053C11.9414 16.3017 12.345 16.7053 12.8414 16.7053C13.3378 16.7053 13.7414 16.3017 13.7414 15.8053C13.7414 15.3089 13.3378 14.9053 12.8414 14.9053Z" fill="#ffffff"/>
<path d="M8.99766 14.9053C8.50124 14.9053 8.09766 15.3089 8.09766 15.8053C8.09766 16.3017 8.50124 16.7053 8.99766 16.7053C9.49408 16.7053 9.89766 16.3017 9.89766 15.8053C9.89766 15.3089 9.49408 14.9053 8.99766 14.9053Z" fill="#ffffff"/>
<path d="M5.16562 18.7422C4.6692 18.7422 4.26562 19.1458 4.26562 19.6422C4.26562 20.1386 4.6692 20.5422 5.16562 20.5422C5.66205 20.5422 6.06562 20.1386 6.06562 19.6422C6.06562 19.1458 5.66205 18.7422 5.16562 18.7422Z" fill="#ffffff"/>
<path d="M12.8414 18.7422C12.345 18.7422 11.9414 19.1458 11.9414 19.6422C11.9414 20.1386 12.345 20.5422 12.8414 20.5422C13.3378 20.5422 13.7414 20.1386 13.7414 19.6422C13.7414 19.1458 13.3378 18.7422 12.8414 18.7422Z" fill="#ffffff"/>
<path d="M8.99766 18.7422C8.50124 18.7422 8.09766 19.1458 8.09766 19.6422C8.09766 20.1386 8.50124 20.5422 8.99766 20.5422C9.49408 20.5422 9.89766 20.1386 9.89766 19.6422C9.89766 19.1458 9.49408 18.7422 8.99766 18.7422Z" fill="#ffffff"/>
</svg>
