<svg width="18" height="24" fill="none" xmlns="http://www.w3.org/2000/svg"><path d="M17.526 23.953a.474.474 0 00.474-.474V1.311a.474.474 0 00-.474-.474H.474A.474.474 0 000 1.31v22.168c0 .262.212.474.474.474h17.052zM.947 1.784h16.106v21.221H.947V1.785z" fill="#D4AF81"/><path d="M14.967 3.395H3.03a.474.474 0 00-.473.473v4.263c0 .262.212.474.473.474h11.937a.474.474 0 00.474-.474V3.868a.474.474 0 00-.474-.473zm-.474 4.263H3.504V4.342h10.99v3.316zm-9.327 5.21a.9.9 0 100-1.8.9.9 0 000 1.8zm7.675 0a.9.9 0 100-1.8.9.9 0 000 1.8zm-3.843 0a.9.9 0 100-1.8.9.9 0 000 1.8zm-3.832 2.037a.9.9 0 10.001 1.802.9.9 0 00-.001-1.802zm7.675 0a.9.9 0 10.002 1.802.9.9 0 00-.002-1.802zm-3.843 0a.9.9 0 10.001 1.802.9.9 0 00-.001-1.802zm-3.832 3.837a.9.9 0 10.001 1.802.9.9 0 00-.001-1.802zm7.675 0a.9.9 0 10.002 1.802.9.9 0 00-.002-1.802zm-3.843 0a.9.9 0 10.001 1.802.9.9 0 00-.001-1.802z" fill="#D4AF81"/></svg>