<svg width="46" height="46" viewBox="0 0 46 46" fill="none" xmlns="http://www.w3.org/2000/svg">
<path fill-rule="evenodd" clip-rule="evenodd" d="M30.6462 15.3235C31.1751 15.8524 31.1751 16.71 30.6462 17.2389L17.2382 30.647C16.7092 31.1759 15.8517 31.1759 15.3227 30.647C14.7938 30.118 14.7938 29.2605 15.3227 28.7315L28.7308 15.3235C29.2597 14.7946 30.1173 14.7946 30.6462 15.3235Z" fill="white"/>
<path fill-rule="evenodd" clip-rule="evenodd" d="M15.3226 15.3235C15.8515 14.7946 16.7091 14.7946 17.238 15.3235L30.646 28.7315C31.175 29.2605 31.175 30.118 30.646 30.647C30.1171 31.1759 29.2595 31.1759 28.7306 30.647L15.3226 17.2389C14.7936 16.71 14.7936 15.8524 15.3226 15.3235Z" fill="white"/>
</svg>
