<svg width="18" height="18" viewBox="0 0 18 18" fill="none" xmlns="http://www.w3.org/2000/svg">
<path fill-rule="evenodd" clip-rule="evenodd" d="M16.6471 1.32349C17.176 1.85242 17.176 2.70999 16.6471 3.23892L3.23905 16.647C2.71011 17.1759 1.85255 17.1759 1.32361 16.647C0.79468 16.118 0.794679 15.2605 1.32361 14.7315L14.7317 1.32349C15.2606 0.794555 16.1182 0.794555 16.6471 1.32349Z" fill="#C4C4C4"/>
<path fill-rule="evenodd" clip-rule="evenodd" d="M1.32361 1.32349C1.85254 0.794555 2.71011 0.794555 3.23904 1.32349L16.6471 14.7315C17.176 15.2605 17.176 16.118 16.6471 16.647C16.1181 17.1759 15.2606 17.1759 14.7316 16.647L1.32361 3.23892C0.794677 2.70999 0.794677 1.85242 1.32361 1.32349Z" fill="#C4C4C4"/>
</svg>
