<svg width="16" height="15" fill="none" xmlns="http://www.w3.org/2000/svg"><g clip-path="url(#clip0)" fill="#543018"><path d="M8.315 4.926a2.475 2.475 0 100 4.95 2.475 2.475 0 000-4.95z"/><path d="M10.9.05H5.728C3.105.05.926 2.23.926 4.852v5.135c0 2.66 2.18 4.803 4.802 4.803h5.135c2.66 0 4.803-2.18 4.803-4.803V4.852C15.703 2.23 13.523.05 10.9.05zM8.314 11.28a3.839 3.839 0 01-3.842-3.842 3.839 3.839 0 013.842-3.842 3.84 3.84 0 013.842 3.842 3.84 3.84 0 01-3.842 3.842zm3.768-6.76a.938.938 0 01-.923-.924c0-.48.443-.96.923-.96.518 0 .924.443.924.923 0 .554-.406.96-.924.96z"/></g><defs><clipPath id="clip0"><path fill="#fff" d="M.926.05h14.777v14.777H.926z"/></clipPath></defs></svg>