<svg width="30" height="29" viewBox="0 0 30 29" fill="none" xmlns="http://www.w3.org/2000/svg">
<g clip-path="url(#clip0)">
<path d="M20.2141 24.3877C19.7912 24.7965 19.1253 24.7965 18.7024 24.3877C18.2937 23.9927 18.2937 23.3352 18.7024 22.9411L26.3677 15.5314L1.07332 15.5314C0.483682 15.5314 -0.000218278 15.0783 -0.000218328 14.5083C-0.000218378 13.9384 0.483682 13.4706 1.07332 13.4706L26.3677 13.4706L18.7024 6.07463C18.2937 5.66579 18.2937 5.00741 18.7024 4.6133C19.1253 4.20446 19.7912 4.20446 20.2141 4.6133L29.694 13.7772C30.1026 14.1722 30.1026 14.8297 29.694 15.2238L20.2141 24.3877Z" fill="#543018"/>
</g>
<defs>
<clipPath id="clip0">
<rect x="30" y="29" width="30" height="29" transform="rotate(180 30 29)" fill="white"/>
</clipPath>
</defs>
</svg>
