<svg width="30" height="29" fill="none" xmlns="http://www.w3.org/2000/svg"><g clip-path="url(#clip0)"><path d="M20.214 24.388a1.085 1.085 0 01-1.512 0 1.007 1.007 0 010-1.447l7.666-7.41H1.073c-.59 0-1.073-.453-1.073-1.023 0-.57.484-1.037 1.073-1.037h25.295l-7.666-7.396a1.024 1.024 0 010-1.462 1.085 1.085 0 011.512 0l9.48 9.164a1.007 1.007 0 010 1.447l-9.48 9.164z" fill="#D4AF81"/></g><defs><clipPath id="clip0"><path transform="rotate(180 30 29)" fill="#fff" d="M30 29h30v29H30z"/></clipPath></defs></svg>