<svg width="22" height="22" viewBox="0 0 22 22" fill="none" xmlns="http://www.w3.org/2000/svg">
<g clip-path="url(#clip0)">
<path d="M14.8238 18.5008C14.5136 18.8109 14.0254 18.8109 13.7152 18.5008C13.4155 18.2011 13.4155 17.7023 13.7152 17.4034L19.3364 11.7822L0.787226 11.7822C0.354827 11.7822 -3.36945e-05 11.4385 -3.36567e-05 11.0061C-3.36189e-05 10.5737 0.354827 10.2188 0.787226 10.2188L19.3364 10.2188L13.7152 4.6081C13.4155 4.29795 13.4155 3.79849 13.7152 3.49951C14.0254 3.18936 14.5137 3.18936 14.8238 3.49951L21.7757 10.4514C22.0754 10.7511 22.0754 11.2499 21.7757 11.5489L14.8238 18.5008Z" fill="#C7C7C7"/>
</g>
<defs>
<clipPath id="clip0">
<rect x="22" y="22" width="22" height="22" transform="rotate(-180 22 22)" fill="white"/>
</clipPath>
</defs>
</svg>
