<svg width="8" height="11" viewBox="0 0 8 11" fill="none" xmlns="http://www.w3.org/2000/svg">
<path d="M4.42857 10.8379L7.82266 7.64674C8.05911 7.42442 8.05911 7.06779 7.82266 6.84547C7.58621 6.62316 7.2069 6.62316 6.97044 6.84547L4.60591 9.06863V0.569684C4.60591 0.254737 4.33498 0 4 0C3.66502 0 3.39409 0.254737 3.39409 0.569684V9.064L1.02956 6.84084C0.793103 6.61853 0.413793 6.61853 0.17734 6.84084C-0.0591133 7.06316 -0.0591133 7.41979 0.17734 7.64211L3.57143 10.8333C3.68966 10.9444 3.84236 11 4 11C4.15764 11 4.31034 10.9491 4.42857 10.8379Z" fill="#1D1D1D"/>
</svg>
