<svg width="8" height="11" viewBox="0 0 8 11" fill="none" xmlns="http://www.w3.org/2000/svg">
<path d="M3.57143 0.162105L0.17734 3.35326C-0.0591129 3.57558 -0.0591129 3.93221 0.17734 4.15452C0.413793 4.37684 0.793103 4.37684 1.02956 4.15452L3.39409 1.93137L3.39409 10.4303C3.39409 10.7453 3.66502 11 4 11C4.33498 11 4.60591 10.7453 4.60591 10.4303L4.60591 1.936L6.97044 4.15916C7.2069 4.38147 7.58621 4.38147 7.82266 4.15916C8.05911 3.93684 8.05911 3.58021 7.82266 3.35789L4.42857 0.166737C4.31035 0.0555789 4.15764 -3.3591e-07 4 -3.49691e-07C3.84237 -3.63472e-07 3.68966 0.0509468 3.57143 0.162105Z" fill="#1D1D1D"/>
</svg>
