<svg width="18" height="10" fill="none" xmlns="http://www.w3.org/2000/svg"><path d="M9.254 9.502h1.029s.327-.044.467-.175c.14-.13.14-.436.14-.436s0-1.267.609-1.442c.608-.175 1.45 1.223 2.291 1.791.655.393 1.123.306 1.123.306l2.291-.044s1.17-.087.608-.96c-.047-.088-.327-.656-1.684-1.835-1.402-1.223-1.216-1.049.468-3.189 1.029-1.31 1.45-2.097 1.31-2.446-.14-.306-.889-.218-.889-.218h-2.572s-.187-.044-.328.043c-.14.088-.233.262-.233.262s-.421 1.005-.936 1.879c-1.122 1.79-1.59 1.921-1.777 1.79-.42-.218-.327-1.004-.327-1.572 0-1.747.28-2.49-.561-2.665-.28-.043-.468-.087-1.216-.13-.935 0-1.684 0-2.105.218-.28.13-.514.437-.374.437.187 0 .561.087.749.35.28.349.233 1.091.233 1.091s.14 2.053-.374 2.315c-.327.175-.795-.175-1.824-1.834a18.303 18.303 0 01-.935-1.748s0-.174-.14-.262c-.187-.13-.374-.13-.374-.13H1.49s-.374 0-.515.174c-.14.131 0 .393 0 .393s1.918 4.15 4.069 6.246c1.964 1.922 4.209 1.791 4.209 1.791z" fill="#543018"/></svg>